<?xml version="1.0" standalone="no"?><!DOCTYPE svg PUBLIC "-//W3C//DTD SVG 1.1//EN" "http://www.w3.org/Graphics/SVG/1.1/DTD/svg11.dtd"><svg class="icon" width="200px" height="200.00px" viewBox="0 0 1024 1024" version="1.1" xmlns="http://www.w3.org/2000/svg"><path fill="#333333" d="M234.472 445.506h507.002c21.674 0 39.065 16.802 40.24 37.637h32.513c35.704 0 68.216 14.87 91.319 37.972 23.69 23.691 38.476 55.95 38.476 91.907 0 35.116-14.785 67.88-38.476 91.571-23.103 23.103-55.615 37.973-91.32 37.973h-51.078c-13.105 33.688-33.688 64.184-58.807 89.555h-0.588 0.588c-47.886 47.886-114.422 77.877-187.174 77.877h-59.06c-72.5 0-138.364-29.991-186.334-77.877-47.97-47.97-77.878-113.834-77.878-186.587V486.083c0.084-22.85 17.727-40.577 40.577-40.577z m224.812-54.775c5.376 12.602-0.588 26.8-13.106 31.336-11.677 5.46-26.211-0.588-31.084-12.517-6.3-15.458-11.173-31.336-14.87-47.97-3.444-16.55-5.124-33.1-5.124-50.238 0-16.55 1.764-33.688 5.124-49.902 3.109-16.214 8.57-32.512 14.87-47.886 4.873-12.266 19.407-17.978 31.084-12.854 12.602 5.125 18.566 19.155 13.106 31.42-5.125 12.014-8.821 25.12-12.014 38.813-2.52 12.853-3.696 26.547-3.696 40.493 0 14.281 1.176 27.975 3.696 40.829 2.604 13.105 6.553 26.21 12.014 38.476z m94.68-3.78c4.284 9.997-0.505 21.422-10.502 25.035-9.325 4.368-20.919-0.42-24.783-9.997-5.04-12.266-8.905-25.035-11.846-38.225-2.688-13.19-4.116-26.38-4.116-40.073 0-13.19 1.344-26.799 4.116-39.82 2.52-12.938 6.805-25.96 11.846-38.225 3.864-9.745 15.458-14.282 24.783-10.25 9.997 4.117 14.786 15.29 10.501 25.036-4.116 9.577-7.057 19.994-9.577 30.915-2.016 10.25-2.94 21.17-2.94 32.26 0 11.426 0.924 22.263 2.94 32.512 2.1 10.585 5.293 21.087 9.577 30.832z m-176.002 3.78c-5.125-12.265-9.157-25.37-12.014-38.476-2.604-12.854-3.696-26.548-3.696-40.83 0-13.945 1.092-27.639 3.696-40.492 2.857-13.694 6.89-26.8 12.014-38.813 6.553-15.458 11.425-31.084 14.87-47.382 3.444-16.802 4.872-33.688 4.872-50.742 0-16.214-1.428-33.688-4.872-49.902-3.445-16.214-8.233-32.512-14.87-47.634-5.125-12.265-19.407-18.23-31.336-12.853-12.013 5.124-17.978 19.406-12.518 31.672 5.125 12.601 8.822 25.119 12.014 38.224 2.268 12.854 3.696 26.548 3.696 40.493 0 14.282-1.428 27.976-3.696 40.83-3.192 13.44-6.889 26.21-12.014 38.812-6.216 15.374-11.677 31.672-14.785 47.886-3.697 16.298-5.125 33.352-5.125 49.902 0 17.138 1.428 33.688 5.125 50.238 3.108 16.55 8.569 32.512 14.785 47.97 5.125 11.929 18.819 17.978 31.084 12.517 11.93-4.536 18.23-18.818 12.77-31.42zM780.959 511.37V653.6c0 20.246-2.1 40.744-5.377 60.234h45.785c27.64 0 52.843-11.005 70.905-29.403 18.818-18.482 30.16-43.265 30.16-71.325 0-27.64-11.342-53.178-30.16-71.66-18.062-18.063-43.265-30.16-70.905-30.16H780.96v0.084z m-620.92 478.522c-13.105 0-23.943-10.25-23.943-23.943 0-13.442 10.838-23.943 23.943-23.943h655.616c13.441 0 24.53 10.585 24.53 23.943 0 13.694-11.089 23.943-24.53 23.943H160.039z m574.882-487.68h-493.98v138.282c0 58.387 24.111 111.565 62.672 150.126 38.644 38.644 92.075 62.42 149.79 62.42h68.3c58.387 0 111.566-23.776 150.462-62.42v0.336c38.309-38.897 62.672-92.075 62.672-150.462V502.213h0.084z"  /></svg>