<?xml version="1.0" standalone="no"?><!DOCTYPE svg PUBLIC "-//W3C//DTD SVG 1.1//EN" "http://www.w3.org/Graphics/SVG/1.1/DTD/svg11.dtd"><svg class="icon" width="200px" height="200.00px" viewBox="0 0 1024 1024" version="1.1" xmlns="http://www.w3.org/2000/svg"><path fill="#333333" d="M510.479 1017.821c-67.779 0-133.561-13.309-195.541-39.45-59.794-25.287-113.503-61.505-159.703-107.61-46.105-46.104-82.323-99.814-107.61-159.703-26.141-61.885-39.45-127.667-39.45-195.54s13.309-133.562 39.45-195.542c25.287-59.793 61.505-113.503 107.61-159.703C201.34 114.17 255.05 77.95 314.938 52.663c61.98-26.14 127.762-39.45 195.541-39.45s133.561 13.31 195.541 39.45c59.794 25.287 113.503 61.506 159.703 107.61 46.105 46.105 82.323 99.815 107.61 159.703 26.236 61.98 39.45 127.763 39.45 195.541s-13.309 133.561-39.45 195.541c-25.287 59.794-61.505 113.503-107.61 159.703-46.105 46.105-99.814 82.323-159.703 107.61-61.885 26.237-127.667 39.45-195.541 39.45z m0-960.88c-252.863 0-458.576 205.713-458.576 458.576S257.616 974.093 510.48 974.093 969.055 768.38 969.055 515.517 763.342 56.942 510.479 56.942z"  /><path fill="#333333" d="M671.893 358.571c-27.568-23.195-66.638-34.792-117.02-34.792H424.068v441.94H481.2V600.122h61.41c52.949 0 94.586-13.499 125.005-40.496s45.725-61.22 45.725-102.476c-0.095-42.588-13.88-75.384-41.447-98.579z m-48.576 168.163c-19.773 15.78-47.911 23.67-84.225 23.67h-57.987V373.402h63.691c36.314 0 63.501 7.605 81.373 22.72 17.871 15.114 26.807 36.218 26.807 63.215 0.095 29.089-9.791 51.523-29.66 67.398z"  /></svg>