<?xml version="1.0" standalone="no"?><!DOCTYPE svg PUBLIC "-//W3C//DTD SVG 1.1//EN" "http://www.w3.org/Graphics/SVG/1.1/DTD/svg11.dtd"><svg class="icon" width="200px" height="200.00px" viewBox="0 0 1024 1024" version="1.1" xmlns="http://www.w3.org/2000/svg"><path fill="#333333" d="M485.226 297.242c174.174 0 294.893 132.932 323.358 278.64h41.618c-23.58-180.28-177.838-319.506-364.976-319.506S143.83 395.696 120.25 575.883h41.617c28.465-145.71 149.185-278.641 323.359-278.641z m429.892 342.523H55.334c-17.004 0-30.72 10.334-30.72 23.017s13.716 23.016 30.72 23.016h859.784c17.004 0 30.72-10.334 30.72-23.016s-13.81-23.017-30.72-23.017z m-30.72 127.86H85.96c-17.004 0-30.72 10.333-30.72 23.016s13.716 23.016 30.72 23.016h798.438c16.91 0 30.72-10.334 30.72-23.016s-13.81-23.017-30.72-23.017zM178.12 895.388c-17.004 0-30.72 10.334-30.72 23.017s13.716 23.016 30.72 23.016h614.118c17.004 0 30.72-10.334 30.72-23.016s-13.716-23.017-30.72-23.017H178.12zM29.217 378.222c-10.992-6.388-14.843-20.386-8.455-31.471 6.388-10.992 20.386-14.843 31.471-8.455l59.843 34.572c10.992 6.388 14.844 20.386 8.455 31.471-6.388 10.992-20.386 14.843-31.471 8.455l-59.843-34.572z m942.644-16.91c10.991-6.388 25.083-2.63 31.471 8.455 6.388 10.992 2.63 25.084-8.455 31.472l-59.843 34.572c-10.991 6.388-25.083 2.63-31.471-8.455-6.389-10.992-2.63-25.084 8.455-31.472l59.843-34.572zM462.209 110.667c0-12.682 10.24-23.016 23.017-23.016 12.682 0 23.016 10.24 23.016 23.016v69.144c0 12.682-10.24 23.016-23.016 23.016-12.683 0-23.017-10.24-23.017-23.016v-69.144z"  /><path fill="#333333" d="M792.238 941.516H178.12c-17.004 0-30.814-10.334-30.814-23.11s13.81-23.11 30.814-23.11h614.118c17.004 0 30.814 10.333 30.814 23.11s-13.81 23.11-30.814 23.11zM178.12 895.483c-16.91 0-30.626 10.24-30.626 22.923s13.716 22.922 30.626 22.922h614.118c16.91 0 30.626-10.24 30.626-22.922s-13.716-22.923-30.626-22.923H178.12z m706.278-81.732H85.96c-17.004 0-30.814-10.334-30.814-23.11s13.81-23.11 30.814-23.11h798.438c17.004 0 30.814 10.333 30.814 23.11s-13.81 23.11-30.814 23.11zM85.96 767.718c-16.91 0-30.626 10.24-30.626 22.923s13.716 22.922 30.626 22.922h798.438c16.91 0 30.626-10.24 30.626-22.922s-13.716-22.923-30.626-22.923H85.96z m829.158-81.826H55.334c-17.004 0-30.814-10.334-30.814-23.11s13.81-23.11 30.814-23.11h859.784c17.004 0 30.814 10.333 30.814 23.11s-13.81 23.11-30.814 23.11zM55.334 639.86c-16.91 0-30.626 10.24-30.626 22.923s13.715 22.922 30.626 22.922h859.784c16.91 0 30.626-10.24 30.626-22.922s-13.716-22.923-30.626-22.923H55.334z m794.868-63.882h-41.618c-0.094 0-0.094 0-0.094-0.094-14.091-72.15-53.079-147.212-114.8-201.23a288.356 288.356 0 0 1 7.985 7.14c27.338 25.364 50.542 55.333 69.05 88.965 18.037 32.975 30.907 68.298 38.047 104.937h41.43C826.152 393.723 669.358 256.47 485.226 256.47S144.299 393.723 120.343 575.789h41.43c7.14-36.639 19.917-71.962 38.048-104.937 18.413-33.726 41.711-63.6 69.05-88.966 2.63-2.442 5.26-4.791 7.985-7.14-61.816 53.925-100.803 128.987-114.895 201.137 0 0.094-0.094 0.094-0.094 0.094h-41.711v-0.094c11.46-87.745 54.488-168.444 121.189-227.441 32.974-29.123 70.364-51.858 111.23-67.64 42.276-16.347 86.9-24.614 132.745-24.614 45.75 0 90.375 8.267 132.744 24.613 40.866 15.783 78.256 38.518 111.23 67.64 66.702 58.904 109.728 139.697 121.19 227.442-0.188 0-0.188 0-0.282 0.094z m73.37-136.972c-1.972 0-4.039-0.282-6.012-0.752-6.012-1.597-10.991-5.449-14.091-10.803-3.1-5.355-3.946-11.556-2.349-17.568 1.597-6.013 5.449-10.992 10.804-14.092l59.843-34.572c5.354-3.1 11.555-3.945 17.567-2.348 6.013 1.597 10.992 5.449 14.092 10.803 3.1 5.355 3.946 11.556 2.349 17.568-1.597 6.013-5.45 10.992-10.804 14.092l-59.937 34.572a22.839 22.839 0 0 1-11.461 3.1z m59.75-80.699a22.839 22.839 0 0 0-11.461 3.1l-59.843 34.572c-5.355 3.1-9.113 8.08-10.71 13.998-1.597 5.918-0.752 12.025 2.349 17.38 3.1 5.354 8.079 9.112 13.997 10.71 5.919 1.596 12.025 0.75 17.38-2.35l59.843-34.571c5.355-3.1 9.113-8.08 10.71-13.998 1.597-5.918 0.751-12.025-2.349-17.38-3.1-5.355-8.08-9.112-13.998-10.71-1.972-0.563-3.945-0.75-5.918-0.75z m-11.461 3.006z m-871.34 54.676c-4.04 0-7.985-1.033-11.555-3.1l-59.843-34.572c-5.355-3.1-9.207-8.079-10.804-14.091-1.597-5.919-0.751-12.213 2.255-17.568 3.1-5.355 8.08-9.207 14.092-10.804 6.012-1.597 12.213-0.751 17.567 2.255l59.843 34.572c5.355 3.1 9.207 8.079 10.804 14.091 1.597 5.919 0.752 12.213-2.255 17.568-3.1 5.355-8.079 9.207-14.091 10.804-1.973 0.563-4.04 0.845-6.013 0.845z m-71.304-37.86L89.06 412.7c10.897 6.294 24.99 2.537 31.283-8.455 6.295-10.897 2.537-24.99-8.455-31.284L52.046 338.39c-10.898-6.295-24.99-2.537-31.284 8.455-6.2 10.803-2.443 24.895 8.455 31.283z m543.19-69.237c-26.963-7.422-56.086-11.555-87.181-11.555-31.096 0-60.219 4.133-87.181 11.555 27.995-7.797 57.118-11.837 87.18-11.837 29.97 0 59.186 4.04 87.182 11.837z m-87.181-105.97c-12.777 0-23.11-10.334-23.11-23.11v-69.144c0-12.776 10.333-23.11 23.11-23.11s23.11 10.334 23.11 23.11v69.144c0 12.682-10.334 23.11-23.11 23.11z m0-115.176c-12.589 0-22.923 10.24-22.923 22.922v69.144c0 12.588 10.24 22.922 22.923 22.922s22.922-10.24 22.922-22.922v-69.144c0-12.682-10.334-22.922-22.922-22.922z"  /></svg>