<?xml version="1.0" standalone="no"?><!DOCTYPE svg PUBLIC "-//W3C//DTD SVG 1.1//EN" "http://www.w3.org/Graphics/SVG/1.1/DTD/svg11.dtd"><svg class="icon" width="200px" height="200.00px" viewBox="0 0 1024 1024" version="1.1" xmlns="http://www.w3.org/2000/svg"><path fill="#333333" d="M260.346 502.187c-87.156 0-159.732-78.424-159.732-174.231V57.836c0-17.382 11.615-28.998 28.998-28.998 17.463 0 29.079 11.616 29.079 28.999v270.038c0 63.925 46.461 116.155 101.655 116.155S362 391.8 362 327.875V66.568c0-17.383 11.615-28.998 29.078-28.998s29.079 11.615 29.079 28.998v261.388c-0.08 95.807-72.656 174.231-159.812 174.231z"  /><path fill="#333333" d="M376.5 324.35H129.692c-14.499 0-28.998-10.733-28.998-26.835s11.615-26.836 28.998-26.836h249.772c14.5 0 29.079 10.735 29.079 26.836-0.08 16.021-14.66 26.836-32.043 26.836z"  /><path fill="#333333" d="M260.346 324.35c-16.102 0-26.836-11.454-26.836-28.677V66.248c0-17.223 10.734-28.678 26.836-28.678s26.835 11.455 26.835 28.678v229.425c0 17.142-10.734 28.678-26.835 28.678z m0 671.533c-16.102 0-26.836-11.616-26.836-28.999V502.267c0-17.463 10.734-29.079 26.836-29.079s26.835 11.616 26.835 29.08v464.616c0 17.383-10.734 28.999-26.835 28.999z m501.145 0c-16.101 0-26.835-11.616-26.835-28.999V502.267c0-17.463 10.734-29.079 26.835-29.079s26.836 11.616 26.836 29.08v464.616c0 17.383-10.734 28.999-26.836 28.999z"  /><path fill="#333333" d="M761.491 503.95c-24.993 0-49.105-6.49-71.775-19.306-21.388-12.096-40.614-29.24-56.956-51.028-32.843-43.738-50.867-101.655-50.867-163.017s18.104-119.278 50.867-163.016c16.342-21.79 35.488-38.932 56.956-51.028 22.67-12.817 46.782-19.306 71.775-19.306s49.106 6.49 71.776 19.306c21.388 12.096 40.614 29.239 56.955 51.028 32.844 43.738 50.868 101.655 50.868 163.016s-18.104 119.279-50.868 163.017c-16.341 21.789-35.487 38.932-56.955 51.028-22.67 12.817-46.863 19.305-71.776 19.305z m0-429.852c-37.089 0-72.336 19.707-99.251 55.594-28.038 37.41-43.498 87.476-43.498 140.907s15.46 103.498 43.498 140.908c26.915 35.807 62.082 55.593 99.251 55.593s72.336-19.706 99.252-55.593c28.037-37.41 43.498-87.477 43.498-140.908s-15.46-103.497-43.498-140.907c-26.916-35.887-62.162-55.594-99.252-55.594z"  /></svg>