<?xml version="1.0" standalone="no"?><!DOCTYPE svg PUBLIC "-//W3C//DTD SVG 1.1//EN" "http://www.w3.org/Graphics/SVG/1.1/DTD/svg11.dtd"><svg class="icon" width="200px" height="200.00px" viewBox="0 0 1024 1024" version="1.1" xmlns="http://www.w3.org/2000/svg"><path fill="#333333" d="M1002.666667 170.666667H938.666667V106.666667C938.666667 46.933333 891.733333 0 832 0h-640C132.266667 0 85.333333 46.933333 85.333333 106.666667V170.666667H21.333333c-12.8 0-21.333333 8.533333-21.333333 21.333333s8.533333 21.333333 21.333333 21.333333H85.333333v661.333334c0 34.133333 29.866667 64 64 64H213.333333v21.333333c0 34.133333 29.866667 64 64 64h597.333334c34.133333 0 64-29.866667 64-64V213.333333h64c12.8 0 21.333333-8.533333 21.333333-21.333333s-8.533333-21.333333-21.333333-21.333333zM128 106.666667C128 72.533333 157.866667 42.666667 192 42.666667h640c34.133333 0 64 29.866667 64 64V170.666667h-85.333333v-21.333334c0-12.8 8.533333-21.333333 21.333333-21.333333s21.333333-8.533333 21.333333-21.333333-8.533333-21.333333-21.333333-21.333334c-34.133333 0-64 29.866667-64 64V640H128V106.666667zM128 682.666667h640v85.333333H128v-85.333333z m21.333333 213.333333c-12.8 0-21.333333-8.533333-21.333333-21.333333V810.666667h640v64c0 12.8-8.533333 21.333333-21.333333 21.333333h-597.333334zM896 960c0 12.8-8.533333 21.333333-21.333333 21.333333h-597.333334c-12.8 0-21.333333-8.533333-21.333333-21.333333V938.666667h490.666667c34.133333 0 64-29.866667 64-64V213.333333h85.333333v746.666667z" /></svg>