<?xml version="1.0" standalone="no"?><!DOCTYPE svg PUBLIC "-//W3C//DTD SVG 1.1//EN" "http://www.w3.org/Graphics/SVG/1.1/DTD/svg11.dtd"><svg class="icon" width="200px" height="200.00px" viewBox="0 0 1024 1024" version="1.1" xmlns="http://www.w3.org/2000/svg"><path fill="#333333" d="M829.196 969.775H154.087c-13.315 0-24.121-10.806-24.121-24.121V35.507c0-13.315 10.806-24.122 24.121-24.122h675.109c13.315 0 24.121 10.807 24.121 24.122v910.147c0 13.315-10.806 24.121-24.121 24.121z m-654.847-44.383h634.585V55.769H174.349v869.623z"  /><path fill="#333333" d="M804.978 369.153h-626.77c-12.253 0-22.191-9.938-22.191-22.191s9.938-22.192 22.192-22.192h626.769c12.254 0 22.192 9.938 22.192 22.192s-9.938 22.191-22.192 22.191z m0 339.436h-626.77c-12.253 0-22.191-9.938-22.191-22.192s9.938-22.191 22.192-22.191h626.769c12.254 0 22.192 9.938 22.192 22.191s-9.938 22.192-22.192 22.192zM622.235 220.662H361.049c-9.553 0-17.368-7.815-17.368-17.367s7.815-17.368 17.368-17.368h261.186c9.552 0 17.367 7.816 17.367 17.368s-7.719 17.367-17.367 17.367z m0 313.385H361.049c-9.553 0-17.368-7.815-17.368-17.367s7.815-17.368 17.368-17.368h261.186c9.552 0 17.367 7.815 17.367 17.368s-7.719 17.367-17.367 17.367z m0 313.385H361.049c-9.553 0-17.368-7.816-17.368-17.368s7.815-17.367 17.368-17.367h261.186c9.552 0 17.367 7.815 17.367 17.367s-7.719 17.368-17.367 17.368z m-319.946 118.87h91.372v52.198h-91.372z m287.237 0h91.372v52.198h-91.372z"  /></svg>