<?xml version="1.0" standalone="no"?><!DOCTYPE svg PUBLIC "-//W3C//DTD SVG 1.1//EN" "http://www.w3.org/Graphics/SVG/1.1/DTD/svg11.dtd"><svg class="icon" width="200px" height="200.00px" viewBox="0 0 1024 1024" version="1.1" xmlns="http://www.w3.org/2000/svg"><path fill="#333333" d="M512 640c-72.533333 0-128 55.466667-128 128s55.466667 128 128 128 128-55.466667 128-128-55.466667-128-128-128z m0 213.333333c-46.933333 0-85.333333-38.4-85.333333-85.333333s38.4-85.333333 85.333333-85.333333 85.333333 38.4 85.333333 85.333333-38.4 85.333333-85.333333 85.333333z m251.733333-247.466666c8.533333 8.533333 4.266667 21.333333-4.266666 29.866666-8.533333 8.533333-21.333333 4.266667-29.866667-4.266666C678.4 554.666667 597.333333 512 512 512s-166.4 42.666667-217.6 119.466667c-8.533333 8.533333-21.333333 12.8-29.866667 4.266666s-12.8-21.333333-4.266666-29.866666C320 516.266667 413.866667 469.333333 512 469.333333s192 46.933333 251.733333 136.533334z m128-128c8.533333 8.533333 8.533333 21.333333 0 29.866666-8.533333 8.533333-21.333333 8.533333-29.866666 0C785.066667 413.866667 635.733333 341.333333 512 341.333333c-119.466667 0-268.8 68.266667-345.6 162.133334-8.533333 8.533333-21.333333 8.533333-29.866667 4.266666-8.533333-8.533333-8.533333-21.333333-4.266666-29.866666C221.866667 371.2 379.733333 298.666667 512 298.666667c136.533333 0 298.666667 76.8 379.733333 179.2z m128-98.133334c-8.533333 8.533333-21.333333 8.533333-29.866666 0C861.866667 247.466667 699.733333 170.666667 512 170.666667S162.133333 247.466667 38.4 375.466667c-8.533333 8.533333-25.6 8.533333-29.866667 0-8.533333-8.533333-8.533333-17.066667-4.266666-25.6C140.8 209.066667 311.466667 128 512 128s371.2 81.066667 507.733333 221.866667c8.533333 8.533333 4.266667 21.333333 0 29.866666-4.266667 0-4.266667 0 0 0z" /></svg>