<?xml version="1.0" standalone="no"?><!DOCTYPE svg PUBLIC "-//W3C//DTD SVG 1.1//EN" "http://www.w3.org/Graphics/SVG/1.1/DTD/svg11.dtd"><svg class="icon" width="200px" height="200.00px" viewBox="0 0 1024 1024" version="1.1" xmlns="http://www.w3.org/2000/svg"><path fill="#333333" d="M943.36 32.936H81.702c-41.436 0-75.222 33.68-75.222 75.223v622.283c0 41.436 33.68 75.222 75.222 75.222H437.31v136.739H321.076c-15.087 0-27.306 12.218-27.306 27.305s12.219 27.305 27.306 27.305h382.91c15.088 0 27.306-12.218 27.306-27.305s-12.218-27.305-27.305-27.305H587.753V805.558H943.36c41.436 0 75.222-33.68 75.222-75.222V108.159c0-41.543-33.786-75.223-75.222-75.223zM81.702 87.546h861.55c11.368 0 20.505 9.244 20.505 20.506v499.25H61.198V108.16c0-11.369 9.243-20.612 20.505-20.612z m451.334 854.857h-41.118V805.558h41.118v136.845z m410.322-191.456H81.703c-11.368 0-20.505-9.243-20.505-20.505V662.02h902.667v68.422c0 11.262-9.244 20.505-20.506 20.505z"  /><path fill="#333333" d="M664.676 522.2H351.25c-10.519 0-19.125-8.606-19.125-19.125V220.992c0-10.518 8.606-19.124 19.125-19.124s19.124 8.606 19.124 19.124V483.95h294.302c10.518 0 19.124 8.606 19.124 19.124s-8.5 19.125-19.124 19.125z"  /><path fill="#333333" d="M429.66 443.79c-4.888 0-9.775-1.912-13.494-5.631-7.437-7.437-7.437-19.55 0-27.093l74.372-74.372c7.013-7.012 18.275-7.544 25.818-1.063l37.611 31.662 50.255-50.255c7.437-7.437 19.549-7.437 27.092 0 7.438 7.438 7.438 19.55 0 27.093l-62.685 62.685c-7.012 7.013-18.274 7.544-25.818 1.063l-37.61-31.662-61.942 61.942c-3.719 3.825-8.712 5.631-13.6 5.631z"  /><path fill="#333333" d="M663.507 374.305l-90.522-83.828 117.827-36.549z"  /></svg>