<?xml version="1.0" standalone="no"?><!DOCTYPE svg PUBLIC "-//W3C//DTD SVG 1.1//EN" "http://www.w3.org/Graphics/SVG/1.1/DTD/svg11.dtd"><svg class="icon" width="200px" height="199.80px" viewBox="0 0 1025 1024" version="1.1" xmlns="http://www.w3.org/2000/svg"><path fill="#333333" d="M277.333333 213.333333C217.6 213.333333 170.666667 260.266667 170.666667 320S217.6 426.666667 277.333333 426.666667 384 379.733333 384 320 337.066667 213.333333 277.333333 213.333333z m0 170.666667C243.2 384 213.333333 354.133333 213.333333 320S243.2 256 277.333333 256 341.333333 285.866667 341.333333 320 311.466667 384 277.333333 384z m430.933334-174.933333c-21.333333-8.533333-42.666667-12.8-59.733334-17.066667-55.466667-17.066667-110.933333-34.133333-170.666666-51.2C366.933333 106.666667 285.866667 85.333333 256 85.333333 110.933333 85.333333 0 183.466667 0 320c0 85.333333 42.666667 153.6 106.666667 196.266667v4.266666c8.533333 29.866667 12.8 68.266667 17.066666 115.2 4.266667 55.466667 4.266667 115.2 4.266667 174.933334 0 46.933333 38.4 85.333333 85.333333 85.333333h85.333334c51.2 0 85.333333-29.866667 85.333333-85.333333v-12.8c0-81.066667 8.533333-140.8 38.4-204.8 12.8-25.6 25.6-46.933333 42.666667-68.266667 0-4.266667 4.266667-4.266667 4.266666-8.533333 21.333333-4.266667 42.666667-12.8 64-17.066667 59.733333-17.066667 119.466667-34.133333 174.933334-51.2 8.533333-4.266667 12.8-12.8 12.8-21.333333V230.4c4.266667-8.533333 0-17.066667-12.8-21.333333zM384 576c-34.133333 72.533333-42.666667 140.8-42.666667 221.866667v12.8c0 29.866667-12.8 42.666667-42.666666 42.666666H213.333333c-25.6 0-42.666667-21.333333-42.666666-42.666666 4.266667-59.733333 0-119.466667 0-183.466667 0-29.866667-4.266667-59.733333-12.8-89.6 29.866667 12.8 64 17.066667 98.133333 17.066667 34.133333 0 89.6-8.533333 149.333333-21.333334-8.533333 12.8-17.066667 25.6-21.333333 42.666667z m298.666667-298.666667v136.533334c-51.2 17.066667-106.666667 34.133333-162.133334 46.933333-25.6 8.533333-46.933333 12.8-72.533333 17.066667-85.333333 21.333333-149.333333 34.133333-192 34.133333-123.733333 0-213.333333-81.066667-213.333333-192S132.266667 128 256 128c25.6 0 102.4 21.333333 213.333333 51.2 72.533333 21.333333 140.8 42.666667 213.333334 64v34.133333z m337.066666 132.266667c-4.266667 8.533333-12.8 12.8-17.066666 21.333333-17.066667 12.8-34.133333 17.066667-51.2 17.066667-21.333333 0-34.133333-4.266667-64-25.6-21.333333-12.8-34.133333-17.066667-42.666667-17.066667-12.8 0-21.333333 4.266667-34.133333 4.266667-4.266667 0-4.266667 4.266667-8.533334 4.266667-8.533333 8.533333-21.333333 4.266667-29.866666-4.266667-4.266667-8.533333-4.266667-21.333333 4.266666-29.866667 4.266667-4.266667 8.533333-8.533333 17.066667-8.533333 17.066667-4.266667 29.866667-8.533333 46.933333-8.533333 21.333333 0 34.133333 4.266667 64 25.6 21.333333 12.8 34.133333 17.066667 42.666667 17.066666 8.533333 0 21.333333-4.266667 25.6-8.533333 8.533333-4.266667 8.533333-8.533333 12.8-8.533333 4.266667-8.533333 21.333333-12.8 29.866667-8.533334 8.533333 8.533333 12.8 21.333333 4.266666 29.866667z m-247.466666-128c-8.533333-8.533333-4.266667-21.333333 4.266666-29.866667 4.266667-4.266667 8.533333-8.533333 17.066667-8.533333 17.066667-4.266667 29.866667-8.533333 46.933333-8.533333 21.333333 0 34.133333 8.533333 64 25.6 21.333333 12.8 34.133333 17.066667 42.666667 17.066666 8.533333 0 21.333333-4.266667 25.6-8.533333 8.533333-4.266667 8.533333-4.266667 12.8-8.533333 4.266667-8.533333 21.333333-12.8 29.866667-8.533334 8.533333 4.266667 12.8 21.333333 8.533333 29.866667-4.266667 8.533333-12.8 12.8-17.066667 21.333333-17.066667 12.8-34.133333 17.066667-51.2 17.066667-21.333333 0-34.133333-8.533333-64-25.6-21.333333-12.8-34.133333-17.066667-42.666666-17.066667-12.8 0-21.333333 4.266667-34.133334 4.266667-4.266667 0-4.266667 4.266667-8.533333 4.266667-12.8 8.533333-25.6 8.533333-34.133333-4.266667z" /></svg>