<?xml version="1.0" standalone="no"?><!DOCTYPE svg PUBLIC "-//W3C//DTD SVG 1.1//EN" "http://www.w3.org/Graphics/SVG/1.1/DTD/svg11.dtd"><svg class="icon" width="200px" height="200.00px" viewBox="0 0 1024 1024" version="1.1" xmlns="http://www.w3.org/2000/svg"><path fill="#333333" d="M810.483 637.765c2.337-27.768-8.357-81.507-65.78-93.01-15.906-3.145-30.644-2.066-43.315 2.966-2.965-7.728-7.369-15.277-13.39-21.927-13.03-14.378-32.26-22.735-55.535-24.173-17.074-1.079-31.093 0.988-43.135 5.93-2.067-4.043-4.673-7.997-7.908-11.861-14.558-17.074-37.923-25.881-70.453-26.15-12.761 0-27.14 2.066-37.204 5.481l0.27-192.13c0.449-7.548 0.359-37.023-21.748-58.5-13.3-12.941-31.901-19.95-55.356-20.22-62.096 0-79.979 51.312-80.788 78.72l0.09 303.292c-15.456-8.897-36.125-16.445-55.536-16.445-32.53 0-62.815 14.468-77.013 36.754-12.311 19.23-11.503 42.326 2.157 63.354 18.422 28.217 33.968 61.108 50.413 95.885 18.872 39.81 40.17 84.921 69.375 130.123 52.66 81.507 64.613 106.938 64.882 107.477 3.595 7.818 12.042 12.94 21.478 12.94h280.825c7.279 0.45 14.558-2.426 19.32-7.548a21.625 21.625 0 0 0 3.775-5.841c2.066-3.505 108.465-111.162 114.846-281.813 1.617-46.28-0.27-83.304-0.27-83.304z m-51.312 118.89c-46.55 191.86-83.484 198.24-91.212 210.64H406.634c-8.357-15.186-25.97-38.281-60.927-92.47-27.768-42.954-47.628-84.92-66.86-125.54-17.073-36.035-33.159-62.994-53.109-93.548-5.302-8.177-5.93-15.276-1.977-21.477 5.931-9.256 21.028-15.816 36.755-15.816 11.233 0 38.91 3.684 53.559 37.833 4.043 9.345 14.917 7.638 25.79 5.93 10.964-1.797 29.656-10.244 29.835-20.219l0.09-351.637c0.63-3.955-5.302-37.474 27.768-37.474 8.627 0.18 10.514 2.516 14.109 6.83 7.818 9.346 8.357 23.814 8.088 28.936a7.283 7.283 0 0 0 0 1.977l0.449 243.262c-3.684 24.712 1.707 47.897 1.887 48.976 2.516 10.604 19.051 19.14 31.003 17.703 11.952-1.258 20.849-10.514 20.49-21.298v-34.328c4.582-23.185 23.094-26.42 37.922-26.42 11.233 0.09 25.97 1.887 32.8 9.705 8.178 9.436 4.403 18.243 4.403 18.243v7.1c-0.539 1.976-0.808 3.953-0.718 5.93l0.539 13.03c-1.079 13.75 1.168 17.704 1.438 18.872 2.336 10.694 13.48 18.152 25.52 16.715 12.043-1.259 21.03-10.694 20.49-21.568l-0.899-12.76c2.516-21.298 15.277-24.174 33.969-23.096 13.929 0.9 19.68 5.482 22.825 8.987 7.908 8.717 10.964 25.97 8.088 46.19-1.707 6.74-2.247 4.134-2.336 5.122-0.989 10.784 7.548 20.49 19.5 22.197 11.862 1.707 23.365 0.898 26.24-9.706 0 0 1.169-4.403 2.337-11.323 6.11-21.297 17.433-21.297 21.208-21.297 2.246 0 4.762 0.27 7.458 0.808 32.89 6.56 29.656 47.988 29.566 49.605-0.09 0.63-0.09 1.258-0.09 1.887 0.18-0.09 8.177 60.479-4.673 113.499z"  /><path fill="#333333" d="M238.769 389.47c-5.572 0-11.144-2.246-15.187-6.65-38.372-41.517-59.49-95.615-59.49-152.14 0-59.849 23.274-116.103 65.6-158.43 42.326-42.325 98.671-65.69 158.52-65.69 59.85 0 116.194 23.275 158.52 65.6 42.326 42.327 65.601 98.582 65.601 158.52 0 55.267-20.31 108.377-57.153 149.445-7.639 8.537-20.67 9.166-29.206 1.617-8.537-7.638-9.166-20.669-1.618-29.206 30.015-33.429 46.55-76.743 46.55-121.765 0-100.828-81.956-182.784-182.783-182.784s-182.784 81.956-182.784 182.784c0 46.1 17.254 90.223 48.527 124.102 7.728 8.357 7.189 21.477-1.169 29.206-3.864 3.594-8.896 5.391-13.928 5.391z"  /></svg>