<?xml version="1.0" standalone="no"?><!DOCTYPE svg PUBLIC "-//W3C//DTD SVG 1.1//EN" "http://www.w3.org/Graphics/SVG/1.1/DTD/svg11.dtd"><svg class="icon" width="200px" height="200.00px" viewBox="0 0 1024 1024" version="1.1" xmlns="http://www.w3.org/2000/svg"><path fill="#333333" d="M756.753 70.624H558.37c0.587-1.676 0-54.455 0-54.455h-55.627s-0.503 53.114 0 54.455H266.66c-104.135 0-188.498 84.446-188.498 188.497v339.294c0 104.135 84.363 188.498 188.498 188.498h137.142L234.407 970.718c-9.216 9.97-6.619 24.044 5.613 31.584s26.976 5.362 36.191-4.608l194.194-210.781h22.452V937.71c0 10.389 5.613 18.85 16.001 18.85h18.85c10.388 0 16.001-8.461 16.001-18.85V786.913h20.86l200.143 216.813c9.383 10.22 24.463 12.315 37.113 4.692 12.65-7.624 15.247-22.034 5.864-32.254L633.015 786.913h123.738c104.134 0 188.497-84.447 188.497-188.498V259.121c0.084-104.134-84.363-188.497-188.497-188.497z m137.645 527.875c0 72.886-64.76 137.645-137.645 137.645H266.661c-72.886 0-137.645-64.76-137.645-137.645V259.204c0-72.885 64.759-137.644 137.645-137.644h490.092c72.886 0 137.645 64.759 137.645 137.644V598.5z"  /><path fill="#333333" d="M322.12 603.274c0 0.42 0.42 0.838 0.838 0.838H368.7c0.42 0 0.838-0.419 0.838-0.838V448.288a0.84 0.84 0 0 0-0.838-0.838h-45.742a0.84 0.84 0 0 0-0.837 0.838v154.986z m221.17 0a0.84 0.84 0 0 0 0.838 0.838h45.742c0.42 0 0.838-0.419 0.838-0.838V465.63c0-0.42-0.419-0.838-0.838-0.838h-45.742a0.84 0.84 0 0 0-0.837 0.838v137.644z m-110.584 0a0.84 0.84 0 0 0 0.837 0.838h45.742c0.42 0 0.838-0.419 0.838-0.838V378.586c0-0.419-0.419-0.838-0.838-0.838h-45.742a0.84 0.84 0 0 0-0.837 0.838v224.688z m221.253 0a0.84 0.84 0 0 0 0.838 0.838h45.742a0.84 0.84 0 0 0 0.838-0.838V291.626a0.84 0.84 0 0 0-0.838-0.838h-45.742a0.84 0.84 0 0 0-0.838 0.838v311.648z"  /></svg>