<?xml version="1.0" standalone="no"?><!DOCTYPE svg PUBLIC "-//W3C//DTD SVG 1.1//EN" "http://www.w3.org/Graphics/SVG/1.1/DTD/svg11.dtd"><svg class="icon" width="200px" height="200.00px" viewBox="0 0 1024 1024" version="1.1" xmlns="http://www.w3.org/2000/svg"><path fill="#333333" d="M687.249 424.852h-52.68c0 33.916-12.041 62.815-36.023 86.897-23.982 23.982-52.981 36.023-86.797 36.023-11.138 0-21.875-1.505-32.31-4.616-10.436-3.11-20.17-7.224-29.1-12.442s-17.058-11.54-24.483-18.965c-7.426-7.425-13.747-15.553-18.965-24.484s-9.432-18.764-12.443-29.6c-3.11-10.737-4.616-21.675-4.616-32.813h-52.68c0 48.666 17.059 90.108 51.276 124.225 34.217 34.217 75.458 51.275 123.823 51.275s89.606-17.058 123.823-51.275c34.117-34.117 51.175-75.559 51.175-124.225z m331.634 182.022c0-21.573-2.91-42.645-8.73-63.316-5.82-20.67-14.149-39.736-24.986-57.296-10.736-17.56-23.68-33.615-38.832-48.064-15.052-14.45-31.91-26.591-50.373-36.525-1.204-68.936-19.065-132.453-53.583-190.35S761.402 107.567 702.902 73.651c-58.5-33.816-122.217-50.774-191.253-50.774-25.889 0-51.275 2.61-76.16 7.827-24.886 5.218-48.767 12.643-71.645 22.176C341.066 62.413 319.29 74.153 298.72 88s-39.435 29.3-56.393 46.158c-16.958 16.958-32.51 35.521-46.66 55.89s-26.189 41.743-36.022 64.22c-9.834 22.477-17.56 46.158-23.08 71.143s-8.328 50.372-8.328 76.26c-37.528 20.27-67.43 48.768-89.606 85.493C16.456 523.79 5.419 563.727 5.419 606.774c0 53.583 16.355 101.346 48.967 143.19s74.555 69.637 125.63 83.184l-52.68 169.078h52.68l17.56-52.68 47.16-157.94h-0.903c-1.204 0.602-2.207 0.903-2.81 0.903-50.472 0-93.62-18.062-129.341-53.985-35.722-36.023-53.583-79.27-53.583-129.844 0-29.6 6.622-57.095 19.867-82.682 13.246-25.588 31.207-46.96 53.985-64.22 9.834 69.538 36.625 131.65 80.375 186.137S310.26 742.036 374.88 766.62L318.69 949.646l-16.657 51.777h52.58l17.56-51.777 74.856-216.139c-76.361-15.352-139.979-53.583-190.752-114.592-50.774-61.008-76.16-131.148-76.16-210.62 0-60.406 14.75-116.096 44.351-167.17 29.601-51.075 69.94-91.413 121.014-121.014 51.074-29.602 106.564-44.352 166.268-44.352 36.324 0 71.444 5.519 105.36 16.657s64.32 26.992 91.413 47.562 50.773 44.452 71.143 71.545 36.224 57.597 47.562 91.412c11.44 33.816 17.059 68.936 17.059 105.36 0 79.472-25.387 149.612-76.16 210.62s-114.693 99.14-191.656 114.592l75.76 216.139 17.56 51.777h51.776l-15.653-51.777L649.52 766.72c64.019-24.584 118.104-64.22 162.154-118.706s70.943-116.599 80.776-186.136c22.778 17.259 40.84 38.632 54.085 64.22 13.245 25.587 19.868 53.08 19.868 82.682 0 50.472-17.86 93.82-53.583 129.844s-78.87 53.984-129.342 53.984c-0.602 0-1.204-0.3-1.907-0.903h-1.906l47.161 157.94 17.56 52.68h52.68l-52.78-169.078c51.074-13.546 93.018-41.24 125.63-83.184 32.61-41.843 48.967-89.607 48.967-143.19z"  /></svg>