<?xml version="1.0" standalone="no"?><!DOCTYPE svg PUBLIC "-//W3C//DTD SVG 1.1//EN" "http://www.w3.org/Graphics/SVG/1.1/DTD/svg11.dtd"><svg class="icon" width="200px" height="200.00px" viewBox="0 0 1024 1024" version="1.1" xmlns="http://www.w3.org/2000/svg"><path fill="#333333" d="M746.666667 725.333333c-12.8 0-21.333333 8.533333-21.333334 21.333334v89.6c0 8.533333-8.533333 17.066667-12.8 17.066666H554.666667V213.333333c0-8.533333-4.266667-17.066667-12.8-21.333333-29.866667-8.533333-55.466667-21.333333-81.066667-29.866667C401.066667 136.533333 341.333333 115.2 281.6 93.866667l-12.8-4.266667c-46.933333-17.066667-85.333333-34.133333-123.733333-46.933333h563.2c8.533333 0 17.066667 8.533333 17.066666 17.066666v174.933334c0 12.8 8.533333 21.333333 21.333334 21.333333s21.333333-8.533333 21.333333-21.333333V59.733333c0-34.133333-25.6-59.733333-59.733333-59.733333H21.333333 17.066667C12.8 0 8.533333 4.266667 4.266667 8.533333v4.266667C0 17.066667 0 17.066667 0 21.333333v759.466667c0 34.133333 25.6 64 55.466667 76.8l430.933333 162.133333c38.4 12.8 68.266667-8.533333 68.266667-46.933333V896h157.866666c29.866667 0 55.466667-25.6 55.466667-59.733333v-89.6c0-12.8-8.533333-21.333333-21.333333-21.333334zM512 972.8c0 8.533333-4.266667 8.533333-12.8 8.533333L68.266667 819.2c-12.8-8.533333-25.6-25.6-25.6-38.4V51.2c46.933333 17.066667 119.466667 42.666667 209.066666 76.8l12.8 4.266667c81.066667 29.866667 166.4 64 247.466667 93.866666v746.666667z m-85.333333-482.133333v128c0 12.8-8.533333 21.333333-21.333334 21.333333s-21.333333-8.533333-21.333333-21.333333v-128c0-12.8 8.533333-21.333333 21.333333-21.333334s21.333333 8.533333 21.333334 21.333334z m426.666666-59.733334v-25.6C853.333333 345.6 806.4 298.666667 746.666667 298.666667S640 345.6 640 405.333333v25.6c-25.6 8.533333-42.666667 34.133333-42.666667 59.733334v128c0 34.133333 29.866667 64 64 64h170.666667c34.133333 0 64-29.866667 64-64v-128c0-29.866667-17.066667-51.2-42.666667-59.733334z m-170.666666-25.6c0-34.133333 29.866667-64 64-64s64 29.866667 64 64v21.333334h-128v-21.333334z m170.666666 213.333334c0 12.8-8.533333 21.333333-21.333333 21.333333h-170.666667c-12.8 0-21.333333-8.533333-21.333333-21.333333v-128c0-12.8 8.533333-21.333333 21.333333-21.333334h170.666667c12.8 0 21.333333 8.533333 21.333333 21.333334v128z" /></svg>