<?xml version="1.0" standalone="no"?><!DOCTYPE svg PUBLIC "-//W3C//DTD SVG 1.1//EN" "http://www.w3.org/Graphics/SVG/1.1/DTD/svg11.dtd"><svg class="icon" width="200px" height="200.00px" viewBox="0 0 1024 1024" version="1.1" xmlns="http://www.w3.org/2000/svg"><path fill="#333333" d="M279.254 193.762v669.89H62.714v-669.89h216.54m42.145-46.157H20.57a4.026 4.026 0 0 0-4.013 4.013v754.178a4.026 4.026 0 0 0 4.013 4.014H321.4a4.026 4.026 0 0 0 4.013-4.014V151.618a4.026 4.026 0 0 0-4.013-4.013z"  /><path fill="#333333" d="M170.984 820.805c-43.448 0-78.769-35.52-78.769-79.17s35.32-79.17 78.77-79.17 78.769 35.52 78.769 79.17-35.321 79.17-78.77 79.17z m0-112.183c-17.961 0-32.611 14.85-32.611 33.013 0 18.162 14.65 33.013 32.611 33.013s32.612-14.851 32.612-33.013c0-18.263-14.65-33.013-32.612-33.013z m0-78.468c-12.743 0-23.078-10.335-23.078-23.079V315.679c0-12.744 10.335-23.079 23.078-23.079s23.08 10.335 23.08 23.079v291.396c0 12.744-10.336 23.079-23.08 23.079z m378.093-436.392v669.89h-216.54v-669.89h216.54m42.144-46.157H290.393a4.026 4.026 0 0 0-4.014 4.013v754.178a4.026 4.026 0 0 0 4.014 4.014H591.22a4.026 4.026 0 0 0 4.013-4.014V151.618a4.026 4.026 0 0 0-4.013-4.013z"  /><path fill="#333333" d="M440.807 820.805c-43.449 0-78.77-35.52-78.77-79.17s35.321-79.17 78.77-79.17 78.769 35.52 78.769 79.17-35.32 79.17-78.77 79.17z m0-112.183c-17.962 0-32.612 14.85-32.612 33.013 0 18.162 14.65 33.013 32.612 33.013s32.611-14.851 32.611-33.013c0-18.263-14.65-33.013-32.611-33.013z m0-78.468c-12.744 0-23.08-10.335-23.08-23.079V315.679c0-12.744 10.336-23.079 23.08-23.079s23.079 10.335 23.079 23.079v291.396c0 12.744-10.336 23.079-23.08 23.079zM825.22 162.455l136.867 655.54-211.924 44.854-136.868-655.54 211.925-44.854m32.611-53.984c-0.301 0-0.502 0-0.803 0.1l-294.406 62.213a4.048 4.048 0 0 0-3.11 4.716l154.026 738.022c0.401 1.907 2.107 3.211 3.913 3.211 0.301 0 0.502 0 0.803-0.1l294.406-62.213a4.049 4.049 0 0 0 3.11-4.716L861.746 111.682c-0.3-1.907-2.006-3.211-3.913-3.211z"  /><path fill="#333333" d="M824.016 800.135c-15.151 0-29.902-4.415-42.846-12.844-17.66-11.54-29.802-29.3-34.117-50.071-8.93-42.746 18.363-84.69 60.909-93.62 20.57-4.315 41.542-0.402 59.102 11.138 17.66 11.54 29.801 29.3 34.116 50.071 8.93 42.746-18.363 84.69-60.908 93.62-5.418 1.104-10.837 1.706-16.256 1.706z m0.1-112.083c-2.207 0-4.515 0.2-6.722 0.702-17.66 3.713-28.899 21.173-25.186 39.034 1.806 8.629 6.823 16.054 14.148 20.87 7.225 4.717 15.955 6.423 24.383 4.617 17.66-3.713 28.9-21.173 25.187-39.034-1.807-8.63-6.824-16.055-14.149-20.871a31.974 31.974 0 0 0-17.66-5.318z m-27.493-75.559c-10.737 0-20.27-7.525-22.577-18.362-14.851-71.244-59.504-285.175-59.504-285.175l45.155-9.432s44.652 213.931 59.503 285.174c2.609 12.443-5.419 24.685-17.861 27.294-1.606 0.3-3.211 0.501-4.716 0.501z"  /></svg>