<?xml version="1.0" standalone="no"?><!DOCTYPE svg PUBLIC "-//W3C//DTD SVG 1.1//EN" "http://www.w3.org/Graphics/SVG/1.1/DTD/svg11.dtd"><svg class="icon" width="200px" height="200.00px" viewBox="0 0 1024 1024" version="1.1" xmlns="http://www.w3.org/2000/svg"><path fill="#333333" d="M904.047 603.285v334.2H792.801v49.279h-42.238v-49.278H275.104v49.278h-42.238v-49.278H121.62V603.285C58.633 593.095 10.374 537.797 10.374 471.29c0-73.732 59.375-133.662 132.365-133.662 34.828 0 66.507 13.71 90.127 36.032V252.69c0-79.846 64.284-144.778 143.388-144.778h273.067c79.104 0 143.387 64.932 143.387 144.778v121.064c23.62-22.323 55.3-36.032 90.127-36.032 72.991 0 132.365 59.93 132.365 133.662 0.093 66.414-48.166 121.713-111.153 131.902z m-671.18 47.332V471.29c0-50.204-40.48-90.96-90.128-90.96-49.74 0-90.126 40.848-90.126 90.96 0 50.204 40.478 90.96 90.126 90.96h21.12v332.442h69.007V650.617zM750.47 548.542V252.689c0-56.318-45.387-102.076-101.15-102.076H376.255c-55.762 0-101.15 45.758-101.15 102.076V650.71H750.47V548.542z m0 144.777H275.104v201.558H750.47V693.319z m132.458-312.99c-49.741 0-90.127 40.85-90.127 90.961v423.494h69.008v-332.44h21.119c49.741 0 90.127-40.85 90.127-90.961 0-50.205-40.479-91.053-90.127-91.053z"  /></svg>