<?xml version="1.0" standalone="no"?><!DOCTYPE svg PUBLIC "-//W3C//DTD SVG 1.1//EN" "http://www.w3.org/Graphics/SVG/1.1/DTD/svg11.dtd"><svg class="icon" width="200px" height="200.00px" viewBox="0 0 1024 1024" version="1.1" xmlns="http://www.w3.org/2000/svg"><path fill="#333333" d="M512.143 24.752c-270.263 0-487.391 217.128-487.391 487.391S241.88 999.535 512.143 999.535s487.392-217.128 487.392-487.392C999.63 241.88 782.502 24.752 512.143 24.752z m243.792 117.452v15.481c0 46.542-4.396 90.79-13.284 135.132-31.06 6.69-53.135 33.257-53.135 64.221 0 17.776 6.69 35.456 19.973 46.541-15.482 35.456-31.06 70.911-53.135 104.168-81.997-93.082-139.623-210.438-159.501-341.174 50.937-31.059 106.366-55.429 163.993-70.91 32.97 11.085 66.227 26.567 95.089 46.54z m-93.083 436.454c39.852 37.653 81.997 70.91 128.538 97.478-46.541 8.888-95.28 13.284-146.217 13.284-22.172 0-44.344-2.198-66.515-2.198 0-4.396 0-8.888-2.198-13.284 30.964-28.861 59.825-62.023 86.392-95.28zM512.143 69.095c24.37 0 48.74 2.198 73.11 6.69-31.06 13.283-62.024 26.567-93.083 42.05-2.198-15.483-2.198-31.06-2.198-46.542 6.69-2.198 15.577-2.198 22.171-2.198zM631.793 545.4c-24.37 33.257-50.937 62.023-79.798 90.788-11.086-8.887-24.37-13.284-39.852-13.284-28.765 0-53.135 17.68-62.023 44.344-88.59-22.172-172.785-55.43-248.187-101.875 19.973-75.307 53.135-146.217 95.28-208.24 4.396 0 8.888 2.198 15.482 2.198 37.653 0 66.515-28.766 66.515-66.515 0-8.888-2.198-17.68-4.396-26.567 26.567-26.568 53.135-48.74 81.996-70.911 24.37 132.934 86.393 252.583 174.983 350.062zM135.514 744.849c-39.851-66.515-64.221-141.821-66.515-223.722 26.568 22.171 53.136 44.343 81.997 62.023-8.888 48.739-15.482 99.676-15.482 150.613v11.086z m28.861-206.042c-33.257-22.172-62.023-46.542-90.788-73.11C95.758 266.25 250.863 106.749 448.017 75.786c0 24.37 2.199 46.54 4.397 70.91a1014.07 1014.07 0 0 0-106.366 86.393c-11.086-6.69-22.172-8.888-33.257-8.888-37.654 0-66.515 28.766-66.515 66.515 0 15.482 6.69 28.765 15.482 42.05-44.248 62.022-77.505 130.64-97.383 206.042z m19.878 270.263c-2.198-24.37-4.396-48.74-4.396-75.307 0-42.05 4.396-84.194 13.284-124.046 79.798 46.541 166.19 81.997 256.98 101.875 0 2.198 0 2.198 2.197 4.396-77.504 50.937-166.19 84.194-261.47 99.676-4.397-2.198-4.397-4.396-6.595-6.594z m327.89 146.217c-108.564 0-206.042-39.851-283.547-104.168 93.082-17.68 177.277-53.135 252.584-104.168 8.887 6.69 19.973 8.888 31.059 8.888 22.171 0 39.851-11.086 53.135-26.568 26.568 2.199 53.135 4.397 79.799 4.397 70.91 0 139.623-8.888 206.042-24.37 15.482 6.69 31.06 15.482 46.541 19.973-75.402 135.132-219.422 226.016-385.613 226.016z m343.468-292.435c-62.023-31.059-119.65-73.108-168.389-121.847 24.37-37.654 44.343-77.505 62.023-117.452h6.69c37.653 0 66.514-28.766 66.514-66.515 0-26.567-15.482-48.739-37.653-59.825 8.888-39.851 13.284-79.798 13.284-121.848 95.28 81.997 155.105 201.647 155.105 336.778 0 44.343-6.69 84.195-17.68 124.046-24.56 11.182-51.128 19.974-79.894 26.663z"  /></svg>