<?xml version="1.0" standalone="no"?><!DOCTYPE svg PUBLIC "-//W3C//DTD SVG 1.1//EN" "http://www.w3.org/Graphics/SVG/1.1/DTD/svg11.dtd"><svg class="icon" width="200px" height="200.00px" viewBox="0 0 1024 1024" version="1.1" xmlns="http://www.w3.org/2000/svg"><path fill="#333333" d="M618.666667 170.666667h21.333333V106.666667C640 46.933333 593.066667 0 533.333333 0h-42.666666C430.933333 0 384 46.933333 384 106.666667V170.666667h234.666667zM426.666667 106.666667c0-34.133333 29.866667-64 64-64h42.666666c34.133333 0 64 29.866667 64 64V128h-170.666666v-21.333333zM661.333333 213.333333h-298.666666C281.6 213.333333 213.333333 281.6 213.333333 362.666667v512C213.333333 955.733333 281.6 1024 362.666667 1024h298.666666c81.066667 0 149.333333-68.266667 149.333334-149.333333v-512C810.666667 281.6 742.4 213.333333 661.333333 213.333333zM768 874.666667c0 59.733333-46.933333 106.666667-106.666667 106.666666h-298.666666C302.933333 981.333333 256 934.4 256 874.666667v-512C256 302.933333 302.933333 256 362.666667 256h298.666666C721.066667 256 768 302.933333 768 362.666667v512z m-42.666667-469.333334c0 12.8-8.533333 21.333333-21.333333 21.333334h-384c-12.8 0-21.333333-8.533333-21.333333-21.333334s8.533333-21.333333 21.333333-21.333333h384c12.8 0 21.333333 8.533333 21.333333 21.333333z" /></svg>