<?xml version="1.0" standalone="no"?><!DOCTYPE svg PUBLIC "-//W3C//DTD SVG 1.1//EN" "http://www.w3.org/Graphics/SVG/1.1/DTD/svg11.dtd"><svg class="icon" width="200px" height="200.00px" viewBox="0 0 1024 1024" version="1.1" xmlns="http://www.w3.org/2000/svg"><path fill="#333333" d="M466.695 958.521H217.542c-63.417 0-113.287-49.87-113.287-113.287V120.257c0-58.901 49.87-113.287 113.287-113.287h249.251c13.646 0 22.677 9.032 22.677 22.677v906.197c-0.098 13.646-9.13 22.677-22.775 22.677zM217.542 52.324c-36.224 0-67.933 31.709-67.933 67.933v724.977c0 36.225 31.709 67.933 67.933 67.933h226.476V52.226H217.542v0.098z"  /><path fill="#333333" d="M352.82 566.827c-12.567 0-21.01-8.442-21.01-21.008V419.672c0-12.565 8.443-21.008 21.01-21.008 12.565 0 21.007 8.443 21.007 21.008V545.82c0 12.566-8.442 21.008-21.008 21.008z m-32.887 444.902h-46.238c-12.664 0-21.008-8.443-21.008-21.008v-37.795c0-12.566 8.442-21.008 21.008-21.008h46.238c12.565 0 21.008 8.442 21.008 21.008v37.795c0 8.442-12.566 21.008-21.008 21.008zM565.355 958.521c-13.646 0-22.677-9.031-22.677-22.677V29.647c0-13.547 9.031-22.677 22.677-22.677h249.25c63.418 0 113.288 54.386 113.288 113.287v724.977c0 63.418-49.87 113.287-113.287 113.287H565.355z m22.579-906.197v860.941h226.574c36.224 0 67.932-31.708 67.932-67.932V120.257c0-36.224-31.708-67.933-67.932-67.933H587.934z"  /><path fill="#333333" d="M679.23 566.827c-12.565 0-21.007-8.442-21.007-21.008V419.672c0-12.565 8.442-21.008 21.008-21.008s21.008 8.443 21.008 21.008V545.82c0 12.566-8.344 21.008-21.008 21.008z m32.887 444.902c-8.442 0-21.008-12.566-21.008-21.008v-37.795c0-12.566 8.443-21.008 21.008-21.008h46.238c12.664 0 21.008 8.442 21.008 21.008v37.795c0 12.565-8.442 21.008-21.008 21.008h-46.238z"  /></svg>