<?xml version="1.0" standalone="no"?><!DOCTYPE svg PUBLIC "-//W3C//DTD SVG 1.1//EN" "http://www.w3.org/Graphics/SVG/1.1/DTD/svg11.dtd"><svg class="icon" width="200px" height="200.00px" viewBox="0 0 1024 1024" version="1.1" xmlns="http://www.w3.org/2000/svg"><path fill="#333333" d="M890.5 102.3H649.1c-56.5 0-106.2 26.9-137.8 68.9-31.6-41.9-81.3-68.9-137.8-68.9H132.2c-37.8 0-68.9 31.1-68.9 68.9v637.6c0 37.8 31.1 68.9 68.9 68.9h253.3c33.7 33.1 78.7 51.8 125.9 51.8 47.1 0 91.7-18.6 125.9-51.8h253.3c37.8 0 68.9-31.1 68.9-68.9V171.2c-0.2-38.3-31.2-68.9-69-68.9z m21.2 692c0 18.1-15 33.1-33.1 33.1H628.4c-10.9 0-20.7 4.7-27.5 12.9-22.8 26.9-55.4 42-89.6 42-34.2 0-66.8-15.5-89.6-42-6.7-8.3-17.1-12.9-27.4-12.9H144.1c-18.1 0-33.1-15-33.1-33.1V182.1c0-18.1 15-33.1 33.1-33.1h221.7c60.1 0 121.7 49.2 121.7 109.8v620.5s11.9 2.6 24.3 2.6 24.3-2.6 24.3-2.6v-620c0-60.6 61.1-109.8 121.7-109.8h221.7c18.1 0 33.1 15 33.1 33.1l-0.9 611.7z m0 0M170 658.6v17.1c0 7.3 5.7 13 12.9 13H387c7.3 0 12.9-5.7 12.9-13v-17.1c0-7.3-5.7-12.9-12.9-12.9H183.5c-7.3-0.1-13.5 5.6-13.5 12.9z m216.5-187h-203c-7.3 0-12.9 5.7-12.9 13v17.1c0 7.3 5.7 13 12.9 13h203c7.3 0 13-5.7 13-13v-17.1c0-6.8-6.3-13-13-13z m1.6-174H183.5c-7.3 0-12.9 5.7-12.9 13v17.1c0 7.3 5.7 12.9 12.9 12.9h205.1c7.3 0 12.9-5.7 12.9-12.9v-17.1c-0.5-6.8-6.2-13-13.4-13z m227.3 361v17.1c0 7.3 5.7 13 13 13h204.1c7.3 0 12.9-5.7 12.9-13v-17.1c0-7.3-5.7-12.9-12.9-12.9H628.4c-6.8-0.1-13 5.6-13 12.9z m216.5-187h-203c-7.3 0-12.9 5.7-12.9 13v17.1c0 7.3 5.7 13 12.9 13h203c7.3 0 12.9-5.7 12.9-13v-17.1c0.1-6.8-6.1-13-12.9-13z m1.6-174H628.4c-7.3 0-13 5.7-13 13v17.1c0 7.3 5.7 12.9 13 12.9h205.1c7.3 0 13-5.7 13-12.9v-17.1c-0.1-6.8-5.8-13-13-13z m0 0" /></svg>