<?xml version="1.0" standalone="no"?><!DOCTYPE svg PUBLIC "-//W3C//DTD SVG 1.1//EN" "http://www.w3.org/Graphics/SVG/1.1/DTD/svg11.dtd"><svg class="icon" width="200px" height="200.00px" viewBox="0 0 1024 1024" version="1.1" xmlns="http://www.w3.org/2000/svg"><path fill="#333333" d="M559.4 248.5L433.8 473.8 308.1 248.6h-71.7l144.2 249.7H277.1v46.2H403v53.7H277.1v46.2H403v109.5h61.5V644.3h39.6c5.2-16.3 12.1-31.8 20.4-46.2h-60v-53.7h103.4c7.1-6.4 14.7-12.3 22.5-17.6v-28.6H486.9l144.2-249.7h-71.7zM489.8 878.9H150V151h529.4l198.5 198.5v166c0 13.8 11.2 25 25 25h2c13.8 0 25-11.2 25-25V323L706.5 99.6l-0.1-0.5H98v831.8h391.8c13.8 0 25-11.2 25-25v-2c0-13.8-11.2-25-25-25zM950.4 757.1c-4.9-5.1-11.8-8-18.9-8-7.1 0-14 2.9-18.9 8L876.7 793c-0.2-7.5-3.5-14.6-9.1-19.6l-0.3-0.2c-14.1-11.5-29.4-21.3-45.7-29.1 20.3-16.4 35.6-37.8 44.9-62.6 11.1-29.9 12.3-61.9 3.3-92.5s-27.2-56.9-52.8-76c-25.5-19.1-55.9-29.2-87.8-29.2s-62.3 10.1-87.8 29.2-43.8 45.4-52.8 76-7.9 62.6 3.3 92.5c9.3 24.8 24.7 46.3 45 62.7-32.2 16-59.6 40-79.9 70-23.2 34.4-35.6 74.5-35.8 115.9-0.3 7.5 2.6 14.9 7.9 20.3 5.3 5.3 12.6 8.2 20 7.9h0.8c7.5 0 14.6-3.2 19.6-8.8l0.3-0.4 0.3-0.4c4.7-6.5 6.2-14.9 4.2-22.6 2.3-79.9 63.8-144 143.7-149.4h17.9c33.9 1.6 66.5 14.9 91.9 37.4 5.1 5.1 12.2 8.1 19.4 8.2l-64.1 64.1-36.7-36.5a26.094 26.094 0 0 0-37.6 0c-4.9 4.9-7.8 11.7-7.8 18.7s2.9 13.9 7.8 18.7l74.3 74.3 167.2-167.2c5-4.9 7.9-11.8 7.9-18.8 0-6.8-2.9-13.6-7.8-18.5z m-212.7-34.3l-8.7 0.3h-8.5c-47.7-4.9-84.1-44.7-84.7-92.7 0.9-51.5 41.9-92.4 93.4-93.1 51.3 0 93.6 41.7 94.4 93-0.8 48.4-37.7 88.2-85.9 92.5z" /></svg>