<?xml version="1.0" standalone="no"?><!DOCTYPE svg PUBLIC "-//W3C//DTD SVG 1.1//EN" "http://www.w3.org/Graphics/SVG/1.1/DTD/svg11.dtd"><svg class="icon" width="200px" height="200.00px" viewBox="0 0 1024 1024" version="1.1" xmlns="http://www.w3.org/2000/svg"><path fill="#333333" d="M949.7 908.1l-0.3-0.2-94.2-95.2 4.9-6.3c40.1-51.3 61.3-112.5 61.3-177 0-155.1-126.2-281.3-281.3-281.3-155.1-0.1-281.3 124.7-281.3 278 0 155.1 124.8 281.3 278.1 281.3 57.6 0 115.2-18.9 166.5-54.6l6.3-4.4 94 97.8c3.5 3.7 8.2 5.7 13.4 5.8h0.3c5.4 0 10.4-2.1 14.3-5.9l14.6-14.6c3.8-3.8 6.1-9.6 6-15.4-0.1-4.3-1.4-7-2.6-8zM799.9 781.6c-42.8 42.2-99.3 65.5-159.2 65.5-59.9 0-116.5-23.3-159.2-65.6-42.6-42.1-66.1-97.5-66.1-156s23.5-113.9 66.1-156c42.8-42.2 99.3-65.5 159.2-65.5 29.4 0 58.3 5.9 85.9 17.7 26.6 11.3 50.7 27.4 71.6 47.8 21 20.5 37.5 44.2 49.2 70.4 12.2 27.4 18.4 56.2 18.6 85.6 0 58.6-23.5 114-66.1 156.1zM700.3 481L657 560.8c-6.8 12.8-12 22.9-15.6 30.4-10-20.4-28.7-55.7-56.9-107.2l-1.7-3.1h-53.1l72.7 125h-55.2v39.6h69.9v26.1h-69.9v40h69.9V767h46.7v-55.4h67.4v-40h-67.4v-26.1h67.5v-39.6h-53.4l73.5-125h-51.1zM540.6 267.4c0-14.4-11.8-26.2-26.2-26.2H229.3c-14.4 0-26.2 11.8-26.2 26.2 0 14.4 11.8 26.2 26.2 26.2h285.1c14.4 0 26.2-11.8 26.2-26.2zM229.3 372.2c-14.4 0-26.2 11.8-26.2 26.2 0 14.4 11.8 26.2 26.2 26.2h135.5c14.4 0 26.2-11.8 26.2-26.2 0-14.4-11.8-26.2-26.2-26.2H229.3zM489.8 879H150V151.1h529.4l198.5 198.5V416c0 13.8 11.2 25 25 25h2c13.8 0 25-11.2 25-25V323.1L706.5 99.7l-0.1-0.6H98V931h391.8c13.8 0 25-11.2 25-25v-2c0-13.8-11.2-25-25-25z" /></svg>