<?xml version="1.0" standalone="no"?><!DOCTYPE svg PUBLIC "-//W3C//DTD SVG 1.1//EN" "http://www.w3.org/Graphics/SVG/1.1/DTD/svg11.dtd"><svg class="icon" width="200px" height="200.00px" viewBox="0 0 1024 1024" version="1.1" xmlns="http://www.w3.org/2000/svg"><path fill="#333333" d="M181.2 543.8V708c0 32.6-7.3 72.1-20.5 111.2-12.5 38.8-28.5 71.7-45.1 92.7l-0.2 0.3c-4.5 5-7 11.6-7 18.5 0 15.5 12.2 28.1 27.3 28.1h751.2c6.2 0 12.3-2.2 17.5-6.3 12-9.8 13.8-26.9 4.1-38.7l-0.1-0.1c-16.7-21.1-33.2-54.7-46.4-94.5-12.8-39.5-19.8-79-19.8-111.1V543.8c0-86.8-35.4-171.8-97.1-233.2-32.5-32.2-68.5-56.4-107.3-71.9-20-8-38.8-13.8-57.6-17.5l-13.2-2.6 105.6-104.9c4.9-5.6 7.5-12.6 7.5-19.8 0-15.5-12-27.6-27.4-27.6h-282c-7.5 0-14.4 2.8-19.9 8-10.7 11-10.7 28.3 0.1 39.4l105 104.9-13.1 2.6c-19 3.8-38.4 9.7-57.6 17.5-38.9 15.7-74.9 39.9-107.2 71.9-30.2 30-55.1 67-71.8 107-16.4 39.7-25 83.3-25 126.2z m256-422.4h148.4l-73.9 74.2-74.5-74.2zM236.8 707.9V543.7c0-37.3 7-72.6 20.8-105 12.8-31.9 33-62.1 59.9-89.5 25.5-25.6 55.3-45.6 88.7-59.4 32.7-13.7 68.1-20.4 105-20.1h1c36.9-0.3 72.1 6.5 104.7 20.1 32.8 13.8 62.6 33.8 88.5 59.3 52.3 52.5 81.1 121.6 81.1 194.6v164.2c0 38.2 8 83.8 22.4 128.4 7.4 21.5 14.8 40 22.6 56.5l4.9 10.2H186.9l4.5-10.1c7.4-16.6 15.9-36.3 22.4-56.6 14.9-45.3 23-90.9 23-128.4z"  /><path fill="#333333" d="M625 725.3c17.5-21 30-45.9 37.2-74-0.1-24-7.1-46.7-20.8-67.4-22.9-17.5-48.7-29.9-76.6-36.9-34.2 0-66.8 3.7-97 10.8l-4.8 1.1-0.7-4.9c-7.2-48.9-9.1-101-5.6-154.9l-10.9-10.9h-13l-19.3 14.5C393.7 505.5 381 610.6 375.6 715l-0.1 0.8c-6.8 28.9 0 53 20.1 71.7 17.9 7.9 35.4 4.4 51.9-10.5l2.3-2.1 2.7 1.4c24.3 12.2 50.8 14.9 78.7 8 33.7-12.5 65.3-32.3 93.8-59z m-162.9-11.6l-1.3-1.5c-13.9-15.9-16-36.7-6.2-62l0.5-0.9 11.7-17.5 1.3-0.5c31.4-13 65.2-18.6 100.4-16.7l1.1 0.1 22.3 12.8v20.9L549 691.3l-0.7 0.3-47.4 22.3h-38.8z"  /></svg>