<?xml version="1.0" standalone="no"?><!DOCTYPE svg PUBLIC "-//W3C//DTD SVG 1.1//EN" "http://www.w3.org/Graphics/SVG/1.1/DTD/svg11.dtd"><svg class="icon" width="200px" height="200.00px" viewBox="0 0 1024 1024" version="1.1" xmlns="http://www.w3.org/2000/svg"><path fill="#333333" d="M811.1 930.5H91.4c-13.2 0-23.5-10.3-23.5-23.5V274.7c0-13.2 10.3-23.5 23.5-23.5h719.7c13.2 0 23.5 10.3 23.5 23.5V907c-0.1 13.2-10.5 23.5-23.5 23.5z m-696.3-46.9h672.7V298.2H114.8v585.4z m0 0M811.1 298.2H91.4c-8.9 0-16.9-4.7-20.6-12.7-3.8-8-3.3-16.9 1.4-24.4l109.4-157.8c4.2-6.5 11.7-10.3 19.3-10.3h492.8c7.6 0 14.6 3.3 18.8 9.4l117.4 158.3c5.2 7 6.1 16.4 2.3 24.4-4.3 8-12.2 13.1-21.1 13.1z m-675.1-47h628l-82.2-111.4H213l-77 111.4z m486.6 358.5H326.7c-13.2 0-23.5-10.3-23.5-23.5s10.3-23.5 23.5-23.5h295.9c13.2 0 23.5 10.3 23.5 23.5s-10.3 23.5-23.5 23.5zM935 927.3c-13.2 0-23.5-10.3-23.5-23.5V116.5c0-13.2 10.3-23.5 23.5-23.5s23.5 10.3 23.5 23.5v787.3c0.1 13.1-10.3 23.5-23.5 23.5z m0 0M400.9 722c-6.1 0-12.2-2.3-16.4-7L272.7 602.6c-8.9-8.9-8.9-24 0-32.9l111.8-113.2c8.9-9.4 24-9.4 33.4 0 9.4 8.9 9.4 24 0 33.4L322 586.2l95.3 95.9c8.9 9.4 8.9 24 0 33.4-4.2 4.1-10.3 6.5-16.4 6.5z m0 0" /></svg>