<?xml version="1.0" standalone="no"?><!DOCTYPE svg PUBLIC "-//W3C//DTD SVG 1.1//EN" "http://www.w3.org/Graphics/SVG/1.1/DTD/svg11.dtd"><svg class="icon" width="200px" height="200.00px" viewBox="0 0 1024 1024" version="1.1" xmlns="http://www.w3.org/2000/svg"><path fill="#333333" d="M700.9 486.1c18.1 0 30.2-12.2 30.2-30.3s-12.2-30.2-30.2-30.2H562.6l79-79c5.8-5.8 9.1-13.4 9.1-21.2s-3.2-15.4-9.1-21.2c-12.1-12.1-30.3-12.1-42.4 0l-87 87-87-87c-12.1-12.1-30.3-12.1-42.4 0-12.1 12.1-12.1 30.3 0 42.4l73.4 73.4H323.1l-0.4 0.1c-19 6.3-29.5 19-29.5 35.7 0 18.1 12.2 30.3 30.2 30.3h158.4v72.7H323.5c-18.1 0-30.2 12.2-30.2 30.2 0 18.1 12.2 30.2 30.2 30.2h158.4v80.7c0 18.1 12.2 30.2 30.3 30.2s30.2-12.2 30.2-30.2v-80.7h158.4c18.1 0 30.2-12.2 30.2-30.2 0-18.1-12.2-30.2-30.2-30.2H542.4v-72.7h158.5zM923.4 684.7c23.4-55 35.2-113.4 35.2-173.4S946.7 393 923.4 337.9c-22.6-53.1-54.8-100.9-95.9-142-41.1-41.1-88.8-73.4-142-95.9-55-23.4-113.4-35.2-173.4-35.2S393.8 76.7 338.7 100c-53.1 22.6-100.9 54.8-142 95.9s-73.4 88.8-95.9 142c-23.4 55-35.2 113.4-35.2 173.4s11.9 118.3 35.2 173.4c22.6 53.1 54.8 100.9 95.9 142 27.6 27.6 58.3 51.3 91.6 70.7H136c-16.7 0-30.2 13.5-30.2 30.2s13.5 30.2 30.2 30.2h752.4c16.7 0 30.2-13.5 30.2-30.2s-13.5-30.2-30.2-30.2H736c33.3-19.4 63.9-43 91.6-70.7 41-41.1 73.3-88.8 95.8-142zM512.2 897.3c-216.4 0-386-169.5-386-386 0-216.4 169.5-386 386-386 216.4 0 386 169.5 386 386s-169.6 386-386 386z" /></svg>