<?xml version="1.0" standalone="no"?><!DOCTYPE svg PUBLIC "-//W3C//DTD SVG 1.1//EN" "http://www.w3.org/Graphics/SVG/1.1/DTD/svg11.dtd"><svg class="icon" width="200px" height="200.00px" viewBox="0 0 1024 1024" version="1.1" xmlns="http://www.w3.org/2000/svg"><path fill="#333333" d="M437.9 898.4H184.6V204.7h154.5v53.4c0 15.7 12.8 28.5 28.5 28.5s28.5-12.8 28.5-28.5v-53.4h239v53.4c0 15.7 12.8 28.5 28.5 28.5s28.5-12.8 28.5-28.5v-53.4h154.5v271.2c0 15.7 12.8 28.5 28.5 28.5s28.5-12.8 28.5-28.5V176.3c0-15.7-12.8-28.5-28.5-28.5H692V94.4c0-15.7-12.8-28.5-28.5-28.5S635 78.7 635 94.4v53.5H396V94.4c0-15.7-12.8-28.5-28.5-28.5S339 78.7 339 94.4v53.5H156.2c-15.7 0-28.5 12.8-28.5 28.5v750.5c0 15.7 12.8 28.5 28.5 28.5h281.7c15.7 0 28.5-12.8 28.5-28.5s-12.8-28.5-28.5-28.5zM934.1 675.6c-2.4 0-4.9 0.5-7.3 1.6l-182.1 78.4v185.9c0 10.7 8.7 18.4 18.4 18.4 2.7 0 5.5-0.6 8.2-1.9l171-84.6c6.3-3.2 10.2-9.5 10.2-16.4V694c-0.1-10.6-8.7-18.4-18.4-18.4z m-31.7 161.6l-107.8 53.3v-102l107.8-46.4v95.1zM919.2 596.3l-208.9-88.5-194 86.7c-16.7 7.5-16.3 31.2 0.5 38.3l196.6 81.9c2.6 1.1 5.3 1.6 8.1 1.6s5.5-0.5 8.1-1.6l189.5-80.2c17.1-6.9 17.1-30.9 0.1-38.2zM721.5 664l-123.2-51.3 112.5-50.3 125.4 53.1L721.5 664zM676.2 750.9l-171-70.1c-2.3-0.9-4.7-1.4-7-1.4-9.7 0-18.4 7.8-18.4 18.5v175.9l181.6 85c2.6 1.2 5.2 1.8 7.8 1.8 9.7 0 18.4-7.8 18.4-18.4V767.9c0-7.4-4.5-14.1-11.4-17zM545 742.3l72.3 33.8c6.5 3 10.6 9.5 10.6 16.7v18.1L555.6 777c-6.4-3-10.6-9.5-10.6-16.7v-18z m92.6 150.1L529.9 842v-22c1.5 0.8 2.9 1.6 4.5 2.3h0.2l72.3 33.8 30.8 14.4v21.9zM511 302.8c-16.7 0-30.3 13.6-30.3 30.3v134.6L399.3 414c-5-3.3-10.7-5-16.5-5-2 0-4.1 0.2-6.2 0.6-7.9 1.6-14.8 6.3-19.2 13.1-4.5 6.7-6 14.8-4.4 22.7 1.6 7.9 6.2 14.8 13 19.2l128.5 84.7c4.9 3.2 10.8 5 16.6 5 5.9 0 11.7-1.7 16.6-5L656 464.7c6.8-4.5 11.4-11.3 13-19.3 1.6-7.9 0-16-4.5-22.7-9.3-14-28.1-17.9-42-8.7l-81.3 53.7V333.2c0.1-16.8-13.5-30.4-30.2-30.4z" /></svg>