<?xml version="1.0" standalone="no"?><!DOCTYPE svg PUBLIC "-//W3C//DTD SVG 1.1//EN" "http://www.w3.org/Graphics/SVG/1.1/DTD/svg11.dtd"><svg class="icon" width="200px" height="200.00px" viewBox="0 0 1024 1024" version="1.1" xmlns="http://www.w3.org/2000/svg"><path fill="#333333" d="M686.5 465.8c9.2 0 17.6-5 22.2-13 4.6-8 4.6-18 0-26s-13-13-22.2-13h-70.7l63.8-64.8c10-10.1 10-26.6 0-36.8-10-10.2-26.2-10.2-36.2 0l-77.2 78.3c-2.4-0.4-4.8-0.4-7.2 0l-77.2-78.3c-6.4-6.9-16-9.7-25-7.4-9.1 2.4-16.1 9.5-18.5 18.7-2.3 9.2 0.4 18.9 7.3 25.4l63.9 64.8h-70.7c-14.2 0-25.6 11.6-25.6 26s11.5 26 25.6 26H537v55.4h-98.2c-14.2 0-25.6 11.6-25.6 26s11.5 26 25.6 26H537v94.4c0 14.4 11.5 26 25.6 26 14.2 0 25.6-11.6 25.6-26v-94.4h98.2c14.2 0 25.6-11.6 25.6-26s-11.5-26-25.6-26h-98.1v-55.3h98.2z m0 0M809.3 165.4H316c-50.8 0-92.1 41.4-92.1 92.1v609.9c0 50.8 41.4 92.1 92.1 92.1h493.3c50.8 0 92.1-41.4 92.1-92.1V257.5c0-50.8-41.4-92.1-92.1-92.1z m32.4 702.1c0 18-14.6 32.6-32.6 32.6H316c-18 0-32.6-14.6-32.6-32.6v-610c0-18 14.6-32.6 32.6-32.6h493.3c18 0 32.6 14.6 32.6 32.6l-0.2 610z m0 0M731.8 93.6c0-16.5-13.3-29.8-29.8-29.8H208.7c-50.8 0-92.1 41.4-92.1 92.1v609.9c0 16.5 13.3 29.8 29.8 29.8s29.8-13.3 29.8-29.8V156c0-18 14.6-32.6 32.6-32.6H702c16.5 0.1 29.8-13.3 29.8-29.8zM765.1 759.9H360.2c-16.5 0-29.8 13.3-29.8 29.8s13.3 29.8 29.8 29.8H765c16.5 0 29.8-13.3 29.8-29.8s-13.3-29.8-29.7-29.8z" /></svg>