<?xml version="1.0" standalone="no"?><!DOCTYPE svg PUBLIC "-//W3C//DTD SVG 1.1//EN" "http://www.w3.org/Graphics/SVG/1.1/DTD/svg11.dtd"><svg class="icon" width="200px" height="200.00px" viewBox="0 0 1024 1024" version="1.1" xmlns="http://www.w3.org/2000/svg"><path fill="#333333" d="M851.6 342.5c-5.4 0-8.1 0-13.5-2.7l-151.5-48.7c-13.5-5.4-21.6-18.9-16.2-35.2 5.4-13.5 18.9-21.6 35.2-16.2L843.5 283l37.9-137.9c5.4-13.5 18.9-21.6 32.5-18.9 13.5 5.4 21.6 18.9 18.9 32.5l-46 154.2c-2.7 10.8-10.8 18.9-18.9 24.3-2.8 5.3-10.9 5.3-16.3 5.3zM697 445.3H567.2l73-121.7c5.4-13.5 2.7-29.8-10.8-37.9-13.5-5.4-29.8-2.7-35.2 10.8l-81.1 135.2c-2.2 3.7-3.6 7.6-4.2 11.4 0-4.7-1.2-9.6-3.9-14.1l-81.1-135.2c-8.1-10.8-24.3-16.2-37.9-8.1-13.5 8.1-16.2 24.3-10.8 37.9l73 121.7H318.3c-16.2 0-27 10.8-27 27s10.8 27 27 27h162.3v81.1H345.4c-16.2 0-27 10.8-27 27s10.8 27 27 27h135.2v108.2c0 16.2 10.8 27 27 27s27-10.8 27-27V634.7h135.2c16.2 0 27-10.8 27-27s-10.8-27-27-27H534.7v-81.1H697c16.2 0 27-10.8 27-27 0-16.5-10.8-27.3-27-27.3zM903.3 692h-3.4l-0.3 0.3c-5.3 0.8-10.2 3.2-14.1 7.1-4.7 4.7-7.4 11-7.4 17.7 0 26.5-10.4 51.5-29.2 70.3-18.5 18.5-44 29.1-70.2 29.1H632.2l42.9-42.8c4.7-4.7 7.4-11.1 7.4-17.7s-2.7-13.1-7.4-17.7c-4.7-4.8-11-7.4-17.8-7.4-6.6 0-13.1 2.7-17.7 7.4L554.9 823c-9.6 9.8-9.6 25.6 0 35.4l87.2 87.1c4.9 4.8 11.2 7.2 17.6 7.2 6.4 0 12.8-2.4 17.7-7.3 9.7-9.7 9.8-25.5 0.1-35.4l-43.4-43.3H778.8c39.3 0 77.8-15.9 105.5-43.8 28-27.8 44-66.4 43.9-105.9 0.1-13.8-11.2-25-24.9-25zM460.5 904.5a26.7 27 0 1 0 53.4 0 26.7 27 0 1 0-53.4 0ZM870.5 269.5C792.1 142.4 654.1 66.7 505.4 66.7c-238 0-432.8 194.7-432.8 432.8 0 231.4 184.1 421.9 413.1 432.3L494 878c-203.1-6.1-367.3-174-367.3-378.5 0-208.3 170.4-378.7 378.7-378.7 129.8 0 251.5 64.9 319.2 178.5 8.1 13.5 24.3 16.2 37.9 8.1 13.4-8.1 16.1-24.4 8-37.9z" /></svg>