<?xml version="1.0" standalone="no"?><!DOCTYPE svg PUBLIC "-//W3C//DTD SVG 1.1//EN" "http://www.w3.org/Graphics/SVG/1.1/DTD/svg11.dtd"><svg class="icon" width="200px" height="200.00px" viewBox="0 0 1024 1024" version="1.1" xmlns="http://www.w3.org/2000/svg"><path fill="#333333" d="M317.4 785.8c0.4-0.1-0.1 0-0.4 0.1h0.1c0.2-0.1 0.3-0.1 0.3-0.1z"  /><path fill="#333333" d="M947.2 676.9c-5.5-5.8-39.4-37.1-94.1-87.6-40.5-37.4-90.8-83.9-96-89.3l-0.1-0.1c-17.6-18.4-36.9-19.4-40.6-19.4H445.3l-1.7 0.2c-2.7 0.3-16.7 2.5-31.3 11.1-22.2 13.1-34.5 34.4-34.5 59.9 0 19.7 5.8 37.7 16.7 52.2 11.5 15.3 27.8 25.5 47.1 29.5 4.8 1 10.3 2.2 16.3 3.5 14.5 3.1 31.7 6.8 50 10.3l-6.2 4.6H339.8c-19.7-14.9-76.3-57.9-118.5-93.2l-0.9-0.7c-35.2-27-68.2-37.3-98.3-30.6-35.5 7.9-51.3 36.3-52.9 39.6l-0.4 0.9c-8.6 17.9-12.4 45.3 4.8 63.5l0.6 0.7 0.7 0.6c44 40.3 195.1 182.3 204.7 192.4 15.4 16.1 36.3 16.6 49.3 13.8h308.2c12.8 0 21.3 6.9 23 8.4l1 1c4.9 4.6 47.8 44.3 65.4 57 14.6 11.9 27.6 15.3 37.8 15.3 3.4 0 6.6-0.4 9.3-1 13.4-2.9 22.9-11.5 28.2-19.8l137-154.1c6.9-4.3 12.8-11.2 16.6-20.1 7.2-17.2 4.1-35.8-8.2-48.6zM761.4 863.8c-0.4-0.3-0.8-0.6-1.2-1l-0.9-0.8-1-0.7c-10.3-7.2-42.2-36-60.2-52.6-4.8-4.7-26.6-24.1-60.9-24.1H325.5l-8.3 1.5-0.2-0.2h-0.1C298.3 767.3 161 638.4 115.6 596.7c0.3-1.6 0.9-3.5 1.5-5.1 1.1-1.7 6.7-9.3 16.6-11.5 13.3-2.9 32.3 4.3 53.5 20.5 52.7 44.1 124.4 97.8 127.5 100.1l7.2 5.4h197.4l59.7-43.8c21.5-15.1 19.1-32.1 17-38.8-1.5-4.8-8.1-20.2-30.6-21.2-33.1-4.4-69.4-12.3-96.1-18-6.2-1.3-11.8-2.5-16.7-3.6-18.9-3.9-20.9-21.5-20.9-28.9 0-6.1 1.9-9.6 7-12.8 3.8-2.5 8.3-3.8 10.8-4.4h265.1c0.7 0.3 2 1 3.6 2.7 5.8 6 41.1 38.7 98.5 91.7 31 28.7 68.2 63 84.2 78L761.4 863.8zM184.8 378.1l62.3 62.3c10.2 10.2 26.6 10.2 36.8 0s10.2-26.6 0-36.8l-19.1-19h397.6c14.4 0 26-11.6 26-26s-11.6-26-26-26H264.8l19-19c10.2-10.2 10.2-26.6 0-36.8a25.953 25.953 0 0 0-36.8 0l-62.3 62.3c-5.4 5.4-7.9 12.5-7.6 19.5-0.2 7 2.3 14.1 7.7 19.5zM359.6 220.6h397.6l-19.1 19a25.953 25.953 0 0 0 0 36.8c10.2 10.2 26.6 10.2 36.8 0l62.3-62.3c5.4-5.4 7.9-12.5 7.6-19.5 0.3-7-2.2-14.2-7.6-19.5l-62.3-62.3c-10.2-10.2-26.6-10.2-36.8 0s-10.2 26.6 0 36.8l19.1 19H359.6c-14.4 0-26 11.6-26 26s11.6 26 26 26z"  /></svg>