<?xml version="1.0" standalone="no"?><!DOCTYPE svg PUBLIC "-//W3C//DTD SVG 1.1//EN" "http://www.w3.org/Graphics/SVG/1.1/DTD/svg11.dtd"><svg class="icon" width="200px" height="200.00px" viewBox="0 0 1024 1024" version="1.1" xmlns="http://www.w3.org/2000/svg"><path fill="#333333" d="M847.4 188.9L531.8 73.7l-3.2-1.2c-10.6-3.9-22.2-3.9-32.8 0L178.3 189c-19.2 7-32.2 25.4-32.5 45.9v275.8c0 61.8 19.4 124.3 57.8 185.6 28.6 45.8 68.6 91.2 118.9 134.9 85.2 73.9 168.4 115 169.1 115.4 6.7 3.4 14.1 5 21.5 5 7.3 0 14.5-1.6 21.1-4.9 0.8-0.4 84.2-41.1 169.3-114.5 49.4-42.6 89.2-88 118.5-134.9 37.7-60.5 56.8-123.3 56.8-186.7V234.9c0.4-20.4-12.3-38.8-31.4-46z m-20.8 311c0 52-16.4 104.1-48.7 154.8-26.4 41.3-62.6 81.4-107.7 119.4-74.5 62.8-150 120.2-156.9 125.1l-0.2 0.1h-0.1c-4.7-3.2-79.3-60.2-157.1-126-46-39-82.4-79.2-108.2-119.5-32.9-51.4-49.7-103.1-49.7-153.7V234.4l0.1-0.1L512.2 122l314.3 112h0.1v265.9zM659.6 475l-17-17.1-17 17.1c-30.9 30.9-71 48-113.2 48-42.1 0-82.3-17-113.2-48l-17-17.1-17 17.1c-27.4 27.6-48.8 77.3-65.5 152.1-3.5 15.5 0.2 31.4 10.2 43.8 9.9 12.4 24.7 19.5 40.5 19.5h324.1c15.8 0 30.6-7.1 40.5-19.5 9.9-12.4 13.6-28.3 10.2-43.8-16.8-74.8-38.3-124.6-65.6-152.1z m17.9 165.9c-0.8 0.9-1.9 1.5-3.1 1.5H350.3c-1.2 0-2.3-0.5-3.1-1.5-0.8-0.9-1-2.1-0.8-3.3 12.8-57.3 26.9-90.9 39-110.7C422 555.5 466.2 571 512.3 571c46.1 0 90.3-15.5 126.9-44.1 12.1 19.8 26.2 53.5 39 110.7 0.3 1.1 0 2.4-0.7 3.3zM489.9 491.4v2.3h24c74.2 0 134.5-62.5 134.5-139.4s-60.3-139.4-134.5-139.4-134.5 62.5-134.5 139.4c0 68.3 47.7 125.3 110.5 137.1z m24-228.5c47.7 0 86.5 41 86.5 91.4 0 49.6-37.7 90.2-84.4 91.4h-2.1c-47.7 0-86.5-41-86.5-91.4 0-50.4 38.8-91.4 86.5-91.4z" /></svg>