<?xml version="1.0" standalone="no"?><!DOCTYPE svg PUBLIC "-//W3C//DTD SVG 1.1//EN" "http://www.w3.org/Graphics/SVG/1.1/DTD/svg11.dtd"><svg class="icon" width="200px" height="200.00px" viewBox="0 0 1024 1024" version="1.1" xmlns="http://www.w3.org/2000/svg"><path fill="#333333" d="M433.8 473.9L308.1 248.7h-71.7l144.2 249.7H277.1v46.2H403v53.7H277.1v46.2H403V754h61.5V644.4h39.6c5.2-16.3 12.1-31.8 20.4-46.2h-60v-53.7h103.4c7.1-6.4 14.7-12.3 22.5-17.6v-28.6H486.9l144.2-249.7h-71.7L433.8 473.9zM489.8 879H150V151.1h529.4l198.5 198.5v166c0 13.8 11.2 25 25 25h2c13.8 0 25-11.2 25-25V323.1L706.5 99.7l-0.1-0.5H98V931h391.8c13.8 0 25-11.2 25-25v-2c0-13.8-11.2-25-25-25zM696.6 681.8h145.1c15.9 0 28.9-13 28.9-28.9 0-15.9-13-28.9-28.9-28.9H696.6c-15.9 0-28.9 13-28.9 28.9 0 16 13 28.9 28.9 28.9zM667.7 778.1c0 15.9 13 28.9 28.9 28.9h184.2c15.9 0 28.9-13 28.9-28.9 0-15.9-13-28.9-28.9-28.9H696.6c-15.9 0-28.9 13-28.9 28.9zM928.7 874.3H696.6c-15.9 0-28.9 13-28.9 28.9 0 15.9 13 28.9 28.9 28.9h232.1c15.9 0 28.9-13 28.9-28.9 0-15.9-13-28.9-28.9-28.9zM600.9 624.1c-15.9 0-28.9 13-28.9 28.9 0 15.9 13 28.9 28.9 28.9 15.9 0 28.9-13 28.9-28.9-0.1-15.9-13-28.9-28.9-28.9zM600.9 749.2c-15.9 0-28.9 13-28.9 28.9 0 15.9 13 28.9 28.9 28.9 15.9 0 28.9-13 28.9-28.9-0.1-15.9-13-28.9-28.9-28.9zM600.9 874.3c-15.9 0-28.9 13-28.9 28.9 0 15.9 13 28.9 28.9 28.9 15.9 0 28.9-13 28.9-28.9-0.1-15.9-13-28.9-28.9-28.9z" /></svg>