<?xml version="1.0" standalone="no"?><!DOCTYPE svg PUBLIC "-//W3C//DTD SVG 1.1//EN" "http://www.w3.org/Graphics/SVG/1.1/DTD/svg11.dtd"><svg class="icon" width="200px" height="200.00px" viewBox="0 0 1024 1024" version="1.1" xmlns="http://www.w3.org/2000/svg"><path fill="#333333" d="M942.8 668.9L665.4 526.3c-7.6-5.1-17.8-5.1-25.5 0-7.6 2.5-12.7 12.7-12.7 20.4V879H153.9c-2.1 0-3.9-1.7-3.9-3.9V155c0-2.1 1.7-3.9 3.9-3.9h523.9c1 0 2 0.4 2.7 1.1l196.2 196.2c0.7 0.7 1.1 1.7 1.1 2.7V492c0 11 9 20 20 20h12c11 0 20-9 20-20V324.7c0-1-0.4-2-1.1-2.7L706.5 99.7l-0.1-0.5H101.9c-2.1 0-3.9 1.7-3.9 3.9v824.2c0 2.1 1.7 3.9 3.9 3.9h703.4c15.3 0 25.5-10.2 25.5-25.4 0-15.3-10.2-25.5-25.5-25.5H675.5v-58.5s2.5-2.5 5.1-2.5L940.2 715c7.6-2.5 15.3-12.7 15.3-22.9 0-10.5-5.1-18.2-12.7-23.2zM673 768.1V584.9l198.5 104.3L673 768.1zM559.5 248.7L433.8 473.9 308.1 248.7h-71.7l144.2 249.6H277.1v46.2H403v53.7H277.1v46.2H403V754h61.6V644.4H484l107-0.1V598l-107 0.2h-19.4v-53.7h48.2l78.2 0.3V498l-78.2 0.3h-25.9l144.3-249.6z" /></svg>