<?xml version="1.0" standalone="no"?><!DOCTYPE svg PUBLIC "-//W3C//DTD SVG 1.1//EN" "http://www.w3.org/Graphics/SVG/1.1/DTD/svg11.dtd"><svg class="icon" width="200px" height="200.00px" viewBox="0 0 1024 1024" version="1.1" xmlns="http://www.w3.org/2000/svg"><path fill="#333333" d="M486.9 498.3l144.3-249.6h-71.7L433.8 473.9 308.1 248.7h-71.7l144.2 249.6H277.1v46.2H403v53.7H277.1v46.2H403V754h61.6V644.4H484l107 0.4V598l-107 0.2h-19.4v-53.7h48.2l78.2 0.3V498l-78.2 0.3zM954.8 701.5l-92-92c-11-10.9-28.9-10.9-40 0L637.3 793.1c-5.2 5.5-8.1 12.7-8.2 20.2v91.9c0 7.5 3 14.8 8.3 20 5.3 5.3 12.6 8.3 20 8.3h92.1c8 0.3 15.9-2.7 21.7-8.3l183.5-183.9c11-10.8 11-28.8 0.1-39.8zM737.5 876.9h-51.7v-51.7l1.2-1.2 154.4-154.4 51.7 51.7-155.6 155.6zM150 151.1h529.4l198.5 198.5V534h52V323.1L706.5 99.7l-0.1-0.6H98V931h480v-52H150z" /></svg>