<?xml version="1.0" standalone="no"?><!DOCTYPE svg PUBLIC "-//W3C//DTD SVG 1.1//EN" "http://www.w3.org/Graphics/SVG/1.1/DTD/svg11.dtd"><svg class="icon" width="200px" height="200.00px" viewBox="0 0 1024 1024" version="1.1" xmlns="http://www.w3.org/2000/svg"><path fill="#333333" d="M842.1 198.3c-19.2-17.1-44-26.5-69.8-26.7h-83.1v-53.8c0-29.8-25.8-54-57.6-54h-241c-32 0-58.1 24.2-58.1 53.9v53.4h-81.8c-54.1 0-98.2 41.2-98.2 91.8v546.3c0 50.6 44 91.7 98.2 91.7h61.7v31.2c0 14.4 12.6 26.2 28 26.2s28-11.7 28-26.2V901h285.2v31.2c0 14.4 13.1 27.1 28 27.1h0.2c15 0 27.5-12.1 27.8-27.2v-31.2h62.6c54.1 0 98.2-41.2 98.2-91.7V263.5c0.1-24.7-10-47.8-28.3-65.2z m-454.5-61.7c0-11.7 10.1-21.2 22.6-21.2h201.4c12.6 0 22.5 9.3 22.5 21.2v35.1h-2v2.1h-241v-2.4H388l-0.4-34.8z m428.3 672.1c0 22.3-19.3 40.4-43.1 40.4h-522c-23.7 0-43.1-18.1-43.1-40.4V263c0-10.6 4.5-20.7 12.7-28.4 8.2-7.7 19-11.9 30.4-11.9h522c11.4 0 22.2 4.2 30.4 11.9s12.7 17.8 12.7 28.4v545.7zM401.1 321.1c-15.4 0-28 11.7-28 26.2v376.3c0 14.4 12.6 26.1 28 26.1h1.6c14.3-0.8 26-12.1 26.4-25.8V347.2c0-14.4-12.6-26.1-28-26.1zM622 321.1c-15.4 0-28 11.7-28 26.2v376.3c0 14.4 12.6 26.2 28 26.2h0.7c14.6 0 26.5-11.2 27.3-25.8V347.3c0-14.5-12.6-26.2-28-26.2z" /></svg>