<?xml version="1.0" standalone="no"?><!DOCTYPE svg PUBLIC "-//W3C//DTD SVG 1.1//EN" "http://www.w3.org/Graphics/SVG/1.1/DTD/svg11.dtd"><svg class="icon" width="200px" height="200.00px" viewBox="0 0 1024 1024" version="1.1" xmlns="http://www.w3.org/2000/svg"><path fill="#333333" d="M100.7 672.3c21.3 56.8 72.9 127.1 134.4 183.4 70.3 64.2 141.1 99.6 199.4 99.6h475.1c6.8 0 13.5-2.8 18.3-7.7 4.9-4.9 7.5-11.5 7.5-18.4V768.1c0.1-10.6-6.2-20.1-15.9-24.2l-8.2-3.4c-25.4-10.5-78.3-32.3-132.4-53.6l-8.2-3.2 5.9-6.5c61.3-67.5 95.2-154.9 95.4-246.1 1.7-129.4-66.7-250.3-178.4-315.5-111.8-65.2-250.6-65.2-362.4 0C219.4 180.7 151 301.6 152.7 431c0 15.9 1 31.9 3 47.6v0.1c1 9.3 6.9 17.4 15.6 21.1 8.6 3.7 18.6 2.3 26-3.4 7.4-5.8 11-15.1 9.5-24.4v-0.2c-1.7-13.4-2.6-27.1-2.6-40.7 1.1-140.5 96.9-262.4 233.1-296.6 136.2-34.2 278.3 28 345.5 151.3 67.2 123.1 42.7 276-59.4 372.1 0 0.1-0.1 0.2-0.1 0.2-0.4 0.7-1 1.8-2.2 2.8l-2.8 2.5-3.5-1.4c-29.9-12.1-60.9-22.4-92.1-30.5-22.3-3-44.4 7.3-56.4 26.4l-0.2 0.3c-10.5 14.7-13.3 33.6-7.4 50.6 10.9 19.9 23.9 38.9 38.6 56.2l8.4 10h-13.1c-66.5-0.1-131.7-12.2-193.8-36.2-32.2-12.4-70.3-53.5-104-89.7l-0.8-0.9c-46.7-50.2-90.8-97.6-137.1-97.6-17.1 0.1-33.4 6.6-45.9 18.3l-0.1 0.1c-16.6 15-32 45.1-10.2 103.3z m44.1-63.8c3.1-3.5 7.5-5.5 12.1-5.6h0.1c22.3 0 58.4 36.8 99.8 81.3 39.4 42.4 80.1 86.3 123.6 103.5 68.1 26.2 139.7 39.5 212.8 39.5h0.3c22.5 0.3 45.1-1.2 67.3-4.4 9.1-1.6 16.6-8 19.8-16.7 3.2-8.8 1.5-18.8-4.5-26-25-29.9-58-71.8-67.3-86.4l-2.2-3.5 1.5-2-0.7-6.3 7.9 1.3c24.9 4 172.1 62.5 264.9 100.9l3.7 1.5v111.3h-6v6.1H441.6l-0.8 26.3-12.1-0.2v-26.3c-22.6-1.3-48.4-10.1-76.7-26-27.2-15.3-56.5-37.2-84.8-63.6-54.5-50.5-100.9-113.2-118.3-159.6-9.8-26.1-8.4-40.4-4.1-45.1zM657.5 476.5c1.1-12.7-1.7-22.8-8.2-29.9-7-7.7-18.1-11.6-32.9-11.6H478.9c-28.5 0-44.2 15.7-44.2 44.2v94.7c0 14.3 3.9 25.2 11.5 32.2 6.6 6.1 15.7 9.1 27.3 9.1 1.8 0 3.7-0.1 5.6-0.2H616c14.3 1.1 25.2-1.9 32.3-9.1 7.2-7.2 10.2-18 9.1-32.3v-97.1z m-178.6-8.1h134.4c5.1 0 8.8 0.9 10.2 2.6 1.3 1.6 1.2 4.7 0.8 7l-0.1 0.6v26.7H468.1v-26.1c0-8.1 2.7-10.8 10.8-10.8z m145.3 103.5c0.6 4.4 0.3 7.7-0.9 8.9-1.2 1.2-4.5 1.6-8.9 0.9l-0.5-0.1H481.4l-0.5 0.1c-3.4 0.5-7.8 0.6-10.1-1.3-2.2-1.9-2.7-6.3-2.7-9.6v-32.2h156.1V571.9zM691.2 381.6l-2-1.5h-68.3V334H677l2-1.5c6-4.5 9.1-9.6 9.1-15.2 0-5.5-3.1-10.6-9.1-15.2l-2-1.5h-56.1v-43.9l-1.5-2c-4.5-6-9.6-9.1-15.2-9.1s-10.6 3.1-15.2 9.1l-1.5 2v43.9h-82.8v-43.9l-1.5-2c-4.5-6-9.6-9.1-15.2-9.1-5.5 0-10.6 3.1-15.2 9.1l-1.5 2v43.9h-56.1l-2 1.5c-3 2.3-5.3 4.7-6.8 7.2 5.1-20.9 8.4-38.5 9.6-52.5l0.2-2.4-1.3-2.1c-4.5-7.5-9.7-11.3-15.6-11.3s-11.1 3.8-15.6 11.3l-0.8 1.3-0.2 1.5c-8 57.7-30.2 114.2-66 167.9l-1.3 1.9v2.3c0 7.5 2.3 12.9 6.8 16 4.7 3.2 11 3.2 18.7 0.2l1.8-0.7 1.2-1.5c6.8-8.5 12.5-16.2 17.2-23.3v194.8l1.1 1.8c4.5 7.5 9.7 11.3 15.6 11.3s11.1-3.8 15.6-11.3l1.1-1.8V352c3.6-12 6.7-23.2 9.5-33.7 0.3 5.2 3.4 9.9 9.1 14.2l2 1.5h56.1v46.1H409l-2 1.5c-6.1 4.5-9.1 9.6-9.1 15.2s3.1 10.6 9.1 15.2l2 1.5h279.9l2-1.5c6-4.5 9.1-9.6 9.1-15.2 0.3-5.6-2.8-10.7-8.8-15.2z m-186.5-1.5V334h82.8v46.1h-82.8z" /></svg>