<?xml version="1.0" standalone="no"?><!DOCTYPE svg PUBLIC "-//W3C//DTD SVG 1.1//EN" "http://www.w3.org/Graphics/SVG/1.1/DTD/svg11.dtd"><svg class="icon" width="200px" height="200.00px" viewBox="0 0 1024 1024" version="1.1" xmlns="http://www.w3.org/2000/svg"><path fill="#333333" d="M813.5 307.1l9.6-28c7.1-20.8 5.4-43.1-4.7-62.6-10.1-19.6-27.5-34.2-48.9-41.1l-336-108.3c-21.5-6.9-44.4-5.4-64.5 4.6-20.1 9.8-35.2 26.7-42.3 47.5-1.2 3.4-1.5 6.8-1.3 10.1l-3.3-0.7c-21.9-5.2-44.6-1.8-63.9 9.5-19.3 11.4-32.9 29.4-38.2 50.6l-31.6 125.7c-37.5 18.4-63.3 56.2-63.3 99.7v431.2c0 61.5 51.5 111.6 114.8 111.6h541.2c63.3 0 114.8-50.1 114.8-111.6V414.2c0-50.6-34.8-93.4-82.4-107.1zM377.9 135.7c2.6-7.6 8-13.6 15.2-17.2 7.4-3.5 15.7-4 23.2-1.6l336 108.3c7.7 2.5 14 7.8 17.7 14.8 3.6 7 4.3 15.1 1.6 22.6l-13.6 40h-28.8c3.1-19-0.7-38.4-11.3-55.2-11.7-18.7-30.2-32-52.1-37.2l-290.6-69.1c1.1-1.6 2.1-3.5 2.7-5.4z m-105.4 65.5c1.9-7.7 6.8-14.2 13.8-18.3 6.9-4 15.2-5.3 23-3.4l343.8 81.8c7.9 1.9 14.6 6.6 18.9 13.5 4.3 6.7 5.4 14.7 3.5 22.4-0.4 1.9-0.7 3.7-0.7 5.6H246.9l25.6-101.6z m569.4 644.3c0 32.6-27.3 59.1-60.8 59.1H239.9c-33.6 0-60.8-26.5-60.8-59.1V414.2c0-32.6 27.3-59.1 60.8-59.1h541.2c33.6 0 60.8 26.5 60.8 59.1v431.3zM690.4 610.7c-5 9.9-9.1 18-12 24.5-2.9-6.7-6.5-14.3-11.2-22.8l-55.1-103.1h-45.5l75.7 139.4h-61.1v36.4h77.3V706h-77.3v34.5h77.3v63.7h40.9v-63.7h76.9V706h-76.9v-20.8h76.9v-36.4h-61.2l75.4-139.4h-48.1l-52 101.3zM482.3 686.7l-0.4-0.1c-0.2-0.1-0.6-0.2-1.2-0.5l-0.5-0.2c-6.2-2.5-24.9-10.3-48.3-16.9-4.4-1.2-9.9-2.7-16-4.1 10.3-12.5 15.9-28.1 15.9-44.3v-47c0-39-31.8-70.7-70.9-70.7-39.1 0-70.9 31.7-70.9 70.7v47c0 16.8 5.9 32.8 16.8 45.5-4.9 1.2-10.1 2.6-15.9 4.3-15.3 4.6-30.1 9.8-45 16C232.1 692 222 707 222 722v63l0.7 2.8 0.2 0.6c4.6 13.4 17.1 22.5 31.1 22.5h219.7c15.9 0 29.5-11.9 31.7-27.6l0.1-0.5 0.2-60.5c0.2-14.6-9.8-29.9-23.4-35.6zM361.4 540.8c17.8 0 32.4 14.5 32.7 32.4v47c0 17.9-14.7 32.4-32.7 32.4-17.9 0-32.4-14.5-32.4-32.4v-16.7l-0.3 0.3c-0.1-9.3-0.1-21.2-0.1-30.4 0.1-18 14.8-32.6 32.8-32.6z m106 231.7H261v-49.8c0.2-0.3 0.5-0.8 0.7-1 1.4-0.6 26.8-11.5 56.1-18.9 19.1-4.7 33.9-6.9 46.6-6.9 12 0 25.8 1.9 42.2 5.7 20.7 4.9 41 11.6 60.3 19.9 0.2 0.2 0.4 0.6 0.6 0.8l-0.1 50.2z" /></svg>