<?xml version="1.0" standalone="no"?><!DOCTYPE svg PUBLIC "-//W3C//DTD SVG 1.1//EN" "http://www.w3.org/Graphics/SVG/1.1/DTD/svg11.dtd"><svg class="icon" width="200px" height="200.00px" viewBox="0 0 1024 1024" version="1.1" xmlns="http://www.w3.org/2000/svg"><path fill="#333333" d="M559.5 248.7L433.8 473.9 308.1 248.7h-71.7l144.2 249.7H277.1v46.2H403v53.7H277.1v46.2H403V754h61.5V644.4h39.6c5.2-16.3 12.1-31.8 20.4-46.2h-60v-53.7h103.4c7.1-6.4 14.7-12.3 22.5-17.6v-28.6H486.9l144.2-249.7h-71.6zM150 151.1h529.4l198.5 198.5v191h52V323.1L706.5 99.7l-0.1-0.6H98V931h416.8v-52H150zM955.3 944l-10.1 10.1c-7.9 7.9-20.7 7.9-28.2 0l-72.2-74c-33.5 23.3-74.4 38.8-118.5 38.8-107.9 0-198.2-89.9-198.2-200.4 0-107.9 89.9-198.2 200.4-198.2 110.6 0 200.4 89.9 200.4 200.4 0 46.2-15.4 89.9-43.6 126l72.2 72.2c5.3 4.9 5.3 17.6-2.2 25.1zM728.9 571.4c-82.4 0-149.3 66.9-149.3 146.7 0 79.7 66.9 146.7 149.3 146.7s149.3-66.9 149.3-146.7c-0.4-79.8-69.6-146.7-149.3-146.7z m0 0" /></svg>