<?xml version="1.0" standalone="no"?><!DOCTYPE svg PUBLIC "-//W3C//DTD SVG 1.1//EN" "http://www.w3.org/Graphics/SVG/1.1/DTD/svg11.dtd"><svg class="icon" width="200px" height="200.00px" viewBox="0 0 1024 1024" version="1.1" xmlns="http://www.w3.org/2000/svg"><path fill="#333333" d="M297.6 783.4c-13.5-0.1-24.5-11.1-24.6-24.6 0-13.3 11.2-24.6 24.6-24.6H728c13.4 0 24.6 11.2 24.6 24.6-0.1 13.6-11.1 24.5-24.6 24.6H297.6z m0-154.3c-13.6-0.2-24.5-11.2-24.6-24.7 0-13.4 11.2-24.6 24.6-24.6H728c13.4 0 24.6 11.1 24.6 24.6-0.1 13.6-11 24.6-24.6 24.7H297.6z m7.4 329.7l-3.7-0.7c-99.6-0.1-180.4-80.9-180.4-180.6V244.3c0.4-99.5 80.9-180.1 180.4-180.4H719c99.6 0.1 180.4 80.8 180.5 180.4v534c-0.1 99.7-80.9 180.4-180.5 180.5H305z m-3.6-846.6c-72.8 0.1-131.9 59.2-132 132v534c0.1 72.8 59.1 131.8 132 131.9H719c72.8-0.1 131.9-59.1 132.1-131.9v-534c-0.1-72.9-59.2-131.9-132.1-132H301.4z m0 0M448.1 309.6h-61.4v-61.4c0-12.3-8.2-20.5-20.5-20.5s-20.5 8.2-20.5 20.5v61.4h-61.4c-12.3 0-20.5 8.2-20.5 20.5s8.2 20.5 20.5 20.5h61.4V412c0 12.3 8.2 20.5 20.5 20.5s20.5-8.2 20.5-20.5v-61.4h61.4c12.3 0 20.5-8.2 20.5-20.5s-8.2-20.5-20.5-20.5zM734.8 309.6H571c-12.3 0-20.5 8.2-20.5 20.5s8.2 20.5 20.5 20.5h163.8c12.3 0 20.5-8.2 20.5-20.5s-8.2-20.5-20.5-20.5z" /></svg>