<?xml version="1.0" standalone="no"?><!DOCTYPE svg PUBLIC "-//W3C//DTD SVG 1.1//EN" "http://www.w3.org/Graphics/SVG/1.1/DTD/svg11.dtd"><svg class="icon" width="200px" height="200.00px" viewBox="0 0 1024 1024" version="1.1" xmlns="http://www.w3.org/2000/svg"><path fill="#333333" d="M935 756.6l-0.1-656.9v-0.5c0-0.3 0-0.5-0.1-0.8v-0.1c-0.1-0.5-0.2-1.2-0.3-2V96c0-0.1-0.1-0.3-0.1-0.5-0.1-0.2-0.2-0.5-0.2-0.7l-0.3-0.9c-0.2-0.5-0.4-0.9-0.5-1.2l-0.2-0.4c-0.1-0.3-0.3-0.6-0.4-0.8l-0.3-0.5-0.1-0.3c-0.1-0.1-0.1-0.3-0.2-0.5s-0.3-0.5-0.4-0.7l-0.1-0.1c-0.2-0.3-0.4-0.6-0.5-0.8-0.2-0.3-0.5-0.6-0.7-1-0.1-0.1-0.2-0.3-0.3-0.4l-0.2-0.3c-0.1-0.2-0.3-0.3-0.4-0.5-0.2-0.2-0.4-0.4-0.6-0.7l-0.1-0.1-0.8-0.8c-0.3-0.3-0.6-0.5-0.8-0.8l-0.3-0.3c-0.4-0.3-0.7-0.6-1.1-0.8l-0.7-0.5c-0.3-0.2-0.6-0.4-0.9-0.5l-0.8-0.4-0.2-0.2c-0.2-0.1-0.5-0.2-0.9-0.4l-0.5-0.2c-0.2-0.1-0.4-0.1-0.5-0.2-0.4-0.1-0.8-0.3-1.2-0.4h-0.1l-0.8-0.3c-0.2-0.1-0.4-0.1-0.7-0.2-0.7-0.1-1.2-0.2-1.5-0.3l-1.1-0.2c-0.3 0-0.5-0.1-0.7-0.1h-0.1c-0.7-0.1-1.3-0.1-2.1-0.1H261.7c-5.1 0-10.1 1.8-14.1 5.2L91.3 216.8c-0.3 0.2-0.5 0.5-0.9 0.8l-0.3 0.3c-0.5 0.5-0.6 0.6-0.7 0.8l-0.3 0.4-0.3 0.3-0.2 0.4-0.5 0.5c-0.1 0.1-0.1 0.2-0.2 0.2l-0.4 0.6c-0.3 0.4-0.6 1-1 1.6l-0.4 0.6c-0.2 0.3-0.3 0.5-0.3 0.7l-0.2 0.6c-0.2 0.7-0.4 1.2-0.7 1.8l-0.2 0.4c-0.1 0.4-0.2 0.8-0.3 1l-0.1 0.2-0.3 1.3c0 0.1 0 0.3-0.1 0.4v0.6l-0.1 0.3v0.2l-0.1 0.6v687.9c0 12 9.8 21.8 21.8 21.8h681.8c0.8 0 1.4 0 1.9-0.1l0.5-0.1h0.3c0.2 0 0.5-0.1 0.8-0.1 0.2 0 0.3-0.1 0.5-0.1s0.4-0.1 0.6-0.1c0.4-0.1 0.7-0.2 1.1-0.3l0.4-0.1c0.2-0.1 0.4-0.1 0.5-0.2 0.5-0.2 1.1-0.4 1.7-0.6l0.7-0.2c0.3-0.2 0.6-0.3 0.9-0.4 0.1-0.1 0.3-0.1 0.4-0.2h0.1c0.1-0.1 0.3-0.2 0.4-0.3 0.2-0.1 0.4-0.2 0.7-0.4 0.2-0.1 0.4-0.2 0.6-0.4l0.1-0.1 0.4-0.3c1.3-0.9 2.6-2 4-3.5l0.1-0.1 0.1-0.2 0.4-0.4c0.1-0.1 0.2-0.3 0.4-0.5l125.7-162.7c2.8-3.5 4.4-8.2 4.4-13.1zM269.7 122.9h262.4l-84.3 88.7H164.9l104.8-88.7z m495.9 774.8H127.3V255.1h638.3v642.6zM778 211.5H507.9l84.3-88.7h270.1L778 211.5z m113.4 537.8l-82.3 106.5V242l82.3-86.4v593.7z"  /><path fill="#333333" d="M668.2 603.5c0-7.3-4.5-13.6-13.8-19.2l-2.3-1.3h-73.5V470.5h58.9l2.3-1.4c9.2-5.6 13.7-11.9 13.7-19.2 0-7.3-4.5-13.6-13.8-19.2l-2.3-1.3h-58.9V345l-1.4-2.3c-5.6-9.2-11.9-13.7-19.2-13.7-7.3 0-13.6 4.5-19.2 13.8l-1.3 2.2v84.5H432.5V345l-1.4-2.3c-5.6-9.2-11.9-13.7-19.2-13.7-7.3 0-13.6 4.5-19.2 13.8l-1.3 2.3v84.5h-55.2l-2.3 1.4c-6.6 4-10.9 8.5-12.8 13.4l-9.7-3.5c11-33.2 18.6-65.4 22.3-95.6l0.4-3.3-1.7-2.8c-5.6-9.2-11.9-13.7-19.2-13.7-7.3 0-13.6 4.5-19.2 13.8l-1 1.8-0.2 2.1c-7.2 64.1-34.9 132.8-82.5 204.2l-1.6 2.4v2.9c-0.1 7.6 1.8 13.4 5.7 17.3 4.4 4.5 10 5.1 13 5.1 3.7 0 7.7-0.9 12.6-2.8l2.1-0.8 1.5-1.9c2.2-2.7 4.4-5.6 6.7-8.5l9.3-12.2v217.9l1 2c5.4 10.8 11.9 16.3 19.5 16.3 7.7 0 14.1-5.3 19.5-16.3l1-2V615.1l8.1 5.7c1 0.7 1.8 1.2 2.7 1.7l0.3 0.2 2.3 1.4h101.8v5.2l4.3 2.7-1.9 3c-23.7 37.9-54.9 71.5-92.7 99.8l-2 1.5-1 2.4c-3.7 8.6-7.1 19.5-1.6 28.1 1.9 2.9 6.6 7.7 16.4 7.7 2 0 4.2-0.2 6.5-0.6l2.2-0.3 1.8-1.3C392.6 740 428 700.8 453 655.8l1.2-2.2v-2.5c0-8.1-1.8-14.4-5.2-18.5l-7-8.5h89.6l-10.3 9c-0.6 0.6-1.3 1.2-1.8 1.8-4.2 5-5.5 12-3.9 21.3l0.5 2.8 1.9 2.1c31.5 33.9 62 70.5 90.7 108.9l1.1 1.4 1.6 0.9c5.8 3.4 10.7 5.1 15.1 5.1 4.2 0 17.7-1.7 17.7-24.2v-2.7l-1.7-2.4c-26.8-39-57.8-77.5-92.3-114.4l-0.8-0.9-7.5-8.6H652l2.3-1.4c9.4-5.7 13.9-12 13.9-19.3z m-277-20.6H314l-2.2 1.3c-0.5 0.3-0.9 0.6-1.4 0.8-0.6 0.4-1.2 0.7-1.7 1.1l-8.1 5.7V469.9l0.3-0.9c3.7-9.5 6.9-18.6 9.8-27l9.8 3.2c-0.5 1.5-0.7 3-0.7 4.7 0.1 7.3 4.6 13.6 13.8 19.2l2.3 1.3h55.2v112.5z m146.3 0H432.4V470.4h105.1v112.5z"  /></svg>