<?xml version="1.0" standalone="no"?><!DOCTYPE svg PUBLIC "-//W3C//DTD SVG 1.1//EN" "http://www.w3.org/Graphics/SVG/1.1/DTD/svg11.dtd"><svg class="icon" width="200px" height="200.00px" viewBox="0 0 1024 1024" version="1.1" xmlns="http://www.w3.org/2000/svg"><path fill="#333333" d="M715.8 466.8c0-7.5-6.1-13.6-13.6-13.6H570.1v-12.3c0-3.4-0.3-6.7-1-9.8l-0.3-1.3 108-107.3c2.6-2.5 4-6 4-9.6 0-3.6-1.5-7.1-4-9.6L654 280.6c-5.3-5.2-13.9-5.2-19.1 0L538 376.7l-97.9-97.2c-5.3-5.2-13.9-5.2-19.1 0l-22.8 22.6c-2.6 2.5-4 6-4 9.6 0 3.6 1.5 7.1 4 9.6l111.9 111.1 1 0.8-0.2 1.4c-0.3 2.2-0.4 4.2-0.4 6.2v12.3H375c-7.5 0-13.6 6.1-13.6 13.6v31.8c0 7.5 6.1 13.6 13.6 13.6h135.5V585H375c-7.5 0-13.6 6.1-13.6 13.6v31.8c0 7.5 6.1 13.6 13.6 13.6h135.5v126c0 7.5 6.1 13.6 13.6 13.6h32.4c7.5 0 13.6-6.1 13.6-13.6V643.9h132.1c7.5 0 13.6-6.1 13.6-13.6v-31.8c0-7.5-6.1-13.6-13.6-13.6H570.1v-72.8h132.1c7.5 0 13.6-6.1 13.6-13.6v-31.7zM913.8 871.5l13.8-167.2c0.1-1.7-0.5-3.3-1.7-4.5-1.2-1.2-2.9-1.7-4.6-1.4l-165.9 25.4c-2.1 0.3-3.8 1.8-4.4 3.8-0.6 2 0 4.2 1.5 5.7L797 775l16.9 15.7h-5.4c-73.7 71.5-171.1 110.8-274.3 110.8-52.9 0-104.3-10.3-152.6-30.5-46.7-19.5-88.6-47.5-124.6-83.2-36-35.6-64.3-77.2-84-123.4-20.4-47.9-30.8-98.7-30.8-151.1 0-52.4 10.4-103.2 30.8-151.1 19.7-46.2 48-87.7 84-123.4s77.9-63.6 124.6-83.2c48.3-20.2 99.7-30.5 152.6-30.5h0.9c142.1 0 273.3 77 342.7 201 3.4 6 10.9 8.4 17.1 5.4l30.6-14.9c3.3-1.6 5.7-4.3 6.9-7.8 1.2-3.4 1-7.1-0.6-10.3-20.7-37.6-46.7-71.9-77.1-102C769.9 112.6 657 66.4 536.9 66.4 288.8 66.4 87 266.2 87 511.7c0 119 46.8 230.8 131.8 314.9 85 84.1 197.9 130.4 318.1 130.4h1.1c118 0 229.5-45.3 314.2-127.6l1.6-1.6 2.2 1.8 48.6 45.4c1.5 1.4 3.8 1.9 5.8 1.1 1.8-0.6 3.2-2.5 3.4-4.6z" /></svg>