<?xml version="1.0" standalone="no"?><!DOCTYPE svg PUBLIC "-//W3C//DTD SVG 1.1//EN" "http://www.w3.org/Graphics/SVG/1.1/DTD/svg11.dtd"><svg class="icon" width="200px" height="200.00px" viewBox="0 0 1024 1024" version="1.1" xmlns="http://www.w3.org/2000/svg"><path fill="#333333" d="M883 444.2H473.7c-40.4 0-73.3 32.9-73.3 73.3v297.2c0 40.4 32.9 73.3 73.3 73.3H883c40.4 0 73.3-32.9 73.3-73.3V517.4c0-40.4-32.9-73.2-73.3-73.2z m-434.2 73.2c0-13.7 11.1-24.8 24.8-24.8H883c13.7 0 24.8 11.1 24.8 24.8v297.2c0 13.7-11.1 24.8-24.8 24.8H473.7c-13.7 0-24.8-11.1-24.8-24.8V517.4zM689.5 783.7c31 0 57.3-12.3 78.3-36.6 3-3.5 4.4-6.3 4.4-9.1 0-2.2 0-3.2-10.4-17-10.3-13.6-11.5-14.5-14.9-14.5-2.8 0-4.2 1-12.8 9.1-5.9 5.6-11.7 10-17.3 13-8.3 4.5-17.1 6.8-26 6.8-18.2 0-31.9-6.9-42-21.1-9.1-12.9-13.7-29.4-13.7-48.9s4.6-35.8 13.8-48.4c10.1-13.9 23.9-20.6 42.2-20.6 9.5 0 18.2 2.3 26 6.7 4.8 2.8 10.1 7.1 15.7 12.7 7.7 7.9 10.6 9.3 13.6 9.3 3.9 0 6.3-2 14.8-15.5 8.3-13.1 9-16.2 9-18.6 0-2.8-1.2-5.7-3.7-9l-0.1-0.1c-18-22.2-43.7-33.5-76.3-33.5-32.2 0-58.4 12.1-78.1 36.1-18.2 22-27.5 49.6-27.5 82s9.1 59.9 27 81.7c19.5 23.5 45.7 35.5 78 35.5zM531.7 437.9h68l-4.3-8.7c-3-6.1-4.9-12.7-5.5-19.5 0.1-1.6 0.1-3.3 0.1-4.9 0-13.4-10.9-24.2-24.2-24.2h-0.3c-13.4 0-24.2 10.9-24.2 24.2 0 1.6 0 3.3 0.1 4.9-0.6 6.8-2.4 13.4-5.5 19.5l-4.2 8.7zM394.2 814.6V803H221.4c-13.7 0-24.8-11.1-24.8-24.8V504.6c19.7-5.7 37.3-17.2 50.6-32.9 19.6 23.3 48.8 37 79.4 37 30.9 0 60.2-13.9 79.8-37.5l1.2 1.6 4.9-5.9c7.3-8.9 16.3-15.9 26.6-21l6.4-3.1-4.1-5.8c-6.8-9.4-10.3-20.6-10.3-32.1 0-13.4-10.9-24.2-24.2-24.2h-0.6c-13.4 0-24.2 10.9-24.2 24.2 0 30.5-24.8 55.3-55.3 55.3-28.5 0-52.6-22.1-55.1-50.4 0.1-1.6 0.1-3.2 0.1-4.9 0-13.4-10.9-24.2-24.2-24.2H247.3c-13.4 0-24.2 10.9-24.2 24.2 0 1.6 0 3.2 0.1 4.9-2.5 28.3-26.6 50.4-55.1 50.4-29.4 0-53.3-22.5-55.2-51.6v-0.1l66.4-181.7c4.8-12.3 11.1-27.4 17.7-35.2 3.2-3.7 5-4.6 9.9-4.6h399.8c5.1 0 7.2 0.9 10.4 4.5 7.7 8.9 14.7 28.2 16.9 34.5l66.1 181.1-0.2 0.9 0.7 0.9c-0.5 7-2.4 14-5.5 20.3l-4.3 8.7h53.1l1.3-4.3c2.7-9.3 4.1-19 4.1-28.7 0-0.5 0-1-0.1-1.4v-0.2-2.8L679.6 210c-12.3-34.5-29.1-71.3-72.9-71.3H206.5c-19 0-34.2 7-46.7 21.5-11.4 13.3-19.3 31.7-26.2 49.6L64.3 399.4l-0.4 1V403.5c0 0.5-0.1 0.9-0.1 1.4 0 49.7 35.8 92.6 84.1 101.9v271.4c0 40.4 32.9 73.3 73.3 73.3h181.3l-3.2-8.2c-3.3-9.2-5.1-18.8-5.1-28.7z" /></svg>