<?xml version="1.0" standalone="no"?><!DOCTYPE svg PUBLIC "-//W3C//DTD SVG 1.1//EN" "http://www.w3.org/Graphics/SVG/1.1/DTD/svg11.dtd"><svg class="icon" width="200px" height="200.00px" viewBox="0 0 1024 1024" version="1.1" xmlns="http://www.w3.org/2000/svg"><path fill="#333333" d="M143.1 865.7c-1.4 13.3 4.4 27.9 15.3 38.8 11 11 25.5 16.7 38.8 15.3H530c15.6 0 28.3-12.7 28.3-28.3 0-16.6-13.4-30-30-30h-328c-1.2 0-2.1-1-2.1-2.1v-735c0-1.2 1-2.1 2.1-2.1 215.8 0 419.6 0 633.8-3 1.2 0 2.2 0.9 2.2 2.1v420.3c0 16.6 13.4 30 30 30 14 0 25.3-11.3 25.3-25.3v-431c0-24.3-22-51.5-51.5-51.5H191.4c-18.8 3.1-34.6 12.2-39.5 22.7l-0.3 0.4c-9.5 11.8-9.1 25.5-8.7 40.1 0.1 3 0.2 6.1 0.2 9.1v729.5zM771.1 257.7c0-12.9-6.5-27.3-21-28.7H284.4c-13.5 4.2-18.4 19.1-17.2 31.3 1.1 11 7.6 24.4 22.6 25.8h460.4c14.4-1.3 20.9-15.2 20.9-28.4zM284.8 405.9h-0.1c-15 4.1-20.4 19.8-18 33.1 1.9 10.7 9.8 22.7 25.5 21.3H750c14.6-2.8 21.1-16.3 21.1-28.6s-6.5-25.8-21.1-28.6H309.8c-4.4 1.4-8.8 1.4-13 1.4-4.2 0.1-8.1 0.1-12 1.4zM541.5 603.5c-0.5-12.9-7.8-26-22.9-26H284.3c-13.2 2.8-19.3 17.6-18.5 30.9 0.6 11.3 6.6 24.9 21.3 26.2h231.4c15.8-1.3 23.5-16.7 23-31.1zM674.3 937.7c65.9 34.4 151.2 19.5 202.9-35.2 46.7-46.6 62.1-119.8 38.3-182.2-27-68.7-94.6-114.7-164.6-111.7-57.8 0-114.1 31.6-147.1 82.4l-1.2 1.9-1.8-1.4c-11.5-8.6-22.5-13.9-35-17 2.9 19.4 5 39.2 7.3 60.1 2 18.2 4 37 6.6 55.7 28.8-17.6 55.7-31.8 84.1-46.9 7.6-4 15.3-8.1 23.1-12.3-13.4-7.9-24.3-13.2-38.1-18.7l-2.5-1 1.5-2.2c22.3-31.7 56.5-51.6 93.9-54.5 34.6-3 71.5 10.7 98.6 36.7 25.2 24.2 38.9 56 37.5 87.4 1.3 30.9-11.3 62.7-34.7 87.1-24.3 25.4-56.9 39.9-89.5 39.9-2.3 0.1-4.5 0.2-6.8 0.2-45 0-89.3-28.2-110.1-70.7-7 4-14.6 7.5-22 10.8-7.4 3.4-15 6.8-21.9 10.8 17.9 34.8 46.7 63.3 81.5 80.8zM741.8 677.7c5.9-5.9 17.9-5.9 17.9 3 3 29.8 3 59.5 5.9 89.3 23.8 3 47.7 3 71.4 5.9 3 3 9 5.9 9 9-3 3-5.9 9-9 11.9-29.8 3-59.5 0-89.3 11.8-9 0-20.8-11.8-17.9-23.8 12-35.6 6.1-71.3 12-107.1z m0 0" /></svg>