<?xml version="1.0" standalone="no"?><!DOCTYPE svg PUBLIC "-//W3C//DTD SVG 1.1//EN" "http://www.w3.org/Graphics/SVG/1.1/DTD/svg11.dtd"><svg class="icon" width="200px" height="200.00px" viewBox="0 0 1024 1024" version="1.1" xmlns="http://www.w3.org/2000/svg"><path fill="#333333" d="M464.6 544.5H568c7.1-6.4 14.7-12.3 22.5-17.6v-28.6H486.9l144.2-249.7h-71.7L433.8 473.9 308.1 248.7h-71.7l144.2 249.7H277.1v46.2H403v53.7H277.1v46.2H403V754h61.5V644.4h39.6c5.2-16.3 12.1-31.8 20.4-46.2h-60v-53.7zM489.8 879H150V151.1h529.4l198.5 198.5v166c0 13.8 11.2 25 25 25h2c13.8 0 25-11.2 25-25V323.1L706.5 99.7l-0.1-0.5H98V931h391.8c13.8 0 25-11.2 25-25v-2c0-13.8-11.2-25-25-25zM564.5 778.1l0.3 0.2 180.7 83.6c2.7 1.3 6 3 10.1 3h4.2c4.8 0 9.9-2.4 11.1-3l176.2-83.4 0.6-0.3c11.3-6.4 15-20.8 8.7-33.4l-0.2-0.4c-6.7-11.6-21.2-15.9-32.5-9.7L757.6 813l-169.2-77.4c-5.4-3-11.7-3.8-17.6-2.4-6.3 1.5-11.5 5.4-14.7 10.9-3.6 5.9-4.7 12.6-3.1 19 1.6 6.3 5.8 11.8 11.5 15zM956.4 837.6l-0.2-0.5-0.3-0.5c-6.7-10.1-20.9-13.2-33-7.2l-166.2 78.5-168.1-78.5c-5.4-3-11.7-3.9-17.7-2.4-6.3 1.5-11.6 5.5-14.8 11.1-3.2 5.5-4.1 11.9-2.6 18 1.5 6.3 5.5 11.6 11.1 14.8l0.3 0.2 180.7 83.6c2.7 1.3 6 3 10.1 3h4.2c4.8 0 9.9-2.4 11.1-3l176.2-83.4 0.6-0.3c11.2-6.5 14.9-20.8 8.6-33.4zM564.5 684.3l0.3 0.2L745.5 768c2.7 1.3 6 3 10.1 3h4.2c4.8 0 9.9-2.3 11.1-3l172.4-81c6.1-1.7 10.8-5.4 13.7-10.7 2.5-3.4 2.5-7.4 2.5-9V661c0-1.9-0.5-3.6-1-4.9 0-0.1 0-0.1-0.1-0.2v-1.2l-0.9-1.9c-2.9-5.9-7.7-9.8-14.2-11.6l-172.4-83.1c-2.4-1.2-6-3-11.2-3h-4.2c-3.5 0-7.2 1.3-10 3.4l-172.7 80.2c-5 0.5-11.5 2.9-17.4 10.7l-0.5 0.6-0.4 0.7c-5.8 12.3-1.5 27 10 33.6zM758.7 606l119.4 57-120.5 57.1L636.4 664l122.3-58z" /></svg>