<?xml version="1.0" standalone="no"?><!DOCTYPE svg PUBLIC "-//W3C//DTD SVG 1.1//EN" "http://www.w3.org/Graphics/SVG/1.1/DTD/svg11.dtd"><svg class="icon" width="200px" height="200.00px" viewBox="0 0 1024 1024" version="1.1" xmlns="http://www.w3.org/2000/svg"><path fill="#333333" d="M883.2 240.1H191.4c-29.2 0-53-23.8-53-53s23.8-53 53-53h727c18.4 0 33.3-14.9 33.3-33.3s-14.9-33.3-33.3-33.3h-727c-65.9 0-119.5 53.6-119.5 119.5 0 1.9 0.1 3.7 0.2 5.8-0.1 0.9-0.2 2-0.2 3v693.5c0 37.8 30.7 68.5 68.5 68.5h742.8c37.8 0 68.5-30.7 68.5-68.5V308.6c0-37.8-30.8-68.5-68.5-68.5z m1.9 68.5v580.9c0 1-0.9 1.9-1.9 1.9H140.3c-1 0-1.9-0.9-1.9-1.9V294.3c16.5 8.1 34.6 12.4 53 12.4h691.8c1-0.1 1.9 0.8 1.9 1.9zM624.4 586.3c18.4 0 33.3-14.9 33.3-33.3s-14.9-33.3-33.3-33.3h-41.1l53.6-53.6c6.3-6.3 9.8-14.7 9.8-23.6s-3.5-17.3-9.8-23.6c-13-13-34.1-13-47.1 0L511.7 497l-78-78c-6.3-6.3-14.7-9.8-23.6-9.8-8.9 0-17.3 3.5-23.6 9.8-6.3 6.3-9.8 14.7-9.8 23.6s3.5 17.3 9.8 23.6l53.6 53.6H399c-18.4 0-33.3 14.9-33.3 33.3s14.9 33.3 33.3 33.3h79.4v33.3H399c-18.4 0-33.3 14.9-33.3 33.3s14.9 33.3 33.3 33.3h79.4v91.3c0 18.4 14.9 33.3 33.3 33.3S545 796 545 777.6v-91.3h79.4c18.4 0 33.3-14.9 33.3-33.3s-14.9-33.3-33.3-33.3H545v-33.3h79.4z" /></svg>