<?xml version="1.0" standalone="no"?><!DOCTYPE svg PUBLIC "-//W3C//DTD SVG 1.1//EN" "http://www.w3.org/Graphics/SVG/1.1/DTD/svg11.dtd"><svg class="icon" width="200px" height="200.00px" viewBox="0 0 1024 1024" version="1.1" xmlns="http://www.w3.org/2000/svg"><path fill="#333333" d="M91.8 325.6c-15.3 1.1-27.3 13.6-27.8 28.9v529.7c0.6 15.1 12.7 27.2 27.8 27.8 15.1-0.6 27.2-12.7 27.8-27.8V354.5c-0.5-15.3-12.5-27.8-27.8-28.9z m708.1 5H214.6c-14.4 0-26.1 11.7-26.1 26.1v533.6c0 6.9 2.8 13.6 7.6 18.5 4.9 4.9 11.5 7.7 18.5 7.7H960V491.2c2.3-43.2-13.9-85.2-44.4-115.9-30.5-30.6-72.5-46.8-115.7-44.7zM905 861.4H244.6V386.2h545.8c30.4-2.3 60.3 8.6 82.2 29.9 21.9 21.2 33.6 50.8 32.3 81.3v364z m0 0M751.5 522.9H365.3c-13.2 2.7-22.8 14.3-22.8 27.8s9.5 25.1 22.8 27.8h386.3c13.2-2.7 22.8-14.3 22.8-27.8-0.1-13.5-9.6-25.1-22.9-27.8z m0 157.3H365.3c-13.2 2.7-22.8 14.3-22.8 27.8s9.5 25.1 22.8 27.8h386.3c13.2-2.7 22.8-14.3 22.8-27.8-0.1-13.5-9.6-25.2-22.9-27.8z m-64.4-569.7L210.2 271.7c-14.6 4.9-22.4 20.7-17.5 35.3 4.9 14.6 20.7 22.4 35.3 17.5L655.4 180c6.2-2.1 13-1.6 18.8 1.3 5.9 2.9 10.3 8.1 12.3 14.3l35.6 105c3.2 9.4 11.1 16.5 20.9 18.4 9.8 2 19.8-1.4 26.4-8.9 6.6-7.5 8.7-17.9 5.5-27.3l-52.2-154.5c-2.3-7.1-7.3-13-14-16.4-6.8-3.4-14.5-3.9-21.6-1.4z m0 0" /></svg>