<?xml version="1.0" standalone="no"?><!DOCTYPE svg PUBLIC "-//W3C//DTD SVG 1.1//EN" "http://www.w3.org/Graphics/SVG/1.1/DTD/svg11.dtd"><svg class="icon" width="200px" height="200.00px" viewBox="0 0 1024 1024" version="1.1" xmlns="http://www.w3.org/2000/svg"><path fill="#333333" d="M648 561.1H378c-14.4 0-26 11.6-26 26s11.6 26 26 26h270c14.4 0 26-11.6 26-26s-11.6-26-26-26zM880.2 71H143.8c-43.1 0-78.2 35.1-78.2 78.2v201.1c0 20.9 8.1 40.6 22.9 55.3 14.8 14.8 34.4 22.9 55.3 22.9h55.5c5.7 0 10.1 4.4 10.1 10.1v513c51.7-39.1 104-78.6 155.7-117.5l6.1-4.6 0.9 0.7 140.2 112.4 153.7-113 2.6 2.2 146.2 122c0.1-57 0-230.2-0.1-515 0-5.7 4.5-10.1 10.2-10.1h55.5c43.1 0 78.2-35.1 78.2-78.2V149.3c-0.1-43.2-35.4-78.3-78.4-78.3zM653.8 731.6L515.5 836.1h-7l-0.4-0.3L371 732l-93.4 76.5-0.5 0.3c-3.1 2-7.2 2.2-10.5 0.4-3.3-1.8-5.3-5.2-5.3-8.9l-0.5-522.7h1.5l503.9 1.2v1.5l0.9 547.9-113.3-96.6z m206.4-364.3l-45.2 0.4-1.1-86.1 6.5-2.4c20.1-7.5 29.9-16.9 29.9-28.9 0-18.5-13.1-31-25.4-31H200.1c-8.7 0-25.2 6.5-25.2 31 0 14.6 8 23.3 25.9 28.2 4.7 1 8.1 5.1 8.1 10l0.5 78.9H167c-21.8 0-39.5-17.7-39.5-39.5l-2.1-155.2c0-10.6 4.1-20.6 11.6-28.1s17.4-11.6 27.9-11.6h693.2c10.5 0 20.5 4.1 27.9 11.6 7.5 7.5 11.6 17.4 11.6 27.9l2.1 155.2c0 21.8-17.8 39.6-39.5 39.6zM648 431.1H378c-14.4 0-26 11.6-26 26s11.6 26 26 26h270c14.4 0 26-11.6 26-26s-11.6-26-26-26z" /></svg>