<?xml version="1.0" standalone="no"?><!DOCTYPE svg PUBLIC "-//W3C//DTD SVG 1.1//EN" "http://www.w3.org/Graphics/SVG/1.1/DTD/svg11.dtd"><svg class="icon" width="200px" height="200.00px" viewBox="0 0 1024 1024" version="1.1" xmlns="http://www.w3.org/2000/svg"><path fill="#333333" d="M559.5 248.7L433.8 473.9 308.1 248.7h-71.7l144.2 249.7H277.1v46.2H403v53.7H277.1v46.2H403V754h61.5V644.4h39.6c5.2-16.3 12.1-31.8 20.4-46.2h-60v-53.7h103.4c7.1-6.4 14.7-12.3 22.5-17.6v-28.6H486.9l144.2-249.7h-71.6zM875.6 669.5L791 765.3h62.3c0 79.3-60.2 143.7-134.3 143.7-22.6 0-44.1-6-62.7-16.8l-32.8 35c27.6 18.7 60.2 29.7 95.4 29.7 98.9 0 179.1-85.7 179.1-191.7h62.4l-84.8-95.7zM584.7 765.3c0-79.3 60.2-143.7 134.3-143.7 22.6 0 44.1 6 62.7 16.8l32.7-35c-27.6-18.7-60.2-29.7-95.4-29.7-98.9 0-179.1 85.7-179.1 191.7h-62.3l84.7 95.8 84.6-95.8h-62.2zM150 151.1h529.4l198.5 198.5v191h52V323.1L706.5 99.7l-0.1-0.6H98V931h416.8v-52H150z" /></svg>