<?xml version="1.0" standalone="no"?><!DOCTYPE svg PUBLIC "-//W3C//DTD SVG 1.1//EN" "http://www.w3.org/Graphics/SVG/1.1/DTD/svg11.dtd"><svg class="icon" width="200px" height="200.00px" viewBox="0 0 1024 1024" version="1.1" xmlns="http://www.w3.org/2000/svg"><path fill="#333333" d="M755.5 290l-62.3-62.3c-10-10-26.2-10.2-36.4-0.4-10.5 10.1-10.2 27.2 0.1 37.5l18.6 18.6H436c-14.2 0-26.2 11.1-26.6 25.3-0.4 14.7 11.4 26.7 26 26.7h240.1L656.9 354c-10.3 10.3-10.6 27.4-0.1 37.5 10.2 9.8 26.4 9.7 36.4-0.4l62.3-62.3c5.4-5.4 7.9-12.5 7.6-19.5 0.3-6.8-2.3-13.9-7.6-19.3zM345.9 477.4H574c14.2 0 26.1-11.1 26.5-25.3 0.4-14.7-11.4-26.7-26-26.7H345.9l18.6-18.6c10.3-10.3 10.6-27.4 0.1-37.5-10.2-9.8-26.4-9.7-36.4 0.4L265.9 432c-5.4 5.4-7.9 12.5-7.6 19.5-0.3 7 2.2 14.2 7.6 19.5l62.3 62.3c10 10 26.2 10.2 36.4 0.4 10.5-10.1 10.2-27.2-0.1-37.5l-18.6-18.8zM958.3 470.5C939.8 265 754.3 81.7 548.6 65.4 290.6 44.9 74 243.2 64.3 494.6c-10 261.5 206.8 476.8 468.2 465.1C624 955.6 708.4 924 777.6 873c1.3-0.9 1.9-2.6 1.6-4.1-2-10.5-3.8-20.5-4.4-24.3-0.2-1-0.7-1.9-1.5-2.5l-19.9-16c-0.3 0.2-0.5 0.4-0.8 0.6-11.3-8.9-27.7-22.8-38.1-31.9-5.2-4.7-24-19.8-53.5-19.8H408c-0.2 0-0.5 0-0.7 0.1l-1.8 0.3c-1.3 0.2-2.5-0.2-3.5-1-22.9-20.7-113.6-100.3-153.5-134.8-2.1-1.8-1.8-5.2 0.6-6.6 1.4-0.8 3-1.6 4.9-2 8.9-1.8 22.8 3.4 38.3 14.4 43 33.6 101.1 74.2 103.5 75.9l6.3 4.4c0.7 0.5 1.5 0.7 2.4 0.7h161.4c0.8 0 1.6-0.3 2.3-0.7l48.9-33.5c21.2-14 17.6-30.8 16-35.6-1.5-4.4-8-18.9-29.8-19.9h-0.3c-26.5-3.3-55.7-9.2-77.1-13.5-5-1-9.6-1.9-13.5-2.7-10.1-2-12.2-10-12.2-16.4 0-2.7 0.5-3.6 2.9-5 1.8-1.1 4-1.8 5.8-2.3 0.3-0.1 0.7-0.1 1-0.1h211.9l0.3 0.3c4.8 4.7 33.5 29.5 80.1 69.8l0.8 0.7c17.9 15.5 37.6 32.4 52.1 45.1 0.3 0.2 0.6 0.3 1 0.3 0.3 0 0.7 0.1 1 0.3l20 16.7c0.9 0.8 2.2 1.1 3.4 0.9l23.1-4.1c1.2-0.2 2.3-1 2.9-2.1 40.4-74.6 60.1-161.8 51.8-254.1z m-77.2 185.9c-1 2.7-4.4 3.5-6.6 1.6-9.8-8.5-21.2-18.3-34.3-29.6l-0.1-0.1c-31-26.7-73.4-63.4-77.5-67.4-16-15.6-33.8-16.4-37.2-16.4H505.3l-2 0.2c-2.4 0.3-14.9 2.1-27.7 9.1-19.9 10.9-30.9 28.8-30.9 50.3 0 16.1 5.1 31 14.7 42.9 10.2 12.7 24.6 21.1 41.8 24.5 3.8 0.7 8.2 1.6 13 2.6l0.3 0.1c0.3 0.1 0.6 0.1 1 0.2h-92.3c-0.9 0-1.7-0.3-2.4-0.8-19.1-13.5-61.1-43.5-93.2-68.6l-0.9-0.7c-30-21.5-58.5-29.7-84.6-24.2-31.4 6.5-45.5 30.2-47 32.9l-0.4 0.8c-7.8 15.2-11.1 38.6 5 54.4l0.5 0.5 0.9 0.7c35.6 30.5 158 138 165.8 145.5 16 15.6 37.1 13.6 44.6 12.3 0.2 0 0.5-0.1 0.7-0.1h249c8.2 0 13.7 4.2 14.6 4.9l0.8 0.7c2.1 1.8 12.9 11.2 24.7 21 2.3 1.9 1.9 5.4-0.7 6.8-11.1 6-22.5 11.5-34.2 16.5-48.8 20.6-100.7 31.1-154.2 31.1S406.7 897.7 357.9 877c-47.2-19.9-89.5-48.5-125.9-84.9-36.4-36.4-65-78.8-84.9-125.9C126.5 617.4 116 565.5 116 512c0-53.5 10.5-105.4 31.1-154.2 19.9-47.2 48.5-89.5 84.9-125.9 36.4-36.4 78.8-65 125.9-84.9 48.8-20.6 100.7-31.1 154.2-31.1s105.4 10.5 154.2 31.1c47.2 19.9 89.5 48.5 125.9 84.9 36.4 36.4 65 78.8 84.9 125.9 20.6 48.8 31.1 100.7 31.1 154.2 0 49.9-9.1 98.4-27.1 144.4z" /></svg>