<?xml version="1.0" standalone="no"?><!DOCTYPE svg PUBLIC "-//W3C//DTD SVG 1.1//EN" "http://www.w3.org/Graphics/SVG/1.1/DTD/svg11.dtd"><svg class="icon" width="200px" height="200.00px" viewBox="0 0 1024 1024" version="1.1" xmlns="http://www.w3.org/2000/svg"><path fill="#333333" d="M651.9 186.5v2.8c-0.5-1.1-0.5-2.2 0-2.8-0.6-1.1 0-1.7 0-2.8v2.8zM892.1 584.5l-3.4-1.2V192.9c0-54.6-44.4-98.9-98.9-98.9H373.3c-42 0-79.5 26.6-93.4 66.1l-1.2 3.4h-43.9c-54.6 0-98.9 44.4-98.9 98.9v321.4l-3.4 1.2c-39.6 14-66.1 51.5-66.1 93.3v138.4c0 54.6 44.4 98.9 98.9 98.9h693.3c54.6 0 98.9-44.4 98.9-98.9V678.1c1.3-42.2-25-79.8-65.4-93.6zM333.2 192.9c0-21.8 17.7-39.5 39.5-39.5h417.5c21.8 0 39.5 17.7 39.5 39.5v386.4h-219c-12.7 0-24.5 8-28.6 19.5-10.4 29.9-38.6 50-70.3 50-31.7 0-60-20.1-70.4-50.1-4.2-11.8-15.5-19.4-28.6-19.4h-79.5V192.9z m-137.8 69.5c0-21.8 17.7-39.5 39.5-39.5h39.5v356.4h-79V262.4z m664.9 594.3H165.9c-21.8 0-39.5-17.7-39.5-39.5v-139c0-21.8 17.7-39.5 39.5-39.5h228.6l1.4 2.5c23.7 41.3 68 67 115.7 67s92-25.7 115.7-67l1.4-2.5h230.9c21.8 0 39.5 17.7 39.5 39.5l0.6 139c0.1 21.8-17.6 39.5-39.4 39.5zM442.8 326.3h278.5c16.2 0 29.4-13.2 29.4-29.4s-13.2-29.4-29.4-29.4H442.8c-16.2 0-29.4 13.2-29.4 29.4s13.2 29.4 29.4 29.4zM442.8 465.3h278.5c16.2 0 29.4-13.2 29.4-29.4s-13.2-29.4-29.4-29.4H442.8c-16.2 0-29.4 13.2-29.4 29.4s13.2 29.4 29.4 29.4z" /></svg>