<?xml version="1.0" standalone="no"?><!DOCTYPE svg PUBLIC "-//W3C//DTD SVG 1.1//EN" "http://www.w3.org/Graphics/SVG/1.1/DTD/svg11.dtd"><svg class="icon" width="200px" height="200.00px" viewBox="0 0 1024 1024" version="1.1" xmlns="http://www.w3.org/2000/svg"><path fill="#333333" d="M522 620.6c9.2 0 17.6-5 22.2-13 4.6-8 4.6-18 0-26s-13-13-22.2-13h-70.7l63.8-64.8c10-10.1 10-26.6 0-36.8-10-10.2-26.2-10.2-36.2 0l-77.2 78.3c-2.4-0.4-4.8-0.4-7.2 0L317.3 467c-6.4-6.9-16-9.7-25-7.4-9.1 2.4-16.1 9.5-18.5 18.7-2.3 9.2 0.4 18.9 7.3 25.4l63.9 64.8h-70.7c-14.2 0-25.6 11.6-25.6 26s11.5 26 25.6 26h98.2v55.4h-98.2c-14.2 0-25.6 11.6-25.6 26s11.5 26 25.6 26h98.2v94.4c0 14.4 11.5 26 25.6 26 14.2 0 25.6-11.6 25.6-26v-94.4h98.2c14.2 0 25.6-11.6 25.6-26s-11.5-26-25.6-26h-98.1v-55.3H522z m0 0M891.3 80.1H138.4c-27.7 0.1-50 22.9-50 50.9v763.3c0 28.1 22.4 50.9 50 50.9h516.7l286.2-300.3V131c0-13.5-5.2-26.4-14.6-36-9.4-9.5-22.2-14.9-35.4-14.9zM671.3 854V665.4h179L671.3 854zM890 613.4H645.6c-6.8 0-13.3 2.7-18.1 7.6-4.8 4.9-7.5 11.5-7.5 18.4v254H139.7V132.1H890v481.3z m0 0M274.2 348.9h517.9c14.2 0 25.6-11.6 25.6-26s-11.5-26-25.6-26H274.2c-14.2 0-25.6 11.6-25.6 26 0 14.3 11.5 26 25.6 26z m518 87.5H626.5c-14.2 0-25.6 11.6-25.6 26s11.5 26 25.6 26h165.8c9.2 0 17.6-5 22.2-13 4.6-8.1 4.6-18 0-26s-13.1-13-22.3-13z m0 0" /></svg>