<?xml version="1.0" standalone="no"?><!DOCTYPE svg PUBLIC "-//W3C//DTD SVG 1.1//EN" "http://www.w3.org/Graphics/SVG/1.1/DTD/svg11.dtd"><svg class="icon" width="200px" height="200.00px" viewBox="0 0 1024 1024" version="1.1" xmlns="http://www.w3.org/2000/svg"><path fill="#333333" d="M949.7 403.8c-0.3-1.2-0.7-2.4-1.2-3.6l-0.3-0.7-0.1-0.3-0.1-0.2-0.1-0.2c-0.1-0.2-0.2-0.4-0.2-0.5-0.1-0.2-0.2-0.3-0.3-0.5-0.1-0.2-0.2-0.3-0.2-0.4l-0.4-0.8-0.3-0.5c-0.1-0.1-0.2-0.3-0.3-0.4v-0.1l-0.2-0.3c-1.3-2-2.9-3.7-4.7-5.2l-0.4-0.3c-0.2-0.2-0.4-0.3-0.6-0.4l-0.5-0.4-0.1-0.1c-0.1-0.1-0.2-0.1-0.3-0.2l-0.3-0.2-0.1-0.1-0.7-0.5c-0.2-0.2-0.5-0.3-0.8-0.5l-0.2-0.1c-0.2-0.1-0.7-0.4-0.7-0.4l-0.7-0.3c-0.2-0.1-0.3-0.2-0.4-0.2 0 0-1-0.4-1.2-0.5l-0.4-0.2c-0.2-0.1-0.4-0.2-0.7-0.2l-0.4-0.1-1.1-0.3-0.3-0.1-0.4-0.1c-0.2 0-0.4-0.1-0.5-0.1h-0.1l-0.4-0.1c-0.2 0-0.4-0.1-0.6-0.1h-0.1l-0.5-0.1c-0.3 0-0.6-0.1-0.8-0.1h-0.2c-1.2-0.1-2.5-0.2-3.7-0.1h-0.1c-1.5 0.1-3.1 0.1-4.6 0.1-60.3 0-109.3-49-109.3-109.3 0-21.2 6.1-42 17.6-59.7l0.2-0.3 0.1-0.1v-0.1c0.4-0.6 0.7-1.2 1-1.7l0.3-0.6c0.3-0.6 0.6-1.2 0.8-1.8l0.1-0.2 0.1-0.1c0.3-0.7 0.5-1.4 0.7-2l0.2-0.6c0.8-3 1-6.1 0.6-9.2v-0.3c-0.1-0.5-0.2-1.3-0.3-1.9v-0.1l-0.1-0.3c-0.1-0.6-0.3-1.3-0.6-2.1l-0.1-0.4c-0.2-0.8-0.5-1.3-0.7-1.9l-0.2-0.4c-0.2-0.6-0.5-1.2-0.9-1.8l-0.2-0.4c-0.3-0.6-0.7-1.2-1.1-1.8v-0.1l-0.1-0.2c-0.4-0.6-0.8-1.1-1.2-1.5l-0.1-0.2-0.2-0.3c-0.3-0.3-0.6-0.7-0.9-1l-1.6-1.6c-51-48.7-113.3-85.1-180.4-105.4l-0.3-0.1c-2-0.6-4-0.9-6-1h-1.1c-2.8 0-5.7 0.5-8.3 1.4l-0.2 0.1h-0.2l-0.3 0.1-0.1 0.1-0.6 0.2-0.7 0.3c-0.1 0.1-0.3 0.1-0.4 0.2 0 0-0.7 0.3-1 0.5l-0.3 0.1c-2.5 1.3-4.8 3.1-6.7 5.2-1.7 1.9-3.2 4.1-4.3 6.4-18 38.1-56.8 62.7-98.8 62.7-41.9 0-80.6-24.4-98.6-62.2l-0.2-0.3-0.1-0.1-0.2-0.4c-0.7-1.5-1.7-3.1-2.8-4.6-2.4-3.1-5.5-5.6-9-7.2l-0.5-0.3c-0.1 0-0.1-0.1-0.2-0.1l-0.2-0.1-0.3-0.1s-0.7-0.3-0.9-0.4h-0.1l-0.2-0.1-0.3-0.1-0.7-0.3-0.3-0.1c-2.4-0.7-4.8-1.1-7.3-1.1h-1.1c-2 0.1-4 0.4-5.9 1l-0.3 0.1c-66.9 20.2-129 56.3-179.7 104.5l-0.6 0.6c-0.5 0.5-1 1-1.4 1.5v0.1l-0.3 0.3c-0.5 0.6-1 1.2-1.4 1.8l-0.3 0.3c-0.4 0.6-0.7 1.1-1.1 1.7l-0.2 0.3c-0.4 0.7-0.7 1.3-0.9 1.8l-0.2 0.5c-0.2 0.6-0.5 1.2-0.7 1.8l-0.2 0.5c-0.2 0.7-0.4 1.3-0.5 2l-0.1 0.3c-0.2 0.8-0.3 1.4-0.3 2l-0.1 0.5c-0.1 0.8-0.1 1.5-0.2 2.1v2.9l0.3 2.1v0.3c0.1 0.6 0.2 1.3 0.4 1.9l0.1 0.5c0.2 0.7 0.4 1.3 0.7 2.1 0 0.1 0.1 0.2 0.1 0.3 0.3 0.7 0.6 1.3 0.9 2l0.1 0.3c0.3 0.6 0.6 1.2 1 1.8l0.2 0.4c0.1 0.2 0.2 0.3 0.3 0.5 11.8 17.9 18.1 38.8 18.1 60.3 0 60.3-49.1 109.3-109.3 109.3-2.1 0-4.1 0-6-0.1h-2.9c-0.2 0-0.9 0.1-0.9 0.1h-0.4c-0.3 0-0.5 0.1-0.9 0.1h-0.3l-0.7 0.1-0.6 0.1-0.5 0.1H96c-0.2 0.1-0.5 0.1-0.7 0.2h-0.1l-0.3 0.1c-0.2 0.1-0.4 0.1-0.7 0.2l-0.6 0.2c-0.1 0-0.3 0.1-0.4 0.1l-0.4 0.1-0.4 0.1-0.6 0.3-0.3 0.1-0.5 0.2c-0.1 0.1-0.3 0.1-0.4 0.2l-0.1 0.1c-0.3 0.2-0.7 0.4-1 0.5h-0.1c-0.3 0.2-0.6 0.3-0.8 0.5l-0.4 0.3c-0.2 0.1-0.3 0.2-0.5 0.3l-0.4 0.3s-0.4 0.3-0.7 0.5c-0.2 0.2-0.4 0.3-0.6 0.4l-0.3 0.3-0.6 0.5-0.5 0.4-0.5 0.5H84l-0.6 0.6-0.3 0.4c-0.1 0.1-0.4 0.5-0.4 0.5l-0.2 0.3-0.4 0.4c-0.1 0.1-0.2 0.3-0.4 0.5l-0.7 0.9-0.3 0.4-0.5 0.7-0.3 0.5-0.7 1.4-0.3 0.7c0 0.1-0.1 0.2-0.2 0.4 0 0-0.2 0.5-0.4 0.8l-0.1 0.2-0.1 0.2c-0.1 0.2-0.2 0.5-0.3 0.8 0 0.1-0.1 0.2-0.1 0.4l-0.1 0.4v0.2l-0.3 0.8c0 0.1 0 0.2-0.1 0.3 0 0.2-0.1 0.3-0.1 0.5l-0.1 0.8c-7.7 33.4-11.7 67.6-11.7 102.1 0 34.4 3.9 68.6 11.6 102 0 0.1 0.1 0.6 0.1 0.6l0.1 0.4 0.1 0.3c0 0.1 0.1 0.2 0.1 0.4l0.1 0.3 0.1 0.3c0.1 0.2 0.2 0.5 0.2 0.7 0.1 0.1 0.1 0.3 0.2 0.4l0.3 0.9 0.1 0.2 0.1 0.3 0.1 0.2 0.2 0.4c0.1 0.2 0.2 0.3 0.2 0.5v0.1l0.3 0.6 0.5 1 0.3 0.5 0.4 0.5 0.2 0.4 0.4 0.6c0.1 0.1 0.2 0.3 0.3 0.4l0.1 0.2 0.3 0.4c0.1 0.1 0.3 0.4 0.4 0.5 0.1 0.1 0.2 0.2 0.2 0.3l0.6 0.7 0.3 0.3 0.2 0.2c0 0.1 0.1 0.1 0.1 0.1l0.2 0.2 0.1 0.1 0.3 0.3c0.1 0.2 0.3 0.3 0.4 0.4l0.3 0.3c0.2 0.2 0.5 0.4 0.7 0.6 0 0 0.7 0.6 0.9 0.7l0.4 0.3c0.2 0.1 0.5 0.3 0.5 0.4 0.2 0.1 0.4 0.2 0.6 0.4l0.3 0.2 0.7 0.4 0.3 0.2 0.6 0.3 0.5 0.3 0.6 0.3 0.6 0.3 0.9 0.3 0.2 0.1 1.1 0.4c0.1 0 1.3 0.4 1.3 0.4l0.7 0.2c0.1 0 0.3 0.1 0.4 0.1h0.3l0.3 0.1 0.4 0.1c0.1 0 0.2 0 0.4 0.1l0.4 0.1 0.5 0.1h0.9c0.3 0 0.6 0 0.9 0.1h2.9c1.8-0.1 3.8-0.1 6.1-0.1 60.3 0 109.3 49.1 109.3 109.4 0 21.6-6.3 42.6-18.2 60.4l-0.1 0.1-0.1 0.2-0.1 0.2v0.1l-0.2 0.3c-0.3 0.5-0.6 1-0.9 1.6l-0.2 0.4c-0.2 0.5-0.6 1.2-0.8 1.8v0.2l-0.1 0.4c-0.2 0.6-0.5 1.3-0.7 2l-0.1 0.2c-0.2 0.9-0.4 1.6-0.5 2.2-0.1 0.9-0.2 1.7-0.3 2.4v0.4c0 0.7-0.1 1.5 0 2.2 0 0.7 0.1 1.4 0.2 2.1v0.4c0.1 0.7 0.2 1.4 0.4 2.1l0.1 0.4c0.1 0.5 0.3 1.1 0.4 1.6l0.3 0.9c0.2 0.4 0.3 0.9 0.5 1.3l0.1 0.3 0.2 0.5 0.9 1.8 0.2 0.3c0.5 0.8 0.8 1.4 1.2 2l0.1 0.2c0.5 0.7 1 1.3 1.5 1.9 0.5 0.6 1 1.1 1.5 1.6l0.3 0.3 0.1 0.1 0.2 0.2c50.6 48.2 112.5 84.2 179 104.4l0.7 0.2c2.1 0.6 4.2 1 6.3 1h1c1.9 0 3.7-0.2 5.5-0.6l3.9-1.2 0.5-0.2 0.7-0.3c0.1 0 0.2-0.1 0.3-0.1l0.2-0.1h0.1c3.4-1.7 6.4-4.1 8.7-7.1 1.1-1.4 2.1-3 2.9-4.6l0.4-0.9c18-37.8 56.8-62.2 98.6-62.2 42.2 0 80.9 24.6 98.9 62.8 0.9 1.9 2.1 3.8 3.4 5.4 2.3 2.7 5.2 5 8.5 6.6h0.1l0.3 0.1 0.6 0.3c0.1 0 0.2 0.1 0.3 0.1l0.7 0.2 0.4 0.2c0.1 0 0.2 0.1 0.4 0.1 0.2 0.1 0.4 0.1 0.6 0.2l0.2 0.1 0.6 0.2c0.2 0.1 0.4 0.1 0.5 0.1h0.1l0.4 0.1c1 0.2 2 0.4 3.1 0.5l0.6 0.1h2.3c2.4 0 4.9-0.4 7.4-1.1 67.4-20.2 130-56.9 181.2-106.1l0.1-0.1v-0.1l0.1-0.1c0.5-0.5 1.1-1.1 1.4-1.5l0.3-0.3c0.4-0.5 0.8-1 1.3-1.7v-0.1l0.1-0.2c0.4-0.5 0.8-1.1 1.1-1.8l0.2-0.4c0.3-0.6 0.6-1.2 0.9-1.9l0.2-0.4c0.3-0.7 0.5-1.3 0.7-2l0.1-0.3c0.2-0.6 0.3-1.2 0.5-1.7l0.1-0.3 0.1-0.3c0.1-0.5 0.2-1 0.3-1.6v-0.7c0.1-0.7 0.1-1.3 0.1-1.9v-0.5c0-1.5-0.1-3-0.3-4.4v-0.4c-0.1-0.7-0.3-1.3-0.5-2l-0.1-0.3c-0.2-0.7-0.4-1.4-0.7-2.1l-0.1-0.2-0.1-0.2c-0.2-0.6-0.5-1.2-0.8-1.8l-0.2-0.4c-0.3-0.6-0.6-1.2-1-1.8l-0.1-0.2v-0.1c-0.1-0.1-0.1-0.3-0.2-0.3-11.5-17.7-17.6-38.3-17.6-59.6 0-60.3 49-109.3 109.3-109.3 1.8 0 3.3 0 4.5 0.1h3l2.3-0.3c0.1 0 0.3-0.1 0.4-0.1l0.2-0.1h0.5c0.2 0 0.3-0.1 0.5-0.1l0.3-0.1c0.1 0 0.1 0 0.2-0.1l0.9-0.3c0.1 0 0.3-0.1 0.4-0.1l0.2-0.1c1.9-0.6 3.7-1.5 5.3-2.5l0.4-0.3c0.2-0.1 0.4-0.2 0.5-0.4l0.2-0.1 0.1-0.1 0.3-0.2c0.1-0.1 0.3-0.2 0.4-0.3l0.2-0.1c0.1-0.1 0.2-0.1 0.3-0.2l0.2-0.2 0.2-0.1 0.3-0.3c0.2-0.2 0.5-0.4 0.7-0.6l0.5-0.5 0.4-0.4c0.8-0.8 1.6-1.7 2.3-2.6l0.2-0.2v-0.1c0.2-0.2 0.3-0.5 0.5-0.7l0.1-0.2c0.1-0.2 0.2-0.3 0.3-0.5l0.4-0.6 0.2-0.3 0.1-0.3 0.1-0.2c0-0.1 0.1-0.2 0.1-0.2l0.1-0.3c0.1-0.2 0.4-0.7 0.4-0.7l0.9-3.4h0.4c0.2-0.6 0.3-1.2 0.5-1.8 7.8-33.4 11.8-67.9 11.8-102.5 0.7-34.3-3.3-68.9-11.1-102.3z m-44.9 170.8l-0.6 3.7-3.7 0.4c-38.4 4.5-73.8 22.7-99.8 51.5-26.7 29.4-41.5 67.6-41.5 107.6 0 22.6 4.6 44.4 13.7 64.8l1.5 3.4-2.9 2.4c-36 30.7-76.6 54.7-120.8 70.9l-3.6 1.3-2.2-3.2c-29.8-43.2-79.1-69-131.6-69s-101.7 25.7-131.6 69l-2.2 3.2-3.6-1.3c-43.6-16-83.8-39.6-119.5-69.7l-2.9-2.5 1.6-3.5c9.4-20.7 14.2-43 14.2-65.9 0-40.2-14.9-78.6-42.1-108.2-26.4-28.8-62.3-47-101.1-51l-3.8-0.4-0.6-3.8c-3.9-22.5-5.8-45.4-5.8-68.1 0-22.8 2-45.6 5.8-68.1l0.7-3.8 3.8-0.4c38.8-4.1 74.6-22.1 101-51 27.1-29.5 42.1-68 42.1-108.2 0-23-4.8-45.2-14.2-66l-1.6-3.5 2.9-2.5c35.7-30.2 75.8-53.7 119.5-69.7l3.6-1.3 2.2 3.2c29.9 43.2 79.1 68.9 131.6 68.9S615.1 178.1 645 135l2.2-3.2 3.6 1.3c44.2 16.2 84.8 40.2 120.8 70.9l2.9 2.4-1.5 3.4c-9.1 20.4-13.7 42.3-13.7 64.9 0 39.9 14.7 78 41.5 107.5 26 28.7 61.5 47 99.8 51.5l3.7 0.4 0.6 3.7c3.9 22.5 5.8 45.5 5.8 68.2 0 23.2-2 46.1-5.9 68.6zM532.2 272.1l-18.7-12.8-18.7 12.8c-51.2 35.2-106.2 54.2-163.4 56.7h-33.7v170.9c0 121.3 85.7 225.2 208.4 252.6l8.6 1.4 6.5-1.4c122.6-27.4 208.1-131.2 208.1-252.5V328.9h-33.1c-57.5-2.5-112.7-21.6-164-56.8z m-18.7 432.8c-98.4-23.4-167.1-107.7-167.1-205.1v-124c58.6-4.8 114.7-24.4 167.1-58.3 52.2 33.8 108.4 53.4 166.9 58.3l0.1 123.9c0.1 97.5-68.5 181.7-167 205.2zM617.8 480H540v-77.7c0-14.6-11.9-26.5-26.5-26.5S487 387.6 487 402.3V480h-77.7c-14.6 0-26.5 11.9-26.5 26.5s11.9 26.5 26.5 26.5H487v77.7c0 14.6 11.9 26.5 26.5 26.5s26.5-11.9 26.5-26.5V533h77.7c14.6 0 26.5-11.9 26.5-26.5S632.4 480 617.8 480z" /></svg>