<?xml version="1.0" standalone="no"?><!DOCTYPE svg PUBLIC "-//W3C//DTD SVG 1.1//EN" "http://www.w3.org/Graphics/SVG/1.1/DTD/svg11.dtd"><svg class="icon" width="200px" height="200.00px" viewBox="0 0 1024 1024" version="1.1" xmlns="http://www.w3.org/2000/svg"><path fill="#333333" d="M375.6 364.8c-6.9 0-23 2.2-23 23 0 17.7 11.5 29.2 29.2 29.2h101.1l1 181.4c0 17.7 11.5 29.2 29.2 29.2s29.2-11.5 29.2-29.2l-1-187.6h101.1c6.9 0 23-2.2 23-23 0-6.9-2.2-23-23-23H541.3v-14.7l19.4-32.3h86.8c6.9 0 23-2.2 23-23 0-6.9-2.2-23-23-23h-58l76.4-127.2c5.7-5.7 5.7-11.3 5.7-17.3 0-5.9-6.3-17.5-17.6-23.2-7.2-3.6-19.4-5.1-28.9-1.2-6 2.5-10 6.7-12 12.5l-0.1 0.3-100.9 176.5-100.8-176.3c-12.9-19.3-24.8-16.7-34.9-11.7-10.9 5.4-17.6 16.7-17.6 29.4 0 6 0 11.7 5.7 17.3l0.3 0.3L440.9 278h-62.3c-6.9 0-23 2.2-23 23 0 6.9 2.2 23 23 23h91.5l6.6 26.6v14.2H375.6zM289.8 613.4l221.8 201.4 233.4-201c10.9-9.4 12.1-25.8 2.7-36.7-9.4-10.9-25.8-12.1-36.7-2.7l-198.5 171-187.8-170.5c-10.6-9.7-27.1-8.9-36.7 1.8-9.7 10.6-8.9 27 1.8 36.7zM927.7 334.3H824.5c-17.9 0-32.5 14.5-32.5 32.5 0 17.9 14.5 32.5 32.5 32.5H885c5.7 0 10.2 4.6 10.2 10.2v430.4c0 5.7-4.6 10.2-10.2 10.2H139.2c-5.7 0-10.2-4.6-10.2-10.2V409.4c0-5.7 4.6-10.2 10.2-10.2h51.9c17.9 0 32.5-14.5 32.5-32.5 0-17.9-14.5-32.5-32.5-32.5H96.5c-17.9 0-32.5 14.5-32.5 32.5v515.8c0 17.9 14.5 32.5 32.5 32.5h831.2c17.9 0 32.5-14.5 32.5-32.5V366.7c0-17.9-14.6-32.4-32.5-32.4z" /></svg>