<?xml version="1.0" standalone="no"?><!DOCTYPE svg PUBLIC "-//W3C//DTD SVG 1.1//EN" "http://www.w3.org/Graphics/SVG/1.1/DTD/svg11.dtd"><svg class="icon" width="200px" height="200.00px" viewBox="0 0 1024 1024" version="1.1" xmlns="http://www.w3.org/2000/svg"><path fill="#333333" d="M651.9 186.5v2.8c-0.5-1.1-0.5-2.2 0-2.8-0.6-1.1 0-1.7 0-2.8v2.8zM615.9 114.2H104.4c-18.3 0-33.2 14.9-33.2 33.2v773.5c0 18.3 14.9 33.2 33.2 33.2H787c18.3 0 33.2-14.9 33.2-33.2v-455c0-18.3-14.9-33.2-33.2-33.2-18.3 0-33.2 14.9-33.2 33.2v421.8H137.7V180.6h478.2c18.3 0 33.2-14.9 33.2-33.2 0-18.3-14.9-33.2-33.2-33.2zM464.3 416.1H290.6c-18.3 0-33.2 14.9-33.2 33.2 0 18.3 14.9 33.2 33.2 33.2h173.7c18.3 0 33.2-14.9 33.2-33.2 0.1-18.3-14.8-33.2-33.2-33.2zM600.8 639.5H290.6c-18.3 0-33.2 14.9-33.2 33.2 0 18.3 14.9 33.2 33.2 33.2h310.2c18.3 0 33.2-14.9 33.2-33.2 0.1-18.3-14.8-33.2-33.2-33.2zM923.5 68.6c-8.9 0-17.2 3.5-23.5 9.7l-273 273c-9.6 9.5-12.4 23.8-7.2 36.2C625 400 637 408 650.5 408h0.1c8.7 0 17.3-3.5 23.4-9.7l273-273c6.3-6.3 9.7-14.6 9.7-23.5s-3.5-17.2-9.7-23.5c-6.2-6.1-14.8-9.7-23.5-9.7z" /></svg>