<?xml version="1.0" standalone="no"?><!DOCTYPE svg PUBLIC "-//W3C//DTD SVG 1.1//EN" "http://www.w3.org/Graphics/SVG/1.1/DTD/svg11.dtd"><svg class="icon" width="200px" height="200.00px" viewBox="0 0 1024 1024" version="1.1" xmlns="http://www.w3.org/2000/svg"><path fill="#333333" d="M760.2 726.3H271c-17.6 0-31.9 13.2-31.9 29.5s14.3 29.5 31.9 29.5h489.2c17.6 0 31.9-13.2 31.9-29.5s-14.3-29.5-31.9-29.5zM760.2 608.2H611.3c-17.6 0-31.9 13.2-31.9 29.5s14.3 29.5 31.9 29.5h148.9c17.6 0 31.9-13.2 31.9-29.5s-14.3-29.5-31.9-29.5zM956.7 446V217.2c-4.1-82.8-71.9-147.6-154.6-147.6H227.6c-82.7 0-150.5 64.8-154.6 147.6V446c34 2.4 60.9 30.9 60.9 65.5S107 574.5 73 577v218.7c0 86.9 70.7 157.6 157.6 157.6H799c86.9 0 157.6-70.7 157.6-157.6V576.9c-34-2.4-60.9-30.9-60.9-65.5 0.1-34.6 27-63 61-65.4z m-51.4-37.4l-2.4 1.4c-36.7 21.4-58.5 59.3-58.5 101.4 0 42.1 21.9 80.1 58.5 101.5l2.4 1.4v181.4c0 58.6-47.7 106.3-106.3 106.3H230.7c-58.6 0-106.3-47.7-106.3-106.3V614.3l2.4-1.4c36.7-21.4 58.5-59.3 58.5-101.5 0-42.1-21.9-80.1-58.5-101.4l-2.4-1.4-1.5-181.9 0.1-4.8 0.4-5.1c2.1-26.3 13.8-50.7 33-68.7C175.7 130 201 120 227.7 120h5.2v-0.3h567.5v0.3h1.8c54.7 0 100 42.5 103.2 96.8v191.8zM295.4 444.4c-14.9 0-27.3 14.5-27.3 29.4 0.1 15.1 12.2 29.1 27.3 29.4h91.5v73.9c0.1 15.1 13.1 27.4 28.2 27.6 14.9 0 31.9-12.6 31.9-27.5v-74h91.5c14.9 0 27.3-14.4 27.3-29.4 0-15-12.5-29.5-27.3-29.5H447v-57.1l91.6 0.2c14.9 0 27.2-14.4 27.2-29.4s-12.5-29.5-27.2-29.5h-32.8l27.7-55.7c6.2-14.2 0-30.8-14-37.1-6.7-3-17-3.3-23.7-0.6-6.8 2.7-12.2 8.9-15 15.7l-39.3 77.7h-38L365.1 251c-2.8-6.8-8.2-13-14.9-15.7-6.8-2.7-16.1-3.4-22.8-0.3-6.7 2.9-13.8 10.2-16.5 17-2.7 6.8-2.5 14.4 0.6 21.1l27.6 55.7h-43.7c-14.9 0-27.3 14.5-27.3 29.4 0.1 15.1 12.2 29.1 27.3 29.4h91.5v57.1h-91.5z" /></svg>