<?xml version="1.0" standalone="no"?><!DOCTYPE svg PUBLIC "-//W3C//DTD SVG 1.1//EN" "http://www.w3.org/Graphics/SVG/1.1/DTD/svg11.dtd"><svg class="icon" width="200px" height="200.00px" viewBox="0 0 1024 1024" version="1.1" xmlns="http://www.w3.org/2000/svg"><path fill="#333333" d="M850.8 66.9H634.2c-14.9 0-27 12.1-27 27s12.1 27 27 27h216.6c7.4 0 13.5 6.1 13.5 13.5v757.5c0 7.4-6.1 13.5-13.5 13.5H174.3c-7.4 0-13.5-6.1-13.5-13.5V134.4c0-7.4 6.1-13.5 13.5-13.5h216.6c14.9 0 27-12.1 27-27s-12.1-27-27-27H174.3c-37.2 0-67.5 30.3-67.5 67.5v757.5c0 37.2 30.3 67.5 67.5 67.5h676.5c37.2 0 67.5-30.3 67.5-67.5V134.4c0-37.2-30.3-67.5-67.5-67.5zM290.1 559.6l-0.1 0.2c-4.7 9.4-4.7 20.6 0 30 4.7 9.4 13.6 15.9 24 17.4l3.4 0.2 141.3 0.5-31.8 221.3c-2.3 15.2 6.5 30.2 21 35.6 3.5 1.3 7.1 1.9 10.7 1.9 11.1 0 21.6-5.9 27.4-16l247-363.6c6.7-10.3 7.4-22.8 2.1-33.5-5.2-10.5-15.6-17.3-27.3-17.7H585.7l32.8-219c2.1-14.9-6.2-29.3-20.1-35.1-13.6-5.4-28.9-0.8-37.3 11.1l-268.7 363-2.3 3.7z m263.7-267.8l-24.1 160.7c-1.3 9.6 1.6 19.3 8 26.6 6 6.8 14.7 10.7 23.8 10.7H666.9L491.8 747.7l22.5-156.3c1.5-9.4-1.5-19.4-7.9-26.6-5.9-6.7-14.6-10.6-23.6-10.6-0.7 0-1.3 0-2 0.1h-0.5l-120.2-0.5 193.7-262z" /></svg>