<?xml version="1.0" standalone="no"?><!DOCTYPE svg PUBLIC "-//W3C//DTD SVG 1.1//EN" "http://www.w3.org/Graphics/SVG/1.1/DTD/svg11.dtd"><svg class="icon" width="200px" height="200.00px" viewBox="0 0 1024 1024" version="1.1" xmlns="http://www.w3.org/2000/svg"><path fill="#333333" d="M779.5 63.9H251.3c-55.9 0-101.3 45.5-101.3 101.3v715.4c0 38.4 27.4 71.2 65.2 78.1 3.1 0.5 6.1 0.8 9.2 0.8 8.8 0 17.6-2.3 25.3-6.8l105.7-60c7.6-4.3 16.7-4.5 24.5-0.5l114.5 59.1c14.9 7.7 32.7 7.6 47.5-0.3l109.5-58.4c7.9-4.1 17.2-4 24.9 0.4L781 952.8c10.5 6 22.8 8.1 34.6 5.9 37.8-6.9 65.2-39.7 65.2-78.1V165.2c0-55.9-45.5-101.3-101.3-101.3z m42.8 816.8c0 9-6.1 17.2-14.7 19.9l-102.2-58.3c-25.3-14.5-55.7-14.9-81.4-1.2l-106.1 56.6-111.1-57.4c-25.4-13.1-55.4-12.5-80.3 1.6l-103.1 58.6c-8.6-2.7-14.8-10.9-14.8-20V165.1c0-23.5 19.1-42.7 42.7-42.7v0.1h528.3c23.5 0 42.7 19.1 42.7 42.7v715.5zM381.3 484.5c-13.3 0-24 10.8-24 24 0 13.3 10.8 24 24 24h108.6v99.9c0 13.3 10.8 24 24 24s24-10.8 24-23.9v-99.9h108.7c13.3 0 24-10.8 24-24 0-13.3-10.8-24-24-24H537.9v-43.4h108.6c13.3 0 24-10.8 24-24 0-13.3-10.8-24-24-24h-93.7l88.5-88.5c4.5-4.5 7-10.5 7-16.9 0-6.4-2.5-12.4-7-16.9-4.5-4.5-10.5-7-16.9-7-6.4 0-12.4 2.5-16.9 7L514 364.3l-93.5-93.5c-4.5-4.5-10.5-7-16.9-7-6.4 0-12.5 2.5-17 7-9.3 9.4-9.3 24.6 0 33.9L475 393h-93.7c-13.3 0-24 10.8-24 24 0 13.3 10.8 24 24 24H490v43.4H381.3zM648 704H378c-14.4 0-26 11.6-26 26s11.6 26 26 26h270c14.4 0 26-11.6 26-26s-11.6-26-26-26z" /></svg>