<?xml version="1.0" standalone="no"?><!DOCTYPE svg PUBLIC "-//W3C//DTD SVG 1.1//EN" "http://www.w3.org/Graphics/SVG/1.1/DTD/svg11.dtd"><svg class="icon" width="200px" height="200.00px" viewBox="0 0 1024 1024" version="1.1" xmlns="http://www.w3.org/2000/svg"><path fill="#333333" d="M736 384h-133.76a96 96 0 0 0 5.76-32 145.28 145.28 0 0 0-64-119.68A38.08 38.08 0 0 0 544 224V160a32 32 0 0 0-64 0v64a38.08 38.08 0 0 0 1.6 8.32A145.28 145.28 0 0 0 416 352a96 96 0 0 0 5.76 32H288a64 64 0 0 0-64 64v64a64 64 0 0 0 64 64h448a64 64 0 0 0 64-64v-64a64 64 0 0 0-64-64z m-256-32c0-26.24 21.76-64 32-64s32 37.76 32 64a32 32 0 0 1-64 0z m-192 160v-64h448v64zM736 704H288a64 64 0 0 0-64 64v64a64 64 0 0 0 64 64h448a64 64 0 0 0 64-64v-64a64 64 0 0 0-64-64zM288 832v-64h448v64zM768 592.64a157.44 157.44 0 0 0-77.76 18.56 98.24 98.24 0 0 1-50.24 12.16 96 96 0 0 1-50.24-12.16 160 160 0 0 0-77.76-18.56 160 160 0 0 0-77.76 18.56 96 96 0 0 1-49.92 12.16 96 96 0 0 1-50.24-12.16A157.44 157.44 0 0 0 256 592.64a32 32 0 0 0 0 64 96 96 0 0 1 49.92 12.16 160 160 0 0 0 78.08 18.56 160 160 0 0 0 77.76-18.56 96 96 0 0 1 50.24-12.16 96 96 0 0 1 50.24 12.16 172.8 172.8 0 0 0 155.84 0 96 96 0 0 1 49.92-12.16 32 32 0 0 0 0-64z" /></svg>