<?xml version="1.0" standalone="no"?><!DOCTYPE svg PUBLIC "-//W3C//DTD SVG 1.1//EN" "http://www.w3.org/Graphics/SVG/1.1/DTD/svg11.dtd"><svg class="icon" width="200px" height="200.00px" viewBox="0 0 1024 1024" version="1.1" xmlns="http://www.w3.org/2000/svg"><path fill="#333333" d="M822.72 553.28L704 434.88V305.28A140.16 140.16 0 0 0 570.24 160h-180.48A140.16 140.16 0 0 0 256 305.28v122.88l-46.4 23.36A32 32 0 0 0 192 480v128a32 32 0 0 0 32 32h128a32 32 0 0 0 32-32v-128a32 32 0 0 0-17.6-28.48L320 428.16V305.28A76.48 76.48 0 0 1 389.76 224h180.48A76.48 76.48 0 0 1 640 305.28v129.6l-118.72 118.4A32 32 0 0 0 512 576v256a32 32 0 0 0 32 32h256a32 32 0 0 0 32-32v-256a32 32 0 0 0-9.28-22.72zM320 576H256v-76.16l32-16 32 16z m448 224h-192v-210.88l96-96 96 96z"  /><path fill="#333333" d="M608 640a32 32 0 0 0 32 32h64a32 32 0 0 0 0-64h-64a32 32 0 0 0-32 32zM704 704h-64a32 32 0 0 0 0 64h64a32 32 0 0 0 0-64z"  /></svg>