<?xml version="1.0" standalone="no"?><!DOCTYPE svg PUBLIC "-//W3C//DTD SVG 1.1//EN" "http://www.w3.org/Graphics/SVG/1.1/DTD/svg11.dtd"><svg class="icon" width="200px" height="200.00px" viewBox="0 0 1024 1024" version="1.1" xmlns="http://www.w3.org/2000/svg"><path fill="#333333" d="M840 810.88l-116.16-116.48a126.08 126.08 0 0 0-118.72-192v-9.6a128 128 0 0 0-37.44-90.56 130.88 130.88 0 0 0-128-32 128 128 0 0 0-32-128A131.2 131.2 0 0 0 256 225.92l-26.24-25.92a32 32 0 0 0-45.76 45.12l25.6 25.92a128 128 0 0 0 110.08 192 139.84 139.84 0 0 0 36.16-5.76 123.84 123.84 0 0 0-5.76 36.16 128 128 0 0 0 128 128 79.36 79.36 0 0 0 8.64 0 128 128 0 0 0 192 118.72l116.48 116.16a32 32 0 0 0 45.12 0 32 32 0 0 0-0.32-45.44zM274.56 380.8a64 64 0 0 1 0-90.24 64 64 0 0 1 90.24 0 64 64 0 0 1-90.24 90.24z m158.08 160a64 64 0 0 1 45.44-109.12 64 64 0 0 1 45.12 109.12 64 64 0 0 1-90.56-1.6z m136 136a64 64 0 0 1 0-90.56 64 64 0 0 1 90.56 0 64 64 0 1 1-90.56 90.56z" /></svg>