<?xml version="1.0" standalone="no"?><!DOCTYPE svg PUBLIC "-//W3C//DTD SVG 1.1//EN" "http://www.w3.org/Graphics/SVG/1.1/DTD/svg11.dtd"><svg class="icon" width="200px" height="200.00px" viewBox="0 0 1024 1024" version="1.1" xmlns="http://www.w3.org/2000/svg"><path fill="#333333" d="M828.8 253.76a85.12 85.12 0 0 0-91.2-13.12 213.44 213.44 0 0 0-68.16 38.72 207.04 207.04 0 0 0-262.08 33.92c-57.92 57.6-256 347.84-167.04 438.4a89.92 89.92 0 0 0 65.92 23.04c121.6 0 325.12-142.72 372.48-190.08a207.36 207.36 0 0 0 35.84-259.2 164.8 164.8 0 0 1 43.2-24.32c17.28-5.76 24.96-2.88 25.92-2.24a32 32 0 1 0 45.12-45.12z m-181.12 90.56a121.6 121.6 0 0 1 32 112 288 288 0 0 0-35.84-25.92 212.48 212.48 0 0 1-44.8-35.84 212.48 212.48 0 0 1-35.84-44.8 265.28 265.28 0 0 0-26.24-36.16 136.96 136.96 0 0 1 27.84-2.88 116.8 116.8 0 0 1 82.88 33.6zM285.76 706.24C251.2 672 368.32 442.56 452.48 358.4a151.36 151.36 0 0 1 21.12-17.28A207.68 207.68 0 0 1 507.52 384a299.2 299.2 0 0 0 44.48 56A299.2 299.2 0 0 0 608 484.48a216.64 216.64 0 0 1 43.2 33.92 153.92 153.92 0 0 1-17.6 21.12c-84.16 84.16-313.6 201.28-347.84 166.72z" /></svg>