<?xml version="1.0" standalone="no"?><!DOCTYPE svg PUBLIC "-//W3C//DTD SVG 1.1//EN" "http://www.w3.org/Graphics/SVG/1.1/DTD/svg11.dtd"><svg class="icon" width="200px" height="200.00px" viewBox="0 0 1024 1024" version="1.1" xmlns="http://www.w3.org/2000/svg"><path fill="#333333" d="M288 800a192 192 0 1 0-192-192 192 192 0 0 0 192 192z m0-320a128 128 0 1 1-128 128 128 128 0 0 1 128-128z"  /><path fill="#333333" d="M288 704a96 96 0 1 0-96-96 96 96 0 0 0 96 96z m0-128a32 32 0 1 1-32 32 32 32 0 0 1 32-32zM544 608a192 192 0 1 0 192-192 192 192 0 0 0-192 192z m192-128a128 128 0 1 1-128 128 128 128 0 0 1 128-128z"  /><path fill="#333333" d="M736 704a96 96 0 1 0-96-96 96 96 0 0 0 96 96z m0-128a32 32 0 1 1-32 32 32 32 0 0 1 32-32zM512 480a192 192 0 1 0-192-192 192 192 0 0 0 192 192z m0-320a128 128 0 1 1-128 128 128 128 0 0 1 128-128z"  /><path fill="#333333" d="M512 384a96 96 0 1 0-96-96 96 96 0 0 0 96 96z m0-128a32 32 0 1 1-32 32 32 32 0 0 1 32-32zM864 832H160a32 32 0 0 0 0 64h32v32a32 32 0 0 0 64 0v-32h512v32a32 32 0 0 0 64 0v-32h32a32 32 0 0 0 0-64z"  /></svg>