<?xml version="1.0" standalone="no"?><!DOCTYPE svg PUBLIC "-//W3C//DTD SVG 1.1//EN" "http://www.w3.org/Graphics/SVG/1.1/DTD/svg11.dtd"><svg class="icon" width="200px" height="200.00px" viewBox="0 0 1024 1024" version="1.1" xmlns="http://www.w3.org/2000/svg"><path fill="#333333" d="M823.36 137.92A32 32 0 0 0 800 128H224a32 32 0 0 0-23.36 9.92 33.92 33.92 0 0 0-8.64 23.68l36.16 704a32 32 0 0 0 32 30.4h504a32 32 0 0 0 32-30.4l35.84-704a33.92 33.92 0 0 0-8.64-23.68zM768 192l-5.12 96H262.72l-5.12-96zM290.56 832l-24.64-480h492.16l-24.64 480z"  /><path fill="#333333" d="M422.72 405.44a32 32 0 0 0-45.44 0l-67.84 67.84a32 32 0 0 0 0 45.44l67.84 67.84a32 32 0 0 0 45.44 0l67.84-67.84a32 32 0 0 0 0-45.44z m-22.72 113.28l-22.72-22.72 22.72-22.72 22.72 22.72zM672 608h-96a32 32 0 0 0-32 32v96a32 32 0 0 0 32 32h96a32 32 0 0 0 32-32v-96a32 32 0 0 0-32-32z m-32 96h-32v-32h32z"  /></svg>