<?xml version="1.0" standalone="no"?><!DOCTYPE svg PUBLIC "-//W3C//DTD SVG 1.1//EN" "http://www.w3.org/Graphics/SVG/1.1/DTD/svg11.dtd"><svg class="icon" width="200px" height="200.00px" viewBox="0 0 1024 1024" version="1.1" xmlns="http://www.w3.org/2000/svg"><path fill="#333333" d="M512 160a352 352 0 1 0 352 352A352 352 0 0 0 512 160z m0 640a288 288 0 1 1 288-288 288 288 0 0 1-288 288z"  /><path fill="#333333" d="M512 288a32 32 0 0 0-32 32v64a32 32 0 0 0 64 0v-64a32 32 0 0 0-32-32zM704 480h-64a32 32 0 0 0 0 64h64a32 32 0 0 0 0-64zM640 594.88A32 32 0 0 0 594.88 640L640 685.12a32 32 0 0 0 22.72 9.6 32 32 0 0 0 22.4-9.6 32 32 0 0 0 0-45.12zM384 594.88L338.88 640a32 32 0 0 0 0 45.12 32 32 0 0 0 22.4 9.6 32 32 0 0 0 22.72-9.6L429.12 640A32 32 0 0 0 384 594.88zM617.28 438.72a32 32 0 0 0 22.72-9.6L685.12 384A32 32 0 0 0 640 338.88L594.88 384a32 32 0 0 0 0 45.12 32 32 0 0 0 22.4 9.6zM512 608a32 32 0 0 0-32 32v64a32 32 0 0 0 64 0v-64a32 32 0 0 0-32-32zM416 512a32 32 0 0 0-32-32h-64a32 32 0 0 0 0 64h64a32 32 0 0 0 32-32zM384 338.88A32 32 0 0 0 338.88 384L384 429.12a32 32 0 0 0 22.72 9.6 32 32 0 0 0 22.4-9.6 32 32 0 0 0 0-45.12z"  /></svg>