<?xml version="1.0" standalone="no"?><!DOCTYPE svg PUBLIC "-//W3C//DTD SVG 1.1//EN" "http://www.w3.org/Graphics/SVG/1.1/DTD/svg11.dtd"><svg class="icon" width="200px" height="200.00px" viewBox="0 0 1024 1024" version="1.1" xmlns="http://www.w3.org/2000/svg"><path fill="#333333" d="M512 128C300.16 128 128 352 128 630.4 128 761.28 296.64 864 512 864s384-102.72 384-233.6C896 352 723.84 128 512 128z m128 657.28V544a32 32 0 0 0-32-32h-192a32 32 0 0 0-32 32v241.28c-111.68-26.88-192-87.04-192-154.88C192 388.8 335.68 192 512 192s320 196.8 320 438.4c0 67.84-80.32 128-192 154.88z" /></svg>