<?xml version="1.0" standalone="no"?><!DOCTYPE svg PUBLIC "-//W3C//DTD SVG 1.1//EN" "http://www.w3.org/Graphics/SVG/1.1/DTD/svg11.dtd"><svg class="icon" width="200px" height="200.00px" viewBox="0 0 1024 1024" version="1.1" xmlns="http://www.w3.org/2000/svg"><path fill="#333333" d="M777.6 376.64a96 96 0 0 0-130.24-130.24 202.56 202.56 0 0 0-256 24l-120.96 120.96a202.56 202.56 0 0 0-24 256 96 96 0 0 0 130.24 130.24 201.92 201.92 0 0 0 256-24l120.96-120.96a202.56 202.56 0 0 0 24-256z m-69.44 210.56l-120.96 120.96a138.24 138.24 0 0 1-189.12 5.44 32 32 0 0 0-43.84 0l-1.6 1.6A32 32 0 0 1 307.52 672l1.6-1.6a32 32 0 0 0 0-43.84 138.24 138.24 0 0 1 5.44-189.12l120.96-120.96a138.24 138.24 0 0 1 189.12-5.44 32 32 0 0 0 43.84 0l3.52-3.52A32 32 0 0 1 716.48 352l-1.6 1.6a32 32 0 0 0 0 43.84 138.24 138.24 0 0 1-6.72 189.76z"  /><path fill="#333333" d="M534.72 625.28l-22.72 22.4a32 32 0 0 0 0 45.44 32 32 0 0 0 22.72 9.28 32 32 0 0 0 22.72-9.28l22.4-22.72a32 32 0 0 0 0-45.44 32 32 0 0 0-45.12 0.32zM534.72 579.84l22.4-22.72A32 32 0 0 0 512 512l-22.72 22.72a32 32 0 0 0 0 45.12 32 32 0 0 0 45.44 0zM421.44 602.56l-22.72 22.72a32 32 0 0 0 0 45.12 32 32 0 0 0 22.72 9.28 32 32 0 0 0 22.72-9.28l22.72-22.72a32 32 0 0 0 0-45.12 32 32 0 0 0-45.44 0z"  /></svg>