<?xml version="1.0" standalone="no"?><!DOCTYPE svg PUBLIC "-//W3C//DTD SVG 1.1//EN" "http://www.w3.org/Graphics/SVG/1.1/DTD/svg11.dtd"><svg class="icon" width="200px" height="200.00px" viewBox="0 0 1024 1024" version="1.1" xmlns="http://www.w3.org/2000/svg"><path fill="#333333" d="M640 160h-256a32 32 0 0 0-32 32v320a160 160 0 0 0 128 156.8V800h-32a32 32 0 0 0 0 64h128a32 32 0 0 0 0-64h-32v-131.2a160 160 0 0 0 128-156.8V192a32 32 0 0 0-32-32z m-32 64v155.84c-15.04 0-26.56 2.88-37.12 4.48a303.36 303.36 0 0 1-58.88 4.8 303.36 303.36 0 0 1-58.88-5.12c-10.56 0-22.08-3.2-37.12-4.48V224z m-96 384a96 96 0 0 1-96-96v-67.84c10.24 0 18.56 2.24 26.88 3.52a393.92 393.92 0 0 0 69.12 5.44 393.92 393.92 0 0 0 69.12-5.12c8.32 0 16.64-2.56 26.88-3.52V512a96 96 0 0 1-96 96z" /></svg>