<?xml version="1.0" standalone="no"?><!DOCTYPE svg PUBLIC "-//W3C//DTD SVG 1.1//EN" "http://www.w3.org/Graphics/SVG/1.1/DTD/svg11.dtd"><svg class="icon" width="200px" height="200.00px" viewBox="0 0 1024 1024" version="1.1" xmlns="http://www.w3.org/2000/svg"><path fill="#333333" d="M545.92 322.24C553.6 264.32 582.08 224 608 224a32 32 0 0 0 0-64 111.04 111.04 0 0 0-90.24 54.72 151.68 151.68 0 0 0-22.4-32A272 272 0 0 0 416 135.04c-46.72-19.2-81.28-17.92-102.4 3.2-46.72 46.72 18.88 154.56 45.12 180.8a143.68 143.68 0 0 0 36.8 25.28 288 288 0 1 0 149.76-22.08z m-96-93.44a86.08 86.08 0 0 1 22.72 67.84 84.8 84.8 0 0 1-67.84-22.72 198.08 198.08 0 0 1-43.52-88.64 198.08 198.08 0 0 1 88.64 43.52zM512 832a224 224 0 1 1 224-224 224 224 0 0 1-224 224z"  /><path fill="#333333" d="M512 704a32 32 0 0 0-32 32v32a32 32 0 0 0 64 0v-32a32 32 0 0 0-32-32zM416 640a32 32 0 0 0-32 32v32a32 32 0 0 0 64 0v-32a32 32 0 0 0-32-32zM608 640a32 32 0 0 0-32 32v32a32 32 0 0 0 64 0v-32a32 32 0 0 0-32-32z"  /></svg>