<?xml version="1.0" standalone="no"?><!DOCTYPE svg PUBLIC "-//W3C//DTD SVG 1.1//EN" "http://www.w3.org/Graphics/SVG/1.1/DTD/svg11.dtd"><svg class="icon" width="200px" height="200.00px" viewBox="0 0 1024 1024" version="1.1" xmlns="http://www.w3.org/2000/svg"><path fill="#333333" d="M512 448c-217.6 0-416 137.28-416 288a111.68 111.68 0 0 0 32 83.52c40.64 39.68 111.68 47.04 202.56 47.04h280c129.92 3.2 232.64 5.12 284.8-45.76A111.68 111.68 0 0 0 928 736c0-150.72-198.4-288-416-288z m338.88 325.76c-32 32-132.8 30.08-238.72 27.52h-200.32c-105.92 2.56-206.08 4.8-238.72-27.52A47.36 47.36 0 0 1 160 736c0-66.24 64-139.2 160-183.36V576a32 32 0 0 0 64 0v-46.4a477.12 477.12 0 0 1 96-17.6v96a32 32 0 0 0 64 0v-96a477.12 477.12 0 0 1 96 16.32V576a32 32 0 0 0 64 0v-23.36c96 44.16 160 117.12 160 183.36a47.36 47.36 0 0 1-13.12 37.76zM476.16 384a32 32 0 1 0 64 0 94.08 94.08 0 0 1 2.88-24.64 141.12 141.12 0 0 0 4.8-39.36A145.6 145.6 0 0 0 544 280.32a89.6 89.6 0 0 1-3.84-24.32 94.08 94.08 0 0 1 3.84-24.64A141.12 141.12 0 0 0 547.84 192a32 32 0 0 0-64 0 94.08 94.08 0 0 1-2.88 24.64A141.12 141.12 0 0 0 476.16 256 141.12 141.12 0 0 0 480 295.36a106.88 106.88 0 0 1 0 49.28 141.12 141.12 0 0 0-3.84 39.36zM605.44 352a32 32 0 0 0 64 0 50.56 50.56 0 0 1 0-13.76 104 104 0 0 0 3.52-28.8 102.08 102.08 0 0 0-3.52-28.8 53.12 53.12 0 0 1 0-14.08 52.16 52.16 0 0 1 0-13.76 104 104 0 0 0 3.52-28.8 32 32 0 0 0-64 0 52.16 52.16 0 0 1 0 13.76 104 104 0 0 0-3.52 28.8 104 104 0 0 0 3.52 28.8 53.12 53.12 0 0 1 0 14.08 52.16 52.16 0 0 1 0 13.76 104 104 0 0 0-3.52 28.8zM349.44 352a32 32 0 0 0 64 0 50.56 50.56 0 0 1 1.6-13.76 104 104 0 0 0 3.52-28.8 102.08 102.08 0 0 0-3.52-28.8 53.12 53.12 0 0 1-1.6-14.08A52.16 52.16 0 0 1 416 252.8a104 104 0 0 0 3.52-28.8 32 32 0 1 0-64 0 52.16 52.16 0 0 1-1.6 13.76 104 104 0 0 0-3.52 28.8 104 104 0 0 0 3.52 28.8 53.12 53.12 0 0 1 1.6 14.08 52.16 52.16 0 0 1-1.6 13.76 104 104 0 0 0-4.48 28.8z" /></svg>