<?xml version="1.0" standalone="no"?><!DOCTYPE svg PUBLIC "-//W3C//DTD SVG 1.1//EN" "http://www.w3.org/Graphics/SVG/1.1/DTD/svg11.dtd"><svg class="icon" width="200px" height="200.00px" viewBox="0 0 1024 1024" version="1.1" xmlns="http://www.w3.org/2000/svg"><path fill="#333333" d="M699.84 422.08A175.68 175.68 0 0 0 704 384a192 192 0 0 0-162.56-189.44C531.52 137.6 494.08 96 448 96a32 32 0 0 0 0 64c9.6 0 22.08 13.44 28.16 35.52A192 192 0 0 0 320 384a175.68 175.68 0 0 0 4.16 38.08 288 288 0 1 0 375.68 0zM512 864a224 224 0 0 1-132.48-404.48 32 32 0 0 0 11.52-35.84A123.84 123.84 0 0 1 384 384a128 128 0 0 1 256 0 123.84 123.84 0 0 1-7.04 39.68 32 32 0 0 0 11.52 35.84A224 224 0 0 1 512 864z" /></svg>