<?xml version="1.0" standalone="no"?><!DOCTYPE svg PUBLIC "-//W3C//DTD SVG 1.1//EN" "http://www.w3.org/Graphics/SVG/1.1/DTD/svg11.dtd"><svg class="icon" width="200px" height="200.00px" viewBox="0 0 1024 1024" version="1.1" xmlns="http://www.w3.org/2000/svg"><path fill="#333333" d="M557.12 421.44a32 32 0 0 0-45.12 0 32 32 0 0 0 0 45.44L557.12 512a32 32 0 0 0 22.72 9.28 32 32 0 0 0 22.72-9.28 32 32 0 0 0 0-45.12zM466.88 512a32 32 0 0 0-45.44 0 32 32 0 0 0 0 45.12l45.44 45.44a32 32 0 0 0 22.4 9.28 32 32 0 0 0 22.72-9.28 32 32 0 0 0 0-45.44z"  /><path fill="#333333" d="M806.08 353.6L672 217.92a32 32 0 0 0-32-7.68 32 32 0 0 0-21.76 25.6l-15.04 105.92A192 192 0 0 0 512 320a192 192 0 0 0-192 192 192 192 0 0 0 21.76 88.96l-105.92 15.04a32 32 0 0 0-25.6 21.76 32 32 0 0 0 7.68 32l135.68 135.68a32 32 0 0 0 22.72 9.6 27.2 27.2 0 0 0 9.92-1.92 32 32 0 0 0 21.76-25.6l15.04-105.92A192 192 0 0 0 512 704a192 192 0 0 0 192-192 192 192 0 0 0-21.76-88.96l105.92-15.04a32 32 0 0 0 25.6-21.76 32 32 0 0 0-7.68-32.64zM353.6 715.52L308.48 672l52.8-7.68z m248.96-112.96a128 128 0 1 1 0-181.12 128 128 0 0 1 0 181.12z m60.16-241.28L672 308.48l45.12 45.12z"  /></svg>