<?xml version="1.0" standalone="no"?><!DOCTYPE svg PUBLIC "-//W3C//DTD SVG 1.1//EN" "http://www.w3.org/Graphics/SVG/1.1/DTD/svg11.dtd"><svg class="icon" width="200px" height="200.00px" viewBox="0 0 1024 1024" version="1.1" xmlns="http://www.w3.org/2000/svg"><path fill="#333333" d="M832 704h-80.32l-152.64-152.64c17.6-38.72 14.72-94.08-9.92-163.2a497.92 497.92 0 0 0-99.84-170.24 192 192 0 0 0-271.36 271.36c49.6 49.92 178.56 120.96 275.84 120.96a136.32 136.32 0 0 0 60.48-12.8L704 746.88V832a32 32 0 0 0 64 0v-64h64a32 32 0 0 0 0-64zM263.04 444.16a128 128 0 0 1 181.12-181.12 444.48 444.48 0 0 1 84.48 146.56c19.84 55.68 23.04 100.48 8.96 120.64l-2.88 2.24a19.2 19.2 0 0 0-2.88 4.16c-44.8 35.84-209.92-33.92-268.8-92.48z" /></svg>