<?xml version="1.0" standalone="no"?><!DOCTYPE svg PUBLIC "-//W3C//DTD SVG 1.1//EN" "http://www.w3.org/Graphics/SVG/1.1/DTD/svg11.dtd"><svg class="icon" width="200px" height="200.00px" viewBox="0 0 1024 1024" version="1.1" xmlns="http://www.w3.org/2000/svg"><path fill="#333333" d="M787.2 289.6L736 236.8a154.24 154.24 0 0 0-218.56 0L236.8 515.84a154.24 154.24 0 0 0 0 220.16l52.8 51.2a154.24 154.24 0 0 0 218.56 0l279.04-279.04a154.24 154.24 0 0 0 0-218.56z m-45.12 173.44l-279.04 279.04a93.12 93.12 0 0 1-128 0l-53.12-52.8a90.88 90.88 0 0 1 0-128l279.04-279.04a90.88 90.88 0 0 1 128 0l52.8 52.8a90.88 90.88 0 0 1 0 128z"  /><path fill="#333333" d="M640 288a32 32 0 0 0-32 32v128a32 32 0 0 0 64 0v-128a32 32 0 0 0-32-32zM512 416a32 32 0 0 0-32 32v128a32 32 0 0 0 64 0v-128a32 32 0 0 0-32-32zM384 544a32 32 0 0 0-32 32v128a32 32 0 0 0 64 0v-128a32 32 0 0 0-32-32z"  /></svg>