<?xml version="1.0" standalone="no"?><!DOCTYPE svg PUBLIC "-//W3C//DTD SVG 1.1//EN" "http://www.w3.org/Graphics/SVG/1.1/DTD/svg11.dtd"><svg class="icon" width="200px" height="200.00px" viewBox="0 0 1024 1024" version="1.1" xmlns="http://www.w3.org/2000/svg"><path fill="#333333" d="M577.92 267.2l20.8-20.48a32 32 0 1 0-45.44-45.44l-9.28 9.6V160a32 32 0 0 0-64 0v50.88l-9.28-9.6a32 32 0 0 0-45.44 45.44l20.8 20.48C336.64 303.68 256 428.16 256 576c0 176.32 114.88 320 256 320s256-143.68 256-320c0-147.84-80.64-272.32-190.08-308.8z m104 377.28a96 96 0 0 0-54.72-16 96 96 0 0 0-55.04 16 37.76 37.76 0 0 1-43.84 0 96 96 0 0 0-54.72-16 96 96 0 0 0-55.04 16 32 32 0 0 1-21.76 7.04 33.92 33.92 0 0 1-22.08-7.04 96 96 0 0 0-50.56-15.68A352 352 0 0 1 320 576a330.56 330.56 0 0 1 8.32-74.56 40.96 40.96 0 0 1 13.44 6.08 96 96 0 0 0 55.04 16 96 96 0 0 0 54.72-16 37.76 37.76 0 0 1 43.84 0 102.08 102.08 0 0 0 109.76 0 32 32 0 0 1 22.08-7.04 33.92 33.92 0 0 1 22.08 7.04 96 96 0 0 0 50.56 15.68A352 352 0 0 1 704 576a330.56 330.56 0 0 1-8.32 74.56 42.24 42.24 0 0 1-13.76-6.08zM512 320c72 0 134.4 53.12 167.36 131.2a92.8 92.8 0 0 0-52.16-14.72 96 96 0 0 0-55.04 16 37.76 37.76 0 0 1-43.84 0 96 96 0 0 0-54.72-16 96 96 0 0 0-55.04 16 32 32 0 0 1-21.76 7.04 33.92 33.92 0 0 1-22.08-7.04 107.84 107.84 0 0 0-25.6-11.52C384 368.32 443.52 320 512 320z m0 512c-71.68 0-134.4-52.8-167.36-130.88a96 96 0 0 0 52.16 14.4 96 96 0 0 0 54.72-16 37.76 37.76 0 0 1 43.84 0 102.08 102.08 0 0 0 109.76 0 32 32 0 0 1 22.08-7.04 33.92 33.92 0 0 1 22.08 7.04 121.28 121.28 0 0 0 25.6 11.84C640 783.68 580.48 832 512 832z" /></svg>