<?xml version="1.0" standalone="no"?><!DOCTYPE svg PUBLIC "-//W3C//DTD SVG 1.1//EN" "http://www.w3.org/Graphics/SVG/1.1/DTD/svg11.dtd"><svg class="icon" width="200px" height="200.00px" viewBox="0 0 1024 1024" version="1.1" xmlns="http://www.w3.org/2000/svg"><path fill="#333333" d="M768 192H256a64 64 0 0 0-64 64v512a64 64 0 0 0 64 64h512a64 64 0 0 0 64-64V256a64 64 0 0 0-64-64zM448 576v-128h128v128z m128 64v128h-128v-128zM256 448h128v128H256z m192-64V256h128v128z m192 64h128v128h-128z m128-64h-128V256h128zM384 256v128H256V256zM256 640h128v128H256z m384 128v-128h128v128z" /></svg>