<?xml version="1.0" standalone="no"?><!DOCTYPE svg PUBLIC "-//W3C//DTD SVG 1.1//EN" "http://www.w3.org/Graphics/SVG/1.1/DTD/svg11.dtd"><svg class="icon" width="200px" height="200.00px" viewBox="0 0 1024 1024" version="1.1" xmlns="http://www.w3.org/2000/svg"><path fill="#333333" d="M576 268.48l22.08-21.76a32 32 0 1 0-45.44-45.44l-9.28 9.6V160a32 32 0 0 0-64 0v50.88l-9.28-9.6a32 32 0 0 0-45.44 45.44l22.08 21.76a212.16 212.16 0 0 0-128 199.68C320 549.76 384 896 512 896s192-346.24 192-427.84a212.16 212.16 0 0 0-128-199.68zM512 832c-48.96 0-128-245.12-128-363.84 0-81.6 57.28-148.16 128-148.16a136 136 0 0 1 128 128h-128a32 32 0 0 0 0 64h125.12c0 10.24-2.56 20.8-4.48 32H544a32 32 0 0 0 0 64h75.52c-2.88 10.88-5.44 21.76-8.64 32H576a32 32 0 0 0 0 64h15.04c-25.28 71.68-55.68 128-79.04 128z" /></svg>