<?xml version="1.0" standalone="no"?><!DOCTYPE svg PUBLIC "-//W3C//DTD SVG 1.1//EN" "http://www.w3.org/Graphics/SVG/1.1/DTD/svg11.dtd"><svg class="icon" width="200px" height="200.00px" viewBox="0 0 1024 1024" version="1.1" xmlns="http://www.w3.org/2000/svg"><path fill="#333333" d="M827.52 199.04s-1.92-3.52-3.2-4.8L822.4 192a36.16 36.16 0 0 1-3.2-4.16c-32-32-81.92-39.04-144-23.04a291.84 291.84 0 0 0-128 68.48 219.84 219.84 0 0 0-57.92 119.68 151.04 151.04 0 0 0 27.84 120.64s0 2.24 2.24 3.2 0 0 1.6 0l3.52 4.48a138.24 138.24 0 0 0 99.52 37.44 241.92 241.92 0 0 0 29.76-2.24 219.84 219.84 0 0 0 119.68-57.92 291.84 291.84 0 0 0 68.48-128 154.88 154.88 0 0 0-14.4-131.52z m-274.56 164.16a157.44 157.44 0 0 1 40-83.84 233.28 233.28 0 0 1 98.24-51.52 163.52 163.52 0 0 1 41.92-6.08h10.56l-5.12 3.2a221.76 221.76 0 0 0-52.8 40.96A241.6 241.6 0 0 0 644.48 320a168.64 168.64 0 0 1-32 40.32 168.64 168.64 0 0 1-40.32 32c-5.76 3.52-12.16 7.36-19.2 12.16a120.32 120.32 0 0 1 0-41.28zM728.64 416a157.44 157.44 0 0 1-83.84 40 114.24 114.24 0 0 1-48.64-2.88l9.28-5.76a237.76 237.76 0 0 0 53.12-40.96 237.76 237.76 0 0 0 40.96-54.4 177.6 177.6 0 0 1 32-40.64 171.52 171.52 0 0 1 40.32-32l14.72-9.28a161.92 161.92 0 0 1-5.76 45.44A233.28 233.28 0 0 1 728.64 416zM504.32 546.24l-3.52-4.48a148.16 148.16 0 0 0-128-35.2 219.84 219.84 0 0 0-119.68 57.92 291.84 291.84 0 0 0-68.48 128 154.88 154.88 0 0 0 14.72 133.76s1.92 3.52 3.2 4.8h1.92a36.16 36.16 0 0 1 3.2 4.16 118.72 118.72 0 0 0 86.08 32 228.48 228.48 0 0 0 57.92-8 291.84 291.84 0 0 0 128-68.48 219.84 219.84 0 0 0 57.92-119.68 151.04 151.04 0 0 0-27.84-120.64s-4.48-3.2-5.44-4.16zM295.36 608a157.44 157.44 0 0 1 83.84-40 150.4 150.4 0 0 1 20.16-1.6 90.56 90.56 0 0 1 28.8 4.48l-9.6 5.76A261.76 261.76 0 0 0 324.48 672a177.6 177.6 0 0 1-32 40.64 171.52 171.52 0 0 1-40.32 32l-14.72 9.28a161.92 161.92 0 0 1 5.76-45.44A233.28 233.28 0 0 1 295.36 608z m175.68 51.84a157.44 157.44 0 0 1-40 83.84 233.28 233.28 0 0 1-98.24 51.52 160 160 0 0 1-52.48 5.44l5.12-3.2a221.76 221.76 0 0 0 52.8-40.96A241.6 241.6 0 0 0 379.52 704a168.64 168.64 0 0 1 32-40.32 168.64 168.64 0 0 1 40.32-32c5.76-3.52 12.16-7.36 19.2-12.16a120.32 120.32 0 0 1 0 41.28z" /></svg>