<?xml version="1.0" standalone="no"?><!DOCTYPE svg PUBLIC "-//W3C//DTD SVG 1.1//EN" "http://www.w3.org/Graphics/SVG/1.1/DTD/svg11.dtd"><svg class="icon" width="200px" height="200.00px" viewBox="0 0 1024 1024" version="1.1" xmlns="http://www.w3.org/2000/svg"><path fill="#333333" d="M856 298.56A32 32 0 0 0 832 288h-96V192a32 32 0 0 0-32-32h-96V128a32 32 0 0 0-32-32h-128a32 32 0 0 0-32 32v32h-96a32 32 0 0 0-32 32v96H192a32 32 0 0 0-24 10.56 32 32 0 0 0-7.68 24.96l64 576A32 32 0 0 0 256 928h512a32 32 0 0 0 32-28.48l64-576a32 32 0 0 0-8-24.96zM672 224v64h-64V224z m-192-64h64v128h-64V160z m-128 64h64v64h-64z m-32 128h476.16l-46.08 416H273.92L227.84 352zM284.8 864l-3.84-32h462.08l-3.84 32z"  /><path fill="#333333" d="M512 704a128 128 0 1 0-128-128 128 128 0 0 0 128 128z m0-192a64 64 0 1 1-64 64 64 64 0 0 1 64-64z"  /></svg>