<?xml version="1.0" standalone="no"?><!DOCTYPE svg PUBLIC "-//W3C//DTD SVG 1.1//EN" "http://www.w3.org/Graphics/SVG/1.1/DTD/svg11.dtd"><svg class="icon" width="200px" height="200.00px" viewBox="0 0 1024 1024" version="1.1" xmlns="http://www.w3.org/2000/svg"><path fill="#333333" d="M768 448a70.4 70.4 0 0 0 0-11.52v-10.88a74.56 74.56 0 0 0-64-73.6 70.4 70.4 0 0 0 0-11.52v-10.88A74.88 74.88 0 0 0 629.44 256h-27.2A96 96 0 0 0 608 224c0-50.88-38.4-128-96-128s-96 77.12-96 128a96 96 0 0 0 5.76 32h-27.2A74.88 74.88 0 0 0 320 330.56v10.88a70.4 70.4 0 0 0 0 10.56 74.56 74.56 0 0 0-64 73.6v10.88A70.4 70.4 0 0 0 256 448a74.56 74.56 0 0 0-64 73.6v10.88a74.56 74.56 0 0 0 33.92 62.4L256 899.2a32 32 0 0 0 32 28.8h448a32 32 0 0 0 32-28.8l30.08-303.36A74.56 74.56 0 0 0 832 533.44v-10.88A74.56 74.56 0 0 0 768 448z m-288-224c0-26.24 21.76-64 32-64s32 37.76 32 64a32 32 0 0 1-64 0z m-96 106.56a10.56 10.56 0 0 1 10.56-10.56h234.88a10.56 10.56 0 0 1 10.56 10.56v10.88a10.56 10.56 0 0 1-10.56 10.56h-234.88a10.56 10.56 0 0 1-10.56-10.56z m-64 96a10.56 10.56 0 0 1 10.56-10.56h362.88a10.56 10.56 0 0 1 10.56 10.56v10.88a10.56 10.56 0 0 1-10.56 10.56H330.56a10.56 10.56 0 0 1-10.56-10.56z m-64 96a10.56 10.56 0 0 1 10.56-10.56h490.88a10.56 10.56 0 0 1 10.56 10.56v10.88a10.56 10.56 0 0 1-10.56 10.56H266.56a10.56 10.56 0 0 1-10.56-10.56zM706.88 864H317.12l-25.6-256h440.96z" /></svg>