<?xml version="1.0" standalone="no"?><!DOCTYPE svg PUBLIC "-//W3C//DTD SVG 1.1//EN" "http://www.w3.org/Graphics/SVG/1.1/DTD/svg11.dtd"><svg class="icon" width="200px" height="200.00px" viewBox="0 0 1024 1024" version="1.1" xmlns="http://www.w3.org/2000/svg"><path fill="#333333" d="M896 448a32 32 0 0 0-32-32H160a32 32 0 0 0-32 32 384 384 0 0 0 241.28 356.16A32 32 0 0 0 352 832a32 32 0 0 0 32 32h256a32 32 0 0 0 32-32 32 32 0 0 0-17.28-27.84A384 384 0 0 0 896 448zM512 768a320 320 0 0 1-318.4-288H832c0 10.88-2.88 21.44-4.8 32H608a32 32 0 0 0 0 64h196.8A320 320 0 0 1 512 768zM494.4 384a32 32 0 0 0 32-32 140.16 140.16 0 0 1 15.04-67.2 204.48 204.48 0 0 0 20.16-92.8 32 32 0 0 0-64 0 140.16 140.16 0 0 1-15.04 67.2 204.48 204.48 0 0 0-20.16 92.8 32 32 0 0 0 32 32zM366.4 384a32 32 0 0 0 32-32 140.16 140.16 0 0 1 15.04-67.2 204.48 204.48 0 0 0 20.16-92.8 32 32 0 0 0-64 0 140.16 140.16 0 0 1-15.04 67.2 204.48 204.48 0 0 0-20.16 92.8 32 32 0 0 0 32 32zM622.4 384a32 32 0 0 0 32-32 140.16 140.16 0 0 1 15.04-67.2 204.48 204.48 0 0 0 20.16-92.8 32 32 0 0 0-64 0 140.16 140.16 0 0 1-15.04 67.2 204.48 204.48 0 0 0-20.16 92.8 32 32 0 0 0 32 32z" /></svg>