<?xml version="1.0" standalone="no"?><!DOCTYPE svg PUBLIC "-//W3C//DTD SVG 1.1//EN" "http://www.w3.org/Graphics/SVG/1.1/DTD/svg11.dtd"><svg class="icon" width="200px" height="200.00px" viewBox="0 0 1024 1024" version="1.1" xmlns="http://www.w3.org/2000/svg"><path fill="#333333" d="M630.72 320h-12.16a141.12 141.12 0 0 0-72.32-30.4C552.32 247.36 569.6 224 576 224a32 32 0 0 0 0-64c-48.32 0-86.08 53.76-94.4 128a140.16 140.16 0 0 0-76.16 32h-12.16C280.32 320 192 378.88 192 454.4v211.2c0 75.52 88.32 134.4 201.28 134.4h12.16a139.84 139.84 0 0 0 88.64 32h35.84a139.84 139.84 0 0 0 88.64-32h12.16c112.96 0 201.28-58.88 201.28-134.4v-211.2c0-75.52-88.32-134.4-201.28-134.4zM256 665.6v-211.2c0-28.16 42.56-59.2 103.68-67.84a141.44 141.44 0 0 0-7.68 43.52v259.84a141.44 141.44 0 0 0 7.68 43.52C298.56 724.8 256 693.76 256 665.6z m238.08 102.4A78.4 78.4 0 0 1 416 689.92v-259.84A78.4 78.4 0 0 1 494.08 352h35.84A78.4 78.4 0 0 1 608 430.08v259.84A78.4 78.4 0 0 1 529.92 768zM768 665.6c0 28.16-42.56 59.2-103.68 67.84a141.44 141.44 0 0 0 7.68-43.52v-259.84a141.44 141.44 0 0 0-7.68-43.52c61.12 8.64 103.68 39.68 103.68 67.84z" /></svg>