<?xml version="1.0" standalone="no"?><!DOCTYPE svg PUBLIC "-//W3C//DTD SVG 1.1//EN" "http://www.w3.org/Graphics/SVG/1.1/DTD/svg11.dtd"><svg class="icon" width="200px" height="200.00px" viewBox="0 0 1024 1024" version="1.1" xmlns="http://www.w3.org/2000/svg"><path fill="#333333" d="M533.44 128h-42.88A202.88 202.88 0 0 0 288 330.56V672a32 32 0 0 0 32 32h96v111.04A81.28 81.28 0 0 0 496.96 896h30.08A81.28 81.28 0 0 0 608 815.04V704h96a32 32 0 0 0 32-32V330.56A202.88 202.88 0 0 0 533.44 128zM544 815.04a16.96 16.96 0 0 1-16.96 16.96h-30.08a16.96 16.96 0 0 1-16.96-16.96V704h64zM672 640H352v-309.44A138.56 138.56 0 0 1 490.56 192h42.88A138.56 138.56 0 0 1 672 330.56z"  /><path fill="#333333" d="M576 352a32 32 0 0 0-32 32v128a32 32 0 0 0 64 0v-128a32 32 0 0 0-32-32zM448 352a32 32 0 0 0-32 32v128a32 32 0 0 0 64 0v-128a32 32 0 0 0-32-32z"  /></svg>