<?xml version="1.0" standalone="no"?><!DOCTYPE svg PUBLIC "-//W3C//DTD SVG 1.1//EN" "http://www.w3.org/Graphics/SVG/1.1/DTD/svg11.dtd"><svg class="icon" width="200px" height="200.00px" viewBox="0 0 1024 1024" version="1.1" xmlns="http://www.w3.org/2000/svg"><path fill="#333333" d="M800 448a192 192 0 0 0-327.68-135.68l-4.48 4.48-1.6 1.92a192 192 0 0 0-13.76 239.36l-166.72 167.04a32 32 0 0 0 0 45.12 32 32 0 0 0 45.12 0l166.08-165.76a192 192 0 0 0 239.04-13.76l2.24-1.6a27.52 27.52 0 0 0 4.48-4.16A189.76 189.76 0 0 0 800 448z m-101.44-90.56A128 128 0 0 1 736 448a128 128 0 0 1-22.08 71.68l-177.6-177.6A128 128 0 0 1 608 320a128 128 0 0 1 90.56 37.44z m-181.12 181.12a128 128 0 0 1-23.04-148.16l171.2 171.2A122.88 122.88 0 0 1 608 576a128 128 0 0 1-90.56-37.44z" /></svg>