<?xml version="1.0" standalone="no"?><!DOCTYPE svg PUBLIC "-//W3C//DTD SVG 1.1//EN" "http://www.w3.org/Graphics/SVG/1.1/DTD/svg11.dtd"><svg class="icon" width="200px" height="200.00px" viewBox="0 0 1024 1024" version="1.1" xmlns="http://www.w3.org/2000/svg"><path fill="#333333" d="M851.52 444.16a91.84 91.84 0 0 0-37.12-22.08 160 160 0 0 0-211.84-212.8 98.24 98.24 0 0 0-22.72-36.8 98.56 98.56 0 0 0-135.68 0l-271.68 271.68a96 96 0 0 0 0 135.68 98.24 98.24 0 0 0 36.8 22.72 160 160 0 0 0 212.16 212.16 98.24 98.24 0 0 0 22.72 36.8 96 96 0 0 0 135.68 0l271.68-271.68a96 96 0 0 0 0-135.68z m-633.6 45.12l271.36-271.36a32 32 0 0 1 45.44 0 32 32 0 0 1 0 45.12l-271.68 271.68a32 32 0 0 1-45.12 0 32 32 0 0 1 0-45.44z m67.84 248.96a96 96 0 0 1 0-135.68l22.72-22.72 271.36-271.36 22.72-22.72a96 96 0 0 1 135.68 0 96 96 0 0 1 0 135.68l-22.72 22.72-271.36 271.36-22.72 22.4a96 96 0 0 1-135.68 0.32z m520.32-203.52l-271.36 271.36a32 32 0 0 1-45.44 0 32 32 0 0 1 0-45.12l271.68-271.68a32 32 0 1 1 45.12 45.44z"  /><path fill="#333333" d="M480 577.92c0-12.8 1.6-17.28 8.96-24.96a32 32 0 0 1 25.28-8.96A94.08 94.08 0 0 0 608 451.52c0-12.8 1.6-17.6 9.28-25.28s12.16-8 24.96-8.96a96 96 0 0 0 64-27.52 32 32 0 0 0-45.44-45.44c-7.36 7.68-12.16 8-24.96 8.96a96 96 0 0 0-64 27.84 93.44 93.44 0 0 0-27.52 64 32 32 0 0 1-8.96 25.28c-7.68 7.36-12.48 7.68-25.28 8.96a92.16 92.16 0 0 0-64 27.52 93.44 93.44 0 0 0-27.52 64c0 12.8 0 17.6-8.96 24.96s-12.16 8-24.96 8.96a96 96 0 0 0-64 27.52 32 32 0 0 0 0 45.44 32 32 0 0 0 45.44 0c7.36-7.68 12.16-8 24.96-8.96A93.44 93.44 0 0 0 480 577.92z"  /></svg>