<?xml version="1.0" standalone="no"?><!DOCTYPE svg PUBLIC "-//W3C//DTD SVG 1.1//EN" "http://www.w3.org/Graphics/SVG/1.1/DTD/svg11.dtd"><svg class="icon" width="200px" height="200.00px" viewBox="0 0 1024 1024" version="1.1" xmlns="http://www.w3.org/2000/svg"><path fill="#333333" d="M832 384a128 128 0 0 0-224-83.84 128 128 0 0 0-62.08-39.04c5.44-44.8 23.36-69.12 30.08-69.12a32 32 0 0 0 0-64c-48.96 0-87.04 55.04-94.4 132.16A128 128 0 0 0 416 300.16 128 128 0 1 0 306.56 512 126.08 126.08 0 0 0 288 576a128 128 0 0 0 114.56 128 126.08 126.08 0 0 0-18.56 64 128 128 0 0 0 256 0 126.08 126.08 0 0 0-18.56-64A128 128 0 0 0 736 576a126.08 126.08 0 0 0-18.56-64A128 128 0 0 0 832 384z m-320-64a64 64 0 1 1-64 64 64 64 0 0 1 64-64z m-256 64a64 64 0 1 1 64 64 64 64 0 0 1-64-64z m96 192a64 64 0 1 1 64 64 64 64 0 0 1-64-64z m160 256a64 64 0 1 1 64-64 64 64 0 0 1-64 64z m96-192a64 64 0 1 1 64-64 64 64 0 0 1-64 64z m96-192a64 64 0 1 1 64-64 64 64 0 0 1-64 64z" /></svg>