<?xml version="1.0" standalone="no"?><!DOCTYPE svg PUBLIC "-//W3C//DTD SVG 1.1//EN" "http://www.w3.org/Graphics/SVG/1.1/DTD/svg11.dtd"><svg class="icon" width="200px" height="200.00px" viewBox="0 0 1024 1024" version="1.1" xmlns="http://www.w3.org/2000/svg"><path fill="#333333" d="M928 320a24.96 24.96 0 0 0 0-7.04 32 32 0 0 0-1.92-5.76v-3.52l-96-160A32 32 0 0 0 800 128H480a32 32 0 0 0-27.52 15.68l-96 160v3.52a32 32 0 0 0-1.92 5.76 24.96 24.96 0 0 0-2.56 7.04v3.52l64 576a32 32 0 0 0 32 28.48h384a32 32 0 0 0 32-28.48l64-576V320zM498.24 192h283.52l57.6 96H440.64z m315.84 576H465.92l-46.08-416h440.32zM476.8 864l-3.84-32h334.08l-3.84 32z"  /><path fill="#333333" d="M640 672a128 128 0 1 0-128-128 128 128 0 0 0 128 128z m0-192a64 64 0 1 1-64 64 64 64 0 0 1 64-64zM331.84 418.24a32 32 0 0 0-41.6 17.92L240 561.92l-50.24-125.76a32 32 0 1 0-59.52 23.68l75.2 188.16-43.2 108.16a32 32 0 0 0 17.92 41.6A32 32 0 0 0 192 800a32 32 0 0 0 29.76-20.16l18.24-45.76 18.24 45.76A32 32 0 0 0 288 800a32 32 0 0 0 11.84-2.24 32 32 0 0 0 17.92-41.6l-43.2-108.16 75.2-188.16a32 32 0 0 0-17.92-41.6z"  /></svg>