<?xml version="1.0" standalone="no"?><!DOCTYPE svg PUBLIC "-//W3C//DTD SVG 1.1//EN" "http://www.w3.org/Graphics/SVG/1.1/DTD/svg11.dtd"><svg class="icon" width="200px" height="200.00px" viewBox="0 0 1024 1024" version="1.1" xmlns="http://www.w3.org/2000/svg"><path fill="#333333" d="M768 672H256a32 32 0 0 0-32 32v54.08A106.24 106.24 0 0 0 329.92 864h364.16A106.24 106.24 0 0 0 800 758.08V704a32 32 0 0 0-32-32z m-32 86.08A41.92 41.92 0 0 1 694.08 800H329.92A41.92 41.92 0 0 1 288 758.08V736h448zM256 448h512a32 32 0 0 0 32-32c0-141.12-128-256-288-256s-288 114.88-288 256a32 32 0 0 0 32 32z m256-224c110.72 0 203.2 69.44 220.8 160H291.2c17.6-90.56 110.08-160 220.8-160z"  /><path fill="#333333" d="M480 256h-32a32 32 0 0 0 0 64h32a32 32 0 0 0 0-64zM608 288h-32a32 32 0 0 0 0 64h32a32 32 0 0 0 0-64zM768 576H256a32 32 0 0 0 0 64h512a32 32 0 0 0 0-64zM768 480H256a32 32 0 0 0 0 64h512a32 32 0 0 0 0-64z"  /></svg>