<?xml version="1.0" standalone="no"?><!DOCTYPE svg PUBLIC "-//W3C//DTD SVG 1.1//EN" "http://www.w3.org/Graphics/SVG/1.1/DTD/svg11.dtd"><svg class="icon" width="200px" height="200.00px" viewBox="0 0 1024 1024" version="1.1" xmlns="http://www.w3.org/2000/svg"><path fill="#333333" d="M896 320a32 32 0 0 0-32-32H160a32 32 0 0 0-32 32 384 384 0 0 0 224 348.8V768a32 32 0 0 0 32 32h256a32 32 0 0 0 32-32v-96-3.2A384 384 0 0 0 896 320z m-288 384v32h-192v-32z m-96-64a320 320 0 0 1-318.4-288H832c0 10.88-2.88 21.44-4.8 32H608a32 32 0 0 0 0 64h196.8A320 320 0 0 1 512 640z" /></svg>