<?xml version="1.0" standalone="no"?><!DOCTYPE svg PUBLIC "-//W3C//DTD SVG 1.1//EN" "http://www.w3.org/Graphics/SVG/1.1/DTD/svg11.dtd"><svg class="icon" width="200px" height="200.00px" viewBox="0 0 1024 1024" version="1.1" xmlns="http://www.w3.org/2000/svg"><path fill="#333333" d="M512 128a384 384 0 1 0 384 384A384 384 0 0 0 512 128z m0 64a320 320 0 0 1 320 320c0 9.28-28.16 32-80 32s-80-22.72-80-32a160 160 0 0 0-302.4-71.36A189.12 189.12 0 0 0 272 416a205.44 205.44 0 0 0-68.16 11.2A320 320 0 0 1 512 192z m96 320a96 96 0 1 1-96-96 96 96 0 0 1 96 96z m-96 320A320 320 0 0 1 192 512c0-9.28 28.16-32 80-32s80 22.72 80 32a160 160 0 0 0 302.4 71.36 189.12 189.12 0 0 0 97.6 24.64 205.44 205.44 0 0 0 68.16-11.2A320 320 0 0 1 512 832z"  /><path fill="#333333" d="M416 288h32a32 32 0 0 0 0-64h-32a32 32 0 0 0 0 64zM576 320a32 32 0 0 0 32-32V256a32 32 0 0 0-64 0v32a32 32 0 0 0 32 32zM672 384a32 32 0 0 0 32-32v-32a32 32 0 0 0-64 0v32a32 32 0 0 0 32 32zM736 480h32a32 32 0 0 0 0-64h-32a32 32 0 0 0 0 64zM320 384a32 32 0 0 0 32-32v-32a32 32 0 0 0-64 0v32a32 32 0 0 0 32 32z"  /></svg>