<?xml version="1.0" standalone="no"?><!DOCTYPE svg PUBLIC "-//W3C//DTD SVG 1.1//EN" "http://www.w3.org/Graphics/SVG/1.1/DTD/svg11.dtd"><svg class="icon" width="200px" height="200.00px" viewBox="0 0 1024 1024" version="1.1" xmlns="http://www.w3.org/2000/svg"><path fill="#333333" d="M762.56 270.4l-36.8-55.36A32 32 0 0 0 736 192a32 32 0 0 0-32-32H320a32 32 0 0 0-32 32 32 32 0 0 0 10.24 23.04L261.44 270.4A32 32 0 0 0 256 288v496c0 64 64 112 143.68 112h224C704 896 768 846.72 768 784V288a32 32 0 0 0-5.44-17.6zM704 784c0 22.72-32 48-79.68 48h-224C352 832 320 806.72 320 784V297.6L369.28 224h285.44L704 297.6z" /></svg>