<?xml version="1.0" standalone="no"?><!DOCTYPE svg PUBLIC "-//W3C//DTD SVG 1.1//EN" "http://www.w3.org/Graphics/SVG/1.1/DTD/svg11.dtd"><svg class="icon" width="200px" height="200.00px" viewBox="0 0 1024 1024" version="1.1" xmlns="http://www.w3.org/2000/svg"><path fill="#333333" d="M730.88 320A89.28 89.28 0 0 0 736 288a96 96 0 0 0-96-96 96 96 0 0 0-64 24.64 100.48 100.48 0 0 0-128 0A96 96 0 0 0 288 288a96 96 0 0 0 4.8 30.4A480 480 0 0 0 160 659.2C160 774.08 314.56 864 512 864s352-89.92 352-204.8A480 480 0 0 0 730.88 320zM512 800c-169.6 0-288-74.24-288-140.8a408 408 0 0 1 128-309.44 32 32 0 0 0 4.8-43.2A32 32 0 0 1 352 288a32 32 0 0 1 32-32 32 32 0 0 1 29.76 20.8 32 32 0 0 0 38.4 19.52l8.32-2.24a32 32 0 0 0 22.08-18.56 32 32 0 0 1 58.88 0 36.8 36.8 0 0 0 24.32 19.2h6.08a32 32 0 0 0 38.4-19.52A32 32 0 0 1 640 256a32 32 0 0 1 32 32 32 32 0 0 1-6.4 18.56 32 32 0 0 0 6.4 43.2 408 408 0 0 1 128 309.44c0 66.56-118.4 140.8-288 140.8z"  /><path fill="#333333" d="M512 320a32 32 0 0 0-32 32v64a32 32 0 0 0 64 0v-64a32 32 0 0 0-32-32zM416 320a32 32 0 0 0-32 32v64a32 32 0 0 0 64 0v-64a32 32 0 0 0-32-32zM608 320a32 32 0 0 0-32 32v64a32 32 0 0 0 64 0v-64a32 32 0 0 0-32-32z"  /></svg>