<?xml version="1.0" standalone="no"?><!DOCTYPE svg PUBLIC "-//W3C//DTD SVG 1.1//EN" "http://www.w3.org/Graphics/SVG/1.1/DTD/svg11.dtd"><svg class="icon" width="200px" height="200.00px" viewBox="0 0 1024 1024" version="1.1" xmlns="http://www.w3.org/2000/svg"><path fill="#333333" d="M298.666667 327.111111c-31.288889 0-56.888889 25.6-56.888889 56.888889s25.6 56.888889 56.888889 56.888889 56.888889-25.6 56.888889-56.888889-25.6-56.888889-56.888889-56.888889z m0 78.222222c-11.377778 0-21.333333-9.955556-21.333334-21.333333s9.955556-21.333333 21.333334-21.333333 21.333333 9.955556 21.333333 21.333333-9.955556 21.333333-21.333333 21.333333zM512 329.955556c-31.288889 0-56.888889 25.6-56.888889 56.888888s25.6 56.888889 56.888889 56.888889 56.888889-25.6 56.888889-56.888889-25.6-56.888889-56.888889-56.888888z m0 79.644444c-11.377778 0-21.333333-9.955556-21.333333-21.333333s9.955556-21.333333 21.333333-21.333334 21.333333 9.955556 21.333333 21.333334-9.955556 21.333333-21.333333 21.333333zM725.333333 327.111111c-31.288889 0-56.888889 25.6-56.888889 56.888889s25.6 56.888889 56.888889 56.888889 56.888889-25.6 56.888889-56.888889-25.6-56.888889-56.888889-56.888889z m0 78.222222c-11.377778 0-21.333333-9.955556-21.333333-21.333333s9.955556-21.333333 21.333333-21.333333 21.333333 9.955556 21.333334 21.333333-9.955556 21.333333-21.333334 21.333333zM483.555556 540.444444h56.888888v113.777778h-56.888888z"  /><path fill="#333333" d="M71.111111 300.088889V469.333333c0 46.933333 38.4 85.333333 85.333333 85.333334h711.111112c46.933333 0 85.333333-38.4 85.333333-85.333334V298.666667c0-46.933333-38.4-85.333333-85.333333-85.333334H157.866667C109.511111 213.333333 71.111111 251.733333 71.111111 300.088889zM867.555556 497.777778H156.444444c-15.644444 0-28.444444-12.8-28.444444-28.444445V298.666667c0-15.644444 12.8-28.444444 28.444444-28.444445h711.111112c15.644444 0 28.444444 12.8 28.444444 28.444445v170.666666c0 15.644444-12.8 28.444444-28.444444 28.444445zM512 611.555556c-55.466667 0-99.555556 44.088889-99.555556 99.555555s44.088889 99.555556 99.555556 99.555556 99.555556-44.088889 99.555556-99.555556-44.088889-99.555556-99.555556-99.555555z m0 149.333333c-27.022222 0-49.777778-22.755556-49.777778-49.777778s22.755556-49.777778 49.777778-49.777778 49.777778 22.755556 49.777778 49.777778-22.755556 49.777778-49.777778 49.777778z"  /></svg>