<?xml version="1.0" standalone="no"?><!DOCTYPE svg PUBLIC "-//W3C//DTD SVG 1.1//EN" "http://www.w3.org/Graphics/SVG/1.1/DTD/svg11.dtd"><svg class="icon" width="200px" height="200.00px" viewBox="0 0 1024 1024" version="1.1" xmlns="http://www.w3.org/2000/svg"><path fill="#333333" d="M483.555556 796.444444v-56.888888c0-15.644444 12.8-28.444444 28.444444-28.444445s28.444444 12.8 28.444444 28.444445v56.888888c0 15.644444-12.8 28.444444-28.444444 28.444445s-28.444444-12.8-28.444444-28.444445zM539.022222 273.066667c-14.222222 14.222222-38.4 14.222222-54.044444 0-14.222222-14.222222-14.222222-38.4 0-52.622223s38.4-14.222222 54.044444 0c14.222222 15.644444 14.222222 38.4 0 52.622223zM382.577778 273.066667c-14.222222 14.222222-38.4 14.222222-54.044445 0-14.222222-14.222222-14.222222-38.4 0-52.622223s38.4-14.222222 54.044445 0c14.222222 15.644444 14.222222 38.4 0 52.622223zM695.466667 221.866667c14.222222 14.222222 14.222222 38.4 0 52.622222s-38.4 14.222222-54.044445 0c-14.222222-14.222222-14.222222-38.4 0-52.622222 15.644444-14.222222 38.4-14.222222 54.044445 0z"  /><path fill="#333333" d="M328.574095 403.971445a38.4 38.4 0 1 0 54.304853-54.306748 38.4 38.4 0 1 0-54.304853 54.306748Z"  /><path fill="#333333" d="M641.462984 403.971445a38.4 38.4 0 1 0 54.304853-54.306748 38.4 38.4 0 1 0-54.304853 54.306748Z"  /><path fill="#333333" d="M485.018539 403.971445a38.4 38.4 0 1 0 54.304853-54.306748 38.4 38.4 0 1 0-54.304853 54.306748Z"  /><path fill="#333333" d="M398.222222 554.666667v312.888889c0 39.822222 31.288889 71.111111 71.111111 71.111111h85.333334c39.822222 0 71.111111-31.288889 71.111111-71.111111V554.666667c0-39.822222-31.288889-71.111111-71.111111-71.111111h-85.333334c-39.822222 0-71.111111 31.288889-71.111111 71.111111z m156.444445 327.111111h-85.333334c-8.533333 0-14.222222-5.688889-14.222222-14.222222V554.666667c0-8.533333 5.688889-14.222222 14.222222-14.222223h85.333334c8.533333 0 14.222222 5.688889 14.222222 14.222223v312.888889c0 8.533333-5.688889 14.222222-14.222222 14.222222z"  /><path fill="#333333" d="M170.666667 170.666667v284.444444c0 46.933333 38.4 85.333333 85.333333 85.333333h512c46.933333 0 85.333333-38.4 85.333333-85.333333V170.666667c0-46.933333-38.4-85.333333-85.333333-85.333334H256c-46.933333 0-85.333333 38.4-85.333333 85.333334z m597.333333 312.888889H256c-15.644444 0-28.444444-12.8-28.444444-28.444445V170.666667c0-15.644444 12.8-28.444444 28.444444-28.444445h512c15.644444 0 28.444444 12.8 28.444444 28.444445v284.444444c0 15.644444-12.8 28.444444-28.444444 28.444445z"  /></svg>