<?xml version="1.0" standalone="no"?><!DOCTYPE svg PUBLIC "-//W3C//DTD SVG 1.1//EN" "http://www.w3.org/Graphics/SVG/1.1/DTD/svg11.dtd"><svg class="icon" width="200px" height="200.00px" viewBox="0 0 1024 1024" version="1.1" xmlns="http://www.w3.org/2000/svg"><path fill="#333333" d="M554.666667 113.777778h-85.333334c-39.822222 0-71.111111 31.288889-71.111111 71.111111s31.288889 71.111111 71.111111 71.111111h85.333334c39.822222 0 71.111111-31.288889 71.111111-71.111111s-31.288889-71.111111-71.111111-71.111111z m0 85.333333h-85.333334c-8.533333 0-14.222222-5.688889-14.222222-14.222222s5.688889-14.222222 14.222222-14.222222h85.333334c8.533333 0 14.222222 5.688889 14.222222 14.222222s-5.688889 14.222222-14.222222 14.222222zM270.222222 426.666667v-56.888889c0-15.644444 12.8-28.444444 28.444445-28.444445s28.444444 12.8 28.444444 28.444445v56.888889c0 15.644444-12.8 28.444444-28.444444 28.444444s-28.444444-12.8-28.444445-28.444444zM412.444444 426.666667v-56.888889c0-15.644444 12.8-28.444444 28.444445-28.444445s28.444444 12.8 28.444444 28.444445v56.888889c0 15.644444-12.8 28.444444-28.444444 28.444444s-28.444444-12.8-28.444445-28.444444zM554.666667 426.666667v-56.888889c0-15.644444 12.8-28.444444 28.444444-28.444445s28.444444 12.8 28.444445 28.444445v56.888889c0 15.644444-12.8 28.444444-28.444445 28.444444s-28.444444-12.8-28.444444-28.444444zM696.888889 426.666667v-56.888889c0-15.644444 12.8-28.444444 28.444444-28.444445s28.444444 12.8 28.444445 28.444445v56.888889c0 15.644444-12.8 28.444444-28.444445 28.444444s-28.444444-12.8-28.444444-28.444444zM270.222222 739.555556v-56.888889c0-15.644444 12.8-28.444444 28.444445-28.444445s28.444444 12.8 28.444444 28.444445v56.888889c0 15.644444-12.8 28.444444-28.444444 28.444444s-28.444444-12.8-28.444445-28.444444zM412.444444 739.555556v-56.888889c0-15.644444 12.8-28.444444 28.444445-28.444445s28.444444 12.8 28.444444 28.444445v56.888889c0 15.644444-12.8 28.444444-28.444444 28.444444s-28.444444-12.8-28.444445-28.444444zM554.666667 739.555556v-56.888889c0-15.644444 12.8-28.444444 28.444444-28.444445s28.444444 12.8 28.444445 28.444445v56.888889c0 15.644444-12.8 28.444444-28.444445 28.444444s-28.444444-12.8-28.444444-28.444444zM696.888889 739.555556v-56.888889c0-15.644444 12.8-28.444444 28.444444-28.444445s28.444444 12.8 28.444445 28.444445v56.888889c0 15.644444-12.8 28.444444-28.444445 28.444444s-28.444444-12.8-28.444444-28.444444z"  /><path fill="#333333" d="M918.755556 536.177778l-79.644445-284.444445c-8.533333-31.288889-36.977778-52.622222-68.266667-52.622222H264.533333c-31.288889 0-58.311111 19.911111-68.266666 49.777778l-91.022223 284.444444c-4.266667 14.222222-4.266667 29.866667 0 42.666667l91.022223 284.444444c9.955556 29.866667 36.977778 49.777778 68.266666 49.777778h506.311111c31.288889 0 59.733333-21.333333 68.266667-52.622222l79.644445-284.444444c4.266667-11.377778 4.266667-25.6 0-36.977778z m-49.777778 22.755555l-82.488889 284.444445c-1.422222 5.688889-7.111111 9.955556-14.222222 9.955555H263.111111c-5.688889 0-11.377778-4.266667-14.222222-9.955555l-93.866667-284.444445c-1.422222-2.844444-1.422222-5.688889 0-8.533333l93.866667-284.444444c1.422222-5.688889 7.111111-9.955556 14.222222-9.955556h509.155556c5.688889 0 11.377778 4.266667 14.222222 9.955556l82.488889 284.444444v8.533333z"  /><path fill="#333333" d="M938.666667 583.111111H85.333333c-15.644444 0-28.444444-12.8-28.444444-28.444444s12.8-28.444444 28.444444-28.444445h853.333334c15.644444 0 28.444444 12.8 28.444444 28.444445s-12.8 28.444444-28.444444 28.444444z"  /></svg>