<?xml version="1.0" standalone="no"?><!DOCTYPE svg PUBLIC "-//W3C//DTD SVG 1.1//EN" "http://www.w3.org/Graphics/SVG/1.1/DTD/svg11.dtd"><svg class="icon" width="200px" height="200.00px" viewBox="0 0 1024 1024" version="1.1" xmlns="http://www.w3.org/2000/svg"><path fill="#333333" d="M581.688889 287.288889l78.222222 78.222222c2.844444 2.844444 2.844444 7.111111 0 9.955556L640 396.8c-2.844444 2.844444-7.111111 2.844444-9.955556 0l-78.222222-78.222222c-8.533333-8.533333-8.533333-21.333333 0-29.866667 7.111111-8.533333 21.333333-8.533333 29.866667-1.422222zM645.688889 223.288889l78.222222 78.222222c2.844444 2.844444 2.844444 7.111111 0 9.955556l-19.911111 19.911111c-2.844444 2.844444-7.111111 2.844444-9.955556 0l-78.222222-78.222222c-8.533333-8.533333-8.533333-21.333333 0-29.866667 7.111111-7.111111 21.333333-7.111111 29.866667 0zM718.222222 169.244444l78.222222 78.222223c2.844444 2.844444 2.844444 7.111111 0 9.955555l-19.911111 19.911111c-2.844444 2.844444-7.111111 2.844444-9.955555 0L688.355556 199.111111c-8.533333-8.533333-8.533333-21.333333 0-29.866667 8.533333-8.533333 21.333333-8.533333 29.866666 0zM665.6 634.311111c-12.8 15.644444-35.555556 17.066667-51.2 5.688889L169.244444 264.533333c-15.644444-12.8-17.066667-35.555556-4.266666-49.777777 12.8-15.644444 35.555556-17.066667 49.777778-4.266667l446.577777 375.466667c15.644444 11.377778 17.066667 34.133333 4.266667 48.355555z"  /><path fill="#333333" d="M358.4 634.311111c12.8 15.644444 35.555556 17.066667 51.2 5.688889l446.577778-375.466667c15.644444-12.8 17.066667-35.555556 4.266666-49.777777-12.8-15.644444-35.555556-17.066667-49.777777-4.266667L362.666667 584.533333c-15.644444 12.8-17.066667 35.555556-4.266667 49.777778zM760.888889 554.666667c-86.755556 0-156.444444 69.688889-156.444445 156.444444s69.688889 156.444444 156.444445 156.444445 156.444444-69.688889 156.444444-156.444445-69.688889-156.444444-156.444444-156.444444z m0 256c-55.466667 0-99.555556-44.088889-99.555556-99.555556s44.088889-99.555556 99.555556-99.555555 99.555556 44.088889 99.555555 99.555555-44.088889 99.555556-99.555555 99.555556z"  /><path fill="#333333" d="M277.333333 554.666667c-86.755556 0-156.444444 69.688889-156.444444 156.444444s69.688889 156.444444 156.444444 156.444445 156.444444-69.688889 156.444445-156.444445-69.688889-156.444444-156.444445-156.444444z m0 256c-55.466667 0-99.555556-44.088889-99.555555-99.555556s44.088889-99.555556 99.555555-99.555555 99.555556 44.088889 99.555556 99.555555-44.088889 99.555556-99.555556 99.555556z"  /></svg>