<?xml version="1.0" standalone="no"?><!DOCTYPE svg PUBLIC "-//W3C//DTD SVG 1.1//EN" "http://www.w3.org/Graphics/SVG/1.1/DTD/svg11.dtd"><svg class="icon" width="200px" height="200.00px" viewBox="0 0 1024 1024" version="1.1" xmlns="http://www.w3.org/2000/svg"><path fill="#333333" d="M142.222222 312.888889L71.111111 711.111111c0 62.577778 51.2 113.777778 113.777778 113.777778h654.222222c62.577778 0 113.777778-51.2 113.777778-113.777778l-71.111111-398.222222c0-62.577778-51.2-113.777778-113.777778-113.777778H256c-62.577778 0-113.777778 51.2-113.777778 113.777778z m696.888889 455.111111H184.888889c-31.288889 0-56.888889-25.6-56.888889-56.888889l71.111111-398.222222c0-31.288889 25.6-56.888889 56.888889-56.888889h512c31.288889 0 56.888889 25.6 56.888889 56.888889l71.111111 398.222222c0 31.288889-25.6 56.888889-56.888889 56.888889z"  /><path fill="#333333" d="M512 497.777778c-66.844444 0-120.888889 73.955556-120.888889 108.088889 0 66.844444 54.044444 66.844444 120.888889 66.844444s120.888889 0 120.888889-66.844444c0-34.133333-54.044444-108.088889-120.888889-108.088889z m0 135.111111c-32.711111 0-81.066667 1.422222-81.066667-27.022222 0-19.911111 48.355556-68.266667 81.066667-68.266667 42.666667 0 81.066667 48.355556 81.066667 68.266667 0 28.444444-51.2 27.022222-81.066667 27.022222zM384 430.933333c-29.866667 0-55.466667 24.177778-55.466667 55.466667S354.133333 540.444444 384 540.444444s55.466667-24.177778 55.466667-55.466666-25.6-54.044444-55.466667-54.044445z m0 75.377778c-11.377778 0-21.333333-9.955556-21.333333-21.333333s9.955556-21.333333 21.333333-21.333334 21.333333 9.955556 21.333333 21.333334c0 12.8-9.955556 21.333333-21.333333 21.333333zM640 430.933333c-29.866667 0-55.466667 24.177778-55.466667 55.466667S610.133333 540.444444 640 540.444444s55.466667-24.177778 55.466667-55.466666-25.6-54.044444-55.466667-54.044445z m0 75.377778c-11.377778 0-21.333333-9.955556-21.333333-21.333333s9.955556-21.333333 21.333333-21.333334 21.333333 9.955556 21.333333 21.333334c0 12.8-9.955556 21.333333-21.333333 21.333333zM512 355.555556c-35.555556 0-64 28.444444-64 64s28.444444 64 64 64 64-28.444444 64-64-28.444444-64-64-64z m0 92.444444c-15.644444 0-29.866667-12.8-29.866667-29.866667s12.8-29.866667 29.866667-29.866666 29.866667 12.8 29.866667 29.866666-14.222222 29.866667-29.866667 29.866667z"  /></svg>