<?xml version="1.0" standalone="no"?><!DOCTYPE svg PUBLIC "-//W3C//DTD SVG 1.1//EN" "http://www.w3.org/Graphics/SVG/1.1/DTD/svg11.dtd"><svg class="icon" width="200px" height="200.00px" viewBox="0 0 1024 1024" version="1.1" xmlns="http://www.w3.org/2000/svg"><path fill="#333333" d="M334.222222 199.111111v341.333333c0 4.266667-2.844444 7.111111-7.111111 7.111112h-42.666667c-4.266667 0-7.111111-2.844444-7.111111-7.111112V199.111111c0-11.377778 9.955556-21.333333 21.333334-21.333333h14.222222c11.377778 0 21.333333 9.955556 21.333333 21.333333z"  /><path fill="#333333" d="M585.955556 82.488889L182.044444 170.666667C142.222222 179.2 113.777778 213.333333 113.777778 254.577778v213.333333c0 42.666667 29.866667 78.222222 72.533333 83.911111l423.822222 69.688889c19.911111 2.844444 39.822222 5.688889 61.155556 5.688889 132.266667 7.111111 238.933333-95.288889 238.933333-227.555556v-99.555555c0-120.888889-95.288889-220.444444-216.177778-227.555556-35.555556 0-72.533333 2.844444-108.088888 9.955556z m69.688888 487.822222c-9.955556 0-21.333333-1.422222-31.288888-2.844444l-423.822223-64c-17.066667-2.844444-29.866667-17.066667-29.866666-34.133334V256c0-15.644444 11.377778-28.444444 27.022222-32.711111l402.488889-85.333333c27.022222-5.688889 54.044444-7.111111 81.066666-5.688889 96.711111 7.111111 172.088889 86.755556 172.088889 184.888889v69.688888c0 106.666667-88.177778 190.577778-197.688889 183.466667z"  /><path fill="#333333" d="M625.777778 221.866667c-71.111111 0-128 56.888889-128 128s56.888889 128 128 128 128-56.888889 128-128c0-69.688889-56.888889-128-128-128z m0 199.111111c-39.822222 0-71.111111-31.288889-71.111111-71.111111s31.288889-71.111111 71.111111-71.111111 71.111111 31.288889 71.111111 71.111111-31.288889 71.111111-71.111111 71.111111zM661.333333 568.888889c-86.755556-7.111111-147.911111 44.088889-155.022222 129.422222l-17.066667 99.555556c-7.111111 86.755556 42.666667 160.711111 128 167.822222 86.755556 7.111111 147.911111-58.311111 155.022223-143.644445l73.955555-270.222222c8.533333-85.333333-98.133333 25.6-184.888889 17.066667z m55.466667 248.888889c-4.266667 55.466667-38.4 96.711111-93.866667 92.444444-55.466667-4.266667-81.066667-51.2-76.8-106.666666l17.066667-99.555556c4.266667-55.466667 38.4-82.488889 93.866667-78.222222 55.466667 4.266667 137.955556-133.688889 133.688889-78.222222l-73.955556 270.222222z"  /></svg>