<?xml version="1.0" standalone="no"?><!DOCTYPE svg PUBLIC "-//W3C//DTD SVG 1.1//EN" "http://www.w3.org/Graphics/SVG/1.1/DTD/svg11.dtd"><svg class="icon" width="200px" height="200.00px" viewBox="0 0 1024 1024" version="1.1" xmlns="http://www.w3.org/2000/svg"><path fill="#333333" d="M110.9792 817.066667H106.712533c-10.666667-2.133333-19.2-12.8-17.066666-23.466667 2.133333-8.533333 36.266667-217.6 119.466666-354.133333 6.4-10.666667 19.2-12.8 29.866667-6.4 10.666667 6.4 12.8 19.2 6.4 29.866666-78.933333 130.133333-113.066667 337.066667-113.066667 339.2 0 8.533333-10.666667 14.933333-21.333333 14.933334zM238.9792 930.133333h-2.133333c-10.666667-2.133333-19.2-12.8-19.2-23.466666 0-6.4 21.333333-170.666667 53.333333-273.066667 4.266667-10.666667 14.933333-17.066667 27.733333-12.8 10.666667 4.266667 17.066667 14.933333 12.8 27.733333-32 98.133333-51.2 262.4-53.333333 264.533334 0 10.666667-8.533333 17.066667-19.2 17.066666zM512.045867 108.8h-187.733334c-12.8 0-21.333333-8.533333-21.333333-21.333333s8.533333-21.333333 21.333333-21.333334H512.045867c12.8 0 21.333333 8.533333 21.333333 21.333334s-8.533333 21.333333-21.333333 21.333333z"  /><path fill="#333333" d="M618.712533 1024c-32 0-68.266667 0-106.666666-2.133333-38.4 2.133333-74.666667 2.133333-106.666667 2.133333-160 0-196.266667-14.933333-209.066667-40.533333-10.666667-21.333333 4.266667-40.533333 12.8-53.333334l2.133334-2.133333c-119.466667-25.6-147.2-46.933333-153.6-70.4-6.4-21.333333 10.666667-38.4 21.333333-49.066667l4.266667-4.266666c-2.133333 0-2.133333-2.133333-4.266667-2.133334-40.533333-19.2-64-42.666667-74.666667-70.4-8.533333-21.333333-2.133333-40.533333 0-46.933333C93.912533 328.533333 277.3792 110.933333 313.645867 70.4V21.333333c0-12.8 8.533333-21.333333 21.333333-21.333333h356.266667c12.8 0 21.333333 8.533333 21.333333 21.333333v49.066667C746.712533 110.933333 930.1792 328.533333 1019.7792 686.933333c2.133333 6.4 8.533333 25.6 0 46.933334-8.533333 27.733333-34.133333 51.2-74.666667 70.4-2.133333 0-4.266667 2.133333-4.266666 2.133333l4.266666 4.266667c10.666667 10.666667 27.733333 25.6 21.333334 49.066666-6.4 23.466667-34.133333 42.666667-153.6 70.4l2.133333 2.133334c10.666667 12.8 23.466667 32 12.8 53.333333-10.666667 23.466667-49.066667 38.4-209.066667 38.4z m-106.666666-44.8c40.533333 2.133333 76.8 2.133333 106.666666 2.133333 121.6 0 157.866667-10.666667 168.533334-14.933333-2.133333-2.133333-4.266667-6.4-6.4-8.533333-8.533333-10.666667-21.333333-27.733333-14.933334-44.8 6.4-19.2 29.866667-23.466667 36.266667-25.6 87.466667-19.2 113.066667-32 119.466667-38.4-2.133333-2.133333-4.266667-6.4-6.4-6.4-10.666667-10.666667-25.6-23.466667-21.333334-42.666667 2.133333-19.2 19.2-27.733333 32-34.133333 36.266667-17.066667 49.066667-34.133333 51.2-44.8 4.266667-8.533333 0-17.066667 0-17.066667 0-2.133333-2.133333-2.133333-2.133333-4.266667-89.6-381.866667-298.666667-603.733333-300.8-605.866666-4.266667-4.266667-6.4-8.533333-6.4-14.933334V42.666667H356.312533v36.266666c0 6.4-2.133333 10.666667-6.4 14.933334-2.133333 2.133333-211.2 224-305.066666 603.733333 0 2.133333 0 2.133333-2.133334 4.266667-4.266667 10.666667 0 36.266667 53.333334 61.866666 12.8 6.4 29.866667 14.933333 32 34.133334 2.133333 19.2-10.666667 32-21.333334 42.666666l-6.4 6.4c8.533333 6.4 34.133333 19.2 119.466667 38.4 6.4 2.133333 29.866667 6.4 36.266667 25.6 6.4 17.066667-6.4 34.133333-14.933334 44.8-2.133333 2.133333-4.266667 6.4-6.4 8.533334 10.666667 4.266667 46.933333 14.933333 168.533334 14.933333 34.133333 2.133333 68.266667 2.133333 108.8 0z"  /><path fill="#333333" d="M913.112533 817.066667c-10.666667 0-19.2-8.533333-21.333333-17.066667 0-2.133333-34.133333-209.066667-113.066667-339.2-6.4-10.666667-2.133333-23.466667 6.4-29.866667s23.466667-2.133333 29.866667 6.4c83.2 136.533333 117.333333 345.6 117.333333 354.133334 2.133333 10.666667-6.4 23.466667-17.066666 23.466666 0 2.133333-2.133333 2.133333-2.133334 2.133334zM785.112533 930.133333c-10.666667 0-19.2-8.533333-21.333333-19.2 0-2.133333-19.2-166.4-53.333333-264.533333-4.266667-10.666667 2.133333-23.466667 12.8-27.733333 10.666667-4.266667 23.466667 2.133333 27.733333 12.8 34.133333 102.4 53.333333 266.666667 53.333333 273.066666 2.133333 10.666667-6.4 21.333333-19.2 23.466667 2.133333 2.133333 2.133333 2.133333 0 2.133333zM699.7792 108.8H512.045867c-12.8 0-21.333333-8.533333-21.333334-21.333333s8.533333-21.333333 21.333334-21.333334h187.733333c12.8 0 21.333333 8.533333 21.333333 21.333334s-10.666667 21.333333-21.333333 21.333333zM512.045867 1021.866667c-12.8 0-21.333333-8.533333-21.333334-21.333334V439.466667c0-12.8 8.533333-21.333333 21.333334-21.333334s21.333333 8.533333 21.333333 21.333334v561.066666c0 12.8-8.533333 21.333333-21.333333 21.333334z"  /></svg>