<?xml version="1.0" standalone="no"?><!DOCTYPE svg PUBLIC "-//W3C//DTD SVG 1.1//EN" "http://www.w3.org/Graphics/SVG/1.1/DTD/svg11.dtd"><svg class="icon" width="200px" height="200.00px" viewBox="0 0 1024 1024" version="1.1" xmlns="http://www.w3.org/2000/svg"><path fill="#333333" d="M396.496348 1024h-181.027322c-6.3892 0-12.778399-2.129733-17.037865-8.518933-4.259466-4.259466-6.3892-10.648666-4.259467-17.037865l115.005593-496.227835V448.972037l-21.297332-57.502796-142.692124 323.719445c-4.259466 8.518933-14.908132 14.908132-23.427065 12.7784l-104.356927-21.297332c-6.3892-2.129733-10.648666-4.259466-14.908132-10.648666-2.129733-6.3892-2.129733-12.778399 0-19.167599L230.377159 67.749795c2.129733-8.518933 10.648666-12.778399 19.167598-12.7784h57.502797l63.891996-46.85413c8.518933-6.3892 19.167599-6.3892 27.686531 2.129733C447.609945 54.971395 490.204609 101.825526 528.539806 150.809389c6.3892 8.518933 6.3892 23.427065-4.259466 29.816265-8.518933 6.3892-23.427065 6.3892-29.816265-4.259466-31.945998-42.594664-70.281195-83.059595-112.875859-123.524526l-55.373064 40.464931c-4.259466 2.129733-8.518933 4.259466-12.778399 4.259466h-48.983863l-212.97332 572.89823 63.891996 12.7784 159.72999-355.665444c4.259466-8.518933 12.778399-12.778399 21.297332-12.7784s17.037866 6.3892 19.167598 14.908133l40.464931 110.746126c0 2.129733 2.129733 4.259466 2.129733 6.3892v63.891996L243.155558 981.405336h155.470523c12.778399 0 21.297332 8.518933 21.297332 21.297332s-10.648666 21.297332-23.427065 21.297332z"  /><path fill="#333333" d="M430.572079 310.539379c-4.259466 0-8.518933 0-10.648666-4.259466L362.420617 272.204182c-8.518933-4.259466-12.778399-14.908132-8.518933-25.556799l17.037866-46.85413-51.113597 2.129733c-10.648666 0-21.297332-8.518933-21.297332-21.297332l-4.259467-104.356927c0-12.778399 8.518933-21.297332 21.297332-21.297332 10.648666 0 21.297332 8.518933 21.297332 21.297332l4.259467 83.059595 61.762263-2.129733c6.3892 0 12.778399 2.129733 17.037865 8.518933 4.259466 6.3892 4.259466 12.778399 2.129733 19.167598l-21.297332 61.762263 40.464931 25.556799c10.648666 6.3892 12.778399 19.167599 6.3892 29.816264-4.259466 4.259466-10.648666 8.518933-17.037866 8.518933z"  /><path fill="#333333" d="M807.534855 1024H375.199016c-12.778399 0-21.297332-8.518933-21.297332-21.297332V451.10177c0-10.648666 17.037866-210.843586 270.476116-445.114238 8.518933-6.3892 19.167599-8.518933 27.686532-2.129733l63.891995 46.85413h57.502797c8.518933 0 17.037866 6.3892 19.167599 12.778399l227.881452 609.103695c2.129733 6.3892 2.129733 12.778399-2.129734 17.037865-2.129733 6.3892-8.518933 8.518933-14.908132 10.648666l-104.356927 21.297332c-10.648666 2.129733-19.167599-2.129733-23.427065-12.778399L730.86446 385.080041l-21.297332 57.502796v53.24333l115.005593 496.227835c2.129733 6.3892 0 12.778399-4.259467 17.037866 0 12.778399-6.3892 14.908132-12.778399 14.908132z m-411.038507-42.594664h385.481709l-108.616393-472.80077v-63.891996c0-2.129733 0-4.259466 2.129733-6.389199l38.335197-110.746126c2.129733-8.518933 10.648666-12.778399 19.167599-14.908133 8.518933 0 17.037866 4.259466 21.297332 12.778399l159.72999 355.665444 63.891996-12.778399-212.97332-572.89823h-48.983864c-4.259466 0-8.518933-2.129733-12.778399-4.259466l-63.891996-40.464931C411.40448 267.944715 396.496348 451.10177 396.496348 453.231503V981.405336z"  /><path fill="#333333" d="M379.458482 444.71257c-6.3892 0-14.908132-4.259466-17.037865-10.648666-6.3892-10.648666-2.129733-23.427065 6.389199-29.816264l255.567984-159.72999-21.297332-61.762263c-2.129733-6.3892-2.129733-14.908132 2.129733-19.167599 4.259466-6.3892 10.648666-8.518933 17.037866-8.518932l61.762263 2.129733 4.259466-83.059595c0-12.778399 10.648666-21.297332 21.297332-21.297332 12.778399 0 21.297332 10.648666 21.297332 21.297332l-6.3892 106.48666c0 10.648666-8.518933 21.297332-21.297332 21.297332l-51.113596-2.129733 17.037865 46.85413c4.259466 8.518933 0 19.167599-8.518933 25.556799l-270.476116 168.248922c-2.129733 2.129733-6.3892 4.259466-10.648666 4.259466zM688.269796 495.826167H330.474619c-12.778399 0-21.297332-8.518933-21.297332-21.297332s8.518933-21.297332 21.297332-21.297332h357.795177c12.778399 0 21.297332 8.518933 21.297332 21.297332s-10.648666 21.297332-21.297332 21.297332z"  /></svg>