<?xml version="1.0" standalone="no"?><!DOCTYPE svg PUBLIC "-//W3C//DTD SVG 1.1//EN" "http://www.w3.org/Graphics/SVG/1.1/DTD/svg11.dtd"><svg class="icon" width="200px" height="200.00px" viewBox="0 0 1024 1024" version="1.1" xmlns="http://www.w3.org/2000/svg"><path fill="#333333" d="M518.4 1024h-12.8-2.133333C256 1021.866667 121.6 955.733333 115.2 953.6c-8.533333-4.266667-12.8-12.8-10.666667-23.466667 27.733333-170.666667 140.8-288 170.666667-317.866666V305.066667c0-8.533333 4.266667-14.933333 10.666667-19.2 93.866667-55.466667 29.866667-241.066667 27.733333-243.2-2.133333-6.4-2.133333-12.8 2.133333-17.066667s8.533333-8.533333 14.933334-10.666667l76.8-14.933333c6.4 0 12.8 0 19.2 4.266667s8.533333 10.666667 8.533333 17.066666c0 132.266667 55.466667 162.133333 78.933333 168.533334 23.466667-6.4 78.933333-38.4 78.933334-168.533334 0-6.4 2.133333-12.8 8.533333-17.066666 2.133333-4.266667 8.533333-4.266667 14.933333-4.266667l78.933334 17.066667c6.4 2.133333 10.666667 4.266667 14.933333 10.666666s4.266667 12.8 2.133333 17.066667c0 2.133333-66.133333 187.733333 27.733334 243.2 6.4 4.266667 10.666667 10.666667 10.666666 19.2v307.2c29.866667 29.866667 142.933333 147.2 170.666667 317.866667 2.133333 8.533333-4.266667 19.2-10.666667 23.466666-8.533333 0-142.933333 66.133333-392.533333 68.266667z m-6.4-42.666667H518.4c194.133333-2.133333 317.866667-42.666667 358.4-59.733333-34.133333-168.533333-162.133333-281.6-162.133333-281.6-4.266667-4.266667-6.4-10.666667-6.4-14.933333V317.866667c-89.6-64-59.733333-206.933333-44.8-264.533334l-29.866667-6.4c-8.533333 149.333333-89.6 181.333333-115.2 185.6h-8.533333c-25.6-6.4-106.666667-36.266667-115.2-185.6l-29.866667 6.4c14.933333 57.6 44.8 200.533333-44.8 264.533334v305.066666c0 6.4-2.133333 12.8-6.4 14.933334-2.133333 2.133333-128 115.2-160 283.733333 40.533333 17.066667 164.266667 57.6 358.4 59.733333h2.133333-2.133333z" /></svg>