<?xml version="1.0" standalone="no"?><!DOCTYPE svg PUBLIC "-//W3C//DTD SVG 1.1//EN" "http://www.w3.org/Graphics/SVG/1.1/DTD/svg11.dtd"><svg class="icon" width="200px" height="200.00px" viewBox="0 0 1024 1024" version="1.1" xmlns="http://www.w3.org/2000/svg"><path fill="#333333" d="M324.266667 202.666667c-8.533333 0-14.933333-4.266667-19.2-12.8-4.266667-10.666667 0-23.466667 10.666666-27.733334C375.466667 134.4 371.2 85.333333 371.2 85.333333c-2.133333-10.666667 6.4-21.333333 19.2-23.466666 10.666667-2.133333 21.333333 6.4 23.466667 19.2 0 4.266667 8.533333 81.066667-81.066667 121.6h-8.533333z"  /><path fill="#333333" d="M693.333333 1024h-136.533333c-6.4 0-10.666667-2.133333-14.933333-6.4s-6.4-8.533333-6.4-14.933333c2.133333-211.2-4.266667-520.533333-23.466667-669.866667-21.333333 151.466667-25.6 458.666667-23.466667 669.866667 0 6.4-2.133333 10.666667-6.4 14.933333s-10.666667 6.4-14.933333 6.4h-136.533333c-10.666667 0-19.2-8.533333-21.333334-19.2-14.933333-110.933333 2.133333-253.866667 4.266667-260.266667v-4.266666c0-2.133333 66.133333-213.333333 0-369.066667-72.533333-170.666667-27.733333-347.733333-25.6-354.133333 2.133333-8.533333 10.666667-14.933333 21.333333-14.933334h403.2c10.666667 0 19.2 6.4 21.333334 14.933334 2.133333 6.4 46.933333 183.466667-25.6 354.133333-66.133333 157.866667 0 366.933333 0 369.066667v4.266666c0 6.4 19.2 149.333333 4.266666 260.266667 0 10.666667-8.533333 19.2-19.2 19.2z m-115.2-42.666667h96c8.533333-96-4.266667-213.333333-6.4-230.4-6.4-23.466667-68.266667-232.533333 2.133334-396.8 53.333333-130.133333 36.266667-266.666667 25.6-311.466666H328.533333c-8.533333 44.8-27.733333 183.466667 25.6 311.466666 68.266667 166.4 8.533333 373.333333 2.133334 396.8-2.133333 17.066667-14.933333 134.4-6.4 230.4h96c0-128 0-659.2 49.066666-748.8 8.533333-12.8 29.866667-12.8 38.4 0 46.933333 89.6 46.933333 620.8 44.8 748.8z"  /><path fill="#333333" d="M699.733333 202.666667c-2.133333 0-6.4 0-8.533333-2.133334-89.6-40.533333-81.066667-117.333333-81.066667-121.6 2.133333-10.666667 12.8-19.2 23.466667-19.2 10.666667 4.266667 19.2 12.8 19.2 25.6 0 2.133333-4.266667 49.066667 57.6 76.8 10.666667 4.266667 14.933333 17.066667 10.666667 27.733334-4.266667 8.533333-12.8 12.8-21.333334 12.8zM512 198.4c-12.8 0-21.333333-8.533333-21.333333-21.333333V25.6c0-12.8 8.533333-21.333333 21.333333-21.333333s21.333333 8.533333 21.333333 21.333333v151.466667c0 12.8-8.533333 21.333333-21.333333 21.333333z"  /></svg>