<?xml version="1.0" standalone="no"?><!DOCTYPE svg PUBLIC "-//W3C//DTD SVG 1.1//EN" "http://www.w3.org/Graphics/SVG/1.1/DTD/svg11.dtd"><svg class="icon" width="200px" height="200.00px" viewBox="0 0 1024 1024" version="1.1" xmlns="http://www.w3.org/2000/svg"><path fill="#333333" d="M1001.026651 1024H21.298439c-12.779064 0-21.298439-8.519376-21.298439-21.298439V304.112749c0-8.519376 6.389532-17.038752 12.779064-19.168596l217.244081-80.93407c10.64922-4.259688 23.428283 2.129844 27.687972 12.779064 4.259688 10.64922-2.129844 23.428283-12.779064 27.687971L42.596879 319.021656V981.403121h937.131333V319.021656l-202.335174-76.674382c-10.64922-4.259688-17.038752-17.038752-12.779064-27.687971 4.259688-10.64922 17.038752-17.038752 27.687971-12.779063l217.244082 83.063913c8.519376 2.129844 12.779064 10.64922 12.779064 19.168596V1002.701561c0 12.779064-8.519376 21.298439-21.29844 21.298439z"  /><path fill="#333333" d="M261.970804 506.447923c-2.129844 0-6.389532 0-8.519375-2.129844-8.519376-2.129844-12.779064-10.64922-12.779064-19.168596l-19.168595-332.255654c0-6.389532 2.129844-12.779064 6.389531-17.038752l95.842978-89.453445c4.259688-4.259688 10.64922-6.389532 14.908907-6.389532 6.389532 0 10.64922 2.129844 14.908908 6.389532l172.517359 193.815798c8.519376 8.519376 6.389532 21.298439-2.129844 29.817816L276.879712 500.058391c-4.259688 4.259688-8.519376 6.389532-14.908908 6.389532z m2.129844-345.034718l17.038752 276.879712 200.20533-183.166579-144.829388-161.868139-72.414694 68.155006z"  /><path fill="#333333" d="M394.021129 1011.220936h-4.259688c-10.64922-2.129844-19.168595-12.779064-17.038752-23.428283l83.063914-526.071453-74.544538-85.193757c-8.519376-8.519376-6.389532-23.428283 2.129844-29.817816 8.519376-8.519376 21.298439-6.389532 29.817815 2.129844l80.93407 93.713134c4.259688 4.259688 6.389532 10.64922 4.259688 17.038751l-83.063914 536.720673c-2.129844 6.389532-10.64922 14.908908-21.298439 14.908907zM760.354286 506.447923c-4.259688 0-10.64922-2.129844-14.908907-6.389532L496.253638 272.16509c-8.519376-8.519376-8.519376-21.298439-2.129844-29.817816l172.517359-193.815798c4.259688-4.259688 8.519376-6.389532 14.908907-6.389532 6.389532 0 10.64922 2.129844 14.908908 6.389532l95.842977 89.453445c4.259688 4.259688 6.389532 10.64922 6.389532 17.038752l-19.168595 332.255654c0 8.519376-6.389532 14.908908-12.779064 19.168596-2.129844-2.129844-4.259688 0-6.389532 0zM540.980361 255.126338l200.20533 183.166579 17.038751-276.879712-72.414694-68.155006-144.829387 161.868139z"  /><path fill="#333333" d="M628.303962 1011.220936c-10.64922 0-19.168595-8.519376-21.298439-17.038751l-83.063914-536.720673c0-6.389532 0-12.779064 4.259688-17.038751l80.93407-93.713134c8.519376-8.519376 21.298439-10.64922 29.817815-2.129844 8.519376 8.519376 10.64922 21.298439 2.129844 29.817816l-74.544538 85.193757 83.063913 526.071453c2.129844 10.64922-6.389532 23.428283-17.038751 23.428283-2.129844 2.129844-4.259688 2.129844-4.259688 2.129844zM677.290373 78.349291c-2.129844 0-6.389532 0-8.519376-2.129844-161.868139-74.544538-315.216903 0-315.216903 0-10.64922 4.259688-23.428283 0-27.687971-10.64922s0-23.428283 10.649219-27.687971c6.389532-4.259688 170.387515-83.063914 351.42425 0 10.64922 6.389532 14.908908 19.168595 10.64922 29.817815-4.259688 6.389532-12.779064 10.64922-21.298439 10.64922z"  /></svg>