<?xml version="1.0" standalone="no"?><!DOCTYPE svg PUBLIC "-//W3C//DTD SVG 1.1//EN" "http://www.w3.org/Graphics/SVG/1.1/DTD/svg11.dtd"><svg class="icon" width="200px" height="200.00px" viewBox="0 0 1024 1024" version="1.1" xmlns="http://www.w3.org/2000/svg"><path fill="#333333" d="M416 1024c-2.133333 0-6.4 0-8.533333-2.133333L160 917.333333c-10.666667-4.266667-14.933333-14.933333-10.666667-25.6 0-2.133333 93.866667-273.066667 0-475.733333-2.133333-6.4-2.133333-14.933333 2.133334-21.333333 2.133333-2.133333 110.933333-164.266667 49.066666-307.2-2.133333-6.4-2.133333-10.666667 0-17.066667 2.133333-6.4 6.4-10.666667 12.8-12.8L381.866667 0c6.4 0 12.8 0 17.066666 4.266667s8.533333 8.533333 10.666667 14.933333c0 2.133333 23.466667 185.6 117.333333 283.733333 4.266667 4.266667 6.4 8.533333 6.4 14.933334v605.866666c0 6.4-2.133333 12.8-8.533333 17.066667l-96 78.933333c-2.133333 2.133333-6.4 4.266667-12.8 4.266667zM196.266667 885.333333l217.6 91.733334 76.8-64V324.266667c-78.933333-87.466667-110.933333-219.733333-119.466667-275.2l-123.733333 42.666666c44.8 136.533333-29.866667 277.333333-55.466667 315.733334 81.066667 185.6 23.466667 411.733333 4.266667 477.866666z"  /><path fill="#333333" d="M396.8 772.266667h-115.2c-12.8 0-21.333333-8.533333-21.333333-21.333334s8.533333-21.333333 21.333333-21.333333h115.2c12.8 0 21.333333 8.533333 21.333333 21.333333s-8.533333 21.333333-21.333333 21.333334zM608 1024c-4.266667 0-10.666667-2.133333-12.8-4.266667L499.2 938.666667c-4.266667-4.266667-8.533333-10.666667-8.533333-17.066667V315.733333c0-6.4 2.133333-10.666667 6.4-14.933333C590.933333 202.666667 614.4 21.333333 614.4 19.2c0-6.4 4.266667-12.8 10.666667-14.933333 4.266667-4.266667 10.666667-4.266667 17.066666-2.133334L810.666667 57.6c6.4 2.133333 10.666667 6.4 12.8 10.666667 2.133333 6.4 2.133333 10.666667 0 17.066666-61.866667 142.933333 46.933333 305.066667 49.066666 307.2 4.266667 6.4 4.266667 14.933333 2.133334 21.333334-93.866667 202.666667 0 473.6 0 475.733333 4.266667 10.666667-2.133333 21.333333-12.8 27.733333l-247.466667 104.533334c-2.133333 2.133333-4.266667 2.133333-6.4 2.133333zM533.333333 913.066667l76.8 64 217.6-91.733334c-19.2-66.133333-76.8-292.266667 2.133334-477.866666-23.466667-38.4-100.266667-179.2-53.333334-315.733334l-123.733333-42.666666c-10.666667 55.466667-40.533333 187.733333-119.466667 275.2v588.8z"  /><path fill="#333333" d="M740.266667 772.266667h-115.2c-12.8 0-21.333333-8.533333-21.333334-21.333334s8.533333-21.333333 21.333334-21.333333h115.2c12.8 0 21.333333 8.533333 21.333333 21.333333s-8.533333 21.333333-21.333333 21.333334zM740.266667 401.066667h-115.2c-12.8 0-21.333333-8.533333-21.333334-21.333334s8.533333-21.333333 21.333334-21.333333h115.2c12.8 0 21.333333 8.533333 21.333333 21.333333s-8.533333 21.333333-21.333333 21.333334zM627.2 42.666667H388.266667c-12.8 0-21.333333-8.533333-21.333334-21.333334s8.533333-21.333333 21.333334-21.333333h238.933333c12.8 0 21.333333 8.533333 21.333333 21.333333s-10.666667 21.333333-21.333333 21.333334z"  /></svg>