<?xml version="1.0" standalone="no"?><!DOCTYPE svg PUBLIC "-//W3C//DTD SVG 1.1//EN" "http://www.w3.org/Graphics/SVG/1.1/DTD/svg11.dtd"><svg class="icon" width="200px" height="200.00px" viewBox="0 0 1024 1024" version="1.1" xmlns="http://www.w3.org/2000/svg"><path fill="#333333" d="M561.066667 1024h-98.133334c-6.4 0-10.666667-2.133333-14.933333-6.4-4.266667-4.266667-6.4-10.666667-6.4-14.933333 0 0 4.266667-89.6-51.2-145.066667-29.866667-32-72.533333-46.933333-125.866667-46.933333-12.8 0-21.333333-8.533333-21.333333-21.333334v-57.6c0-12.8 8.533333-21.333333 21.333333-21.333333h494.933334c12.8 0 21.333333 8.533333 21.333333 21.333333V789.333333c0 12.8-8.533333 21.333333-21.333333 21.333334-53.333333 0-96 14.933333-125.866667 46.933333-53.333333 55.466667-51.2 145.066667-51.2 145.066667 0 6.4-2.133333 10.666667-6.4 14.933333-4.266667 4.266667-8.533333 6.4-14.933333 6.4z m-76.8-42.666667h57.6c2.133333-34.133333 12.8-104.533333 61.866666-155.733333 34.133333-36.266667 78.933333-55.466667 136.533334-59.733333v-14.933334H285.866667v14.933334c55.466667 4.266667 102.4 23.466667 136.533333 59.733333 49.066667 51.2 59.733333 121.6 61.866667 155.733333zM243.2 241.066667c-12.8 0-21.333333-8.533333-21.333333-21.333334V21.333333c0-12.8 8.533333-21.333333 21.333333-21.333333s21.333333 8.533333 21.333333 21.333333v198.4c0 10.666667-10.666667 21.333333-21.333333 21.333334z"  /><path fill="#333333" d="M708.266667 537.6c-78.933333 0-166.4-42.666667-196.266667-57.6-29.866667 14.933333-117.333333 57.6-196.266667 57.6-49.066667 0-87.466667-17.066667-110.933333-49.066667-38.4-51.2-42.666667-136.533333-10.666667-260.266666 2.133333-8.533333 8.533333-14.933333 17.066667-14.933334 2.133333 0 12.8-2.133333 32-2.133333 49.066667 0 168.533333 12.8 270.933333 125.866667 100.266667-113.066667 221.866667-125.866667 270.933334-125.866667 19.2 0 29.866667 2.133333 32 2.133333 8.533333 2.133333 14.933333 8.533333 17.066666 14.933334 32 123.733333 27.733333 209.066667-10.666666 260.266666-27.733333 32-66.133333 49.066667-115.2 49.066667zM512 435.2c4.266667 0 6.4 0 10.666667 2.133333 0 0 102.4 57.6 185.6 57.6 36.266667 0 61.866667-10.666667 76.8-32 27.733333-36.266667 29.866667-108.8 6.4-209.066666h-10.666667c-44.8 0-160 12.8-253.866667 130.133333-8.533333 10.666667-25.6 10.666667-34.133333 0-91.733333-117.333333-209.066667-130.133333-253.866667-130.133333h-10.666666c-23.466667 100.266667-21.333333 172.8 6.4 209.066666 17.066667 21.333333 42.666667 32 76.8 32 83.2 0 185.6-57.6 185.6-57.6 8.533333-2.133333 10.666667-2.133333 14.933333-2.133333z"  /><path fill="#333333" d="M780.8 241.066667c-12.8 0-21.333333-8.533333-21.333333-21.333334V21.333333c0-12.8 8.533333-21.333333 21.333333-21.333333s21.333333 8.533333 21.333333 21.333333v198.4c0 10.666667-8.533333 21.333333-21.333333 21.333334z"  /></svg>