<?xml version="1.0" standalone="no"?><!DOCTYPE svg PUBLIC "-//W3C//DTD SVG 1.1//EN" "http://www.w3.org/Graphics/SVG/1.1/DTD/svg11.dtd"><svg class="icon" width="200px" height="200.00px" viewBox="0 0 1024 1024" version="1.1" xmlns="http://www.w3.org/2000/svg"><path fill="#333333" d="M362.666667 435.2h-4.266667c-6.4-2.133333-12.8-6.4-14.933333-12.8L234.666667 134.4c-4.266667-8.533333 0-19.2 6.4-23.466667 6.4-6.4 17.066667-6.4 25.6-2.133333l247.466666 162.133333c6.4 4.266667 8.533333 10.666667 8.533334 17.066667 0 6.4-2.133333 12.8-6.4 17.066667l-138.666667 123.733333c-4.266667 4.266667-8.533333 6.4-14.933333 6.4zM296.533333 181.333333l74.666667 196.266667 93.866667-85.333333-168.533334-110.933334z"  /><path fill="#333333" d="M501.333333 1024c-4.266667 0-10.666667-2.133333-12.8-4.266667l-123.733333-104.533333c-6.4-4.266667-8.533333-12.8-6.4-21.333333l98.133333-456.533334v-8.533333l-46.933333-55.466667c-8.533333-8.533333-6.4-23.466667 2.133333-29.866666 8.533333-8.533333 23.466667-6.4 29.866667 2.133333l51.2 61.866667c4.266667 4.266667 4.266667 8.533333 4.266667 12.8v23.466666l-96 445.866667 113.066666 96c8.533333 8.533333 10.666667 21.333333 2.133334 29.866667-2.133333 6.4-8.533333 8.533333-14.933334 8.533333zM661.333333 435.2c-4.266667 0-10.666667-2.133333-14.933333-6.4l-138.666667-123.733333c-4.266667-4.266667-8.533333-10.666667-6.4-17.066667s4.266667-12.8 8.533334-17.066667l247.466666-162.133333c8.533333-4.266667 17.066667-4.266667 25.6 2.133333 6.4 6.4 10.666667 14.933333 6.4 23.466667l-108.8 285.866667c-2.133333 6.4-8.533333 10.666667-14.933333 12.8-2.133333 2.133333-2.133333 2.133333-4.266667 2.133333z m-104.533333-142.933333l93.866667 85.333333L725.333333 181.333333l-168.533333 110.933334z"  /><path fill="#333333" d="M522.666667 1024c-6.4 0-12.8-2.133333-17.066667-8.533333-8.533333-8.533333-6.4-23.466667 2.133333-29.866667l113.066667-96-96-445.866667v-23.466666c0-4.266667 2.133333-10.666667 4.266667-12.8l51.2-61.866667c8.533333-8.533333 21.333333-10.666667 29.866666-2.133333 8.533333 8.533333 10.666667 21.333333 2.133334 29.866666l-46.933334 55.466667v8.533333l98.133334 456.533334c2.133333 8.533333-2.133333 14.933333-6.4 21.333333L533.333333 1019.733333c-2.133333 2.133333-6.4 4.266667-10.666666 4.266667zM770.133333 136.533333c-4.266667 0-8.533333-2.133333-12.8-4.266666-251.733333-198.4-486.4-4.266667-490.666666-2.133334-8.533333 8.533333-23.466667 6.4-29.866667-2.133333-8.533333-8.533333-6.4-23.466667 2.133333-29.866667 2.133333-2.133333 264.533333-217.6 544 0 8.533333 6.4 10.666667 21.333333 4.266667 29.866667-4.266667 4.266667-10.666667 8.533333-17.066667 8.533333z"  /></svg>