<?xml version="1.0" standalone="no"?><!DOCTYPE svg PUBLIC "-//W3C//DTD SVG 1.1//EN" "http://www.w3.org/Graphics/SVG/1.1/DTD/svg11.dtd"><svg class="icon" width="200px" height="200.00px" viewBox="0 0 1024 1024" version="1.1" xmlns="http://www.w3.org/2000/svg"><path fill="#333333" d="M117.042751 757.971134c-6.334021 0-10.556701-2.11134-14.779381-6.334021L7.253061 650.292784c-6.334021-8.445361-8.445361-19.002062-2.111341-27.447423L254.279865 291.364948c2.11134-4.22268 6.334021-6.334021 12.668041-8.44536l67.562887-16.890722c10.556701-2.11134 23.224742 4.22268 25.336082 14.779381s-4.22268 23.224742-14.779381 25.336083l-63.340207 16.890722-232.247422 312.47835 67.562886 73.896907 190.020619-179.463917c8.445361-8.445361 21.113402-8.445361 29.558763 0 8.445361 8.445361 8.445361 21.113402 0 29.558763l-204.8 192.131958c-4.22268 4.22268-10.556701 6.334021-14.779382 6.334021zM898.238628 757.971134c-6.334021 0-10.556701-2.11134-14.779382-6.334021l-204.8-192.131958c-8.445361-8.445361-8.445361-21.113402 0-29.558763 8.445361-8.445361 21.113402-8.445361 29.558763 0l190.020619 179.463917 67.562886-73.896907L731.442751 323.035052l-61.228866-19.002062c-10.556701-4.22268-16.890722-14.779381-14.779381-25.336083 4.22268-10.556701 14.779381-16.890722 25.336082-14.779381l67.562887 21.113402c4.22268 2.11134 8.445361 4.22268 10.556701 8.445361l249.138144 331.480412c6.334021 8.445361 6.334021 19.002062-2.11134 27.447423l-95.010309 101.34433c0 2.11134-6.334021 4.22268-12.668041 4.22268z"  /><path fill="#333333" d="M718.77471 1024H296.506669c-12.668041 0-21.113402-8.445361-21.113402-21.113402V574.284536c0-12.668041 8.445361-21.113402 21.113402-21.113402s21.113402 8.445361 21.113402 21.113402v407.48866h380.041237V576.395876c0-12.668041 8.445361-21.113402 21.113402-21.113402s21.113402 8.445361 21.113402 21.113402v426.490722c0 12.668041-10.556701 21.113402-21.113402 21.113402zM503.418009 384.263918c-120.346392 0-217.468041-86.564948-217.468041-192.131959S383.071617 0 503.418009 0c120.346392 0 217.468041 86.564948 217.468041 192.131959s-99.23299 192.131959-217.468041 192.131959z m0-339.925774c-97.121649 0-175.241237 67.562887-175.241237 149.905155s78.119588 149.905155 175.241237 149.905155 175.241237-67.562887 175.241237-149.905155-80.230928-149.905155-175.241237-149.905155z"  /><path fill="#333333" d="M503.418009 384.263918c-86.564948 0-158.350515-63.340206-158.350515-141.459794s71.785567-141.459794 158.350515-141.459794 158.350515 63.340206 158.350516 141.459794-71.785567 141.459794-158.350516 141.459794z m0-240.692784c-63.340206 0-116.123711 44.338144-116.123711 99.23299s52.783505 99.23299 116.123711 99.232989 116.123711-44.338144 116.123711-99.232989-52.783505-99.23299-116.123711-99.23299z"  /><path fill="#333333" d="M503.418009 1017.665979c-12.668041 0-21.113402-8.445361-21.113402-21.113402V375.818557c0-12.668041 8.445361-21.113402 21.113402-21.113402s21.113402 8.445361 21.113402 21.113402v620.73402c0 12.668041-10.556701 21.113402-21.113402 21.113402z"  /></svg>