<?xml version="1.0" standalone="no"?><!DOCTYPE svg PUBLIC "-//W3C//DTD SVG 1.1//EN" "http://www.w3.org/Graphics/SVG/1.1/DTD/svg11.dtd"><svg class="icon" width="200px" height="200.00px" viewBox="0 0 1024 1024" version="1.1" xmlns="http://www.w3.org/2000/svg"><path fill="#333333" d="M512 311.466667c-2.133333 0-4.266667 0-6.4-2.133334-130.133333-44.8-177.066667-204.8-179.2-213.333333-4.266667-10.666667 2.133333-21.333333 14.933333-25.6 10.666667-2.133333 21.333333 4.266667 25.6 14.933333 0 2.133333 42.666667 145.066667 151.466667 183.466667 10.666667 4.266667 17.066667 14.933333 12.8 27.733333-2.133333 8.533333-10.666667 14.933333-19.2 14.933334z"  /><path fill="#333333" d="M512 253.866667c-4.266667 0-6.4 0-10.666667-2.133334-102.4-53.333333-128-215.466667-130.133333-221.866666-2.133333-10.666667 6.4-23.466667 17.066667-23.466667 10.666667-2.133333 23.466667 6.4 23.466666 17.066667 0 2.133333 25.6 147.2 106.666667 189.866666 10.666667 6.4 14.933333 19.2 8.533333 29.866667 0 6.4-6.4 10.666667-14.933333 10.666667z"  /><path fill="#333333" d="M968.533333 1024h-106.666666c-10.666667 0-19.2-6.4-21.333334-17.066667l-102.4-582.4-23.466666 91.733334 49.066666 405.333333c2.133333 8.533333-4.266667 19.2-12.8 21.333333-59.733333 27.733333-132.266667 32-185.6 32-27.733333 0-46.933333-2.133333-55.466666-2.133333-6.4 0-27.733333 2.133333-55.466667 2.133333-51.2 0-125.866667-6.4-185.6-32-8.533333-4.266667-12.8-12.8-12.8-21.333333l49.066667-405.333333-23.466667-91.733334-98.133333 582.4c-2.133333 10.666667-10.666667 17.066667-21.333334 17.066667h-106.666666c-6.4 0-10.666667-2.133333-14.933334-6.4s-6.4-10.666667-6.4-14.933333c2.133333-29.866667 46.933333-725.333333 147.2-859.733334 4.266667-4.266667 6.4-8.533333 10.666667-8.533333l140.8-59.733333L379.733333 8.533333c4.266667-4.266667 10.666667-8.533333 17.066667-8.533333h230.4c6.4 0 12.8 4.266667 17.066667 8.533333l46.933333 66.133334L832 134.4c4.266667 2.133333 6.4 4.266667 8.533333 6.4 100.266667 136.533333 145.066667 832 147.2 859.733333 0 6.4-2.133333 10.666667-6.4 14.933334-2.133333 6.4-8.533333 8.533333-12.8 8.533333z m-89.6-42.666667h66.133334c-14.933333-209.066667-61.866667-699.733333-134.4-810.666666l-140.8-59.733334c-4.266667-2.133333-6.4-4.266667-8.533334-6.4L616.533333 42.666667h-209.066666L362.666667 104.533333c-2.133333 2.133333-6.4 6.4-8.533334 6.4L213.333333 170.666667c-72.533333 110.933333-119.466667 599.466667-134.4 810.666666h66.133334l115.2-659.2c2.133333-10.666667 10.666667-17.066667 19.2-17.066666 10.666667 0 19.2 6.4 21.333333 14.933333l51.2 187.733333v8.533334l-49.066667 394.666666c49.066667 19.2 108.8 23.466667 153.6 23.466667 29.866667 0 51.2-2.133333 53.333334-2.133333h4.266666s21.333333 2.133333 53.333334 2.133333c42.666667 0 104.533333-4.266667 153.6-23.466667l-49.066667-394.666666v-8.533334l51.2-187.733333c2.133333-10.666667 10.666667-14.933333 21.333333-14.933333s19.2 8.533333 19.2 17.066666L878.933333 981.333333z"  /><path fill="#333333" d="M512 972.8c-12.8 0-21.333333-8.533333-21.333333-21.333333v-661.333334c0-8.533333 6.4-17.066667 14.933333-19.2 110.933333-38.4 151.466667-181.333333 151.466667-183.466666 4.266667-12.8 14.933333-19.2 25.6-17.066667 10.666667 2.133333 17.066667 14.933333 14.933333 25.6-2.133333 6.4-44.8 155.733333-164.266667 206.933333v648.533334c0 12.8-8.533333 21.333333-21.333333 21.333333z"  /><path fill="#333333" d="M512 253.866667c-8.533333 0-14.933333-4.266667-19.2-10.666667-6.4-10.666667-2.133333-23.466667 8.533333-29.866667 83.2-42.666667 106.666667-189.866667 106.666667-189.866666 2.133333-10.666667 12.8-19.2 23.466667-17.066667 10.666667 2.133333 19.2 12.8 17.066666 23.466667-2.133333 6.4-27.733333 168.533333-130.133333 221.866666 0 0-2.133333 2.133333-6.4 2.133334zM428.8 582.4c-12.8 0-21.333333-8.533333-21.333333-21.333333V238.933333c0-12.8 8.533333-21.333333 21.333333-21.333333s21.333333 8.533333 21.333333 21.333333v322.133334c0 12.8-8.533333 21.333333-21.333333 21.333333zM595.2 582.4c-12.8 0-21.333333-8.533333-21.333333-21.333333V238.933333c0-12.8 8.533333-21.333333 21.333333-21.333333s21.333333 8.533333 21.333333 21.333333v322.133334c0 12.8-10.666667 21.333333-21.333333 21.333333z"  /></svg>