<?xml version="1.0" standalone="no"?><!DOCTYPE svg PUBLIC "-//W3C//DTD SVG 1.1//EN" "http://www.w3.org/Graphics/SVG/1.1/DTD/svg11.dtd"><svg class="icon" width="200px" height="199.61px" viewBox="0 0 1026 1024" version="1.1" xmlns="http://www.w3.org/2000/svg"><path fill="#333333" d="M423.979951 1024H21.305525c-12.783315 0-21.305525-8.52221-21.305525-21.305525V661.806072c0-4.261105 2.130553-8.52221 4.261105-12.783315 2.130553-2.130553 202.402489-298.277353 70.308233-547.551997-2.130553-6.391658-4.261105-12.783315 0-19.174973s8.52221-10.652763 12.783315-12.783315L330.23564 1.334791c8.52221-2.130553 19.174973 2.130553 25.566631 10.652763 6.391658 12.783315 172.574754 319.582878 178.966411 560.335312v221.577462c0 2.130553 0 6.391658-2.130552 8.52221l-87.352654 206.663594c-6.391658 10.652763-12.783315 14.913868-21.305525 14.913868zM42.61105 981.38895h366.455034l80.960995-189.619175V574.453419c-4.261105-200.271937-132.094256-462.329896-166.183096-526.246472L123.572046 105.731865C236.49133 355.006509 70.308233 623.456127 42.61105 668.197729V981.38895z"  /><path fill="#333333" d="M374.977243 444.489715h-136.355361c-12.783315 0-21.305525-8.52221-21.305525-21.305525s8.52221-21.305525 21.305525-21.305525h136.355361c12.783315 0 21.305525 8.52221 21.305525 21.305525s-8.52221 21.305525-21.305525 21.305525zM1001.359684 1024H598.685258c-8.52221 0-17.04442-4.261105-19.174973-12.783315l-87.352653-206.663594c-2.130553-4.261105-2.130553-6.391658-2.130553-8.52221V574.453419c6.391658-240.752435 170.444201-549.68255 178.966412-562.465865 4.261105-8.52221 14.913868-12.783315 25.56663-10.652763L937.443108 71.643024c6.391658 2.130553 10.652763 6.391658 12.783315 12.783315s2.130553 12.783315 0 19.174973c-134.224809 249.274645 68.177681 543.290892 70.308233 547.551997 2.130553 4.261105 4.261105 8.52221 4.261105 12.783315v340.888403c-2.130553 10.652763-10.652763 19.174973-23.436077 19.174973z m-387.760559-42.61105H980.054158V668.197729c-27.697183-42.61105-193.880279-313.19122-80.960995-562.465864l-202.402489-57.524918c-34.08884 63.916576-159.791439 325.974535-166.183097 526.246472V789.639223l83.091548 191.749727z"  /><path fill="#333333" d="M784.043327 444.489715h-136.355361c-12.783315 0-21.305525-8.52221-21.305526-21.305525s8.52221-21.305525 21.305526-21.305525h136.355361c12.783315 0 21.305525 8.52221 21.305525 21.305525s-10.652763 21.305525-21.305525 21.305525zM496.418737 73.773577c-95.874863 0-147.008124-31.958288-151.269229-34.088841-10.652763-6.391658-12.783315-19.174973-6.391658-29.827735 6.391658-10.652763 19.174973-12.783315 29.827736-6.391657C370.716138 3.465344 468.721554 65.251367 662.601833 1.334791c10.652763-4.261105 23.436078 2.130553 27.697183 12.783315 4.261105 10.652763-2.130553 23.436078-12.783315 27.697183-72.438786 25.56663-132.094256 31.958288-181.096964 31.958288z"  /></svg>