<?xml version="1.0" standalone="no"?><!DOCTYPE svg PUBLIC "-//W3C//DTD SVG 1.1//EN" "http://www.w3.org/Graphics/SVG/1.1/DTD/svg11.dtd"><svg class="icon" width="200px" height="200.00px" viewBox="0 0 1024 1024" version="1.1" xmlns="http://www.w3.org/2000/svg"><path fill="#333333" d="M512 1024c-242.392983 0-312.559373-61.661373-321.06439-68.040136-6.378763-6.378763-8.505017-14.88378-4.252508-23.388796l163.721576-438.008373-12.757525-108.438966-108.438966 386.978271c-2.126254 10.631271-14.88378 17.010034-25.515051 14.88378l-106.312712-27.641305c-10.631271-2.126254-17.010034-12.757525-14.88378-25.515051l127.575255-671.896339c2.126254-6.378763 6.378763-12.757525 12.757525-17.010033l121.196491-44.651339c6.378763-2.126254 14.88378-2.126254 21.262543 4.252508C426.949831 60.806831 507.747492 45.923052 507.747492 45.923052c10.631271-2.126254 23.388797 4.252508 25.51505 17.010033s-4.252508 23.388797-17.010034 25.515051c-4.252508 0-91.428932 17.010034-167.974084-38.272576l-99.933949 36.146322L127.147983 726.324407l65.913882 14.88378 131.827762-469.902186c2.126254-10.631271 12.757525-17.010034 21.262543-14.88378 10.631271 0 19.136288 8.505017 19.136288 19.136288l27.641305 219.004186c0 4.252508 0 6.378763-2.126254 10.631272l-161.595322 427.377101c29.767559 14.88378 108.438966 48.903847 282.791813 48.903847 12.757525 0 21.262542 8.505017 21.262542 21.262543s-8.505017 21.262542-21.262542 21.262542z"  /><path fill="#333333" d="M512 188.382085c-123.322746 0-172.226593-97.807695-180.73161-148.837796-2.126254-10.631271 6.378763-23.388797 17.010034-23.388797 10.631271-2.126254 23.388797 6.378763 23.388796 17.010034 0 4.252508 21.262542 112.691474 138.206526 112.691475 12.757525 0 21.262542 8.505017 21.262542 21.262542s-6.378763 21.262542-19.136288 21.262542z"  /><path fill="#333333" d="M512 1024c-12.757525 0-21.262542-8.505017-21.262542-21.262542s8.505017-21.262542 21.262542-21.262543c174.352847 0 253.024254-34.020068 280.665559-48.903847l-161.595322-427.377101c-2.126254-4.252508-2.126254-6.378763-2.126254-10.631272l27.641305-219.004186c2.126254-10.631271 8.505017-17.010034 19.136288-19.136288 10.631271 0 19.136288 6.378763 21.262543 14.88378L830.938135 743.334441l68.040136-17.010034-123.322746-642.128779-99.933949-36.146322C599.176424 105.45817 512 88.448136 507.747492 86.321882c-10.631271-2.126254-19.136288-12.757525-17.010034-25.515051 2.126254-10.631271 12.757525-19.136288 25.51505-17.010034 0 0 80.797661 14.88378 142.459034-36.146322 6.378763-4.252508 12.757525-6.378763 21.262543-4.252508l121.196491 44.651339c6.378763 2.126254 12.757525 8.505017 12.757525 17.010034l127.575255 671.896338c2.126254 10.631271-4.252508 21.262542-14.88378 25.515051l-106.312712 27.641305c-10.631271 2.126254-23.388797-4.252508-25.515051-14.88378L686.352847 386.123729l-12.757525 108.438966 163.721576 438.008373c2.126254 8.505017 0 17.010034-4.252508 23.388796-8.505017 6.378763-78.671407 68.040136-321.06439 68.040136z"  /><path fill="#333333" d="M512 188.382085c-12.757525 0-21.262542-8.505017-21.262542-21.262542s8.505017-21.262542 21.262542-21.262542c119.070237 0 138.206525-108.438966 138.206525-112.691475 2.126254-10.631271 12.757525-19.136288 23.388797-17.010034 10.631271 2.126254 19.136288 12.757525 17.010034 23.388797-6.378763 51.030102-55.28261 148.837796-178.605356 148.837796z"  /></svg>