<?xml version="1.0" standalone="no"?><!DOCTYPE svg PUBLIC "-//W3C//DTD SVG 1.1//EN" "http://www.w3.org/Graphics/SVG/1.1/DTD/svg11.dtd"><svg class="icon" width="200px" height="200.00px" viewBox="0 0 1024 1024" version="1.1" xmlns="http://www.w3.org/2000/svg"><path fill="#333333" d="M512 1024C174.933333 1024 19.2 953.6 12.8 949.333333c-8.533333-2.133333-12.8-10.666667-12.8-19.2s4.266667-14.933333 10.666667-19.2c64-34.133333 281.6-281.6 324.266666-435.2 8.533333-32 8.533333-57.6 0-72.533333-72.533333-123.733333-34.133333-224-32-226.133333 2.133333-6.4 8.533333-12.8 17.066667-12.8 4.266667 0 125.866667-10.666667 211.2 110.933333 6.4 10.666667 4.266667 23.466667-6.4 29.866667-10.666667 6.4-23.466667 4.266667-29.866667-6.4-55.466667-81.066667-128-91.733333-157.866666-93.866667-6.4 27.733333-12.8 93.866667 34.133333 177.066667 14.933333 25.6 17.066667 61.866667 4.266667 104.533333-38.4 136.533333-213.333333 356.266667-309.333334 435.2C128 945.066667 275.2 981.333333 512 981.333333c12.8 0 21.333333 8.533333 21.333333 21.333334s-8.533333 21.333333-21.333333 21.333333z"  /><path fill="#333333" d="M358.4 206.933333c-12.8 0-21.333333-8.533333-21.333333-21.333333V21.333333c0-12.8 8.533333-21.333333 21.333333-21.333333s21.333333 8.533333 21.333333 21.333333v164.266667c0 10.666667-10.666667 21.333333-21.333333 21.333333zM512 1024c-12.8 0-21.333333-8.533333-21.333333-21.333333s8.533333-21.333333 21.333333-21.333334c238.933333 0 384-36.266667 445.866667-57.6-96-81.066667-270.933333-298.666667-309.333334-435.2-12.8-44.8-10.666667-78.933333 4.266667-104.533333 46.933333-81.066667 40.533333-149.333333 34.133333-177.066667-29.866667 2.133333-102.4 12.8-157.866666 93.866667-6.4 10.666667-19.2 12.8-29.866667 6.4-10.666667-6.4-12.8-19.2-6.4-29.866667 85.333333-123.733333 204.8-113.066667 211.2-110.933333 8.533333 0 14.933333 6.4 17.066667 12.8 2.133333 4.266667 40.533333 102.4-32 226.133333-8.533333 14.933333-8.533333 40.533333 0 72.533334 42.666667 153.6 260.266667 401.066667 324.266666 435.2 6.4 4.266667 10.666667 10.666667 10.666667 19.2s-4.266667 14.933333-12.8 19.2c-6.4 2.133333-162.133333 72.533333-499.2 72.533333z"  /><path fill="#333333" d="M665.6 206.933333c-12.8 0-21.333333-8.533333-21.333333-21.333333V21.333333c0-12.8 8.533333-21.333333 21.333333-21.333333s21.333333 8.533333 21.333333 21.333333v164.266667c0 10.666667-8.533333 21.333333-21.333333 21.333333z"  /></svg>