<?xml version="1.0" standalone="no"?><!DOCTYPE svg PUBLIC "-//W3C//DTD SVG 1.1//EN" "http://www.w3.org/Graphics/SVG/1.1/DTD/svg11.dtd"><svg class="icon" width="200px" height="200.00px" viewBox="0 0 1024 1024" version="1.1" xmlns="http://www.w3.org/2000/svg"><path fill="#333333" d="M522.661114 1024h-23.454451c-59.702238 0-213.22228-12.793337-351.816762-121.5367-4.264446-4.264446-8.528891-10.661114-8.528891-17.057782 0-27.718896-17.057782-703.633524 185.503384-880.608017 8.528891-6.396668 19.190005-6.396668 27.718896 0 0 0 76.760021 57.570016 159.91671 59.702239 81.024466-2.132223 157.784487-59.702238 157.784487-59.702239 8.528891-6.396668 19.190005-6.396668 27.718897 0 202.561166 176.974492 187.635606 852.88912 185.503383 880.608017 0 6.396668-2.132223 12.793337-8.528891 17.057782-138.594482 108.743363-292.114524 121.5367-351.816762 121.5367z m-10.661114-42.644456h12.793337c53.30557 0 189.767829-10.661114 317.701197-106.61114 2.132223-83.156689 4.264446-656.724623-159.91671-827.302447-29.851119 21.322228-95.950026 57.570016-170.577824 59.702239-74.627798-2.132223-140.726705-40.512233-170.577824-59.702239-162.048933 170.577824-159.91671 744.145757-157.784487 827.302447 127.933368 95.950026 264.395627 106.61114 317.701197 106.61114h10.661114z" /></svg>