<?xml version="1.0" standalone="no"?><!DOCTYPE svg PUBLIC "-//W3C//DTD SVG 1.1//EN" "http://www.w3.org/Graphics/SVG/1.1/DTD/svg11.dtd"><svg class="icon" width="200px" height="200.00px" viewBox="0 0 1024 1024" version="1.1" xmlns="http://www.w3.org/2000/svg"><path fill="#333333" d="M610.54208 957.866667c-6.4 0-12.8-2.133333-17.066667-8.533334L512.408747 838.4l-81.066667 110.933333c-4.266667 6.4-14.933333 10.666667-23.466667 8.533334L15.34208 853.333333c-10.666667-2.133333-17.066667-14.933333-14.933333-25.6L171.075413 83.2c2.133333-10.666667 10.666667-17.066667 21.333334-17.066667h640c10.666667 0 19.2 6.4 21.333333 17.066667l170.666667 744.533333c2.133333 10.666667-4.266667 23.466667-14.933334 25.6l-392.533333 104.533334h-6.4zM512.408747 780.8c6.4 0 12.8 4.266667 17.066666 8.533333l89.6 123.733334 358.4-96-162.133333-708.266667H209.475413L47.34208 817.066667 405.74208 913.066667l89.6-123.733334c4.266667-6.4 10.666667-8.533333 17.066667-8.533333z"  /><path fill="#333333" d="M853.74208 273.066667H171.075413c-12.8 0-21.333333-8.533333-21.333333-21.333334s8.533333-21.333333 21.333333-21.333333h682.666667c12.8 0 21.333333 8.533333 21.333333 21.333333s-8.533333 21.333333-21.333333 21.333334z"  /></svg>