<?xml version="1.0" standalone="no"?><!DOCTYPE svg PUBLIC "-//W3C//DTD SVG 1.1//EN" "http://www.w3.org/Graphics/SVG/1.1/DTD/svg11.dtd"><svg class="icon" width="200px" height="200.00px" viewBox="0 0 1024 1024" version="1.1" xmlns="http://www.w3.org/2000/svg"><path fill="#333333" d="M1002.666667 1024h-136.533334c-10.666667 0-19.2-8.533333-21.333333-19.2l-72.533333-494.933333c-27.733333 194.133333-2.133333 450.133333 0 486.4v6.4c0 12.8-8.533333 21.333333-21.333334 21.333333H270.933333c-6.4 0-12.8-2.133333-14.933333-6.4-4.266667-4.266667-6.4-10.666667-4.266667-17.066667 0-4.266667 32-281.6 2.133334-490.666666L179.2 1004.8c-2.133333 10.666667-10.666667 19.2-21.333333 19.2H21.333333c-6.4 0-12.8-2.133333-17.066666-6.4s-4.266667-12.8-4.266667-17.066667L125.866667 140.8c0-6.4 4.266667-12.8 10.666666-14.933333L377.6 4.266667c6.4-4.266667 14.933333-2.133333 21.333333 0 6.4 2.133333 8.533333 10.666667 8.533334 17.066666 0 6.4 4.266667 68.266667 104.533333 68.266667 102.4 0 104.533333-66.133333 104.533333-68.266667 0-6.4 4.266667-14.933333 10.666667-19.2 6.4-4.266667 14.933333-4.266667 21.333333 0l241.066667 121.6c6.4 2.133333 10.666667 8.533333 10.666667 14.933334L1024 1000.533333c0 6.4 0 12.8-4.266667 17.066667-4.266667 4.266667-10.666667 6.4-17.066666 6.4z m-119.466667-42.666667h93.866667L857.6 157.866667l-206.933333-104.533334C640 85.333333 605.866667 132.266667 512 132.266667S384 85.333333 371.2 53.333333L166.4 157.866667 46.933333 981.333333h93.866667l85.333333-590.933333c2.133333-10.666667 8.533333-17.066667 19.2-19.2 10.666667 0 19.2 4.266667 21.333334 14.933333 61.866667 183.466667 36.266667 505.6 27.733333 595.2h435.2c-8.533333-89.6-34.133333-411.733333 27.733333-595.2 2.133333-8.533333 12.8-14.933333 21.333334-14.933333 10.666667 0 17.066667 8.533333 19.2 19.2l85.333333 590.933333z" /></svg>