<?xml version="1.0" standalone="no"?><!DOCTYPE svg PUBLIC "-//W3C//DTD SVG 1.1//EN" "http://www.w3.org/Graphics/SVG/1.1/DTD/svg11.dtd"><svg class="icon" width="200px" height="200.00px" viewBox="0 0 1024 1024" version="1.1" xmlns="http://www.w3.org/2000/svg"><path fill="#333333" d="M1002.666667 1011.2H603.733333c-8.533333 0-17.066667-6.4-19.2-14.933333l-72.533333-192-70.4 194.133333c-2.133333 8.533333-10.666667 14.933333-19.2 14.933333H21.333333c-6.4 0-12.8-2.133333-14.933333-6.4-4.266667-6.4-6.4-12.8-6.4-19.2L108.8 32c2.133333-10.666667 10.666667-19.2 21.333333-19.2h763.733334c10.666667 0 19.2 8.533333 21.333333 19.2L1024 987.733333c0 6.4-2.133333 12.8-4.266667 17.066667s-10.666667 6.4-17.066666 6.4z m-384-42.666667h360.533333L874.666667 55.466667H149.333333L44.8 968.533333H405.333333l85.333334-234.666666c2.133333-8.533333 10.666667-14.933333 19.2-14.933334s17.066667 6.4 19.2 14.933334l89.6 234.666666z"  /><path fill="#333333" d="M891.733333 251.733333H132.266667c-12.8 0-21.333333-8.533333-21.333334-21.333333s8.533333-21.333333 21.333334-21.333333h761.6c12.8 0 21.333333 8.533333 21.333333 21.333333s-10.666667 21.333333-23.466667 21.333333z"  /></svg>