<?xml version="1.0" standalone="no"?><!DOCTYPE svg PUBLIC "-//W3C//DTD SVG 1.1//EN" "http://www.w3.org/Graphics/SVG/1.1/DTD/svg11.dtd"><svg class="icon" width="200px" height="200.00px" viewBox="0 0 1024 1024" version="1.1" xmlns="http://www.w3.org/2000/svg"><path fill="#333333" d="M512 893.866667C157.866667 893.866667 12.8 776.533333 8.533333 770.133333c-8.533333-6.4-10.666667-17.066667-6.4-25.6L200.533333 341.333333V151.466667c0-12.8 8.533333-21.333333 21.333334-21.333334H512c12.8 0 21.333333 8.533333 21.333333 21.333334s-8.533333 21.333333-21.333333 21.333333H243.2v172.8c0 4.266667 0 6.4-2.133333 8.533333L49.066667 746.666667c42.666667 27.733333 185.6 102.4 462.933333 102.4 12.8 0 21.333333 8.533333 21.333333 21.333333s-8.533333 23.466667-21.333333 23.466667z"  /><path fill="#333333" d="M512 893.866667c-12.8 0-21.333333-8.533333-21.333333-21.333334s8.533333-21.333333 21.333333-21.333333c279.466667 0 422.4-76.8 462.933333-102.4l-192-392.533333c-2.133333-2.133333-2.133333-6.4-2.133333-8.533334V172.8H512c-12.8 0-21.333333-8.533333-21.333333-21.333333s8.533333-21.333333 21.333333-21.333334h290.133333c12.8 0 21.333333 8.533333 21.333334 21.333334V341.333333l198.4 403.2c4.266667 8.533333 2.133333 19.2-6.4 25.6-4.266667 6.4-149.333333 123.733333-503.466667 123.733334z"  /><path fill="#333333" d="M520.533333 416c-170.666667 0-298.666667-46.933333-305.066666-49.066667-10.666667-4.266667-17.066667-17.066667-12.8-27.733333 4.266667-10.666667 17.066667-17.066667 27.733333-12.8 2.133333 0 283.733333 104.533333 565.333333 0 10.666667-4.266667 23.466667 2.133333 27.733334 12.8 4.266667 10.666667-2.133333 23.466667-12.8 27.733333-102.4 36.266667-202.666667 49.066667-290.133334 49.066667zM512 881.066667c-12.8 0-21.333333-8.533333-21.333333-21.333334V704c0-12.8 8.533333-21.333333 21.333333-21.333333s21.333333 8.533333 21.333333 21.333333v155.733333c0 10.666667-8.533333 21.333333-21.333333 21.333334z"  /><path fill="#333333" d="M221.866667 851.2h-6.4c-10.666667-2.133333-19.2-14.933333-14.933334-25.6l46.933334-174.933333c2.133333-10.666667 14.933333-19.2 25.6-14.933334 10.666667 2.133333 19.2 14.933333 14.933333 25.6l-46.933333 174.933334c-2.133333 10.666667-10.666667 14.933333-19.2 14.933333zM802.133333 851.2c-8.533333 0-17.066667-6.4-21.333333-14.933333L736 661.333333c-2.133333-10.666667 4.266667-23.466667 14.933333-25.6 10.666667-2.133333 23.466667 4.266667 25.6 14.933334l46.933334 174.933333c2.133333 10.666667-4.266667 23.466667-14.933334 25.6h-6.4z"  /></svg>