<?xml version="1.0" standalone="no"?><!DOCTYPE svg PUBLIC "-//W3C//DTD SVG 1.1//EN" "http://www.w3.org/Graphics/SVG/1.1/DTD/svg11.dtd"><svg class="icon" width="200px" height="200.00px" viewBox="0 0 1024 1024" version="1.1" xmlns="http://www.w3.org/2000/svg"><path fill="#333333" d="M411.733333 153.6c-12.8 0-21.333333-8.533333-21.333333-21.333333V21.333333c0-12.8 8.533333-21.333333 21.333333-21.333333s21.333333 8.533333 21.333334 21.333333v110.933334c0 12.8-8.533333 21.333333-21.333334 21.333333z"  /><path fill="#333333" d="M512 1024c-136.533333 0-236.8-10.666667-298.666667-32-59.733333-21.333333-64-44.8-64-51.2 0-6.4 4.266667-14.933333 10.666667-17.066667 157.866667-100.266667 217.6-492.8 226.133333-550.4-42.666667-74.666667-55.466667-138.666667-40.533333-189.866666 14.933333-49.066667 51.2-68.266667 53.333333-68.266667 4.266667-2.133333 6.4-2.133333 10.666667-2.133333 46.933333 2.133333 83.2 23.466667 102.4 36.266666 19.2-12.8 55.466667-34.133333 102.4-38.4 4.266667 0 8.533333 0 10.666667 2.133334 2.133333 0 38.4 19.2 53.333333 68.266666 14.933333 51.2 2.133333 115.2-40.533333 189.866667 8.533333 57.6 68.266667 452.266667 226.133333 550.4 8.533333 4.266667 12.8 14.933333 8.533333 25.6-4.266667 19.2-49.066667 76.8-360.533333 76.8zM204.8 942.933333c29.866667 14.933333 106.666667 38.4 307.2 38.4s279.466667-25.6 307.2-38.4c-168.533333-138.666667-221.866667-554.666667-224-573.866666 0-4.266667 0-8.533333 2.133333-12.8 38.4-66.133333 53.333333-121.6 40.533334-162.133334-6.4-23.466667-19.2-34.133333-27.733334-40.533333-49.066667 6.4-85.333333 36.266667-85.333333 36.266667-8.533333 8.533333-21.333333 6.4-29.866667 0 0 0-34.133333-29.866667-85.333333-36.266667-6.4 4.266667-21.333333 17.066667-27.733333 40.533333-10.666667 40.533333 2.133333 96 40.533333 160 2.133333 4.266667 4.266667 8.533333 2.133333 12.8 2.133333 21.333333-51.2 437.333333-219.733333 576z"  /><path fill="#333333" d="M612.266667 153.6c-12.8 0-21.333333-8.533333-21.333334-21.333333V21.333333c0-12.8 8.533333-21.333333 21.333334-21.333333s21.333333 8.533333 21.333333 21.333333v110.933334c0 12.8-10.666667 21.333333-21.333333 21.333333z"  /></svg>