<?xml version="1.0" standalone="no"?><!DOCTYPE svg PUBLIC "-//W3C//DTD SVG 1.1//EN" "http://www.w3.org/Graphics/SVG/1.1/DTD/svg11.dtd"><svg class="icon" width="200px" height="200.00px" viewBox="0 0 1024 1024" version="1.1" xmlns="http://www.w3.org/2000/svg"><path fill="#333333" d="M978.944 51.2a33.536 33.536 0 0 0-42.496-3.328l-130.816 90.88-10.752-10.752a33.28 33.28 0 0 0-47.104 0l-83.712 83.712a116.736 116.736 0 0 0-133.12 14.848l-486.4 429.568a33.28 33.28 0 0 0-1.536 48.64L311.552 972.8a33.28 33.28 0 0 0 23.552 9.728 33.28 33.28 0 0 0 23.808-10.496l440.576-472.576a115.968 115.968 0 0 0 16.64-136.192l83.456-83.456a33.28 33.28 0 0 0 0-47.104l85.76-138.24A33.536 33.536 0 0 0 978.944 51.2zM334.336 900.608l-217.856-217.856 166.912-147.712c4.096 27.136 10.496 63.488 19.712 102.4 22.272 93.696 51.2 161.792 87.808 202.752z m416.256-446.72L436.736 790.784c-57.344-70.912-86.016-241.92-92.928-309.248l230.4-204.8a51.2 51.2 0 0 1 65.792-1.28 33.536 33.536 0 0 0 3.584 4.352L747.776 384l4.608 3.84a49.408 49.408 0 0 1-1.792 66.048z m21.248-141.056L714.752 256l56.576-56.576L828.672 256z m92.928-114.944l-25.6-25.6 72.96-51.2z"  /></svg>