<?xml version="1.0" standalone="no"?><!DOCTYPE svg PUBLIC "-//W3C//DTD SVG 1.1//EN" "http://www.w3.org/Graphics/SVG/1.1/DTD/svg11.dtd"><svg class="icon" width="200px" height="199.61px" viewBox="0 0 1026 1024" version="1.1" xmlns="http://www.w3.org/2000/svg"><path fill="#333333" d="M421.08864 900.266667L43.48864 868.266667c-8.533333 0-14.933333-6.4-19.2-14.933334-2.133333-6.4-81.066667-230.4 57.6-712.533333 2.133333-8.533333 10.666667-14.933333 21.333333-14.933333h821.333334c8.533333 0 17.066667 6.4 21.333333 14.933333 136.533333 484.266667 59.733333 706.133333 55.466667 714.666667-2.133333 8.533333-10.666667 12.8-19.2 14.933333l-375.466667 29.866667c-6.4 0-12.8-2.133333-17.066667-6.4L512.821973 817.066667l-76.8 76.8c-4.266667 4.266667-8.533333 6.4-14.933333 6.4zM62.68864 827.733333l352 27.733334 85.333333-85.333334c4.266667-4.266667 8.533333-6.4 14.933334-6.4 6.4 0 10.666667 2.133333 14.933333 6.4l85.333333 85.333334 352-27.733334c12.8-51.2 53.333333-266.666667-55.466666-661.333333h-789.333334c-113.066667 394.666667-74.666667 610.133333-59.733333 661.333333z"  /><path fill="#333333" d="M512.821973 806.4c-102.4 0-187.733333-104.533333-187.733333-232.533333 0-12.8 8.533333-21.333333 21.333333-21.333334s21.333333 8.533333 21.333334 21.333334c0 104.533333 64 189.866667 145.066666 189.866666s145.066667-85.333333 145.066667-189.866666c0-12.8 8.533333-21.333333 21.333333-21.333334s21.333333 8.533333 21.333334 21.333334c0 128-85.333333 232.533333-187.733334 232.533333zM948.021973 279.466667H77.621973c-12.8 0-21.333333-8.533333-21.333333-21.333334s8.533333-21.333333 21.333333-21.333333h868.266667c12.8 0 21.333333 8.533333 21.333333 21.333333s-8.533333 21.333333-19.2 21.333334z"  /></svg>