<?xml version="1.0" standalone="no"?><!DOCTYPE svg PUBLIC "-//W3C//DTD SVG 1.1//EN" "http://www.w3.org/Graphics/SVG/1.1/DTD/svg11.dtd"><svg class="icon" width="200px" height="200.00px" viewBox="0 0 1024 1024" version="1.1" xmlns="http://www.w3.org/2000/svg"><path fill="#333333" d="M328.448 244.992a83.712 83.712 0 0 0-167.68 0v57.856a27.136 27.136 0 0 0-5.376 17.408l21.76 609.024a27.136 27.136 0 0 0 27.136 25.6h80.384a27.136 27.136 0 0 0 27.136-25.6L332.8 320.256a27.136 27.136 0 0 0-5.376-17.408z m-117.504 102.4h67.584l-1.792 47.104H212.48zM244.736 204.8a40.192 40.192 0 0 1 40.192 40.192v47.104H204.8V244.992A40.192 40.192 0 0 1 244.736 204.8zM230.4 900.864l-16.384-458.24h60.672l-16.384 458.24zM863.232 308.48V166.656a21.76 21.76 0 0 0-30.208-20.224l-111.872 46.336a21.76 21.76 0 0 0-13.568 20.224v96.256a27.136 27.136 0 0 0-4.864 16.64l18.176 563.2a64.768 64.768 0 1 0 129.28 0l18.176-563.2a27.136 27.136 0 0 0-5.12-17.408z m-105.216 43.52h55.04l-1.28 41.472h-51.2z m61.44-153.6v98.304h-68.096v-69.12zM785.664 901.12c-4.608 0-9.984-5.632-10.24-13.824l-14.336-444.672h49.152l-14.336 444.672c-0.256 8.704-5.632 13.824-10.24 13.824zM685.056 131.072c-102.4-74.496-190.208-69.12-246.272-51.2a250.88 250.88 0 0 0-98.304 57.6 25.6 25.6 0 0 0-3.328 29.696l94.464 155.136a27.136 27.136 0 0 0 0 3.584l18.176 563.2a64.768 64.768 0 1 0 129.28 0l18.176-563.2a27.136 27.136 0 0 0-1.28-9.216L691.2 163.84a25.6 25.6 0 0 0-6.144-32.768zM486.4 352.256h55.04l-1.28 41.472h-51.2z m27.904 548.864c-4.608 0-9.984-5.632-10.24-13.824l-14.336-444.672h49.152l-14.336 444.672c-0.256 8.704-5.376 13.824-10.24 13.824z m35.584-603.648h-76.8l-83.2-138.24c33.792-25.6 125.952-78.848 247.552-1.536z"  /></svg>