<?xml version="1.0" standalone="no"?><!DOCTYPE svg PUBLIC "-//W3C//DTD SVG 1.1//EN" "http://www.w3.org/Graphics/SVG/1.1/DTD/svg11.dtd"><svg class="icon" width="200px" height="200.00px" viewBox="0 0 1024 1024" version="1.1" xmlns="http://www.w3.org/2000/svg"><path fill="#333333" d="M512 155.733333c-12.8 0-21.333333-8.533333-21.333333-21.333333V102.4c0-12.8 8.533333-21.333333 21.333333-21.333333 10.666667 0 19.2-8.533333 19.2-19.2S522.666667 42.666667 512 42.666667s-19.2 8.533333-19.2 19.2c0 12.8-8.533333 21.333333-21.333333 21.333333s-21.333333-8.533333-21.333334-21.333333C450.133333 27.733333 477.866667 0 512 0c34.133333 0 61.866667 27.733333 61.866667 61.866667 0 27.733333-17.066667 49.066667-40.533334 57.6v14.933333c0 12.8-8.533333 21.333333-21.333333 21.333333z"  /><path fill="#333333" d="M512 275.2h-140.8c-32 0-55.466667-10.666667-68.266667-29.866667-19.2-29.866667-4.266667-66.133333-2.133333-70.4 2.133333-4.266667 6.4-8.533333 12.8-10.666666 6.4-2.133333 10.666667-2.133333 17.066667 2.133333 32 17.066667 119.466667-14.933333 170.666666-40.533333 10.666667-6.4 23.466667-2.133333 27.733334 8.533333s2.133333 23.466667-8.533334 27.733333c-12.8 8.533333-115.2 59.733333-183.466666 49.066667 0 4.266667 0 8.533333 2.133333 10.666667 4.266667 6.4 14.933333 8.533333 32 8.533333H512c12.8 0 21.333333 8.533333 21.333333 21.333333s-8.533333 23.466667-21.333333 23.466667z"  /><path fill="#333333" d="M652.8 275.2H512c-12.8 0-21.333333-8.533333-21.333333-21.333333s8.533333-21.333333 21.333333-21.333334h140.8c17.066667 0 27.733333-4.266667 32-8.533333 2.133333-2.133333 2.133333-6.4 2.133333-10.666667-68.266667 10.666667-170.666667-42.666667-185.6-49.066666-10.666667-6.4-14.933333-19.2-8.533333-27.733334 6.4-10.666667 19.2-14.933333 27.733333-8.533333 49.066667 25.6 138.666667 57.6 170.666667 40.533333 4.266667-2.133333 10.666667-2.133333 17.066667-2.133333 6.4 2.133333 10.666667 6.4 12.8 10.666667 2.133333 4.266667 17.066667 40.533333-2.133334 70.4-10.666667 17.066667-34.133333 27.733333-66.133333 27.733333zM631.466667 1024H392.533333c-12.8 0-21.333333-8.533333-21.333333-21.333333V659.2c0-6.4 2.133333-10.666667 6.4-14.933333 2.133333-2.133333 59.733333-64 19.2-142.933334-53.333333-102.4-23.466667-149.333333-19.2-153.6l2.133333-2.133333c2.133333-2.133333 55.466667-53.333333 134.4-53.333333s132.266667 51.2 134.4 53.333333l2.133334 2.133333c4.266667 4.266667 34.133333 51.2-19.2 153.6-40.533333 76.8 14.933333 138.666667 19.2 142.933334 4.266667 4.266667 6.4 8.533333 6.4 14.933333V1002.666667c-4.266667 12.8-12.8 21.333333-25.6 21.333333z m-217.6-42.666667h196.266666V665.6c-4.266667-4.266667-8.533333-10.666667-12.8-19.2-19.2-29.866667-44.8-93.866667-6.4-164.266667 36.266667-68.266667 25.6-100.266667 23.466667-106.666666-8.533333-8.533333-49.066667-38.4-102.4-38.4-55.466667 0-93.866667 29.866667-102.4 38.4-2.133333 6.4-12.8 38.4 23.466667 106.666666 40.533333 78.933333 8.533333 151.466667-19.2 185.6V981.333333z"  /><path fill="#333333" d="M413.866667 358.4c-12.8 0-21.333333-8.533333-21.333334-21.333333V140.8c0-12.8 8.533333-21.333333 21.333334-21.333333s21.333333 8.533333 21.333333 21.333333v196.266667c0 12.8-8.533333 21.333333-21.333333 21.333333zM610.133333 358.4c-12.8 0-21.333333-8.533333-21.333333-21.333333V140.8c0-12.8 8.533333-21.333333 21.333333-21.333333s21.333333 8.533333 21.333334 21.333333v196.266667c0 12.8-10.666667 21.333333-21.333334 21.333333z"  /></svg>