<?xml version="1.0" standalone="no"?><!DOCTYPE svg PUBLIC "-//W3C//DTD SVG 1.1//EN" "http://www.w3.org/Graphics/SVG/1.1/DTD/svg11.dtd"><svg class="icon" width="200px" height="200.00px" viewBox="0 0 1024 1024" version="1.1" xmlns="http://www.w3.org/2000/svg"><path fill="#333333" d="M294.4 228.266667c-12.8 0-21.333333-8.533333-21.333333-21.333334V21.333333c0-12.8 8.533333-21.333333 21.333333-21.333333s21.333333 8.533333 21.333333 21.333333v185.6c0 12.8-10.666667 21.333333-21.333333 21.333334z"  /><path fill="#333333" d="M825.6 1024H198.4c-6.4 0-12.8-2.133333-14.933333-6.4-4.266667-4.266667-6.4-10.666667-6.4-17.066667 2.133333-10.666667 27.733333-260.266667 106.666666-360.533333 17.066667-23.466667 25.6-44.8 23.466667-68.266667-4.266667-44.8-46.933333-81.066667-49.066667-81.066666-2.133333-2.133333-4.266667-4.266667-6.4-8.533334-4.266667-8.533333-89.6-200.533333 17.066667-277.333333 2.133333-2.133333 6.4-2.133333 8.533333-4.266667 0 0 10.666667-2.133333 25.6-2.133333 42.666667 0 140.8 14.933333 209.066667 136.533333 68.266667-123.733333 166.4-136.533333 209.066667-136.533333 14.933333 0 23.466667 2.133333 25.6 2.133333 2.133333 0 6.4 2.133333 8.533333 4.266667 106.666667 76.8 19.2 268.8 17.066667 277.333333-2.133333 2.133333-4.266667 6.4-6.4 8.533334 0 0-42.666667 34.133333-49.066667 81.066666-2.133333 23.466667 4.266667 46.933333 23.466667 68.266667 81.066667 100.266667 106.666667 349.866667 106.666666 360.533333 0 6.4-2.133333 12.8-6.4 17.066667-2.133333 4.266667-8.533333 6.4-14.933333 6.4z m-603.733333-42.666667h580.266666c-8.533333-64-36.266667-241.066667-96-315.733333-25.6-32-36.266667-66.133333-32-100.266667 6.4-53.333333 46.933333-93.866667 59.733334-106.666666 21.333333-49.066667 55.466667-168.533333 0-217.6-23.466667-2.133333-136.533333-6.4-202.666667 151.466666-4.266667 8.533333-10.666667 12.8-19.2 12.8s-17.066667-4.266667-19.2-12.8c-66.133333-157.866667-179.2-153.6-202.666667-151.466666-64 53.333333-10.666667 192 0 217.6 12.8 12.8 53.333333 51.2 59.733334 104.533333 4.266667 34.133333-6.4 68.266667-32 100.266667-59.733333 76.8-87.466667 253.866667-96 317.866666z"  /><path fill="#333333" d="M729.6 228.266667c-12.8 0-21.333333-8.533333-21.333333-21.333334V21.333333c0-12.8 8.533333-21.333333 21.333333-21.333333s21.333333 8.533333 21.333333 21.333333v185.6c0 12.8-8.533333 21.333333-21.333333 21.333334zM701.866667 539.733333c-2.133333 0-4.266667 0-6.4-2.133333-192-70.4-356.266667-2.133333-358.4 0-10.666667 4.266667-23.466667 0-27.733334-10.666667-4.266667-10.666667 0-23.466667 10.666667-27.733333 6.4-2.133333 179.2-76.8 388.266667 0 10.666667 4.266667 17.066667 17.066667 12.8 27.733333-2.133333 8.533333-10.666667 12.8-19.2 12.8z"  /></svg>