<?xml version="1.0" standalone="no"?><!DOCTYPE svg PUBLIC "-//W3C//DTD SVG 1.1//EN" "http://www.w3.org/Graphics/SVG/1.1/DTD/svg11.dtd"><svg class="icon" width="200px" height="200.00px" viewBox="0 0 1024 1024" version="1.1" xmlns="http://www.w3.org/2000/svg"><path fill="#333333" d="M117.333333 661.333333c-6.4 0-10.666667-2.133333-14.933333-6.4L6.4 556.8c-6.4-8.533333-8.533333-19.2-2.133333-27.733333L256 206.933333c2.133333-4.266667 6.4-6.4 12.8-8.533333l57.6-12.8 34.133333-68.266667c4.266667-10.666667 17.066667-14.933333 27.733334-10.666666 10.666667 4.266667 14.933333 17.066667 10.666666 27.733333L358.4 213.333333c-2.133333 6.4-8.533333 10.666667-14.933333 10.666667l-59.733334 12.8-234.666666 300.8 68.266666 70.4 192-172.8c8.533333-8.533333 21.333333-6.4 29.866667 2.133333 8.533333 8.533333 6.4 21.333333-2.133333 29.866667l-206.933334 187.733333c-2.133333 4.266667-8.533333 6.4-12.8 6.4zM906.666667 661.333333c-4.266667 0-10.666667-2.133333-14.933334-6.4L684.8 469.333333c-8.533333-8.533333-8.533333-21.333333-2.133333-29.866666 8.533333-8.533333 21.333333-8.533333 29.866666-2.133334l192 172.8 68.266667-70.4-234.666667-300.8-61.866666-17.066666c-6.4-2.133333-10.666667-6.4-12.8-12.8l-32-74.666667c-4.266667-10.666667 0-23.466667 10.666666-27.733333s23.466667 0 27.733334 10.666666l27.733333 64 59.733333 17.066667c4.266667 2.133333 8.533333 4.266667 10.666667 6.4l251.733333 322.133333c6.4 8.533333 6.4 21.333333-2.133333 27.733334l-96 98.133333c-4.266667 6.4-8.533333 8.533333-14.933333 8.533333z"  /><path fill="#333333" d="M725.333333 919.466667H298.666667c-12.8 0-21.333333-8.533333-21.333334-21.333334V482.133333c0-12.8 8.533333-21.333333 21.333334-21.333333s21.333333 8.533333 21.333333 21.333333v394.666667h384V484.266667c0-12.8 8.533333-21.333333 21.333333-21.333334s21.333333 8.533333 21.333334 21.333334v413.866666c0 10.666667-10.666667 21.333333-21.333334 21.333334zM512 343.466667c-10.666667 0-19.2-6.4-21.333333-14.933334l-17.066667-61.866666L362.666667 140.8c-6.4-6.4-6.4-14.933333-4.266667-23.466667 4.266667-8.533333 10.666667-12.8 19.2-12.8h273.066667c8.533333 0 17.066667 4.266667 19.2 12.8 4.266667 8.533333 2.133333 17.066667-4.266667 23.466667L554.666667 266.666667l-23.466667 61.866666c-2.133333 8.533333-10.666667 14.933333-19.2 14.933334z m-85.333333-196.266667l83.2 91.733333c2.133333 2.133333 4.266667 6.4 4.266666 8.533334v2.133333-2.133333c0-2.133333 2.133333-4.266667 4.266667-6.4l83.2-93.866667H426.666667z"  /></svg>