<?xml version="1.0" standalone="no"?><!DOCTYPE svg PUBLIC "-//W3C//DTD SVG 1.1//EN" "http://www.w3.org/Graphics/SVG/1.1/DTD/svg11.dtd"><svg class="icon" width="200px" height="200.00px" viewBox="0 0 1024 1024" version="1.1" xmlns="http://www.w3.org/2000/svg"><path fill="#333333" d="M466.688 130.56a27.392 27.392 0 0 0 27.904-26.88A27.392 27.392 0 0 0 466.688 76.8h-177.92A82.432 82.432 0 0 0 204.8 157.44V768a82.432 82.432 0 0 0 83.968 80.64h177.92a26.88 26.88 0 1 0 0-53.76h-100.864v-56.32h100.864a26.88 26.88 0 1 0 0-53.76h-100.864v-47.104h100.864a26.88 26.88 0 1 0 0-53.76h-100.864V537.6h100.864a26.88 26.88 0 1 0 0-53.76h-100.864V435.2h100.864a26.88 26.88 0 1 0 0-53.76h-100.864v-46.336h100.864a26.88 26.88 0 1 0 0-53.76h-100.864V234.24h100.864a26.88 26.88 0 1 0 0-53.76h-100.864V130.56zM309.76 793.6h-20.992a27.392 27.392 0 0 1-27.904-25.6V157.44a27.392 27.392 0 0 1 27.904-26.88h20.992zM791.296 573.184h-3.84v-157.696a27.392 27.392 0 0 0-27.904-26.88h-10.24V230.4a25.6 25.6 0 0 0-13.056-22.784 28.928 28.928 0 0 0-27.136-1.28l-102.4 48.384a25.6 25.6 0 0 0-15.872 24.32v108.544h-2.816a27.392 27.392 0 0 0-27.904 26.88v157.952h-11.264a27.392 27.392 0 0 0-27.904 26.88v321.024A27.392 27.392 0 0 0 547.584 947.2h243.712A27.392 27.392 0 0 0 819.2 920.32V600.064a27.392 27.392 0 0 0-27.904-26.88z m-145.664-276.48l47.616-22.272v113.92h-47.616zM614.4 442.368h116.736v130.816H614.4z m148.48 451.072h-187.392V626.944h187.648z"  /></svg>