<?xml version="1.0" standalone="no"?><!DOCTYPE svg PUBLIC "-//W3C//DTD SVG 1.1//EN" "http://www.w3.org/Graphics/SVG/1.1/DTD/svg11.dtd"><svg class="icon" width="200px" height="199.61px" viewBox="0 0 1026 1024" version="1.1" xmlns="http://www.w3.org/2000/svg"><path fill="#333333" d="M512 1024H277.333333c-10.666667 0-21.333333-8.533333-21.333333-21.333333l-8.533333-360.533334-74.666667 334.933334c-2.133333 10.666667-10.666667 17.066667-21.333333 17.066666H21.333333c-6.4 0-10.666667-2.133333-14.933333-6.4-4.266667-6.4-6.4-12.8-6.4-19.2 0-2.133333 25.6-296.533333 81.066667-620.8C136.533333 6.4 369.066667 0 371.2 0c10.666667 0 19.2 6.4 21.333333 14.933333l140.8 490.666667V1002.666667c0 12.8-8.533333 21.333333-21.333333 21.333333z m-213.333333-42.666667h192V514.133333l-134.4-469.333333c-49.066667 8.533333-192 53.333333-234.666667 309.333333C76.8 625.066667 51.2 874.666667 44.8 949.333333h91.733333l110.933334-486.4c2.133333-10.666667 12.8-17.066667 23.466666-17.066666 10.666667 2.133333 19.2 10.666667 19.2 21.333333L298.666667 981.333333z"  /><path fill="#333333" d="M746.666667 1024H512c-12.8 0-21.333333-8.533333-21.333333-21.333333V509.866667v-6.4L631.466667 14.933333c2.133333-8.533333 10.666667-14.933333 21.333333-14.933333 2.133333 0 234.666667 6.4 292.266667 347.733333 53.333333 324.266667 78.933333 618.666667 81.066666 620.8 0 6.4-2.133333 12.8-6.4 17.066667-4.266667 4.266667-10.666667 6.4-14.933333 6.4h-132.266667c-10.666667 0-19.2-6.4-21.333333-17.066667L776.533333 640 768 1002.666667c0 12.8-10.666667 21.333333-21.333333 21.333333z m-213.333334-42.666667h192l10.666667-514.133333c0-10.666667 8.533333-19.2 19.2-21.333333 10.666667 0 21.333333 6.4 23.466667 17.066666l110.933333 486.4H981.333333c-6.4-74.666667-32-324.266667-76.8-595.2-42.666667-253.866667-185.6-300.8-234.666666-309.333333l-134.4 469.333333C533.333333 514.133333 533.333333 981.333333 533.333333 981.333333z"  /></svg>