<?xml version="1.0" standalone="no"?><!DOCTYPE svg PUBLIC "-//W3C//DTD SVG 1.1//EN" "http://www.w3.org/Graphics/SVG/1.1/DTD/svg11.dtd"><svg class="icon" width="200px" height="200.00px" viewBox="0 0 1024 1024" version="1.1" xmlns="http://www.w3.org/2000/svg"><path fill="#333333" d="M848.953848 1023.466944c-4.264446 0-8.528891-2.132223-12.793337-4.264445-4.264446-4.264446-8.528891-8.528891-8.528891-14.92556l-68.23113-394.461218c-21.322228 174.84227 8.528891 349.684539 8.528892 351.816762 0 6.396668 0 12.793337-4.264446 17.057782-4.264446 4.264446-10.661114 8.528891-17.057782 8.528892H277.518137c-6.396668 0-12.793337-2.132223-17.057782-8.528892-4.264446-4.264446-6.396668-10.661114-4.264446-17.057782 0-2.132223 29.851119-174.84227 8.528892-351.816762L196.493671 1006.409162c0 6.396668-4.264446 10.661114-8.528891 14.925559s-10.661114 2.132223-17.057783 2.132223L17.386956 993.615825c-10.661114-2.132223-19.190005-12.793337-17.057783-23.454451L123.998096 187.635606c0-4.264446 2.132223-6.396668 4.264445-10.661114s70.363352-89.553358 202.561166-115.140031c10.661114-2.132223 23.454451 6.396668 25.586674 17.057783 2.132223 10.661114-6.396668 23.454451-17.057782 25.586673-100.214472 19.190005-159.91671 78.892244-172.710047 93.817803L45.105852 955.235815l110.875586 21.322228 85.288912-486.146799c2.132223-10.661114 10.661114-17.057782 19.190005-17.057782 10.661114 0 19.190005 6.396668 21.322228 14.925559 49.041124 179.106715 27.718896 385.932327 19.190005 456.29568h417.915669c-10.661114-70.363352-31.983342-277.188964 19.190005-456.29568 2.132223-10.661114 10.661114-17.057782 21.322228-14.925559 10.661114 0 19.190005 8.528891 19.190006 17.057782l85.288912 486.146799 110.875585-21.322228-115.140031-756.939095c-14.92556-14.92556-72.495575-76.760021-172.710047-93.817803-10.661114-2.132223-19.190005-12.793337-17.057782-25.586673s12.793337-19.190005 25.586673-17.057783c132.197814 25.586674 200.428943 110.875586 202.561166 115.140031 2.132223 2.132223 4.264446 6.396668 4.264446 10.661114L1023.796118 970.161374c2.132223 10.661114-6.396668 21.322228-17.057783 23.454451L853.218294 1023.466944h-4.264446z"  /><path fill="#333333" d="M281.782583 349.684539c-4.264446 0-6.396668 0-10.661114-2.132222-6.396668-4.264446-8.528891-8.528891-10.661114-14.92556 0-6.396668-23.454451-170.577824 72.495575-266.52785 42.644456-42.644456 100.214472-63.966684 172.710047-66.098907H518.459314c72.495575 2.132223 130.065591 23.454451 172.710047 66.098907 98.082249 95.950026 74.627798 260.131182 72.495575 266.52785 0 6.396668-4.264446 12.793337-10.661114 14.92556-6.396668 4.264446-12.793337 4.264446-19.190005 2.132222l-170.577824-68.231129c-6.396668-2.132223-10.661114-6.396668-12.793337-12.793337-2.132223-6.396668 0-12.793337 2.132223-17.057783 25.586674-40.512233 34.115565-70.363352 23.454451-89.553357-10.661114-29.851119-55.437793-34.115565-63.966685-34.115565-8.528891 0-53.30557 4.264446-66.098906 29.851119-10.661114 19.190005-2.132223 51.173347 23.45445 89.553358 4.264446 4.264446 4.264446 12.793337 2.132223 17.057782-2.132223 6.396668-6.396668 10.661114-12.793337 12.793337l-170.577824 68.23113c-2.132223 4.264446-4.264446 4.264446-6.396668 4.264445zM512.062645 42.644456c-2.132223 0-2.132223 0 0 0-63.966684 2.132223-113.007808 19.190005-149.255596 53.30557-59.702238 59.702238-66.098907 155.652264-63.966684 202.561166l121.5367-49.041124c-23.454451-44.776679-27.718896-81.024466-12.793337-110.875586 23.454451-46.908902 85.288912-53.30557 102.346695-53.30557h2.132222c19.190005 0 78.892244 8.528891 102.346695 53.30557 14.92556 29.851119 10.661114 66.098907-12.793337 110.875586L725.284926 298.511192c2.132223-46.908902-2.132223-142.858928-63.966684-202.561166-34.115565-34.115565-85.288912-51.173347-147.123374-53.30557H512.062645z"  /><path fill="#333333" d="M512.062645 496.807913c-8.528891 0-17.057782-6.396668-19.190005-14.92556l-74.627798-211.090057c-4.264446-10.661114 2.132223-23.454451 12.793337-27.718897 10.661114-4.264446 23.454451 2.132223 27.718896 12.793337l53.30557 153.520042 53.30557-153.520042c4.264446-10.661114 17.057782-17.057782 27.718897-12.793337 10.661114 4.264446 17.057782 17.057782 12.793337 27.718897l-74.627798 211.090057c-2.132223 10.661114-10.661114 14.92556-19.190006 14.92556zM512.062645 629.005726c-12.793337 0-21.322228-8.528891-21.322228-21.322228v-14.925559c0-12.793337 8.528891-21.322228 21.322228-21.322228s21.322228 8.528891 21.322228 21.322228v14.925559c0 12.793337-8.528891 21.322228-21.322228 21.322228zM512.062645 756.939094c-12.793337 0-21.322228-8.528891-21.322228-21.322228v-14.925559c0-12.793337 8.528891-21.322228 21.322228-21.322228s21.322228 8.528891 21.322228 21.322228v14.925559c0 12.793337-8.528891 21.322228-21.322228 21.322228zM512.062645 884.872462c-12.793337 0-21.322228-8.528891-21.322228-21.322228v-14.925559c0-12.793337 8.528891-21.322228 21.322228-21.322228s21.322228 8.528891 21.322228 21.322228v14.925559c0 12.793337-8.528891 21.322228-21.322228 21.322228z"  /></svg>