<?xml version="1.0" standalone="no"?><!DOCTYPE svg PUBLIC "-//W3C//DTD SVG 1.1//EN" "http://www.w3.org/Graphics/SVG/1.1/DTD/svg11.dtd"><svg class="icon" width="200px" height="200.00px" viewBox="0 0 1024 1024" version="1.1" xmlns="http://www.w3.org/2000/svg"><path fill="#333333" d="M512 1024H281.6c-12.8 0-21.333333-8.533333-21.333333-21.333333V403.2c0-10.666667 6.4-19.2 17.066666-21.333333 0 0 113.066667-36.266667 81.066667-358.4 0-6.4 2.133333-12.8 6.4-17.066667s8.533333-6.4 14.933333-6.4h55.466667c10.666667 0 19.2 8.533333 21.333333 19.2l10.666667 96H512c12.8 0 21.333333 8.533333 21.333333 21.333333s-8.533333 21.333333-21.333333 21.333334h-64c-10.666667 0-19.2-8.533333-21.333333-19.2L416 42.666667h-12.8C426.666667 320 341.333333 396.8 302.933333 418.133333V981.333333H512c12.8 0 21.333333 8.533333 21.333333 21.333334s-8.533333 21.333333-21.333333 21.333333z"  /><path fill="#333333" d="M281.6 618.666667c-10.666667 0-19.2-8.533333-21.333333-19.2-2.133333-10.666667 6.4-21.333333 19.2-23.466667 153.6-19.2 142.933333-151.466667 142.933333-157.866667 0-10.666667 8.533333-21.333333 19.2-23.466666 12.8-2.133333 21.333333 6.4 23.466667 19.2 0 2.133333 14.933333 179.2-179.2 204.8h-4.266667zM742.4 1024H512c-12.8 0-21.333333-8.533333-21.333333-21.333333s8.533333-21.333333 21.333333-21.333334h209.066667V418.133333C682.666667 396.8 597.333333 320 620.8 42.666667h-12.8L597.333333 138.666667c-2.133333 10.666667-10.666667 19.2-21.333333 19.2h-64c-12.8 0-21.333333-8.533333-21.333333-21.333334s8.533333-21.333333 21.333333-21.333333h44.8l10.666667-96c2.133333-10.666667 10.666667-19.2 21.333333-19.2h55.466667c6.4 0 12.8 2.133333 14.933333 6.4s6.4 10.666667 6.4 17.066667c-32 324.266667 78.933333 358.4 81.066667 358.4 10.666667 2.133333 17.066667 10.666667 17.066666 21.333333V1002.666667c0 12.8-10.666667 21.333333-21.333333 21.333333z"  /><path fill="#333333" d="M742.4 618.666667h-2.133333c-194.133333-25.6-179.2-202.666667-179.2-204.8 2.133333-10.666667 10.666667-21.333333 23.466666-19.2 10.666667 2.133333 21.333333 10.666667 19.2 23.466666 0 6.4-10.666667 138.666667 142.933334 157.866667 10.666667 2.133333 19.2 12.8 19.2 23.466667-4.266667 10.666667-14.933333 19.2-23.466667 19.2z"  /></svg>