<?xml version="1.0" standalone="no"?><!DOCTYPE svg PUBLIC "-//W3C//DTD SVG 1.1//EN" "http://www.w3.org/Graphics/SVG/1.1/DTD/svg11.dtd"><svg class="icon" width="200px" height="200.00px" viewBox="0 0 1024 1024" version="1.1" xmlns="http://www.w3.org/2000/svg"><path fill="#333333" d="M811.776 128a474.624 474.624 0 0 0-227.328-76.8 76.8 76.8 0 0 0-82.176 64.256l-34.048 230.4a32.512 32.512 0 0 0-7.936 5.888L97.024 716.8a150.272 150.272 0 0 0 0 212.224 150.272 150.272 0 0 0 212.224 0L672.512 565.76l1.536-1.792 230.4-32.512a76.8 76.8 0 0 0 64.768-79.104C965.632 307.2 912.128 198.912 811.776 128zM263.424 882.944a84.992 84.992 0 0 1-120.32-120.32l193.536-193.536 120.32 120.32z m239.36-239.36l-120.32-120.32 100.608-100.608 120.32 120.32zM896 467.2l-241.152 34.048-125.184-125.184 36.864-249.856a12.032 12.032 0 0 1 12.544-9.728 460.8 460.8 0 0 1 46.592 6.144l-28.16 88.832a32.512 32.512 0 1 0 62.208 18.944l28.928-91.648a338.944 338.944 0 0 1 100.608 54.784l-76.8 76.8a32.512 32.512 0 1 0 45.568 46.336l76.8-76.8a307.2 307.2 0 0 1 51.2 99.072l-86.016 28.16a32.512 32.512 0 1 0 20.224 61.696l80.128-25.6a491.264 491.264 0 0 1 4.608 51.2 12.288 12.288 0 0 1-8.96 12.8z"  /></svg>