<?xml version="1.0" standalone="no"?><!DOCTYPE svg PUBLIC "-//W3C//DTD SVG 1.1//EN" "http://www.w3.org/Graphics/SVG/1.1/DTD/svg11.dtd"><svg class="icon" width="200px" height="200.00px" viewBox="0 0 1024 1024" version="1.1" xmlns="http://www.w3.org/2000/svg"><path fill="#333333" d="M476.14208 908.8H469.74208L15.34208 785.066667c-10.666667-2.133333-17.066667-14.933333-14.933333-25.6L156.14208 132.266667c2.133333-8.533333 10.666667-17.066667 21.333333-17.066667h672c10.666667 0 19.2 6.4 21.333334 17.066667L1024.408747 740.266667c2.133333 10.666667-4.266667 21.333333-12.8 25.6L597.74208 906.666667c-10.666667 4.266667-21.333333 0-25.6-10.666667l-49.066667-89.6-25.6 85.333333c-4.266667 10.666667-12.8 17.066667-21.333333 17.066667z m38.4-177.066667c8.533333 0 14.933333 4.266667 19.2 10.666667l66.133333 117.333333 377.6-130.133333L832.408747 157.866667H192.408747L47.34208 750.933333l413.866667 110.933334 34.133333-113.066667c2.133333-8.533333 10.666667-14.933333 17.066667-14.933333l2.133333-2.133334z"  /><path fill="#333333" d="M875.075413 262.4H149.74208c-12.8 0-21.333333-8.533333-21.333333-21.333333s8.533333-21.333333 21.333333-21.333334h725.333333c12.8 0 21.333333 8.533333 21.333334 21.333334s-10.666667 21.333333-21.333334 21.333333zM407.875413 708.266667h-4.266666l-251.733334-42.666667c-10.666667-2.133333-19.2-12.8-17.066666-23.466667L188.14208 320c0-6.4 4.266667-10.666667 8.533333-14.933333 4.266667-4.266667 10.666667-4.266667 14.933334-4.266667L463.34208 341.333333c10.666667 2.133333 19.2 12.8 17.066667 23.466667L427.075413 686.933333c0 6.4-4.266667 10.666667-8.533333 14.933334-2.133333 4.266667-6.4 6.4-10.666667 6.4zM179.608747 627.2l209.066666 34.133333 44.8-281.6-209.066666-34.133333-44.8 281.6z"  /><path fill="#333333" d="M444.14208 484.266667h-4.266667L190.275413 439.466667c-12.8-2.133333-21.333333-12.8-19.2-23.466667 2.133333-10.666667 12.8-19.2 25.6-17.066667l251.733334 42.666667c10.666667 2.133333 19.2 12.8 17.066666 25.6-2.133333 10.666667-10.666667 17.066667-21.333333 17.066667zM616.94208 708.266667c-4.266667 0-8.533333-2.133333-12.8-4.266667-4.266667-4.266667-8.533333-8.533333-8.533333-14.933333l-53.333334-322.133334c-2.133333-10.666667 6.4-23.466667 17.066667-23.466666L811.075413 302.933333c6.4 0 10.666667 0 14.933334 4.266667s8.533333 8.533333 8.533333 14.933333l53.333333 322.133334c2.133333 10.666667-6.4 23.466667-17.066666 23.466666L619.075413 708.266667h-2.133333z m-27.733333-326.4L634.008747 661.333333l209.066666-34.133333-44.8-281.6-209.066666 36.266667z"  /><path fill="#333333" d="M580.675413 484.266667c-10.666667 0-19.2-6.4-21.333333-17.066667-2.133333-10.666667 6.4-23.466667 17.066667-25.6l251.733333-44.8c10.666667-2.133333 23.466667 6.4 25.6 17.066667 2.133333 10.666667-6.4 23.466667-17.066667 25.6l-251.733333 44.8h-4.266667z"  /></svg>