<?xml version="1.0" standalone="no"?><!DOCTYPE svg PUBLIC "-//W3C//DTD SVG 1.1//EN" "http://www.w3.org/Graphics/SVG/1.1/DTD/svg11.dtd"><svg class="icon" width="200px" height="200.00px" viewBox="0 0 1024 1024" version="1.1" xmlns="http://www.w3.org/2000/svg"><path fill="#333333" d="M443.733333 1024c-4.266667 0-10.666667-2.133333-14.933333-6.4L234.666667 842.666667c-6.4-4.266667-8.533333-12.8-6.4-21.333334l142.933333-563.2-83.2-89.6c-6.4-6.4-6.4-14.933333-4.266667-23.466666L341.333333 12.8c0-8.533333 8.533333-12.8 17.066667-12.8h170.666667c8.533333 0 17.066667 4.266667 19.2 12.8l57.6 132.266667c4.266667 8.533333 2.133333 17.066667-4.266667 23.466666l-85.333333 89.6 142.933333 563.2c2.133333 8.533333 0 14.933333-6.4 21.333334l-196.266667 174.933333c-2.133333 4.266667-8.533333 6.4-12.8 6.4z m-170.666666-204.8l170.666666 153.6 170.666667-153.6L473.6 256c-2.133333-6.4 0-14.933333 4.266667-19.2L561.066667 149.333333l-46.933334-106.666666h-142.933333l-46.933333 106.666666 83.2 89.6c4.266667 4.266667 6.4 12.8 4.266666 19.2l-138.666666 561.066667z"  /><path fill="#333333" d="M721.066667 612.266667c-2.133333 0-6.4 0-8.533334-2.133334L554.666667 539.733333c-10.666667-4.266667-14.933333-17.066667-10.666667-27.733333 4.266667-10.666667 17.066667-14.933333 27.733333-10.666667l140.8 61.866667 34.133334-64-236.8-128c-10.666667-6.4-14.933333-19.2-8.533334-29.866667 6.4-10.666667 19.2-14.933333 29.866667-8.533333l256 138.666667c4.266667 2.133333 8.533333 6.4 10.666667 12.8 2.133333 6.4 0 10.666667-2.133334 17.066666l-55.466666 98.133334c-4.266667 8.533333-12.8 12.8-19.2 12.8z"  /></svg>