<?xml version="1.0" standalone="no"?><!DOCTYPE svg PUBLIC "-//W3C//DTD SVG 1.1//EN" "http://www.w3.org/Graphics/SVG/1.1/DTD/svg11.dtd"><svg class="icon" width="200px" height="200.00px" viewBox="0 0 1024 1024" version="1.1" xmlns="http://www.w3.org/2000/svg"><path fill="#333333" d="M512 177.066667c-12.8 0-21.333333-8.533333-21.333333-21.333334V117.333333c0-12.8 8.533333-21.333333 21.333333-21.333333 14.933333 0 25.6-12.8 25.6-25.6 0-14.933333-10.666667-27.733333-25.6-27.733333s-25.6 12.8-25.6 25.6-8.533333 21.333333-21.333333 21.333333-21.333333-8.533333-21.333334-21.333333C443.733333 32 473.6 0 512 0s68.266667 32 68.266667 68.266667c0 29.866667-19.2 57.6-46.933334 66.133333v21.333333c0 10.666667-8.533333 21.333333-21.333333 21.333334z"  /><path fill="#333333" d="M512 313.6h-164.266667c-36.266667 0-61.866667-10.666667-76.8-32-21.333333-32-4.266667-72.533333-2.133333-78.933333 2.133333-4.266667 8.533333-8.533333 12.8-10.666667 6.4-2.133333 12.8 0 17.066667 2.133333 40.533333 21.333333 147.2-19.2 202.666666-46.933333 10.666667-6.4 23.466667-2.133333 27.733334 8.533333s2.133333 23.466667-8.533334 27.733334c-14.933333 8.533333-140.8 70.4-217.6 55.466666 0 6.4 0 14.933333 4.266667 19.2 6.4 8.533333 19.2 12.8 40.533333 12.8H512c12.8 0 21.333333 8.533333 21.333333 21.333334s-8.533333 21.333333-21.333333 21.333333z"  /><path fill="#333333" d="M676.266667 313.6H512c-12.8 0-21.333333-8.533333-21.333333-21.333333s8.533333-21.333333 21.333333-21.333334h164.266667c12.8 0 34.133333-2.133333 40.533333-12.8 4.266667-4.266667 4.266667-12.8 4.266667-19.2-78.933333 14.933333-202.666667-46.933333-217.6-55.466666-10.666667-6.4-14.933333-19.2-8.533334-27.733334 6.4-10.666667 19.2-14.933333 27.733334-8.533333 57.6 29.866667 164.266667 68.266667 202.666666 46.933333 4.266667-2.133333 10.666667-4.266667 17.066667-2.133333 6.4 2.133333 10.666667 6.4 12.8 10.666667 2.133333 4.266667 19.2 44.8-2.133333 78.933333-14.933333 21.333333-40.533333 32-76.8 32z"  /><path fill="#333333" d="M612.266667 1024h-198.4c-10.666667 0-21.333333-8.533333-21.333334-19.2L341.333333 294.4c0-6.4 2.133333-10.666667 6.4-17.066667 4.266667-4.266667 10.666667-6.4 14.933334-6.4h298.666666c6.4 0 10.666667 2.133333 14.933334 6.4s6.4 10.666667 6.4 17.066667l-51.2 710.4c0 10.666667-8.533333 19.2-19.2 19.2z m-179.2-42.666667h160L640 313.6H386.133333L433.066667 981.333333z"  /></svg>