<?xml version="1.0" standalone="no"?><!DOCTYPE svg PUBLIC "-//W3C//DTD SVG 1.1//EN" "http://www.w3.org/Graphics/SVG/1.1/DTD/svg11.dtd"><svg class="icon" width="200px" height="200.00px" viewBox="0 0 1024 1024" version="1.1" xmlns="http://www.w3.org/2000/svg"><path fill="#333333" d="M853.333333 1024H170.666667c-12.8 0-21.333333-8.533333-21.333334-21.333333V362.666667c0-6.4 2.133333-12.8 8.533334-17.066667 115.2-93.866667 78.933333-283.733333 78.933333-285.866667-2.133333-10.666667 4.266667-19.2 12.8-23.466666l85.333333-34.133334c8.533333-4.266667 19.2 0 23.466667 6.4L512 187.733333 663.466667 8.533333c6.4-6.4 14.933333-8.533333 23.466666-6.4l85.333334 34.133334c8.533333 4.266667 14.933333 14.933333 12.8 23.466666 0 2.133333-36.266667 192 78.933333 285.866667 4.266667 4.266667 8.533333 10.666667 8.533333 17.066667v640c2.133333 12.8-8.533333 21.333333-19.2 21.333333zM192 981.333333h640V371.2C725.333333 277.333333 736 121.6 742.4 68.266667l-55.466667-23.466667-157.866666 185.6c-8.533333 8.533333-23.466667 8.533333-32 0l-157.866667-185.6-55.466667 23.466667c4.266667 53.333333 14.933333 209.066667-91.733333 302.933333V981.333333z" /></svg>