<?xml version="1.0" standalone="no"?><!DOCTYPE svg PUBLIC "-//W3C//DTD SVG 1.1//EN" "http://www.w3.org/Graphics/SVG/1.1/DTD/svg11.dtd"><svg class="icon" width="200px" height="200.00px" viewBox="0 0 1024 1024" version="1.1" xmlns="http://www.w3.org/2000/svg"><path fill="#333333" d="M512 1024c-215.466667 0-258.133333-44.8-266.666667-59.733333-2.133333-4.266667-4.266667-10.666667-2.133333-14.933334l130.133333-563.2c-40.533333-29.866667-87.466667-96-44.8-185.6 44.8-98.133333 19.2-168.533333 17.066667-172.8-2.133333-6.4-2.133333-14.933333 2.133333-19.2 4.266667-4.266667 10.666667-8.533333 17.066667-8.533333h51.2c6.4 0 12.8 4.266667 17.066667 8.533333 25.6 38.4 72.533333 32 74.666666 29.866667 10.666667-2.133333 23.466667 6.4 23.466667 17.066667 2.133333 10.666667-6.4 23.466667-17.066667 25.6-2.133333 2.133333-66.133333 12.8-108.8-38.4h-12.8c6.4 34.133333 8.533333 98.133333-27.733333 177.066666-42.666667 89.6 38.4 138.666667 42.666667 140.8 8.533333 4.266667 12.8 14.933333 10.666666 23.466667l-130.133333 565.333333c14.933333 8.533333 68.266667 32 224 32 12.8 0 21.333333 8.533333 21.333333 21.333334s-8.533333 21.333333-21.333333 21.333333z"  /><path fill="#333333" d="M512 1024c-12.8 0-21.333333-8.533333-21.333333-21.333333s8.533333-21.333333 21.333333-21.333334c153.6 0 206.933333-23.466667 224-34.133333l-130.133333-565.333333c-2.133333-8.533333 2.133333-19.2 10.666666-23.466667 8.533333-4.266667 83.2-51.2 42.666667-140.8-36.266667-76.8-32-140.8-27.733333-177.066667H618.666667c-42.666667 51.2-106.666667 40.533333-110.933334 40.533334-10.666667-2.133333-19.2-12.8-17.066666-25.6 2.133333-10.666667 12.8-19.2 25.6-17.066667 2.133333 0 49.066667 6.4 74.666666-29.866667 4.266667-4.266667 10.666667-8.533333 17.066667-8.533333h51.2c6.4 0 12.8 4.266667 17.066667 8.533333 4.266667 6.4 4.266667 12.8 2.133333 19.2-2.133333 2.133333-27.733333 72.533333 19.2 172.8 42.666667 89.6-6.4 155.733333-44.8 185.6l130.133333 563.2c2.133333 4.266667 0 10.666667-2.133333 14.933334-10.666667 14.933333-53.333333 59.733333-268.8 59.733333z"  /><path fill="#333333" d="M200.533333 311.466667c-4.266667 0-8.533333-2.133333-10.666666-4.266667-4.266667-4.266667-8.533333-8.533333-8.533334-14.933333L147.2 108.8c-2.133333-8.533333 4.266667-19.2 12.8-21.333333l187.733333-85.333334c10.666667-4.266667 23.466667 0 27.733334 10.666667 4.266667 10.666667 0 23.466667-10.666667 27.733333L192 119.466667l23.466667 145.066666 115.2-32c10.666667-2.133333 23.466667 4.266667 25.6 14.933334 2.133333 10.666667-4.266667 23.466667-14.933334 25.6l-136.533333 38.4h-4.266667zM823.466667 311.466667h-6.4l-136.533334-38.4c-10.666667-2.133333-17.066667-14.933333-14.933333-25.6 2.133333-10.666667 14.933333-17.066667 25.6-14.933334l115.2 32L832 119.466667 659.2 42.666667c-10.666667-4.266667-14.933333-17.066667-10.666667-27.733334 4.266667-10.666667 17.066667-14.933333 27.733334-10.666666l187.733333 85.333333c8.533333 4.266667 12.8 12.8 12.8 23.466667L844.8 298.666667c0 6.4-4.266667 10.666667-8.533333 14.933333-4.266667-2.133333-8.533333-2.133333-12.8-2.133333z"  /></svg>