<?xml version="1.0" standalone="no"?><!DOCTYPE svg PUBLIC "-//W3C//DTD SVG 1.1//EN" "http://www.w3.org/Graphics/SVG/1.1/DTD/svg11.dtd"><svg class="icon" width="200px" height="200.00px" viewBox="0 0 1024 1024" version="1.1" xmlns="http://www.w3.org/2000/svg"><path fill="#333333" d="M711.168 311.552h130.56A28.672 28.672 0 0 0 870.4 278.016a242.688 242.688 0 0 0-57.344-109.824c-42.496-48.384-125.696-106.752-279.04-110.592C363.008 53.248 271.104 107.52 224.256 153.6a185.344 185.344 0 0 0-60.416 128 28.672 28.672 0 0 0 28.672 28.416h119.552a358.4 358.4 0 1 0 399.104 0zM264.448 194.56c55.296-54.272 150.272-82.688 267.776-79.616 179.2 4.608 246.272 90.112 269.568 139.008h-209.664a28.672 28.672 0 0 0-28.416 24.064 31.488 31.488 0 0 0-2.048 24.064H460.8a31.744 31.744 0 0 0-2.048-23.552 28.672 28.672 0 0 0-28.416-25.6h-204.8a153.6 153.6 0 0 1 38.912-58.368zM454.4 896v-3.072h118.016V896a294.912 294.912 0 0 1-118.016 0z m162.56-13.824V870.4a22.272 22.272 0 0 0-22.272-22.272h-162.816A22.272 22.272 0 0 0 409.6 870.4v12.8a294.144 294.144 0 0 1-7.68-548.864 28.672 28.672 0 0 0 28.416 24.064h162.048a28.672 28.672 0 0 0 28.416-24.32 294.144 294.144 0 0 1-3.584 547.84z"  /><path fill="#333333" d="M381.184 646.912a121.6 121.6 0 1 0-121.6-121.6 121.856 121.856 0 0 0 121.6 121.6z m0-198.4a76.8 76.8 0 1 1-76.8 76.8 76.8 76.8 0 0 1 76.8-76.8zM526.336 525.312a121.6 121.6 0 1 0 121.6-121.6 121.856 121.856 0 0 0-121.6 121.6z m198.4 0a76.8 76.8 0 1 1-76.8-76.8 76.8 76.8 0 0 1 77.056 76.8zM701.184 691.2a107.264 107.264 0 0 0-54.784-17.152 69.376 69.376 0 0 0-64 42.752h-138.24a69.376 69.376 0 0 0-64.512-44.032c-35.328 0-88.576 27.648-88.576 69.12a63.488 63.488 0 0 0 33.792 51.2 107.264 107.264 0 0 0 54.784 17.152 69.376 69.376 0 0 0 66.304-49.664h133.376a69.376 69.376 0 0 0 66.816 51.2c35.328 0 88.576-27.648 88.576-69.12A63.488 63.488 0 0 0 701.184 691.2z m-321.28 75.008c-19.2 0-43.776-16.64-43.776-25.6 0-2.304 3.584-8.192 13.056-14.336a63.488 63.488 0 0 1 30.72-10.24 25.6 25.6 0 0 1 0 49.152z m297.472-8.96a63.488 63.488 0 0 1-30.72 10.24 25.6 25.6 0 1 1 0-49.152c19.2 0 43.776 16.64 43.776 25.6 0.768 1.536-3.584 7.424-13.312 13.568z"  /><path fill="#333333" d="M365.568 575.232a22.272 22.272 0 0 0 31.488-31.488l-37.12-37.12A22.272 22.272 0 0 0 328.192 537.6z"  /></svg>