<?xml version="1.0" standalone="no"?><!DOCTYPE svg PUBLIC "-//W3C//DTD SVG 1.1//EN" "http://www.w3.org/Graphics/SVG/1.1/DTD/svg11.dtd"><svg class="icon" width="200px" height="200.00px" viewBox="0 0 1024 1024" version="1.1" xmlns="http://www.w3.org/2000/svg"><path fill="#333333" d="M709.82618 1024h-255.259587c-6.38149 0-10.635816-2.127163-14.890143-6.38149-4.254326-4.254326-6.38149-8.508653-6.38149-14.890142V407.122663c-2.127163-12.762979-8.508653-106.358162 31.907449-176.554548 38.288938-63.814897 82.959366-212.716323 82.959366-214.843486 2.127163-6.38149 8.508653-12.762979 14.890143-14.890143s14.890143 0 19.144469 4.254327l61.687733 55.306244 106.358162 48.924754c4.254326 2.127163 8.508653 6.38149 10.635816 10.635816l168.045895 385.016545c2.127163 6.38149 2.127163 12.762979 0 19.144469-2.127163 6.38149-8.508653 10.635816-14.890142 10.635816l-136.138447 27.653122c-8.508653 2.127163-17.017306-2.127163-23.398796-10.635816l-55.306244-93.595182 29.780286 108.485324V1002.728368c2.127163 12.762979-8.508653 21.271632-19.14447 21.271632z m-233.987955-42.543265h212.716323V575.168558l-68.069223-255.259587c-2.127163-10.635816 2.127163-21.271632 12.762979-25.525959 10.635816-4.254326 21.271632 0 25.525959 8.508653l125.502631 212.716323 95.722345-19.144469L724.716323 145.481586l-99.976672-44.670428c-2.127163 0-4.254326-2.127163-6.381489-4.254326l-40.416102-36.161775c-14.890143 48.924754-46.797591 142.519936-76.577876 191.44469-36.161775 59.56057-25.525959 151.028589-25.525959 151.02859V981.456735z"  /><path fill="#333333" d="M454.566593 413.504153c-4.254326 0-10.635816-2.127163-14.890143-6.38149-8.508653-8.508653-8.508653-21.271632 0-29.780285 161.664406-168.045895 174.427385-295.675689 174.427385-297.802852 0-10.635816 10.635816-21.271632 23.398796-19.144469 10.635816 0 21.271632 10.635816 19.144469 23.398795 0 6.38149-14.890143 144.6471-185.063201 323.328811-6.38149 4.254326-10.635816 6.38149-17.017306 6.38149z"  /><path fill="#333333" d="M569.433407 1024h-255.259587c-12.762979 0-21.271632-8.508653-21.271633-21.271632V573.041395v-6.38149l29.780285-108.485324-55.306244 93.595182c-4.254326 8.508653-12.762979 12.762979-23.398795 10.635816L109.966149 534.752457c-6.38149-2.127163-12.762979-4.254326-14.890142-10.635816s-4.254326-12.762979 0-19.144469l168.045895-385.016545c2.127163-4.254326 6.38149-8.508653 10.635816-10.635816l104.230998-46.797591L439.67645 7.215976c6.38149-4.254326 12.762979-6.38149 21.271632-4.254327 6.38149 2.127163 12.762979 6.38149 14.890143 14.890143 0 0 27.653122 89.340856 57.433407 159.537242 4.254326 10.635816 0 23.398796-10.635816 27.653122-10.635816 4.254326-23.398796 0-27.653122-10.635816-19.144469-46.797591-38.288938-99.976672-48.924754-134.011283L405.641838 96.556832c-2.127163 2.127163-4.254326 2.127163-6.381489 4.254326L299.283677 145.481586 144.000761 498.590682l95.722345 19.144469 125.502631-212.716323c6.38149-8.508653 17.017306-12.762979 25.525959-8.508653 10.635816 4.254326 14.890143 14.890143 12.762979 25.525959l-68.069223 255.259588v404.161013h233.987955c12.762979 0 21.271632 8.508653 21.271633 21.271633s-8.508653 21.271632-21.271633 21.271632z"  /><path fill="#333333" d="M467.329572 285.874359c-6.38149 0-12.762979-4.254326-17.017306-10.635816-74.450713-112.739651-80.832203-189.317528-80.832202-193.571854 0-10.635816 8.508653-21.271632 19.144469-23.398796 12.762979 0 21.271632 8.508653 23.398795 19.144469 0 2.127163 8.508653 72.32355 74.450713 174.427385 6.38149 10.635816 4.254326 23.398796-6.381489 29.780286-4.254326 4.254326-8.508653 4.254326-12.76298 4.254326zM665.155753 456.047417H360.971411c-12.762979 0-21.271632-8.508653-21.271633-21.271632s8.508653-21.271632 21.271633-21.271632h302.057178c12.762979 0 21.271632 8.508653 21.271633 21.271632s-8.508653 21.271632-19.144469 21.271632z"  /><path fill="#333333" d="M520.508653 617.711823c-12.762979 0-21.271632-8.508653-21.271632-21.271632v-161.664406c0-12.762979 8.508653-21.271632 21.271632-21.271632s21.271632 8.508653 21.271632 21.271632v161.664406c0 10.635816-8.508653 21.271632-21.271632 21.271632zM599.213692 811.283677c-12.762979 0-21.271632-8.508653-21.271632-21.271632V439.030112c0-12.762979 8.508653-21.271632 21.271632-21.271633s21.271632 8.508653 21.271633 21.271633V790.012045c0 10.635816-10.635816 21.271632-21.271633 21.271632z"  /></svg>