<?xml version="1.0" standalone="no"?><!DOCTYPE svg PUBLIC "-//W3C//DTD SVG 1.1//EN" "http://www.w3.org/Graphics/SVG/1.1/DTD/svg11.dtd"><svg class="icon" width="200px" height="200.00px" viewBox="0 0 1024 1024" version="1.1" xmlns="http://www.w3.org/2000/svg"><path fill="#333333" d="M851.495253 1024H173.095253c-6.4 0-12.8-4.266667-17.066666-8.533333s-4.266667-12.8-2.133334-19.2c83.2-243.2 196.266667-642.133333 166.4-750.933334l-215.466666 128c-8.533333 6.4-21.333333 4.266667-27.733334-4.266666L4.56192 281.6c-6.4-8.533333-6.4-21.333333 2.133333-29.866667L273.36192 6.4c4.266667-4.266667 8.533333-6.4 12.8-6.4h132.266667c10.666667 0 21.333333 8.533333 21.333333 19.2 6.4 53.333333 29.866667 160 72.533333 160s66.133333-106.666667 70.4-160c0-10.666667 10.666667-19.2 21.333334-19.2h132.266666c6.4 0 10.666667 2.133333 14.933334 6.4l266.666666 247.466667c8.533333 8.533333 8.533333 21.333333 2.133334 29.866666l-72.533334 87.466667c-6.4 8.533333-19.2 10.666667-27.733333 4.266667L704.295253 245.333333c-27.733333 108.8 83.2 503.466667 166.4 746.666667 2.133333 2.133333 2.133333 6.4 2.133334 10.666667 0 12.8-8.533333 21.333333-21.333334 21.333333zM202.96192 981.333333h618.666667c-46.933333-142.933333-217.6-674.133333-142.933334-778.666666 6.4-8.533333 19.2-10.666667 27.733334-6.4l219.733333 132.266666 46.933333-57.6L729.895253 42.666667h-104.533333c-6.4 51.2-32 179.2-110.933333 179.2s-104.533333-128-110.933334-179.2H298.96192L51.495253 270.933333l46.933334 57.6 219.733333-132.266666c8.533333-6.4 21.333333-2.133333 27.733333 6.4 76.8 104.533333-96 635.733333-142.933333 778.666666z"  /><path fill="#333333" d="M514.428587 70.4c-44.8 0-81.066667-17.066667-100.266667-32-8.533333-6.4-10.666667-21.333333-4.266667-29.866667 6.4-8.533333 21.333333-10.666667 29.866667-4.266666 2.133333 2.133333 72.533333 53.333333 149.333333 0 10.666667-6.4 23.466667-4.266667 29.866667 4.266666 6.4 8.533333 4.266667 23.466667-4.266667 29.866667-36.266667 23.466667-70.4 32-100.266666 32z"  /></svg>