<?xml version="1.0" standalone="no"?><!DOCTYPE svg PUBLIC "-//W3C//DTD SVG 1.1//EN" "http://www.w3.org/Graphics/SVG/1.1/DTD/svg11.dtd"><svg class="icon" width="200px" height="200.00px" viewBox="0 0 1024 1024" version="1.1" xmlns="http://www.w3.org/2000/svg"><path fill="#333333" d="M365.312 505.856h-62.464V196.864l54.016-54.016A28.928 28.928 0 1 0 316.16 102.4l-13.312 13.312V67.328a28.928 28.928 0 1 0-57.6 0V115.2l-10.24-10.24a28.928 28.928 0 1 0-40.96 40.704l51.2 51.2v308.992H182.528A28.928 28.928 0 0 0 153.6 534.528v415.488a28.928 28.928 0 0 0 25.6 28.672l48.64 4.608c15.104 1.536 30.208 2.048 45.312 2.048s30.208 0 45.312-2.048l48.64-4.608a28.928 28.928 0 0 0 25.6-28.672V534.528a28.928 28.928 0 0 0-27.392-28.672z m-28.928 418.048l-22.528 2.048a423.424 423.424 0 0 1-79.872 0l-22.528-2.048V563.2h124.928zM768 503.04h-25.6v-12.8h10.496a25.6 25.6 0 0 0 0-51.2H742.4v-42.496a25.6 25.6 0 0 0-25.6-25.6h-102.4a25.6 25.6 0 0 0-25.6 25.6v41.472h-13.056a25.6 25.6 0 0 0 0 51.2H588.8v12.8h-21.76a102.4 102.4 0 0 0-100.864 100.864v2.304l22.784 278.528a110.336 110.336 0 0 0 109.312 100.608h140.544a110.336 110.336 0 0 0 109.312-100.608L870.4 606.208v-2.304a102.4 102.4 0 0 0-102.4-100.864z m-151.04 57.6H716.8v112.384a51.2 51.2 0 0 1-100.864 0z m23.04-137.984h51.2v15.616h-51.2z m0 67.584h51.2v12.8h-51.2z m150.016 390.144a51.2 51.2 0 0 1-51.2 47.616h-141.312a51.2 51.2 0 0 1-51.2-47.616l-22.784-277.248a43.264 43.264 0 0 1 41.984-42.24v112.384a102.4 102.4 0 0 0 204.8 0v-112.64a43.264 43.264 0 0 1 42.496 42.24z"  /></svg>