<?xml version="1.0" standalone="no"?><!DOCTYPE svg PUBLIC "-//W3C//DTD SVG 1.1//EN" "http://www.w3.org/Graphics/SVG/1.1/DTD/svg11.dtd"><svg class="icon" width="200px" height="200.00px" viewBox="0 0 1024 1024" version="1.1" xmlns="http://www.w3.org/2000/svg"><path fill="#333333" d="M512 1024C215.466667 1024 21.333333 945.066667 12.8 942.933333c-8.533333-4.266667-12.8-12.8-12.8-21.333333C4.266667 550.4 232.533333 136.533333 262.4 85.333333V21.333333c0-12.8 8.533333-21.333333 21.333333-21.333333h456.533334c12.8 0 21.333333 8.533333 21.333333 21.333333v64C791.466667 136.533333 1019.733333 550.4 1024 921.6c0 8.533333-4.266667 17.066667-12.8 19.2-8.533333 4.266667-202.666667 83.2-499.2 83.2zM42.666667 906.666667c49.066667 19.2 224 74.666667 469.333333 74.666666s420.266667-55.466667 469.333333-74.666666C970.666667 533.333333 725.333333 104.533333 721.066667 100.266667c-2.133333-4.266667-2.133333-6.4-2.133334-10.666667V42.666667H305.066667v46.933333c0 4.266667 0 6.4-2.133334 10.666667C298.666667 104.533333 53.333333 533.333333 42.666667 906.666667z"  /><path fill="#333333" d="M512 189.866667c-34.133333 0-61.866667-27.733333-61.866667-64s27.733333-64 61.866667-64 61.866667 27.733333 61.866667 64-27.733333 64-61.866667 64zM512 106.666667c-10.666667 0-19.2 8.533333-19.2 21.333333s8.533333 21.333333 19.2 21.333333 19.2-8.533333 19.2-21.333333-8.533333-21.333333-19.2-21.333333z"  /></svg>