<?xml version="1.0" standalone="no"?><!DOCTYPE svg PUBLIC "-//W3C//DTD SVG 1.1//EN" "http://www.w3.org/Graphics/SVG/1.1/DTD/svg11.dtd"><svg class="icon" width="200px" height="200.00px" viewBox="0 0 1024 1024" version="1.1" xmlns="http://www.w3.org/2000/svg"><path fill="#333333" d="M439.466667 795.733333h-115.2c-12.8 0-21.333333-8.533333-21.333334-21.333333s8.533333-21.333333 21.333334-21.333333h115.2c12.8 0 21.333333 8.533333 21.333333 21.333333s-10.666667 21.333333-21.333333 21.333333z"  /><path fill="#333333" d="M757.333333 1024h-490.666666c-12.8 0-21.333333-8.533333-21.333334-21.333333V710.4l-44.8 181.333333c0 2.133333 0 2.133333-2.133333 4.266667l-38.4 85.333333c-4.266667 8.533333-12.8 12.8-21.333333 12.8L42.666667 985.6c-8.533333 0-17.066667-6.4-19.2-17.066667l-21.333334-87.466666v-10.666667l134.4-610.133333c2.133333-6.4 6.4-12.8 12.8-14.933334l189.866667-70.4L277.333333 149.333333c-10.666667-4.266667-14.933333-17.066667-10.666666-27.733333C268.8 117.333333 317.866667 0 512 0s243.2 117.333333 245.333333 121.6c4.266667 10.666667 0 23.466667-10.666666 27.733333l-59.733334 25.6 187.733334 70.4c6.4 2.133333 12.8 8.533333 12.8 14.933334L1024 870.4v10.666667l-21.333333 87.466666c-2.133333 8.533333-10.666667 14.933333-19.2 17.066667l-98.133334 8.533333c-8.533333 0-17.066667-4.266667-21.333333-12.8l-38.4-85.333333c0-2.133333 0-2.133333-2.133333-4.266667l-44.8-181.333333V1002.666667c0 12.8-8.533333 21.333333-21.333334 21.333333z m-469.333333-42.666667h448V533.333333c0-10.666667 8.533333-19.2 19.2-21.333333 10.666667-2.133333 21.333333 6.4 23.466667 17.066667l85.333333 352 32 70.4 68.266667-6.4 17.066666-70.4-130.133333-593.066667-228.266667-85.333333c-8.533333-2.133333-12.8-10.666667-14.933333-19.2 0-8.533333 4.266667-17.066667 12.8-19.2l85.333333-36.266667C686.933333 91.733333 631.466667 42.666667 512 42.666667s-174.933333 49.066667-196.266667 76.8l85.333334 36.266666c8.533333 4.266667 12.8 10.666667 12.8 19.2s-6.4 17.066667-14.933334 19.2L170.666667 279.466667 42.666667 874.666667l17.066666 68.266666 68.266667 6.4 32-70.4 85.333333-352c2.133333-10.666667 12.8-17.066667 23.466667-17.066666 10.666667 2.133333 19.2 10.666667 19.2 21.333333V981.333333z"  /><path fill="#333333" d="M699.733333 795.733333h-115.2c-12.8 0-21.333333-8.533333-21.333333-21.333333s8.533333-21.333333 21.333333-21.333333h115.2c12.8 0 21.333333 8.533333 21.333334 21.333333s-8.533333 21.333333-21.333334 21.333333zM512 330.666667c-8.533333 0-14.933333-4.266667-19.2-12.8 0 0-40.533333-89.6-100.266667-121.6-8.533333-4.266667-10.666667-12.8-10.666666-21.333334 4.266667-27.733333 36.266667-83.2 130.133333-83.2 12.8 0 21.333333 8.533333 21.333333 21.333334s-8.533333 21.333333-21.333333 21.333333c-53.333333 0-74.666667 21.333333-83.2 34.133333 61.866667 44.8 100.266667 128 102.4 132.266667 4.266667 10.666667 0 23.466667-10.666667 27.733333-2.133333 0-6.4 2.133333-8.533333 2.133334z"  /><path fill="#333333" d="M512 330.666667c-2.133333 0-6.4 0-8.533333-2.133334-10.666667-4.266667-14.933333-17.066667-10.666667-27.733333 2.133333-4.266667 40.533333-87.466667 102.4-132.266667-8.533333-12.8-27.733333-34.133333-83.2-34.133333-12.8 0-21.333333-8.533333-21.333333-21.333333s8.533333-21.333333 21.333333-21.333334c93.866667 0 125.866667 55.466667 130.133333 83.2 2.133333 8.533333-2.133333 17.066667-10.666666 21.333334-59.733333 34.133333-100.266667 121.6-100.266667 121.6-4.266667 8.533333-10.666667 12.8-19.2 12.8z"  /><path fill="#333333" d="M512 1004.8c-12.8 0-21.333333-8.533333-21.333333-21.333333V326.4c0-12.8 8.533333-21.333333 21.333333-21.333333s21.333333 8.533333 21.333333 21.333333v657.066667c0 10.666667-8.533333 21.333333-21.333333 21.333333z"  /></svg>