<?xml version="1.0" standalone="no"?><!DOCTYPE svg PUBLIC "-//W3C//DTD SVG 1.1//EN" "http://www.w3.org/Graphics/SVG/1.1/DTD/svg11.dtd"><svg class="icon" width="200px" height="200.00px" viewBox="0 0 1024 1024" version="1.1" xmlns="http://www.w3.org/2000/svg"><path fill="#333333" d="M283.807211 223.927503c-10.663214 0-19.193786-6.397929-21.326429-17.061143-2.132643-10.663214 6.397929-23.459072 17.061143-23.459071 93.836287-14.9285 110.89743-89.571001 110.89743-91.703645 2.132643-10.663214 12.795857-19.193786 25.591715-17.061143 10.663214 2.132643 19.193786 12.795857 17.061143 25.591715 0 4.265286-21.326429 106.632145-145.019716 125.82593-2.132643-2.132643-2.132643-2.132643-4.265286-2.132643z"  /><path fill="#333333" d="M339.255926 1023.668587h-2.132643l-191.93786-25.591714c-6.397929 0-10.663214-4.265286-14.9285-8.530572-4.265286-4.265286-4.265286-10.663214-4.265286-17.061143l170.611431-955.424015c2.132643-10.663214 10.663214-17.061143 21.326429-17.061143h390.273649c10.663214 0 19.193786 6.397929 21.326429 17.061143l170.611431 955.424015c0 6.397929 0 10.663214-4.265286 17.061143s-8.530572 8.530572-14.9285 8.530572l-191.93786 25.591714c-10.663214 2.132643-21.326429-6.397929-23.459072-14.9285L512 420.130649l-151.417645 586.476795c-4.265286 10.663214-12.795857 17.061143-21.326429 17.061143zM170.777138 959.689301l151.417645 19.193786L490.673571 330.559648c2.132643-8.530572 10.663214-14.9285 21.326429-14.9285s19.193786 6.397929 21.326429 14.9285l168.478788 648.323439L853.222862 959.689301 689.00936 42.652858H512h-179.142003L170.777138 959.689301z"  /><path fill="#333333" d="M740.192789 223.927503h-4.265286c-125.825931-21.326429-145.019717-121.560645-145.019716-125.82593-2.132643-10.663214 6.397929-23.459072 17.061143-25.591715 10.663214-2.132643 23.459072 6.397929 25.591715 17.061143 0 4.265286 14.9285 76.775144 110.89743 91.703645 10.663214 2.132643 19.193786 12.795857 17.061143 23.459071-2.132643 10.663214-12.795857 19.193786-21.326429 19.193786zM512 217.529575c-12.795857 0-21.326429-8.530572-21.326429-21.326429V29.857c0-12.795857 8.530572-21.326429 21.326429-21.326428s21.326429 8.530572 21.326429 21.326428v168.478789c0 10.663214-8.530572 19.193786-21.326429 19.193786z"  /></svg>