<?xml version="1.0" standalone="no"?><!DOCTYPE svg PUBLIC "-//W3C//DTD SVG 1.1//EN" "http://www.w3.org/Graphics/SVG/1.1/DTD/svg11.dtd"><svg class="icon" width="200px" height="199.61px" viewBox="0 0 1026 1024" version="1.1" xmlns="http://www.w3.org/2000/svg"><path fill="#333333" d="M85.799893 846.933333c-17.066667 0-32-2.133333-44.8-8.533333-12.8-6.4-21.333333-19.2-25.6-32-2.133333-14.933333 0-34.133333 2.133334-57.6 2.133333-14.933333 4.266667-29.866667 4.266666-40.533333 0-21.333333-6.4-38.4-10.666666-57.6-4.266667-10.666667-6.4-23.466667-8.533334-36.266667-6.4-34.133333 0-66.133333 8.533334-93.866667l4.266666-12.8c4.266667-14.933333 2.133333-29.866667 0-49.066666-2.133333-12.8-2.133333-25.6-2.133333-40.533334 2.133333-32 12.8-55.466667 21.333333-76.8 6.4-12.8 10.666667-23.466667 14.933334-36.266666 4.266667-17.066667 2.133333-34.133333 2.133333-53.333334-2.133333-17.066667-4.266667-36.266667 0-55.466666 2.133333-8.533333 8.533333-17.066667 17.066667-17.066667 74.666667-10.666667 189.866667 46.933333 245.333333 85.333333 57.6 42.666667 130.133333 93.866667 157.866667 168.533334 4.266667 10.666667-2.133333 23.466667-12.8 27.733333-10.666667 4.266667-23.466667-2.133333-27.733334-12.8-21.333333-61.866667-85.333333-106.666667-140.8-147.2-46.933333-34.133333-136.533333-78.933333-198.4-78.933333 0 8.533333 0 19.2 2.133334 27.733333 2.133333 21.333333 4.266667 44.8-2.133334 70.4-4.266667 14.933333-10.666667 29.866667-17.066666 42.666667-8.533333 19.2-17.066667 38.4-17.066667 59.733333 0 12.8 0 23.466667 2.133333 36.266667 2.133333 19.2 4.266667 40.533333-2.133333 61.866666l-4.266667 12.8c-6.4 25.6-12.8 49.066667-6.4 74.666667 2.133333 10.666667 6.4 21.333333 8.533334 32 6.4 21.333333 12.8 42.666667 12.8 68.266667 0 12.8-2.133333 32-4.266667 49.066666-2.133333 14.933333-4.266667 36.266667-4.266667 42.666667 0 2.133333 0 2.133333 4.266667 4.266667 25.6 12.8 110.933333-8.533333 162.133333-29.866667 70.4-29.866667 145.066667-74.666667 213.333334-130.133333 8.533333-6.4 23.466667-6.4 29.866666 2.133333s6.4 23.466667-2.133333 29.866667c-72.533333 59.733333-147.2 104.533333-224 136.533333-8.533333 0-93.866667 34.133333-157.866667 34.133333zM939.133227 846.933333c-64 0-149.333333-34.133333-153.6-36.266666-76.8-32-151.466667-76.8-224-136.533334-8.533333-8.533333-10.666667-21.333333-2.133334-29.866666s21.333333-10.666667 29.866667-2.133334c68.266667 55.466667 140.8 100.266667 213.333333 130.133334 49.066667 21.333333 136.533333 42.666667 162.133334 29.866666l4.266666-4.266666c2.133333-6.4-2.133333-27.733333-4.266666-42.666667-2.133333-17.066667-4.266667-34.133333-4.266667-49.066667 0-25.6 6.4-46.933333 12.8-68.266666 2.133333-10.666667 6.4-21.333333 8.533333-32 4.266667-25.6 0-51.2-6.4-76.8l-4.266666-12.8c-6.4-23.466667-4.266667-42.666667-2.133334-61.866667 2.133333-12.8 2.133333-23.466667 2.133334-36.266667 0-23.466667-8.533333-40.533333-17.066667-59.733333-6.4-12.8-12.8-25.6-17.066667-42.666667-6.4-23.466667-4.266667-46.933333-2.133333-70.4 0-10.666667 2.133333-19.2 2.133333-27.733333-59.733333 2.133333-149.333333 46.933333-196.266666 78.933333-55.466667 40.533333-119.466667 85.333333-142.933334 147.2-4.266667 10.666667-17.066667 17.066667-27.733333 12.8-10.666667-4.266667-17.066667-17.066667-12.8-27.733333 27.733333-74.666667 98.133333-125.866667 157.866667-168.533333 55.466667-40.533333 170.666667-98.133333 245.333333-87.466667 8.533333 2.133333 17.066667 8.533333 17.066667 17.066667 2.133333 19.2 2.133333 38.4 0 55.466666-2.133333 19.2-4.266667 36.266667 2.133333 53.333334 4.266667 12.8 8.533333 23.466667 14.933333 36.266666 8.533333 21.333333 21.333333 44.8 21.333334 76.8 0 14.933333 0 27.733333-2.133334 40.533334-2.133333 17.066667-2.133333 32 0 49.066666l2.133334 12.8c6.4 27.733333 14.933333 59.733333 8.533333 96-2.133333 12.8-6.4 23.466667-8.533333 36.266667-6.4 19.2-10.666667 36.266667-10.666667 57.6 0 10.666667 2.133333 25.6 4.266667 40.533333 4.266667 23.466667 6.4 42.666667 2.133333 57.6-2.133333 14.933333-10.666667 25.6-25.6 32-14.933333 10.666667-29.866667 12.8-46.933333 12.8z"  /><path fill="#333333" d="M533.799893 691.2h-42.666666c-68.266667 0-121.6-49.066667-121.6-108.8v-64c0-59.733333 55.466667-108.8 121.6-108.8h42.666666c68.266667 0 121.6 49.066667 121.6 108.8v64c0 59.733333-55.466667 108.8-121.6 108.8z m-42.666666-238.933333c-44.8 0-78.933333 29.866667-78.933334 66.133333v64c0 36.266667 36.266667 66.133333 78.933334 66.133333h42.666666c44.8 0 78.933333-29.866667 78.933334-66.133333v-64c0-36.266667-36.266667-66.133333-78.933334-66.133333h-42.666666z"  /></svg>