<?xml version="1.0" standalone="no"?><!DOCTYPE svg PUBLIC "-//W3C//DTD SVG 1.1//EN" "http://www.w3.org/Graphics/SVG/1.1/DTD/svg11.dtd"><svg class="icon" width="200px" height="200.00px" viewBox="0 0 1024 1024" version="1.1" xmlns="http://www.w3.org/2000/svg"><path fill="#333333" d="M469.333333 1024c-85.333333 0-196.266667-6.4-243.2-40.533333-6.4-4.266667-10.666667-12.8-8.533333-19.2L256 633.6 172.8 859.733333c-2.133333 10.666667-12.8 17.066667-23.466667 14.933334L17.066667 851.2c-6.4 0-10.666667-4.266667-14.933334-8.533333-2.133333-6.4-2.133333-12.8-2.133333-19.2L187.733333 132.266667c2.133333-6.4 6.4-12.8 12.8-14.933334l145.066667-46.933333L405.333333 10.666667l14.933334 14.933333h21.333333c0 2.133333-2.133333 149.333333 83.2 215.466667 4.266667 4.266667 8.533333 10.666667 8.533333 17.066666V1002.666667c0 10.666667-8.533333 21.333333-21.333333 21.333333h-42.666667z m-209.066666-68.266667c36.266667 17.066667 110.933333 25.6 209.066666 25.6h21.333334V268.8c-59.733333-53.333333-81.066667-138.666667-87.466667-194.133333l-29.866667 29.866666c-2.133333 2.133333-4.266667 4.266667-8.533333 6.4l-138.666667 46.933334-177.066666 654.933333 91.733333 17.066667L277.333333 443.733333c4.266667-10.666667 14.933333-17.066667 25.6-12.8 10.666667 2.133333 17.066667 12.8 17.066667 23.466667l-59.733333 501.333333z"  /><path fill="#333333" d="M505.6 386.133333c-2.133333 0-4.266667 0-8.533333-2.133333-230.4-91.733333-174.933333-290.133333-172.8-292.266667 4.266667-10.666667 14.933333-17.066667 25.6-14.933333 12.8 6.4 19.2 17.066667 14.933333 29.866667-2.133333 6.4-44.8 164.266667 149.333333 238.933333 10.666667 4.266667 17.066667 17.066667 12.8 27.733333-4.266667 8.533333-12.8 12.8-21.333333 12.8z"  /><path fill="#333333" d="M554.666667 1024h-44.8c-10.666667 0-21.333333-10.666667-21.333334-21.333333V258.133333c0-6.4 2.133333-12.8 8.533334-17.066666 85.333333-66.133333 83.2-215.466667 83.2-215.466667h21.333333l17.066667-14.933333 59.733333 59.733333 145.066667 46.933333c6.4 2.133333 12.8 8.533333 14.933333 14.933334L1024 823.466667c2.133333 6.4 0 12.8-2.133333 17.066666s-8.533333 8.533333-14.933334 8.533334L874.666667 874.666667c-10.666667 2.133333-21.333333-4.266667-23.466667-14.933334l-81.066667-226.133333 38.4 330.666667c0 8.533333-2.133333 14.933333-8.533333 19.2C753.066667 1017.6 640 1024 554.666667 1024z m-21.333334-42.666667h21.333334c98.133333 0 172.8-8.533333 209.066666-25.6l-57.6-503.466666c-2.133333-10.666667 6.4-21.333333 17.066667-23.466667 10.666667-2.133333 21.333333 4.266667 25.6 12.8l136.533333 386.133333 91.733334-17.066666-179.2-654.933334-138.666667-46.933333c-4.266667-2.133333-6.4-2.133333-8.533333-6.4l-29.866667-29.866667C614.4 128 593.066667 213.333333 533.333333 266.666667V981.333333z"  /><path fill="#333333" d="M518.4 386.133333c-8.533333 0-17.066667-4.266667-19.2-12.8-4.266667-10.666667 2.133333-23.466667 12.8-27.733333 192-76.8 149.333333-232.533333 147.2-238.933333-4.266667-10.666667 2.133333-23.466667 14.933333-25.6 10.666667-4.266667 23.466667 2.133333 25.6 14.933333 0 2.133333 57.6 200.533333-172.8 292.266667-4.266667-2.133333-6.4-2.133333-8.533333-2.133334zM593.066667 42.666667h-160c-12.8 0-21.333333-8.533333-21.333334-21.333334s8.533333-21.333333 21.333334-21.333333h160c12.8 0 21.333333 8.533333 21.333333 21.333333s-10.666667 21.333333-21.333333 21.333334z"  /></svg>