<?xml version="1.0" standalone="no"?><!DOCTYPE svg PUBLIC "-//W3C//DTD SVG 1.1//EN" "http://www.w3.org/Graphics/SVG/1.1/DTD/svg11.dtd"><svg class="icon" width="200px" height="200.00px" viewBox="0 0 1024 1024" version="1.1" xmlns="http://www.w3.org/2000/svg"><path fill="#333333" d="M115.2 772.266667c-4.266667 0-8.533333-2.133333-10.666667-4.266667L10.666667 706.133333c-8.533333-6.4-12.8-17.066667-6.4-27.733333l228.266666-428.8c6.4-10.666667 19.2-14.933333 29.866667-8.533333 10.666667 6.4 14.933333 19.2 8.533333 29.866666L49.066667 682.666667l61.866666 40.533333 121.6-160c6.4-8.533333 21.333333-10.666667 29.866667-4.266667 8.533333 6.4 10.666667 21.333333 4.266667 29.866667l-134.4 174.933333c-4.266667 6.4-10.666667 8.533333-17.066667 8.533334z"  /><path fill="#333333" d="M512 874.666667H256c-12.8 0-21.333333-8.533333-21.333333-21.333334V565.333333c0-2.133333 0-4.266667 2.133333-6.4 53.333333-142.933333-6.4-290.133333-6.4-290.133333-4.266667-8.533333-2.133333-19.2 6.4-25.6 4.266667-2.133333 91.733333-74.666667 166.4-83.2 0 0 70.4-10.666667 108.8-10.666667 12.8 0 21.333333 8.533333 21.333333 21.333334s-8.533333 21.333333-21.333333 21.333333c-36.266667 0-104.533333 8.533333-104.533333 10.666667-44.8 4.266667-102.4 42.666667-132.266667 64 14.933333 42.666667 51.2 172.8 4.266667 302.933333V832h234.666666c12.8 0 21.333333 8.533333 21.333334 21.333333s-10.666667 21.333333-23.466667 21.333334z"  /><path fill="#333333" d="M512 437.333333c-14.933333 0-93.866667-14.933333-155.733333-241.066666-2.133333-10.666667 4.266667-23.466667 14.933333-25.6 10.666667-4.266667 23.466667 4.266667 25.6 14.933333 53.333333 196.266667 115.2 209.066667 117.333333 209.066667 12.8 0 21.333333 10.666667 19.2 21.333333 0 12.8-10.666667 21.333333-21.333333 21.333333zM908.8 772.266667c-6.4 0-12.8-2.133333-17.066667-8.533334l-134.4-174.933333c-6.4-8.533333-6.4-23.466667 4.266667-29.866667 8.533333-6.4 23.466667-6.4 29.866667 4.266667l121.6 160 61.866666-40.533333-219.733333-413.866667c-6.4-10.666667-2.133333-23.466667 8.533333-29.866667 10.666667-6.4 23.466667-2.133333 29.866667 8.533334l228.266667 428.8c4.266667 10.666667 2.133333 21.333333-6.4 27.733333l-93.866667 64c-4.266667 2.133333-8.533333 4.266667-12.8 4.266667z"  /><path fill="#333333" d="M768 874.666667H512c-12.8 0-21.333333-8.533333-21.333333-21.333334s8.533333-21.333333 21.333333-21.333333h234.666667V569.6c-46.933333-130.133333-10.666667-260.266667 4.266666-302.933333-25.6-19.2-83.2-59.733333-132.266666-64-2.133333 0-70.4-10.666667-106.666667-10.666667-12.8 0-21.333333-8.533333-21.333333-21.333333s8.533333-21.333333 21.333333-21.333334c38.4 0 108.8 10.666667 110.933333 10.666667 74.666667 8.533333 162.133333 78.933333 164.266667 83.2 6.4 6.4 10.666667 14.933333 6.4 25.6 0 2.133333-59.733333 149.333333-6.4 290.133333 0 2.133333 2.133333 4.266667 2.133333 6.4V853.333333c0 10.666667-10.666667 21.333333-21.333333 21.333334z"  /><path fill="#333333" d="M512 437.333333c-10.666667 0-21.333333-8.533333-21.333333-21.333333 0-10.666667 8.533333-21.333333 19.2-21.333333 4.266667 0 64-17.066667 117.333333-209.066667 2.133333-10.666667 14.933333-17.066667 25.6-14.933333 10.666667 2.133333 17.066667 14.933333 14.933333 25.6-61.866667 228.266667-140.8 241.066667-155.733333 241.066666z"  /></svg>