<?xml version="1.0" standalone="no"?><!DOCTYPE svg PUBLIC "-//W3C//DTD SVG 1.1//EN" "http://www.w3.org/Graphics/SVG/1.1/DTD/svg11.dtd"><svg class="icon" width="200px" height="200.00px" viewBox="0 0 1024 1024" version="1.1" xmlns="http://www.w3.org/2000/svg"><path fill="#333333" d="M392.533333 1024h-6.4c-23.466667-2.133333-42.666667-21.333333-55.466666-38.4-8.533333 12.8-23.466667 23.466667-40.533334 27.733333-29.866667 6.4-61.866667-14.933333-93.866666-61.866666-85.333333-121.6 76.8-413.866667 115.2-477.866667l-78.933334-179.2c-2.133333-6.4-2.133333-12.8 0-17.066667 2.133333-6.4 6.4-10.666667 12.8-10.666666 36.266667-10.666667 61.866667-29.866667 76.8-59.733334 36.266667-70.4 2.133333-172.8 2.133334-174.933333-2.133333-6.4-2.133333-12.8 2.133333-19.2 4.266667-8.533333 10.666667-12.8 19.2-12.8h72.533333c12.8 0 21.333333 8.533333 21.333334 21.333333s-8.533333 21.333333-21.333334 21.333334h-44.8c8.533333 40.533333 19.2 117.333333-12.8 179.2-17.066667 34.133333-42.666667 57.6-78.933333 72.533333l72.533333 168.533333c2.133333 6.4 2.133333 12.8-2.133333 19.2-55.466667 91.733333-185.6 349.866667-123.733333 441.6 25.6 36.266667 42.666667 46.933333 53.333333 44.8 12.8-2.133333 23.466667-25.6 25.6-38.4 2.133333-8.533333 10.666667-14.933333 19.2-14.933333s17.066667 6.4 21.333333 14.933333c6.4 19.2 23.466667 49.066667 40.533334 51.2 12.8 2.133333 29.866667-14.933333 49.066666-42.666666 4.266667-6.4 12.8-10.666667 21.333334-10.666667 8.533333 2.133333 14.933333 6.4 17.066666 14.933333 0 0 10.666667 38.4 34.133334 38.4 12.8 0 21.333333 8.533333 21.333333 21.333334s-8.533333 21.333333-21.333333 21.333333c-25.6 0-46.933333-14.933333-57.6-34.133333-19.2 23.466667-38.4 34.133333-59.733334 34.133333z"  /><path fill="#333333" d="M631.466667 1024c-21.333333 0-40.533333-10.666667-61.866667-34.133333-10.666667 19.2-32 34.133333-57.6 34.133333-12.8 0-21.333333-8.533333-21.333333-21.333333s8.533333-21.333333 21.333333-21.333334c23.466667 0 34.133333-38.4 34.133333-38.4 2.133333-8.533333 8.533333-14.933333 17.066667-14.933333 8.533333-2.133333 17.066667 2.133333 21.333333 10.666667 19.2 29.866667 36.266667 44.8 49.066667 42.666666 17.066667-2.133333 34.133333-32 40.533333-51.2 2.133333-8.533333 12.8-14.933333 21.333334-14.933333s17.066667 6.4 19.2 14.933333c4.266667 12.8 14.933333 36.266667 25.6 38.4 8.533333 2.133333 27.733333-8.533333 53.333333-44.8 64-91.733333-68.266667-349.866667-123.733333-441.6-4.266667-6.4-4.266667-12.8-2.133334-19.2l72.533334-168.533333c-36.266667-14.933333-61.866667-40.533333-78.933334-72.533333-32-61.866667-21.333333-138.666667-12.8-179.2h-44.8c-12.8 0-21.333333-8.533333-21.333333-21.333334s8.533333-21.333333 21.333333-21.333333h72.533334c6.4 0 12.8 4.266667 17.066666 8.533333 4.266667 6.4 4.266667 12.8 2.133334 19.2 0 0-34.133333 102.4 2.133333 174.933334 14.933333 29.866667 40.533333 49.066667 76.8 59.733333 6.4 2.133333 10.666667 6.4 12.8 10.666667 2.133333 6.4 2.133333 12.8 0 17.066666L708.266667 469.333333c38.4 64 200.533333 356.266667 115.2 477.866667-32 46.933333-64 68.266667-93.866667 61.866667-17.066667-2.133333-29.866667-14.933333-40.533333-27.733334-12.8 19.2-29.866667 36.266667-55.466667 38.4 2.133333 4.266667 0 4.266667-2.133333 4.266667z"  /><path fill="#333333" d="M512 217.6c-66.133333 0-119.466667-85.333333-119.466667-194.133333 0-8.533333 4.266667-14.933333 12.8-19.2s17.066667-2.133333 23.466667 2.133333c0 0 29.866667 23.466667 85.333333 23.466667s85.333333-23.466667 85.333334-23.466667c6.4-4.266667 14.933333-6.4 23.466666-2.133333 6.4 4.266667 12.8 10.666667 12.8 19.2-4.266667 108.8-57.6 194.133333-123.733333 194.133333z m-74.666667-157.866667c8.533333 68.266667 42.666667 115.2 74.666667 115.2s66.133333-44.8 74.666667-115.2c-19.2 6.4-42.666667 12.8-74.666667 12.8s-55.466667-6.4-74.666667-12.8zM509.866667 672c-140.8 0-238.933333-46.933333-245.333334-49.066667-10.666667-4.266667-14.933333-17.066667-10.666666-27.733333 4.266667-10.666667 17.066667-14.933333 27.733333-10.666667 2.133333 0 209.066667 100.266667 456.533333 0 10.666667-4.266667 23.466667 0 27.733334 10.666667 4.266667 10.666667 0 23.466667-10.666667 27.733333-87.466667 36.266667-172.8 49.066667-245.333333 49.066667zM509.866667 859.733333c-170.666667 0-285.866667-46.933333-292.266667-49.066666-10.666667-4.266667-17.066667-17.066667-10.666667-27.733334 4.266667-10.666667 17.066667-17.066667 27.733334-10.666666 2.133333 0 258.133333 102.4 558.933333 0 10.666667-4.266667 23.466667 2.133333 27.733333 12.8 4.266667 10.666667-2.133333 23.466667-12.8 27.733333-110.933333 34.133333-211.2 46.933333-298.666666 46.933333z"  /></svg>