<?xml version="1.0" standalone="no"?><!DOCTYPE svg PUBLIC "-//W3C//DTD SVG 1.1//EN" "http://www.w3.org/Graphics/SVG/1.1/DTD/svg11.dtd"><svg class="icon" width="200px" height="200.00px" viewBox="0 0 1024 1024" version="1.1" xmlns="http://www.w3.org/2000/svg"><path fill="#333333" d="M512 253.866667c-6.4 0-12.8-2.133333-17.066667-8.533334-14.933333-17.066667-83.2-104.533333-83.2-151.466666C411.733333 42.666667 456.533333 0 512 0s100.266667 42.666667 100.266667 93.866667c0 44.8-70.4 134.4-83.2 151.466666-4.266667 6.4-10.666667 8.533333-17.066667 8.533334zM512 42.666667c-32 0-57.6 23.466667-57.6 51.2 0 17.066667 27.733333 61.866667 57.6 102.4 29.866667-40.533333 57.6-85.333333 57.6-102.4C569.6 66.133333 544 42.666667 512 42.666667z"  /><path fill="#333333" d="M512 1024c-228.266667 0-273.066667-51.2-279.466667-61.866667-2.133333-2.133333-4.266667-6.4-4.266666-10.666666-6.4-142.933333 46.933333-422.4 125.866666-492.8 57.6-51.2 38.4-132.266667 36.266667-142.933334l-42.666667-106.666666c-4.266667-10.666667 0-21.333333 8.533334-25.6l85.333333-49.066667c10.666667-6.4 23.466667-2.133333 29.866667 8.533333 6.4 10.666667 2.133333 23.466667-8.533334 29.866667L392.533333 213.333333l36.266667 91.733334v2.133333c2.133333 4.266667 29.866667 113.066667-49.066667 185.6-61.866667 55.466667-117.333333 307.2-113.066666 452.266667 17.066667 6.4 72.533333 36.266667 245.333333 36.266666 12.8 0 21.333333 8.533333 21.333333 21.333334s-8.533333 21.333333-21.333333 21.333333z"  /><path fill="#333333" d="M512 1024c-12.8 0-21.333333-8.533333-21.333333-21.333333s8.533333-21.333333 21.333333-21.333334c170.666667 0 226.133333-29.866667 241.066667-40.533333 4.266667-145.066667-49.066667-392.533333-113.066667-450.133333-78.933333-72.533333-51.2-181.333333-49.066667-185.6v-2.133334l36.266667-91.733333L556.8 170.666667c-10.666667-6.4-12.8-19.2-8.533333-29.866667 6.4-10.666667 19.2-12.8 29.866666-8.533333l85.333334 49.066666c8.533333 4.266667 12.8 17.066667 8.533333 25.6l-42.666667 108.8c-2.133333 10.666667-21.333333 89.6 36.266667 142.933334 78.933333 70.4 132.266667 349.866667 125.866667 492.8 0 4.266667-2.133333 8.533333-4.266667 10.666666-2.133333 10.666667-46.933333 61.866667-275.2 61.866667z"  /></svg>