<?xml version="1.0" standalone="no"?><!DOCTYPE svg PUBLIC "-//W3C//DTD SVG 1.1//EN" "http://www.w3.org/Graphics/SVG/1.1/DTD/svg11.dtd"><svg class="icon" width="200px" height="199.80px" viewBox="0 0 1025 1024" version="1.1" xmlns="http://www.w3.org/2000/svg"><path fill="#333333" d="M375.79584 938.666667c-2.133333 0-6.4 0-8.533333-2.133334C77.129173 817.066667 4.59584 426.666667 0.329173 409.6c-2.133333-10.666667 6.4-23.466667 17.066667-25.6 12.8 0 23.466667 6.4 25.6 19.2 0 2.133333 72.533333 384 341.333333 492.8 10.666667 4.266667 17.066667 17.066667 10.666667 27.733333-2.133333 8.533333-10.666667 14.933333-19.2 14.933334z"  /><path fill="#333333" d="M627.529173 938.666667H397.129173c-6.4 0-10.666667-2.133333-14.933333-6.4-4.266667-4.266667-6.4-10.666667-6.4-17.066667 2.133333-19.2 25.6-454.4-356.266667-505.6-6.4 0-10.666667-4.266667-14.933333-8.533333S0.329173 390.4 0.329173 384L81.39584 102.4c2.133333-10.666667 10.666667-17.066667 21.333333-17.066667h821.333334c8.533333 0 17.066667 6.4 21.333333 14.933334L1024.329173 384c2.133333 6.4 0 12.8-2.133333 17.066667-4.266667 4.266667-8.533333 8.533333-14.933333 8.533333C625.39584 460.8 646.729173 896 648.862507 915.2c0 6.4-2.133333 12.8-6.4 17.066667-4.266667 4.266667-8.533333 6.4-14.933334 6.4z m-209.066666-42.666667h185.6c0-96 21.333333-460.8 371.2-522.666667L906.99584 128h-789.333333L49.39584 371.2C397.129173 433.066667 418.462507 800 418.462507 896z"  /><path fill="#333333" d="M648.862507 938.666667c-8.533333 0-17.066667-4.266667-19.2-12.8-4.266667-10.666667 0-23.466667 10.666666-27.733334 268.8-108.8 341.333333-490.666667 341.333334-494.933333 2.133333-10.666667 12.8-19.2 25.6-17.066667 10.666667 2.133333 19.2 12.8 17.066666 25.6-2.133333 17.066667-76.8 407.466667-366.933333 526.933334h-8.533333z"  /></svg>