<?xml version="1.0" standalone="no"?><!DOCTYPE svg PUBLIC "-//W3C//DTD SVG 1.1//EN" "http://www.w3.org/Graphics/SVG/1.1/DTD/svg11.dtd"><svg class="icon" width="200px" height="200.00px" viewBox="0 0 1024 1024" version="1.1" xmlns="http://www.w3.org/2000/svg"><path fill="#333333" d="M253.866667 232.533333c-12.8 0-21.333333-8.533333-21.333334-21.333333V21.333333c0-12.8 8.533333-21.333333 21.333334-21.333333s21.333333 8.533333 21.333333 21.333333v189.866667c0 12.8-10.666667 21.333333-21.333333 21.333333z"  /><path fill="#333333" d="M699.733333 518.4c-74.666667 0-160-40.533333-187.733333-55.466667-29.866667 14.933333-113.066667 55.466667-187.733333 55.466667-46.933333 0-83.2-14.933333-108.8-46.933333-38.4-49.066667-40.533333-130.133333-10.666667-251.733334 2.133333-8.533333 8.533333-14.933333 17.066667-14.933333 2.133333 0 12.8-2.133333 29.866666-2.133333 46.933333 0 162.133333 12.8 260.266667 119.466666 98.133333-108.8 213.333333-119.466667 260.266667-119.466666 17.066667 0 27.733333 2.133333 29.866666 2.133333 8.533333 2.133333 14.933333 8.533333 17.066667 14.933333 29.866667 119.466667 27.733333 202.666667-10.666667 251.733334-23.466667 29.866667-59.733333 46.933333-108.8 46.933333zM512 418.133333c4.266667 0 6.4 0 10.666667 2.133334 0 0 98.133333 55.466667 177.066666 55.466666 34.133333 0 57.6-10.666667 74.666667-29.866666 27.733333-34.133333 29.866667-104.533333 6.4-198.4h-8.533333c-42.666667 0-153.6 12.8-243.2 123.733333-8.533333 10.666667-25.6 10.666667-34.133334 0-89.6-110.933333-198.4-123.733333-243.2-123.733333h-8.533333c-23.466667 96-21.333333 164.266667 6.4 198.4 14.933333 19.2 40.533333 29.866667 74.666667 29.866666 78.933333 0 177.066667-53.333333 177.066666-55.466666 4.266667-2.133333 6.4-2.133333 10.666667-2.133334z"  /><path fill="#333333" d="M770.133333 232.533333c-12.8 0-21.333333-8.533333-21.333333-21.333333V21.333333c0-12.8 8.533333-21.333333 21.333333-21.333333s21.333333 8.533333 21.333334 21.333333v189.866667c0 12.8-8.533333 21.333333-21.333334 21.333333zM563.2 1024h-104.533333c-10.666667 0-19.2-6.4-21.333334-17.066667 0 0-21.333333-83.2-66.133333-140.8-55.466667-68.266667-117.333333-115.2-119.466667-117.333333-6.4-4.266667-8.533333-10.666667-8.533333-17.066667v-68.266666c0-12.8 8.533333-21.333333 21.333333-21.333334h490.666667c12.8 0 21.333333 8.533333 21.333333 21.333334v68.266666c0 6.4-4.266667 12.8-8.533333 17.066667 0 0-64 46.933333-119.466667 117.333333-44.8 57.6-66.133333 138.666667-66.133333 140.8 0 10.666667-8.533333 17.066667-19.2 17.066667z m-87.466667-42.666667h70.4c8.533333-29.866667 32-91.733333 70.4-140.8 46.933333-59.733333 98.133333-102.4 117.333334-117.333333v-36.266667h-448v36.266667c19.2 14.933333 70.4 59.733333 117.333333 117.333333 40.533333 49.066667 64 110.933333 72.533333 140.8z"  /></svg>