<?xml version="1.0" standalone="no"?><!DOCTYPE svg PUBLIC "-//W3C//DTD SVG 1.1//EN" "http://www.w3.org/Graphics/SVG/1.1/DTD/svg11.dtd"><svg class="icon" width="200px" height="200.00px" viewBox="0 0 1024 1024" version="1.1" xmlns="http://www.w3.org/2000/svg"><path fill="#333333" d="M411.733333 260.266667H405.333333c-6.4-2.133333-12.8-6.4-14.933333-14.933334L341.333333 85.333333c-4.266667-10.666667 2.133333-23.466667 14.933334-27.733333 8.533333-2.133333 17.066667 0 23.466666 6.4 0-2.133333 2.133333-4.266667 4.266667-6.4 8.533333-8.533333 21.333333-8.533333 29.866667 0l100.266666 93.866667c4.266667 4.266667 6.4 10.666667 6.4 17.066666 0 6.4-2.133333 12.8-8.533333 14.933334L424.533333 256c-2.133333 4.266667-8.533333 4.266667-12.8 4.266667z m-23.466666-166.4l34.133333 108.8 44.8-36.266667-78.933333-72.533333z"  /><path fill="#333333" d="M757.333333 1024h-490.666666c-12.8 0-21.333333-8.533333-21.333334-21.333333V520.533333l-66.133333 51.2c-6.4 4.266667-14.933333 4.266667-21.333333 2.133334L14.933333 520.533333c-6.4-2.133333-10.666667-6.4-12.8-12.8s-2.133333-12.8 0-17.066666L189.866667 117.333333c2.133333-4.266667 6.4-8.533333 12.8-10.666666l172.8-59.733334C388.266667 17.066667 426.666667 0 486.4 0c12.8 0 21.333333 0 25.6 2.133333 4.266667-2.133333 14.933333-2.133333 25.6-2.133333 57.6 0 98.133333 17.066667 110.933333 46.933333L821.333333 106.666667c4.266667 2.133333 8.533333 6.4 12.8 10.666666L1021.866667 490.666667c2.133333 6.4 2.133333 12.8 0 17.066666s-6.4 10.666667-12.8 12.8l-142.933334 53.333334c-6.4 2.133333-14.933333 2.133333-19.2-2.133334l-66.133333-51.2V1002.666667c-2.133333 12.8-10.666667 21.333333-23.466667 21.333333z m-469.333333-42.666667h450.133333V477.866667c0-8.533333 4.266667-14.933333 12.8-19.2 6.4-4.266667 14.933333-2.133333 21.333334 2.133333l91.733333 68.266667 110.933333-40.533334-174.933333-343.466666L627.2 85.333333c-6.4-2.133333-12.8-8.533333-12.8-14.933333C605.866667 44.8 554.666667 42.666667 537.6 42.666667c-12.8 0-23.466667 2.133333-23.466667 2.133333h-4.266666s-10.666667-2.133333-23.466667-2.133333c-14.933333 0-68.266667 2.133333-74.666667 25.6-2.133333 8.533333-6.4 12.8-14.933333 17.066666l-172.8 59.733334L51.2 490.666667l110.933333 40.533333 91.733334-68.266667c6.4-4.266667 14.933333-6.4 21.333333-2.133333 6.4 4.266667 12.8 10.666667 12.8 19.2V981.333333z"  /><path fill="#333333" d="M612.266667 260.266667c-4.266667 0-10.666667-2.133333-12.8-4.266667L512 183.466667c-4.266667-4.266667-8.533333-10.666667-8.533333-14.933334s2.133333-12.8 6.4-17.066666l100.266666-93.866667c8.533333-8.533333 21.333333-8.533333 29.866667 0 2.133333 2.133333 4.266667 4.266667 4.266667 6.4 6.4-6.4 14.933333-8.533333 23.466666-6.4 12.8 4.266667 19.2 14.933333 14.933334 27.733333l-49.066667 162.133334c-2.133333 6.4-6.4 12.8-14.933333 14.933333-2.133333-2.133333-4.266667-2.133333-6.4-2.133333z m-55.466667-93.866667l44.8 36.266667 34.133333-108.8-78.933333 72.533333z"  /><path fill="#333333" d="M512 1024c-12.8 0-21.333333-8.533333-21.333333-21.333333V179.2c0-12.8 8.533333-21.333333 21.333333-21.333333s21.333333 8.533333 21.333333 21.333333V1002.666667c0 12.8-8.533333 21.333333-21.333333 21.333333zM710.4 384h-125.866667c-12.8 0-21.333333-8.533333-21.333333-21.333333s8.533333-21.333333 21.333333-21.333334h125.866667c12.8 0 21.333333 8.533333 21.333333 21.333334s-10.666667 21.333333-21.333333 21.333333z"  /></svg>