<?xml version="1.0" standalone="no"?><!DOCTYPE svg PUBLIC "-//W3C//DTD SVG 1.1//EN" "http://www.w3.org/Graphics/SVG/1.1/DTD/svg11.dtd"><svg class="icon" width="200px" height="199.42px" viewBox="0 0 1027 1024" version="1.1" xmlns="http://www.w3.org/2000/svg"><path fill="#333333" d="M407.79584 704c-12.8 0-34.133333-6.4-81.066667-25.6-10.666667-4.266667-21.333333-8.533333-25.6-8.533333l-44.8-12.8c-23.466667-6.4-44.8-12.8-68.266666-21.333334-46.933333-12.8-93.866667-19.2-160-19.2h-2.133334-2.133333c-10.666667 0-21.333333-8.533333-21.333333-21.333333-4.266667-123.733333 64-258.133333 93.866666-311.466667 49.066667-87.466667 108.8-170.666667 209.066667-177.066666 83.2-4.266667 160 27.733333 217.6 89.6 6.4 8.533333 14.933333 17.066667 21.333333 25.6 29.866667 34.133333 55.466667 64 96 74.666666 40.533333 8.533333 72.533333-4.266667 113.066667-21.333333 19.2-6.4 36.266667-14.933333 57.6-21.333333 40.533333-10.666667 115.2-32 164.266667 10.666666 66.133333 57.6 53.333333 149.333333 44.8 221.866667-2.133333 23.466667-6.4 44.8-6.4 64v113.066667c0 10.666667-8.533333 19.2-19.2 21.333333-32 2.133333-66.133333 2.133333-98.133334 0-42.666667 0-85.333333 0-125.866666 4.266667-6.4 0-10.666667-2.133333-17.066667-4.266667-4.266667-4.266667-6.4-8.533333-6.4-14.933333-2.133333-29.866667-2.133333-61.866667 0-91.733334v-40.533333V512c2.133333-34.133333 2.133333-70.4-17.066667-91.733333-25.6-23.466667-57.6-19.2-98.133333-14.933334-40.533333 4.266667-89.6 10.666667-123.733333-25.6-40.533333-42.666667-89.6-72.533333-130.133334-78.933333-8.533333-2.133333-12.8 0-12.8 2.133333-6.4 4.266667-6.4 29.866667-6.4 42.666667v8.533333c0 66.133333 4.266667 106.666667 27.733334 160 14.933333 34.133333 23.466667 70.4 32 106.666667l6.4 25.6c2.133333 8.533333 4.266667 19.2 8.533333 27.733333s2.133333 21.333333-6.4 25.6c-8.533333 2.133333-12.8 4.266667-19.2 4.266667zM42.99584 573.866667c59.733333 0 108.8 8.533333 153.6 21.333333 23.466667 6.4 46.933333 12.8 70.4 21.333333l44.8 12.8c6.4 2.133333 17.066667 6.4 29.866667 10.666667 8.533333 4.266667 23.466667 8.533333 38.4 12.8l-6.4-21.333333c-8.533333-34.133333-17.066667-68.266667-29.866667-100.266667-29.866667-64-32-117.333333-32-177.066667v-8.533333c0-27.733333 0-57.6 19.2-74.666667 12.8-10.666667 27.733333-14.933333 49.066667-10.666666 70.4 10.666667 132.266667 66.133333 155.733333 89.6 19.2 19.2 44.8 17.066667 87.466667 12.8 42.666667-4.266667 91.733333-10.666667 132.266666 25.6 34.133333 32 32 83.2 29.866667 123.733333v130.133333c36.266667-2.133333 72.533333-2.133333 106.666667-2.133333h76.8v-42.666667-49.066666c0-21.333333 4.266667-42.666667 6.4-68.266667 8.533333-70.4 17.066667-142.933333-29.866667-185.6-27.733333-25.6-76.8-14.933333-125.866667-2.133333-17.066667 4.266667-36.266667 12.8-53.333333 19.2-42.666667 17.066667-85.333333 34.133333-138.666667 23.466666-55.466667-12.8-87.466667-51.2-119.466666-87.466666-6.4-8.533333-12.8-17.066667-21.333334-23.466667C439.79584 170.666667 373.662507 145.066667 303.262507 149.333333c-78.933333 4.266667-130.133333 76.8-172.8 155.733334-51.2 93.866667-83.2 192-87.466667 268.8z"  /><path fill="#333333" d="M51.529173 821.333333c-10.666667 0-19.2-6.4-21.333333-17.066666L0.329173 642.133333c-2.133333-10.666667 6.4-23.466667 17.066667-25.6 10.666667-2.133333 23.466667 6.4 25.6 17.066667l29.866667 164.266667c2.133333 10.666667-6.4 23.466667-17.066667 25.6-2.133333-2.133333-4.266667-2.133333-4.266667-2.133334zM143.262507 846.933333c-10.666667 0-19.2-6.4-21.333334-17.066666l-29.866666-164.266667c-2.133333-10.666667 6.4-23.466667 17.066666-25.6 10.666667-2.133333 23.466667 6.4 25.6 17.066667l29.866667 164.266666c2.133333 10.666667-6.4 23.466667-17.066667 25.6-2.133333-2.133333-2.133333 0-4.266666 0zM237.129173 870.4c-10.666667 0-19.2-6.4-21.333333-17.066667l-29.866667-164.266666c-2.133333-10.666667 6.4-23.466667 17.066667-25.6 10.666667-2.133333 23.466667 6.4 25.6 17.066666l29.866667 164.266667c2.133333 10.666667-6.4 23.466667-17.066667 25.6h-4.266667zM328.862507 893.866667c-10.666667 0-19.2-6.4-21.333334-17.066667L277.662507 712.533333c-2.133333-10.666667 6.4-23.466667 17.066666-25.6 10.666667-2.133333 23.466667 6.4 25.6 17.066667l29.866667 164.266667c2.133333 10.666667-6.4 23.466667-17.066667 25.6h-4.266666zM422.729173 917.333333c-10.666667 0-19.2-6.4-21.333333-17.066666l-29.866667-164.266667c-2.133333-10.666667 6.4-23.466667 17.066667-25.6 10.666667-2.133333 23.466667 6.4 25.6 17.066667l29.866667 164.266666c2.133333 10.666667-6.4 23.466667-17.066667 25.6h-4.266667zM766.19584 808.533333c-12.8 0-21.333333-8.533333-21.333333-21.333333v-68.266667c0-12.8 8.533333-21.333333 21.333333-21.333333s21.333333 8.533333 21.333333 21.333333v68.266667c0 12.8-8.533333 21.333333-21.333333 21.333333zM836.59584 808.533333c-12.8 0-21.333333-8.533333-21.333333-21.333333v-68.266667c0-12.8 8.533333-21.333333 21.333333-21.333333s21.333333 8.533333 21.333333 21.333333v68.266667c0 12.8-8.533333 21.333333-21.333333 21.333333zM909.129173 808.533333c-12.8 0-21.333333-8.533333-21.333333-21.333333v-68.266667c0-12.8 8.533333-21.333333 21.333333-21.333333s21.333333 8.533333 21.333334 21.333333v68.266667c0 12.8-10.666667 21.333333-21.333334 21.333333zM979.529173 808.533333c-12.8 0-21.333333-8.533333-21.333333-21.333333v-68.266667c0-12.8 8.533333-21.333333 21.333333-21.333333s21.333333 8.533333 21.333334 21.333333v68.266667c0 12.8-10.666667 21.333333-21.333334 21.333333z"  /></svg>