<?xml version="1.0" standalone="no"?><!DOCTYPE svg PUBLIC "-//W3C//DTD SVG 1.1//EN" "http://www.w3.org/Graphics/SVG/1.1/DTD/svg11.dtd"><svg class="icon" width="200px" height="200.00px" viewBox="0 0 1024 1024" version="1.1" xmlns="http://www.w3.org/2000/svg"><path fill="#333333" d="M512 1024c-123.733333 0-232.533333-68.266667-236.8-72.533333-6.4-4.266667-8.533333-8.533333-10.666667-14.933334-34.133333-279.466667 87.466667-469.333333 113.066667-505.6V405.333333c-29.866667-25.6-42.666667-61.866667-49.066667-93.866666L281.6 384c44.8 273.066667-66.133333 337.066667-70.4 339.2-2.133333 2.133333-6.4 2.133333-10.666667 2.133333H117.333333c-8.533333 0-14.933333-4.266667-19.2-10.666666C23.466667 567.466667 132.266667 371.2 149.333333 341.333333 209.066667 57.6 369.066667 4.266667 375.466667 0c6.4 0 12.8 0 19.2 4.266667 6.4 4.266667 8.533333 8.533333 10.666666 14.933333 14.933333 123.733333 91.733333 149.333333 108.8 153.6 17.066667-4.266667 91.733333-29.866667 108.8-153.6 0-6.4 4.266667-12.8 10.666667-14.933333 2.133333-4.266667 8.533333-4.266667 14.933333-4.266667 6.4 2.133333 166.4 57.6 226.133334 341.333333 17.066667 27.733333 125.866667 226.133333 51.2 373.333334-4.266667 6.4-10.666667 10.666667-19.2 10.666666h-83.2c-4.266667 0-6.4 0-10.666667-2.133333s-113.066667-68.266667-70.4-339.2l-44.8-74.666667c-6.4 32-21.333333 70.4-49.066667 93.866667v27.733333c25.6 36.266667 147.2 224 113.066667 505.6 0 6.4-4.266667 12.8-10.666667 14.933334-6.4 4.266667-115.2 72.533333-238.933333 72.533333z m-206.933333-102.4c27.733333 14.933333 113.066667 59.733333 206.933333 59.733333 93.866667 0 179.2-44.8 206.933333-59.733333 29.866667-281.6-108.8-467.2-110.933333-469.333333-2.133333-4.266667-4.266667-8.533333-4.266667-12.8v-44.8c0-6.4 4.266667-12.8 8.533334-17.066667 51.2-34.133333 44.8-130.133333 44.8-132.266667 0-10.666667 6.4-19.2 14.933333-21.333333 8.533333-2.133333 19.2 0 25.6 8.533333l83.2 136.533334c2.133333 4.266667 4.266667 10.666667 2.133333 14.933333C746.666667 599.466667 810.666667 669.866667 827.733333 684.8h64c55.466667-134.4-55.466667-322.133333-55.466666-324.266667-2.133333-2.133333-2.133333-4.266667-2.133334-6.4-40.533333-198.4-132.266667-275.2-177.066666-300.8-29.866667 142.933333-136.533333 160-142.933334 162.133334h-6.4c-4.266667 0-110.933333-19.2-142.933333-162.133334-42.666667 25.6-134.4 102.4-177.066667 300.8 0 2.133333-2.133333 4.266667-2.133333 6.4 0 2.133333-110.933333 189.866667-53.333333 324.266667h64c17.066667-14.933333 81.066667-85.333333 44.8-300.8 0-4.266667 0-10.666667 2.133333-14.933333l83.2-136.533334c4.266667-8.533333 14.933333-12.8 25.6-8.533333 8.533333 2.133333 14.933333 12.8 14.933333 21.333333 0 0-4.266667 96 44.8 132.266667 6.4 4.266667 8.533333 10.666667 8.533334 17.066667v44.8c0 4.266667-2.133333 8.533333-4.266667 12.8-2.133333 2.133333-140.8 187.733333-110.933333 469.333333z" /></svg>