<?xml version="1.0" standalone="no"?><!DOCTYPE svg PUBLIC "-//W3C//DTD SVG 1.1//EN" "http://www.w3.org/Graphics/SVG/1.1/DTD/svg11.dtd"><svg class="icon" width="200px" height="200.00px" viewBox="0 0 1024 1024" version="1.1" xmlns="http://www.w3.org/2000/svg"><path fill="#333333" d="M603.733333 883.2h-181.333333c-8.533333 0-17.066667-6.4-21.333333-14.933333C398.933333 859.733333 341.333333 684.8 19.2 640c-6.4 0-10.666667-4.266667-14.933333-8.533333-4.266667-4.266667-4.266667-10.666667-4.266667-17.066667L66.133333 160c2.133333-10.666667 10.666667-19.2 21.333334-19.2H938.666667c10.666667 0 19.2 8.533333 21.333333 19.2l64 454.4c0 6.4 0 10.666667-4.266667 14.933333-4.266667 4.266667-8.533333 8.533333-14.933333 8.533334C678.4 682.666667 622.933333 864 622.933333 866.133333c-2.133333 10.666667-10.666667 17.066667-19.2 17.066667z m-168.533333-42.666667h153.6c21.333333-49.066667 106.666667-194.133333 390.4-238.933333L919.466667 183.466667H104.533333L44.8 599.466667c283.733333 46.933333 369.066667 192 390.4 241.066666z"  /><path fill="#333333" d="M947.2 298.666667H76.8c-12.8 0-21.333333-8.533333-21.333333-21.333334s8.533333-21.333333 21.333333-21.333333h870.4c12.8 0 21.333333 8.533333 21.333333 21.333333s-10.666667 21.333333-21.333333 21.333334z"  /><path fill="#333333" d="M268.8 712.533333c-2.133333 0-4.266667 0-6.4-2.133333-10.666667-4.266667-17.066667-17.066667-12.8-27.733333l145.066667-416c4.266667-10.666667 17.066667-17.066667 27.733333-12.8 10.666667 4.266667 17.066667 17.066667 12.8 27.733333l-145.066667 416c-4.266667 10.666667-12.8 14.933333-21.333333 14.933333zM755.2 712.533333c-8.533333 0-17.066667-6.4-19.2-14.933333l-145.066667-416c-4.266667-10.666667 2.133333-23.466667 12.8-27.733333 10.666667-4.266667 23.466667 2.133333 27.733334 12.8L776.533333 682.666667c4.266667 10.666667-2.133333 23.466667-12.8 27.733333-4.266667 2.133333-6.4 2.133333-8.533333 2.133333z"  /></svg>