<?xml version="1.0" standalone="no"?><!DOCTYPE svg PUBLIC "-//W3C//DTD SVG 1.1//EN" "http://www.w3.org/Graphics/SVG/1.1/DTD/svg11.dtd"><svg class="icon" width="200px" height="200.00px" viewBox="0 0 1024 1024" version="1.1" xmlns="http://www.w3.org/2000/svg"><path fill="#333333" d="M580.266667 1024h-134.4c-4.266667 0-8.533333-2.133333-12.8-4.266667l-194.133334-132.266666c-6.4-4.266667-8.533333-10.666667-8.533333-17.066667v-110.933333c0-12.8 8.533333-21.333333 21.333333-21.333334h522.666667c12.8 0 21.333333 8.533333 21.333333 21.333334v110.933333c0 6.4-4.266667 12.8-8.533333 17.066667l-194.133333 132.266666c-4.266667 2.133333-8.533333 4.266667-12.8 4.266667z m-130.133334-42.666667h121.6l179.2-121.6v-78.933333H270.933333v78.933333l179.2 121.6zM755.2 646.4H268.8c-12.8 0-21.333333-8.533333-21.333333-21.333333V398.933333l-40.533334 38.4c-8.533333 6.4-19.2 8.533333-27.733333 0l-153.6-125.866666c-8.533333-6.4-10.666667-17.066667-4.266667-27.733334C170.666667 21.333333 328.533333 0 373.333333 0h8.533334c8.533333 0 17.066667 8.533333 19.2 17.066667 14.933333 68.266667 100.266667 76.8 110.933333 78.933333 10.666667 0 93.866667-10.666667 110.933333-78.933333 2.133333-8.533333 10.666667-14.933333 19.2-17.066667h8.533334c44.8 0 202.666667 21.333333 354.133333 283.733333 4.266667 8.533333 2.133333 21.333333-4.266667 27.733334l-153.6 125.866666c-8.533333 6.4-19.2 6.4-27.733333 0l-40.533333-38.4v226.133334c-2.133333 10.666667-12.8 21.333333-23.466667 21.333333z m-465.066667-42.666667h443.733334V349.866667c0-8.533333 4.266667-17.066667 12.8-19.2 8.533333-4.266667 17.066667-2.133333 23.466666 4.266666l64 57.6 125.866667-102.4C832 74.666667 704 46.933333 661.333333 42.666667c-34.133333 87.466667-140.8 93.866667-147.2 96H512c-4.266667 0-113.066667-6.4-147.2-96-42.666667 4.266667-170.666667 32-298.666667 247.466666L192 392.533333l64-57.6c6.4-6.4 14.933333-6.4 23.466667-4.266666 8.533333 4.266667 12.8 10.666667 12.8 19.2-2.133333 0-2.133333 253.866667-2.133334 253.866666z" /></svg>