<?xml version="1.0" standalone="no"?><!DOCTYPE svg PUBLIC "-//W3C//DTD SVG 1.1//EN" "http://www.w3.org/Graphics/SVG/1.1/DTD/svg11.dtd"><svg class="icon" width="200px" height="200.00px" viewBox="0 0 1024 1024" version="1.1" xmlns="http://www.w3.org/2000/svg"><path fill="#333333" d="M512 1024c-78.933333 0-145.066667-10.666667-320-76.8-8.533333-4.266667-14.933333-10.666667-12.8-21.333333L202.666667 320c0-4.266667 2.133333-8.533333 4.266666-12.8l4.266667-6.4-96 32c-8.533333 2.133333-19.2 0-23.466667-8.533333L4.266667 200.533333C0 192 0 183.466667 4.266667 174.933333 10.666667 168.533333 136.533333 8.533333 360.533333 0c6.4 0 10.666667 2.133333 14.933334 6.4 4.266667 4.266667 6.4 8.533333 6.4 14.933333 0 6.4 2.133333 145.066667 130.133333 145.066667s130.133333-138.666667 130.133333-145.066667c0-6.4 2.133333-10.666667 6.4-14.933333s8.533333-6.4 14.933334-6.4c224 8.533333 349.866667 168.533333 356.266666 174.933333 6.4 6.4 6.4 17.066667 0 25.6l-87.466666 125.866667c-6.4 8.533333-14.933333 10.666667-23.466667 8.533333L810.666667 302.933333l4.266666 6.4c2.133333 4.266667 4.266667 8.533333 4.266667 12.8l23.466667 605.866667c0 8.533333-4.266667 17.066667-12.8 21.333333-172.8 64-238.933333 74.666667-317.866667 74.666667z m-290.133333-110.933333C377.6 970.666667 441.6 981.333333 512 981.333333c70.4 0 134.4-10.666667 290.133333-68.266666l-23.466666-584.533334-42.666667-55.466666c-6.4-8.533333-6.4-17.066667 0-25.6 6.4-8.533333 14.933333-10.666667 23.466667-8.533334l145.066666 49.066667 68.266667-100.266667C945.066667 155.733333 840.533333 57.6 682.666667 44.8c-8.533333 68.266667-49.066667 166.4-170.666667 166.4s-164.266667-98.133333-170.666667-166.4C181.333333 57.6 78.933333 155.733333 49.066667 189.866667l68.266666 100.266666 145.066667-49.066666c8.533333-2.133333 19.2 0 23.466667 8.533333 6.4 8.533333 6.4 17.066667 0 25.6l-42.666667 55.466667-21.333333 582.4z" /></svg>