<?xml version="1.0" standalone="no"?><!DOCTYPE svg PUBLIC "-//W3C//DTD SVG 1.1//EN" "http://www.w3.org/Graphics/SVG/1.1/DTD/svg11.dtd"><svg class="icon" width="200px" height="200.00px" viewBox="0 0 1024 1024" version="1.1" xmlns="http://www.w3.org/2000/svg"><path fill="#333333" d="M352.051417 211.461197c-10.663239 0-19.19383-6.397943-21.326478-17.061182l-27.724421-168.479174c-2.132648-12.795887 6.397943-23.459126 17.061182-25.591773 10.663239-2.132648 23.459126 6.397943 23.459126 17.061182l27.724421 168.479174c2.132648 10.663239-6.397943 23.459126-17.061182 23.459126 0 2.132648 0 2.132648-2.132648 2.132647z"  /><path fill="#333333" d="M512 1024c-6.397943 0-12.795887-2.132648-17.061182-8.530591 0-2.132648-68.244729-85.305911-253.785086-123.693571-8.530591-2.132648-17.061182-8.530591-17.061182-19.19383 0-6.397943-12.795887-136.489458 61.846786-206.866834 59.714138-55.448842 25.591773-145.020049-2.132648-189.805652-21.326478-31.989717-51.183547-106.632389-34.122364-183.407709 12.795887-51.183547 42.652956-91.703854 91.703854-121.560923 6.397943-4.265296 14.928534-4.265296 23.459125 0l147.152697 98.101797L659.152697 170.94089c6.397943-4.265296 14.928534-4.265296 23.459125 0 49.050899 29.857069 81.040615 70.377377 91.703854 121.560923 17.061182 76.77532-12.795887 151.417992-34.122364 183.407709-29.857069 44.785603-61.846786 132.224162-2.132648 189.805652 74.642672 70.377377 63.979433 200.468891 61.846786 206.866834 0 8.530591-8.530591 17.061182-17.061182 19.19383-187.673004 38.38766-253.785085 123.693571-253.785086 123.693571-4.265296 4.265296-10.663239 8.530591-17.061182 8.530591z m-247.387142-170.611822c140.754753 31.989717 215.397425 89.571207 247.387142 117.295628 29.857069-29.857069 104.499741-85.305911 247.387142-117.295628 0-34.122364-4.265296-113.030332-49.050899-155.683288-70.377377-66.112081-51.183547-170.611822-2.132648-243.121846 19.19383-27.724421 40.520308-91.703854 27.724421-149.285344-8.530591-36.255012-29.857069-66.112081-61.846785-87.438559l-147.152697 98.101797c-6.397943 4.265296-17.061182 4.265296-23.459125 0l-147.152697-98.101797c-31.989717 21.326478-53.316194 51.183547-61.846785 87.438559-12.795887 57.58149 8.530591 121.560923 27.724421 149.285344 49.050899 74.642672 66.112081 177.009765-2.132648 243.121846-51.183547 42.652956-55.448842 121.560923-55.448842 155.683288z"  /><path fill="#333333" d="M671.948583 211.461197h-4.265295c-10.663239-2.132648-19.19383-12.795887-17.061183-23.459125L678.346527 19.522898c2.132648-12.795887 12.795887-21.326478 25.591773-19.19383 10.663239 2.132648 19.19383 12.795887 17.061182 23.459125L693.275061 192.267367c-2.132648 12.795887-10.663239 19.19383-21.326478 19.19383zM512 774.48021c-12.795887 0-21.326478-8.530591-21.326478-21.326478V458.848339c0-12.795887 8.530591-21.326478 21.326478-21.326477s21.326478 8.530591 21.326478 21.326477v294.305393c0 10.663239-8.530591 21.326478-21.326478 21.326478z"  /></svg>