<?xml version="1.0" standalone="no"?><!DOCTYPE svg PUBLIC "-//W3C//DTD SVG 1.1//EN" "http://www.w3.org/Graphics/SVG/1.1/DTD/svg11.dtd"><svg class="icon" width="200px" height="200.00px" viewBox="0 0 1024 1024" version="1.1" xmlns="http://www.w3.org/2000/svg"><path fill="#333333" d="M556.79622 1024h-89.59244c-10.665767 0-19.19838-8.532613-21.331534-19.19838-23.464687-204.782721-185.584341-273.043629-187.717494-275.176782-6.39946-2.133153-10.665767-6.39946-12.798921-12.79892s0-12.79892 2.133154-17.065227c31.9973-49.062527 68.260907-106.657667 76.79352-123.722894-2.133153-6.39946-6.39946-21.331533-10.665766-36.263607-29.864147-93.858747-59.728294-196.250108-55.461987-249.578942 6.39946-78.926674 174.918575-262.377862 191.983801-281.576242 8.532613-8.532613 19.19838-10.665767 27.730993-6.39946s12.79892 17.065227 8.532614 25.59784c-55.461987 151.453888-36.263607 191.983801-14.932074 230.380562 14.932073 31.9973 34.130454 66.127754 17.065227 142.921274-21.331533 102.391361 4.266307 145.054428 23.464687 164.252808 21.331533-19.19838 44.79622-61.861447 23.464687-164.252808-17.065227-76.793521 2.133153-110.923974 17.065227-142.921274 19.19838-38.39676 40.529914-78.926674-14.932074-230.380562-4.266307-8.532613 0-19.19838 8.532614-25.59784 8.532613-4.266307 19.19838-2.133153 27.730993 4.266307 19.19838 21.331533 187.717495 202.649568 191.983801 281.576242 4.266307 53.328834-27.730994 157.853348-55.461987 249.578942-4.266307 14.932073-8.532613 29.864147-10.665766 36.263606 8.532613 17.065227 44.79622 74.660367 76.79352 123.722895 4.266307 4.266307 4.266307 12.79892 2.133154 17.065226s-6.39946 10.665767-12.798921 12.798921c-6.39946 2.133153-164.252808 70.394061-187.717494 275.176782 0 12.79892-10.665767 21.331533-21.331534 21.331533z m-70.39406-42.663067h53.328834c25.59784-170.652268 138.654968-251.712095 187.717494-279.443089-72.527214-106.657667-72.527214-119.456588-72.527214-125.856047 0-6.39946 2.133153-12.79892 14.932074-51.195681 19.19838-59.728294 57.59514-183.451188 53.328834-234.646868-2.133153-34.130454-59.728294-113.057127-117.323435-181.318035 21.331533 93.858747 2.133153 132.255508-14.932073 168.519115-14.932073 27.730994-25.59784 53.328834-12.79892 115.190281 31.9973 147.187581-27.730994 200.516415-53.328834 217.581641-6.39946 4.266307-17.065227 4.266307-23.464687 0-27.730994-17.065227-85.326134-68.260907-55.461987-217.581641 12.79892-61.861447 0-85.326134-12.79892-115.190281-17.065227-34.130454-36.263607-74.660367-14.932073-168.519115-57.59514 68.260907-113.057127 147.187581-117.323435 181.318035-4.266307 51.19568 36.263607 174.918575 53.328834 234.646868 12.79892 38.39676 14.932073 44.79622 14.932074 51.195681 0 6.39946 0 17.065227-72.527214 125.856047 49.062527 27.730994 162.119654 108.790821 189.850648 279.443089z"  /><path fill="#333333" d="M537.59784 433.116522h-53.328834c-12.79892 0-21.331533-8.532613-21.331533-21.331533s8.532613-21.331533 21.331533-21.331534h53.328834c12.79892 0 21.331533 8.532613 21.331534 21.331534s-8.532613 21.331533-21.331534 21.331533z"  /></svg>