<?xml version="1.0" standalone="no"?><!DOCTYPE svg PUBLIC "-//W3C//DTD SVG 1.1//EN" "http://www.w3.org/Graphics/SVG/1.1/DTD/svg11.dtd"><svg class="icon" width="200px" height="200.00px" viewBox="0 0 1024 1024" version="1.1" xmlns="http://www.w3.org/2000/svg"><path fill="#333333" d="M488.533333 1009.066667c-53.333333 0-155.733333-12.8-258.133333-100.266667-4.266667-4.266667-8.533333-10.666667-6.4-17.066667l23.466667-392.533333L194.133333 597.333333l19.2 377.6c0 10.666667-8.533333 21.333333-19.2 21.333334l-140.8 12.8c-6.4 0-10.666667-2.133333-14.933333-4.266667-4.266667-4.266667-6.4-8.533333-6.4-14.933333L0 588.8c0-2.133333 0-6.4 2.133333-8.533333L166.4 142.933333c4.266667-6.4 8.533333-10.666667 17.066667-12.8L341.333333 98.133333c8.533333-2.133333 19.2 2.133333 23.466667 10.666667l70.4 140.8 61.866667-51.2c8.533333-6.4 17.066667-6.4 23.466666-4.266667 8.533333 4.266667 12.8 10.666667 12.8 19.2v772.266667c0 10.666667-8.533333 19.2-19.2 21.333333 0 2.133333-10.666667 2.133333-25.6 2.133334z m-221.866666-123.733334c93.866667 76.8 187.733333 83.2 224 83.2V260.266667l-46.933334 40.533333c-4.266667 4.266667-10.666667 6.4-17.066666 4.266667-6.4-2.133333-12.8-6.4-14.933334-10.666667l-74.666666-151.466667L202.666667 170.666667 42.666667 590.933333l27.733333 375.466667 100.266667-8.533333-17.066667-362.666667c0-4.266667 0-8.533333 2.133333-10.666667l102.4-187.733333c4.266667-8.533333 14.933333-12.8 25.6-10.666667 10.666667 2.133333 17.066667 12.8 14.933334 21.333334l-32 477.866666z"  /><path fill="#333333" d="M512 221.866667c-8.533333 0-14.933333-4.266667-19.2-10.666667l-76.8-140.8-49.066667 49.066667c-8.533333 8.533333-21.333333 8.533333-29.866666 0s-8.533333-21.333333 0-29.866667L405.333333 21.333333c4.266667-4.266667 10.666667-6.4 17.066667-6.4 6.4 0 12.8 4.266667 14.933333 10.666667L526.933333 192c6.4 10.666667 2.133333 23.466667-8.533333 29.866667H512z"  /><path fill="#333333" d="M535.466667 1009.066667c-14.933333 0-25.6-2.133333-25.6-2.133334-10.666667-2.133333-19.2-10.666667-19.2-21.333333V213.333333c0-8.533333 4.266667-14.933333 12.8-19.2 6.4-2.133333 14.933333-2.133333 21.333333 4.266667l61.866667 51.2 70.4-140.8c4.266667-8.533333 14.933333-12.8 23.466666-10.666667l160 34.133334c6.4 2.133333 12.8 6.4 14.933334 12.8l166.4 435.2c2.133333 2.133333 2.133333 6.4 2.133333 8.533333l-29.866667 401.066667c0 6.4-2.133333 10.666667-6.4 14.933333-4.266667 4.266667-10.666667 6.4-14.933333 4.266667l-140.8-12.8c-10.666667 0-19.2-10.666667-19.2-21.333334l17.066667-377.6-53.333334-98.133333 23.466667 392.533333c0 6.4-2.133333 12.8-6.4 17.066667-102.4 87.466667-204.8 100.266667-258.133333 100.266667z m-2.133334-42.666667c36.266667 0 130.133333-6.4 224-83.2L729.6 405.333333c0-10.666667 6.4-19.2 14.933333-21.333333 10.666667-2.133333 19.2 2.133333 25.6 10.666667l102.4 187.733333c2.133333 4.266667 2.133333 6.4 2.133334 10.666667l-17.066667 362.666666 100.266667 8.533334L981.333333 590.933333 821.333333 170.666667l-132.266666-27.733334-74.666667 151.466667c-2.133333 6.4-8.533333 10.666667-14.933333 10.666667s-12.8 0-17.066667-4.266667L533.333333 260.266667v706.133333z"  /><path fill="#333333" d="M512 221.866667c-4.266667 0-6.4 0-10.666667-2.133334-10.666667-6.4-12.8-19.2-8.533333-29.866666l89.6-166.4c4.266667-6.4 8.533333-10.666667 14.933333-10.666667 6.4 0 12.8 2.133333 17.066667 6.4L682.666667 89.6c8.533333 8.533333 8.533333 21.333333 0 29.866667s-21.333333 8.533333-29.866667 0l-49.066667-49.066667-76.8 140.8c0 6.4-6.4 10.666667-14.933333 10.666667z"  /></svg>