<?xml version="1.0" standalone="no"?><!DOCTYPE svg PUBLIC "-//W3C//DTD SVG 1.1//EN" "http://www.w3.org/Graphics/SVG/1.1/DTD/svg11.dtd"><svg class="icon" width="200px" height="200.00px" viewBox="0 0 1024 1024" version="1.1" xmlns="http://www.w3.org/2000/svg"><path fill="#333333" d="M539.733333 1024c-12.8 0-23.466667 0-27.733333-2.133333-4.266667 0-14.933333 2.133333-27.733333 2.133333-57.6 0-170.666667-14.933333-294.4-110.933333-6.4-6.4-10.666667-14.933333-6.4-25.6l170.666666-433.066667c8.533333-27.733333 17.066667-85.333333 8.533334-119.466667l-96 253.866667c-2.133333 6.4-6.4 10.666667-12.8 12.8-6.4 2.133333-10.666667 2.133333-17.066667 0l-93.866667-42.666667c-8.533333-4.266667-14.933333-14.933333-12.8-25.6l128-477.866666c2.133333-6.4 4.266667-10.666667 10.666667-12.8L334.933333 4.266667c8.533333-4.266667 14.933333-4.266667 21.333334-2.133334 6.4 2.133333 10.666667 8.533333 12.8 14.933334 2.133333 4.266667 34.133333 119.466667 142.933333 119.466666S652.8 21.333333 654.933333 17.066667c2.133333-6.4 6.4-10.666667 12.8-14.933334 6.4-2.133333 12.8-2.133333 19.2 0l66.133334 38.4c4.266667 2.133333 8.533333 8.533333 10.666666 12.8l128 477.866667c2.133333 10.666667-2.133333 21.333333-12.8 25.6l-93.866666 42.666667c-4.266667 2.133333-10.666667 2.133333-17.066667 0-6.4-2.133333-10.666667-6.4-12.8-12.8L661.333333 334.933333c-8.533333 36.266667 2.133333 91.733333 10.666667 121.6l170.666667 430.933334c4.266667 8.533333 0 19.2-6.4 25.6C710.4 1009.066667 597.333333 1024 539.733333 1024zM512 979.2h4.266667s8.533333 2.133333 23.466666 2.133333c49.066667 0 147.2-12.8 256-93.866666L631.466667 469.333333c-4.266667-17.066667-42.666667-157.866667 25.6-200.533333 6.4-4.266667 12.8-4.266667 19.2-2.133333 6.4 2.133333 10.666667 6.4 12.8 12.8L789.333333 550.4l55.466667-25.6-121.6-452.266667-36.266667-21.333333c-23.466667 55.466667-78.933333 128-174.933333 128-96 0-151.466667-72.533333-174.933333-125.866667l-36.266667 21.333334-121.6 450.133333 55.466667 25.6 102.4-270.933333c2.133333-6.4 6.4-10.666667 12.8-12.8 6.4-2.133333 12.8-2.133333 19.2 2.133333 68.266667 42.666667 29.866667 181.333333 25.6 198.4l-166.4 420.266667c108.8 81.066667 206.933333 93.866667 256 93.866666 14.933333 0 23.466667-2.133333 23.466666-2.133333h4.266667z" /></svg>