<?xml version="1.0" standalone="no"?><!DOCTYPE svg PUBLIC "-//W3C//DTD SVG 1.1//EN" "http://www.w3.org/Graphics/SVG/1.1/DTD/svg11.dtd"><svg class="icon" width="200px" height="200.00px" viewBox="0 0 1024 1024" version="1.1" xmlns="http://www.w3.org/2000/svg"><path fill="#333333" d="M512 1024c-228.266667 0-364.8-76.8-371.2-81.066667-4.266667-2.133333-8.533333-8.533333-10.666667-12.8-2.133333-6.4 0-12.8 4.266667-17.066666 151.466667-217.6 98.133333-541.866667 98.133333-544-2.133333-6.4 2.133333-14.933333 6.4-19.2 136.533333-134.4 44.8-268.8 42.666667-275.2-4.266667-6.4-4.266667-12.8-2.133333-19.2 2.133333-6.4 6.4-10.666667 12.8-12.8L411.733333 2.133333c10.666667-4.266667 23.466667 2.133333 27.733334 12.8 4.266667 10.666667-2.133333 23.466667-12.8 27.733334l-96 32c25.6 51.2 64 174.933333-53.333334 296.533333 8.533333 59.733333 38.4 334.933333-93.866666 544 44.8 21.333333 162.133333 64 330.666666 64 12.8 0 21.333333 8.533333 21.333334 21.333333S524.8 1024 512 1024z"  /><path fill="#333333" d="M512 1024c-12.8 0-21.333333-8.533333-21.333333-21.333333s8.533333-21.333333 21.333333-21.333334c166.4 0 283.733333-44.8 330.666667-64-132.266667-209.066667-100.266667-486.4-93.866667-544-117.333333-121.6-76.8-245.333333-53.333333-296.533333L599.466667 42.666667c-10.666667-4.266667-17.066667-14.933333-12.8-27.733334 4.266667-10.666667 14.933333-17.066667 27.733333-12.8L733.866667 42.666667c6.4 2.133333 10.666667 6.4 12.8 12.8 2.133333 6.4 0 12.8-2.133334 19.2-4.266667 6.4-93.866667 140.8 42.666667 275.2 4.266667 4.266667 6.4 12.8 6.4 19.2 0 4.266667-53.333333 328.533333 98.133333 544 4.266667 4.266667 4.266667 10.666667 4.266667 17.066666-2.133333 6.4-4.266667 10.666667-10.666667 12.8-8.533333 4.266667-145.066667 81.066667-373.333333 81.066667z"  /><path fill="#333333" d="M512 224c-61.866667 0-108.8-87.466667-108.8-202.666667 0-12.8 8.533333-21.333333 21.333333-21.333333s21.333333 8.533333 21.333334 21.333333c0 91.733333 34.133333 160 66.133333 160s66.133333-68.266667 66.133333-160c0-12.8 8.533333-21.333333 21.333334-21.333333s21.333333 8.533333 21.333333 21.333333c0 115.2-46.933333 202.666667-108.8 202.666667zM512 1024c-12.8 0-21.333333-8.533333-21.333333-21.333333V674.133333c0-12.8 8.533333-21.333333 21.333333-21.333333s21.333333 8.533333 21.333333 21.333333V1002.666667c0 10.666667-8.533333 21.333333-21.333333 21.333333z"  /><path fill="#333333" d="M307.2 987.733333c-2.133333 0-4.266667 0-6.4-2.133333-10.666667-4.266667-17.066667-17.066667-12.8-27.733333 0-2.133333 55.466667-151.466667 59.733333-300.8 0-12.8 10.666667-21.333333 21.333334-21.333334 12.8 0 21.333333 10.666667 21.333333 21.333334-4.266667 155.733333-59.733333 307.2-61.866667 313.6-4.266667 12.8-12.8 17.066667-21.333333 17.066666zM716.8 987.733333c-8.533333 0-17.066667-6.4-19.2-14.933333-2.133333-6.4-57.6-157.866667-61.866667-313.6 0-12.8 8.533333-21.333333 21.333334-21.333333 10.666667 0 21.333333 8.533333 21.333333 21.333333 4.266667 149.333333 59.733333 298.666667 59.733333 300.8 4.266667 10.666667-2.133333 23.466667-12.8 27.733333h-8.533333z"  /></svg>