<?xml version="1.0" standalone="no"?><!DOCTYPE svg PUBLIC "-//W3C//DTD SVG 1.1//EN" "http://www.w3.org/Graphics/SVG/1.1/DTD/svg11.dtd"><svg class="icon" width="200px" height="200.00px" viewBox="0 0 1024 1024" version="1.1" xmlns="http://www.w3.org/2000/svg"><path fill="#333333" d="M371.255565 497.274613c-89.564641 0-162.06935-57.577269-162.06935-127.949486s72.504709-127.949487 162.06935-127.949487 162.06935 57.577269 162.069349 127.949487-72.504709 127.949487-162.069349 127.949486z m0-213.249144c-66.107235 0-119.419521 38.384846-119.419521 85.299658s53.312286 85.299658 119.419521 85.299658 119.419521-38.384846 119.419521-85.299658-53.312286-85.299658-119.419521-85.299658z"  /><path fill="#333333" d="M652.744435 497.274613c-89.564641 0-162.06935-57.577269-162.069349-127.949486s72.504709-127.949487 162.069349-127.949487c89.564641 0 162.06935 57.577269 162.06935 127.949487s-74.637201 127.949487-162.06935 127.949486z m0-213.249144c-66.107235 0-119.419521 38.384846-119.419521 85.299658s53.312286 85.299658 119.419521 85.299658 119.419521-38.384846 119.419521-85.299658c-2.132491-46.914812-55.444778-85.299658-119.419521-85.299658zM529.059932 1024c-6.397474 0-12.794949 0-17.059932-2.132491-4.264983 0-10.662457 2.132491-17.059932 2.132491-19.192423 0-63.974743-6.397474-83.167166-68.239726-8.529966-27.722389-44.78232-117.287029-136.479452-117.28703h-14.92744c-6.397474 0-12.794949-2.132491-17.059932-6.397474-4.264983-4.264983-6.397474-10.662457-4.264983-19.192423l12.794949-72.504709c2.132491-10.662457 10.662457-17.059932 21.324914-17.059932h479.810575c10.662457 0 19.192423 6.397474 21.324915 17.059932l12.794948 72.504709c2.132491 6.397474 0 12.794949-4.264983 19.192423s-10.662457 6.397474-17.059931 6.397474h-14.92744c-91.697132 0-127.949487 89.564641-136.479453 117.28703-21.324914 61.842252-68.239726 68.239726-85.299657 68.239726z m-17.059932-44.78232h6.397474s4.264983 2.132491 10.662458 2.132491c21.324914 0 36.252355-12.794949 42.649828-38.384846 21.324914-68.239726 76.769692-140.744435 168.466824-147.141909l-6.397474-27.722389H290.22089l-4.264983 27.722389c91.697132 4.264983 147.14191 76.769692 168.466824 147.141909 8.529966 25.589897 23.457406 38.384846 42.649829 38.384846 6.397474 0 10.662457 0 10.662457-2.132491h4.264983z"  /><path fill="#333333" d="M341.400685 279.760486c-10.662457 0-19.192423-6.397474-21.324915-17.059931L273.160958 25.994004c-2.132491-10.662457 4.264983-23.457406 17.059932-25.589897 10.662457-2.132491 23.457406 4.264983 25.589897 17.059932L362.725599 254.170589c2.132491 10.662457-4.264983 23.457406-17.059932 25.589897H341.400685zM682.599315 279.760486h-4.264982c-10.662457-2.132491-19.192423-12.794949-17.059932-25.589897L708.189213 17.464039c2.132491-10.662457 12.794949-19.192423 25.589897-17.059932 10.662457 2.132491 19.192423 12.794949 17.059932 25.589897L703.92423 262.700555c-2.132491 10.662457-12.794949 17.059932-21.324915 17.059931z"  /></svg>