<?xml version="1.0" standalone="no"?><!DOCTYPE svg PUBLIC "-//W3C//DTD SVG 1.1//EN" "http://www.w3.org/Graphics/SVG/1.1/DTD/svg11.dtd"><svg class="icon" width="200px" height="200.00px" viewBox="0 0 1024 1024" version="1.1" xmlns="http://www.w3.org/2000/svg"><path fill="#333333" d="M706.048 427.008a28.416 28.416 0 0 0-20.48-8.704h-37.12v-179.2a28.416 28.416 0 0 0-28.416-28.416h-17.152V73.984a22.784 22.784 0 0 0-22.528-22.784h-142.336a22.784 22.784 0 0 0-22.784 22.784v39.68h-22.016a22.784 22.784 0 1 0 0 45.568h22.016v51.2h-17.152a28.416 28.416 0 0 0-28.416 28.416v179.2h-31.232a28.416 28.416 0 0 0-28.416 29.696l18.944 416.256A113.664 113.664 0 0 0 442.88 972.8h138.24a113.664 113.664 0 0 0 113.664-108.544l18.944-416.256a28.416 28.416 0 0 0-7.68-20.992z m-279.296-159.744h164.864v150.784h-164.864z m143.616 207.616l-12.032 249.088a49.152 49.152 0 0 1-98.304 0l-12.032-249.088zM460.8 138.752v-2.304-39.68h96.768v113.664H460.8z m177.152 722.688a56.832 56.832 0 0 1-56.832 54.272h-138.24a56.832 56.832 0 0 1-56.832-54.272l-17.664-386.56h22.784l12.288 251.648a105.984 105.984 0 0 0 211.712 0l12.288-251.648h28.416z"  /></svg>