<?xml version="1.0" standalone="no"?><!DOCTYPE svg PUBLIC "-//W3C//DTD SVG 1.1//EN" "http://www.w3.org/Graphics/SVG/1.1/DTD/svg11.dtd"><svg class="icon" width="200px" height="200.00px" viewBox="0 0 1024 1024" version="1.1" xmlns="http://www.w3.org/2000/svg"><path fill="#333333" d="M699.733333 42.666667H324.266667c-12.8 0-21.333333-8.533333-21.333334-21.333334s8.533333-21.333333 21.333334-21.333333h373.333333c12.8 0 21.333333 8.533333 21.333333 21.333333s-8.533333 21.333333-19.2 21.333334zM917.333333 1024H106.666667c-12.8 0-21.333333-8.533333-21.333334-21.333333V189.866667c0-8.533333 6.4-14.933333 12.8-19.2l166.4-85.333334c10.666667-6.4 23.466667-2.133333 27.733334 8.533334 6.4 12.8 2.133333 25.6-8.533334 29.866666L128 202.666667V981.333333h768V202.666667l-153.6-81.066667c-10.666667-6.4-14.933333-19.2-8.533333-29.866667 6.4-10.666667 19.2-14.933333 29.866666-8.533333L925.866667 170.666667c6.4 4.266667 12.8 12.8 12.8 19.2V1002.666667c0 12.8-10.666667 21.333333-21.333334 21.333333z"  /><path fill="#333333" d="M405.333333 381.866667s-2.133333 0 0 0c-8.533333 0-14.933333-4.266667-19.2-10.666667L247.466667 104.533333c-4.266667-6.4-2.133333-14.933333 2.133333-21.333333L300.8 10.666667c4.266667-6.4 10.666667-10.666667 17.066667-10.666667 6.4 0 12.8 2.133333 17.066666 8.533333 6.4 6.4 117.333333 119.466667 192 192 8.533333 8.533333 8.533333 19.2 2.133334 27.733334l-106.666667 145.066666c-4.266667 4.266667-10.666667 8.533333-17.066667 8.533334zM292.266667 96L407.466667 320l74.666666-102.4L320 55.466667l-27.733333 40.533333z"  /><path fill="#333333" d="M618.666667 381.866667c-6.4 0-12.8-2.133333-17.066667-8.533334l-106.666667-145.066666c-6.4-8.533333-6.4-21.333333 2.133334-27.733334l192-192c4.266667-6.4 10.666667-8.533333 17.066666-8.533333 6.4 0 12.8 4.266667 17.066667 8.533333l51.2 72.533334c4.266667 6.4 4.266667 14.933333 2.133333 21.333333l-138.666666 266.666667c-4.266667 6.4-10.666667 10.666667-19.2 12.8 2.133333 0 0 0 0 0z m-78.933334-164.266667l74.666667 102.4 115.2-224-29.866667-40.533333c-29.866667 32-98.133333 100.266667-160 162.133333z"  /><path fill="#333333" d="M401.066667 1024h-2.133334c-10.666667-2.133333-19.2-12.8-19.2-23.466667l83.2-612.266666-42.666666-49.066667c-8.533333-8.533333-6.4-21.333333 2.133333-29.866667 8.533333-8.533333 21.333333-6.4 29.866667 2.133334l49.066666 55.466666c4.266667 4.266667 6.4 10.666667 4.266667 17.066667l-83.2 622.933333c0 8.533333-10.666667 17.066667-21.333333 17.066667zM622.933333 1024c-10.666667 0-19.2-8.533333-21.333333-19.2l-83.2-622.933333c0-6.4 2.133333-12.8 4.266667-17.066667l49.066666-55.466667c8.533333-8.533333 21.333333-8.533333 29.866667-2.133333 8.533333 8.533333 8.533333 21.333333 2.133333 29.866667l-42.666666 49.066666 83.2 612.266667c2.133333 10.666667-6.4 23.466667-19.2 23.466667 0 2.133333-2.133333 2.133333-2.133334 2.133333z"  /></svg>