<?xml version="1.0" standalone="no"?><!DOCTYPE svg PUBLIC "-//W3C//DTD SVG 1.1//EN" "http://www.w3.org/Graphics/SVG/1.1/DTD/svg11.dtd"><svg class="icon" width="200px" height="200.00px" viewBox="0 0 1024 1024" version="1.1" xmlns="http://www.w3.org/2000/svg"><path fill="#333333" d="M776.94208 1024H247.875413c-6.4 0-12.8-4.266667-17.066666-8.533333s-4.266667-12.8-2.133334-19.2c2.133333-4.266667 125.866667-349.866667 25.6-546.133334l-49.066666 145.066667c-4.266667 10.666667-14.933333 17.066667-25.6 14.933333L15.34208 569.6c-10.666667-2.133333-17.066667-12.8-14.933333-25.6C15.34208 469.333333 87.875413 102.4 166.808747 46.933333c59.733333-42.666667 160-46.933333 213.333333-46.933333h23.466667c6.4 0 10.666667 2.133333 14.933333 6.4s6.4 10.666667 4.266667 14.933333c0 0-6.4 93.866667 34.133333 138.666667 12.8 14.933333 32 21.333333 53.333333 21.333333 23.466667 0 40.533333-6.4 53.333334-21.333333C597.74208 123.733333 599.875413 49.066667 597.74208 21.333333c0-6.4 2.133333-10.666667 4.266667-14.933333 8.533333-2.133333 12.8-6.4 19.2-6.4h23.466666c53.333333 0 153.6 6.4 213.333334 46.933333C936.94208 102.4 1009.475413 469.333333 1024.408747 541.866667c2.133333 10.666667-4.266667 21.333333-14.933334 25.6l-164.266666 40.533333c-10.666667 2.133333-21.333333-4.266667-25.6-14.933333L770.54208 448c-96 187.733333 10.666667 505.6 25.6 544 2.133333 4.266667 2.133333 6.4 2.133333 10.666667 0 12.8-10.666667 21.333333-21.333333 21.333333zM277.74208 981.333333h469.333333c-32-98.133333-119.466667-418.133333 12.8-595.2 4.266667-6.4 12.8-8.533333 21.333334-8.533333 8.533333 2.133333 14.933333 6.4 17.066666 14.933333l57.6 170.666667 125.866667-32c-32-164.266667-96-413.866667-142.933333-448-53.333333-36.266667-149.333333-40.533333-189.866667-40.533333 0 36.266667-6.4 104.533333-46.933333 147.2-21.333333 23.466667-51.2 36.266667-85.333334 36.266666s-64-12.8-85.333333-36.266666c-38.4-42.666667-44.8-110.933333-46.933333-147.2-42.666667 0-140.8 4.266667-194.133334 40.533333-46.933333 32-110.933333 283.733333-142.933333 448L171.075413 561.066667l57.6-170.666667c2.133333-8.533333 8.533333-12.8 17.066667-14.933333 8.533333-2.133333 14.933333 2.133333 21.333333 8.533333 130.133333 179.2 42.666667 499.2 10.666667 597.333333z"  /><path fill="#333333" d="M512.408747 1024c-12.8 0-21.333333-8.533333-21.333334-21.333333V204.8c0-12.8 8.533333-21.333333 21.333334-21.333333s21.333333 8.533333 21.333333 21.333333V1002.666667c0 12.8-8.533333 21.333333-21.333333 21.333333z"  /></svg>