<?xml version="1.0" standalone="no"?><!DOCTYPE svg PUBLIC "-//W3C//DTD SVG 1.1//EN" "http://www.w3.org/Graphics/SVG/1.1/DTD/svg11.dtd"><svg class="icon" width="200px" height="200.00px" viewBox="0 0 1024 1024" version="1.1" xmlns="http://www.w3.org/2000/svg"><path fill="#333333" d="M375.510542 183.736776c-10.663239 0-19.19383-6.397943-21.326477-17.061182l-23.459126-140.754753c-2.132648-10.663239 6.397943-23.459126 17.061182-25.591773 12.795887-2.132648 23.459126 6.397943 25.591774 17.061182l23.459125 140.754753c2.132648 10.663239-6.397943 23.459126-17.061182 25.591773h-4.265296z"  /><path fill="#333333" d="M512 1024c-215.397425 0-311.366575-53.316194-313.499223-55.448842-4.265296-2.132648-6.397943-6.397943-8.530591-8.530591-42.652956-89.571207 0-172.74447 40.520308-217.530073l-10.663239-6.397944c-6.397943-6.397943-10.663239-10.663239-12.795887-17.061182-17.061182-104.499741 123.693571-238.856551 140.754753-253.785085 4.265296-2.132648 6.397943-4.265296 12.795887-6.397944 0 0 8.530591-2.132648 12.795887-10.663239 4.265296-8.530591 8.530591-31.989717-27.724422-91.703854-85.305911-140.754753 4.265296-213.264778 4.265296-213.264777 4.265296-2.132648 8.530591-4.265296 14.928534-4.265296 85.305911 2.132648 127.958867 23.459126 149.285345 40.520308 21.326478-17.061182 63.979433-36.255012 149.285344-40.520308 4.265296 0 10.663239 2.132648 14.928535 4.265296 0 0 89.571207 72.510024 4.265295 213.264777-36.255012 59.714138-31.989717 85.305911-27.724421 93.836502 4.265296 8.530591 12.795887 10.663239 12.795887 10.663239 4.265296 0 8.530591 2.132648 12.795886 6.397943 17.061182 14.928534 157.815935 147.152697 140.754754 253.785086 0 6.397943-4.265296 10.663239-8.530592 14.928534l-10.663238 6.397944c40.520308 44.785603 83.173263 127.958867 40.520307 217.530073-2.132648 4.265296-4.265296 6.397943-8.530591 8.530591-10.663239 2.132648-106.632389 55.448842-322.029814 55.448842z m-287.90745-89.571207c23.459126 10.663239 115.16298 46.918251 287.90745 46.918251s264.448324-36.255012 287.90745-46.918251c40.520308-100.234445-51.183547-179.142413-53.316195-181.275061-4.265296-4.265296-8.530591-10.663239-6.397943-17.061182 0-6.397943 4.265296-12.795887 10.663239-17.061182l25.591773-17.061182c2.132648-68.244729-83.173263-164.213879-123.693571-202.601539-12.795887 0-29.857069-8.530591-40.520308-29.857069-14.928534-31.989717-6.397943-74.642672 29.857069-134.35681 53.316194-87.438559 23.459126-136.489458 10.663239-153.550639-104.499741 6.397943-121.560923 38.38766-121.560923 38.387659-2.132648 8.530591-10.663239 14.928534-21.326478 14.928535s-17.061182-6.397943-21.326478-17.061182c0 0-17.061182-31.989717-119.428275-36.255012-12.795887 14.928534-44.785603 63.979433 10.663239 153.550639 36.255012 57.58149 44.785603 102.367093 29.857069 134.35681-10.663239 21.326478-27.724421 29.857069-38.38766 31.989717-40.520308 38.38766-125.826219 134.35681-123.693571 202.601539l25.591773 17.061182c6.397943 4.265296 8.530591 10.663239 10.663239 17.061182 0 6.397943-2.132648 12.795887-6.397943 17.061182-4.265296 2.132648-93.836502 81.040615-53.316195 179.142413z"  /><path fill="#333333" d="M648.489458 183.736776h-4.265296c-10.663239-2.132648-19.19383-12.795887-17.061182-25.591773L650.622105 17.39025c2.132648-10.663239 12.795887-19.19383 25.591774-17.061182 10.663239 2.132648 19.19383 12.795887 17.061182 25.591773l-23.459126 140.754753c-2.132648 8.530591-10.663239 17.061182-21.326477 17.061182z"  /></svg>