<?xml version="1.0" standalone="no"?><!DOCTYPE svg PUBLIC "-//W3C//DTD SVG 1.1//EN" "http://www.w3.org/Graphics/SVG/1.1/DTD/svg11.dtd"><svg class="icon" width="200px" height="200.00px" viewBox="0 0 1024 1024" version="1.1" xmlns="http://www.w3.org/2000/svg"><path fill="#333333" d="M352.33264 534.35343h-6.386694l-83.027027-25.546777c-10.644491-4.257796-17.031185-14.902287-12.773389-27.675676 4.257796-10.644491 14.902287-17.031185 27.675676-12.773389l61.738046 19.160084 48.964657-174.569647-102.187111-25.546778c-10.644491-2.128898-19.160083-14.902287-14.902287-25.546777 2.128898-10.644491 14.902287-19.160083 25.546778-14.902287l123.476091 31.933472c6.386694 2.128898 10.644491 4.257796 12.773389 10.644491s4.257796 10.644491 2.128898 17.031185l-61.738045 215.018711c-2.128898 6.386694-6.386694 10.644491-10.644491 12.773388h-10.644491zM301.239085 189.471933c-6.386694 0-12.773389-4.257796-17.031185-8.515592-8.515593-8.515593-6.386694-23.417879 4.257796-29.804574 87.284823-59.609148 78.769231-121.347193 78.769231-125.604989-2.128898-10.644491 6.386694-21.288981 17.031185-23.41788 10.644491-2.128898 21.288981 6.386694 23.41788 17.031185 0 4.257796 14.902287 91.54262-95.800416 166.054054-4.257796 4.257796-8.515593 4.257796-10.644491 4.257796z"  /><path fill="#333333" d="M803.659044 1024h-183.085239c-10.644491 0-19.160083-8.515593-21.288982-17.031185L512 466.22869l-87.284823 538.611227c-2.128898 10.644491-10.644491 17.031185-21.288982 17.031185h-183.085239c-6.386694 0-12.773389-2.128898-14.902287-6.386695-4.257796-4.257796-6.386694-10.644491-6.386694-17.031185l93.671518-979.293139c0-10.644491 10.644491-19.160083 21.288981-19.160083h395.975052c10.644491 0 19.160083 8.515593 21.288981 19.160083l93.671518 979.293139c0 6.386694-2.128898 12.773389-6.386694 17.031185-2.128898 6.386694-8.515593 8.515593-14.902287 8.515593zM639.733888 981.422037h140.507276L690.827443 44.706861H333.172557l-89.413721 936.715176H384.266112l106.444907-649.313929c2.128898-10.644491 10.644491-17.031185 21.288981-17.031185s19.160083 8.515593 21.288981 17.031185L639.733888 981.422037z"  /><path fill="#333333" d="M671.66736 534.35343c-4.257796 0-6.386694 0-10.644491-2.128898s-8.515593-6.386694-10.644491-12.773389l-61.738045-215.018711c-2.128898-6.386694 0-10.644491 2.128898-17.031185s8.515593-8.515593 12.773389-10.64449l123.476091-31.933472c10.644491-2.128898 23.417879 4.257796 25.546778 14.902287s-4.257796 23.417879-14.902287 25.546777l-102.187111 25.546778 48.964657 174.569646 61.738046-19.160083c10.644491-4.257796 23.417879 2.128898 27.675676 12.773389 4.257796 10.644491-2.128898 23.417879-14.902287 27.675676L678.054054 534.35343h-6.386694zM724.889813 189.471933c-4.257796 0-8.515593-2.128898-12.773389-4.257796C601.413721 108.573805 614.18711 21.288981 616.316008 19.160083c0-10.644491 12.773389-19.160083 23.41788-17.031185 10.644491 2.128898 19.160083 12.773389 17.031185 23.41788 0 2.128898-8.515593 65.995842 78.769231 125.604989 10.644491 6.386694 12.773389 21.288981 6.386694 29.804574-4.257796 6.386694-10.644491 8.515593-17.031185 8.515592zM512 215.018711c-12.773389 0-21.288981-8.515593-21.288981-21.288981V23.417879c0-12.773389 8.515593-21.288981 21.288981-21.288981s21.288981 8.515593 21.288981 21.288981v170.311851c0 12.773389-8.515593 21.288981-21.288981 21.288981z"  /></svg>