<?xml version="1.0" standalone="no"?><!DOCTYPE svg PUBLIC "-//W3C//DTD SVG 1.1//EN" "http://www.w3.org/Graphics/SVG/1.1/DTD/svg11.dtd"><svg class="icon" width="200px" height="200.00px" viewBox="0 0 1024 1024" version="1.1" xmlns="http://www.w3.org/2000/svg"><path fill="#333333" d="M800 1024h-576c-12.8 0-21.333333-8.533333-21.333333-21.333333V366.933333c0-4.266667 2.133333-8.533333 4.266666-10.666666 0-2.133333 100.266667-162.133333 49.066667-328.533334-2.133333-6.4 0-12.8 4.266667-19.2 2.133333-4.266667 8.533333-8.533333 14.933333-8.533333h91.733333c6.4 0 10.666667 2.133333 14.933334 6.4s6.4 10.666667 6.4 14.933333c0 2.133333-6.4 157.866667 55.466666 224 17.066667 19.2 40.533333 27.733333 66.133334 27.733334s49.066667-8.533333 66.133333-27.733334C640 179.2 631.466667 23.466667 631.466667 21.333333c0-6.4 2.133333-10.666667 6.4-14.933333 6.4-4.266667 12.8-6.4 19.2-6.4h91.733333c6.4 0 12.8 4.266667 17.066667 8.533333 4.266667 6.4 4.266667 12.8 4.266666 19.2-51.2 166.4 49.066667 326.4 49.066667 328.533334 2.133333 4.266667 4.266667 6.4 4.266667 10.666666V1002.666667c-2.133333 12.8-10.666667 21.333333-23.466667 21.333333z m-554.666667-42.666667h533.333334V373.333333c-17.066667-29.866667-93.866667-172.8-57.6-330.666666h-42.666667c0 49.066667-8.533333 168.533333-68.266667 232.533333-25.6 27.733333-59.733333 40.533333-98.133333 40.533333s-70.4-14.933333-98.133333-40.533333c-59.733333-64-68.266667-183.466667-68.266667-232.533333h-42.666667c36.266667 157.866667-40.533333 300.8-57.6 330.666666V981.333333z"  /><path fill="#333333" d="M514.133333 113.066667h-4.266666c-87.466667-2.133333-145.066667-74.666667-147.2-76.8-6.4-8.533333-6.4-23.466667 2.133333-29.866667 8.533333-6.4 23.466667-6.4 29.866667 2.133333 0 0 49.066667 59.733333 117.333333 61.866667 40.533333 2.133333 81.066667-19.2 121.6-61.866667 8.533333-8.533333 21.333333-8.533333 29.866667-2.133333 8.533333 8.533333 8.533333 21.333333 2.133333 29.866667-49.066667 51.2-100.266667 76.8-151.466667 76.8z"  /></svg>