<?xml version="1.0" standalone="no"?><!DOCTYPE svg PUBLIC "-//W3C//DTD SVG 1.1//EN" "http://www.w3.org/Graphics/SVG/1.1/DTD/svg11.dtd"><svg class="icon" width="200px" height="200.00px" viewBox="0 0 1024 1024" version="1.1" xmlns="http://www.w3.org/2000/svg"><path fill="#333333" d="M697.565129 1024H328.567803c-4.265865 0-8.53173-2.132933-10.664662-4.265865l-10.664663-6.398798c-27.728123-17.06346-49.057448-189.830994 10.664663-366.864393 46.924515-134.374749 23.462258-298.610553 8.53173-373.263191l-76.785571 83.184368c-8.53173 8.53173-19.196393 8.53173-29.861055 2.132933l-93.849031-74.652638c-8.53173-6.398798-10.664663-19.196393-4.265865-27.728123l140.773546-204.761522c2.132933-4.265865 6.398798-8.53173 10.664663-8.53173L384.024049 2.325323c6.398798-2.132933 12.797595-2.132933 19.196392 2.132933 6.398798 4.265865 8.53173 10.664663 8.531731 17.06346 0 177.033399 87.450233 194.096859 100.247828 196.229792 12.797595-2.132933 100.247828-19.196393 100.247828-196.229792 0-6.398798 4.265865-12.797595 8.531731-17.06346 6.398798-4.265865 12.797595-6.398798 19.196392-2.132933L750.888442 42.851041c4.265865 2.132933 8.53173 4.265865 10.664663 8.53173l140.773546 204.761522c6.398798 8.53173 4.265865 21.329325-4.265865 27.728123l-93.849031 74.652638c-8.53173 6.398798-21.329325 6.398798-29.861055-2.132933l-76.785571-83.184368c-12.797595 74.652638-36.259853 238.888442 8.53173 373.263191 61.855043 179.166332 38.392785 349.800933 10.664663 366.864393l-10.664663 6.398798c-2.132933 2.132933-6.398798 4.265865-8.53173 4.265865z m-364.731461-42.65865h358.332664c8.53173-23.462258 31.993988-153.571141-25.595191-319.939878-66.120908-189.830994-2.132933-426.586504 0-435.118234 2.132933-8.53173 8.53173-12.797595 14.930528-14.930528 8.53173-2.132933 14.930528 0 21.329325 6.398798l89.583166 98.114895 63.987976-49.057448-125.843019-183.432196-76.785571-27.728123c-10.664663 198.362724-134.374749 209.027387-140.773546 209.027387h-2.132933c-6.398798 0-127.975951-10.664663-140.773546-209.027387l-76.785571 27.728123-125.843018 183.432196 61.855043 49.057448 89.583166-98.114895c4.265865-6.398798 12.797595-8.53173 21.329325-6.398798 8.53173 2.132933 12.797595 8.53173 14.930528 14.930528 2.132933 10.664663 63.987976 245.28724 0 435.118234-53.323313 166.368737-29.861055 296.47762-21.329326 319.939878z"  /><path fill="#333333" d="M627.178356 42.851041H396.821644c-12.797595 0-21.329325-8.53173-21.329325-21.329325s8.53173-21.329325 21.329325-21.329325h230.356712c12.797595 0 21.329325 8.53173 21.329325 21.329325s-8.53173 21.329325-21.329325 21.329325z"  /></svg>