<?xml version="1.0" standalone="no"?><!DOCTYPE svg PUBLIC "-//W3C//DTD SVG 1.1//EN" "http://www.w3.org/Graphics/SVG/1.1/DTD/svg11.dtd"><svg class="icon" width="200px" height="199.61px" viewBox="0 0 1026 1024" version="1.1" xmlns="http://www.w3.org/2000/svg"><path fill="#333333" d="M477.243764 1024c-21.305525 0-49.002708-6.391658-72.438785-25.56663-46.872155 23.436078-125.702599 42.61105-181.096965-12.783315-51.13326 17.04442-136.355361 21.305525-172.574754-59.655471-2.130553-4.261105-2.130553-10.652763 0-14.913867l187.488622-509.202052-2.130552-4.261105c-17.04442 8.52221-46.872155 23.436078-74.569339 29.827735-8.52221 2.130553-14.913868-2.130553-21.305525-8.52221L4.261105 250.609436c-2.130553-4.261105-4.261105-10.652763-4.261105-14.913868 0-4.261105 6.391658-100.135968 70.308233-147.008124C102.266521 65.251367 144.877571 58.859709 191.749727 69.512472L364.324481 1.334791c10.652763-4.261105 23.436078 2.130553 27.697182 12.783315s-2.130553 23.436078-12.783315 27.697183L202.402489 112.123522c-4.261105 2.130553-10.652763 2.130553-14.913867 2.130553-38.349945-10.652763-68.177681-8.52221-91.613759 10.652762-38.349945 27.697183-49.002708 85.222101-51.13326 106.527626l123.572046 151.269229c31.958288-10.652763 68.177681-36.219393 68.177681-36.219393 4.261105-4.261105 12.783315-4.261105 19.174972-4.261105 6.391658 2.130553 10.652763 6.391658 14.913868 12.783315l14.913867 34.088841c2.130553 4.261105 2.130553 10.652763 0 17.04442L95.874863 915.341822c36.219393 63.916576 123.572046 25.56663 127.833151 23.436077 8.52221-4.261105 19.174973-2.130553 25.566631 6.391658 53.263813 68.177681 147.008124 8.52221 149.138676 6.391657 8.52221-6.391658 21.305525-4.261105 27.697183 4.261105 27.697183 36.219393 76.699891 21.305525 78.830443 19.174973 10.652763-4.261105 23.436078 2.130553 27.697183 12.783315 4.261105 10.652763-2.130553 23.436078-12.783316 27.697183-4.261105 4.261105-19.174973 8.52221-42.61105 8.52221z"  /><path fill="#333333" d="M545.421445 1024c-21.305525 0-38.349945-4.261105-40.480498-6.391658-10.652763-4.261105-17.04442-14.913868-12.783315-27.697182 4.261105-10.652763 14.913868-17.04442 27.697182-12.783315 2.130553 0 51.13326 14.913868 78.830444-19.174973 6.391658-8.52221 19.174973-10.652763 27.697182-4.261105 4.261105 2.130553 95.874863 59.655471 149.138677-6.391658 6.391658-8.52221 17.04442-10.652763 25.56663-6.391657 4.261105 2.130553 91.613758 38.349945 127.833151-23.436078l-189.619174-511.332604c-2.130553-4.261105-2.130553-10.652763 0-17.04442l14.913868-34.088841c2.130553-6.391658 8.52221-10.652763 14.913867-12.783315 6.391658-2.130553 12.783315 0 17.04442 4.261105 0 0 34.08884 25.56663 68.177681 36.219393l123.572046-151.269229c-2.130553-21.305525-12.783315-78.830443-51.13326-106.527626-23.436078-17.04442-55.394365-21.305525-93.744311-10.652762-4.261105 2.130553-8.52221 0-12.783315 0L641.296308 43.945842c-10.652763-4.261105-17.04442-17.04442-12.783315-27.697183 4.261105-10.652763 17.04442-17.04442 27.697183-12.783315L830.915482 69.512472c49.002708-10.652763 89.483206-4.261105 123.572046 19.174972 63.916576 46.872155 70.308233 142.747019 70.308233 147.008124 0 4.261105-2.130553 10.652763-4.261105 14.913868l-136.355361 168.313649c-4.261105 6.391658-12.783315 8.52221-21.305525 8.52221-27.697183-4.261105-55.394365-21.305525-74.569338-31.958288l-2.130553 4.261105 187.488622 509.202052c2.130553 4.261105 2.130553 10.652763 0 14.913868-36.219393 80.960996-121.441494 76.699891-172.574754 59.65547-55.394365 55.394365-134.224809 36.219393-181.096964 12.783315-25.56663 21.305525-53.263813 27.697183-74.569338 27.697183z"  /><path fill="#333333" d="M511.332604 252.739988c-89.483206 0-159.791439-102.266521-159.791438-230.099672 0-12.783315 8.52221-21.305525 21.305525-21.305525h276.971827c12.783315 0 21.305525 8.52221 21.305525 21.305525 0 129.963704-70.308233 230.099672-159.791439 230.099672zM396.282768 43.945842c6.391658 91.613758 57.524918 166.183096 115.049836 166.183096 59.655471 0 108.658178-74.569338 115.049836-166.183096H396.282768zM511.332604 533.972921c-53.263813 0-95.874863-38.349945-95.874863-87.352653s42.61105-87.352653 95.874863-87.352654 95.874863 38.349945 95.874864 87.352654-42.61105 87.352653-95.874864 87.352653z m0-129.963704c-29.827735 0-53.263813 19.174973-53.263813 44.741603s23.436078 42.61105 53.263813 42.61105 53.263813-19.174973 53.263813-44.741602-23.436078-42.61105-53.263813-42.611051z"  /><path fill="#333333" d="M436.763266 467.925793h-193.880279c-12.783315 0-21.305525-8.52221-21.305525-21.305525s8.52221-21.305525 21.305525-21.305526h193.880279c12.783315 0 21.305525 8.52221 21.305525 21.305526s-8.52221 21.305525-21.305525 21.305525zM779.782222 467.925793h-193.880279c-12.783315 0-21.305525-8.52221-21.305526-21.305525s8.52221-21.305525 21.305526-21.305526h193.880279c12.783315 0 21.305525 8.52221 21.305525 21.305526s-8.52221 21.305525-21.305525 21.305525z"  /></svg>