<?xml version="1.0" standalone="no"?><!DOCTYPE svg PUBLIC "-//W3C//DTD SVG 1.1//EN" "http://www.w3.org/Graphics/SVG/1.1/DTD/svg11.dtd"><svg class="icon" width="200px" height="199.61px" viewBox="0 0 1026 1024" version="1.1" xmlns="http://www.w3.org/2000/svg"><path fill="#333333" d="M514.12032 614.4c-8.533333 0-17.066667-6.4-21.333333-14.933333L337.053653 38.4c-2.133333-10.666667 4.266667-23.466667 14.933334-25.6 10.666667-2.133333 23.466667 4.266667 25.6 14.933333L535.453653 586.666667c2.133333 10.666667-4.266667 23.466667-14.933333 25.6-2.133333 0-4.266667 2.133333-6.4 2.133333z"  /><path fill="#333333" d="M514.12032 629.333333c-6.4 0-14.933333-4.266667-19.2-10.666666L249.586987 198.4c-4.266667-6.4-4.266667-12.8-2.133334-19.2l38.4-96c4.266667-10.666667 17.066667-17.066667 27.733334-12.8 10.666667 4.266667 17.066667 17.066667 12.8 27.733333l-34.133334 85.333334L533.32032 597.333333c6.4 10.666667 2.133333 23.466667-8.533333 29.866667-4.266667 0-6.4 2.133333-10.666667 2.133333z"  /><path fill="#333333" d="M799.986987 1024s-2.133333 0 0 0H230.386987c-6.4 0-10.666667-2.133333-14.933334-6.4-4.266667-4.266667-6.4-10.666667-6.4-17.066667 0-4.266667 19.2-281.6 12.8-477.866666-8.533333 49.066667-17.066667 106.666667-19.2 160-4.266667 113.066667-17.066667 296.533333-17.066666 298.666666 0 10.666667-8.533333 19.2-21.333334 19.2l-136.533333 4.266667c-10.666667 0-21.333333-8.533333-21.333333-19.2-2.133333-27.733333-42.666667-661.333333 110.933333-836.266667 32-34.133333 147.2-83.2 177.066667-93.866666L332.786987 6.4c6.4-4.266667 12.8-6.4 19.2-6.4h324.266666c6.4 0 12.8 2.133333 17.066667 8.533333l38.4 49.066667c29.866667 10.666667 147.2 59.733333 177.066667 93.866667 153.6 174.933333 113.066667 808.533333 110.933333 836.266666 0 10.666667-10.666667 21.333333-21.333333 19.2l-136.533334-4.266666c-10.666667 0-19.2-8.533333-21.333333-19.2 0-2.133333-12.8-183.466667-17.066667-298.666667-2.133333-53.333333-10.666667-110.933333-19.2-160-6.4 181.333333 10.666667 437.333333 12.8 473.6v6.4c4.266667 10.666667-6.4 19.2-17.066666 19.2z m-548.266667-42.666667h522.666667c-4.266667-96-25.6-458.666667 4.266666-601.6 2.133333-10.666667 10.666667-17.066667 21.333334-17.066666s19.2 6.4 21.333333 14.933333c2.133333 6.4 42.666667 162.133333 49.066667 302.933333 4.266667 91.733333 12.8 228.266667 14.933333 277.333334l96 4.266666C983.453653 851.2 1004.786987 324.266667 876.786987 179.2c-19.2-23.466667-113.066667-64-166.4-85.333333-4.266667-2.133333-6.4-4.266667-8.533334-6.4L665.586987 42.666667H362.653653l-36.266666 44.8c-2.133333 2.133333-6.4 6.4-8.533334 6.4-53.333333 21.333333-147.2 61.866667-166.4 85.333333-128 145.066667-106.666667 672-102.4 782.933333l96-2.133333c4.266667-49.066667 12.8-185.6 14.933334-277.333333 6.4-140.8 46.933333-296.533333 49.066666-302.933334 2.133333-8.533333 12.8-17.066667 21.333334-14.933333 10.666667 0 19.2 6.4 21.333333 17.066667 27.733333 140.8 6.4 503.466667 0 599.466666z"  /><path fill="#333333" d="M514.12032 614.4h-6.4c-10.666667-2.133333-17.066667-14.933333-14.933333-25.6l157.866666-558.933333c4.266667-10.666667 14.933333-17.066667 25.6-14.933334 10.666667 2.133333 17.066667 14.933333 14.933334 25.6L535.453653 597.333333c-4.266667 10.666667-12.8 17.066667-21.333333 17.066667z"  /><path fill="#333333" d="M424.52032 1017.6c-12.8 0-21.333333-8.533333-21.333333-21.333333V736c0-4.266667 2.133333-8.533333 4.266666-12.8l89.6-128L735.986987 185.6l-34.133334-85.333333c-4.266667-10.666667 0-23.466667 12.8-27.733334 10.666667-4.266667 23.466667 0 27.733334 12.8l38.4 96c2.133333 6.4 2.133333 12.8-2.133334 19.2L533.32032 618.666667l-85.333333 123.733333v251.733333c-2.133333 12.8-10.666667 23.466667-23.466667 23.466667z"  /><path fill="#333333" d="M488.52032 795.733333c-12.8 0-21.333333-8.533333-21.333333-21.333333v-23.466667c0-12.8 8.533333-21.333333 21.333333-21.333333s21.333333 8.533333 21.333333 21.333333v23.466667c0 12.8-10.666667 21.333333-21.333333 21.333333zM488.52032 898.133333c-12.8 0-21.333333-8.533333-21.333333-21.333333V853.333333c0-12.8 8.533333-21.333333 21.333333-21.333333s21.333333 8.533333 21.333333 21.333333v23.466667c0 12.8-10.666667 21.333333-21.333333 21.333333z"  /></svg>