<?xml version="1.0" standalone="no"?><!DOCTYPE svg PUBLIC "-//W3C//DTD SVG 1.1//EN" "http://www.w3.org/Graphics/SVG/1.1/DTD/svg11.dtd"><svg class="icon" width="200px" height="200.00px" viewBox="0 0 1024 1024" version="1.1" xmlns="http://www.w3.org/2000/svg"><path fill="#333333" d="M753.36192 981.333333H271.228587c-12.8 0-21.333333-8.533333-21.333334-21.333333V411.733333l-93.866666 87.466667c-8.533333 8.533333-21.333333 8.533333-29.866667 0L6.695253 386.133333c-8.533333-8.533333-8.533333-19.2-2.133333-27.733333l181.333333-234.666667c2.133333-4.266667 6.4-6.4 10.666667-8.533333L394.96192 42.666667c6.4-2.133333 12.8-2.133333 19.2 2.133333 6.4 4.266667 8.533333 8.533333 10.666667 14.933333 0 4.266667 10.666667 53.333333 87.466666 53.333334 81.066667 0 87.466667-51.2 87.466667-53.333334 0-6.4 4.266667-12.8 10.666667-14.933333 6.4-2.133333 12.8-4.266667 19.2-2.133333l200.533333 72.533333c4.266667 2.133333 6.4 4.266667 8.533333 6.4l181.333334 234.666667c6.4 8.533333 6.4 21.333333-2.133334 27.733333L896.295253 499.2c-8.533333 8.533333-21.333333 8.533333-29.866666 0l-93.866667-87.466667V960c2.133333 12.8-8.533333 21.333333-19.2 21.333333z m-460.8-42.666666h439.466667V362.666667c0-8.533333 4.266667-17.066667 12.8-19.2 8.533333-4.266667 17.066667-2.133333 23.466666 4.266666l115.2 108.8 91.733334-85.333333-166.4-217.6-172.8-61.866667c-14.933333 29.866667-51.2 66.133333-123.733334 66.133334s-108.8-36.266667-123.733333-66.133334l-172.8 61.866667-166.4 215.466667 91.733333 85.333333 115.2-108.8c6.4-6.4 14.933333-6.4 23.466667-4.266667 8.533333 4.266667 12.8 10.666667 12.8 19.2V938.666667z"  /><path fill="#333333" d="M614.695253 85.333333h-206.933333c-12.8 0-21.333333-8.533333-21.333333-21.333333s8.533333-21.333333 21.333333-21.333333h206.933333c12.8 0 21.333333 8.533333 21.333334 21.333333s-8.533333 21.333333-21.333334 21.333333z"  /></svg>