<?xml version="1.0" standalone="no"?><!DOCTYPE svg PUBLIC "-//W3C//DTD SVG 1.1//EN" "http://www.w3.org/Graphics/SVG/1.1/DTD/svg11.dtd"><svg class="icon" width="200px" height="200.00px" viewBox="0 0 1024 1024" version="1.1" xmlns="http://www.w3.org/2000/svg"><path fill="#333333" d="M441.788587 812.8H298.855253c-12.8 0-21.333333-8.533333-21.333333-21.333333s8.533333-21.333333 21.333333-21.333334h142.933334c12.8 0 21.333333 8.533333 21.333333 21.333334s-8.533333 21.333333-21.333333 21.333333zM403.388587 520.533333c-8.533333 0-19.2-6.4-21.333334-17.066666-14.933333-57.6 0-155.733333 0-160 2.133333-10.666667 12.8-19.2 23.466667-19.2 10.666667 2.133333 19.2 12.8 19.2 23.466666 0 0-12.8 96 0 145.066667 2.133333 10.666667-4.266667 23.466667-14.933333 25.6-2.133333 2.133333-4.266667 2.133333-6.4 2.133333z"  /><path fill="#333333" d="M983.655253 1024h-145.066666c-6.4 0-12.8-4.266667-17.066667-8.533333-4.266667-6.4-4.266667-12.8-2.133333-19.2 59.733333-153.6 19.2-307.2-19.2-398.933334v364.8c0 12.8-8.533333 21.333333-21.333334 21.333334H247.655253c-12.8 0-21.333333-8.533333-21.333333-21.333334V597.333333c-36.266667 89.6-78.933333 241.066667-19.2 394.666667 2.133333 4.266667 4.266667 6.4 4.266667 10.666667 0 12.8-8.533333 21.333333-21.333334 21.333333h-149.333333c-10.666667 0-19.2-6.4-21.333333-17.066667-2.133333-19.2-96-473.6 149.333333-714.666666 2.133333-2.133333 6.4-4.266667 8.533333-4.266667l157.866667-46.933333c-2.133333-38.4 0-130.133333 51.2-187.733334C416.188587 17.066667 458.855253 0 512.188587 0h2.133333c53.333333 0 93.866667 17.066667 123.733333 53.333333 51.2 59.733333 53.333333 149.333333 51.2 187.733334l160 46.933333c4.266667 0 6.4 2.133333 8.533334 4.266667 243.2 241.066667 149.333333 695.466667 145.066666 714.666666-2.133333 10.666667-10.666667 17.066667-19.2 17.066667z m-115.2-42.666667h98.133334c14.933333-83.2 64-454.4-134.4-654.933333L661.52192 277.333333c-10.666667-2.133333-17.066667-12.8-14.933333-23.466666 0-2.133333 12.8-113.066667-38.4-172.8C582.588587 55.466667 552.72192 42.666667 512.188587 42.666667h-2.133334c-38.4 0-70.4 12.8-91.733333 38.4-53.333333 59.733333-40.533333 172.8-38.4 172.8 2.133333 10.666667-4.266667 19.2-14.933333 23.466666l-170.666667 49.066667c-198.4 200.533333-149.333333 571.733333-134.4 654.933333h98.133333c-78.933333-247.466667 66.133333-475.733333 72.533334-486.4 4.266667-8.533333 14.933333-10.666667 23.466666-8.533333 8.533333 2.133333 14.933333 10.666667 14.933334 21.333333v435.2h486.4V505.6c0-8.533333 6.4-17.066667 14.933333-21.333333 8.533333-2.133333 19.2 0 23.466667 8.533333 8.533333 12.8 153.6 241.066667 74.666666 488.533333z"  /><path fill="#333333" d="M725.52192 812.8h-142.933333c-12.8 0-21.333333-8.533333-21.333334-21.333333s8.533333-21.333333 21.333334-21.333334H725.52192c12.8 0 21.333333 8.533333 21.333333 21.333334s-10.666667 21.333333-21.333333 21.333333zM620.988587 520.533333h-4.266667c-10.666667-2.133333-19.2-14.933333-14.933333-25.6 12.8-49.066667 0-142.933333 0-145.066666-2.133333-10.666667 6.4-23.466667 19.2-23.466667 12.8-2.133333 23.466667 6.4 23.466666 19.2 0 4.266667 14.933333 102.4 0 160-6.4 8.533333-14.933333 14.933333-23.466666 14.933333zM512.188587 413.866667c-6.4 0-12.8-2.133333-17.066667-8.533334-27.733333-32-104.533333-121.6-140.8-147.2-4.266667-2.133333-8.533333-8.533333-8.533333-12.8 0-2.133333-10.666667-57.6 25.6-102.4C399.12192 108.8 448.188587 89.6 512.188587 89.6c12.8 0 21.333333 8.533333 21.333333 21.333333s-8.533333 21.333333-21.333333 21.333334c-51.2 0-89.6 12.8-108.8 36.266666-17.066667 21.333333-17.066667 46.933333-17.066667 59.733334 51.2 38.4 138.666667 145.066667 142.933333 149.333333 8.533333 8.533333 6.4 23.466667-2.133333 29.866667-6.4 4.266667-10.666667 6.4-14.933333 6.4z"  /><path fill="#333333" d="M512.188587 413.866667c-4.266667 0-8.533333-2.133333-12.8-4.266667-8.533333-8.533333-10.666667-21.333333-2.133334-29.866667 4.266667-4.266667 91.733333-110.933333 142.933334-149.333333 0-12.8 0-38.4-17.066667-59.733333-19.2-23.466667-55.466667-36.266667-108.8-36.266667-12.8 0-21.333333-8.533333-21.333333-21.333333s8.533333-21.333333 21.333333-21.333334c66.133333 0 113.066667 17.066667 140.8 53.333334 36.266667 44.8 25.6 100.266667 25.6 102.4-2.133333 6.4-4.266667 10.666667-8.533333 12.8-36.266667 23.466667-115.2 113.066667-140.8 147.2-6.4 2.133333-12.8 6.4-19.2 6.4z"  /></svg>