<?xml version="1.0" standalone="no"?><!DOCTYPE svg PUBLIC "-//W3C//DTD SVG 1.1//EN" "http://www.w3.org/Graphics/SVG/1.1/DTD/svg11.dtd"><svg class="icon" width="200px" height="200.00px" viewBox="0 0 1024 1024" version="1.1" xmlns="http://www.w3.org/2000/svg"><path fill="#333333" d="M509.866667 330.666667c-8.533333 0-14.933333-4.266667-19.2-12.8-51.2-104.533333-74.666667-264.533333-74.666667-270.933334-2.133333-10.666667 6.4-23.466667 19.2-23.466666 10.666667-2.133333 23.466667 6.4 23.466667 19.2 0 2.133333 23.466667 162.133333 70.4 260.266666 4.266667 10.666667 0 23.466667-10.666667 27.733334h-8.533333z"  /><path fill="#333333" d="M514.133333 330.666667c-2.133333 0-6.4 0-8.533333-2.133334-10.666667-4.266667-14.933333-17.066667-10.666667-27.733333C541.866667 200.533333 565.333333 42.666667 565.333333 40.533333c2.133333-12.8 12.8-19.2 25.6-19.2 10.666667 2.133333 19.2 12.8 19.2 23.466667 0 6.4-23.466667 168.533333-74.666666 273.066667-6.4 8.533333-12.8 12.8-21.333334 12.8zM507.733333 477.866667c-6.4 0-14.933333-4.266667-17.066666-10.666667l-128-198.4c-4.266667-6.4-4.266667-12.8-2.133334-19.2l19.2-53.333333-25.6-14.933334c-8.533333-4.266667-12.8-17.066667-8.533333-25.6l29.866667-76.8c4.266667-10.666667 17.066667-17.066667 27.733333-12.8 10.666667 4.266667 17.066667 17.066667 12.8 27.733334l-23.466667 59.733333 25.6 14.933333c8.533333 4.266667 12.8 14.933333 10.666667 25.6l-21.333333 59.733334 121.6 189.866666c6.4 10.666667 4.266667 23.466667-6.4 29.866667-8.533333 2.133333-10.666667 4.266667-14.933334 4.266667z"  /><path fill="#333333" d="M533.333333 782.933333h-21.333333-19.2c-49.066667 0-140.8-4.266667-192-27.733333-10.666667-4.266667-14.933333-17.066667-10.666667-27.733333 0-2.133333 51.2-140.8 42.666667-277.333334l-61.866667 238.933334c-2.133333 10.666667-14.933333 17.066667-25.6 14.933333l-104.533333-21.333333c-6.4 0-10.666667-4.266667-12.8-8.533334-2.133333-4.266667-4.266667-10.666667-2.133333-17.066666l134.4-531.2c2.133333-6.4 6.4-10.666667 12.8-14.933334L384 61.866667 413.866667 21.333333c4.266667-4.266667 8.533333-6.4 12.8-8.533333l81.066666-12.8h6.4l81.066667 12.8c4.266667 0 10.666667 4.266667 12.8 8.533333L640 61.866667l113.066667 51.2c6.4 2.133333 10.666667 8.533333 12.8 14.933333l134.4 531.2c2.133333 6.4 0 10.666667-2.133334 17.066667-2.133333 4.266667-8.533333 8.533333-12.8 10.666666l-104.533333 23.466667c-10.666667 2.133333-23.466667-4.266667-25.6-14.933333l-61.866667-238.933334c-8.533333 136.533333 40.533333 275.2 42.666667 277.333334 4.266667 10.666667 0 21.333333-10.666667 27.733333-53.333333 17.066667-142.933333 21.333333-192 21.333333z m-21.333333-42.666666h21.333333c32 0 106.666667-2.133333 155.733334-17.066667-19.2-59.733333-66.133333-234.666667-19.2-377.6 2.133333-8.533333 10.666667-14.933333 21.333333-14.933333 8.533333 0 17.066667 6.4 19.2 17.066666L789.333333 659.2l61.866667-12.8-123.733333-499.2L618.666667 98.133333c-2.133333-2.133333-6.4-4.266667-8.533334-6.4l-29.866666-38.4L512 42.666667l-68.266667 12.8-29.866666 38.4c-2.133333 2.133333-4.266667 4.266667-8.533334 6.4L296.533333 149.333333 170.666667 646.4l61.866666 12.8 81.066667-311.466667c2.133333-8.533333 10.666667-14.933333 19.2-17.066666 8.533333 0 17.066667 6.4 21.333333 14.933333 46.933333 142.933333 0 317.866667-19.2 377.6 49.066667 14.933333 123.733333 17.066667 155.733334 17.066667h21.333333z"  /><path fill="#333333" d="M516.266667 477.866667c-4.266667 0-8.533333 0-10.666667-4.266667-10.666667-6.4-12.8-19.2-6.4-29.866667l121.6-189.866666-21.333333-59.733334c-4.266667-10.666667 0-21.333333 10.666666-25.6l25.6-14.933333-23.466666-59.733333c-4.266667-10.666667 2.133333-23.466667 12.8-27.733334 10.666667-4.266667 23.466667 2.133333 27.733333 12.8L682.666667 155.733333c4.266667 10.666667 0 21.333333-8.533334 25.6l-25.6 14.933334 19.2 53.333333c2.133333 6.4 2.133333 12.8-2.133333 19.2l-125.866667 198.4c-8.533333 6.4-14.933333 10.666667-23.466666 10.666667z"  /><path fill="#333333" d="M512 782.933333c-12.8 0-21.333333-8.533333-21.333333-21.333333V467.2c0-12.8 8.533333-21.333333 21.333333-21.333333s21.333333 8.533333 21.333333 21.333333v294.4c0 12.8-8.533333 21.333333-21.333333 21.333333z"  /><path fill="#333333" d="M490.666667 1024c-110.933333 0-164.266667-36.266667-168.533334-38.4-6.4-4.266667-8.533333-10.666667-8.533333-17.066667v-213.333333c0-12.8 8.533333-21.333333 21.333333-21.333333s21.333333 8.533333 21.333334 21.333333v202.666667c29.866667 14.933333 132.266667 53.333333 313.6-2.133334v-198.4c0-12.8 8.533333-21.333333 21.333333-21.333333s21.333333 8.533333 21.333333 21.333333v213.333334c0 8.533333-6.4 17.066667-14.933333 21.333333-83.2 23.466667-151.466667 32-206.933333 32z"  /></svg>