<?xml version="1.0" standalone="no"?><!DOCTYPE svg PUBLIC "-//W3C//DTD SVG 1.1//EN" "http://www.w3.org/Graphics/SVG/1.1/DTD/svg11.dtd"><svg class="icon" width="200px" height="200.00px" viewBox="0 0 1024 1024" version="1.1" xmlns="http://www.w3.org/2000/svg"><path fill="#333333" d="M390.4 226.133333c-2.133333 0-4.266667 0-6.4-2.133333-6.4-2.133333-12.8-8.533333-12.8-14.933333l-25.6-108.8c-2.133333-10.666667 4.266667-23.466667 14.933333-25.6 10.666667-2.133333 23.466667 4.266667 25.6 14.933333l17.066667 74.666667 91.733333-72.533334c8.533333-6.4 23.466667-6.4 29.866667 4.266667 6.4 8.533333 6.4 23.466667-4.266667 29.866667l-117.333333 93.866666c-4.266667 6.4-8.533333 6.4-12.8 6.4z"  /><path fill="#333333" d="M778.666667 1024h-533.333334c-12.8 0-21.333333-8.533333-21.333333-21.333333V396.8l-83.2 49.066667c-10.666667 6.4-21.333333 2.133333-27.733333-6.4L4.266667 277.333333c-6.4-8.533333-4.266667-21.333333 4.266666-27.733333l221.866667-162.133333c4.266667-2.133333 6.4-4.266667 10.666667-4.266667l115.2-12.8L388.266667 12.8c2.133333-6.4 8.533333-8.533333 14.933333-10.666667 6.4 0 12.8 0 17.066667 4.266667L512 87.466667 603.733333 6.4c4.266667-4.266667 10.666667-6.4 17.066667-4.266667 6.4 2.133333 12.8 4.266667 14.933333 10.666667l32 57.6 115.2 12.8c4.266667 0 6.4 2.133333 10.666667 4.266667l221.866667 162.133333c8.533333 6.4 10.666667 19.2 4.266666 29.866667l-108.8 162.133333c-6.4 8.533333-19.2 12.8-27.733333 6.4l-83.2-49.066667V1002.666667c0 12.8-10.666667 21.333333-21.333333 21.333333z m-512-42.666667h488.533333V360.533333c0-8.533333 4.266667-14.933333 10.666667-19.2 6.4-4.266667 14.933333-4.266667 21.333333 0l98.133333 57.6 87.466667-128-200.533333-145.066666-119.466667-14.933334c-6.4 0-12.8-4.266667-17.066667-10.666666l-25.6-44.8-85.333333 76.8c-8.533333 6.4-19.2 6.4-27.733333 0l-85.333334-76.8-25.6 44.8c-2.133333 6.4-8.533333 10.666667-14.933333 10.666666l-119.466667 14.933334-200.533333 145.066666 87.466667 128L234.666667 341.333333c6.4-4.266667 14.933333-4.266667 21.333333 0 6.4 4.266667 10.666667 10.666667 10.666667 19.2V981.333333z"  /><path fill="#333333" d="M633.6 226.133333c-4.266667 0-8.533333-2.133333-12.8-4.266666L503.466667 128c-8.533333-6.4-10.666667-21.333333-4.266667-29.866667 6.4-8.533333 21.333333-10.666667 29.866667-4.266666l91.733333 72.533333 17.066667-74.666667c2.133333-10.666667 14.933333-19.2 25.6-14.933333 10.666667 2.133333 19.2 14.933333 14.933333 25.6l-25.6 108.8c-2.133333 6.4-6.4 12.8-12.8 14.933333h-6.4z"  /><path fill="#333333" d="M507.733333 392.533333c-12.8 0-21.333333-8.533333-21.333333-21.333333V132.266667c0-12.8 8.533333-21.333333 21.333333-21.333334s21.333333 8.533333 21.333334 21.333334v238.933333c0 12.8-8.533333 21.333333-21.333334 21.333333zM416 42.666667c-8.533333 0-17.066667-4.266667-19.2-12.8-4.266667-10.666667 0-23.466667 10.666667-27.733334 4.266667-2.133333 8.533333-2.133333 198.4-2.133333 12.8 0 21.333333 10.666667 21.333333 21.333333s-10.666667 21.333333-21.333333 21.333334c-66.133333 0-172.8-2.133333-187.733334 0h-2.133333z"  /></svg>