<?xml version="1.0" standalone="no"?><!DOCTYPE svg PUBLIC "-//W3C//DTD SVG 1.1//EN" "http://www.w3.org/Graphics/SVG/1.1/DTD/svg11.dtd"><svg class="icon" width="200px" height="200.00px" viewBox="0 0 1024 1024" version="1.1" xmlns="http://www.w3.org/2000/svg"><path fill="#333333" d="M763.389297 1024H260.610703c-8.521671 0-17.043342-4.260836-19.17376-12.782507-4.260836-8.521671-95.8688-225.824283 68.173369-417.561882 6.391253-10.652089 42.608355-80.955875 2.130418-166.172586-38.34752-76.69504-51.130026-140.607573-40.477938-189.607181l-108.651306-42.608356c-6.391253-2.130418-10.652089-6.391253-12.782507-12.782506-2.130418-4.260836-2.130418-10.652089 0-17.043342l38.34752-83.086293c2.130418-4.260836 6.391253-8.521671 12.782507-10.652089L401.218276 1.399471c6.391253-2.130418 14.912924-2.130418 19.17376 2.130418s8.521671 10.652089 8.521671 17.043342c0 4.260836-2.130418 106.520888-40.477938 185.346346 34.086684 4.260836 83.086293 14.912924 123.564231 46.869191 38.34752-34.086684 89.477546-44.738773 123.564231-46.869191C599.347128 129.224538 595.086293 29.094902 595.086293 22.703649c0-6.391253 2.130418-12.782507 8.521671-17.043342 6.391253-4.260836 12.782507-4.260836 19.17376-2.130418l200.25927 70.303787c6.391253 2.130418 10.652089 6.391253 12.782507 10.652088L874.171021 165.44164c2.130418 4.260836 2.130418 10.652089 0 17.043342-2.130418 6.391253-6.391253 10.652089-12.782507 12.782506l-108.651306 42.608356c10.652089 51.130026-2.130418 112.912142-42.608356 189.607181-42.608355 83.086293-4.260836 155.520497 2.130418 166.172586 164.042168 191.737599 72.434204 409.040211 68.173369 417.561882-2.130418 8.521671-8.521671 12.782507-17.043342 12.782507z m-487.865669-42.608355H746.345954c17.043342-46.869191 59.651697-213.041777-68.173368-362.171021l-2.130418-2.130418c-2.130418-4.260836-59.651697-97.999217-4.260835-208.780941 38.34752-74.564622 48.999609-134.216319 34.086684-176.824675-4.260836-10.652089 2.130418-23.434595 12.782506-27.695431l106.520889-42.608355L799.606399 107.92036 639.825066 52.529498c4.260836 42.608355 14.912924 115.042559 48.999609 164.042168 4.260836 6.391253 4.260836 14.912924 0 23.434595-4.260836 6.391253-12.782507 10.652089-19.17376 10.652089h-6.391253c-21.304178 0-93.738382 4.260836-134.21632 51.130027-8.521671 8.521671-23.434595 8.521671-31.956266 0-42.608355-46.869191-112.912142-51.130026-134.21632-51.130027h-6.391253c-8.521671 0-14.912924-4.260836-19.17376-10.652089-4.260836-6.391253-4.260836-14.912924 0-23.434595 31.956267-48.999609 44.738773-121.433813 48.999609-164.042168L226.524019 107.92036 198.828588 163.311222l106.520889 42.608355c10.652089 4.260836 17.043342 17.043342 12.782506 27.695431-14.912924 42.608355-4.260836 102.260053 34.086684 176.824675 55.390862 110.781724-2.130418 204.520106-4.260835 208.780941l-2.130418 2.130418c-129.955484 146.998826-85.216711 313.171412-70.303786 360.040603z" /></svg>