<?xml version="1.0" standalone="no"?><!DOCTYPE svg PUBLIC "-//W3C//DTD SVG 1.1//EN" "http://www.w3.org/Graphics/SVG/1.1/DTD/svg11.dtd"><svg class="icon" width="200px" height="200.00px" viewBox="0 0 1024 1024" version="1.1" xmlns="http://www.w3.org/2000/svg"><path fill="#333333" d="M117.333333 853.333333c-6.4 0-12.8-2.133333-17.066666-6.4L4.266667 736c-6.4-8.533333-6.4-21.333333 0-29.866667L256 452.266667c2.133333-2.133333 6.4-4.266667 10.666667-6.4l57.6-10.666667 14.933333-23.466667c6.4-10.666667 19.2-12.8 29.866667-6.4 10.666667 6.4 12.8 19.2 6.4 29.866667l-19.2 29.866667c-2.133333 4.266667-8.533333 8.533333-14.933334 10.666666l-59.733333 10.666667-232.533333 234.666667 68.266666 78.933333 192-166.4c8.533333-8.533333 21.333333-6.4 29.866667 2.133333 8.533333 8.533333 6.4 21.333333-2.133333 29.866667l-206.933334 179.2c-2.133333 6.4-8.533333 8.533333-12.8 8.533333zM906.666667 853.333333c-4.266667 0-10.666667-2.133333-14.933334-4.266666l-206.933333-179.2c-8.533333-8.533333-10.666667-21.333333-2.133333-29.866667 8.533333-8.533333 21.333333-10.666667 29.866666-2.133333l192 166.4 68.266667-78.933334-232.533333-234.666666-64-14.933334c-6.4-2.133333-10.666667-4.266667-14.933334-10.666666l-19.2-34.133334c-6.4-10.666667-2.133333-23.466667 8.533334-29.866666 10.666667-6.4 23.466667-2.133333 29.866666 8.533333l14.933334 25.6 59.733333 12.8c4.266667 0 8.533333 2.133333 10.666667 6.4l251.733333 253.866667c8.533333 8.533333 8.533333 21.333333 0 29.866666l-96 110.933334c-2.133333 2.133333-8.533333 4.266667-14.933333 4.266666z"  /><path fill="#333333" d="M725.333333 1024H298.666667c-12.8 0-21.333333-8.533333-21.333334-21.333333V674.133333c0-12.8 8.533333-21.333333 21.333334-21.333333s21.333333 8.533333 21.333333 21.333333V981.333333h384V676.266667c0-12.8 8.533333-21.333333 21.333333-21.333334s21.333333 8.533333 21.333334 21.333334V1002.666667c0 12.8-10.666667 21.333333-21.333334 21.333333zM512 499.2c-130.133333 0-234.666667-110.933333-234.666667-249.6S381.866667 0 512 0s234.666667 110.933333 234.666667 249.6-104.533333 249.6-234.666667 249.6zM512 42.666667c-106.666667 0-192 91.733333-192 206.933333s85.333333 206.933333 192 206.933333c104.533333 0 192-91.733333 192-206.933333S616.533333 42.666667 512 42.666667z"  /><path fill="#333333" d="M512 416c-72.533333 0-132.266667-64-132.266667-140.8s59.733333-140.8 132.266667-140.8 132.266667 64 132.266667 140.8-59.733333 140.8-132.266667 140.8z m0-238.933333c-49.066667 0-89.6 44.8-89.6 98.133333s40.533333 98.133333 89.6 98.133333 89.6-44.8 89.6-98.133333-40.533333-98.133333-89.6-98.133333z"  /><path fill="#333333" d="M512 750.933333c-12.8 0-21.333333-8.533333-21.333333-21.333333V401.066667c0-12.8 8.533333-21.333333 21.333333-21.333334s21.333333 8.533333 21.333333 21.333334v328.533333c0 10.666667-8.533333 21.333333-21.333333 21.333333zM512 1024c-12.8 0-21.333333-8.533333-21.333333-21.333333v-140.8c0-12.8 8.533333-21.333333 21.333333-21.333334s21.333333 8.533333 21.333333 21.333334V1002.666667c0 12.8-8.533333 21.333333-21.333333 21.333333z"  /><path fill="#333333" d="M588.8 876.8h-155.733333c-12.8 0-21.333333-8.533333-21.333334-21.333333v-125.866667c0-12.8 8.533333-21.333333 21.333334-21.333333h155.733333c12.8 0 21.333333 8.533333 21.333333 21.333333v125.866667c0 12.8-8.533333 21.333333-21.333333 21.333333z m-134.4-42.666667h113.066667v-83.2h-113.066667v83.2z"  /><path fill="#333333" d="M426.666667 812.8h-119.466667c-12.8 0-21.333333-8.533333-21.333333-21.333333s8.533333-21.333333 21.333333-21.333334H426.666667c12.8 0 21.333333 8.533333 21.333333 21.333334s-10.666667 21.333333-21.333333 21.333333zM718.933333 812.8H597.333333c-12.8 0-21.333333-8.533333-21.333333-21.333333s8.533333-21.333333 21.333333-21.333334h119.466667c12.8 0 21.333333 8.533333 21.333333 21.333334s-8.533333 21.333333-19.2 21.333333z"  /></svg>