<?xml version="1.0" standalone="no"?><!DOCTYPE svg PUBLIC "-//W3C//DTD SVG 1.1//EN" "http://www.w3.org/Graphics/SVG/1.1/DTD/svg11.dtd"><svg class="icon" width="200px" height="200.00px" viewBox="0 0 1024 1024" version="1.1" xmlns="http://www.w3.org/2000/svg"><path fill="#333333" d="M221.405405 868.590437h-4.257796c-10.644491-2.128898-19.160083-14.902287-14.902287-25.546778L276.756757 510.935551l-185.214137-14.902287c-10.644491 0-21.288981-10.644491-19.160084-23.417879 0-10.644491 10.644491-21.288981 23.41788-19.160084l208.632016 17.031185c6.386694 0 12.773389 4.257796 14.902287 8.515593s4.257796 10.644491 4.257797 17.031185L242.694387 851.559252c-2.128898 8.515593-10.644491 17.031185-21.288982 17.031185zM114.960499 361.912682c-6.386694 0-14.902287-4.257796-19.160083-10.644491-6.386694-10.644491-2.128898-23.417879 8.515592-29.804574 185.214137-106.444906 178.827443-291.659044 178.827443-300.174636 0-12.773389 8.515593-21.288981 19.160083-21.288981s21.288981 8.515593 23.41788 19.160083c0 8.515593 8.515593 219.276507-200.116424 338.494803-4.257796 4.257796-6.386694 4.257796-10.644491 4.257796z"  /><path fill="#333333" d="M596.091476 1021.871102c-8.515593 0-17.031185-6.386694-21.288981-14.902287l-63.866944-236.307692-63.866944 236.307692c-2.128898 10.644491-12.773389 17.031185-23.417879 14.902287l-404.490645-57.48025c-6.386694 0-10.644491-4.257796-14.902287-8.515592s-4.257796-10.644491-4.257796-14.902287L144.765073 17.031185c0-8.515593 10.644491-17.031185 19.160083-17.031185h691.891892c10.644491 0 19.160083 8.515593 21.288981 17.031185L1021.871102 940.972973c0 6.386694 0 10.644491-4.257796 17.031185-4.257796 4.257796-8.515593 8.515593-14.902287 8.515593l-404.490645 57.480249c0-2.128898-2.128898-2.128898-2.128898-2.128898z m-85.155925-353.39709c10.644491 0 17.031185 6.386694 21.288981 14.902287l78.769231 293.787942 364.04158-51.093555L838.785863 42.577963H183.085239L44.706861 926.070686l364.04158 51.093555L489.64657 683.376299c4.257796-8.515593 10.644491-14.902287 21.288981-14.902287z"  /><path fill="#333333" d="M800.465696 868.590437c-10.644491 0-19.160083-6.386694-21.288981-17.031185l-83.027027-353.39709c-2.128898-6.386694 0-12.773389 4.257796-17.031185s8.515593-8.515593 14.902287-8.515592l208.632017-17.031185c10.644491 0 21.288981 8.515593 23.417879 19.160083 0 12.773389-8.515593 21.288981-19.160083 23.417879L745.114345 510.935551l76.640333 329.97921c2.128898 10.644491-4.257796 23.417879-14.902287 25.546777-2.128898 0-4.257796 2.128898-6.386695 2.128899zM906.910603 361.912682c-4.257796 0-6.386694 0-10.644491-2.128898-208.632017-119.218295-200.116424-329.97921-200.116424-338.494803 0-12.773389 10.644491-21.288981 23.41788-19.160083 12.773389 0 21.288981 10.644491 19.160083 21.288981 0 8.515593-6.386694 193.72973 178.827443 300.174637 10.644491 6.386694 12.773389 19.160083 8.515592 29.804573-4.257796 4.257796-12.773389 8.515593-19.160083 8.515593zM510.935551 442.810811c-12.773389 0-21.288981-8.515593-21.288981-21.288981v-383.201664c0-12.773389 8.515593-21.288981 21.288981-21.288981s21.288981 8.515593 21.288981 21.288981v383.201664c0 10.644491-8.515593 21.288981-21.288981 21.288981z"  /></svg>