<?xml version="1.0" standalone="no"?><!DOCTYPE svg PUBLIC "-//W3C//DTD SVG 1.1//EN" "http://www.w3.org/Graphics/SVG/1.1/DTD/svg11.dtd"><svg class="icon" width="200px" height="200.00px" viewBox="0 0 1024 1024" version="1.1" xmlns="http://www.w3.org/2000/svg"><path fill="#333333" d="M298.666667 563.2c-110.933333 0-200.533333-70.4-200.533334-155.733333s89.6-155.733333 200.533334-155.733334 200.533333 70.4 200.533333 155.733334-89.6 155.733333-200.533333 155.733333z m0-270.933333c-87.466667 0-157.866667 51.2-157.866667 113.066666s70.4 113.066667 157.866667 113.066667 157.866667-51.2 157.866666-113.066667-70.4-113.066667-157.866666-113.066666zM725.333333 563.2c-110.933333 0-200.533333-70.4-200.533333-155.733333s89.6-155.733333 200.533333-155.733334 200.533333 70.4 200.533334 155.733334-89.6 155.733333-200.533334 155.733333z m0-270.933333c-87.466667 0-157.866667 51.2-157.866666 113.066666s70.4 113.066667 157.866666 113.066667c87.466667 0 157.866667-51.2 157.866667-113.066667s-70.4-113.066667-157.866667-113.066666z"  /><path fill="#333333" d="M258.133333 294.4c-12.8 0-21.333333-8.533333-21.333333-21.333333V21.333333c0-12.8 8.533333-21.333333 21.333333-21.333333s21.333333 8.533333 21.333334 21.333333v251.733334c0 12.8-8.533333 21.333333-21.333334 21.333333zM765.866667 294.4c-12.8 0-21.333333-8.533333-21.333334-21.333333V21.333333c0-12.8 8.533333-21.333333 21.333334-21.333333s21.333333 8.533333 21.333333 21.333333v251.733334c0 12.8-10.666667 21.333333-21.333333 21.333333zM541.866667 435.2h-61.866667c-12.8 0-21.333333-8.533333-21.333333-21.333333s8.533333-21.333333 21.333333-21.333334h61.866667c12.8 0 21.333333 8.533333 21.333333 21.333334s-8.533333 21.333333-21.333333 21.333333zM580.266667 1024h-136.533334c-8.533333 0-14.933333-4.266667-19.2-12.8 0-2.133333-96-185.6-288-234.666667-10.666667-2.133333-17.066667-12.8-14.933333-23.466666l17.066667-100.266667c2.133333-6.4 4.266667-12.8 10.666666-14.933333 6.4-2.133333 12.8-4.266667 19.2 0 2.133333 0 138.666667 66.133333 339.2 66.133333 117.333333 0 234.666667-21.333333 345.6-66.133333 6.4-2.133333 12.8-2.133333 17.066667 0 6.4 2.133333 8.533333 8.533333 10.666667 14.933333l21.333333 102.4c2.133333 10.666667-4.266667 21.333333-12.8 23.466667-2.133333 0-226.133333 93.866667-290.133333 232.533333-2.133333 8.533333-10.666667 12.8-19.2 12.8z m-123.733334-42.666667h110.933334c66.133333-125.866667 234.666667-209.066667 290.133333-234.666666l-12.8-59.733334C736 725.333333 622.933333 746.666667 507.733333 746.666667c-160 0-281.6-38.4-330.666666-57.6l-8.533334 55.466666c170.666667 49.066667 264.533333 194.133333 288 236.8z"  /></svg>