<?xml version="1.0" standalone="no"?><!DOCTYPE svg PUBLIC "-//W3C//DTD SVG 1.1//EN" "http://www.w3.org/Graphics/SVG/1.1/DTD/svg11.dtd"><svg class="icon" width="200px" height="200.00px" viewBox="0 0 1024 1024" version="1.1" xmlns="http://www.w3.org/2000/svg"><path fill="#333333" d="M441.6 537.6c-2.133333 0-4.266667 0-6.4-2.133333-85.333333-27.733333-83.2-96-83.2-98.133334 0-12.8 10.666667-21.333333 21.333333-21.333333s21.333333 10.666667 21.333334 21.333333c0 4.266667 0 34.133333 42.666666 53.333334l61.866667-42.666667c10.666667-6.4 23.466667-4.266667 29.866667 4.266667 6.4 10.666667 4.266667 23.466667-4.266667 29.866666L454.4 533.333333c-4.266667 4.266667-8.533333 4.266667-12.8 4.266667zM245.333333 992c-10.666667 0-21.333333-8.533333-21.333333-19.2 0-8.533333-14.933333-198.4 108.8-386.133333 6.4-10.666667 19.2-12.8 29.866667-6.4 10.666667 6.4 12.8 19.2 6.4 29.866666-115.2 174.933333-102.4 358.4-102.4 358.4 2.133333 10.666667-6.4 21.333333-21.333334 23.466667 2.133333 0 0 0 0 0zM373.333333 1006.933333c-10.666667 0-21.333333-8.533333-21.333333-21.333333 0-4.266667-2.133333-123.733333 36.266667-213.333333 4.266667-10.666667 17.066667-14.933333 27.733333-10.666667 10.666667 4.266667 14.933333 17.066667 10.666667 27.733333-36.266667 78.933333-32 192-32 194.133334 0 14.933333-8.533333 23.466667-21.333334 23.466666z"  /><path fill="#333333" d="M512 1024C206.933333 1024 125.866667 932.266667 121.6 928c-4.266667-4.266667-4.266667-8.533333-4.266667-12.8 0-315.733333 234.666667-492.8 245.333334-501.333333 25.6-23.466667 36.266667-46.933333 34.133333-72.533334-4.266667-53.333333-70.4-104.533333-96-119.466666-4.266667-2.133333-8.533333-8.533333-10.666667-14.933334-2.133333-6.4 0-12.8 4.266667-17.066666l27.733333-38.4-12.8-115.2c-2.133333-10.666667 6.4-21.333333 17.066667-23.466667l51.2-12.8c6.4 0 10.666667 0 17.066667 2.133333 4.266667 2.133333 8.533333 8.533333 8.533333 12.8L426.666667 113.066667c38.4 4.266667 70.4 19.2 85.333333 27.733333 17.066667-10.666667 46.933333-25.6 85.333333-27.733333L620.8 17.066667c2.133333-6.4 4.266667-10.666667 8.533333-12.8s10.666667-4.266667 17.066667-4.266667l51.2 12.8c10.666667 2.133333 17.066667 12.8 17.066667 23.466667l-12.8 115.2 27.733333 38.4c4.266667 4.266667 4.266667 10.666667 4.266667 17.066666-2.133333 6.4-4.266667 10.666667-10.666667 14.933334 0 0-89.6 55.466667-96 119.466666-2.133333 25.6 10.666667 49.066667 36.266667 72.533334 8.533333 6.4 243.2 183.466667 243.2 499.2 0 4.266667-2.133333 10.666667-4.266667 12.8-4.266667 6.4-85.333333 98.133333-390.4 98.133333zM160 904.533333c21.333333 17.066667 110.933333 76.8 352 76.8s330.666667-59.733333 352-76.8C859.733333 616.533333 637.866667 450.133333 635.733333 448c-38.4-34.133333-55.466667-70.4-51.2-110.933333 6.4-64 66.133333-115.2 96-138.666667l-21.333333-27.733333c-2.133333-4.266667-4.266667-10.666667-4.266667-14.933334l12.8-106.666666-10.666666-2.133334-21.333334 91.733334c-2.133333 10.666667-10.666667 17.066667-21.333333 17.066666-51.2 0-89.6 27.733333-89.6 29.866667-8.533333 6.4-19.2 6.4-25.6 0 0 0-38.4-29.866667-89.6-29.866667-10.666667 0-19.2-6.4-21.333333-17.066666l-21.333334-91.733334-10.666666 2.133334 12.8 106.666666c0 6.4 0 10.666667-4.266667 14.933334l-21.333333 27.733333c32 23.466667 91.733333 74.666667 96 138.666667 4.266667 40.533333-12.8 76.8-51.2 108.8-2.133333 4.266667-224 170.666667-228.266667 458.666666z"  /><path fill="#333333" d="M582.4 537.6c-4.266667 0-8.533333-2.133333-12.8-4.266667l-70.4-49.066666c-10.666667-6.4-12.8-19.2-4.266667-29.866667s19.2-12.8 29.866667-4.266667l61.866667 42.666667c42.666667-19.2 44.8-49.066667 44.8-53.333333 0-10.666667 8.533333-21.333333 21.333333-21.333334 10.666667 0 21.333333 8.533333 21.333333 19.2 0 2.133333 2.133333 70.4-83.2 98.133334-4.266667 2.133333-6.4 2.133333-8.533333 2.133333zM778.666667 992s-2.133333 0 0 0c-12.8 0-21.333333-10.666667-21.333334-23.466667 0-2.133333 12.8-183.466667-102.4-358.4-6.4-10.666667-4.266667-23.466667 6.4-29.866666 10.666667-6.4 23.466667-4.266667 29.866667 6.4 123.733333 187.733333 108.8 377.6 108.8 386.133333-2.133333 10.666667-10.666667 19.2-21.333333 19.2zM650.666667 1006.933333c-12.8 0-21.333333-10.666667-21.333334-21.333333 0-2.133333 2.133333-115.2-32-194.133333-4.266667-10.666667 0-23.466667 10.666667-27.733334 10.666667-4.266667 23.466667 0 27.733333 10.666667 40.533333 87.466667 36.266667 206.933333 36.266667 213.333333 0 10.666667-10.666667 19.2-21.333333 19.2z"  /></svg>