<?xml version="1.0" standalone="no"?><!DOCTYPE svg PUBLIC "-//W3C//DTD SVG 1.1//EN" "http://www.w3.org/Graphics/SVG/1.1/DTD/svg11.dtd"><svg class="icon" width="200px" height="200.00px" viewBox="0 0 1024 1024" version="1.1" xmlns="http://www.w3.org/2000/svg"><path fill="#333333" d="M386.241852 1024h-4.262988l-298.409164-49.024363c-6.394482 0-10.65747-4.262988-14.920459-8.525976-2.131494-4.262988-4.262988-10.65747-4.262988-14.920458L239.168764 20.066311c2.131494-6.394482 4.262988-10.65747 8.525976-14.920458 6.394482-4.262988 12.788964-4.262988 19.183446-4.262988 2.131494 0 142.8101 38.366893 245.121814 38.366892 12.788964 0 21.31494 8.525976 21.31494 21.314941s-8.525976 21.31494-21.31494 21.31494c-83.128267 0-189.702969-23.446434-234.464343-34.103904L111.279122 936.608745l260.042272 40.498386L490.68506 491.126492c2.131494-10.65747 14.920458-19.183446 25.577928-14.920458 10.65747 2.131494 19.183446 14.920458 14.920458 25.577928L405.425298 1009.079542c0 8.525976-8.525976 14.920458-19.183446 14.920458z"  /><path fill="#333333" d="M512 162.876411c-125.758148 0-266.436754-36.235399-272.831236-38.366892-10.65747-2.131494-19.183446-14.920458-14.920458-25.577929s14.920458-19.183446 25.577928-14.920458c2.131494 0 140.678606 36.235399 262.173766 36.235399 12.788964 0 21.31494 8.525976 21.31494 21.31494s-8.525976 21.31494-21.31494 21.31494z"  /><path fill="#333333" d="M364.926912 135.166989h-4.262988c-10.65747-2.131494-19.183446-14.920458-17.051952-25.577929l12.788964-59.681832c2.131494-10.65747 14.920458-19.183446 25.577928-17.051953 10.65747 2.131494 19.183446 14.920458 17.051952 25.577929l-12.788964 59.681833c-2.131494 10.65747-10.65747 17.051952-21.31494 17.051952z"  /><path fill="#333333" d="M202.933365 350.447886c-8.525976 0-14.920458-4.262988-19.183446-12.788964-4.262988-10.65747 0-23.446434 10.65747-27.709423 144.941594-66.076315 142.8101-164.12504 142.8101-168.388028 0-10.65747 8.525976-21.31494 19.183447-21.31494 12.788964 0 21.31494 8.525976 23.446434 19.183446 0 4.262988 6.394482 130.021136-166.256534 208.886415-4.262988 2.131494-8.525976 2.131494-10.657471 2.131494zM637.758148 1024c-10.65747 0-19.183446-6.394482-21.31494-17.051952L490.68506 501.783962c-2.131494-10.65747 4.262988-23.446434 14.920458-25.577928 10.65747-2.131494 23.446434 4.262988 25.577928 14.920458l121.49516 488.112133L912.720878 938.740239 746.464343 47.775734c-44.761375 10.65747-151.336076 34.103905-234.464343 34.103904-12.788964 0-21.31494-8.525976-21.31494-21.31494s8.525976-21.31494 21.31494-21.314941C614.311714 39.249757 757.121814 0.882865 757.121814 0.882865c6.394482-2.131494 12.788964 0 17.051952 2.131494s8.525976 8.525976 10.65747 14.920458L959.613747 951.529203c0 6.394482 0 10.65747-4.262988 17.051952-4.262988 4.262988-8.525976 8.525976-14.920459 8.525976l-298.409164 46.892869h-4.262988z"  /><path fill="#333333" d="M512 162.876411c-12.788964 0-21.31494-8.525976-21.31494-21.31494s8.525976-21.31494 21.31494-21.31494c119.363666 0 260.042272-36.235399 262.173766-36.235399 10.65747-2.131494 23.446434 4.262988 25.577928 14.920458 2.131494 10.65747-4.262988 23.446434-14.920458 25.577929-6.394482 2.131494-147.073088 38.366893-272.831236 38.366892z"  /><path fill="#333333" d="M659.073088 135.166989c-10.65747 0-19.183446-6.394482-21.31494-17.051952l-12.788964-59.681833c-2.131494-10.65747 4.262988-23.446434 17.051952-25.577929 10.65747-2.131494 23.446434 4.262988 25.577928 17.051953l12.788964 59.681832c2.131494 10.65747-4.262988 23.446434-17.051952 25.577929h-4.262988z"  /><path fill="#333333" d="M821.066635 350.447886c-2.131494 0-6.394482 0-8.525977-2.131494-172.651017-78.865279-166.256534-202.491933-166.256534-208.886415 0-12.788964 10.65747-21.31494 23.446434-19.183446 10.65747 0 21.31494 10.65747 19.183447 23.446434 0 4.262988-2.131494 100.180219 142.8101 168.388028 10.65747 4.262988 14.920458 17.051952 10.65747 27.709423-6.394482 6.394482-12.788964 10.65747-21.31494 10.65747zM512 380.288802c-12.788964 0-21.31494-8.525976-21.31494-21.31494V69.090674c0-12.788964 8.525976-21.31494 21.31494-21.31494s21.31494 8.525976 21.31494 21.31494v289.883188c0 12.788964-8.525976 21.31494-21.31494 21.31494z"  /></svg>