<?xml version="1.0" standalone="no"?><!DOCTYPE svg PUBLIC "-//W3C//DTD SVG 1.1//EN" "http://www.w3.org/Graphics/SVG/1.1/DTD/svg11.dtd"><svg class="icon" width="200px" height="200.00px" viewBox="0 0 1024 1024" version="1.1" xmlns="http://www.w3.org/2000/svg"><path fill="#333333" d="M335.45176 236.977725c-10.635436 0-19.143785-8.508349-21.270872-19.143785 0-6.381262-12.762523-140.387757 114.86271-212.708723 10.635436-6.381262 23.39796-2.127087 29.779221 8.508349 4.254174 10.635436 0 23.39796-10.635436 29.779221-104.227274 57.431355-93.591838 170.166978-93.591838 172.294065 2.127087 10.635436-6.381262 21.270872-19.143785 23.39796V236.977725z"  /><path fill="#333333" d="M384.374766 481.592756c-34.033396 0-68.066791-10.635436-95.718925-31.906308-34.033396-23.39796-57.431355-55.304268-68.066792-91.464751-10.635436-38.28757-6.381262-74.448053 12.762524-104.227274 21.270872-31.906308 59.558442-51.050094 104.227274-51.050094 34.033396 0 68.066791 10.635436 95.718925 29.779221 34.033396 23.39796 57.431355 55.304268 68.066792 91.464751 10.635436 38.28757 6.381262 74.448053-12.762524 104.227275-23.39796 34.033396-61.68553 53.177181-104.227274 53.17718z m-48.923006-233.979595c-29.779221 0-55.304268 12.762523-68.066791 31.906308-12.762523 19.143785-14.889611 42.541745-8.508349 68.066792 8.508349 25.525047 25.525047 51.050094 51.050093 68.066791 21.270872 14.889611 48.923006 23.39796 72.320966 23.39796 29.779221 0 55.304268-12.762523 68.066791-31.906309 12.762523-19.143785 14.889611-42.541745 8.508349-68.066791-8.508349-25.525047-25.525047-51.050094-51.050093-68.066792-21.270872-14.889611-46.795919-23.39796-72.320966-23.397959zM639.625234 481.592756c-44.668832 0-80.829315-19.143785-104.227274-51.050093-40.414657-59.558442-14.889611-146.769019 55.304268-193.564938 29.779221-19.143785 63.812617-29.779221 95.718925-29.779221 44.668832 0 80.829315 19.143785 104.227274 51.050093 19.143785 29.779221 25.525047 65.939704 12.762524 104.227274-10.635436 36.160483-34.033396 68.066791-68.066792 91.464751-27.652134 17.016698-61.68553 27.652134-95.718925 27.652134z m48.923006-233.979595c-25.525047 0-51.050094 8.508349-72.320966 23.397959-51.050094 34.033396-70.193879 95.718925-44.668832 136.133583 14.889611 21.270872 38.28757 31.906308 68.066792 31.906309 25.525047 0 51.050094-8.508349 72.320966-23.39796 25.525047-17.016698 44.668832-40.414657 51.050093-68.066791 6.381262-25.525047 4.254174-48.923006-8.508349-68.066792-12.762523-19.143785-36.160483-31.906308-65.939704-31.906308zM537.525047 1024h-53.177181c-10.635436 0-21.270872-8.508349-21.270872-21.270872 0-6.381262-8.508349-185.056589-204.200374-174.421153-6.381262 0-10.635436-2.127087-14.889611-6.381262-4.254174-4.254174-6.381262-10.635436-6.381262-14.88961v-46.79592c0-10.635436 8.508349-21.270872 21.270873-21.270872 2.127087 0 163.785717-8.508349 240.360857-63.812617 8.508349-6.381262 17.016698-6.381262 25.525046 0 76.57514 55.304268 240.360857 63.812617 240.360857 63.812617 10.635436 0 21.270872 10.635436 21.270873 21.270872v46.79592c0 6.381262-2.127087 10.635436-6.381262 14.88961-4.254174 4.254174-10.635436 6.381262-14.889611 6.381262-195.692025-10.635436-204.200374 165.912804-204.200374 174.421153-2.127087 12.762523-10.635436 21.270872-23.397959 21.270872z m-31.906309-42.541745h14.889611c8.508349-53.177181 46.795919-193.564938 223.344159-193.564938v-6.381261c-46.795919-4.254174-159.531542-17.016698-231.852508-61.68553-72.320966 44.668832-185.056589 57.431355-231.852508 61.68553v6.381261c176.54824 0 216.962897 140.387757 225.471246 193.564938z"  /><path fill="#333333" d="M688.54824 236.977725h-2.127087c-10.635436-2.127087-19.143785-10.635436-19.143785-23.39796 0-4.254174 10.635436-112.735623-93.591838-172.294065-10.635436-6.381262-14.889611-19.143785-8.508349-29.779222s19.143785-14.889611 29.779221-8.508349c127.625234 72.320966 114.86271 206.327461 114.86271 212.708723 0 14.889611-10.635436 21.270872-21.270872 21.270873zM552.414657 443.305186h-78.702227c-12.762523 0-21.270872-8.508349-21.270872-21.270872s8.508349-21.270872 21.270872-21.270872h78.702227c12.762523 0 21.270872 8.508349 21.270873 21.270872s-10.635436 21.270872-21.270873 21.270872z"  /><path fill="#333333" d="M512 709.19109c-12.762523 0-21.270872-8.508349-21.270872-21.270872V428.415576c0-12.762523 8.508349-21.270872 21.270872-21.270873s21.270872 8.508349 21.270872 21.270873v259.504642c0 12.762523-8.508349 21.270872-21.270872 21.270872z"  /></svg>