<?xml version="1.0" standalone="no"?><!DOCTYPE svg PUBLIC "-//W3C//DTD SVG 1.1//EN" "http://www.w3.org/Graphics/SVG/1.1/DTD/svg11.dtd"><svg class="icon" width="200px" height="200.00px" viewBox="0 0 1024 1024" version="1.1" xmlns="http://www.w3.org/2000/svg"><path fill="#333333" d="M774.101641 1024H249.898359c-6.392723 0-10.654538-2.130908-14.916354-6.392723-4.261815-4.261815-6.392723-10.654538-6.392722-14.916354 0-12.785446 10.654538-289.80344 95.890844-432.574252 72.45086-121.461736 40.487245-168.341704 40.487245-168.341705l-2.130908-2.130907c-2.130908-4.261815-12.785446-21.309077-21.309076-42.618153l-72.45086 193.912596c-2.130908 6.392723-6.392723 10.654538-12.785446 12.785446-6.392723 2.130908-10.654538 2.130908-17.047261 0L130.567531 512.582164c-8.523631-4.261815-14.916354-12.785446-12.785446-23.439984 19.178169-93.759937 83.105398-402.741546 134.247182-441.097884C307.432866 7.557051 407.585525 1.164328 411.84734 1.164328c6.392723 0 12.785446 2.130908 17.047262 6.392723 4.261815 4.261815 6.392723 10.654538 4.261815 17.047261-6.392723 29.832707-12.785446 119.330828 21.309076 161.948982 14.916354 17.047261 34.094522 23.439984 57.534507 23.439984s42.618153-8.523631 55.403599-23.439984c34.094522-42.618153 27.701799-129.985367 21.309076-161.948982-2.130908-6.392723 0-12.785446 4.261816-17.047261 6.392723-4.261815 12.785446-6.392723 19.178169-6.392723 4.261815 0 104.414475 6.392723 157.687166 46.879968 51.141784 38.356338 115.069013 347.337947 134.247182 441.097884 2.130908 10.654538-2.130908 19.178169-12.785446 23.439984l-108.67629 49.010876c-6.392723 2.130908-10.654538 2.130908-17.047262 0-6.392723-2.130908-10.654538-6.392723-12.785446-12.785446l-70.319952-191.781688c-8.523631 21.309077-19.178169 38.356338-21.309076 42.618153l-2.130908 2.130907s-29.832707 44.749061 40.487245 168.341705c80.974491 136.37809 93.759937 389.9561 93.759937 428.312437v4.261815c2.130908 12.785446-6.392723 21.309077-19.178169 21.309077z m-502.894205-42.618153h479.454221c-4.261815-68.189045-21.309077-279.148902-87.367214-389.9561-83.105398-140.639905-46.879968-204.567134-38.356338-215.221673 14.916354-25.570892 36.22543-72.45086 27.7018-100.152659-4.261815-10.654538 2.130908-23.439984 12.785446-25.570892 10.654538-4.261815 23.439984 2.130908 27.701799 12.785446l93.759937 251.447103 72.45086-31.963615c-36.22543-181.12715-89.498121-379.301562-115.069013-398.479731-27.701799-21.309077-76.712675-31.963615-108.67629-36.22543 4.261815 42.618153 4.261815 121.461736-34.094523 168.341705-21.309077 25.570892-51.141784 38.356338-87.367213 38.356337s-66.058137-12.785446-87.367214-38.356337c-42.618153-49.010876-42.618153-127.854459-38.356338-170.472612-29.832707 4.261815-80.974491 14.916354-108.67629 36.22543-25.570892 19.178169-78.843583 219.483488-115.069013 398.47973l72.45086 31.963615 93.759937-251.447103c4.261815-10.654538 14.916354-17.047261 27.701799-12.785446 10.654538 4.261815 17.047261 14.916354 12.785446 25.570892-8.523631 29.832707 17.047261 80.974491 27.7018 100.15266 8.523631 12.785446 44.749061 74.581768-38.356338 215.221672-68.189045 112.938105-85.236306 323.897963-89.498121 392.087008z"  /><path fill="#333333" d="M512 82.138819c-49.010876 0-87.367214-23.439984-108.67629-44.749061-8.523631-8.523631-8.523631-21.309077 0-29.832707s21.309077-8.523631 29.832707 0c8.523631 6.392723 74.581768 70.319952 159.818074-2.130908 8.523631-8.523631 23.439984-6.392723 29.832707 2.130908s6.392723 23.439984-2.130908 29.832707c-38.356338 34.094522-76.712675 44.749061-108.67629 44.749061z"  /></svg>