<?xml version="1.0" standalone="no"?><!DOCTYPE svg PUBLIC "-//W3C//DTD SVG 1.1//EN" "http://www.w3.org/Graphics/SVG/1.1/DTD/svg11.dtd"><svg class="icon" width="200px" height="200.00px" viewBox="0 0 1024 1024" version="1.1" xmlns="http://www.w3.org/2000/svg"><path fill="#333333" d="M360.533333 428.8c-21.333333 0-40.533333-4.266667-59.733333-12.8-4.266667-2.133333-8.533333-6.4-10.666667-10.666667-2.133333-6.4-61.866667-136.533333 49.066667-236.8 6.4-6.4 17.066667-8.533333 25.6-2.133333 4.266667 2.133333 110.933333 72.533333 140.8 187.733333 2.133333 8.533333 0 17.066667-6.4 21.333334-4.266667 2.133333-64 53.333333-138.666667 53.333333z m-36.266666-46.933333c10.666667 4.266667 23.466667 6.4 36.266666 6.4 42.666667 0 81.066667-23.466667 98.133334-36.266667-23.466667-68.266667-78.933333-117.333333-104.533334-138.666667-59.733333 66.133333-38.4 142.933333-29.866666 168.533334z"  /><path fill="#333333" d="M539.733333 377.6h-57.6c-12.8 0-21.333333-8.533333-21.333333-21.333333s8.533333-21.333333 21.333333-21.333334h57.6c12.8 0 21.333333 8.533333 21.333334 21.333334s-8.533333 21.333333-21.333334 21.333333zM352 196.266667c-12.8 0-21.333333-8.533333-21.333333-21.333334V21.333333c0-12.8 8.533333-21.333333 21.333333-21.333333s21.333333 8.533333 21.333333 21.333333v153.6c0 12.8-8.533333 21.333333-21.333333 21.333334zM512 1024c-6.4 0-12.8-2.133333-17.066667-6.4L266.666667 750.933333c-4.266667-4.266667-6.4-10.666667-4.266667-17.066666s4.266667-10.666667 8.533333-14.933334c117.333333-85.333333 38.4-302.933333 38.4-305.066666-4.266667-10.666667 2.133333-23.466667 12.8-27.733334 10.666667-4.266667 23.466667 2.133333 27.733334 12.8 4.266667 10.666667 81.066667 228.266667-36.266667 339.2l215.466667 249.6c8.533333 8.533333 6.4 21.333333-2.133334 29.866667-4.266667 4.266667-10.666667 6.4-14.933333 6.4z"  /><path fill="#333333" d="M512 755.2H292.266667c-12.8 0-21.333333-8.533333-21.333334-21.333333s8.533333-21.333333 21.333334-21.333334H512c12.8 0 21.333333 8.533333 21.333333 21.333334s-8.533333 21.333333-21.333333 21.333333z"  /><path fill="#333333" d="M226.133333 917.333333c-4.266667 0-8.533333-2.133333-12.8-4.266666-10.666667-6.4-12.8-19.2-4.266666-29.866667 10.666667-14.933333 8.533333-36.266667 4.266666-59.733333-2.133333-17.066667-4.266667-34.133333-4.266666-51.2 2.133333-29.866667 12.8-44.8 34.133333-57.6-2.133333 0-2.133333-2.133333-4.266667-2.133334l-4.266666-2.133333c-10.666667-4.266667-21.333333-8.533333-25.6-6.4-10.666667 6.4-23.466667 4.266667-29.866667-6.4s-4.266667-23.466667 6.4-29.866667c25.6-17.066667 55.466667-2.133333 68.266667 4.266667l4.266666 2.133333c10.666667 4.266667 23.466667 10.666667 29.866667 25.6 4.266667 6.4 8.533333 19.2 4.266667 29.866667-4.266667 12.8-14.933333 17.066667-21.333334 19.2l-2.133333 2.133333c-14.933333 6.4-14.933333 8.533333-17.066667 25.6-2.133333 12.8 0 25.6 2.133334 40.533334 4.266667 27.733333 8.533333 61.866667-10.666667 91.733333-4.266667 6.4-10.666667 8.533333-17.066667 8.533333zM663.466667 428.8c-74.666667 0-134.4-53.333333-136.533334-55.466667-6.4-4.266667-8.533333-12.8-6.4-21.333333 29.866667-115.2 136.533333-183.466667 140.8-187.733333 8.533333-4.266667 19.2-4.266667 25.6 2.133333 108.8 100.266667 51.2 232.533333 49.066667 236.8-2.133333 4.266667-6.4 8.533333-10.666667 10.666667-21.333333 10.666667-40.533333 14.933333-61.866666 14.933333z m-98.133334-78.933333c17.066667 12.8 55.466667 36.266667 98.133334 36.266666 12.8 0 23.466667-2.133333 36.266666-6.4 8.533333-23.466667 29.866667-102.4-29.866666-168.533333-25.6 21.333333-81.066667 70.4-104.533334 138.666667z"  /><path fill="#333333" d="M672 196.266667c-12.8 0-21.333333-8.533333-21.333333-21.333334V21.333333c0-12.8 8.533333-21.333333 21.333333-21.333333s21.333333 8.533333 21.333333 21.333333v153.6c0 12.8-10.666667 21.333333-21.333333 21.333334zM512 1024c-4.266667 0-10.666667-2.133333-14.933333-4.266667-8.533333-8.533333-10.666667-21.333333-2.133334-29.866666l215.466667-249.6c-117.333333-110.933333-38.4-328.533333-36.266667-339.2 4.266667-10.666667 17.066667-17.066667 27.733334-12.8 10.666667 4.266667 17.066667 17.066667 12.8 27.733333 0 2.133333-78.933333 219.733333 38.4 305.066667 4.266667 4.266667 8.533333 8.533333 8.533333 14.933333 0 6.4-2.133333 12.8-4.266667 17.066667L529.066667 1017.6c-4.266667 4.266667-10.666667 6.4-17.066667 6.4z"  /><path fill="#333333" d="M731.733333 755.2H512c-12.8 0-21.333333-8.533333-21.333333-21.333333s8.533333-21.333333 21.333333-21.333334h219.733333c12.8 0 21.333333 8.533333 21.333334 21.333334s-10.666667 21.333333-21.333334 21.333333z"  /><path fill="#333333" d="M797.866667 917.333333c-6.4 0-12.8-2.133333-17.066667-8.533333-21.333333-29.866667-14.933333-61.866667-10.666667-91.733333 2.133333-14.933333 4.266667-27.733333 2.133334-40.533334-2.133333-19.2-4.266667-19.2-17.066667-25.6l-2.133333-2.133333c-6.4-2.133333-17.066667-6.4-21.333334-19.2-4.266667-10.666667 0-23.466667 4.266667-29.866667 8.533333-14.933333 21.333333-21.333333 29.866667-25.6l4.266666-2.133333c12.8-6.4 40.533333-21.333333 68.266667-4.266667 10.666667 6.4 12.8 19.2 6.4 29.866667-6.4 10.666667-19.2 12.8-29.866667 6.4-4.266667-4.266667-17.066667 2.133333-25.6 6.4l-4.266666 2.133333c-2.133333 0-2.133333 2.133333-4.266667 2.133334 23.466667 12.8 32 27.733333 34.133333 57.6 2.133333 17.066667 0 34.133333-4.266666 51.2-4.266667 23.466667-6.4 44.8 4.266666 59.733333 6.4 10.666667 4.266667 23.466667-4.266666 29.866667-4.266667 4.266667-8.533333 4.266667-12.8 4.266666z"  /></svg>