<?xml version="1.0" standalone="no"?><!DOCTYPE svg PUBLIC "-//W3C//DTD SVG 1.1//EN" "http://www.w3.org/Graphics/SVG/1.1/DTD/svg11.dtd"><svg class="icon" width="200px" height="200.00px" viewBox="0 0 1024 1024" version="1.1" xmlns="http://www.w3.org/2000/svg"><path fill="#333333" d="M512.001493 1024H219.734827c-12.8 0-21.333333-8.533333-21.333334-21.333333V637.866667c-2.133333 8.533333-10.666667 12.8-19.2 12.8H21.334827c-10.666667 0-21.333333-8.533333-21.333334-21.333334 0-14.933333-2.133333-426.666667 160-535.466666C281.601493 12.8 347.734827 0 375.46816 0c8.533333 0 12.8 0 14.933333 2.133333 8.533333 2.133333 14.933333 10.666667 14.933334 19.2 0 6.4 6.4 68.266667 106.666666 68.266667 12.8 0 21.333333 8.533333 21.333334 21.333333V1002.666667c0 12.8-8.533333 21.333333-21.333334 21.333333z m-270.933333-42.666667H490.66816V132.266667c-87.466667-6.4-115.2-59.733333-123.733333-87.466667-23.466667 2.133333-81.066667 17.066667-183.466667 85.333333C59.734827 211.2 44.801493 524.8 42.66816 610.133333h117.333333l38.4-345.6c2.133333-10.666667 10.666667-19.2 23.466667-19.2 10.666667 0 19.2 10.666667 19.2 21.333334V981.333333z"  /><path fill="#333333" d="M804.26816 1024H512.001493c-12.8 0-21.333333-8.533333-21.333333-21.333333V110.933333c0-12.8 8.533333-21.333333 21.333333-21.333333 102.4 0 104.533333-66.133333 106.666667-68.266667 0-8.533333 6.4-17.066667 17.066667-19.2 0-2.133333 4.266667-2.133333 12.8-2.133333 27.733333 0 93.866667 12.8 215.466666 93.866667C1026.134827 202.666667 1024.001493 614.4 1024.001493 631.466667c0 10.666667-10.666667 21.333333-21.333333 21.333333h-157.866667c-8.533333 0-17.066667-6.4-19.2-12.8v362.666667c0 12.8-10.666667 21.333333-21.333333 21.333333zM533.334827 981.333333h249.6V266.666667c0-10.666667 8.533333-21.333333 19.2-21.333334s21.333333 8.533333 23.466666 19.2l38.4 345.6H981.334827c-2.133333-85.333333-17.066667-396.8-140.8-480-102.4-68.266667-160-83.2-183.466667-85.333333-8.533333 29.866667-36.266667 81.066667-123.733333 87.466667V981.333333zM398.934827 910.933333h-179.2c-12.8 0-21.333333-8.533333-21.333334-21.333333V616.533333c0-12.8 8.533333-21.333333 21.333334-21.333333h179.2c12.8 0 21.333333 8.533333 21.333333 21.333333v273.066667c0 10.666667-10.666667 21.333333-21.333333 21.333333z m-157.866667-42.666666h136.533333V637.866667h-136.533333v230.4z"  /><path fill="#333333" d="M804.26816 910.933333h-179.2c-12.8 0-21.333333-8.533333-21.333333-21.333333V616.533333c0-12.8 8.533333-21.333333 21.333333-21.333333h179.2c12.8 0 21.333333 8.533333 21.333333 21.333333v273.066667c0 10.666667-10.666667 21.333333-21.333333 21.333333z m-157.866667-42.666666h136.533334V637.866667h-136.533334v230.4z"  /></svg>