<?xml version="1.0" standalone="no"?><!DOCTYPE svg PUBLIC "-//W3C//DTD SVG 1.1//EN" "http://www.w3.org/Graphics/SVG/1.1/DTD/svg11.dtd"><svg class="icon" width="200px" height="200.00px" viewBox="0 0 1024 1024" version="1.1" xmlns="http://www.w3.org/2000/svg"><path fill="#333333" d="M381.866667 1024h-4.266667c-49.066667-2.133333-83.2-2.133333-89.6-2.133333-4.266667 2.133333-10.666667 2.133333-17.066667 0-8.533333-4.266667-12.8-10.666667-14.933333-19.2V689.066667l-36.266667 204.8c-2.133333 10.666667-10.666667 17.066667-21.333333 17.066666l-140.8-6.4c-6.4 0-10.666667-2.133333-14.933333-6.4-4.266667-4.266667-6.4-10.666667-4.266667-14.933333 2.133333-23.466667 51.2-590.933333 160-748.8 0-2.133333 2.133333-4.266667 6.4-6.4l149.333333-74.666667L424.533333 4.266667c6.4-4.266667 17.066667-4.266667 23.466667 0 6.4 4.266667 10.666667 12.8 8.533333 21.333333 0 2.133333-49.066667 236.8 74.666667 516.266667 2.133333 2.133333 2.133333 6.4 2.133333 8.533333v170.666667c-2.133333 34.133333-21.333333 302.933333-151.466666 302.933333z m-78.933334-44.8c17.066667 0 44.8 0 76.8 2.133333h2.133334c74.666667 0 104.533333-192 108.8-260.266666v-164.266667c-96-217.6-91.733333-403.2-83.2-488.533333l-29.866667 21.333333-2.133333 2.133333-145.066667 72.533334c-87.466667 136.533333-136.533333 595.2-147.2 701.866666l100.266667 4.266667L258.133333 448c2.133333-10.666667 12.8-19.2 23.466667-17.066667 10.666667 0 19.2 10.666667 19.2 21.333334v526.933333h2.133333z"  /><path fill="#333333" d="M499.2 576c-4.266667 0-10.666667-2.133333-12.8-4.266667-174.933333-149.333333-183.466667-454.4-183.466667-467.2 0-12.8 8.533333-21.333333 21.333334-21.333333 10.666667 0 21.333333 8.533333 21.333333 21.333333 0 2.133333 6.4 298.666667 168.533333 435.2 8.533333 8.533333 10.666667 21.333333 2.133334 29.866667-4.266667 4.266667-10.666667 6.4-17.066667 6.4zM424.533333 712.533333h-98.133333c-12.8 0-21.333333-8.533333-21.333333-21.333333s8.533333-21.333333 21.333333-21.333333h98.133333c12.8 0 21.333333 8.533333 21.333334 21.333333s-10.666667 21.333333-21.333334 21.333333z"  /><path fill="#333333" d="M642.133333 1024c-128 0-149.333333-268.8-151.466666-300.8v-172.8c0-2.133333 0-6.4 2.133333-8.533333C618.666667 260.266667 569.6 27.733333 567.466667 25.6c-2.133333-8.533333 2.133333-17.066667 8.533333-21.333333 6.4-4.266667 17.066667-4.266667 23.466667 0l70.4 49.066666 149.333333 74.666667c4.266667 2.133333 6.4 4.266667 8.533333 6.4 108.8 157.866667 157.866667 725.333333 160 748.8 0 6.4-2.133333 10.666667-4.266666 14.933333-4.266667 4.266667-8.533333 6.4-14.933334 6.4l-140.8 6.4c-10.666667 0-19.2-6.4-21.333333-17.066666l-36.266667-204.8v311.466666c0 8.533333-6.4 17.066667-14.933333 19.2-6.4 2.133333-12.8 2.133333-17.066667 0H725.333333c-17.066667 0-42.666667 0-74.666666 2.133334-6.4 2.133333-8.533333 2.133333-8.533334 2.133333zM533.333333 556.8v166.4C537.6 789.333333 565.333333 981.333333 642.133333 981.333333h2.133334c36.266667-2.133333 61.866667-2.133333 78.933333-2.133333V452.266667c0-10.666667 8.533333-21.333333 19.2-21.333334s21.333333 6.4 23.466667 17.066667l76.8 420.266667 100.266666-4.266667c-10.666667-106.666667-59.733333-563.2-147.2-701.866667l-145.066666-72.533333s-2.133333 0-2.133334-2.133333l-29.866666-21.333334c6.4 87.466667 10.666667 273.066667-85.333334 490.666667z"  /><path fill="#333333" d="M524.8 576c-6.4 0-12.8-2.133333-17.066667-8.533333-8.533333-8.533333-6.4-23.466667 2.133334-29.866667 160-136.533333 168.533333-430.933333 168.533333-435.2 0-12.8 10.666667-21.333333 21.333333-21.333333 12.8 0 21.333333 10.666667 21.333334 21.333333 0 12.8-6.4 317.866667-183.466667 467.2-4.266667 4.266667-8.533333 6.4-12.8 6.4zM699.733333 712.533333h-98.133333c-12.8 0-21.333333-8.533333-21.333333-21.333333s8.533333-21.333333 21.333333-21.333333h98.133333c12.8 0 21.333333 8.533333 21.333334 21.333333s-10.666667 21.333333-21.333334 21.333333zM586.666667 42.666667h-147.2c-12.8 0-21.333333-8.533333-21.333334-21.333334s8.533333-21.333333 21.333334-21.333333h147.2c12.8 0 21.333333 8.533333 21.333333 21.333333s-8.533333 21.333333-21.333333 21.333334z"  /></svg>