<?xml version="1.0" standalone="no"?><!DOCTYPE svg PUBLIC "-//W3C//DTD SVG 1.1//EN" "http://www.w3.org/Graphics/SVG/1.1/DTD/svg11.dtd"><svg class="icon" width="200px" height="200.00px" viewBox="0 0 1024 1024" version="1.1" xmlns="http://www.w3.org/2000/svg"><path fill="#333333" d="M294.517848 1024c-49.040093 0-117.269788-19.189602-153.516813-108.741076-66.097517-164.177703 93.81583-289.976202 95.948008-289.976202l206.821262-168.442059c0-63.965339 4.264356-341.148474 74.626229-447.757372 4.264356-6.396534 12.793068-10.66089 21.321779-8.528712l341.148474 61.833161c6.396534 2.132178 10.66089 6.396534 14.925246 10.66089 2.132178 4.264356 4.264356 10.66089 2.132178 17.057424 0 4.264356-102.344542 326.223228-83.154941 486.136575 21.32178 164.177703-76.758407 204.689084-100.212364 213.217795L388.333678 1002.67822s-2.132178 0-2.132178 2.132178c-2.132178 0-42.643559 19.189602-91.683652 19.189602zM546.114847 45.330317c-61.833161 113.005432-59.700983 407.24599-59.700983 420.039058 0 6.396534-2.132178 10.66089-6.396533 14.925245l-2.132178 2.132178-215.349974 174.838593c-6.396534 4.264356-134.327211 106.608898-81.022763 240.936109 21.32178 55.436627 59.700983 83.15494 113.005432 83.154941 36.247025 0 66.097517-12.793068 72.494051-14.925246l328.355406-215.349974c2.132178-2.132178 4.264356-2.132178 6.396533-2.132178 4.264356 0 89.551474-23.453958 70.361873-166.309881-19.189602-144.988101 53.304449-402.981634 76.758407-479.74004L546.114847 45.330317z"  /><path fill="#333333" d="M676.177703 810.782204c-10.66089 0-19.189602-8.528712-21.32178-19.189602-23.453958-228.143042 108.741076-296.372736 113.005432-298.504914 10.66089-4.264356 23.453958 0 27.718314 10.66089 4.264356 10.66089 0 23.453958-10.66089 27.718313-4.264356 2.132178-110.873254 57.568805-89.551474 255.861356 2.132178 10.66089-6.396534 21.32178-19.189602 23.453957 2.132178 0 0 0 0 0zM437.373771 968.563373c-8.528712 0-17.057424-6.396534-21.321779-14.925246-63.965339-196.160372-234.539576-208.95344-236.671754-208.95344-12.793068 0-21.32178-10.66089-19.189601-23.453957 0-12.793068 10.66089-21.32178 23.453957-19.189602 2.132178 0 202.556906 14.925246 275.050957 238.803932 4.264356 10.66089-2.132178 23.453958-12.793068 27.718313-4.264356-2.132178-6.396534 0-8.528712 0zM842.487584 226.565443h-4.264356L488.546042 166.86446c-10.66089-2.132178-19.189602-12.793068-17.057423-25.586135 2.132178-10.66089 12.793068-19.189602 25.586135-17.057424l351.809364 59.700983c10.66089 2.132178 19.189602 12.793068 17.057423 25.586136-4.264356 8.528712-12.793068 17.057424-23.453957 17.057423z"  /></svg>