<?xml version="1.0" standalone="no"?><!DOCTYPE svg PUBLIC "-//W3C//DTD SVG 1.1//EN" "http://www.w3.org/Graphics/SVG/1.1/DTD/svg11.dtd"><svg class="icon" width="200px" height="200.00px" viewBox="0 0 1024 1024" version="1.1" xmlns="http://www.w3.org/2000/svg"><path fill="#333333" d="M931.328 512a224.512 224.512 0 0 0 11.776-51.2A252.416 252.416 0 0 0 563.2 214.272a80.896 80.896 0 0 1-41.216 11.52h-20.992A80.896 80.896 0 0 1 460.8 214.272a251.648 251.648 0 0 0-166.4-32.256 30.464 30.464 0 0 0-8.448 0h-3.84A252.416 252.416 0 0 0 80.896 460.8a224.512 224.512 0 0 0 11.776 51.2 251.904 251.904 0 0 0-11.776 110.08 262.144 262.144 0 0 0 228.096 222.72 250.88 250.88 0 0 0 157.44-37.888 81.664 81.664 0 0 1 43.52-13.056h4.096a81.664 81.664 0 0 1 43.52 13.056A250.112 250.112 0 0 0 691.2 844.8h23.04a262.144 262.144 0 0 0 228.096-222.72 251.904 251.904 0 0 0-11.008-110.08z m-429.824-224.768h20.992a142.336 142.336 0 0 0 72.448-19.968 191.232 191.232 0 0 1 287.232 186.624 166.4 166.4 0 0 1-11.776 44.032 209.664 209.664 0 0 1-117.248 113.152q-8.192 3.072-16.64 5.376h-26.624a190.208 190.208 0 0 1-119.296-28.672 142.848 142.848 0 0 0-76.8-22.528h-10.752c-84.992-64.512-146.944-247.296-170.24-324.864a190.72 190.72 0 0 1 96 25.6 142.336 142.336 0 0 0 72.704 21.248z m-312.32 17.152a191.488 191.488 0 0 1 82.688-54.016c20.48 70.4 76.8 246.016 164.608 341.504l-2.816 1.792-6.656 4.096a189.44 189.44 0 0 1-96.768 25.6h-42.496q-8.448-2.304-16.64-5.376A209.664 209.664 0 0 1 153.6 498.944a166.4 166.4 0 0 1-11.52-44.544 189.696 189.696 0 0 1 47.104-150.272z m520.448 478.72a190.208 190.208 0 0 1-119.296-28.672 142.848 142.848 0 0 0-76.8-22.528h-4.096a142.848 142.848 0 0 0-76.8 22.528 190.208 190.208 0 0 1-119.296 28.672A200.96 200.96 0 0 1 141.824 614.4a200.704 200.704 0 0 1 0-22.016 259.584 259.584 0 0 0 155.648 89.088l11.52 1.28a250.88 250.88 0 0 0 157.44-37.888 81.664 81.664 0 0 1 43.52-13.056h4.096a81.664 81.664 0 0 1 43.52 13.056l8.448 5.12 2.816 1.536 5.888 3.072 3.328 1.792 5.376 2.816 3.328 1.536 5.376 2.56 3.328 1.536 5.888 2.304h3.072l7.168 2.56h1.792l9.216 2.816h2.816l6.4 1.792h82.688l11.52-1.28a259.584 259.584 0 0 0 155.648-89.088 200.96 200.96 0 0 1 0 22.016 200.96 200.96 0 0 1-172.032 176.896z"  /></svg>