<?xml version="1.0" standalone="no"?><!DOCTYPE svg PUBLIC "-//W3C//DTD SVG 1.1//EN" "http://www.w3.org/Graphics/SVG/1.1/DTD/svg11.dtd"><svg class="icon" width="200px" height="200.00px" viewBox="0 0 1024 1024" version="1.1" xmlns="http://www.w3.org/2000/svg"><path fill="#333333" d="M262.4 398.933333c-12.8 0-21.333333-10.666667-21.333333-21.333333 4.266667-187.733333-42.666667-315.733333-42.666667-317.866667-4.266667-12.8 2.133333-23.466667 12.8-27.733333 10.666667-4.266667 23.466667 0 27.733333 10.666667 2.133333 6.4 51.2 138.666667 44.8 334.933333 0 10.666667-10.666667 21.333333-21.333333 21.333333z"  /><path fill="#333333" d="M761.6 1024H262.4c-12.8 0-21.333333-8.533333-21.333333-21.333333V418.133333L170.666667 480c-4.266667 4.266667-10.666667 6.4-14.933334 4.266667-6.4 0-10.666667-4.266667-14.933333-8.533334L4.266667 309.333333c-6.4-8.533333-6.4-19.2 0-25.6L194.133333 32c4.266667-4.266667 8.533333-6.4 12.8-8.533333L349.866667 0c6.4 0 10.666667 0 17.066666 4.266667 4.266667 4.266667 8.533333 8.533333 8.533334 14.933333 0 6.4 21.333333 136.533333 136.533333 138.666667 115.2-2.133333 136.533333-132.266667 136.533333-138.666667 0-6.4 4.266667-10.666667 8.533334-14.933333 4.266667-4.266667 10.666667-4.266667 17.066666-4.266667l142.933334 23.466667c6.4 0 10.666667 4.266667 12.8 8.533333l189.866666 251.733333c6.4 8.533333 6.4 19.2 0 25.6l-136.533333 166.4c-4.266667 4.266667-8.533333 6.4-14.933333 8.533334-6.4 0-10.666667-2.133333-14.933334-4.266667l-70.4-61.866667V1002.666667c0 12.8-10.666667 21.333333-21.333333 21.333333z m-477.866667-42.666667h456.533334V371.2c0-8.533333 4.266667-14.933333 12.8-19.2 8.533333-4.266667 17.066667-2.133333 23.466666 4.266667l89.6 76.8 110.933334-134.4-177.066667-232.533334-113.066667-19.2c-14.933333 61.866667-66.133333 153.6-174.933333 153.6-108.8-2.133333-160-91.733333-174.933333-153.6l-113.066667 19.2-174.933333 230.4 110.933333 134.4 89.6-76.8c6.4-6.4 14.933333-6.4 23.466667-4.266666 8.533333 4.266667 12.8 10.666667 12.8 19.2L283.733333 981.333333z"  /><path fill="#333333" d="M761.6 398.933333c-10.666667 0-21.333333-8.533333-21.333333-21.333333-4.266667-196.266667 42.666667-328.533333 44.8-334.933333 4.266667-10.666667 17.066667-17.066667 27.733333-12.8 10.666667 4.266667 17.066667 17.066667 12.8 27.733333 0 2.133333-49.066667 130.133333-42.666667 317.866667 0 12.8-8.533333 23.466667-21.333333 23.466666z"  /></svg>