<?xml version="1.0" standalone="no"?><!DOCTYPE svg PUBLIC "-//W3C//DTD SVG 1.1//EN" "http://www.w3.org/Graphics/SVG/1.1/DTD/svg11.dtd"><svg class="icon" width="200px" height="178.09px" viewBox="0 0 1150 1024" version="1.1" xmlns="http://www.w3.org/2000/svg"><path fill="#333333" d="M783.55 532.76H666.34c-12.22 0-22.12 9.9-22.12 22.12s9.9 22.12 22.12 22.12h117.21c12.22 0 22.12-9.9 22.12-22.12s-9.91-22.12-22.12-22.12z"  /><path fill="#333333" d="M1022.54 188.42c40.87 4.03 70.05 24.09 83.81 35.69 11.24 9.44 27.97 8 37.41-3.2 9.44-11.22 8.02-27.96-3.19-37.42-22.55-18.99-60.43-42.74-112.81-47.92-72.19-7.12-146.72 25.23-193 82.9-3.8-0.63-7.62-1.19-11.5-1.19H400.1c-20.09 0-39.49 8.55-53.24 23.47L153.18 450.8c-1.41 1.53-2.12 3.38-3.11 5.11C63.42 481.65 0 561.9 0 656.8v47.63c0 70.32 57.21 127.52 127.53 127.52h67.01c23.2 34.75 62.75 57.7 107.57 57.7s84.37-22.95 107.57-57.7H759.4c23.2 34.75 62.75 57.7 107.57 57.7 44.83 0 84.37-22.95 107.57-57.7h29.83c70.32 0 127.53-57.2 127.53-127.52v-228.9c0-15.64-12.72-28.36-28.35-28.36h-28.22L881.37 245.78c35.43-40.17 89.04-62.61 141.17-57.36zM677.41 447.17h-112.7v-176.8h186.78v104.19c0 40.62-32.51 72.42-74.08 72.61zM385.89 276.73c3.72-4.04 8.9-6.36 14.21-6.36h111.52v176.8H228.73l157.16-170.44z m-83.77 559.84c-42.01 0-76.2-34.18-76.2-76.2 0-42.01 34.18-76.2 76.2-76.2s76.2 34.18 76.2 76.2c-0.01 42.01-34.19 76.2-76.2 76.2z m564.86 0c-42.01 0-76.2-34.18-76.2-76.2 0-42.01 34.18-76.2 76.2-76.2 42.01 0 76.2 34.18 76.2 76.2 0 42.01-34.19 76.2-76.2 76.2z m211.84-132.14c0 41.04-33.4 74.43-74.44 74.43h-9.59c0.87-6.06 1.48-12.2 1.48-18.49 0-71.29-58-129.29-129.29-129.29s-129.29 58-129.29 129.29c0 6.29 0.6 12.44 1.48 18.49H429.92c0.87-6.06 1.48-12.2 1.48-18.49 0-71.29-58-129.29-129.29-129.29s-129.29 58-129.29 129.29c0 6.29 0.6 12.44 1.48 18.49H127.53c-41.04 0-74.44-33.39-74.44-74.43V656.8c0-86.32 70.23-156.54 156.54-156.54h467.08c0.12 0 0.22 0.03 0.34 0.03 0.24 0 0.48-0.03 0.72-0.03h3.45c1.08 0 2.11-0.19 3.15-0.32 67.96-3.65 120.21-57.32 120.21-125.37v-104.2h18.67c5.21 0 10.15 2.14 13.9 6.05l199.62 207.27c3.95 9.71 13.44 16.57 24.57 16.57h17.47v204.17z"  /></svg>