<?xml version="1.0" standalone="no"?><!DOCTYPE svg PUBLIC "-//W3C//DTD SVG 1.1//EN" "http://www.w3.org/Graphics/SVG/1.1/DTD/svg11.dtd"><svg class="icon" width="200px" height="186.18px" viewBox="0 0 1100 1024" version="1.1" xmlns="http://www.w3.org/2000/svg"><path fill="#333333" d="M1071.59 645.73c0-0.21 0.06-0.41 0.06-0.62V439.73c0-0.11-0.03-0.21-0.03-0.32 0.04-0.59 0.18-1.15 0.18-1.75v-78.81c0-63.85-51.94-115.79-115.78-115.79S840.23 295 840.23 358.85v20.61H631.57c-53.89-56.52-129.33-91.88-212.91-91.88-21.7 0-43.06 2.48-63.85 7.1l13.44-36.98c25.65-72.49 105.47-110.64 177.99-84.95 15.3 5.42 32.05-2.61 37.46-17.88 5.41-15.29-2.6-32.05-17.88-37.46-103.04-36.46-216.44 17.69-252.82 120.46l-23.35 64.23c-20.79-37.26-55.83-61.79-95.5-61.79-63.66 0-115.44 63.14-115.44 140.76s51.78 140.77 115.44 140.77c5.51 0 10.88-0.64 16.18-1.55l-16.49 45.36c-5.64-0.54-11.34-0.87-17.12-0.87-97.44 0-176.72 79.28-176.72 176.72s79.28 176.72 176.72 176.72 176.72-79.28 176.72-176.72c0-71.03-42.22-132.24-102.79-160.3l35.17-96.74c7.86 22.41 18.62 43.42 32.03 62.52C322.61 684.67 435.81 795.3 575.04 795.3l179.19-2.5c22.04 72.49 89.47 125.41 169.06 125.41 97.44 0 176.72-79.28 176.72-176.72 0-35.29-10.51-68.13-28.42-95.76zM294.74 741.5c0 65.07-52.95 118.02-118.02 118.02S58.71 806.57 58.71 741.5c0-63.73 50.82-115.69 114.04-117.82L134.5 728.91c-5.54 15.24 2.32 32.07 17.55 37.61 3.32 1.2 6.7 1.78 10.03 1.78 11.99 0 23.24-7.4 27.58-19.33l40.86-112.39c38.07 19.6 64.22 59.23 64.22 104.92z m604.19-382.65c0-31.48 25.6-57.09 57.08-57.09s57.08 25.61 57.08 57.09v20.78c-0.59-0.02-1.13-0.17-1.72-0.17H898.93v-20.61z m112.45 79.31c0.87 0 1.58 0.71 1.58 1.58V589.5c-26.33-15.59-56.91-24.71-89.66-24.71-38.44 0-73.95 12.48-102.98 33.4H714.1c0.14-3.74 0.62-7.44 0.62-11.17 0-54.21-14.53-104.95-39.54-148.86h336.2zM656.02 587.01c0 3.73-0.45 7.43-0.62 11.17H528.38c-109.48 0-198.54-89.06-198.54-198.54 0-12.61 1.32-25.07 3.64-37.31 26.94-10.51 55.67-16.06 85.17-16.06 130.89 0.01 237.37 108 237.37 240.74zM137.41 381.07c0-44.48 25.99-82.06 56.74-82.06s56.74 37.57 56.74 82.06-25.99 82.07-56.74 82.07-56.74-37.58-56.74-82.07zM574.63 736.6c-81.04 0-150.78-48.86-181.6-118.62 39.38 24.5 85.66 38.9 135.35 38.9h239.84c-12.67 23.12-20.12 49.41-21.27 77.31l-172.32 2.41z m348.66 122.92c-65.07 0-118.02-52.95-118.02-118.02s52.95-118.02 118.02-118.02 118.02 52.95 118.02 118.02-52.95 118.02-118.02 118.02z"  /></svg>