<?xml version="1.0" standalone="no"?><!DOCTYPE svg PUBLIC "-//W3C//DTD SVG 1.1//EN" "http://www.w3.org/Graphics/SVG/1.1/DTD/svg11.dtd"><svg class="icon" width="200px" height="178.09px" viewBox="0 0 1150 1024" version="1.1" xmlns="http://www.w3.org/2000/svg"><path fill="#333333" d="M1150 711.36c0-94.1-48.26-177.08-121.27-225.69 15.06-6.58 28.87-15.95 40.68-28 24.34-24.82 37.38-57.68 36.71-92.54-1.16-59.92-51.31-108.66-111.8-108.66H795.04c-15.48 0-29.95 6.04-40.7 17.02-8.15 8.3-13.35 18.67-15.25 29.89h-62.44c-25.82 0-46.82 21-46.82 46.82v132.58h-78.08c-59.68-51.9-138.41-86.16-225.85-93.32l34.62-95.26c12.47-29.44 58.69-49.55 130.63-24.07 15.21 5.36 31.93-2.59 37.31-17.81 5.39-15.23-2.59-31.93-17.81-37.31-35.33-12.5-66.9-16.4-94.31-14.21l16.45-67.82c2.42-10.11-0.09-20.96-6.7-29.03-6.61-8.05-16.79-12.83-27.11-12.25-113.57 4.18-177.59 147.9-198.42 204.42-4.22-0.5-8.49-0.81-12.82-0.81-63.41 0-115 54.94-115 122.48s51.59 122.48 115 122.48c7.53 0 14.87-0.83 21.99-2.3l-14.59 40.13c-7.16-0.9-14.4-1.53-21.8-1.53-95.58 0-173.34 77.76-173.34 173.34s77.76 173.35 173.34 173.35c77.78 0 143.75-51.51 165.63-122.2h352.25c27.3 78.84 100.86 131.54 184.73 131.54 83.56 0 157.7-53.51 184.75-131.55h51.44c13.4 0 24.58-9.07 28.03-21.37 1.25-2.29 2.32-4.71 2.93-7.38 4.58-19.85 6.9-40.36 6.9-60.94z m-58.47 0c0 10.5-1.05 20.91-2.57 31.22H668.95c-1.52-10.31-2.55-20.72-2.55-31.22 0-117.21 95.36-212.56 212.56-212.56 117.21 0 212.57 95.36 212.57 212.56z m-749.08 0.88h264.21c0.17 3.77 0.65 7.47 0.65 11.28 0 3.57 0.73 6.95 1.9 10.11 0.24 2.98 0.18 5.99 0.52 8.96H346.32c-0.43-10.38-1.68-20.52-3.87-30.35z m651.86-397.29c28.86 0 52.8 23.03 53.35 51.32 0.36 19.02-6.74 36.94-19.99 50.47-13.6 13.87-32.02 21.5-51.88 21.5l-176.64 0.91-2.4-124.2h197.56zM641.47 541.26c25.82 0 46.83-21 46.83-46.82V361.85h50.88l1.52 78.42c0.23 11.92 4.22 22.94 10.77 32.06-50 26.78-90.45 68.88-115.56 119.87-8.5-17.87-18.86-34.83-30.54-50.95h36.1zM131.21 417.78c0-35.3 25.36-64.01 56.53-64.01s56.52 28.71 56.52 64.01-25.35 64.01-56.52 64.01-56.53-28.71-56.53-64.01z m123.36-99.47c17.19-48.2 56.85-130.7 111.59-158.65l-14.92 61.53c-21.22 13.16-36.57 31.38-45.12 51.61l-26.2 72.08c-7.12-10.19-15.65-19.16-25.35-26.57z m-81.23 546.47C110 864.78 58.47 813.25 58.47 749.9c0-63.34 51.53-114.87 114.87-114.87 0.37 0 0.72 0.05 1.08 0.05L128.31 761.93c-5.52 15.18 2.31 31.95 17.48 37.47 3.3 1.2 6.67 1.77 9.99 1.77 11.94 0 23.15-7.38 27.47-19.25l47.7-131.24c34.18 19.92 57.27 56.89 57.27 99.23 0 63.34-51.53 114.87-114.88 114.87z m77.78-269.58l53.88-148.23c140.64 5.2 257.52 91.36 291.79 206.8H334.96c-5.47 0-10.53 1.6-14.91 4.21-16.8-26.71-40.62-48.49-68.93-62.78z m624.83 278.93c-51.72 0-97.77-28.62-121.17-73.08H996.8c-23.41 44.01-69.45 73.08-120.85 73.08z"  /></svg>