<?xml version="1.0" standalone="no"?><!DOCTYPE svg PUBLIC "-//W3C//DTD SVG 1.1//EN" "http://www.w3.org/Graphics/SVG/1.1/DTD/svg11.dtd"><svg class="icon" width="200px" height="178.09px" viewBox="0 0 1150 1024" version="1.1" xmlns="http://www.w3.org/2000/svg"><path fill="#333333" d="M1150 240.37c0-35.49-28.87-64.36-64.36-64.36H313.92c-35.48 0-64.35 28.86-64.35 64.36 0 13.64 4.33 26.26 11.6 36.68l77.04 275.36H70.86c-39.08 0-70.86 31.79-70.86 70.86s31.79 70.86 70.86 70.86H391.9c2.25 0.6 4.53 1.13 6.92 1.13 2.43 0 4.9-0.32 7.36-1.01 0.11-0.03 0.21-0.09 0.32-0.12h99.69c32.26 89.68 117.93 154.1 218.58 154.1 101.93 0 188.55-66.04 219.83-157.51l94.81-0.8 105.6-420.61c0.55-2.19 0.73-4.36 0.74-6.52 2.62-6.99 4.25-14.49 4.25-22.42z m-836.08-9.89h771.72c5.45 0 9.89 4.43 9.89 9.89s-4.44 9.89-9.89 9.89H313.92c-5.45 0-9.88-4.43-9.88-9.89s4.43-9.89 9.88-9.89zM54.46 623.27c0-9.04 7.36-16.4 16.4-16.4h282.58l9.18 32.8H70.86c-9.04 0-16.4-7.36-16.4-16.4z m670.3 170.5c-98.15 0-178-79.85-178-178s79.85-178 178-178 178 79.85 178 178-79.85 178-178 178z m272.07-157.95l-40.64 0.34c0.59-6.73 1.03-13.51 1.03-20.39 0-128.18-104.28-232.46-232.46-232.46S492.29 487.59 492.29 615.77c0 8.07 0.42 16.04 1.23 23.9h-74.35l-93.71-334.94h754.49l-83.12 331.09z"  /><path fill="#333333" d="M724.76 501.44c-63.04 0-114.34 51.29-114.34 114.34s51.29 114.34 114.34 114.34S839.1 678.83 839.1 615.78s-51.3-114.34-114.34-114.34z m0 174.2c-33.01 0-59.87-26.86-59.87-59.87s26.86-59.87 59.87-59.87 59.87 26.86 59.87 59.87-26.86 59.87-59.87 59.87z"  /></svg>