<?xml version="1.0" standalone="no"?><!DOCTYPE svg PUBLIC "-//W3C//DTD SVG 1.1//EN" "http://www.w3.org/Graphics/SVG/1.1/DTD/svg11.dtd"><svg class="icon" width="200px" height="178.09px" viewBox="0 0 1150 1024" version="1.1" xmlns="http://www.w3.org/2000/svg"><path fill="#333333" d="M1019.034692 887.779775h-74.085161V711.230239c0-73.758755-60.004356-133.763111-133.763111-133.763111h-74.520369V385.585564c0-42.732023-34.76227-77.485227-77.494294-77.485227H282.607701V77.485227c0-42.732023-34.76227-77.485227-77.494294-77.485227h-169.731271C19.079956 0 5.869568 13.210388 5.869568 29.521636s13.210388 29.521636 29.521635 29.521635h169.731271c10.172996 0 18.460089 8.268959 18.460089 18.451022V470.179194C105.949363 504.361186 19.660233 612.900344 19.660233 741.404687c0 155.822736 126.772576 282.595313 282.60438 282.595313 155.822736 0 282.595313-126.772576 282.595312-282.595313 0-37.083381-7.371342-72.425929-20.40946-104.903354H677.631846V807.193689c-45.415809 10.671672-79.434597 51.291122-79.434597 99.916592 0 56.72216 46.150223 102.854249 102.872382 102.854249s102.854249-46.141156 102.854249-102.854249c0-44.155518-28.107208-81.583439-67.257829-96.13572V636.501333h74.520369c41.199727 0 74.728907 33.520113 74.728907 74.728906v176.549536h-3.681138c-16.302181 0-29.512569 13.219455-29.512568 29.521635 0 16.302181 13.219455 29.512569 29.512568 29.512569h136.800503c16.302181 0 29.521636-13.219455 29.521636-29.512569 0-16.302181-13.219455-29.521636-29.521636-29.521635z m-317.965061 63.15055c-24.163132 0-43.838178-19.656912-43.838178-43.820044s19.665979-43.820044 43.838178-43.820045 43.820044 19.656912 43.820045 43.820045-19.656912 43.820044-43.820045 43.820044z m-398.814085 14.035471c-123.272776 0-223.570175-100.288333-223.570175-223.561109 0-123.272776 100.288333-223.570175 223.570175-223.570175 123.263709 0 223.561108 100.288333 223.561108 223.570175 0 123.272776-100.288333 223.561108-223.561108 223.561109z m229.744694-387.498668c-51.309255-71.691515-135.059669-118.66682-229.744694-118.66682-6.627861 0-13.128786 0.54401-19.647845 0.997353v-92.663119h376.564056c10.172996 0 18.460089 8.268959 18.460089 18.451022v191.881564H532.00024z"  /></svg>