<?xml version="1.0" standalone="no"?><!DOCTYPE svg PUBLIC "-//W3C//DTD SVG 1.1//EN" "http://www.w3.org/Graphics/SVG/1.1/DTD/svg11.dtd"><svg class="icon" width="200px" height="170.67px" viewBox="0 0 1200 1024" version="1.1" xmlns="http://www.w3.org/2000/svg"><path fill="#333333" d="M1150.61 727.68h-11.22v-85.31c0.07-0.99 0.3-1.93 0.3-2.94v-190.2c0-22.12-18-40.12-40.11-40.12H857.54V376.6c0-35.05-28.51-63.57-63.57-63.57h-40.46c-42.79 0-82.49 13.35-115.29 36.01L272.48 76.23c-9.8-7.29-22.65-8.41-33.55-2.93-10.91 5.47-17.68 16.46-17.68 28.67v200.11c0 10.93-8.88 19.81-19.81 19.81-10.93 0-19.82-8.88-19.82-19.81v-20.49c0-15.32-12.42-27.74-27.74-27.74s-27.74 12.42-27.74 27.74v20.49c0 41.52 33.78 75.29 75.3 75.29 41.52 0 75.29-33.77 75.29-75.29V148.6l319.84 238.58c-29.02 35.17-46.48 80.23-46.48 129.28v144.2h0.08v67.03H432.95v-76.57c0-3.08-0.47-6.04-1.17-8.91V491.86c0-21.07-17.07-38.21-38.05-38.21h-12.49v-0.01H212.2c-111.81 0-203.49 83.91-211.42 189.84-0.51 2.47-0.78 5.02-0.78 7.63v192.54c0 20.98 17.25 38.06 38.44 38.06h67.84c20.04 42.85 63.45 72.68 113.8 72.68 50.29 0 93.65-29.76 113.73-72.53h59.93c2.72 0 5.36-0.31 7.92-0.86 11.98-2.24 21.89-10.03 27.16-20.52h213.47c14.79 52.95 63.34 91.96 120.95 91.96 44.02 0 82.75-22.79 105.21-57.14 22.46 34.35 61.19 57.14 105.21 57.14 57.61 0 106.16-39 120.95-91.96h56c27.23 0 49.39-22.16 49.39-49.39v-34.02c0-27.24-22.16-49.39-49.39-49.39z m-66.4-263.09v159.48H857.54V464.59h226.67zM802.06 376.6v247.47h-196.5V516.46c0-4.68 0.28-9.3 0.7-13.87h163.42V368.51h24.28c4.47 0 8.1 3.63 8.1 8.09z m-87.84-2.62v73.14h-91.31c18.9-35.46 51.82-62.24 91.31-73.14zM605.64 679.55h478.27v48.14h-33.19c-21.31-16.61-48.01-26.61-77.06-26.61-29.51 0-56.63 10.29-78.1 27.39v-0.78H840.3c-21.31-16.61-48.01-26.61-77.06-26.61-29.51 0-56.63 10.29-78.1 27.39v-0.78h-79.5v-48.14zM212.2 509.12h41.88v104.46l-191.21-0.45c20.16-60.24 79.46-104.01 149.33-104.01zM94.52 826.24h-39.04V668.58l253.93 0.6 0.05-23.49h0.1V509.13h66.75v317.11h-30.67c-1.34-68.15-57.09-123.21-125.56-123.21S95.86 758.09 94.52 826.24z m125.55 72.68c-38.71 0-70.2-31.49-70.2-70.2 0-38.71 31.49-70.2 70.2-70.2s70.2 31.49 70.2 70.2c0.01 38.7-31.49 70.2-70.2 70.2z m212.91-115.76h212.54a123.88 123.88 0 0 0-5.94 21.84h-206.6v-21.84z m330.26 113.8c-38.71 0-70.2-31.49-70.2-70.2s31.49-70.2 70.2-70.2c38.71 0 70.2 31.49 70.2 70.2s-31.49 70.2-70.2 70.2z m210.42 0c-38.71 0-70.2-31.49-70.2-70.2s31.49-70.2 70.2-70.2c38.71 0 70.2 31.49 70.2 70.2s-31.49 70.2-70.2 70.2zM1144.52 805h-47.2c-1.32-7.54-3.33-14.83-5.94-21.84h53.14V805z"  /></svg>