<?xml version="1.0" standalone="no"?><!DOCTYPE svg PUBLIC "-//W3C//DTD SVG 1.1//EN" "http://www.w3.org/Graphics/SVG/1.1/DTD/svg11.dtd"><svg class="icon" width="200px" height="170.67px" viewBox="0 0 1200 1024" version="1.1" xmlns="http://www.w3.org/2000/svg"><path fill="#333333" d="M29.39306 640.9c6.21 0 12.48-1.97 17.8-6.02 39.7-30.34 77.71-52.21 114.02-66.41 5.52-0.27 10.76-2.38 15.45-5.75 37.67-12.51 73.39-16.3 106.83-10.8 37.45 6.19 63.48 22.1 91.04 38.92 30.18 18.41 64.4 39.3 114.02 46.37 69.06 9.73 110.44-20.72 146.9-47.67 30.14-22.29 56.39-42.3 98.46-40.62 44 0.96 71.45 20.24 103.24 42.59 15.76 11.07 32.11 22.2 50.66 31.56 0.14 2.05 0.21 4.09 0.62 6.14 2.47 12.18 9.5 22.67 19.84 29.57l103.72 69.27c12.75 8.51 27.39 12.92 42.38 12.92 5.03 0 10.07-0.5 15.12-1.49 20.03-3.99 37.33-15.56 48.7-32.57l36.26-54.3c11.32-16.94 15.37-37.27 11.39-57.25a75.985 75.985 0 0 0-11.26-27.33c12.45-10.68 24.93-22.12 37.24-34.94 11.22-11.7 10.86-30.28-0.84-41.52-11.68-11.22-30.26-10.84-41.52 0.84-13.63 14.2-27.38 26.77-40.94 37.8l-20.07-13.41c28.96-43.26 45.31-89.52 48.57-137.84 2.41-35.97-1.74-140.93-11.85-168.46-2.82-7.67-8.5-13.35-15.38-16.41-11.03-8.01-26.25-7.96-36.71 1.52-72.11 65.5-184.67 113.84-317.12 136.43l-98.24-71.14c-13.02-9.44-29-13.23-44.75-10.67-15.87 2.54-29.8 11.11-39.2 24.1l-14.09 19.44c-9.42 13.02-13.23 28.92-10.69 44.79 0.23 1.41 0.75 2.72 1.07 4.1-178.37-8.14-342.14-59.39-435.59-138.07-6.48-5.47-14.61-7.56-22.4-6.62-10.92 0.17-21.34 6.32-26.25 16.89-13.61 29.38-29.74 119.43-22.42 166.62 7.4 47.67 32.48 101.22 66.62 145.42-32.12 15.55-64.94 35.69-98.47 61.3-12.9 9.84-15.37 28.27-5.52 41.15 5.79 7.57 14.53 11.55 23.36 11.55zM1075.31306 269.05c2.93 33.84 4.83 80.52 3.11 105.96-2.55 37.86-15.59 74.51-38.78 109.16l-10.21-6.82c-19.78-13.18-45.96-9.09-61.06 8.5L820.64306 378.88c100.08-23.16 187.75-61 254.67-109.83z m-453.98 39.71c0.4-0.52 1.47-0.67 1.97-0.31L958.09306 550.9c13.11 9.5 31.48 6.59 41-6.56 2.82-3.89 4.42-8.25 5.11-12.7 0.15-0.09 0.32-0.11 0.47-0.21l96.11 64.21c3.9 2.6 6.56 6.56 7.47 11.16 0.92 4.59-0.02 9.27-2.62 13.17l-36.26 54.29a17.78 17.78 0 0 1-11.37 7.61c-4.63 0.94-9.39 0-13.38-2.66L954.46306 619c0.33-0.81 0.76-1.57 1.03-2.43 2.11-6.82 1.49-13.78-1.05-19.9 0.08-9.18-4.08-18.26-12.08-24.05l-334.8-242.41c-0.54-0.38-0.73-1.41-0.32-1.97l14.09-19.48zM101.45306 372.49c-3.68-23.78 1.49-66.76 8.02-98.35C225.45306 354 408.40306 402.65 599.88306 402.65c2.25 0 4.42-0.31 6.52-0.79l122.4 88.63c-58.09 1.37-95.59 27.65-128.27 51.82-32.63 24.12-58.39 43.18-103.7 36.74-37.64-5.35-62.7-20.64-91.69-38.34-29.7-18.14-63.35-38.67-112.07-46.72-40.2-6.7-82.29-2.96-125.88 10.26-33.43-38.36-59.14-89.19-65.74-131.76z"  /><path fill="#333333" d="M1145.98306 698.28c-60.96 54.11-120.75 80.74-178.49 78.9-42.49-1.32-69.23-17.34-100.2-35.92-34-20.4-72.54-43.49-132.73-44.63-60.44-0.69-98.29 22.67-131.58 43.68-32.69 20.64-58.7 36.91-104.79 31.31-37.87-4.59-62.83-17.6-91.75-32.65-29.21-15.22-62.31-32.46-109.93-39.18-84.41-11.85-177.33 14.76-276.34 79.27-13.57 8.85-17.41 27.05-8.56 40.64 8.87 13.61 27.09 17.39 40.64 8.56 86.7-56.54 166.11-80.22 236.05-70.32 37.66 5.31 63.58 18.81 91.02 33.11 31.14 16.23 63.33 32.99 111.8 38.88 67 8.14 107.48-17.39 143.21-39.95 30.14-19.02 56.02-35.59 99.13-34.62 44.54 0.84 71.93 17.26 103.66 36.28 33.18 19.9 70.82 42.45 128.58 44.23 2.43 0.08 4.84 0.11 7.26 0.11 70.57 0 141.87-31.52 212.02-93.78 12.12-10.76 13.23-29.32 2.47-41.46-10.79-12.11-29.31-13.22-41.47-2.46z"  /></svg>