<?xml version="1.0" standalone="no"?><!DOCTYPE svg PUBLIC "-//W3C//DTD SVG 1.1//EN" "http://www.w3.org/Graphics/SVG/1.1/DTD/svg11.dtd"><svg class="icon" width="200px" height="157.54px" viewBox="0 0 1300 1024" version="1.1" xmlns="http://www.w3.org/2000/svg"><path fill="#333333" d="M1300 235.98c0-46.21-25.79-81.07-59.99-81.07H446.93v-0.02h-66.17c-41.88 0-75.95 39.72-75.95 88.52v121.01h-60.83l-5.96 3.02C231.5 370.72 197.6 391.39 134.49 487.35c-76.05 9.51-134.49 62.13-134.49 125.61v139.08c0 29.15 26.21 51.98 59.66 51.98h49.7c15.36 38.23 52.74 65.33 96.41 65.33 49.6 0 91.13-34.95 101.41-81.5H479.7c10.28 46.55 51.81 81.5 101.41 81.5 37 0 69.46-19.5 87.87-48.71 18.41 29.21 50.87 48.71 87.88 48.71 48.14 0 88.61-32.94 100.36-77.43h45.36c11.76 44.49 52.23 77.43 100.35 77.43 37.01 0 69.47-19.5 87.88-48.71 18.41 29.21 50.87 48.71 87.88 48.71 56.29 0 102.16-45.01 103.76-100.92 10.88-14.66 17.54-35.05 17.54-57.94V235.98z m-484.59-24.91v468.59c-16.68-11.42-36.84-18.13-58.54-18.13-37.01 0-69.47 19.5-87.88 48.71-18.41-29.21-50.87-48.71-87.87-48.71-45.48 0-84.13 29.41-98.18 70.17h-36V211.07h368.47z m-424.63 274.6h-29.81v-65.09h29.81v65.09z m-29.81-242.25c0-18.53 10.46-32.37 19.8-32.37h10.02v153.38h-29.81V243.42zM259.5 420.58h45.31v65.09H203.74c29.5-40.97 48.21-58.75 55.76-65.09zM205.76 813.2c-26.34 0-47.76-21.42-47.76-47.76 0-26.34 21.42-47.76 47.76-47.76s47.76 21.42 47.76 47.76c0 26.34-21.42 47.76-47.76 47.76z m0-151.67c-51.31 0-93.93 37.4-102.31 86.35h-43.79c-1.44 0-2.61-0.22-3.51-0.48V612.96c0-38.57 47.14-71.14 102.95-71.14h231.68V731.7h-86.84c-14.05-40.76-52.7-70.17-98.18-70.17zM581.12 813.2c-26.34 0-47.76-21.42-47.76-47.76 0-26.34 21.42-47.76 47.76-47.76 26.32 0 47.74 21.42 47.74 47.76 0 26.34-21.42 47.76-47.74 47.76z m175.75 0c-26.34 0-47.76-21.42-47.76-47.76 0-26.34 21.42-47.76 47.76-47.76 26.34 0 47.76 21.42 47.76 47.76 0 26.34-21.42 47.76-47.76 47.76z m146.54-77.42h-31.85V211.07h365.67c2.41 2.94 6.62 11.44 6.62 24.91V684.6c-17.84-14.4-40.49-23.07-65.15-23.07-37.01 0-69.47 19.5-87.88 48.71-18.41-29.21-50.87-48.71-87.88-48.71-46.98 0-86.73 31.36-99.53 74.25z m99.52 77.42c-26.32 0-47.74-21.42-47.74-47.76 0-26.34 21.42-47.76 47.74-47.76 26.34 0 47.76 21.42 47.76 47.76 0.01 26.34-21.42 47.76-47.76 47.76z m175.77 0c-26.34 0-47.76-21.42-47.76-47.76 0-26.34 21.42-47.76 47.76-47.76 26.34 0 47.76 21.42 47.76 47.76 0 26.34-21.42 47.76-47.76 47.76z"  /></svg>