<?xml version="1.0" standalone="no"?><!DOCTYPE svg PUBLIC "-//W3C//DTD SVG 1.1//EN" "http://www.w3.org/Graphics/SVG/1.1/DTD/svg11.dtd"><svg class="icon" width="200px" height="186.18px" viewBox="0 0 1100 1024" version="1.1" xmlns="http://www.w3.org/2000/svg"><path fill="#333333" d="M961.47 102.44h110.8c15.32 0 27.73-12.42 27.73-27.73s-12.42-27.73-27.73-27.73H50.35c-15.32 0-27.73 12.42-27.73 27.73s12.42 27.73 27.73 27.73h722.93L668.6 214.82h-62.91c-10.09 0-19.93 4.14-26.98 11.36l-64.38 65.86h-253c-31.26 0-59.93 15.74-76.7 42.1L10.6 607.59a68.012 68.012 0 0 0-10.6 36.47v114.58c0 67.52 54.93 122.46 122.46 122.46h53.16c16.69 55.56 68.25 96.18 129.17 96.18s112.49-40.62 129.19-96.18h243.65c16.7 55.56 68.26 96.18 129.19 96.18 60.93 0 112.49-40.62 129.19-96.18h29.48c67.53 0 122.46-54.94 122.46-122.46V414.49c0-67.52-54.93-122.45-122.46-122.45h-38.15v-39.49c0-20.8-16.94-37.73-37.74-37.73h-31.84l101.86-109.36c0.83-0.9 1.19-2.02 1.85-3.02zM643.23 543.33V347.5h193.03v195.82H643.23z m-248.5 0V347.5h193.03v195.82H394.73z m-163.3-179.42c6.54-10.27 17.71-16.4 29.9-16.4h77.93v195.82H117.25l114.18-179.42z m73.36 557.9c-43.81 0-79.43-35.64-79.43-79.45s35.63-79.44 79.43-79.44 79.45 35.63 79.45 79.44-35.64 79.45-79.45 79.45z m502.03 0c-43.81 0-79.45-35.64-79.45-79.45s35.64-79.44 79.45-79.44 79.45 35.63 79.45 79.44-35.64 79.45-79.45 79.45z m158.67-96.18H940.6c-8.28-66.51-65.05-118.18-133.77-118.18s-125.49 51.67-133.77 118.18h-234.5c-8.28-66.51-65.05-118.18-133.77-118.18s-125.47 51.67-133.75 118.18H122.46c-36.94 0-66.99-30.06-66.99-66.99V644.07c0-2.38 0.69-4.71 1.95-6.72l24.53-38.55h950.52v159.85c0.01 36.93-30.04 66.98-66.98 66.98z m66.99-411.14v128.84H891.73V347.5h73.76c36.94 0 66.99 30.05 66.99 66.99zM871.86 292.03H591.88l21.26-21.75h258.72v21.75z m-143.87-77.21l101.86-109.36c0.84-0.9 1.2-2.02 1.85-3.02h71.33L798.37 214.82h-70.38z"  /></svg>