<?xml version="1.0" standalone="no"?><!DOCTYPE svg PUBLIC "-//W3C//DTD SVG 1.1//EN" "http://www.w3.org/Graphics/SVG/1.1/DTD/svg11.dtd"><svg class="icon" width="200px" height="170.67px" viewBox="0 0 1200 1024" version="1.1" xmlns="http://www.w3.org/2000/svg"><path fill="#333333" d="M1123.65338 544.62h-145.9V373.6c0-40.93-33.42-74.24-74.49-74.24H781.07338c-11.96 0-23.66 0.99-35.23 2.44-50.61-44.38-218.51-177.6-471.83-238.32-23.58-5.72-47.82 5.56-56.41 26.14C146.59338 259.82 98.81338 406.83 98.34338 408.3l0.4 0.13-83.49 121.81c-27.2 39.7-17.04 94.13 22.65 121.35l289.42 127.39 6.87-27.5c12.23-48.92-6.28-69.45-21.15-85.95l-44.27-38.56c-12.78-10.98-21.83-25.39-26.16-41.68-3.94-14.83-4-31.21-0.16-48.69 9.2-41.89 4.91-92.29-3.43-123.66l-4.1-15.42c3.65-22.23 16.75-79.16 63.67-190.59 0.62-0.58 3.37-1.74 6.4-1 212.64 50.4 284.36 123.98 304.78 151.92-66.55 51.2-109.65 131.2-109.65 221.21v28.26h-0.04v68.13c0 35.16 28.6 63.77 63.77 63.77h559.8c42.1 0 76.35-34.24 76.35-76.34v-41.94c0-42.08-34.25-76.32-76.35-76.32zM277.41338 697.49l0.08 0.09c3.93 4.35 7.03 7.79 9.22 11.34l-223.36-97.98c-16.58-12.62-20.53-36.27-8.62-53.66l87.61-127.83c10.77-15.69 30.9-21.19 47.81-14.05l2.62 9.86c6.84 25.72 10.04 68.71 2.93 101.1-5.48 24.99-5.26 48.97 0.66 71.25 6.82 25.64 21.08 48.36 41.22 65.67l39.83 34.21z m38.63-538.12c-25.5-6.01-51.71 6.06-61.02 28.11-37.43 88.66-54.63 144.97-62.58 178.79-9.63-1.97-19.42-1.97-29.03-0.69 20.06-57.47 54.39-151.96 97.55-255.56 0.5-0.11 1.15-0.16 1.87 0.02 206.71 49.56 356.44 151.88 424.51 205.69-12.9 4.56-25.43 9.86-37.39 16.17-26.34-37.22-107.47-118.85-333.91-172.53z m465.03 187.85h12.15v79.28c0 88.34-71.86 160.19-160.19 160.19h-85.05v-7.62c0-127.84 104.57-231.85 233.09-231.85z m371.07 315.68c0 15.7-12.78 28.48-28.49 28.48h-559.8c-8.77 0-15.91-7.14-15.91-15.91v-16.72h0.04v-24.2h85.05c114.72 0 208.05-93.34 208.05-208.05v-79.28h62.18c14.68 0 26.63 11.82 26.63 26.38v218.05h26.03v0.83h167.73c15.7 0 28.49 12.78 28.49 28.48v41.94z"  /><path fill="#333333" d="M1090.47338 749.96H616.73338c-58.52 0-106.14 47.61-106.14 106.14s47.62 106.14 106.14 106.14h473.74c58.52 0 106.14-47.61 106.14-106.14s-47.62-106.14-106.14-106.14z m-278.43 47.86h83v116.57h-83V797.82z m-47.86 116.57h-83V797.82h83v116.57z m178.71-116.57h83v116.57h-83V797.82zM558.44338 856.1c0-32.14 26.14-58.28 58.28-58.28h16.59v116.57h-16.59c-32.13 0-58.28-26.15-58.28-58.29z m532.03 58.29h-16.72V797.82h16.72c32.14 0 58.28 26.14 58.28 58.28s-26.14 58.29-58.28 58.29z"  /></svg>