<?xml version="1.0" standalone="no"?><!DOCTYPE svg PUBLIC "-//W3C//DTD SVG 1.1//EN" "http://www.w3.org/Graphics/SVG/1.1/DTD/svg11.dtd"><svg class="icon" width="200px" height="178.24px" viewBox="0 0 1149 1024" version="1.1" xmlns="http://www.w3.org/2000/svg"><path fill="#333333" d="M1123.78 206.8H740.56c-14.48 0-26.21 11.74-26.21 26.21 0 14.48 11.74 26.21 26.21 26.21h165.4v68.96h-36.67c-45.59 0-82.68 37.37-82.68 83.29v26.27H497.06c-32.28-49.76-96.06-82.27-167.83-85.62v-52.07h165.4c14.48 0 26.21-11.74 26.21-26.21 0-14.48-11.74-26.21-26.21-26.21H111.4c-14.48 0-26.21 11.74-26.21 26.21 0 14.48 11.74 26.21 26.21 26.21h165.4v55.4c-88.11 17.4-163.05 89.06-167.37 165.77C46.34 539.39 0 597.51 0 666.36c0 83.31 67.77 151.09 151.08 151.09h779.64c54.15 0 98.21-44.06 98.21-98.22V398.41h-0.08v-32.32c0-20.9-16.95-37.91-37.79-37.91h-32.68v-68.96h165.4c14.48 0 26.21-11.74 26.21-26.21 0.01-14.48-11.73-26.21-26.21-26.21zM174.7 515.27l10.55-30.64 66.99 1.62c8.03 0 14.56 6.53 14.56 14.56 0 8.03-6.53 14.56-14.56 14.56h-17.63v-0.09H174.7z m563.3 249.76H401.18V661.87c0-8.5 6.91-15.41 15.41-15.41h306c8.5 0 15.41 6.91 15.41 15.41v103.16z m238.5-244.12v198.33c0 25.25-20.54 45.79-45.78 45.79H790.43V661.87c0-37.41-30.43-67.84-67.84-67.84h-306c-37.41 0-67.84 30.43-67.84 67.84v103.16H151.08c-54.4 0-98.65-44.26-98.65-98.66 0-53.9 43.45-97.78 97.16-98.59 0.06 0 0.12 0.02 0.18 0.02h102.47c36.94 0 66.99-30.05 66.99-66.99 0-36.93-30.05-66.98-66.34-66.98h-0.02l-29-0.7c26.29-17.55 58.71-29.25 93.26-29.25 60.82 0 116.85 27.01 139.41 67.22 0.48 0.86 1.1 1.58 1.66 2.36 3.81 9.77 13.26 16.73 24.38 16.73h322.6c1.69 0 3.33-0.19 4.93-0.5 0.91 0.09 1.79 0.27 2.72 0.27 14.48 0 26.21-11.73 26.21-26.21v-52.27c0-17.02 13.57-30.87 30.25-30.87h107.14v139.53c0 0.26 0.07 0.51 0.07 0.77z"  /></svg>