<?xml version="1.0" standalone="no"?><!DOCTYPE svg PUBLIC "-//W3C//DTD SVG 1.1//EN" "http://www.w3.org/Graphics/SVG/1.1/DTD/svg11.dtd"><svg class="icon" width="200px" height="163.84px" viewBox="0 0 1250 1024" version="1.1" xmlns="http://www.w3.org/2000/svg"><path fill="#333333" d="M1165.12 256.17h-31.57l-75.05-86.35-2-2.07c-15.51-14.7-36.07-22.79-57.89-22.79H410.43c-22.17 0-43.73 8.75-59.17 24.01L164.44 387.73c-0.66 0.77-1.13 1.63-1.7 2.44C69.4 415.88 0 508.14 0 618.03v53.43c0 78.91 59.24 143.11 132.08 143.11h27.69c26.04 38.98 70.4 64.73 120.7 64.73s94.66-25.75 120.7-64.73h384.08c26.04 38.98 70.4 64.73 120.7 64.73 50.44 0 94.91-25.91 120.91-65.09 59.34-3.15 108.42-48.81 121.83-109.48h16.43c46.79 0 84.88-38.09 84.88-84.88V341.07c0-46.81-38.09-84.9-84.88-84.9z m-754.69-51.64h588.18c6.01 0 11.81 2.07 16.08 5.7l78.48 90.29-0.15 82.28H880.46v-92.17c0-24.63-22.96-43.21-53.39-43.21h-464.6l31.39-36.79c4.34-3.89 10.31-6.1 16.57-6.1zM246.95 382.8l64.69-75.8H466.6v75.8H246.95zM516.24 307h125.4v75.8h-125.4V307z m175.05 0h129.6v75.8h-129.6V307zM280.47 819.73c-47.14 0-85.5-38.36-85.5-85.5s38.36-85.5 85.5-85.5 85.5 38.36 85.5 85.5-38.36 85.5-85.5 85.5z m625.47 0c-47.14 0-85.5-38.36-85.5-85.5s38.36-85.5 85.5-85.5 85.5 38.36 85.5 85.5-38.35 85.5-85.5 85.5z m186.92-148.28c0 33.7-17.5 62.65-42.51 75.84 0.39-4.31 0.66-8.66 0.66-13.07 0-79.99-65.08-145.07-145.07-145.07s-145.07 65.08-145.07 145.07c0 7.07 0.68 13.97 1.66 20.77H423.88c0.98-6.8 1.66-13.7 1.66-20.77 0-79.99-65.08-145.07-145.07-145.07S135.4 654.23 135.4 734.23c0 7.07 0.68 13.97 1.66 20.77h-4.98c-39.99 0-72.51-37.49-72.51-83.54v-53.43c0-96.86 69.83-175.65 155.68-175.65h877.61v229.07z m97.57-51.6c0 13.96-11.34 25.31-25.31 25.31h-12.68V475.79l0.28-160.04h12.41c13.96 0 25.31 11.36 25.31 25.33v278.77z"  /></svg>