<?xml version="1.0" standalone="no"?><!DOCTYPE svg PUBLIC "-//W3C//DTD SVG 1.1//EN" "http://www.w3.org/Graphics/SVG/1.1/DTD/svg11.dtd"><svg class="icon" width="200px" height="178.09px" viewBox="0 0 1150 1024" version="1.1" xmlns="http://www.w3.org/2000/svg"><path fill="#333333" d="M1150 469.6l-0.1-13.18V423.2c0-0.9-0.23-1.75-0.27-2.64l-1.58-212.26c0-23.29-18.4-42.24-41.01-42.24H890.22c-22.62 0-41.01 18.95-41.01 42.24v40.06H733.07c-24.08 0-43.67 19.59-43.67 43.68v72.59h-20.76v-70.14h0.03v-90.02c0-24.39-19.84-44.23-44.23-44.23H437.75l-6.43 0.77c-4.18 1.01-104 26.71-253.22 203.43l0.22 0.19H156.65C70.27 364.63 0 434.9 0 521.28v181.17c0 32.29 26.27 58.56 58.56 58.56h68.98c16.53 59.32 70.91 103.02 135.42 103.02 64.52 0 118.9-43.71 135.43-103.02h306.12c16.53 59.32 70.91 103.02 135.42 103.02 64.52 0 118.9-43.71 135.43-103.02h115.76c32.41 0 58.78-26.36 58.78-58.77V469.6h0.1zM904.02 220.86h189.31l1.07 144.07c-1.04-0.05-2.02-0.31-3.07-0.31H905.94V248.35h-1.92v-27.49z m-159.81 82.3h105v61.46h-105v-61.46z m347.12 116.27c1.83 0 3.17 1.41 3.5 3.14l0.13 17.42c-1.22-0.08-2.39-0.37-3.63-0.37h-332.4v-0.07h-86.54c-2.07 0-3.75-1.68-3.75-3.75v-16.38h422.69z m-772.59-122.2h126.3v67.39H250.99c24.53-26.84 47.23-49.12 67.75-67.39z m-55.78 511.98c-47.35 0-85.88-38.53-85.88-85.88s38.53-85.88 85.88-85.88c47.36 0 85.89 38.53 85.89 85.88s-38.53 85.88-85.89 85.88z m576.97 0c-47.35 0-85.88-38.53-85.88-85.88s38.53-85.88 85.88-85.88c47.36 0 85.89 38.53 85.89 85.88s-38.52 85.88-85.89 85.88z m255.16-106.98c0 2.11-1.86 3.96-3.97 3.96H979.49c-8.5-69.51-67.78-123.56-139.55-123.56-66.22 0-121.76 46.04-136.64 107.76H399.61c-14.89-61.71-70.42-107.76-136.65-107.76-71.77 0-131.05 54.05-139.54 123.56H58.56c-2.07 0-3.75-1.68-3.75-3.75V521.27c0-56.15 45.69-101.84 101.84-101.84h343.29v-54.81h-0.08v-77.97c0-24.39-19.84-44.23-44.23-44.23H389.6c27.81-17.97 46.03-25.23 52.21-27.37h172.05v39.59h-0.03v181.17c0 32.29 26.27 58.56 58.56 58.56h24.3v0.07h394.65a3.76 3.76 0 0 1 3.76 3.75v204.04z"  /></svg>