<?xml version="1.0" standalone="no"?><!DOCTYPE svg PUBLIC "-//W3C//DTD SVG 1.1//EN" "http://www.w3.org/Graphics/SVG/1.1/DTD/svg11.dtd"><svg class="icon" width="200px" height="178.09px" viewBox="0 0 1150 1024" version="1.1" xmlns="http://www.w3.org/2000/svg"><path fill="#333333" d="M1150 152.66c0-25.44-20.7-46.15-46.15-46.15H172.12c-15.04 0-27.23 12.2-27.23 27.23 0 15.03 12.19 27.23 27.23 27.23h67.94v61.5h-67.94c-15.04 0-27.23 12.2-27.23 27.23 0 15.03 12.19 27.23 27.23 27.23h313.03v114.62h-39.29v-42.96c0-31.4-26.2-56.93-58.41-56.93H222.92C100 291.67 0 387.52 0 505.33v228.48c0 34.57 28.91 62.71 64.46 62.71h9.66c9.13 68.32 67.64 121.23 138.42 121.23s129.29-52.91 138.42-121.23h405.69c9.13 68.32 67.64 121.23 138.43 121.23 69.88 0 127.77-51.58 138.02-118.64l70.77-0.5c25.45 0 46.15-20.71 46.15-46.15V268.62c0-3.01-0.34-5.94-0.89-8.79 0.53-2.11 0.89-4.29 0.89-6.57v-100.6z m-54.46 69.81h-65.75v-61.5h65.75v61.5z m-555.93 0v-61.5h68.08v61.5h-68.08z m122.55-61.5h68.08v61.5h-68.08v-61.5z m122.54 0h68.08v61.5H784.7v-61.5z m122.55 0h68.08v61.5h-68.08v-61.5z m-612.73 0h68.08v61.5h-68.08v-61.5z m122.55 61.5v-61.5h68.08v61.5h-68.08z m68.08 223.55v296.04h-39.29V446.02h39.29zM65.34 449.56v0.23h160.39c3.26 0 5.49 0.85 6.67 1.54v42.26c-1.19 0.69-3.41 1.54-6.67 1.54H55.01c1.07-15.94 4.62-31.23 10.33-45.57z m147.19 413.72c-47.05 0-85.34-38.28-85.34-85.33s38.28-85.34 85.34-85.34 85.34 38.29 85.34 85.34c0 47.06-38.28 85.33-85.34 85.33z m0-225.13c-64.65 0-119.04 44.19-134.95 103.91H64.46c-5.42 0-10-3.78-10-8.24V549.6h171.26c34.28 0 61.14-23.44 61.14-53.34v-47.58c0-29.91-26.86-53.34-61.14-53.34H101.44c30.68-30.25 73.75-49.2 121.49-49.2h164.53c2.41 0 3.94 1.45 3.94 2.46v393.46h-43.91c-15.91-59.72-70.3-103.91-134.96-103.91z m472.74 103.9h-61.49V637.21a2.3 2.3 0 0 1 2.3-2.3h56.89a2.3 2.3 0 0 1 2.3 2.3v104.84z m209.8 121.23c-47.06 0-85.34-38.28-85.34-85.33s38.28-85.34 85.34-85.34c47.05 0 85.34 38.29 85.34 85.34-0.01 47.06-38.29 85.33-85.34 85.33z m135.62-118.62c-15-61.03-70.03-106.51-135.62-106.51-64.66 0-119.05 44.19-134.96 103.91h-20.38V637.21c0-31.31-25.46-56.77-56.76-56.77h-56.89c-31.3 0-56.77 25.46-56.77 56.77v104.85H539.6V276.93h555.93v32.23H743.77c-31.26 0-56.68 25.42-56.68 56.68V479.8c0 31.24 25.42 56.66 56.68 56.66h351.77V744.2l-64.85 0.46z m64.85-381.03V482H743.77c-1.22 0-2.22-0.99-2.22-2.2V365.84c0-1.22 0.99-2.22 2.22-2.22h351.77z"  /></svg>