<?xml version="1.0" standalone="no"?><!DOCTYPE svg PUBLIC "-//W3C//DTD SVG 1.1//EN" "http://www.w3.org/Graphics/SVG/1.1/DTD/svg11.dtd"><svg class="icon" width="200px" height="178.09px" viewBox="0 0 1150 1024" version="1.1" xmlns="http://www.w3.org/2000/svg"><path fill="#333333" d="M1066.87963 801.08c-57.01 59.33-112.86 88.39-165.93 86.5-38.94-1.4-63.81-18.88-92.62-39.12-32.12-22.57-68.52-48.15-125.93-49.43-57.44-0.83-93.54 25.1-125 48.38-30.28 22.41-54.27 40.02-96.26 34.1-34.94-4.97-58.2-19.16-85.12-35.59-27.55-16.82-58.78-35.89-104-43.36-80.08-13.32-168 16.18-261.3 87.43-11.96 9.14-14.25 26.24-5.11 38.2 9.13 11.96 26.21 14.23 38.2 5.13 80.87-61.79 154.68-87.66 219.31-77 34.76 5.77 58.93 20.51 84.5 36.12 28.01 17.1 59.77 36.48 105.83 43.04 64.2 9.05 102.52-19.23 136.35-44.25 27.98-20.69 52.05-39.42 91.39-37.7 40.84 0.89 66.32 18.79 95.81 39.53 31.36 22.03 66.89 47 121.98 48.98 2.33 0.09 4.66 0.12 6.99 0.12 66.96 0 134.29-34.74 200.21-103.34 10.43-10.84 10.09-28.1-0.76-38.53-10.85-10.4-28.1-10.07-38.54 0.79zM1150.00963 221.04v-50.22c0-48.93-39.81-88.74-88.74-88.74-48.93 0-88.74 39.81-88.74 88.74v143.62c-0.68 0.5-1.5 0.68-2.15 1.26-7.36 6.58-15.34 12.88-23.61 19.05H682.70963c-63.1 0-114.45 51.34-114.45 114.45v1.07c-13.96 0.63-27.99 1.06-42.11 1.06-175.83 0-338.37-47.67-434.81-127.54-11.61-9.62-28.78-7.97-38.36 3.6-1.57 1.9-2.73 3.98-3.71 6.12-1.93 2.06-3.66 4.37-4.92 7.08-13.69 29.52-20.63 60.32-20.63 91.53 0 58.83 42.88 131.07 87.34 180.36-32.65 14.85-66.13 35.24-100.35 61.38-11.96 9.14-14.25 26.24-5.11 38.2 9.13 11.94 26.21 14.23 38.2 5.13 80.87-61.79 154.68-87.66 219.31-77 34.76 5.77 58.93 20.51 84.5 36.12 28.01 17.1 59.77 36.48 105.83 43.04 64.2 9.03 102.52-19.23 136.35-44.25 27.98-20.69 52.05-39.26 91.39-37.7 40.84 0.89 66.32 18.79 95.81 39.53 31.36 22.03 66.89 47 121.98 48.98 2.33 0.09 4.66 0.12 6.99 0.12 66.96 0 134.29-34.74 200.21-103.34 10.43-10.84 10.09-28.1-0.76-38.53-10.84-10.41-28.09-10.08-38.53 0.78-57.01 59.33-112.86 88.33-165.93 86.5-6.73-0.24-12.92-1.12-18.9-2.25 78.84-57.48 151.1-150.91 151.1-237.07 0-11.44-1.41-27.03-3.83-42.86h51.39c15.05 0 27.25-12.21 27.25-27.25s-12.2-27.25-27.25-27.25h-53.67v-27.81h56.54c12.54 0 22.71-10.17 22.71-22.71 0-12.54-10.17-22.71-22.71-22.71h-56.54V223.3l122.97-2.26z m-88.74-84.46c17.78 0 32.43 13.61 34.08 30.96l-68.26 1.24c1.06-17.94 15.99-32.2 34.18-32.2zM682.70963 389.24h167.81c-65.96 28.52-144.1 48.3-227.46 57 1.58-31.65 27.61-57 59.65-57z m143.79 251.75c-0.97 0.59-1.79 1.33-2.65 2.02-5.12-3.44-10.25-6.99-15.52-10.69-32.12-22.57-68.52-48.15-125.93-49.43-57.44-0.71-93.54 25.1-125 48.38-30.28 22.39-54.27 40.06-96.26 34.1-34.94-4.97-58.2-19.16-85.12-35.59-27.55-16.82-58.78-35.89-104-43.36-33.79-5.62-69.06-3.15-105.46 6.4-0.83-1.12-1.28-2.41-2.3-3.42-41.7-41.16-86.03-110.26-86.03-157.29 0-15.13 2.45-30.16 6.85-44.97 107.35 74.71 268.86 118.69 441.08 118.69 171.93 0 331.15-42.94 438.38-116.58h9.54c2.7 14.94 4.56 31.19 4.56 42.86 0 64.86-66.83 156.61-152.14 208.88z"  /></svg>