<?xml version="1.0" standalone="no"?><!DOCTYPE svg PUBLIC "-//W3C//DTD SVG 1.1//EN" "http://www.w3.org/Graphics/SVG/1.1/DTD/svg11.dtd"><svg class="icon" width="200px" height="186.18px" viewBox="0 0 1100 1024" version="1.1" xmlns="http://www.w3.org/2000/svg"><path fill="#333333" d="M1007.32767 875.7c-53.74 55.88-106.33 83.11-156.37 81.51-36.69-1.32-60.13-17.79-87.26-36.86-30.27-21.26-64.58-45.37-118.67-46.57-1.29-0.02-2.54-0.03-3.79-0.03-52.31 0-85.04 24.21-113.99 45.62-28.53 21.11-51.12 37.73-90.69 32.13-32.91-4.68-54.83-18.05-80.19-33.53-25.98-15.86-55.4-33.82-98.01-40.85-75.42-12.6-158.3 15.23-246.22 82.38-11.27 8.61-13.44 24.72-4.83 35.99 8.63 11.27 24.74 13.41 35.99 4.83 76.23-58.21 145.68-82.61 206.68-72.55 32.75 5.42 55.52 19.32 79.62 34.03 26.4 16.1 56.32 34.37 99.71 40.55 60.38 8.53 96.59-18.12 128.45-41.69 26.38-19.49 49-36.96 86.12-35.52 38.48 0.84 62.49 17.7 90.29 37.24 29.54 20.76 63.02 44.28 114.94 46.15 2.19 0.08 4.38 0.12 6.59 0.12 63.07 0 126.51-32.73 188.63-97.37 9.83-10.21 9.51-26.48-0.72-36.29-10.2-9.83-26.47-9.52-36.28 0.71z"  /><path fill="#333333" d="M1099.98767 586.36l-4.5-151.07c1.59-8.84-0.3-18.05-5.47-25.64-6.47-9.51-17.18-15.2-29.42-15.2h-0.03l-153.21 4.38c-8.32 0.13-14.38-0.22-126.79 87.23l-41.37 32.11H500.43767V481.6l169.09 19.67c2.61 0.3 5.4 0.47 8.31 0.47 12.49 0 27.01-3.09 37.14-11.95 7.22-6.3 11.3-14.74 11.48-23.82l2.36-130.37c0.27-15.76-12-33.13-40.02-36.39L500.43767 277.3v-20.36l169.09 19.67c2.61 0.3 5.4 0.47 8.31 0.47 12.49 0 27.01-3.09 37.14-11.95 7.22-6.3 11.3-14.74 11.48-23.82l2.36-130.37c0.27-15.73-11.99-33.1-40.02-36.39L500.43767 52.62V41.28c0-14.18-11.5-25.68-25.68-25.68s-25.68 11.5-25.68 25.68v5.37L322.39767 31.91c-13.79-1.6-32.98 0.57-45.5 11.52-7.22 6.32-11.28 14.78-11.43 23.79l-2.36 130.29c-0.32 15.81 11.94 33.22 40.02 36.48l145.97 16.98v20.36L322.40767 256.59c-13.72-1.55-32.98 0.57-45.49 11.5-7.24 6.32-11.3 14.79-11.45 23.8l-2.36 130.29c-0.32 15.81 11.94 33.22 40.02 36.48l145.97 16.98v42.55H34.71767c-10.98 0-21.43 5.28-27.95 14.11-6.52 8.84-8.48 20.39-5.22 30.89l90.52 211.95c0.35 0.81 0.83 1.51 1.25 2.27-25.99 13.17-52.47 29.63-79.49 50.27-11.28 8.61-13.44 24.72-4.83 35.99 8.63 11.27 24.74 13.41 35.99 4.83 76.21-58.21 145.7-82.56 206.68-72.55 32.75 5.42 55.52 19.31 79.6 34.02 26.4 16.11 56.3 34.37 99.7 40.55 60.55 8.49 96.6-18.12 128.5-41.69 26.36-19.49 49.06-36.68 86.11-35.52 38.48 0.85 62.47 17.72 90.27 37.24 29.54 20.76 63.04 44.3 114.96 46.17 2.19 0.08 4.36 0.12 6.55 0.12 63.1 0 126.56-32.73 188.66-97.37 9.81-10.23 9.49-26.48-0.74-36.31-10.21-9.81-26.45-9.49-36.31 0.74-4.9 5.1-9.78 9.7-14.67 14.33l97.8-144.7c5.43-8.05 8.16-17.42 7.89-27.17zM316.53767 82.93l360.66 41.96-1.82 100.7-360.66-41.96 1.82-100.7z m0 224.67l360.66 41.96-1.82 100.7-360.66-41.96 1.82-100.7z m536.12 517.79c-36.71-1.32-60.15-17.79-87.28-36.86-30.26-21.28-64.56-45.39-118.65-46.59-54.45-0.64-88.15 23.65-117.78 45.59-28.53 21.11-51.1 37.8-90.72 32.13-32.91-4.68-54.81-18.05-80.17-33.53-25.96-15.85-55.4-33.8-97.99-40.84-38.22-6.37-78.35-2.28-120.06 11.93-0.25-0.76-0.4-1.53-0.72-2.28l-27.54-64.38h866.33l-88.43 130.83c-12.46 3-24.8 4.39-36.99 4zM1012.77767 639.2H89.76767l-29.81-69.67H742.50767c9.19 0 18.25-3.09 25.56-8.76l44-34.15c9.09-7.02 82.51-62.6 102.67-76.63l129.7-3.71 4.18 139.9-35.84 53.02z"  /></svg>