<?xml version="1.0" standalone="no"?><!DOCTYPE svg PUBLIC "-//W3C//DTD SVG 1.1//EN" "http://www.w3.org/Graphics/SVG/1.1/DTD/svg11.dtd"><svg class="icon" width="200px" height="178.24px" viewBox="0 0 1149 1024" version="1.1" xmlns="http://www.w3.org/2000/svg"><path fill="#333333" d="M1142.4 406.9L925.32 192.73c-14.49-14.28-33.76-22.16-54.26-22.16H418.61c-20.82 0-41.02 8.51-55.42 23.34l-207.1 213.4c-1.64 1.69-2.56 3.75-3.67 5.71C64.41 439.19 0 520.72 0 617.11v48.38c0 71.44 58.13 129.56 129.57 129.56h68.08c23.57 35.31 63.75 58.63 109.29 58.63s85.72-23.32 109.29-58.63h355.31c23.57 35.31 63.75 58.63 109.29 58.63 45.54 0 85.72-23.32 109.29-58.63h30.31c71.44 0 129.56-58.12 129.56-129.56V432.93c0-1.06-0.2-2.07-0.31-3.1 1.16-8.17-0.97-16.7-7.28-22.93zM887.43 231.13l175.35 173h-223.3c14.66-20.72 23.26-46.06 23.26-73.78V224.51h8.33c6.13 0 12.1 2.41 16.36 6.62z m-268.4 173V224.51H808.8v105.84c0 41.32-33.13 73.68-75.44 73.78H619.03zM401.89 231.48c4.3-4.43 10.39-6.97 16.72-6.97h146.48v179.62H234.34l167.55-172.65z m-94.95 568.27c-42.68 0-77.41-34.73-77.41-77.41s34.73-77.41 77.41-77.41 77.41 34.73 77.41 77.41-34.72 77.41-77.41 77.41z m573.9 0c-42.68 0-77.41-34.73-77.41-77.41s34.73-77.41 77.41-77.41 77.41 34.73 77.41 77.41-34.73 77.41-77.41 77.41z m215.22-134.26c0 41.7-33.92 75.62-75.62 75.62h-9.75c0.89-6.15 1.5-12.39 1.5-18.79 0-72.43-58.92-131.35-131.35-131.35S749.48 649.9 749.48 722.33c0 6.39 0.61 12.63 1.5 18.79H436.8c0.89-6.15 1.5-12.39 1.5-18.79 0-72.43-58.93-131.35-131.35-131.35S175.59 649.9 175.59 722.33c0 6.39 0.61 12.63 1.5 18.79H129.57c-41.7 0-75.63-33.92-75.63-75.62v-48.38c0-87.7 71.35-159.04 159.04-159.04H733c0.06 0 0.12 0.02 0.17 0.02 0.12 0 0.24-0.02 0.36-0.02h362.52v207.41z"  /><path fill="#333333" d="M676.99 491.08c-12.41 0-22.47 10.06-22.47 22.47 0 12.41 10.06 22.47 22.47 22.47h119.08c12.41 0 22.47-10.06 22.47-22.47 0-12.41-10.06-22.47-22.47-22.47H676.99z"  /></svg>