<?xml version="1.0" standalone="no"?><!DOCTYPE svg PUBLIC "-//W3C//DTD SVG 1.1//EN" "http://www.w3.org/Graphics/SVG/1.1/DTD/svg11.dtd"><svg class="icon" width="200px" height="186.35px" viewBox="0 0 1099 1024" version="1.1" xmlns="http://www.w3.org/2000/svg"><path fill="#333333" d="M1091.85362 522.93c-10.55-10.13-27.34-9.8-37.49 0.74-20.47 21.31-40.81 38.55-60.91 51.81 52.45-56.58 93.57-128.27 98.32-198.7 2.41-35.88-1.67-140.36-11.7-167.61-2.59-7.03-7.84-12.24-14.18-15.01-9.96-7.34-23.77-7.38-33.31 1.24-102.81 93.41-289.55 151.45-487.35 151.45-192.77 0-371.08-53.23-476.97-142.37-5.73-4.83-12.9-6.76-19.8-6.04-10.12-0.13-19.87 5.53-24.41 15.32-13.51 29.15-29.5 118.47-22.24 165.3 8.27 53.36 50.39 134.99 94.29 185.71-22.69 12.46-45.75 27.52-69.18 45.41-11.63 8.88-13.86 25.52-4.97 37.16 8.87 11.62 25.51 13.86 37.16 4.97 78.67-60.07 150.41-85.26 213.36-74.89 33.82 5.59 57.32 19.93 82.2 35.13 27.25 16.63 58.14 35.48 102.95 41.86 62.38 8.88 99.72-18.7 132.63-43.03 27.22-20.14 50.44-37.48 88.92-36.68 39.73 0.88 64.51 18.29 93.21 38.46 30.5 21.43 65.07 45.73 118.66 47.66 2.27 0.08 4.52 0.12 6.78 0.12 65.16 0 130.66-33.79 194.78-100.52 10.14-10.56 9.8-27.34-0.75-37.49z m-52.98-149.7c-3.88 57.56-39.58 118.21-84.5 166.49V485.3c0-22.18-18.04-40.22-40.23-40.22H717.99362v-59.3c125.42-20.74 236.44-63.84 317.31-124.32 3.21 34.3 5.4 84.61 3.57 111.77z m-373.9 20.02v51.83H399.32362v-55.24c47.24 6.56 96.15 10.03 145.91 10.03 40.72 0.01 80.77-2.27 119.74-6.62zM54.20362 370.94c-3.89-25.08 1.95-71.29 8.95-103.62 74.24 53.05 172.73 92.14 283.16 113.62v64.14H191.29362c-22.19 0-40.23 18.04-40.23 40.22v54.57c-1.43 0.52-2.88 1.15-4.31 1.69-40.32-40.3-85.14-122.79-92.55-170.62zM680.33362 521.7c-56.66-1.54-91.01 24.4-121.61 47.06-29.46 21.78-52.79 38.99-93.64 33.18-33.98-4.84-56.61-18.65-82.8-34.64-26.8-16.36-57.19-34.91-101.18-42.18-24.9-4.11-50.65-3.51-77.02 0.82V498.1h697.27v89.76c-8.71 6.59-17.45 12.61-26.09 17.94-28.23-5.17-49.05-19.59-72.43-36.01-31.23-21.97-66.65-46.86-122.5-48.09zM1045.02362 711.12c-55.03 48.86-109.12 72.93-161.16 71.24-38.36-1.17-62.51-15.65-90.47-32.42-30.7-18.41-65.5-39.27-119.85-40.3-54.93-1.27-88.75 20.47-118.8 39.44-29.53 18.63-52.92 33.35-94.6 28.27-34.21-4.15-56.75-15.9-82.84-29.49-26.37-13.74-56.27-29.31-99.27-35.38-76.21-10.7-160.14 13.34-249.5 71.57-12.27 8-15.73 24.42-7.74 36.68 8 12.27 24.43 15.74 36.68 7.74 78.29-51.04 149.95-72.39 213.15-63.49 33.99 4.8 57.39 16.99 82.19 29.9 28.11 14.64 57.17 29.78 100.94 35.1 60.47 7.33 97.05-15.72 129.29-36.08 27.21-17.18 50.53-32.15 89.5-31.27 40.21 0.77 64.95 15.59 93.59 32.77 29.97 17.98 63.94 38.35 116.1 39.95 2.2 0.06 4.39 0.09 6.59 0.09 63.73 0 128.09-28.47 191.41-84.69 10.94-9.72 11.94-26.47 2.22-37.43-9.72-10.91-26.48-11.91-37.43-2.2z"  /></svg>