<?xml version="1.0" standalone="no"?><!DOCTYPE svg PUBLIC "-//W3C//DTD SVG 1.1//EN" "http://www.w3.org/Graphics/SVG/1.1/DTD/svg11.dtd"><svg class="icon" width="200px" height="200.00px" viewBox="0 0 1024 1024" version="1.1" xmlns="http://www.w3.org/2000/svg"><path fill="#333333" d="M986.39 113.25c14.15 0 25.62-11.47 25.62-25.62s-11.47-25.62-25.62-25.62h-327.3c-5.74-22.63-26.12-39.49-50.51-39.49H426.89c-24.4 0-44.77 16.86-50.51 39.49H37.63c-14.15 0-25.62 11.47-25.62 25.62s11.47 25.62 25.62 25.62h336.98V140H37.63c-14.15 0-25.62 11.47-25.62 25.62s11.47 25.62 25.62 25.62h341.81c8.26 18.02 26.36 30.62 47.45 30.62h27.61v71.2h-73.4v0.64c-153.36 6.72-276.16 133.22-276.16 288.22v37.53c0 151.66 75.16 292.92 201.03 377.88l6.5 4.39h408.37l6.5-4.39c125.88-84.96 201.03-226.22 201.03-377.88v-37.53c0-159.29-129.58-288.87-288.86-288.87h-58.72v-71.2h27.79c21.18 0 39.37-12.71 47.57-30.86 0.77 0.07 1.51 0.23 2.3 0.23H986.4c14.15 0 25.62-11.47 25.62-25.62s-11.48-25.6-25.63-25.6H660.85v-26.76h325.54zM328.27 950.5c-107.91-75.84-172.1-199-172.1-331.03v-37.53c0-131.03 106.6-237.63 237.62-237.63h96.22v49.75H391.2c-108.01 0-195.9 87.88-195.9 195.9v66.7h25.01v0.01H490V950.5H328.27z m460.64-345.07H541.25V445.3h103c79.76 0 144.65 64.9 144.65 144.66v15.47z m-298.89 0H246.55v-15.47c0-79.76 64.89-144.66 144.66-144.66h98.81v160.13z m149.49-261.12c131.02 0 237.62 106.6 237.62 237.63v37.53c0 132.03-64.19 255.19-172.1 331.03H541.25V656.67h298.89v-66.72c0-108.01-87.87-195.9-195.89-195.9h-103V344.3H639.51z m-109.96-51.24h-23.81v-71.2h23.81v71.2z m80.06-123.47c0 0.57-0.47 1.03-1.04 1.03l-182.73-1.03 1.04-95.84 182.73 1.03v94.81z"  /></svg>