<?xml version="1.0" standalone="no"?><!DOCTYPE svg PUBLIC "-//W3C//DTD SVG 1.1//EN" "http://www.w3.org/Graphics/SVG/1.1/DTD/svg11.dtd"><svg class="icon" width="200px" height="151.82px" viewBox="0 0 1349 1024" version="1.1" xmlns="http://www.w3.org/2000/svg"><path fill="#333333" d="M1291.09 146.17H560.71c-32.47 0-58.9 29.44-58.9 65.63v394.45h-35.14v-362.4h-58.75v0.03H253.65l-7.27 4.69c-6.77 4.36-42.06 31.8-107.86 159.68-78.5 12.99-138.52 79.42-138.52 159.39v185.72c0 33.81 28 61.3 62.42 61.3h47.6c20.65 37.76 60.75 63.44 106.75 63.44 50.64 0 94.11-31.15 112.36-75.27h205.2v-0.04h109.54c18.24 44.15 61.72 75.31 112.37 75.31s94.13-31.16 112.37-75.31h77.23c18.24 44.15 61.73 75.31 112.39 75.31 50.66 0 94.14-31.17 112.38-75.33h120.46c32.49 0 58.92-29.43 58.92-65.62V211.8c0.02-36.19-26.41-65.63-58.9-65.63z m-728.64 58.75h726.91c0.75 1.02 1.89 3.32 1.89 6.88v68.03h-730.7V211.8c0.01-3.56 1.16-5.85 1.9-6.88z m-1.89 213.98v-80.31h730.7v80.31h-730.7z m730.7 58.75v80.31h-730.7v-80.31h730.7zM501.81 665v79.07h-35.14V665h35.14zM273.49 302.63h134.43v103.15H206.27c35.75-65.83 58.1-93.37 67.22-103.15z m-214.73 450.72V567.63c0-56.86 48.33-103.11 107.73-103.11h241.43v279.55h-70.2c-6.25-61.22-58.11-109.14-120.94-109.14-66.85 0-121.24 54.21-121.56 120.98h-32.79c-2.1 0-3.67-1.35-3.67-2.56z m158.02 65.98c-33.62 0-60.92-26.59-62.54-59.81v-3.62h-0.25c0.33-34.36 28.33-62.23 62.78-62.23 34.63 0 62.82 28.18 62.82 62.82 0.02 34.66-28.17 62.84-62.81 62.84z m539.48 0c-34.63 0-62.82-28.19-62.82-62.83s28.19-62.82 62.82-62.82 62.82 28.18 62.82 62.82c0 34.65-28.19 62.83-62.82 62.83z m301.99 0c-34.65 0-62.84-28.19-62.84-62.83s28.19-62.82 62.84-62.82c34.63 0 62.82 28.18 62.82 62.82 0 34.65-28.19 62.83-62.82 62.83z m231.12-75.32h-110.18c-6.27-61.19-58.12-109.08-120.93-109.08-62.83 0-114.68 47.89-120.95 109.08h-60.11c-6.27-61.19-58.12-109.08-120.93-109.08S641.61 682.82 635.34 744.01h-74.77v-127.3h730.7v120.41c-0.01 3.58-1.16 5.87-1.9 6.89z"  /></svg>