<?xml version="1.0" standalone="no"?><!DOCTYPE svg PUBLIC "-//W3C//DTD SVG 1.1//EN" "http://www.w3.org/Graphics/SVG/1.1/DTD/svg11.dtd"><svg class="icon" width="200px" height="178.09px" viewBox="0 0 1150 1024" version="1.1" xmlns="http://www.w3.org/2000/svg"><path fill="#333333" d="M1020.55001 149.96H276.24001c-33.04 0-63.35 16.64-81.07 44.51L11.23001 483.51a71.729 71.729 0 0 0-11.23 38.57v121.11c0 71.37 58.07 129.44 129.44 129.44h56.19c17.64 58.73 72.15 101.66 136.56 101.66s118.91-42.93 136.56-101.66H716.30001c17.64 58.73 72.15 101.66 136.56 101.66s118.91-42.93 136.56-101.66h31.15c71.37 0 129.44-58.06 129.44-129.44V279.41c-0.01-71.38-58.08-129.45-129.46-129.45z m70.82 129.45V415.6H942.60001v-207h77.96c39.04-0.01 70.81 31.76 70.81 70.81zM417.25001 415.59v-207h204.04v207H417.25001z m262.67-207h204.04v207H679.92001v-207z m-435.28 17.35c6.91-10.87 18.72-17.35 31.6-17.35h82.37v207H123.95001l120.69-189.65z m77.55 589.72c-46.3 0-83.98-37.67-83.98-83.97s37.68-83.98 83.98-83.98 83.98 37.68 83.98 83.98c0 46.3-37.68 83.97-83.98 83.97z m530.66 0c-46.3 0-83.98-37.67-83.98-83.97s37.68-83.98 83.98-83.98c46.3 0 83.98 37.68 83.98 83.98 0 46.3-37.68 83.97-83.98 83.97zM1020.55001 714h-26.31c-8.76-70.3-68.76-124.92-141.4-124.92S720.21001 643.7 711.45001 714H463.59001c-8.76-70.3-68.76-124.92-141.4-124.92S189.55001 643.7 180.79001 714H129.44001c-39.04 0-70.81-31.76-70.81-70.8V522.08c0-2.52 0.72-4.97 2.07-7.1l25.94-40.76h1004.73v168.97c0 39.05-31.77 70.81-70.82 70.81z"  /></svg>