<?xml version="1.0" standalone="no"?><!DOCTYPE svg PUBLIC "-//W3C//DTD SVG 1.1//EN" "http://www.w3.org/Graphics/SVG/1.1/DTD/svg11.dtd"><svg class="icon" width="200px" height="163.84px" viewBox="0 0 1250 1024" version="1.1" xmlns="http://www.w3.org/2000/svg"><path fill="#333333" d="M1246.43 336.27c-7.45-20.02-25.04-32.89-42.46-32.2l-37.37 0.62-0.89-93.37c-0.36-15.26-9.2-28.74-23.03-35.2-13.83-6.44-29.85-4.5-40.47 4.03l-180.31 128.6-114.76 1.9c-7.91-2.38-16.12-4.04-24.79-4.04h-79.68v-33.59c0-31.63-25.72-57.36-57.36-57.36h-82.34v-22.07H832.51c16.12 0 29.18-13.07 29.18-29.18s-13.07-29.18-29.18-29.18H235.07c-16.12 0-29.18 13.07-29.18 29.18s13.07 29.18 29.18 29.18H504.61v22.07h-69.37c-31.63 0-57.38 25.72-57.38 57.36v33.59H319.31c-176.06 0-319.31 143.23-319.31 319.29 0 75.77 61.65 137.42 137.42 137.42h168.71v67.37H171.26c-35.34 0-66.13-22.65-76.66-56.35-4.79-15.39-21.15-24.03-36.53-19.17-15.39 4.79-23.98 21.15-19.17 36.53 18.14 58.23 71.34 97.35 132.36 97.35h689.44c16.11 0 29.18-13.07 29.18-29.18s-13.07-29.18-29.18-29.18H619.71V755.1c113.89-25.93 204.76-112.55 236.8-224.02l95.02-35.22 155.55 92.57c6.69 4.45 14.32 6.71 22.02 6.71 6.31 0 12.65-1.52 18.52-4.6 13.55-7.09 21.73-20.97 21.37-35.85l-1.33-138.95 63.46-23.53 3.78-3.12c14.52-11.91 19.04-32.64 11.53-52.82z m-138.74-88.38l0.56 57.76-83.44 1.38 82.88-59.14z m-672.44 26.12L644.31 273v33.59H435.4l-0.15-32.58z m208.62 90.95c-4.5 64.6-58.37 115.83-124.09 115.83l-83.54 0.99-0.56-116.82h208.19zM243.38 376.3v81.14c0 56.67-46.09 102.76-102.74 102.76h-73.56c22.86-87.68 90.03-157.6 176.3-183.9z m317.97 454.37H364.5V763.3h184.09c4.3 0 8.49-0.48 12.75-0.65v68.02z m-12.76-125.73H137.43c-43.58 0-79.05-35.47-79.05-79.05 0-2.47 0.3-4.86 0.37-7.31h81.89c88.84 0 161.11-72.29 161.11-161.13v-91.59c5.83-0.39 11.64-0.89 17.57-0.89h58.55v116.82c0 31.63 25.74 57.38 57.38 57.38h84.52c97.91 0 177.87-77.4 182.46-174.2h80.12c15.69 0 28.46 12.77 28.46 28.44v49.32c0 15.22-1.58 30.04-4.08 44.55l-1.22 0.45 0.82 2.2c-22.33 122.1-129.29 215.01-257.74 215.01z m316.37-336.88l243.84-4.04 0.11 11.23-240.84 89.29c0.49-7.24 1.11-14.45 1.11-21.82V393.4c0-8.87-1.73-17.27-4.22-25.34z m245.37 154.36l-88.47-52.66 87.65-32.49 0.82 85.15z"  /></svg>