<?xml version="1.0" standalone="no"?><!DOCTYPE svg PUBLIC "-//W3C//DTD SVG 1.1//EN" "http://www.w3.org/Graphics/SVG/1.1/DTD/svg11.dtd"><svg class="icon" width="200px" height="170.67px" viewBox="0 0 1200 1024" version="1.1" xmlns="http://www.w3.org/2000/svg"><path fill="#333333" d="M421.09 595.62h583.56c22.4 0 40.62-18.21 40.62-40.62v-89.44c0-22.41-18.22-40.62-40.62-40.62H421.09c-22.4 0-40.62 18.21-40.62 40.62V555c0 22.4 18.23 40.62 40.62 40.62z m264.21-52.79H559.26v-65.11H685.3v65.11z m52.79-65.11h126.04v65.11H738.09v-65.11z m254.4 65.11h-75.58v-65.11h75.58v65.11z m-559.23-65.11h73.22v65.11h-73.22v-65.11z"  /><path fill="#333333" d="M1173.61 168H1031.84v-27.85c0-14.58-11.82-26.39-26.39-26.39-14.58 0-26.39 11.82-26.39 26.39V168H431.89v-27.85c0-14.58-11.82-26.39-26.39-26.39s-26.39 11.82-26.39 26.39V168H41.37c-14.58 0-26.39 11.82-26.39 26.39s11.82 26.39 26.39 26.39H379.1v99.59h-97.3c-155.39 0-281.8 126.42-281.8 281.78V750.8c0 39.14 31.85 70.98 70.99 70.98h99.75c6.15 49.22 48.16 87.44 99.02 87.44s92.86-38.23 99.01-87.44h268.21c5.58 49.83 47.92 88.7 99.2 88.7 50.85 0 92.86-38.22 99.02-87.43 6.15 49.21 48.16 87.43 99.01 87.43 51.29 0 93.63-38.87 99.21-88.7h55.13c39.88 0 72.33-32.46 72.33-72.34V392.7c0-39.88-32.45-72.32-72.33-72.32h-56.71v-99.59h141.77c14.58 0 26.39-11.82 26.39-26.39s-11.82-26.4-26.39-26.4z m-900.6 313.26c6.95 0 10.77 3.95 10.77 5.26v55.62c0 1.31-3.82 5.26-10.36 5.26l-212.89-3.32c5.91-22.48 15.1-43.58 27.13-62.81h185.35z m-3.25 375.19c-25.96 0-47.09-21.12-47.09-47.08 0-25.96 21.13-47.08 47.09-47.08s47.08 21.12 47.08 47.08c0.01 25.97-21.11 47.08-47.08 47.08z m466.43 1.26c-25.96 0-47.08-21.12-47.08-47.08s21.12-47.1 47.08-47.1c25.96 0 47.09 21.14 47.09 47.1s-21.13 47.08-47.09 47.08z m198.02 0c-25.96 0-47.08-21.12-47.08-47.08s21.12-47.1 47.08-47.1 47.09 21.14 47.09 47.1-21.12 47.08-47.09 47.08zM1108.1 392.7v240.49H405.03c-14.58 0-26.39 11.82-26.39 26.39 0 14.58 11.82 26.39 26.39 26.39h703.07v63.48c0 10.77-8.77 19.55-19.55 19.55h-63.66c-15.82-34.33-50.47-58.27-90.68-58.27s-74.85 23.94-90.67 58.27h-16.68c-15.82-34.33-50.47-58.27-90.68-58.27-40.2 0-74.85 23.94-90.67 58.27H361.04c-15.54-35-50.57-59.5-91.27-59.5S194.03 734 178.49 769h-107.5c-10.03 0-18.21-8.16-18.21-18.2V602.16c0-1.82 0.23-3.59 0.27-5.4l219.95 3.43c35.04 0 63.56-26.03 63.56-58.04v-55.62c0-32.01-28.52-58.04-63.56-58.04H132.96c40.07-34.39 92.02-55.31 148.84-55.31h806.75c10.78-0.02 19.55 8.75 19.55 19.52z m-129.05-72.32H431.89v-99.59h547.16v99.59z"  /></svg>