<?xml version="1.0" standalone="no"?><!DOCTYPE svg PUBLIC "-//W3C//DTD SVG 1.1//EN" "http://www.w3.org/Graphics/SVG/1.1/DTD/svg11.dtd"><svg class="icon" width="200px" height="200.00px" viewBox="0 0 1024 1024" version="1.1" xmlns="http://www.w3.org/2000/svg"><path fill="#333333" d="M842.67 482.99c0.08-1.45 0.08-2.92-0.1-4.42l-43.34-349.74c1.45-3.08 2.32-6.47 2.32-10.1 0-13.15-10.66-23.81-23.81-23.81H572.35c-13.15 0-23.81 10.66-23.81 23.81s10.66 23.81 23.81 23.81h178.99l17.29 139.52-534.55 110.79V236.68h102.68c13.15 0 23.81-10.66 23.81-23.81s-10.66-23.81-23.81-23.81H83.79c-13.15 0-23.81 10.66-23.81 23.81s10.66 23.81 23.81 23.81h102.67v297.87C88.4 546.36 12.1 629.95 12.1 731.15c0 109.27 88.9 198.17 198.17 198.17s198.18-88.9 198.18-198.17c0-101.2-76.3-184.79-174.37-196.61v-93.06l540.42-112 18.46 149c-115.71 2.71-209.05 97.49-209.05 213.84 0 118.05 96.04 214.09 214.09 214.09s214.09-96.04 214.09-214.09c0.01-102.72-72.75-188.72-169.42-209.33zM360.83 731.15c0 83.02-67.54 150.55-150.56 150.55S59.72 814.16 59.72 731.15c0-83.02 67.54-150.56 150.55-150.56 83.02 0 150.56 67.54 150.56 150.56zM798.01 858.8c-91.8 0-166.47-74.68-166.47-166.47s74.68-166.47 166.47-166.47 166.47 74.68 166.47 166.47S889.8 858.8 798.01 858.8z"  /></svg>