<?xml version="1.0" standalone="no"?><!DOCTYPE svg PUBLIC "-//W3C//DTD SVG 1.1//EN" "http://www.w3.org/Graphics/SVG/1.1/DTD/svg11.dtd"><svg class="icon" width="200px" height="170.81px" viewBox="0 0 1199 1024" version="1.1" xmlns="http://www.w3.org/2000/svg"><path fill="#333333" d="M1147.825 778.35c-61.1 63.57-120.03 94.95-177.87 92.72-41.74-1.5-68.4-20.23-99.26-41.93-34.44-24.19-73.46-51.61-134.99-52.97-62.45-1.65-100.27 26.9-133.98 51.85-32.46 24.01-58.15 42.95-103.16 36.56-37.46-5.33-62.37-20.55-91.24-38.16-29.53-18.03-63.02-38.46-111.49-46.47-85.76-14.16-180.06 17.35-280.04 93.73-12.84 9.79-15.29 28.11-5.5 40.94 9.83 12.81 28.14 15.27 40.94 5.48C137.905 853.89 216.915 826.12 286.305 837.58c37.27 6.16 63.17 21.96 90.59 38.71 30.03 18.32 64.04 39.1 113.43 46.12 68.7 9.81 109.87-20.6 146.12-47.42 30.01-22.18 55.96-41.04 97.97-40.42 43.77 0.97 71.08 20.16 102.7 42.38 33.6 23.61 71.69 50.37 130.75 52.5 2.49 0.1 4.98 0.13 7.49 0.13 71.75 0 143.91-37.23 214.57-110.75 11.18-11.63 10.82-30.12-0.82-41.3-11.57-11.15-30.11-10.79-41.28 0.82z"  /><path fill="#333333" d="M153.675 646.55c-43.91 16.02-89.29 41.49-135.99 77.16-12.82 9.78-15.29 28.11-5.5 40.94 9.81 12.82 28.14 15.28 40.94 5.48 86.71-66.21 165.76-94 235.11-82.51 37.25 6.16 63.15 21.96 90.57 38.7 30.03 18.33 64.04 39.1 113.41 46.12 68.87 9.85 109.89-20.59 146.15-47.42 29.99-22.19 55.77-41.39 97.95-40.42 43.77 0.97 71.06 20.16 102.68 42.38 33.6 23.62 71.71 50.38 130.77 52.51 2.49 0.09 4.98 0.13 7.47 0.13 71.77 0 143.93-37.23 214.59-110.76 11.18-11.63 10.82-30.12-0.82-41.3-11.62-11.16-30.1-10.8-41.28 0.82-3.51 3.66-7 6.83-10.51 10.27L1022.305 429.13a51.06 51.06 0 0 0-40.14-25.95l-44.75-3.91-111.07-191.38c-6.29-10.86-16.63-18.62-28.45-21.93-0.12-11.3-0.35-29.16-0.84-55.33-0.3-19.87-16.62-35.96-36.47-35.96h-0.17c-168.82 1-220.87 72.9-226.25 81.09-1.74 2.65-2.85 5.5-3.63 8.39H431.305c-12.49 0-24.3 4.79-33.18 13.46L254.715 336.86c-0.79 0.77-1.11 1.78-1.79 2.61L60.895 322.7c-13.48-1.23-27.53 3.3-37.96 12.34-10.38 9.03-16.75 22.1-17.48 35.84l-5.38 102.38c-0.8 14.75 4.83 29.09 15.44 39.4L153.675 646.55z m585.37-492.87c0.21 13.02 0.34 23.02 0.42 30.47h-125.3c23.89-13.18 63.28-27.4 124.88-30.47z m-389.88 172.9c3.73 1.73 7.86 2.77 12.24 2.77h166.9c16.13 0 29.21-13.08 29.21-29.21s-13.08-29.21-29.21-29.21H406.475l29.21-28.37h343.23l16.47 28.37H784.005c-16.13 0-29.21 13.08-29.21 29.21s13.08 29.21 29.21 29.21h45.08c0.07 0 0.14-0.02 0.21-0.02l36.99 63.73-537.24-46.93 20.12-19.55zM63.405 381.55l909.81 79.49 120.31 215.54c0.15 0.28 0.39 0.47 0.56 0.74-41.7 30.34-82.56 45.35-122.2 43.79-41.74-1.5-68.4-20.24-99.28-41.93-34.42-24.2-73.44-51.62-134.97-52.98-61.88-1.53-100.25 26.91-133.98 51.86-32.46 23.99-57.98 42.94-103.18 36.55-37.44-5.33-62.35-20.55-91.22-38.15-29.53-18.03-63.02-38.46-111.47-46.47-25.11-4.15-51.02-3.91-77.51-0.25L58.595 473.05l4.81-91.5z"  /><path fill="#333333" d="M690.005 270.93h-45.08c-16.13 0-29.21 13.08-29.21 29.21s13.08 29.21 29.21 29.21h45.08c16.13 0 29.21-13.08 29.21-29.21s-13.07-29.21-29.21-29.21z"  /></svg>