<?xml version="1.0" standalone="no"?><!DOCTYPE svg PUBLIC "-//W3C//DTD SVG 1.1//EN" "http://www.w3.org/Graphics/SVG/1.1/DTD/svg11.dtd"><svg class="icon" width="200px" height="200.00px" viewBox="0 0 1024 1024" version="1.1" xmlns="http://www.w3.org/2000/svg"><path fill="#333333" d="M952.62 775.8c-50.26 52.3-99.46 78.07-146.27 76.26-34.34-1.24-56.26-16.64-81.66-34.49-28.32-19.89-60.41-42.45-111.02-43.56-51.18-1.38-82.46 22.12-110.21 42.64-26.7 19.74-47.85 35.31-84.85 30.07-30.79-4.39-51.3-16.9-75.03-31.39-24.29-14.83-51.82-31.63-91.69-38.22-70.56-11.63-148.09 14.26-230.35 77.09-10.54 8.05-12.56 23.12-4.5 33.67 8.03 10.53 23.12 12.57 33.67 4.5 71.29-54.45 136.36-77.35 193.35-67.86 30.65 5.07 51.94 18.06 74.49 31.84 24.7 15.07 52.69 32.16 93.29 37.93 56.55 8.03 90.38-16.95 120.2-39 24.67-18.25 45.88-34.11 80.57-33.24 36 0.8 58.46 16.58 84.46 34.85 27.64 19.42 58.97 41.44 107.54 43.19 2.06 0.08 4.11 0.11 6.16 0.11 59.02 0 118.37-30.62 176.49-91.09 9.2-9.56 8.89-24.77-0.67-33.97-9.55-9.18-24.77-8.88-33.97 0.67z"  /><path fill="#333333" d="M1006.48 458.73a32.467 32.467 0 0 0-26.88-14.24h-61.07V260.32c0-23.79-14.74-36.24-29.3-36.24h-77.21v-60.95c0-21.54-17.52-39.06-39.07-39.06h-83.74c-21.54 0-39.06 17.52-39.06 39.06v60.95H492.64l-21.97-23.29c-6.94-7.37-16.73-11.63-26.81-11.69l-192.36-1.52h-0.27c-15.04 0-28.5 8.93-34.34 22.8l-54.56 129.5c-18.83 26.07-31.42 62.7-34.28 104.61H67.17c-10.28 0-20.07 4.95-26.17 13.23-6.1 8.29-7.91 19.1-4.86 28.92L95.4 677.11c-24.16 12.28-48.76 27.59-73.87 46.76C11 731.92 8.98 747 17.03 757.54c8.03 10.53 23.12 12.57 33.67 4.5 25.09-19.16 49.37-34.18 72.83-45.47 2.95 0.23 6-0.04 9-0.98 4.75-1.48 8.71-4.29 11.6-7.9 35.47-13.85 68.93-18.6 99.91-13.5 30.65 5.07 51.94 18.06 74.49 31.83 24.7 15.07 52.69 32.16 93.29 37.93 56.58 8.02 90.38-16.95 120.2-39 24.67-18.25 45.88-34.04 80.57-33.24 36 0.8 58.46 16.58 84.46 34.85 27.64 19.42 58.97 41.44 107.54 43.19 2.05 0.07 4.1 0.11 6.15 0.11 59.04 0 118.39-30.62 176.5-91.09 9.2-9.57 8.89-24.77-0.67-33.97-9.55-9.18-24.77-8.88-33.97 0.67-2.73 2.84-5.44 5.3-8.17 7.98l65.35-164.49c4-10.01 2.76-21.32-3.3-30.23z m-774.22-111.8h638.22v31.64H232.26c-14.98 0-29.2 3.23-42.11 8.92 11.19-25.13 27.14-40.56 42.11-40.56z m0 79.68h638.22V444.49h-679.4c10.37-10.95 24.94-17.88 41.18-17.88z m465.93-254.49h65.78v51.96h-65.78v-51.96z m-439.83 63.56l180.52 1.43 8.23 8.72c-0.07 0.76-0.23 1.49-0.23 2.27 0 13.27 10.75 24.02 24.02 24.02h399.58v26.75H232.26c-0.19 0-0.37 0.04-0.55 0.04l26.65-63.23z m615.09 466.37c-0.61 1.53-1.05 3.09-1.33 4.66-22.34 10.67-44.32 15.92-65.78 15.04-34.34-1.24-56.26-16.65-81.66-34.49-28.32-19.9-60.41-42.45-111.02-43.57-50.85-1.47-82.45 22.12-110.2 42.64-26.7 19.75-47.83 35.28-84.86 30.07-30.79-4.39-51.3-16.9-75.03-31.39-24.29-14.83-51.82-31.63-91.69-38.22-35.71-5.89-73.19-2.1-112.14 11.14L88.3 492.53h868.39l-83.24 209.52z"  /></svg>