<?xml version="1.0" standalone="no"?><!DOCTYPE svg PUBLIC "-//W3C//DTD SVG 1.1//EN" "http://www.w3.org/Graphics/SVG/1.1/DTD/svg11.dtd"><svg class="icon" width="200px" height="151.70px" viewBox="0 0 1350 1024" version="1.1" xmlns="http://www.w3.org/2000/svg"><path fill="#333333" d="M1291.1 146.16H560.71c-32.47 0-58.9 29.45-58.9 65.64v394.46h-34.19V258.13h-69.25c-43.81 0-79.46 35.78-79.46 79.77v16.81H255.27l-6.25 3.16c-6.8 3.45-42.27 25.08-108.3 125.46-79.57 9.95-140.72 65.01-140.72 131.42v145.52c0 30.5 27.42 54.39 62.42 54.39h47.61c20.65 37.76 60.75 63.44 106.73 63.44 50.65 0 94.12-31.15 112.38-75.27h205.18v-0.06h69.19c18.24 44.16 61.72 75.33 112.38 75.33 50.67 0 94.16-31.17 112.4-75.33h22.56c18.24 44.16 61.73 75.33 112.4 75.33 38.31 0 72.48-17.86 94.78-45.64 22.3 27.78 56.48 45.64 94.8 45.64 50.66 0 94.14-31.17 112.38-75.33h25.89c32.47 0 58.9-29.45 58.9-65.64V211.8c0-36.19-26.43-65.64-58.9-65.64zM501.81 665v79.07h-34.19V665h34.19z m-92.95-183.43h-31.21v-68.1h31.21v68.1zM377.65 337.9c0-11.59 9.29-21.02 20.71-21.02h10.5v37.83h-31.21V337.9z m-106.14 75.56H318.9v68.1H213.17c30.86-42.85 50.44-61.46 58.34-68.1z m-212.76 341.95V614.75c0-40.35 49.32-74.43 107.71-74.43h242.4v203.75h-71.14c-6.25-61.22-58.11-109.14-120.96-109.14-66.83 0-121.22 54.22-121.54 120.98h-32.79c-1.52 0-2.74-0.21-3.68-0.5z m158.01 63.93c-33.66 0-61.02-26.69-62.54-60.01v-3.43h-0.23c0.33-34.35 28.33-62.23 62.76-62.23 34.65 0 62.84 28.19 62.84 62.82 0.01 34.66-28.18 62.85-62.83 62.85z m499.13 0c-34.63 0-62.82-28.19-62.82-62.84 0-34.63 28.19-62.82 62.82-62.82 34.65 0 62.84 28.19 62.84 62.82 0 34.65-28.19 62.84-62.84 62.84z m247.35 0c-34.65 0-62.84-28.19-62.84-62.84 0-34.63 28.19-62.82 62.84-62.82 34.63 0 62.82 28.19 62.82 62.82 0.01 34.65-28.18 62.84-62.82 62.84z m189.59 0c-34.65 0-62.84-28.19-62.84-62.84 0-34.63 28.19-62.82 62.84-62.82 34.63 0 62.82 28.19 62.82 62.82 0 34.65-28.19 62.84-62.82 62.84z m138.42-82.21c0 3.56-1.15 5.85-1.89 6.88h-15.6c-6.27-61.19-58.12-109.09-120.93-109.09-38.32 0-72.5 17.86-94.8 45.63-22.3-27.78-56.48-45.63-94.78-45.63-62.83 0-114.68 47.9-120.95 109.09h-5.45c-6.27-61.19-58.12-109.09-120.95-109.09-62.82 0-114.66 47.9-120.93 109.09h-34.4V211.8c0-3.56 1.15-5.85 1.89-6.88h726.9c0.75 1.03 1.89 3.33 1.89 6.88v525.33z"  /><path fill="#333333" d="M629.08 599.53h605.42V245.89H629.08v353.64z m58.75-294.88h487.92v236.13H687.83V304.65z"  /></svg>