<?xml version="1.0" standalone="no"?><!DOCTYPE svg PUBLIC "-//W3C//DTD SVG 1.1//EN" "http://www.w3.org/Graphics/SVG/1.1/DTD/svg11.dtd"><svg class="icon" width="200px" height="200.00px" viewBox="0 0 1024 1024" version="1.1" xmlns="http://www.w3.org/2000/svg"><path fill="#333333" d="M295 428.37h432.52c12.8 0 44.34-2.03 60.5-20.86 7.18-8.36 10.25-18.71 8.65-29.18L772.4 220.17c-3.7-24.3-30.19-39.4-69.13-39.4H319.24c-38.94 0-65.43 15.1-69.13 39.37l-24.26 158.21c-1.61 10.45 1.47 20.81 8.65 29.16 16.16 18.83 47.7 20.86 60.5 20.86z m421.78-188.28l19.9 129.69c-2.64 0.35-5.72 0.58-9.16 0.58H540.26V238.78h163.01c5.56 0 10.16 0.59 13.51 1.31z m-411.04 0c3.34-0.72 7.95-1.31 13.5-1.31h163.01v131.58H295c-3.44 0-6.51-0.23-9.16-0.58l19.9-129.69z"  /><path fill="#333333" d="M1005.51 934.72L877.77 779.3c2.17-1.88 4.53-3.51 6.51-5.62 16.39-17.39 24.96-41.02 23.55-64.86L873.1 123.99c-2.74-45.91-40.92-81.88-86.9-81.88H236.3c-45.98 0-84.16 35.97-86.9 81.89l-34.72 584.82c-1.42 23.84 7.16 47.47 23.55 64.86 2.28 2.42 4.97 4.34 7.49 6.47L18.69 934.72c-10.16 12.38-8.38 30.66 4 40.82 5.4 4.44 11.91 6.6 18.39 6.6 8.38 0 16.69-3.62 22.43-10.58l59.96-72.96h777.24l59.96 72.96c5.74 6.98 14.05 10.58 22.43 10.58 6.48 0 12.99-2.16 18.39-6.6 12.4-10.16 14.18-28.44 4.02-40.82zM201.59 743.03c-8.08 0-15.6-3.24-21.15-9.13-5.53-5.88-8.33-13.57-7.86-21.64l5.38-90.59h37.18c12.19 35.91 45.85 61.99 85.82 61.99s73.63-26.08 85.82-61.99h248.35c12.19 35.91 45.85 61.99 85.82 61.99 39.97 0 73.63-26.08 85.82-61.99h37.79l5.38 90.59c0.47 8.07-2.32 15.76-7.86 21.64-5.55 5.89-13.07 9.13-21.15 9.13H201.59z m66.39-150.36c0-18.19 14.8-32.99 32.99-32.99 18.18 0 32.99 14.79 32.99 32.99s-14.8 32.99-32.99 32.99c-18.19-0.01-32.99-14.8-32.99-32.99z m419.98 0c0-18.19 14.8-32.99 32.99-32.99 18.18 0 32.99 14.79 32.99 32.99s-14.8 32.99-32.99 32.99c-18.19-0.01-32.99-14.8-32.99-32.99zM236.31 100.12h549.9c15.35 0 28.08 12.01 29 27.32l25.9 436.22h-34.35c-12.19-35.91-45.84-61.99-85.82-61.99-39.97 0-73.63 26.08-85.82 61.99H386.78c-12.19-35.91-45.84-61.99-85.82-61.99s-73.63 26.08-85.82 61.99H181.4l25.9-436.21c0.93-15.32 13.66-27.33 29.01-27.33zM171.15 840.6l32.51-39.56h616.87l32.51 39.56H171.15z"  /></svg>