<?xml version="1.0" standalone="no"?><!DOCTYPE svg PUBLIC "-//W3C//DTD SVG 1.1//EN" "http://www.w3.org/Graphics/SVG/1.1/DTD/svg11.dtd"><svg class="icon" width="200px" height="170.67px" viewBox="0 0 1200 1024" version="1.1" xmlns="http://www.w3.org/2000/svg"><path fill="#333333" d="M1147.28 325.24H880.59l0.93-1.61c22.28-38.61 9-88.17-31.27-111.41-18.68-10.79-40.47-13.69-61.37-8.09-20.86 5.59-38.3 18.97-49.1 37.68l-48.16 83.42H570.55c18.94-27.67 17.27-65.73-6.34-91.49-13.31-14.54-31.5-23.03-51.19-23.9-19.7-0.78-38.55 5.99-53.11 19.31L351.6 328.34C211.02 346.89 0 447.67 0 580.76v101.02c0 29.02 23.65 52.62 52.73 52.62h159.86c25.93 52.35 79.77 88.51 142.05 88.51s116.11-36.16 142.04-88.51h256.47c25.93 52.35 79.77 88.51 142.05 88.51s116.11-36.16 142.04-88.51h110.06c29.07 0 52.72-23.6 52.72-52.62V377.86c-0.02-29.02-23.67-52.62-52.74-52.62z m-355.41-53.35c2.77-4.8 7.24-8.22 12.59-9.65 5.34-1.42 10.92-0.7 17.38 3.02 9.89 5.72 13.3 18.42 7.59 28.31l-18.29 31.67h-50.07l30.8-53.35z m-291.33 1.62c3.64-3.33 7.84-3.56 9.83-3.57 2.11 0.1 6.16 0.79 9.5 4.43 3.32 3.63 3.66 7.71 3.57 9.83-0.1 2.11-0.79 6.16-4.43 9.5l-34.43 31.53h-40.51l56.47-51.72zM354.63 762.76c-54.27 0-98.42-44.14-98.42-98.41 0-54.27 44.15-98.41 98.42-98.41s98.41 44.14 98.41 98.41c0 54.27-44.14 98.41-98.41 98.41z m540.55 0c-54.27 0-98.42-44.14-98.42-98.41 0-54.27 44.15-98.41 98.42-98.41s98.41 44.14 98.41 98.41c0 54.27-44.14 98.41-98.41 98.41z m158.06-88.51c0.2-3.29 0.5-6.56 0.5-9.9 0-87.44-71.13-158.56-158.56-158.56s-158.57 71.13-158.57 158.56c0 3.34 0.3 6.61 0.5 9.9H512.69c0.2-3.29 0.5-6.56 0.5-9.9 0-87.44-71.13-158.56-158.56-158.56s-158.57 71.13-158.57 158.56c0 3.34 0.3 6.61 0.5 9.9H60.15v-93.49c0-96.89 214.67-195.37 334.61-195.37h745.09v70.25c-2.16-0.49-4.38-0.81-6.69-0.81h-53.94c-16.61 0-30.08 13.47-30.08 30.08s13.47 30.08 30.08 30.08h53.94c2.31 0 4.53-0.31 6.69-0.81v160.07h-86.61z"  /></svg>