<?xml version="1.0" standalone="no"?><!DOCTYPE svg PUBLIC "-//W3C//DTD SVG 1.1//EN" "http://www.w3.org/Graphics/SVG/1.1/DTD/svg11.dtd"><svg class="icon" width="200px" height="178.09px" viewBox="0 0 1150 1024" version="1.1" xmlns="http://www.w3.org/2000/svg"><path fill="#333333" d="M1118.01 757.14H68.22c-13.74 0-24.88 11.14-24.88 24.88S54.48 806.9 68.22 806.9h1049.79c13.74 0 24.88-11.14 24.88-24.88s-11.13-24.88-24.88-24.88zM1094.81 217.35H257.58C115.54 217.35 0 332.9 0 474.93v193.48c0 30.43 24.75 55.19 55.19 55.19h1039.62c30.44 0 55.19-24.76 55.19-55.19V272.54c0-30.43-24.75-55.19-55.19-55.19zM631.18 413.99c-21.14 0-38.33-17.19-38.33-38.33s17.19-38.32 38.33-38.32h55.88v76.64h-55.88z m105.65-76.65h96.55v76.64h-96.55v-76.64z m146.31 0h96.55v76.64h-96.55v-76.64z m146.3 0h70.79v76.64h-70.79v-76.64z m70.8-64.8v15.04H631.18c-48.58 0-88.09 39.52-88.09 88.08 0 48.57 39.51 88.09 88.09 88.09h469.05v111.76H428.45v-308.4h666.36c3 0 5.43 2.44 5.43 5.43z m-721.56-5.43v308.4H49.76V474.93c0-3.77 0.37-7.45 0.57-11.18h157.39c50.51 0 91.6-37.42 91.6-83.41s-41.1-83.4-91.6-83.4H150.85c31.24-18.81 67.68-29.83 106.72-29.83h121.11z m-284.32 79.6h113.35c23.07 0 41.84 15.09 41.84 33.64 0 18.56-18.77 33.64-41.84 33.64H58.92c7.6-24.73 19.8-47.42 35.44-67.28z m1000.45 327.12H55.19c-3 0-5.43-2.44-5.43-5.43v-43.13h1050.47v43.13a5.42 5.42 0 0 1-5.42 5.43z"  /></svg>