<?xml version="1.0" standalone="no"?><!DOCTYPE svg PUBLIC "-//W3C//DTD SVG 1.1//EN" "http://www.w3.org/Graphics/SVG/1.1/DTD/svg11.dtd"><svg class="icon" width="200px" height="178.24px" viewBox="0 0 1149 1024" version="1.1" xmlns="http://www.w3.org/2000/svg"><path fill="#333333" d="M1135.93 131.63c-33.04-65.92-113.95-92.47-180.57-59.08L713.82 196.2H120.35c-66.36 0-120.35 53.99-120.35 120.34 0 66.36 53.99 120.35 120.35 120.35h106.04c2.28 2.71 5.07 5.05 8.39 6.81L499 583.4 226.98 727.21a28.04 28.04 0 0 0-8.81 7.28h-58.3c-15.64 0-28.31 12.68-28.31 28.31s12.68 28.31 28.31 28.31h105.18c-29.22 15.76-49.35 46.3-49.35 81.77 0 51.42 41.83 93.25 93.25 93.25s93.25-41.83 93.25-93.25c0-35.47-20.13-66.01-49.35-81.77h430.13c-29.23 15.76-49.36 46.3-49.36 81.77 0 51.42 41.83 93.25 93.26 93.25 51.42 0 93.25-41.83 93.25-93.25 0-35.47-20.13-66.01-49.35-81.77h105.18c15.64 0 28.31-12.68 28.31-28.31s-12.68-28.31-28.31-28.31h-70.01L620.14 583.4l264.22-139.7c3.32-1.76 6.12-4.1 8.39-6.81h160.17c15.64 0 28.31-12.67 28.31-28.31 0-15.64-12.67-28.31-28.31-28.31H934l141.39-68.73c66.42-33.28 93.58-113.99 60.54-179.91zM308.94 909.51c-20.19 0-36.62-16.43-36.62-36.62 0-20.2 16.43-36.63 36.62-36.63s36.62 16.43 36.62 36.63c0.01 20.19-16.42 36.62-36.62 36.62z m517.92 0c-20.2 0-36.63-16.43-36.63-36.62 0-20.2 16.43-36.63 36.63-36.63 20.19 0 36.62 16.43 36.62 36.63 0 20.19-16.43 36.62-36.62 36.62z m-42.07-175.02H334.36l225.21-119.07 225.22 119.07zM559.57 551.37L343.05 436.89H776.1L559.57 551.37z m490.76-290.6l-245.84 119.5H120.35c-35.14 0-63.73-28.59-63.73-63.73 0-35.13 28.59-63.72 63.73-63.72h600.79c5.9 0 11.37-1.81 15.9-4.89l243.9-124.87c38.51-19.32 85.32-4.07 104.36 33.93 19.06 38.01 3.23 84.64-34.97 103.78z"  /></svg>