<?xml version="1.0" standalone="no"?><!DOCTYPE svg PUBLIC "-//W3C//DTD SVG 1.1//EN" "http://www.w3.org/Graphics/SVG/1.1/DTD/svg11.dtd"><svg class="icon" width="200px" height="170.81px" viewBox="0 0 1199 1024" version="1.1" xmlns="http://www.w3.org/2000/svg"><path fill="#333333" d="M520.83421 780.57H70.88421c-18.69 0-36.29-7.73-49.6-21.74-14.61-15.4-22.33-36.85-21.17-58.87l25.23-479.24c2.13-40.35 33.21-71.95 70.78-71.95h399.5c37.56 0 68.64 31.6 70.78 71.95l25.23 479.23c1.16 22.02-6.56 43.48-21.17 58.88-13.33 14.01-30.94 21.74-49.63 21.74zM96.11421 206.17c-6.9 0-12.93 7.88-13.44 17.57l-25.23 479.23c-0.34 6.26 1.72 12.37 5.48 16.33 1.66 1.76 4.41 3.85 7.96 3.85h449.96c3.55 0 6.3-2.09 7.96-3.85 3.76-3.96 5.81-10.07 5.48-16.34l-25.23-479.22c-0.5-9.52-6.65-17.57-13.44-17.57H96.11421z"  /><path fill="#333333" d="M441.42421 484.1H150.29421c-18.73 0-35.36-6.54-45.64-17.95-7.7-8.55-11.31-19.28-10.17-30.21l16.32-156.55c2.45-23.39 25.92-40.36 55.81-40.36H425.09421c29.88 0 53.36 16.97 55.81 40.34l16.33 156.58c1.12 10.98-2.5 21.7-10.2 30.23-10.28 11.39-26.92 17.92-45.61 17.92zM153.18421 426.69h285.34l-13.59-130.24H166.75421L153.18421 426.69zM153.30421 174.44l-56.59-9.68 16.15-94.42C116.34421 49.89 136.99421 37.66 168.09421 37.66h255.55c31.02 0 51.68 12.19 55.21 32.61l16.15 94.49-56.59 9.66-13.55-79.33c-0.39-0.01-0.8-0.02-1.21-0.02H168.08421c-0.41 0-0.82 0.01-1.21 0.02l-13.57 79.35z m16.14-94.46v0zM193.10421 701.83c-45.99 0-83.43-37.43-83.43-83.44 0-46 37.43-83.44 83.43-83.44 46.01 0 83.45 37.43 83.45 83.44s-37.43 83.44-83.45 83.44z m0-109.46c-14.35 0-26.02 11.67-26.02 26.02s11.66 26.02 26.02 26.02 26.03-11.67 26.03-26.02-11.67-26.02-26.03-26.02zM398.59421 701.83c-46.01 0-83.45-37.43-83.45-83.44 0-46 37.43-83.44 83.45-83.44 45.99 0 83.43 37.43 83.43 83.44s-37.44 83.44-83.43 83.44z m0-109.46c-14.35 0-26.03 11.67-26.03 26.02s11.68 26.02 26.03 26.02 26.02-11.67 26.02-26.02-11.67-26.02-26.02-26.02zM564.60421 756.33c-10.09 0-19.9-5.35-25.14-14.82-7.68-13.87-2.65-31.33 11.21-39.01 18.17-10.05 89.28-17.21 452.59-37.44 48.37-2.69 91.84-5.11 120.53-6.94 6.91-97.89-2.04-188.94-11.53-217.44-439.75-13.71-586.01-196.39-592.09-204.24-9.7-12.54-7.4-30.57 5.14-40.27 12.52-9.69 30.48-7.39 40.18 5.03 2.04 2.53 142.78 173 562.24 182.47l4.63 0.1 4.37 1.56c66.22 23.67 42.44 299.72 42.18 302.49l-2.34 23.92-23.94 1.92c-23.83 1.91-77.82 4.92-146.19 8.72-139.49 7.77-398.37 22.18-430.05 31.4a28.497 28.497 0 0 1-11.79 2.55z m13.89-3.6c-0.5 0.27-0.99 0.52-1.5 0.77 0.6-0.27 1.09-0.55 1.5-0.77z"  /><path fill="#333333" d="M768.13421 593.3c-15.49 0-28.24-12.33-28.67-27.92L733.89421 362.89c-0.45-15.85 12.05-29.04 27.9-29.48 15.92-0.82 29.04 12.06 29.47 27.91l5.57 202.5c0.45 15.85-12.05 29.04-27.9 29.48h-0.8zM924.18421 593.3c-15.42 0-28.15-12.23-28.67-27.75l-5.57-167.2c-0.52-15.84 11.89-29.12 27.73-29.64 15.74-0.64 29.1 11.9 29.64 27.73l5.57 167.2c0.52 15.84-11.89 29.12-27.73 29.64-0.32 0.01-0.65 0.02-0.97 0.02zM1044.93421 593.3c-15.34 0-28.07-12.15-28.67-27.62l-5.57-146.76c-0.6-15.84 11.76-29.16 27.6-29.77 16.05-0.19 29.17 11.76 29.77 27.6l5.57 146.76c0.6 15.84-11.76 29.16-27.6 29.77-0.37 0.01-0.73 0.02-1.1 0.02z"  /><path fill="#333333" d="M574.92421 619.31c-15.12 0-27.77-11.8-28.65-27.08-0.9-15.83 11.21-29.39 27.04-30.29 123.85-7.02 531.18-29.21 572.74-19.77 15.47 3.51 25.16 18.89 21.64 34.36-3.51 15.44-18.91 25.14-34.35 21.63-31.96-5.85-358.47 9.85-556.78 21.1-0.56 0.03-1.1 0.05-1.64 0.05zM41.76421 981.01c-5.59 0-11.21-1.62-16.17-5-13.1-8.93-16.47-26.79-7.53-39.89l79.88-117.04c8.95-13.1 26.84-16.46 39.9-7.52 13.1 8.93 16.47 26.79 7.53 39.89L65.49421 968.49c-5.56 8.13-14.57 12.52-23.73 12.52zM502.50421 986.59c-11.87 0-22.99-7.42-27.1-19.27L432.66421 844.7c-5.23-14.97 2.67-31.33 17.64-36.56 15.01-5.2 31.36 2.67 36.56 17.66l42.74 122.62c5.23 14.97-2.67 31.33-17.64 36.56a28.76 28.76 0 0 1-9.46 1.61z"  /><path fill="#333333" d="M491.38421 920.26c-10.97 0-21.44-6.31-26.22-16.95-6.49-14.46-0.06-31.43 14.41-37.93 12.41-5.61 308.78-136.48 694.76-95.26 15.77 1.68 27.17 15.83 25.49 31.59-1.68 15.77-16.18 27.06-31.58 25.5-369.84-39.52-662.23 89.22-665.14 90.52a28.553 28.553 0 0 1-11.72 2.53z"  /><path fill="#333333" d="M467.98421 912.27H104.84421c-15.85 0-28.71-12.85-28.71-28.71s12.86-28.71 28.71-28.71H467.99421c15.85 0 28.71 12.85 28.71 28.71s-12.87 28.71-28.72 28.71z"  /></svg>