<?xml version="1.0" standalone="no"?><!DOCTYPE svg PUBLIC "-//W3C//DTD SVG 1.1//EN" "http://www.w3.org/Graphics/SVG/1.1/DTD/svg11.dtd"><svg class="icon" width="200px" height="170.67px" viewBox="0 0 1200 1024" version="1.1" xmlns="http://www.w3.org/2000/svg"><path fill="#333333" d="M1169.94 505.52h-72.03c-0.57-0.51-1.05-1.09-1.67-1.56l-183.5-139.1c-12.81-9.71-29.44-15.06-46.85-15.06h-67.12v-12.22c0-44.66-34.57-81-77.07-81H585.96c-42.5 0-77.07 36.34-77.07 81v12.22h-25.48c-17.96 0-34.99 5.65-47.96 15.91l-175.06 138.6c-0.46 0.37-0.81 0.81-1.24 1.2h-36.91c-122.54 0-222.24 91.15-222.24 203.2v45.53c0 68.75 60.64 124.69 135.2 124.69h24.55c25.13 28.41 61.74 46.45 102.56 46.45 47.08 0 88.69-23.88 113.37-60.15l408.97-0.99c24.6 36.82 66.51 61.13 114.02 61.13 39.52 0 75.07-16.91 100.11-43.75l0.03 0.68 65.98-3.38c74.55 0 135.21-55.94 135.21-124.69V535.38c0-16.47-13.49-29.86-30.06-29.86z m-164.83 0H881.24v-93.9l123.87 93.9z m-180.16-99.44v99.43H639.12v-99.43h185.83z m-259.78-68.5c0-13.63 9.33-24.72 20.79-24.72H721.7c11.46 0 20.79 11.08 20.79 24.72v12.22H565.17v-12.22z m-94.79 72.27c2.3-1.82 6.93-3.77 13.03-3.77h99.43v99.43H349.56l120.82-95.66zM262.31 869.1c-44.54 0-80.77-36.24-80.77-80.78s36.23-80.78 80.77-80.78 80.78 36.24 80.78 80.78-36.24 80.78-80.78 80.78z m636.36 0c-44.54 0-80.78-36.24-80.78-80.78s36.24-80.78 80.78-80.78 80.78 36.24 80.78 80.78-36.24 80.78-80.78 80.78z m164.69-46.42l-32.59 1.65c3.14-11.5 4.96-23.54 4.96-36.01 0-75.58-61.49-137.06-137.06-137.06s-137.06 61.49-137.06 137.06c0 6.71 0.65 13.25 1.58 19.7l-365.53 0.88c1.02-6.73 1.72-13.57 1.72-20.58 0-75.58-61.49-137.06-137.06-137.06S125.26 712.74 125.26 788.32c0 11.7 1.63 22.99 4.4 33.84-40.89-2.52-73.37-31.85-73.37-67.92v-45.53c0-81.01 74.45-146.91 165.96-146.91h921.47v34.66H488.18c-12.95 0-23.45 10.5-23.45 23.45s10.5 23.45 23.45 23.45h655.54v110.88c-0.01 37.72-35.41 68.41-80.36 68.44zM653.6 221.63c15.54 0 28.14-12.6 28.14-28.14v-66.48c0-15.54-12.6-28.14-28.14-28.14s-28.14 12.6-28.14 28.14v66.48c0 15.54 12.6 28.14 28.14 28.14zM447.49 251.39c10.99 10.99 28.81 10.99 39.8 0 10.99-10.99 10.99-28.81 0-39.8l-47.01-47.01c-10.99-10.99-28.81-10.99-39.8 0-10.99 10.99-10.99 28.81 0 39.8l47.01 47.01zM859.72 251.39l47.01-47.01c10.99-10.99 10.99-28.81 0-39.8-10.99-10.99-28.81-10.99-39.8 0l-47.01 47.01c-10.99 10.99-10.99 28.81 0 39.8 10.99 10.99 28.81 10.99 39.8 0z"  /></svg>