<?xml version="1.0" standalone="no"?><!DOCTYPE svg PUBLIC "-//W3C//DTD SVG 1.1//EN" "http://www.w3.org/Graphics/SVG/1.1/DTD/svg11.dtd"><svg class="icon" width="200px" height="200.00px" viewBox="0 0 1024 1024" version="1.1" xmlns="http://www.w3.org/2000/svg"><path fill="#333333" d="M927.51 95.06H242.53c-80.26 0-87.28 80.49-94.72 165.71-3.56 40.73-7.59 86.91-18.59 133.33-3.13 13.21-23.83 43.02-40.46 66.99-12.21 17.59-24.84 35.79-34.43 52.21-11.86 20.28-17.81 43.81-17.2 68.01l4.19 168.82c0 62.58 52.15 113.48 116.24 113.48h75.26c15.4 38.37 52.9 65.57 96.71 65.57s81.32-27.2 96.71-65.57h217.53c15.4 38.37 52.9 65.57 96.71 65.57s81.32-27.2 96.71-65.57h90.29c32.85 0 59.59-26.24 59.59-58.5V153.57c0.03-32.25-26.7-58.51-59.56-58.51z m13.84 58.51v106.65H811.89V140.81h115.63c7.63 0 13.83 5.72 13.83 12.76z m-381.21 295.3v132.61H399.88V448.87h160.26z m45.75 0h160.25v132.61H605.89V448.87z m206 0h129.46v132.61H811.89V448.87z m-637.84-45.75c7.87-33.65 12.24-66.35 15.42-97.15h751.88v97.15h-767.3z m431.84-142.89V140.81h160.25v119.42H605.89z m-45.75 0H399.88V140.81h160.25v119.42zM242.53 140.81h111.6v119.42H193.79c7.68-86.48 14.33-119.42 48.74-119.42zM93.85 536.39c8.69-14.89 20.8-32.35 32.51-49.22 9.44-13.61 18.27-26.39 25.82-38.29h201.96v132.61H82.91l-0.03-1.32c-0.4-15.7 3.39-30.84 10.97-43.78z m235.7 347.05c-32.25 0-58.48-26.24-58.48-58.48 0-32.24 26.23-58.48 58.48-58.48s58.48 26.24 58.48 58.48c0 32.24-26.23 58.48-58.48 58.48z m410.96 0c-32.25 0-58.48-26.24-58.48-58.48 0-32.24 26.23-58.48 58.48-58.48s58.48 26.24 58.48 58.48c0 32.24-26.23 58.48-58.48 58.48z m187-65.57h-83.13c-3.67-54.16-48.79-97.14-103.87-97.14-55.08 0-100.2 42.98-103.87 97.14H433.42c-3.67-54.16-48.79-97.14-103.87-97.14s-100.2 42.98-103.87 97.14h-68.11c-38.87 0-70.49-30.38-70.49-68.3l-3.03-122.34h857.31v177.89c-0.01 7.03-6.21 12.75-13.85 12.75z"  /></svg>