<?xml version="1.0" standalone="no"?><!DOCTYPE svg PUBLIC "-//W3C//DTD SVG 1.1//EN" "http://www.w3.org/Graphics/SVG/1.1/DTD/svg11.dtd"><svg class="icon" width="200px" height="178.09px" viewBox="0 0 1150 1024" version="1.1" xmlns="http://www.w3.org/2000/svg"><path fill="#333333" d="M983.09288 132.98H272.90288c-20.18 0-38.96 5.2-54.29 15.02-53.01 33.97-73.29 90.35-80.92 111.58-17.92 49.77-12.01 86.79-7.26 116.54 4.47 28 5.92 41.04-6.6 56.85-15.78 19.94-27.52 28.9-39.94 38.39-14.78 11.29-31.54 24.08-52.65 52.96-3.2 4.37-6.16 8.87-8.89 13.45-29.54 49.56-29.82 109.7-0.73 160.89 28.01 49.32 78.65 80.92 134.21 85.26 9.37 60.7 61.82 107.37 125.1 107.37 62.98 0 115.23-46.22 124.97-106.49h329.45c9.74 60.27 61.99 106.49 124.97 106.49 63.02 0 115.29-46.28 124.98-106.61 91.01-1.2 164.71-75.51 164.71-166.8V299.89c-0.01-92.03-74.89-166.91-166.92-166.91z m-484.9 54.31h484.9c40.74 0 76.39 21.82 96.16 54.32H498.19288v-54.32z m-250.28 6.44c8.3-5.32 18.17-6.44 24.98-6.44h170.97v54.32H204.95288c9.42-16.85 23.06-35.13 42.96-47.88z m-61.19 192.63h91.06c28.44 0 48.26 15.41 48.26 29.24 0 20.41-28.22 38.32-60.38 38.32h-90.54c13.68-23.53 14.06-46.31 11.6-67.56z m94.2 450.6c-39.93 0-72.42-32.49-72.42-72.42s32.49-72.42 72.42-72.42 72.42 32.49 72.42 72.42-32.48 72.42-72.42 72.42z m0-199.16c-57.83 0-106.64 38.98-121.79 92.02-37.34-3.21-71.37-24.67-90.29-58-19.59-34.48-19.53-73.21 0.18-106.27 1.86-3.13 3.86-6.18 6.06-9.17 16.48-22.54 28.2-31.49 41.78-41.85 2.63-2.01 5.35-4.11 8.12-6.29h140.68c64.32 0 114.7-40.68 114.7-92.63 0-46.86-45.06-83.56-102.58-83.56H180.20288c-0.32-11.17 0.41-22.99 3.42-36.12h260.25v434.54h-40.99c-14.94-53.37-63.89-92.67-121.96-92.67z m579.39 199.16c-39.93 0-72.42-32.49-72.42-72.42s32.49-72.42 72.42-72.42 72.42 32.49 72.42 72.42-32.49 72.42-72.42 72.42z m122.78-106.49h-0.83c-14.93-53.37-63.89-92.67-121.95-92.67-58.07 0-107.02 39.3-121.95 92.67H498.19288V295.93h597.29c0.05 1.33 0.2 2.63 0.2 3.96v32.25H960.21288c-35.12 0-63.69 28.57-63.69 63.69v77.77c0 41.8 34.01 75.81 75.81 75.81h123.35v68.46c0 62.09-50.51 112.6-112.59 112.6z m112.59-344.01v108.63H972.33288c-11.85 0-21.49-9.65-21.49-21.49v-77.77c0-5.16 4.21-9.37 9.37-9.37h135.47z"  /><path fill="#333333" d="M777.72288 424.59h-34.2v-34.2c0-31.07-25.27-56.33-56.33-56.33h-5.02c-31.07 0-56.33 25.27-56.33 56.33v34.2h-34.2c-31.07 0-56.33 25.27-56.33 56.33v5.02c0 31.07 25.27 56.33 56.33 56.33h34.2v34.2c0 31.07 25.27 56.33 56.33 56.33h5.02c31.07 0 56.33-25.27 56.33-56.33v-34.2h34.2c31.07 0 56.33-25.27 56.33-56.33v-5.02c0-31.07-25.27-56.33-56.33-56.33z m11.07 61.35c0 6.1-4.97 11.07-11.07 11.07H717.40288v0.04h-19.14v79.42c0 6.1-4.97 11.07-11.07 11.07h-5.02c-6.1 0-11.07-4.97-11.07-11.07V497.1h-28.52v-0.09h-50.94c-6.1 0-11.07-4.97-11.07-11.07v-5.02c0-6.1 4.97-11.07 11.07-11.07h34.2v0.09h45.26v-79.55c0-6.1 4.97-11.07 11.07-11.07h5.02c6.1 0 11.07 4.97 11.07 11.07v79.55h45.26v-0.09h34.2c6.1 0 11.07 4.97 11.07 11.07v5.02z"  /></svg>