<?xml version="1.0" standalone="no"?><!DOCTYPE svg PUBLIC "-//W3C//DTD SVG 1.1//EN" "http://www.w3.org/Graphics/SVG/1.1/DTD/svg11.dtd"><svg class="icon" width="200px" height="200.00px" viewBox="0 0 1024 1024" version="1.1" xmlns="http://www.w3.org/2000/svg"><path fill="#333333" d="M720.531 253.205v114.96a947.96 947.96 0 0 0-61.051-8.754c9.216-28.797 14.975-55.753 14.975-77.868 0-115.42-58.746-181.538-161.265-181.538s-161.265 66.118-161.265 181.538c0 22.115 5.759 49.071 14.975 77.868a947.96 947.96 0 0 0-61.051 8.754v-114.96C187.205 274.401 98.51 314.946 98.51 374.154v414.681c0 45.385 52.066 79.942 130.164 103.21 77.868 23.038 181.538 35.017 284.516 35.017 206.189 0 414.681-47.458 414.681-138.227V374.154c0-59.208-88.695-99.753-207.34-120.949zM513.191 146.08c76.486 0 115.189 45.614 115.189 135.462 0 21.885-5.759 47.458-14.975 73.491-5.068 14.974-11.288 29.949-17.969 44.693-27.415 58.977-64.275 113.576-82.245 132.237-17.97-18.661-54.83-73.26-82.245-132.237-6.68-14.745-12.901-29.72-17.969-44.693-9.216-26.033-14.975-51.606-14.975-73.491 0-89.847 38.703-135.462 115.189-135.462zM144.586 374.154c0-17.738 39.395-44.002 115.189-63.814v366.992c-46.767 11.288-86.853 26.263-115.189 44.693V374.154z m368.605 506.832c-241.897 0-368.605-59.898-368.605-92.151 0-17.969 39.165-44.002 115.189-64.044 14.053-3.687 29.489-7.142 46.076-10.367V414.7a885.785 885.785 0 0 1 77.637-11.058c37.552 89.387 99.293 178.774 129.703 178.774s92.151-89.387 129.703-178.774a885.028 885.028 0 0 1 77.637 11.058v299.722c16.587 3.226 32.023 6.68 46.076 10.367 76.025 20.043 115.189 46.076 115.189 64.044 0 32.255-126.708 92.153-368.605 92.153z m368.605-158.96c-28.336-18.43-68.422-33.405-115.189-44.693V310.34c75.794 19.812 115.189 46.076 115.189 63.814v347.872z"  /><path fill="#333333" d="M593.151 606.836h-0.001c-5.219 0-10.369 1.557-14.244 5.055-8.151 7.358-30.771 17.983-65.715 17.983-34.949 0-57.564-10.623-65.715-17.981-3.875-3.498-9.024-5.056-14.245-5.056-21.213 0-30.933 26.339-14.905 40.235 20.432 17.714 54.615 28.879 94.865 28.879s74.433-11.165 94.865-28.879c16.028-13.896 6.308-40.236-14.905-40.236z"  /><path fill="#333333" d="M513.191 353.42c-38.111 0-69.113-31.002-69.113-69.113s31.002-69.113 69.113-69.113 69.113 31.002 69.113 69.113-31.002 69.113-69.113 69.113z m0-92.151c-12.7 0-23.038 10.338-23.038 23.038s10.338 23.038 23.038 23.038c12.7 0 23.038-10.338 23.038-23.038s-10.338-23.038-23.038-23.038z"  /></svg>