<?xml version="1.0" standalone="no"?><!DOCTYPE svg PUBLIC "-//W3C//DTD SVG 1.1//EN" "http://www.w3.org/Graphics/SVG/1.1/DTD/svg11.dtd"><svg class="icon" width="200px" height="200.00px" viewBox="0 0 1024 1024" version="1.1" xmlns="http://www.w3.org/2000/svg"><path fill="#333333" d="M697.425 221.27V98.156h-23.048c-90.424 0-137.479 27.53-161.339 60.802-23.86-33.271-70.915-60.802-161.339-60.802h-23.048v123.113C275.679 245.067 98.167 334.665 98.167 466.93v460.968h829.742V466.93c-0.001-132.263-177.494-221.859-230.484-245.66z m-46.097-76.32v68.447H538.044c5.627-26.964 27.618-63 113.284-68.447z m-276.581 0c85.655 5.447 107.645 41.483 113.295 68.447H374.747V144.95zM144.263 466.93c0-111.877 182.744-194.853 212.072-207.435H508.093c-55.57 32.053-110.297 83.372-110.297 161.339h-23.048c-12.728 0-23.048 10.32-23.048 23.048s10.32 23.048 23.048 23.048h23.048v276.58h-23.048c-12.728 0-23.048 10.309-23.048 23.048s10.32 23.048 23.048 23.048h23.048V881.8H282.554V513.027c0-12.728-10.32-23.048-23.048-23.048-12.728 0-23.048 10.32-23.048 23.048v368.774h-92.194V466.93z m737.549 414.871h-92.194V513.027c0-12.728-10.309-23.048-23.048-23.048-12.74 0-23.048 10.32-23.048 23.048v368.774h-299.63v-92.194h23.048c12.728 0 23.048-10.309 23.048-23.048s-10.32-23.048-23.048-23.048h-23.048V466.93h23.048c12.728 0 23.048-10.32 23.048-23.048s-10.32-23.048-23.048-23.048h-23.048c0-111.179 166.151-156.115 187.13-161.339h38.829c62.73 26.053 211.96 108.973 211.96 207.435v414.871z"  /></svg>