<?xml version="1.0" standalone="no"?><!DOCTYPE svg PUBLIC "-//W3C//DTD SVG 1.1//EN" "http://www.w3.org/Graphics/SVG/1.1/DTD/svg11.dtd"><svg class="icon" width="200px" height="200.00px" viewBox="0 0 1024 1024" version="1.1" xmlns="http://www.w3.org/2000/svg"><path fill="#333333" d="M513.038 467.021c-101.675 0-184.397-82.722-184.397-184.397S411.363 98.228 513.038 98.228s184.397 82.722 184.397 184.397-82.723 184.396-184.397 184.396z m0-322.694c-76.262 0-138.297 62.036-138.297 138.297s62.036 138.297 138.297 138.297 138.297-62.036 138.297-138.297-62.036-138.297-138.297-138.297zM927.93 904.963c0 12.677-10.373 23.05-23.05 23.05s-23.05-10.373-23.05-23.05c0-139.911-78.369-261.843-193.846-324.308-51.171 30.426-111.099 47.713-174.947 47.713s-123.776-17.287-174.947-47.713C222.614 643.12 144.244 765.052 144.244 904.963c0 12.677-10.373 23.05-23.05 23.05s-23.05-10.373-23.05-23.05c0-149.362 79.06-280.284 197.996-353.35 14.291-8.99 29.272-16.826 44.716-23.971 16.134 11.525 33.19 21.205 51.4 29.272 37.109 16.366 77.908 25.355 120.78 25.355s83.67-8.99 120.78-25.355c18.21-8.067 35.266-17.747 51.4-29.272 15.444 7.145 30.196 14.981 44.716 23.971C848.639 624.679 927.93 755.6 927.93 904.963z"  /><path fill="#333333" d="M513.038 374.822c-38.131 0-69.149-31.018-69.149-69.149 0-12.729 10.321-23.05 23.05-23.05s23.05 10.321 23.05 23.05c0 12.707 10.343 23.05 23.05 23.05 12.706 0 23.05-10.343 23.05-23.05 0-12.729 10.309-23.05 23.05-23.05s23.05 10.321 23.05 23.05c-0.003 38.132-31.021 69.149-69.151 69.149z"  /></svg>