<?xml version="1.0" standalone="no"?><!DOCTYPE svg PUBLIC "-//W3C//DTD SVG 1.1//EN" "http://www.w3.org/Graphics/SVG/1.1/DTD/svg11.dtd"><svg class="icon" width="200px" height="200.00px" viewBox="0 0 1024 1024" version="1.1" xmlns="http://www.w3.org/2000/svg"><path fill="#333333" d="M913.91 457.493l-23.015-11.508c-3.222-1.611-6.675-2.531-10.357-2.531h-0.23C867.189 250.818 707.233 98.228 512.526 98.228c-194.709 0-354.664 152.59-367.781 345.227h-0.691c-3.682 0-7.135 0.92-10.357 2.531l-23.015 11.508c-7.824 3.682-12.658 11.738-12.658 20.484 0 157.883 50.403 324.974 186.422 368.702 0.23 0.23 0.23 0.461 0.461 0.691l46.03 69.045c4.143 6.443 11.277 10.357 19.103 10.357h324.053c7.594 0 14.729-3.914 19.102-10.357l46.03-69.045c0-0.23 0.23-0.23 0.23-0.461 136.48-43.498 187.113-210.818 187.113-368.932 0-8.747-4.833-16.803-12.658-20.485zM512.526 144.258c169.391 0 308.632 132.107 321.521 299.197h-65.823c11.508-31.761 8.976-61.68-6.904-85.387-17.261-25.777-47.872-39.585-85.387-39.126-31.991 0.461-66.514 11.277-97.814 31.071 0-0.922 0-1.611-0.23-2.533-7.135-39.355-24.396-74.569-48.792-99.424-26.697-27.159-58.688-39.126-89.989-33.372s-57.077 28.078-72.498 62.831c-3.912 8.746-7.135 18.181-8.975 28.079-30.611-3.222-60.301 4.832-81.935 25.316-22.554 21.174-32.911 52.014-29.228 86.537a127.789 127.789 0 0 0 5.523 26.007h-60.991c12.889-167.09 152.131-299.196 321.522-299.196z m84.696 248.102c25.316-17.031 54.315-26.927 79.403-27.388h1.381c12.888 0 34.292 2.533 45.109 18.642 11.048 16.572 4.603 38.665-0.459 50.173a94.497 94.497 0 0 1-4.834 9.667H572.365c4.143-11.968 6.675-24.626 7.826-38.206a253.656 253.656 0 0 1 17.031-12.888z m-102.648 51.095h-66.743c-12.888-17.261-22.325-39.356-26.698-63.983-0.459-2.992-0.92-5.984-1.15-8.976-2.531-18.181-1.842-35.904 1.611-52.013 1.611-7.826 4.143-15.421 7.135-22.325 5.293-11.968 17.261-32.22 38.665-36.134a35.228 35.228 0 0 1 6.904-0.69c18.413 0 33.833 12.658 41.888 20.943 17.952 18.183 30.841 45.11 36.364 75.49 1.842 9.666 2.762 19.562 2.762 28.769 0.23 22.554-4.373 43.038-12.199 58.919h-28.539z m-120.138 0h-73.188c-4.834-10.127-7.826-20.484-8.976-30.841-2.072-20.023 3.222-37.284 14.96-48.331 9.666-8.976 22.554-13.349 36.824-13.349 2.762 0 5.754 0.23 8.746 0.691 0 11.967 1.15 23.935 3.222 36.133 3.682 19.793 9.896 38.666 18.412 55.697z m287.228 437.287H362.237l-15.189-23.015h330.036l-15.42 23.015z m5.064-69.045H357.864c-140.392 0-188.953-127.505-205.525-230.151h719.914c-16.572 102.646-65.133 230.151-205.525 230.151z m211.048-276.182H146.815c-1.611-16.341-2.301-31.3-2.531-43.499l5.293-2.531h725.438l5.293 2.531c-0.231 12.199-0.92 27.158-2.532 43.499z"  /></svg>