<?xml version="1.0" standalone="no"?><!DOCTYPE svg PUBLIC "-//W3C//DTD SVG 1.1//EN" "http://www.w3.org/Graphics/SVG/1.1/DTD/svg11.dtd"><svg class="icon" width="200px" height="200.00px" viewBox="0 0 1024 1024" version="1.1" xmlns="http://www.w3.org/2000/svg"><path fill="#333333" d="M920.033 172.997c-9.678-8.526-24.196-7.605-32.492 2.073l-180.44 205.328c-2.765-7.144-5.992-14.057-9.909-20.741l139.65-226.297c6.684-10.83 3.457-25.118-7.374-31.802-11.061-6.682-25.118-3.456-31.802 7.374L666.543 321.173c-28.806-26.962-67.29-43.324-109.691-43.324-83.421 0-152.095 63.372-160.39 144.719-61.298 17.975-107.618 71.439-114.992 136.425h-44.937v92.178H98.266v182.974c0 51.62 41.941 93.561 93.561 93.561h89.413c51.619 0 93.561-41.941 93.561-93.561v-2.996c12.674 2.765 25.81 4.379 39.407 4.379h11.752l-13.134 52.31c-2.305 9.68-0.231 19.589 5.99 27.423 5.992 7.836 15.21 12.445 25.119 12.445h239.202c10.14 0 19.587-4.609 25.579-12.674 6.222-8.066 8.066-18.206 5.53-27.884l-14.287-51.62h4.148c97.939 0 177.674-79.735 177.674-177.674v-98.86h-44.937c-6.913-62.451-50.006-114.071-107.617-134.119L922.11 205.491c8.524-9.449 7.602-24.198-2.077-32.494zM556.852 323.939c55.998 0 102.547 39.867 112.917 92.639-43.784 1.613-82.96 20.739-110.613 50.697-28.806-30.879-69.595-50.468-115.223-50.927 10.601-52.774 57.15-92.409 112.919-92.409zM441.63 462.206c36.64 0 69.363 17.283 90.565 44.014 11.753 14.979 20.049 32.955 23.044 52.773h-227.22c8.757-54.846 56.228-96.787 113.611-96.787zM328.711 834.145c0 26.27-21.431 47.472-47.472 47.472h-89.413c-25.579 0-46.78-20.51-47.472-46.089h92.178c12.674 0 23.045-10.37 23.045-23.045 0-12.674-10.37-23.044-23.045-23.044h-92.178V697.26h96.557c11.292 50.006 44.014 92.178 87.8 116.375v20.51z m133.198 47.471l11.522-46.089h178.824l12.676 46.089H461.909zM835.69 651.171H466.978c-12.674 0-23.045 10.37-23.045 23.044s10.37 23.045 23.045 23.045h362.49c-16.591 53.463-66.598 92.178-125.362 92.178h-289.9c-13.828 0-26.963-2.075-39.407-6.222-17.283-5.3-32.723-14.057-46.089-25.348-18.435-15.901-32.492-36.641-39.867-60.607-4.148-12.445-6.222-25.579-6.222-39.407v-52.771H835.69v46.088z m-45.397-92.178H601.788c-2.073-18.666-7.373-36.411-15.67-52.773 21.202-26.731 53.925-44.014 90.565-44.014 57.382 0 104.853 41.941 113.61 96.787z"  /></svg>