<?xml version="1.0" standalone="no"?><!DOCTYPE svg PUBLIC "-//W3C//DTD SVG 1.1//EN" "http://www.w3.org/Graphics/SVG/1.1/DTD/svg11.dtd"><svg class="icon" width="200px" height="200.00px" viewBox="0 0 1024 1024" version="1.1" xmlns="http://www.w3.org/2000/svg"><path fill="#333333" d="M283.186 581.051c-76.036 0-137.889 61.852-137.889 137.889 0 65.713 94.069 206.833 137.889 206.833s137.889-141.12 137.889-206.833c-0.001-76.037-61.853-137.889-137.889-137.889z m0 296.604C258.095 858.354 191.26 765.98 191.26 718.94c0-50.698 41.239-91.926 91.926-91.926s91.926 41.227 91.926 91.926c-0.001 47.04-66.835 139.414-91.926 158.715z"  /><path fill="#333333" d="M765.796 466.144H260.204c-63.356 0-114.907-51.551-114.907-114.907S196.848 236.33 260.204 236.33h229.814c12.691 0 22.981-10.29 22.981-22.981s-10.29-22.981-22.981-22.981H260.204c-88.705 0-160.87 72.165-160.87 160.87s72.165 160.87 160.87 160.87h505.592c63.356 0 114.907 51.551 114.907 114.907s-51.551 114.907-114.907 114.907H490.019c-12.691 0-22.981 10.279-22.981 22.981s10.29 22.981 22.981 22.981h275.777c88.694 0 160.87-72.176 160.87-160.87s-72.176-160.87-160.87-160.87zM306.167 695.958c-11.233 0-20.591 8.057-22.589 18.717-0.123 0.112-0.258 0.247-0.393 0.359a11.28 11.28 0 0 1-0.393-0.337c-1.997-10.66-11.345-18.74-22.589-18.74-12.691 0-22.981 10.279-22.981 22.981 0 25.607 27.997 40.128 36.582 43.965l9.381 4.197 9.381-4.197c8.584-3.838 36.582-18.358 36.582-43.965 0.001-12.701-10.29-22.98-22.981-22.98z"  /><path fill="#333333" d="M682.488 337.109l28.166 12.231c2.918 1.268 6.037 1.896 9.157 1.896s6.239-0.628 9.157-1.896l28.143-12.231c28.974-12.579 123.525-60.517 123.525-149.02 0-49.554-41.227-89.861-91.903-89.861-27.133 0-51.955 11.603-68.922 30.388-16.989-18.773-41.789-30.388-68.922-30.388-50.698 0-91.926 40.307-91.926 89.861 0 88.503 94.551 136.441 123.525 149.02zM650.889 144.19c22.151 0 41.16 15.082 45.155 35.864a23.11 23.11 0 0 0 7.361 12.871l1.885 1.593c8.685 7.103 22.465 5.824 30.926-1.593a23.003 23.003 0 0 0 7.361-12.893c3.995-20.76 22.981-35.841 45.155-35.841 25.338 0 45.94 19.694 45.94 43.898 0 60.528-73.388 97.088-95.876 106.85l-18.987 8.259-19.009-8.259c-22.488-9.763-95.876-46.322-95.876-106.85 0.002-24.205 20.627-43.899 45.965-43.899z"  /></svg>