<?xml version="1.0" standalone="no"?><!DOCTYPE svg PUBLIC "-//W3C//DTD SVG 1.1//EN" "http://www.w3.org/Graphics/SVG/1.1/DTD/svg11.dtd"><svg class="icon" width="200px" height="200.00px" viewBox="0 0 1024 1024" version="1.1" xmlns="http://www.w3.org/2000/svg"><path fill="#333333" d="M647.81 203.315c-15.075-60.073-69.582-104.606-134.99-104.606-64.711 0-119.449 44.532-134.525 104.606-153.312 15.772-279.953 59.609-279.953 129.423v417.494c0 57.753 86.746 97.646 203.413 118.754V675.779c24.818-4.871 52.651-9.046 83.266-12.061 18.324 42.91 57.754 74.454 104.838 82.571v53.81c-33.167-4.175-64.016-16.931-89.529-36.415-3.943-3.015-8.814-4.87-13.916-4.87-14.149 0-23.194 11.597-23.194 23.426 0 6.726 3.014 13.452 9.277 18.323 33.167 25.282 73.525 41.981 117.362 46.156v39.198c-8.35-0.232-16.931-0.232-25.281-0.464-11.134-0.463-20.643 8.119-21.107 19.251-0.695 11.597 8.119 21.338 19.484 21.803 16.699 0.696 33.4 0.927 50.331 0.927 16.699 0 33.4-0.231 49.868-0.927 11.597-0.464 20.411-10.206 19.714-21.803-0.464-11.133-9.973-19.714-21.338-19.251-8.351 0.232-16.701 0.232-25.282 0.464v-39.198c44.069-4.175 84.195-20.874 117.594-46.156 17.628-13.453 8.117-41.749-14.148-41.749-4.871 0-9.741 1.854-13.917 4.87-25.513 19.484-56.129 32.24-89.529 36.415v-53.81c47.317-8.117 86.513-39.661 104.838-82.571 30.616 3.015 58.45 7.19 83.498 12.061v193.207c116.667-21.107 203.413-61.001 203.413-118.754V332.738c-0.001-69.814-126.874-113.651-280.187-129.423zM260.701 817.958c-77.235-19.714-121.305-46.388-121.305-67.726V395.361c28.76 19.948 70.974 35.952 121.305 47.781v374.816z m41.054-189.032V409.511c-102.517-19.948-162.359-51.955-162.359-76.772 0-30.153 88.137-70.974 234.492-87.674v364.38c0 3.015 0 6.261 0.232 9.277a953.515 953.515 0 0 0-72.365 10.204z m304.074-19.482c0 1.624 0 3.247-0.232 4.87-0.695 16.7-6.261 32.24-14.843 45.461-16.468 25.282-44.766 41.981-77.237 41.981h-0.696c-32.471 0-61.001-16.699-77.467-41.981-8.582-12.989-13.917-28.528-14.845-45.229-0.232-1.624-0.232-3.478-0.232-5.102V237.41c0-13.684 3.015-26.672 8.582-38.502 14.612-31.776 46.853-53.81 84.659-53.81 37.11 0 69.35 22.035 83.73 53.81 5.566 11.829 8.582 24.818 8.582 38.502v372.034z m281.113 140.788c0 21.338-44.068 48.012-121.305 67.726V443.143c50.331-11.829 92.312-27.833 121.305-47.781v354.87zM724.583 409.511v219.415a960.413 960.413 0 0 0-72.598-10.205c0.232-3.015 0.232-6.261 0.232-9.277v-364.38c146.587 16.7 234.724 57.521 234.724 87.674 0.001 24.818-59.839 56.825-162.358 76.773z"  /></svg>