<?xml version="1.0" standalone="no"?><!DOCTYPE svg PUBLIC "-//W3C//DTD SVG 1.1//EN" "http://www.w3.org/Graphics/SVG/1.1/DTD/svg11.dtd"><svg class="icon" width="200px" height="200.00px" viewBox="0 0 1024 1024" version="1.1" xmlns="http://www.w3.org/2000/svg"><path fill="#333333" d="M611.741 180.193c-4.027-0.299-7.16-3.318-7.943-7.279-8.419-42.623-46.078-74.687-91.071-74.687s-82.652 32.063-91.071 74.687c-0.782 3.961-3.916 6.98-7.943 7.279C244.574 192.757 97.46 238.05 97.46 313.173v417.821c0 56.039 81.61 95.276 193.212 116.865 5.444 1.053 10.592-3.133 10.592-8.678V661.357c0-4.221 2.886-7.758 7.038-8.517 24.621-4.503 51.785-8.233 80.963-11.086 4.013-0.392 7.401 2.573 7.401 6.604l0.001 265.362c0 7.879 6.387 14.148 14.266 14.148h203.591c7.879 0 14.266-6.387 14.266-14.266l0.001-265.051c0-4.011 3.576-7.171 7.568-6.78 29.115 2.85 56.223 6.574 80.796 11.069 4.152 0.759 7.038 4.3 7.038 8.521v177.8c0 5.545 5.149 9.752 10.593 8.698 111.6-21.589 193.211-60.826 193.211-116.865V313.173c-0.001-75.123-147.116-120.416-316.256-132.98z m-143.348-3.045c6.034-18.802 23.676-32.496 44.335-32.496 20.659 0 38.301 13.694 44.335 32.496 1.393 4.41 2.09 9.053 2.09 13.928 0 10.213-3.25 19.73-8.821 27.39-8.588 11.606-22.284 19.034-37.604 19.034-15.319 0-29.015-7.428-37.604-19.034-5.571-7.66-8.821-17.177-8.821-27.39 0-4.874 0.697-9.517 2.09-13.928zM259.946 787.33c0 5.826-5.713 9.982-11.328 8.429-70.043-19.376-109.839-44.479-109.839-64.764l-0.001-341.755c0-5.81 6.228-9.168 11.224-6.201 26.585 15.792 61.907 28.833 103.161 38.991 3.928 0.967 6.783 4.384 6.783 8.429V787.33z m392.056-195.067c0 5.206-4.404 9.227-9.584 8.709a1307.036 1307.036 0 0 0-49.314-3.986c-5.782-0.358-10.739 4.293-10.739 10.086V872.61a8.834 8.834 0 0 1-8.834 8.834H451.925a8.834 8.834 0 0 1-8.834-8.834V607.072c0-5.793-4.957-10.443-10.739-10.086a1308.956 1308.956 0 0 0-49.314 3.986c-5.18 0.518-9.584-3.504-9.584-8.709l0.001-192.276c0-30.194 80.903-46.357 139.274-46.425 58.393 0.068 139.274 16.23 139.274 46.425l-0.001 192.276z m234.675 138.731c0 20.289-39.601 45.396-109.843 64.774-5.614 1.549-11.325-2.732-11.324-8.556l0.001-356.672c0-4.045 2.855-7.543 6.783-8.51 41.254-10.158 76.575-23.2 103.16-38.991 4.996-2.967 11.224 0.39 11.224 6.201l-0.001 341.754zM731.37 388.579c-4.1 0.835-7.178 4.425-7.178 8.609v214.96c-8.394-1.51-17.078-2.829-25.765-4.144V399.987c0-90.242-166.68-92.849-185.687-92.849-19.007 0-185.71 2.607-185.71 92.849v208.016c-8.688 1.315-17.371 2.634-25.765 4.144v-214.96c0-4.184-3.079-7.775-7.178-8.609-98.423-20.038-155.307-51.153-155.307-75.405 0-33.241 106.184-79.387 279.422-91.93 3.838-0.278 7.351 2.058 8.831 5.611 13.946 33.492 47.132 57.071 85.697 57.071s71.751-23.58 85.697-57.071c1.479-3.553 4.992-5.889 8.831-5.611 173.238 12.542 279.422 58.689 279.422 91.93-0.003 24.253-56.888 55.368-155.31 75.406z"  /></svg>