<?xml version="1.0" standalone="no"?><!DOCTYPE svg PUBLIC "-//W3C//DTD SVG 1.1//EN" "http://www.w3.org/Graphics/SVG/1.1/DTD/svg11.dtd"><svg class="icon" width="200px" height="200.00px" viewBox="0 0 1024 1024" version="1.1" xmlns="http://www.w3.org/2000/svg"><path fill="#333333" d="M921.708 290.072c-8.621-9.375-23.185-9.961-32.572-1.373-4.074 3.737-99.651 93.337-99.651 247.472 0 65.076-57.715 69.015-69.15 69.15H326.641c-6.246-71.367-28.812-300.055-68.947-400.414-30.951-77.377-126.426-104.715-130.478-105.841-12.257-3.376-24.907 3.748-28.351 15.993-3.433 12.234 3.714 24.952 15.948 28.407 0.777 0.214 77.659 22.543 100.067 78.57 37.334 93.321 59.599 317.415 65.793 387.091-38.767 10.898-67.436 46.18-67.436 88.393 0 50.849 41.362 92.2 92.2 92.2h12.824c-7.94 13.616-12.824 29.23-12.824 46.1 0 50.849 41.362 92.2 92.2 92.2s92.2-41.35 92.2-92.2c0-16.87-4.883-32.484-12.824-46.1h117.844c-7.939 13.616-12.821 29.23-12.821 46.1 0 50.849 41.35 92.2 92.2 92.2 50.849 0 92.2-41.35 92.2-92.2 0-50.849-41.35-92.2-92.2-92.2H305.437c-25.425 0-46.1-20.686-46.1-46.1s20.675-46.1 46.1-46.1h414.899c39.865 0 115.25-24.085 115.25-115.25 0-133.201 83.939-212.784 84.749-213.527 9.364-8.609 9.994-23.196 1.373-32.571zM443.736 835.82c0 25.413-20.675 46.1-46.1 46.1s-46.1-20.686-46.1-46.1 20.675-46.1 46.1-46.1 46.1 20.687 46.1 46.1z m276.6 0c0 25.413-20.686 46.1-46.1 46.1-25.413 0-46.1-20.686-46.1-46.1s20.686-46.1 46.1-46.1c25.413 0 46.1 20.687 46.1 46.1z"  /><path fill="#333333" d="M420.686 559.221h276.599a23.072 23.072 0 0 0 16.972-7.451 23.065 23.065 0 0 0 5.988-17.513l-23.05-276.599c-0.99-11.953-10.962-21.137-22.96-21.137h-23.05c0-50.838-41.35-92.2-92.2-92.2-50.838 0-92.2 41.362-92.2 92.2h-23.05c-11.986 0-21.969 9.184-22.971 21.137l-23.05 276.599c-0.529 6.415 1.643 12.786 6.01 17.513a23.034 23.034 0 0 0 16.962 7.451z m138.3-368.8c25.413 0 46.1 20.675 46.1 46.1h-92.2c0-25.424 20.675-46.1 46.1-46.1z m-94.045 92.2h188.091l19.201 230.5H445.74l19.201-230.5z"  /></svg>