<?xml version="1.0" standalone="no"?><!DOCTYPE svg PUBLIC "-//W3C//DTD SVG 1.1//EN" "http://www.w3.org/Graphics/SVG/1.1/DTD/svg11.dtd"><svg class="icon" width="200px" height="200.00px" viewBox="0 0 1024 1024" version="1.1" xmlns="http://www.w3.org/2000/svg"><path fill="#333333" d="M847.713 847.654H758.19a22.32 22.32 0 0 0-13.42 4.481l-83.557 62.662H400.096v-44.762h22.381c12.36 0 22.381-10.01 22.381-22.381v-67.143H512c12.36 0 22.381-10.01 22.381-22.381v-89.523c0-12.371-10.021-22.381-22.381-22.381s-22.381 10.01-22.381 22.381v67.143h-89.523V534.322h213.58l130.329 106.834c4 3.278 9.005 5.071 14.185 5.071h89.523c12.371 0 22.381-10.01 22.381-22.381s-10.01-22.381-22.381-22.381h-81.524L635.86 494.631a22.365 22.365 0 0 0-14.185-5.071H400.096V377.656h290.951a22.386 22.386 0 0 0 19.474-11.354 22.363 22.363 0 0 0-0.284-22.545l-58.16-96.922 99.555-99.545a22.356 22.356 0 0 0 4.852-24.392c-3.453-8.36-11.628-13.813-20.676-13.813H400.096v-22.38c0-12.36-10.021-22.381-22.381-22.381s-22.381 10.021-22.381 22.381v469.998H176.287c-12.36 0-22.381 10.01-22.381 22.381v89.523c0 12.371 10.021 22.381 22.381 22.381v67.143c0 12.371 10.021 22.381 22.381 22.381v67.143c0 12.371 10.021 22.381 22.381 22.381v67.143c0 12.371 10.021 22.381 22.381 22.381h425.236a22.32 22.32 0 0 0 13.42-4.481l83.557-62.662h82.07c12.371 0 22.381-10.01 22.381-22.381s-10.01-22.382-22.381-22.382zM681.78 153.847l-73.699 73.699c-7.256 7.256-8.655 18.534-3.366 27.342l46.794 78.005H400.096V153.847H681.78zM355.334 646.226H198.668v-44.762h156.666v44.762z m0 44.762v44.762H221.049v-44.762h134.285z m44.762 89.523v44.762H243.43v-44.762h156.666zM265.811 914.796v-44.762h89.523v44.762h-89.523z"  /></svg>