<?xml version="1.0" standalone="no"?><!DOCTYPE svg PUBLIC "-//W3C//DTD SVG 1.1//EN" "http://www.w3.org/Graphics/SVG/1.1/DTD/svg11.dtd"><svg class="icon" width="200px" height="200.00px" viewBox="0 0 1024 1024" version="1.1" xmlns="http://www.w3.org/2000/svg"><path fill="#333333" d="M96.571 96.987v369.522h831.424V96.987H96.571z m46.191 323.332V143.178h62.963c-38.502 33.886-62.963 83.372-62.963 138.571s24.461 104.685 62.963 138.571h-62.963z m184.761 0c-76.412 0-138.571-62.158-138.571-138.571s62.158-138.571 138.571-138.571h369.522c76.412 0 138.571 62.158 138.571 138.571s-62.158 138.571-138.571 138.571H327.523z m554.282-138.571v138.571h-62.963c38.502-33.886 62.963-83.372 62.963-138.571s-24.461-104.685-62.963-138.571h62.963v138.571zM188.952 720.555c-50.938 0-92.38 41.431-92.38 92.38v92.38c0 12.766 10.341 23.095 23.095 23.095s23.095-10.33 23.095-23.095v-92.38c0-25.463 20.716-46.19 46.19-46.19s46.19 20.727 46.19 46.19v92.38c0 12.766 10.341 23.095 23.095 23.095s23.095-10.33 23.095-23.095v-92.38c0-50.948-41.442-92.38-92.38-92.38zM396.808 720.555c-50.938 0-92.38 41.431-92.38 92.38v92.38c0 12.766 10.341 23.095 23.095 23.095s23.095-10.33 23.095-23.095v-92.38c0-25.463 20.716-46.19 46.19-46.19s46.19 20.727 46.19 46.19v92.38c0 12.766 10.341 23.095 23.095 23.095s23.095-10.33 23.095-23.095v-92.38c0-50.948-41.442-92.38-92.38-92.38zM627.759 720.555c-50.949 0-92.38 41.431-92.38 92.38v92.38c0 12.766 10.33 23.095 23.095 23.095s23.095-10.33 23.095-23.095v-92.38c0-25.463 20.727-46.19 46.19-46.19s46.19 20.727 46.19 46.19v92.38c0 12.766 10.33 23.095 23.095 23.095 12.766 0 23.095-10.33 23.095-23.095v-92.38c0.001-50.948-41.431-92.38-92.38-92.38z"  /><path fill="#333333" d="M327.523 605.08v92.38c0 12.766 10.341 23.095 23.095 23.095s23.095-10.33 23.095-23.095v-92.38c0-50.949-41.443-92.38-92.38-92.38s-92.38 41.431-92.38 92.38v92.38c0 12.766 10.341 23.095 23.095 23.095s23.095-10.33 23.095-23.095v-92.38c0-25.463 20.716-46.19 46.19-46.19s46.19 20.727 46.19 46.19zM558.474 605.08v92.38c0 12.766 10.33 23.095 23.095 23.095 12.766 0 23.095-10.33 23.095-23.095v-92.38c0-50.949-41.431-92.38-92.38-92.38-50.938 0-92.38 41.431-92.38 92.38v92.38c0 12.766 10.341 23.095 23.095 23.095s23.095-10.33 23.095-23.095v-92.38c0-25.463 20.716-46.19 46.19-46.19 25.463 0 46.19 20.727 46.19 46.19zM812.52 720.555c12.765 0 23.095-10.33 23.095-23.095v-92.38c0-50.949-41.431-92.38-92.38-92.38s-92.38 41.431-92.38 92.38v92.38c0 12.766 10.33 23.095 23.095 23.095 12.765 0 23.095-10.33 23.095-23.095v-92.38c0-25.463 20.727-46.19 46.19-46.19s46.19 20.727 46.19 46.19v92.38c0 12.766 10.33 23.095 23.095 23.095zM835.615 720.555c-50.949 0-92.38 41.431-92.38 92.38v92.38c0 12.766 10.33 23.095 23.095 23.095 12.766 0 23.095-10.33 23.095-23.095v-92.38c0-25.463 20.727-46.19 46.19-46.19 25.463 0 46.19 20.727 46.19 46.19v92.38c0 12.766 10.33 23.095 23.095 23.095 12.766 0 23.095-10.33 23.095-23.095v-92.38c0.001-50.948-41.431-92.38-92.38-92.38z"  /></svg>