<?xml version="1.0" standalone="no"?><!DOCTYPE svg PUBLIC "-//W3C//DTD SVG 1.1//EN" "http://www.w3.org/Graphics/SVG/1.1/DTD/svg11.dtd"><svg class="icon" width="200px" height="200.00px" viewBox="0 0 1024 1024" version="1.1" xmlns="http://www.w3.org/2000/svg"><path fill="#333333" d="M937.813 826.657h-67.215V580.201h22.405c37.065 0 67.215-30.151 67.215-67.215 0-12.384-10.032-22.405-22.405-22.405-12.373 0-22.405 10.021-22.405 22.405 0 12.362-10.054 22.405-22.405 22.405h-7.692l-61.044-61.037c14.509-12.338 23.926-30.493 23.926-50.989 0-12.384-10.032-22.405-22.405-22.405-12.373 0-22.405 10.021-22.405 22.405 0 12.362-10.054 22.405-22.405 22.405h-22.405V333.744h44.81c37.065 0 67.215-30.151 67.215-67.215 0-12.384-10.032-22.405-22.405-22.405-12.373 0-22.405 10.021-22.405 22.405 0 12.362-10.054 22.405-22.405 22.405h-7.692l-72.581-72.575c8.117-11.108 13.058-24.67 13.058-39.451 0-12.384-10.032-22.405-22.405-22.405-12.373 0-22.405 10.021-22.405 22.405 0 12.362-10.054 22.405-22.405 22.405H355.279c-12.351 0-22.405-10.043-22.405-22.405 0-12.384-10.032-22.405-22.405-22.405-12.373 0-22.405 10.021-22.405 22.405 0 16.168 5.972 30.822 15.517 42.429l-69.603 69.596h-13.129c-12.351 0-22.405-10.043-22.405-22.405 0-12.384-10.032-22.405-22.405-22.405-12.373 0-22.405 10.021-22.405 22.405 0 37.065 30.151 67.215 67.215 67.215h44.81V445.77h-22.405c-12.351 0-22.405-10.043-22.405-22.405 0-12.384-10.032-22.405-22.405-22.405-12.373 0-22.405 10.021-22.405 22.405 0 21.883 10.668 41.167 26.904 53.447l-58.585 58.578h-13.129c-12.351 0-22.405-10.043-22.405-22.405 0-12.384-10.032-22.405-22.405-22.405s-22.405 10.021-22.405 22.405c0 37.065 30.151 67.215 67.215 67.215h22.405v246.456H86.418c-12.373 0-22.405 10.021-22.405 22.405s10.032 22.405 22.405 22.405h851.395c12.373 0 22.405-10.021 22.405-22.405s-10.032-22.404-22.405-22.404z m-112.026 0h-44.81V580.201h44.81v246.456zM512.115 692.226c-12.351 0-22.405-10.043-22.405-22.405 0-12.362 10.054-22.405 22.405-22.405s22.405 10.043 22.405 22.405c0 12.362-10.054 22.405-22.405 22.405z m86.44 134.431h-172.88c10.02-38.548 44.803-67.215 86.44-67.215s76.42 28.667 86.44 67.215z m-44.079-105.081c15.043-12.336 24.854-30.826 24.854-51.754 0-37.065-30.151-67.215-67.215-67.215S444.9 632.756 444.9 669.821c0 20.928 9.812 39.418 24.854 51.754-46.525 15.503-81.716 55.746-90.046 105.081h-91.644V580.201h448.103v246.456h-91.644c-8.33-49.335-43.522-89.578-90.047-105.081zM713.761 445.77h-44.81V333.744h44.81V445.77z m-89.62-112.026V445.77H400.09V333.744h224.051z m-281.98-89.62h345.346l44.816 44.81H297.345l44.816-44.81z m-31.692 89.62h44.81V445.77h-44.81V333.744zM252.54 490.58h524.587l44.816 44.81H207.724l44.816-44.81z m-54.097 89.621h44.81v246.456h-44.81V580.201z"  /></svg>