<?xml version="1.0" standalone="no"?><!DOCTYPE svg PUBLIC "-//W3C//DTD SVG 1.1//EN" "http://www.w3.org/Graphics/SVG/1.1/DTD/svg11.dtd"><svg class="icon" width="200px" height="200.00px" viewBox="0 0 1024 1024" version="1.1" xmlns="http://www.w3.org/2000/svg"><path fill="#333333" d="M710.144 85.504A25.6 25.6 0 0 0 691.2 76.8H332.8a25.6 25.6 0 0 0-25.6 29.184l78.336 684.8a25.6 25.6 0 0 0 0 3.584V921.6a25.6 25.6 0 0 0 25.6 25.6h199.424a25.6 25.6 0 0 0 25.6-25.6v-132.352L716.8 105.984a25.6 25.6 0 0 0-6.656-20.48z m-51.2 71.424h-40.704V128h43.008z m-194.816 0V128h102.4v28.928zM410.88 128v28.928h-45.056L362.752 128zM371.2 204.8h281.6L588.8 761.6h-153.6z m214.784 687.872a74.496 74.496 0 0 0-74.24-51.2 76.8 76.8 0 0 0-72.96 47.872v-75.52h147.2z m-43.776 3.328h-60.672a40.96 40.96 0 0 1 60.672 0z"  /><path fill="#333333" d="M584.192 439.296a25.6 25.6 0 0 0 25.6-25.6v-147.712a25.6 25.6 0 0 0-25.6-25.6h-147.2a25.6 25.6 0 0 0-25.6 25.6v147.2a25.6 25.6 0 0 0 25.6 25.6z m-121.088-147.2h94.976v94.976h-94.976z"  /></svg>