<?xml version="1.0" standalone="no"?><!DOCTYPE svg PUBLIC "-//W3C//DTD SVG 1.1//EN" "http://www.w3.org/Graphics/SVG/1.1/DTD/svg11.dtd"><svg class="icon" width="200px" height="200.00px" viewBox="0 0 1024 1024" version="1.1" xmlns="http://www.w3.org/2000/svg"><path fill="#333333" d="M771.072 393.984h-128v-68.096a28.16 28.16 0 0 0-28.16-28.16h-8.192V104.96A28.16 28.16 0 0 0 578.56 76.8h-134.4a28.16 28.16 0 0 0-28.16 28.16v192.512h-13.312a28.16 28.16 0 0 0-28.16 28.16v68.096H252.928a28.16 28.16 0 0 0-28.16 28.16V919.04a28.16 28.16 0 0 0 28.16 28.16h518.144a28.16 28.16 0 0 0 28.16-28.16V422.144a28.16 28.16 0 0 0-28.16-28.16zM550.4 133.376V186.88c-25.6-8.96-59.136-22.528-76.8-30.72v-22.784z m-76.8 84.224c22.784 9.472 54.016 21.504 76.8 28.672v51.2h-76.8zM742.4 890.624H281.6V450.56h121.344a28.16 28.16 0 0 0 28.16-28.16v-68.352h49.92v119.552h-144.896A28.16 28.16 0 0 0 307.2 501.76v337.664a28.16 28.16 0 0 0 28.16 28.16h352.512a28.16 28.16 0 0 0 28.16-28.16V501.76a28.16 28.16 0 0 0-28.16-28.16H537.6v-119.552h49.92v68.096A28.16 28.16 0 0 0 614.4 450.56h128z m-233.728-107.776a28.16 28.16 0 0 0 28.16-28.16v-224.512h122.368v281.6H364.288v-281.6h116.48v224.512a28.16 28.16 0 0 0 28.16 28.16z"  /></svg>