<?xml version="1.0" standalone="no"?><!DOCTYPE svg PUBLIC "-//W3C//DTD SVG 1.1//EN" "http://www.w3.org/Graphics/SVG/1.1/DTD/svg11.dtd"><svg class="icon" width="200px" height="200.00px" viewBox="0 0 1024 1024" version="1.1" xmlns="http://www.w3.org/2000/svg"><path fill="#333333" d="M745.728 444.672v-2.56a245.248 245.248 0 0 0-369.152-256l-4.864 3.072a245.248 245.248 0 1 0 373.248 254.464z m-60.16-48.64v4.096a369.92 369.92 0 0 1-190.976-103.936 448.512 448.512 0 0 1-56.064-67.584 179.2 179.2 0 0 1 247.04 167.168z m-360.448 0a179.2 179.2 0 0 1 58.88-132.096 460.8 460.8 0 0 0 288.768 200.448 179.2 179.2 0 0 1-347.648-68.096zM425.728 798.464h156.16a32.512 32.512 0 1 0 0-65.024h-156.16a32.512 32.512 0 1 0 0 65.024z"  /><path fill="#333333" d="M844.8 768c0-38.4-36.864-66.56-112.384-85.76-15.872-4.096-33.024-7.68-51.2-10.496a326.144 326.144 0 1 0-348.416 0.768c-14.336 2.56-27.904 5.632-40.704 8.704C216.064 700.672 179.2 728.576 179.2 768v5.632a32.768 32.768 0 0 0 0 4.096V844.8c0 38.4 36.864 66.56 112.384 85.76a930.56 930.56 0 0 0 220.416 23.552 930.56 930.56 0 0 0 220.416-23.552c76.8-19.456 112.384-47.36 112.384-85.76v-67.84a32.768 32.768 0 0 0 0-4.096V768zM244.224 396.288a260.864 260.864 0 1 1 261.12 260.864 261.376 261.376 0 0 1-261.12-260.864z m80.128 344.064a919.808 919.808 0 0 1 187.648-17.408 919.552 919.552 0 0 1 187.648 17.664 228.352 228.352 0 0 1 75.52 25.6 228.352 228.352 0 0 1-75.52 25.6 919.552 919.552 0 0 1-187.648 17.664 919.808 919.808 0 0 1-187.648-15.872 228.352 228.352 0 0 1-75.52-25.6 228.352 228.352 0 0 1 75.52-27.648zM699.648 870.4a919.552 919.552 0 0 1-187.648 17.664 919.808 919.808 0 0 1-187.648-17.664 184.832 184.832 0 0 1-80.128-30.208v-3.328a358.4 358.4 0 0 0 47.36 15.36 930.56 930.56 0 0 0 220.416 23.552 930.56 930.56 0 0 0 220.416-23.552 358.4 358.4 0 0 0 47.36-15.36v3.328A184.832 184.832 0 0 1 699.648 870.4z"  /></svg>