<?xml version="1.0" standalone="no"?><!DOCTYPE svg PUBLIC "-//W3C//DTD SVG 1.1//EN" "http://www.w3.org/Graphics/SVG/1.1/DTD/svg11.dtd"><svg class="icon" width="200px" height="200.00px" viewBox="0 0 1024 1024" version="1.1" xmlns="http://www.w3.org/2000/svg"><path fill="#333333" d="M668.390821 499.284479h-8.44664V31.903727a31.73889 31.73889 0 0 0-54.263264-22.524373l-242.648933 238.297634a31.73889 31.73889 0 0 0-9.470475 22.780332v229.083118A38.13786 38.13786 0 0 0 317.471319 537.678298v448.183842A38.13786 38.13786 0 0 0 355.609179 1024h312.781642a38.13786 38.13786 0 0 0 38.13786-38.13786V537.678298a38.13786 38.13786 0 0 0-38.13786-38.393819z m-25.595879 63.47778v232.9225c-113.389744-45.304706-200.927651-172.516225-237.273799-232.9225z m-225.755653-278.995082l179.171153-176.099647v385.217979h-179.171153z m-35.834231 676.755043V642.621402c52.98347 76.787637 144.616717 184.290329 261.845843 220.636477v97.264341z"  /></svg>