<?xml version="1.0" standalone="no"?><!DOCTYPE svg PUBLIC "-//W3C//DTD SVG 1.1//EN" "http://www.w3.org/Graphics/SVG/1.1/DTD/svg11.dtd"><svg class="icon" width="200px" height="200.00px" viewBox="0 0 1024 1024" version="1.1" xmlns="http://www.w3.org/2000/svg"><path fill="#333333" d="M455.936 502.272h-66.048v-185.6h33.28a21.248 21.248 0 1 0 0-42.24h-33.28v-16.896h16.384a21.248 21.248 0 1 0 0-42.24h-16.384v-17.408h8.96a21.248 21.248 0 0 0 0-42.24h-8.96v-17.152h4.352a21.248 21.248 0 1 0 0-42.24h-4.864a23.808 23.808 0 0 0-46.848 0h-4.864a21.248 21.248 0 0 0 0 42.24h4.352v16.896H332.8a21.248 21.248 0 0 0 0 42.24h8.96v17.408h-16.384a21.248 21.248 0 1 0 0 42.24h16.384v16.896h-33.28a21.248 21.248 0 0 0 0 42.24h33.28v185.6h-58.88a25.6 25.6 0 0 0-25.6 25.6v353.28a63.488 63.488 0 0 0 55.552 62.976 472.064 472.064 0 0 0 114.688 0 63.488 63.488 0 0 0 55.552-62.976V528.64a25.6 25.6 0 0 0-27.136-26.368z m-25.6 378.624a10.496 10.496 0 0 1-9.216 10.24 419.072 419.072 0 0 1-102.4 0 10.496 10.496 0 0 1-9.216-10.24V555.264h120.064zM741.12 335.36h-13.312v-16.128h2.816a23.808 23.808 0 0 0 0-47.616h-2.816V232.96a23.808 23.808 0 0 0-23.808-23.808h-95.488a23.808 23.808 0 0 0-23.808 23.808v38.656h-11.776a23.808 23.808 0 1 0 0 47.616h11.776v16.128h-16.64a25.6 25.6 0 0 0-25.6 25.6v519.936a63.488 63.488 0 0 0 55.552 62.976 472.064 472.064 0 0 0 114.688 0A63.488 63.488 0 0 0 768 880.896V361.984a25.6 25.6 0 0 0-26.88-26.624zM632.576 256h47.616v14.848h-47.616z m0 62.464h47.616v16.128h-47.616z m82.176 561.408a10.496 10.496 0 0 1-9.216 10.24 419.072 419.072 0 0 1-102.4 0 10.496 10.496 0 0 1-9.216-10.24v-491.52h120.064z"  /></svg>