<?xml version="1.0" standalone="no"?><!DOCTYPE svg PUBLIC "-//W3C//DTD SVG 1.1//EN" "http://www.w3.org/Graphics/SVG/1.1/DTD/svg11.dtd"><svg class="icon" width="200px" height="200.00px" viewBox="0 0 1024 1024" version="1.1" xmlns="http://www.w3.org/2000/svg"><path fill="#333333" d="M950.016 209.664L870.4 62.72a22.272 22.272 0 0 0-37.632-2.56L716.8 216.064a32 32 0 0 0-22.272 9.728l-121.856 125.184a32 32 0 1 0-45.312 45.312L91.904 844.8a75.008 75.008 0 0 0 1.536 104.704 76.8 76.8 0 0 0 53.76 22.272 72.96 72.96 0 0 0 51.2-20.48l449.024-436.224a32 32 0 1 0 46.336-44.032l125.44-122.368a32 32 0 0 0 9.728-22.784v-2.56l115.712-84.992a22.272 22.272 0 0 0 5.376-28.672zM153.6 906.496a11.52 11.52 0 0 1-15.872-15.872l435.2-448.256 27.904 27.904z m494.336-481.28l-29.184-29.184 99.84-102.4 31.744 31.744z m153.6-138.496l-7.936-8.448L843.264 230.4a22.272 22.272 0 1 0-30.976-32.512l-51.2 47.872-6.4-6.4 92.416-124.16 54.016 98.816z"  /></svg>