<?xml version="1.0" standalone="no"?><!DOCTYPE svg PUBLIC "-//W3C//DTD SVG 1.1//EN" "http://www.w3.org/Graphics/SVG/1.1/DTD/svg11.dtd"><svg class="icon" width="200px" height="200.00px" viewBox="0 0 1024 1024" version="1.1" xmlns="http://www.w3.org/2000/svg"><path fill="#333333" d="M581.376 334.08V222.464a30.208 30.208 0 0 0-30.208-30.208H537.6v-76.8h118.272L755.2 186.88a30.208 30.208 0 1 0 35.328-48.896l-106.752-76.8a30.208 30.208 0 0 0-18.176-5.888H257.792a30.208 30.208 0 0 0 0 60.16H332.8v76.8h-13.312a30.208 30.208 0 0 0-30.208 30.208v112.128A204.8 204.8 0 0 0 153.6 527.36v411.136a30.208 30.208 0 0 0 30.208 30.208h504.32a30.208 30.208 0 0 0 30.208-30.208V527.36a204.8 204.8 0 0 0-136.96-193.28z m-188.928-218.624h85.248v76.8h-85.248z m-43.52 137.216h172.032v69.888h-172.032z m0 130.304h172.8a144.896 144.896 0 0 1 135.68 144.384v190.72c-207.872-38.144-398.592-222.208-429.824-253.44A144.896 144.896 0 0 1 349.44 384zM213.76 908.544V534.528c71.68 66.816 248.32 213.248 444.16 244.736v128z"  /><path fill="#333333" d="M785.92 227.328c-55.808 0-84.48 87.04-84.48 124.16a84.48 84.48 0 1 0 168.96 0c0-37.376-28.672-124.16-84.48-124.16z m0 148.224a25.6 25.6 0 0 1-24.064-24.064 117.504 117.504 0 0 1 24.064-62.208 117.504 117.504 0 0 1 24.064 62.208 25.6 25.6 0 0 1-24.064 24.064z"  /></svg>