<?xml version="1.0" standalone="no"?><!DOCTYPE svg PUBLIC "-//W3C//DTD SVG 1.1//EN" "http://www.w3.org/Graphics/SVG/1.1/DTD/svg11.dtd"><svg class="icon" width="200px" height="200.00px" viewBox="0 0 1024 1024" version="1.1" xmlns="http://www.w3.org/2000/svg"><path fill="#333333" d="M846.592 783.616a148.992 148.992 0 0 0-29.952-112.64c26.88-59.136 0-136.448-3.328-145.92a28.416 28.416 0 0 0-52.736-1.792 148.736 148.736 0 0 1-31.232 25.6 117.504 117.504 0 0 1-93.696 13.824 246.272 246.272 0 0 0-65.792-4.096v-209.92a100.608 100.608 0 0 0-76.8-97.792V204.8a28.416 28.416 0 0 0-28.416-28.416h-8.96V105.216A28.416 28.416 0 0 0 426.752 76.8h-146.944a28.416 28.416 0 0 0-28.416 28.416v72.192h-11.264A28.416 28.416 0 0 0 211.712 204.8v46.336a100.608 100.608 0 0 0-76.8 97.28v567.296A31.488 31.488 0 0 0 167.424 947.2h632.064a88.576 88.576 0 0 0 47.104-163.584z m-219.904-165.12a173.056 173.056 0 0 0 131.84-21.248l10.752-7.168a96.512 96.512 0 0 1-10.752 66.816 28.416 28.416 0 0 0 0 35.072 259.072 259.072 0 0 1-165.888-61.44A25.6 25.6 0 0 0 559.104 665.6 311.552 311.552 0 0 0 768 742.4h20.48a69.376 69.376 0 0 1 2.048 28.672h-307.2c7.424-58.624 28.16-140.032 68.096-150.784a162.048 162.048 0 0 1 75.264-1.536zM506.88 348.672v76.8a678.4 678.4 0 0 1-148.48-114.176h110.08a37.376 37.376 0 0 1 38.4 37.376z m-238.336-114.432H435.2v13.824h-166.656zM307.2 133.632h90.112v43.776H307.2z m-109.056 215.04a37.376 37.376 0 0 1 37.376-37.376h43.008c36.608 38.656 142.592 144.64 227.584 174.336v92.928c-58.112 40.448-76.8 142.848-81.152 194.048a88.576 88.576 0 0 0-65.28 111.616H199.168z m601.344 535.296H445.184a25.6 25.6 0 0 1 0-51.2h354.304a25.6 25.6 0 1 1 0 51.2z"  /></svg>