<?xml version="1.0" standalone="no"?><!DOCTYPE svg PUBLIC "-//W3C//DTD SVG 1.1//EN" "http://www.w3.org/Graphics/SVG/1.1/DTD/svg11.dtd"><svg class="icon" width="200px" height="200.00px" viewBox="0 0 1024 1024" version="1.1" xmlns="http://www.w3.org/2000/svg"><path fill="#333333" d="M839.936 149.504a22.272 22.272 0 0 0-31.488-3.84L764.672 179.2a602.368 602.368 0 0 0-378.88-87.04 22.272 22.272 0 0 0-17.664 14.08l-47.616-9.984a20.992 20.992 0 0 0-25.6 16.896l-15.104 82.688a20.992 20.992 0 0 0 16.384 25.6l67.072 14.08a230.4 230.4 0 0 1-80.128 145.408 267.264 267.264 0 0 1-88.064 51.2 22.272 22.272 0 0 0 12.288 43.008 307.2 307.2 0 0 0 102.4-58.112 277.248 277.248 0 0 0 92.16-150.272l80.128 25.6v43.008h-14.08a22.272 22.272 0 0 0-22.272 22.272v79.36a259.584 259.584 0 0 0-46.336 450.816h-9.728a23.808 23.808 0 0 0 0 47.36h329.984a23.808 23.808 0 0 0 0-47.36h-20.224a259.584 259.584 0 0 0-46.848-450.816V358.4a22.272 22.272 0 0 0-19.456-22.272 22.272 22.272 0 0 0 10.752-4.608l135.424-106.24 56.576-44.288a22.272 22.272 0 0 0 4.096-31.488zM332.8 141.824l33.792 6.912v42.752l-41.216-8.704z m195.072 132.096v-20.48a23.552 23.552 0 0 1 46.848 0v81.92h-46.592z m91.904 58.88H625.92h-6.4z m137.216 341.76a207.104 207.104 0 1 1-225.536-206.336v114.688h-115.712a23.808 23.808 0 0 0-20.736 12.288 156.672 156.672 0 0 0-18.688 81.152 173.568 173.568 0 1 0 327.168-80.896 23.808 23.808 0 0 0-20.992-12.544h-102.4v-112.64a207.36 207.36 0 0 1 176.896 205.056z m-201.728 88.832a23.808 23.808 0 0 0 23.808-23.808v-108.288h88.576a124.928 124.928 0 0 1 8.704 46.08 126.208 126.208 0 1 1-245.248-45.824h100.608v109.312a23.808 23.808 0 0 0 23.552 23.552z m-5.376-348.672a260.352 260.352 0 0 0-45.312 3.84h-13.056v-38.4h116.224v39.424h-12.8a260.352 260.352 0 0 0-45.056-3.84z m76.8-128l-6.144-2.048V253.44a68.352 68.352 0 0 0-135.68-10.496L409.6 219.392c0-11.008 1.28-22.528 0-34.304v-51.2a569.088 569.088 0 0 1 317.44 75.52z"  /></svg>