<?xml version="1.0" standalone="no"?><!DOCTYPE svg PUBLIC "-//W3C//DTD SVG 1.1//EN" "http://www.w3.org/Graphics/SVG/1.1/DTD/svg11.dtd"><svg class="icon" width="200px" height="200.00px" viewBox="0 0 1024 1024" version="1.1" xmlns="http://www.w3.org/2000/svg"><path fill="#333333" d="M890.88 492.544a27.904 27.904 0 0 0 27.904-27.904v-215.04a27.904 27.904 0 0 0-27.904-27.904H359.936A27.904 27.904 0 0 0 332.8 249.6v215.04a27.904 27.904 0 0 0 27.904 27.904h87.296v16.896h-88.064A27.904 27.904 0 0 0 332.8 537.6v215.04a27.904 27.904 0 0 0 27.904 27.904H890.88a27.904 27.904 0 0 0 28.16-27.904V537.6a27.904 27.904 0 0 0-27.904-27.904h-83.456v-16.896z m-503.04-215.04h475.136v159.232H387.84z m475.136 447.232H387.84v-159.232h475.136z m-111.104-215.04h-247.808v-16.896h247.808z"  /><path fill="#333333" d="M471.552 574.208a70.144 70.144 0 1 0 70.144 70.144 70.4 70.4 0 0 0-70.144-70.144z m0 97.024a25.6 25.6 0 1 1 25.6-25.6 25.6 25.6 0 0 1-25.6 25.344zM625.408 574.208a70.144 70.144 0 1 0 70.144 70.144 70.4 70.4 0 0 0-70.144-70.144z m0 97.024a25.6 25.6 0 1 1 25.6-25.6 25.6 25.6 0 0 1-25.6 25.344zM711.424 644.352a70.144 70.144 0 1 0 70.144-70.144 70.4 70.4 0 0 0-70.144 70.144z m70.144-25.6a25.6 25.6 0 1 1-25.6 25.6 25.6 25.6 0 0 1 25.6-26.624zM342.784 112.64a27.904 27.904 0 0 0-25.6-35.84H133.12a27.904 27.904 0 0 0-25.6 36.352l40.448 131.84a69.12 69.12 0 0 0-5.12 25.6L153.6 919.552A27.904 27.904 0 0 0 181.76 947.2h88.32a27.904 27.904 0 0 0 27.904-27.648l10.752-647.936a69.12 69.12 0 0 0-5.12-25.6z m-92.672 150.784a13.312 13.312 0 0 1 2.304 7.168l-1.28 76.8h-51.2l-1.28-76.8a13.312 13.312 0 0 1 1.536-5.888l1.792-2.816a13.312 13.312 0 0 1 9.984-4.608h27.392a13.312 13.312 0 0 1 10.752 6.144zM201.216 404.48h49.152v25.6H201.472z m76.8-271.616L257.28 204.8a69.12 69.12 0 0 0-17.92-2.304H212.224a69.12 69.12 0 0 0-18.432 2.56l-22.528-72.192zM209.152 891.136L202.496 486.4h46.592l-6.656 404.736z"  /></svg>