<?xml version="1.0" standalone="no"?><!DOCTYPE svg PUBLIC "-//W3C//DTD SVG 1.1//EN" "http://www.w3.org/Graphics/SVG/1.1/DTD/svg11.dtd"><svg class="icon" width="200px" height="200.00px" viewBox="0 0 1024 1024" version="1.1" xmlns="http://www.w3.org/2000/svg"><path fill="#333333" d="M931.84 218.88a29.44 29.44 0 0 0-41.728 0c-32.256 32.256-76.8 0-81.408-2.56l-2.048-1.536a66.56 66.56 0 0 0-8.192-29.696 60.416 60.416 0 0 0-41.472-28.928 65.024 65.024 0 0 0-65.792 15.872 76.8 76.8 0 0 0-12.288 19.2H151.552a68.096 68.096 0 0 0-68.096 68.096v51.2a29.44 29.44 0 0 0 29.44 29.44H537.6a67.584 67.584 0 0 0 67.84-62.208l2.304-25.6h51.2c-20.736 57.088-74.752 189.184-132.352 259.584-51.2 61.952-163.584 148.736-211.712 185.6-19.968 15.36-25.6 19.712-28.672 22.784-23.552 22.016-56.832 75.008-17.408 122.368A80.128 80.128 0 0 0 327.168 870.4H332.8a163.072 163.072 0 0 0 102.4-48.896l18.176-16.384C524.032 742.4 716.8 572.672 768 367.36l25.6-91.136a140.544 140.544 0 0 0 62.72 15.872 102.4 102.4 0 0 0 75.008-31.744 29.44 29.44 0 0 0 0.512-41.472z m-386.048 52.736a8.96 8.96 0 0 1-8.96 8.448H142.336v-20.736a9.216 9.216 0 0 1 9.216-9.216h396.032z m-153.6 507.392a100.096 100.096 0 0 1-62.208 32.512 21.504 21.504 0 0 1-16.128-8.704c-13.568-16.384 11.52-40.704 12.8-41.728l23.296-18.176 25.6-19.456 37.376 37.376c-9.216 7.168-15.872 13.568-20.224 17.92z m354.304-550.4l-34.048 122.112c-39.168 153.6-173.056 292.608-254.464 368.128l-34.816-34.816a1123.584 1123.584 0 0 0 149.504-138.752c72.96-88.832 136.96-258.56 150.016-299.008l1.792-5.888a168.448 168.448 0 0 1 11.008-29.44 39.168 39.168 0 0 1 9.216 0h2.816a28.416 28.416 0 0 1-1.024 17.664z"  /></svg>