<?xml version="1.0" standalone="no"?><!DOCTYPE svg PUBLIC "-//W3C//DTD SVG 1.1//EN" "http://www.w3.org/Graphics/SVG/1.1/DTD/svg11.dtd"><svg class="icon" width="200px" height="200.00px" viewBox="0 0 1024 1024" version="1.1" xmlns="http://www.w3.org/2000/svg"><path fill="#333333" d="M367.104 745.728h288a38.656 38.656 0 0 0 38.656-38.656V214.784a38.656 38.656 0 0 0-38.656-38.656H367.104a38.656 38.656 0 0 0-38.656 38.656v492.288a38.656 38.656 0 0 0 38.656 38.656z m72.96-64.256l189.44-189.44v189.44z m189.44-281.6l-236.8 237.568v-215.04l181.76-181.76h54.784z m-145.92-159.232l-90.624 90.624V240.64z"  /><path fill="#333333" d="M810.752 326.656H793.6V166.912A90.112 90.112 0 0 0 702.976 76.8h-384a90.112 90.112 0 0 0-89.856 90.112v159.744h-14.848A86.016 86.016 0 0 0 128 412.672v3.584a32 32 0 0 0 0 11.264v342.528A177.408 177.408 0 0 0 305.664 947.2H719.36a177.408 177.408 0 0 0 176.64-177.152v-358.4a86.016 86.016 0 0 0-85.248-84.992z m21.504 92.672z m-21.504-28.16a21.504 21.504 0 0 1 21.504 21.504v5.376a12.288 12.288 0 0 1-3.072 3.84 51.2 51.2 0 0 1-35.84 8.192v-38.912zM293.376 166.912a25.6 25.6 0 0 1 25.6-25.6h384a25.6 25.6 0 0 1 25.6 25.6v588.8a25.6 25.6 0 0 1-25.6 25.6h-384a25.6 25.6 0 0 1-25.6-25.6z m-79.104 224.256h14.848v39.168a46.848 46.848 0 0 1-36.352-10.24v-7.424a21.504 21.504 0 0 1 21.504-21.504zM719.36 882.944H305.664a113.152 113.152 0 0 1-112.896-112.896V490.496a149.248 149.248 0 0 0 36.096 4.096v260.352A90.112 90.112 0 0 0 319.232 844.8h384A90.112 90.112 0 0 0 793.6 754.944V494.592h1.792a147.968 147.968 0 0 0 37.376-4.352v279.808a113.152 113.152 0 0 1-113.408 112.896z"  /></svg>