<?xml version="1.0" standalone="no"?><!DOCTYPE svg PUBLIC "-//W3C//DTD SVG 1.1//EN" "http://www.w3.org/Graphics/SVG/1.1/DTD/svg11.dtd"><svg class="icon" width="200px" height="200.00px" viewBox="0 0 1024 1024" version="1.1" xmlns="http://www.w3.org/2000/svg"><path fill="#333333" d="M898.773333 893.866667a597.013333 597.013333 0 0 1-228.906666-155.52c18.986667-40.533333 29.226667-85.12 29.226666-130.133334 0-33.706667-5.546667-66.56-16.213333-98.133333a29.589333 29.589333 0 0 0-37.333333-18.56c-15.573333 5.333333-23.893333 21.973333-18.56 37.546667 8.533333 25.386667 13.013333 52.053333 13.013333 79.146666 0 26.666667-4.693333 52.906667-13.226667 78.08a595.84 595.84 0 0 1-76.373333-141.44 266.026667 266.026667 0 0 0 82.133333-192.64c0-148.053333-120.32-268.373333-268.16-268.373333-148.053333 0-268.373333 120.32-268.373333 268.373333 0 147.84 120.32 268.16 268.373333 268.16 50.346667 0 97.493333-13.866667 137.813334-38.186666 16.213333 39.466667 36.053333 77.44 59.52 112.853333-49.706667 1.92-100.053333-10.88-142.293334-37.76-13.653333-8.746667-32-4.693333-40.746666 9.173333-8.746667 13.653333-4.693333 32 9.173333 40.746667a305.109333 305.109333 0 0 0 214.186667 43.093333c71.253333 87.253333 164.906667 156.586667 274.773333 198.4a29.546667 29.546667 0 0 0 21.973333-54.826666zM480.213333 520.32a202.112 202.112 0 0 1-115.84 36.053333c-112.64 0-204.373333-91.52-204.373333-204.16s91.733333-204.373333 204.373333-204.373333 204.16 91.733333 204.16 204.373333c0 13.226667-1.28 26.24-3.626666 38.826667l-3.84 3.2c-13.226667 10.453333-27.733333 18.773333-42.666667 25.173333-18.56 7.68-37.973333 12.373333-57.813333 13.653334-34.986667 2.773333-70.826667-4.693333-103.04-22.613334a188.16 188.16 0 0 1-31.36-21.973333l-1.92-1.493333c-9.173333-8.32-14.506667-19.626667-15.36-32-0.64-12.373333 3.413333-24.533333 11.733333-33.706667 8.32-9.386667 19.84-14.933333 32.213333-15.786667 25.813333-1.28 48 18.133333 49.493334 43.946667 1.066667 17.493333 16 31.146667 33.92 29.866667 6.826667-0.426667 13.013333-2.986667 17.92-7.04 7.893333-6.186667 12.586667-16 11.946666-26.666667-0.853333-16.213333-5.333333-31.146667-12.373333-44.586667-19.84-37.546667-60.16-62.08-104.746667-59.306666-29.653333 1.706667-56.533333 14.933333-76.16 37.12a109.973333 109.973333 0 0 0-27.733333 80c1.706667 29.866667 15.786667 57.813333 38.186667 77.226666 13.44 11.733333 27.946667 21.973333 43.093333 30.506667 37.973333 20.906667 79.36 31.36 120.746667 31.36 8.746667 0 17.706667-0.426667 26.453333-1.706667 14.72-1.28 29.226667-4.266667 43.52-8.746666-10.666667 12.373333-23.253333 23.466667-36.906667 32.853333z" /></svg>