<?xml version="1.0" standalone="no"?><!DOCTYPE svg PUBLIC "-//W3C//DTD SVG 1.1//EN" "http://www.w3.org/Graphics/SVG/1.1/DTD/svg11.dtd"><svg class="icon" width="200px" height="200.00px" viewBox="0 0 1024 1024" version="1.1" xmlns="http://www.w3.org/2000/svg"><path fill="#333333" d="M842.666667 352h-19.008L781.866667 184.874667A117.141333 117.141333 0 0 0 668.032 96H353.301333a117.162667 117.162667 0 0 0-113.834666 88.896L197.696 352H181.333333A117.482667 117.482667 0 0 0 64 469.333333v149.333334c0 64.682667 52.650667 117.333333 117.333333 117.333333h661.333334c64.682667 0 117.333333-52.650667 117.333333-117.333333v-149.333334c0-64.682667-52.650667-117.333333-117.333333-117.333333zM301.546667 200.426667A53.269333 53.269333 0 0 1 353.301333 160h314.752c24.512 0 45.781333 16.618667 51.754667 40.405333l37.888 151.594667H263.637333l37.909334-151.573333zM896 618.666667c0 29.418667-23.914667 53.333333-53.333333 53.333333h-661.333334A53.376 53.376 0 0 1 128 618.666667v-149.333334c0-29.418667 23.914667-53.333333 53.333333-53.333333H842.666667c29.418667 0 53.333333 23.914667 53.333333 53.333333v149.333334zM293.333333 448c-52.928 0-96 43.072-96 96s43.072 96 96 96 96-43.072 96-96-43.072-96-96-96z m0 128c-17.642667 0-32-14.357333-32-32s14.357333-32 32-32 32 14.357333 32 32-14.357333 32-32 32zM730.666667 448c-52.928 0-96 43.072-96 96s43.072 96 96 96 96-43.072 96-96-43.072-96-96-96z m0 128c-17.642667 0-32-14.357333-32-32s14.357333-32 32-32 32 14.357333 32 32-14.357333 32-32 32zM277.333333 778.666667a32 32 0 0 0-32 32v85.333333a32 32 0 0 0 64 0v-85.333333a32 32 0 0 0-32-32zM746.666667 778.666667a32 32 0 0 0-32 32v85.333333a32 32 0 0 0 64 0v-85.333333a32 32 0 0 0-32-32z" /></svg>