<?xml version="1.0" standalone="no"?><!DOCTYPE svg PUBLIC "-//W3C//DTD SVG 1.1//EN" "http://www.w3.org/Graphics/SVG/1.1/DTD/svg11.dtd"><svg class="icon" width="200px" height="200.00px" viewBox="0 0 1024 1024" version="1.1" xmlns="http://www.w3.org/2000/svg"><path fill="#333333" d="M725.333333 234.666667h-33.28c-10.453333-90.026667-87.253333-160-180.053333-160s-169.6 69.973333-180.053333 160H298.666667a117.546667 117.546667 0 0 0-117.333334 117.333333v469.333333c0 64.64 52.693333 117.333333 117.333334 117.333334h426.666666c64.64 0 117.333333-52.693333 117.333334-117.333334v-469.333333c0-64.64-52.693333-117.333333-117.333334-117.333333zM512 138.666667c57.386667 0 105.386667 41.6 115.413333 96H396.586667c10.026667-54.4 58.026667-96 115.413333-96z m266.666667 682.666666A53.333333 53.333333 0 0 1 725.333333 874.666667H298.666667a53.333333 53.333333 0 0 1-53.333334-53.333334v-469.333333A53.333333 53.333333 0 0 1 298.666667 298.666667h426.666666a53.333333 53.333333 0 0 1 53.333334 53.333333v469.333333zM597.333333 446.506667h-170.666666a96.106667 96.106667 0 0 0-96 96v42.666666c0 52.928 43.072 96 96 96h170.666666c52.928 0 96-43.072 96-96v-42.666666c0-52.928-43.072-96-96-96z m32 138.688c0 17.642667-14.357333 32-32 32h-170.666666c-17.642667 0-32-14.357333-32-32v-42.666667c0-17.642667 14.357333-32 32-32h170.666666c17.642667 0 32 14.357333 32 32v42.666667z" /></svg>