<?xml version="1.0" standalone="no"?><!DOCTYPE svg PUBLIC "-//W3C//DTD SVG 1.1//EN" "http://www.w3.org/Graphics/SVG/1.1/DTD/svg11.dtd"><svg class="icon" width="200px" height="200.00px" viewBox="0 0 1024 1024" version="1.1" xmlns="http://www.w3.org/2000/svg"><path fill="#333333" d="M842.666667 138.666667h-512A117.546667 117.546667 0 0 0 213.333333 256v53.333333H169.813333C111.573333 309.333333 64 356.906667 64 415.146667v364.373333c0 58.24 47.573333 105.813333 105.813333 105.813333H842.666667c64.64 0 117.333333-52.693333 117.333333-117.333333V256c0-64.64-52.693333-117.333333-117.333333-117.333333z m-672.853334 682.666666C146.773333 821.333333 128 802.56 128 779.52V415.146667c0-23.04 18.773333-41.813333 41.813333-41.813334H213.333333v448H169.813333zM896 768a53.333333 53.333333 0 0 1-53.333333 53.333333H277.333333V256a53.333333 53.333333 0 0 1 53.333334-53.333333h512A53.333333 53.333333 0 0 1 896 256v512zM501.333333 437.333333h-85.333333a32 32 0 0 1 0-64h85.333333a32 32 0 0 1 0 64zM757.333333 437.333333h-170.666666a32 32 0 0 1 0-64h170.666666a32 32 0 0 1 0 64zM757.333333 544h-341.333333a32 32 0 0 1 0-64h341.333333a32 32 0 0 1 0 64zM757.333333 650.666667h-341.333333a32 32 0 0 1 0-64h341.333333a32 32 0 0 1 0 64z" /></svg>