<?xml version="1.0" standalone="no"?><!DOCTYPE svg PUBLIC "-//W3C//DTD SVG 1.1//EN" "http://www.w3.org/Graphics/SVG/1.1/DTD/svg11.dtd"><svg class="icon" width="200px" height="200.00px" viewBox="0 0 1024 1024" version="1.1" xmlns="http://www.w3.org/2000/svg"><path fill="#333333" d="M938.453333 415.573333c-6.4-29.226667-16-57.386667-28.16-84.053333-53.973333-118.613333-159.573333-209.28-287.786666-242.56-21.973333-5.973333-44.586667-10.026667-67.626667-12.16-14.08-1.493333-28.373333-2.133333-42.88-2.133333-26.24 0-51.84 2.346667-76.8 7.04a413.866667 413.866667 0 0 0-89.813333 26.026666C186.666667 173.44 74.666667 329.813333 74.666667 512c0 36.906667 4.693333 72.746667 13.44 107.093333 5.546667 22.4 13.013333 44.373333 21.973333 65.28a439.936 439.936 0 0 0 233.173333 231.04c37.12 15.573333 76.8 26.24 118.186667 30.933334 16.64 1.92 33.493333 2.986667 50.56 2.986666 6.186667 0 12.373333-0.213333 18.56-0.426666 144.853333-5.973333 271.786667-82.986667 346.88-196.906667 17.066667-26.026667 31.573333-53.973333 42.666667-83.413333 10.026667-25.6 17.706667-52.48 22.4-80.213334 4.053333-22.186667 6.4-44.8 6.613333-67.84 0.213333-2.773333 0.213333-5.76 0.213333-8.533333 0-33.066667-3.626667-65.28-10.88-96.426667z m-114.773333-108.586666c-28.373333-5.546667-57.813333-8.32-87.68-8.32-52.053333 0-102.4 8.32-149.333333 23.893333-7.04-24.533333-10.666667-50.56-10.666667-77.226667 0-34.346667 5.973333-67.2 17.066667-97.706666 96 21.333333 178.346667 79.786667 230.613333 159.36zM512 138.666667c5.546667 0 10.88 0.213333 16.426667 0.426666-10.666667 33.493333-16.426667 69.12-16.426667 106.24 0 35.2 5.12 69.333333 14.933333 101.333334a477.632 477.632 0 0 0-138.666666 101.76c-16.64-43.306667-25.6-90.026667-25.6-139.093334 0-53.546667 10.666667-104.533333 30.293333-151.04 37.333333-12.8 77.44-19.626667 119.04-19.626666zM138.666667 512c0-132.693333 69.546667-249.386667 174.08-315.52-9.173333 36.053333-14.08 74.026667-14.08 112.853333 0 69.76 15.573333 136.106667 43.733333 195.2a471.445333 471.445333 0 0 0-71.68 156.16c-36.053333-16.426667-74.24-28.16-114.346667-34.986666-11.52-35.84-17.706667-74.026667-17.706666-113.706667z m50.346666 186.88c24.32 6.826667 47.786667 15.786667 69.973334 27.093333-1.92 17.28-2.986667 34.986667-2.986667 52.693334 0 1.706667 0 3.2 0.213333 4.906666-26.24-24.746667-49.066667-53.12-67.2-84.693333z m134.826667 135.466667c-2.56-18.133333-3.84-36.693333-3.84-55.68 0-5.12 0-10.24 0.426667-15.36 41.386667 30.506667 77.013333 68.266667 104.533333 111.786666-36.053333-8.533333-69.973333-22.4-101.12-40.746666zM512 885.333333c-2.56 0-4.906667 0-7.466667-0.213333a481.386667 481.386667 0 0 0-175.36-193.066667c9.386667-44.8 26.24-86.826667 48.853334-125.013333C460.8 688.426667 599.893333 768 757.333333 768c8.96 0 17.92-0.213333 26.88-0.853333A371.776 371.776 0 0 1 512 885.333333z m324.693333-189.44c-25.6 5.333333-52.053333 8.106667-79.36 8.106667-144 0-270.293333-77.653333-339.2-193.28 36.48-43.306667 81.706667-79.146667 132.906667-104.533333C609.493333 519.68 727.893333 597.333333 864 597.333333c3.84 0 7.68 0 11.52-0.213333-8.106667 34.986667-21.333333 68.266667-38.826667 98.773333zM864 533.333333c-109.226667 0-204.586667-61.226667-253.44-151.253333 39.466667-12.586667 81.706667-19.413333 125.44-19.413333 43.946667 0 86.4 6.826667 126.08 19.626666 15.146667 40.533333 23.253333 84.053333 23.253333 129.706667 0 6.826667-0.213333 13.653333-0.426666 20.48-6.826667 0.64-13.866667 0.853333-20.906667 0.853333z" /></svg>