<?xml version="1.0" standalone="no"?><!DOCTYPE svg PUBLIC "-//W3C//DTD SVG 1.1//EN" "http://www.w3.org/Graphics/SVG/1.1/DTD/svg11.dtd"><svg class="icon" width="200px" height="200.00px" viewBox="0 0 1024 1024" version="1.1" xmlns="http://www.w3.org/2000/svg"><path fill="#333333" d="M768 341.333333H256a117.461333 117.461333 0 0 0-117.333333 117.333334v384c0 64.704 52.629333 117.333333 117.333333 117.333333h512c64.704 0 117.333333-52.629333 117.333333-117.333333v-384c0-64.704-52.629333-117.333333-117.333333-117.333334zM256 896a53.397333 53.397333 0 0 1-53.333333-53.333333v-384c0-29.397333 23.936-53.333333 53.333333-53.333334h160v490.666667H256z m224 0V405.333333h64v490.666667h-64z m341.333333-53.333333c0 29.397333-23.936 53.333333-53.333333 53.333333h-160V405.333333H768c29.397333 0 53.333333 23.936 53.333333 53.333334v384zM235.306667 320h553.386666c28.138667 0 53.696-13.930667 66.688-36.373333a62.165333 62.165333 0 0 0 0.170667-62.72c-33.194667-57.962667-83.754667-108.309333-146.218667-145.621334-28.757333-17.194667-66.752-14.357333-92.373333 6.869334l-94.848 78.677333c-5.034667 4.202667-16.085333 3.456-29.376-7.573333L406.954667 82.133333c-25.578667-21.226667-63.509333-24.042667-92.202667-6.890666-62.528 37.312-113.130667 87.68-146.325333 145.664a62.165333 62.165333 0 0 0 0.170666 62.72C181.610667 306.069333 207.168 320 235.306667 320z m112.256-189.802667a16.917333 16.917333 0 0 1 18.538666 1.194667l85.781334 71.125333c35.968 29.824 80.597333 32.874667 111.104 7.594667l94.848-78.677333c4.842667-4.010667 13.056-4.565333 18.688-1.194667 53.056 31.68 95.765333 74.026667 123.584 121.152-0.490667 1.173333-4.202667 4.608-11.413334 4.608H235.306667c-7.061333 0-10.794667-3.306667-11.306667-3.306667h-0.021333c27.733333-48.448 70.485333-90.816 123.584-122.496z" /></svg>