<?xml version="1.0" standalone="no"?><!DOCTYPE svg PUBLIC "-//W3C//DTD SVG 1.1//EN" "http://www.w3.org/Graphics/SVG/1.1/DTD/svg11.dtd"><svg class="icon" width="200px" height="200.00px" viewBox="0 0 1024 1024" version="1.1" xmlns="http://www.w3.org/2000/svg"><path fill="#333333" d="M832 117.333333H192A117.461333 117.461333 0 0 0 74.666667 234.666667v554.666666c0 64.682667 52.629333 117.333333 117.333333 117.333334h640c64.704 0 117.333333-52.650667 117.333333-117.333334V234.666667c0-64.704-52.629333-117.333333-117.333333-117.333334zM885.333333 789.333333c0 29.418667-23.936 53.333333-53.333333 53.333334H192A53.397333 53.397333 0 0 1 138.666667 789.333333V234.666667c0-29.397333 23.936-53.333333 53.333333-53.333334h640c29.397333 0 53.333333 23.936 53.333333 53.333334v554.666666zM826.090667 303.637333a31.978667 31.978667 0 0 0-44.522667 8.064c-24.768 35.712-43.84 34.026667-66.56 19.712-51.2-32.277333-97.472-40.896-137.514667-25.664-56.597333 21.568-74.88 83.050667-75.264 84.501334l-45.994666 139.648c-25.386667-23.594667-61.824-38.506667-102.421334-38.506667-76.458667 0-138.666667 52.650667-138.666666 117.333333s62.208 117.333333 138.666666 117.333334c63.232 0 116.608-36.053333 133.226667-85.098667l76.352-231.829333c0.085333-0.341333 10.709333-33.578667 36.906667-43.562667 25.109333-9.642667 57.728 5.568 80.597333 20.010667 56.362667 35.52 112.213333 21.888 153.301333-37.397334a32.064 32.064 0 0 0-8.106666-44.544zM353.792 662.058667c-40.469333 0-74.666667-24.426667-74.666667-53.333334s34.197333-53.333333 74.666667-53.333333 74.666667 24.426667 74.666667 53.333333c0 3.306667-0.554667 6.528-1.408 9.685334l-0.768 2.325333c-7.893333 23.338667-37.802667 41.322667-72.490667 41.322667z" /></svg>