<?xml version="1.0" standalone="no"?><!DOCTYPE svg PUBLIC "-//W3C//DTD SVG 1.1//EN" "http://www.w3.org/Graphics/SVG/1.1/DTD/svg11.dtd"><svg class="icon" width="200px" height="200.00px" viewBox="0 0 1024 1024" version="1.1" xmlns="http://www.w3.org/2000/svg"><path fill="#333333" d="M810.666667 392.213333c-21.269333 0-41.194667 5.781333-58.410667 15.722667A71.296 71.296 0 0 0 686.037333 362.666667H167.296A71.381333 71.381333 0 0 0 96 433.962667v182.954666C96 794.325333 240.341333 938.666667 417.749333 938.666667h17.834667C612.992 938.666667 757.333333 794.325333 757.333333 616.917333v-2.986666a116.544 116.544 0 0 0 53.333334 12.949333c64.682667 0 117.333333-52.650667 117.333333-117.333333s-52.650667-117.333333-117.333333-117.333334z m-117.333334 224.704C693.333333 759.04 577.706667 874.666667 435.584 874.666667h-17.834667C275.626667 874.666667 160 759.04 160 616.917333v-182.954666c0-4.032 3.264-7.296 7.296-7.296h518.741333c4.010667 0 7.296 3.264 7.296 7.296v182.954666z m117.333334-54.016c-29.418667 0-53.333333-23.936-53.333334-53.333333s23.914667-53.333333 53.333334-53.333333 53.333333 23.936 53.333333 53.333333-23.914667 53.333333-53.333333 53.333333zM240.896 309.333333a32 32 0 0 0 32-32V192a32 32 0 1 0-64 0v85.333333a32 32 0 0 0 32 32zM591.104 309.333333a32 32 0 0 0 32-32v-42.666666a32 32 0 1 0-64 0v42.666666a32 32 0 0 0 32 32zM426.666667 309.333333a32 32 0 0 0 32-32V106.666667a32 32 0 1 0-64 0v170.666666a32 32 0 0 0 32 32z" /></svg>