<?xml version="1.0" standalone="no"?><!DOCTYPE svg PUBLIC "-//W3C//DTD SVG 1.1//EN" "http://www.w3.org/Graphics/SVG/1.1/DTD/svg11.dtd"><svg class="icon" width="200px" height="200.00px" viewBox="0 0 1024 1024" version="1.1" xmlns="http://www.w3.org/2000/svg"><path fill="#333333" d="M716.8 139.925333A258.346667 258.346667 0 0 0 512 211.093333a258.218667 258.218667 0 0 0-204.8-71.168c-125.845333 12.245333-232.341333 130.282667-232.533333 257.749334a257.216 257.216 0 0 0 31.104 124.053333 904.789333 904.789333 0 0 0 308.885333 335.104c29.568 18.986667 63.466667 28.48 97.365333 28.48s67.797333-9.493333 97.365334-28.48a904.96 904.96 0 0 0 308.778666-334.933333 257.237333 257.237333 0 0 0 31.189334-124.224c-0.213333-127.466667-106.709333-245.504-232.554667-257.749334z m144.981333 351.701334A840.810667 840.810667 0 0 1 574.805333 802.986667a116.565333 116.565333 0 0 1-125.568 0c-113.109333-72.618667-207.210667-172.309333-274.176-289.088h101.290667a32 32 0 0 0 30.784-23.253334l16.832-59.221333 113.088 198.954667a32.042667 32.042667 0 0 0 30.976 16.042666 31.978667 31.978667 0 0 0 27.221333-21.781333l53.397334-161.045333 20.714666 34.709333c5.781333 9.664 16.213333 15.594667 27.477334 15.594667h127.957333a32 32 0 1 0 0-64h-109.781333l-47.253334-79.168a32.042667 32.042667 0 0 0-57.856 6.336l-52.757333 159.125333-115.264-202.773333a32 32 0 1 0-58.602667 7.061333l-31.104 109.418667H145.685333a196.864 196.864 0 0 1-7.018666-52.096c0.149333-94.378667 81.792-185.109333 174.762666-194.154667a193.813333 193.813333 0 0 1 170.730667 71.722667c13.610667 17.066667 42.133333 16.981333 55.594667 0.064a194.005333 194.005333 0 0 1 170.816-71.786667c92.949333 9.045333 174.613333 99.776 174.741333 194.176a194.026667 194.026667 0 0 1-23.530667 93.802667z" /></svg>