<?xml version="1.0" standalone="no"?><!DOCTYPE svg PUBLIC "-//W3C//DTD SVG 1.1//EN" "http://www.w3.org/Graphics/SVG/1.1/DTD/svg11.dtd"><svg class="icon" width="200px" height="200.00px" viewBox="0 0 1024 1024" version="1.1" xmlns="http://www.w3.org/2000/svg"><path fill="#333333" d="M746.666667 960.405333a54.848 54.848 0 0 1-40.042667-17.706666l-138.496-149.781334c-48.170667-52.117333-46.08-134.72 4.650667-184.106666a114.88 114.88 0 0 1 82.730666-32.384c32.981333 0.853333 65.216 15.765333 88.469334 40.896l2.688 2.901333 2.688-2.901333c23.232-25.130667 55.466667-40.021333 88.426666-40.896a114.496 114.496 0 0 1 82.752 32.384c50.709333 49.386667 52.821333 131.968 4.650667 184.106666l-138.517333 149.802667a54.741333 54.741333 0 0 1-40 17.685333z m-94.208-316.266666c-9.045333 0-21.674667 2.453333-32.896 13.376-24.149333 23.509333-25.130667 64.362667-2.197334 89.216L746.666667 886.549333l129.301333-139.84c22.954667-24.832 21.973333-65.685333-2.197333-89.216-11.776-11.477333-25.109333-13.376-34.218667-13.354666-15.018667 0.405333-29.952 7.445333-40.96 19.349333l-11.904 12.885333c-20.757333 22.464-59.242667 22.485333-80.042667-0.021333l-11.882666-12.885333c-10.965333-11.861333-25.92-18.922667-40.981334-19.328h-1.322666zM757.333333 309.333333C757.333333 174.058667 647.274667 64 512 64S266.666667 174.058667 266.666667 309.333333c0 85.546667 44.096 160.917333 110.656 204.842667C201.514667 571.84 74.666667 730.56 74.666667 917.333333a32 32 0 0 0 64 0c0-199.978667 172.266667-362.666667 384-362.666666 2.517333 0 4.928-0.362667 7.274666-0.917334 126.890667-9.237333 227.392-115.2 227.392-244.416zM512 490.666667c-99.989333 0-181.333333-81.344-181.333333-181.333334S412.010667 128 512 128s181.333333 81.344 181.333333 181.333333S611.989333 490.666667 512 490.666667z" /></svg>