<?xml version="1.0" standalone="no"?><!DOCTYPE svg PUBLIC "-//W3C//DTD SVG 1.1//EN" "http://www.w3.org/Graphics/SVG/1.1/DTD/svg11.dtd"><svg class="icon" width="200px" height="200.00px" viewBox="0 0 1024 1024" version="1.1" xmlns="http://www.w3.org/2000/svg"><path fill="#333333" d="M512 64c-164.672 0-298.666667 138.773333-298.666667 309.333333v298.666667C213.333333 836.181333 341.717333 960 512 960s298.666667-123.818667 298.666667-288v-298.666667C810.666667 202.773333 676.672 64 512 64z m236.864 608c0 129.792-99.626667 224-236.864 224s-236.864-94.208-236.864-224v-298.666667C275.136 238.058667 381.397333 128 512 128s236.864 110.058667 236.864 245.333333v298.666667zM512 234.666667c-51.114667 0-92.693333 43.072-92.693333 96v85.333333c0 52.928 41.578667 96 92.693333 96s92.693333-43.072 92.693333-96v-85.333333c0-52.928-41.578667-96-92.693333-96z m30.890667 181.333333c0 17.642667-13.866667 32-30.890667 32s-30.890667-14.357333-30.890667-32v-85.333333c0-17.642667 13.866667-32 30.890667-32s30.890667 14.357333 30.890667 32v85.333333z" /></svg>