<?xml version="1.0" standalone="no"?><!DOCTYPE svg PUBLIC "-//W3C//DTD SVG 1.1//EN" "http://www.w3.org/Graphics/SVG/1.1/DTD/svg11.dtd"><svg class="icon" width="200px" height="200.00px" viewBox="0 0 1024 1024" version="1.1" xmlns="http://www.w3.org/2000/svg"><path fill="#333333" d="M874.666667 426.666667H309.333333V160c0-17.642667 14.357333-32 32-32h21.333334c13.888 0 25.621333 8.938667 30.037333 21.333333H362.666667a32 32 0 1 0 0 64h128a32 32 0 1 0 0-64h-33.088C452.202667 101.461333 411.946667 64 362.666667 64h-21.333334a96.106667 96.106667 0 0 0-96 96V426.666667H149.333333a32 32 0 1 0 0 64h32v245.333333a117.482667 117.482667 0 0 0 106.666667 116.8V928a32 32 0 1 0 64 0V853.333333h341.333333v74.666667a32 32 0 1 0 64 0v-79.210667c49.173333-13.973333 85.333333-59.2 85.333334-112.789333V490.666667H874.666667a32 32 0 1 0 0-64z m-96 309.333333c0 29.418667-23.936 53.333333-53.333334 53.333333H298.666667a53.397333 53.397333 0 0 1-53.333334-53.333333V490.666667h533.333334v245.333333z" /></svg>