<?xml version="1.0" standalone="no"?><!DOCTYPE svg PUBLIC "-//W3C//DTD SVG 1.1//EN" "http://www.w3.org/Graphics/SVG/1.1/DTD/svg11.dtd"><svg class="icon" width="200px" height="200.00px" viewBox="0 0 1024 1024" version="1.1" xmlns="http://www.w3.org/2000/svg"><path fill="#333333" d="M910.293333 400a119.04 119.04 0 0 0-90.666666-28.8l-104.96 10.88c-2.346667-109.44-92.373333-198.186667-202.666667-198.186667-109.653333 0-199.253333 87.68-202.453333 196.48l-104.32-11.733333c-33.28-3.84-66.56 6.826667-91.306667 29.013333a116.949333 116.949333 0 0 0-39.253333 87.466667v8.106667c0 124.373333 53.12 242.986667 145.706666 325.973333 80.426667 72.106667 184.96 111.36 292.693334 111.36 16.213333 0 32.426667-0.853333 48.64-2.56 202.026667-22.4 364.16-185.6 385.28-387.84 1.92-18.986667 2.56-37.973333 2.346666-56.746667-0.853333-32.213333-14.72-61.866667-39.04-83.413333z m-536.96-13.44c0-76.373333 62.293333-138.666667 138.666667-138.666667s138.666667 62.293333 138.666667 138.666667v2.133333l-3.626667 0.426667c-89.6 9.386667-180.266667 8.96-269.653333-1.066667l-4.053334-0.426666v-1.066667z m509.866667 146.986667c-17.92 172.586667-156.16 311.68-328.533333 330.666666-107.946667 11.946667-211.626667-20.906667-291.626667-92.586666A373.909333 373.909333 0 0 1 138.666667 493.44v-8.32c0-15.36 6.4-29.44 17.92-39.68 9.813333-8.96 22.186667-13.653333 35.2-13.653333 2.133333 0 4.053333 0.213333 6.186666 0.426666l120.32 13.44 52.053334 5.973334c6.826667 0.853333 13.653333 1.493333 20.48 1.92 80.213333 8.106667 161.28 8.533333 241.706666 1.28 7.04-0.426667 14.08-1.28 21.12-1.92l51.626667-5.333334 120.96-12.8c15.146667-1.706667 30.293333 3.2 41.6 13.226667 10.88 9.6 17.066667 22.826667 17.493333 36.906667 0.213333 16-0.426667 32.426667-2.133333 48.64zM117.333333 232h42.666667v42.666667a32 32 0 0 0 64 0v-42.666667h42.666667a32 32 0 0 0 0-64h-42.666667v-42.666667a32 32 0 0 0-64 0v42.666667h-42.666667a32 32 0 0 0 0 64z" /></svg>