<?xml version="1.0" standalone="no"?><!DOCTYPE svg PUBLIC "-//W3C//DTD SVG 1.1//EN" "http://www.w3.org/Graphics/SVG/1.1/DTD/svg11.dtd"><svg class="icon" width="200px" height="200.00px" viewBox="0 0 1024 1024" version="1.1" xmlns="http://www.w3.org/2000/svg"><path fill="#333333" d="M814.165333 499.925333L559.018667 69.888A54.037333 54.037333 0 0 0 512 42.666667c-19.349333 0-37.269333 10.282667-46.826667 26.901333L209.536 500.458667a52.778667 52.778667 0 0 0-4.138667 42.709333l98.794667 295.018667A53.76 53.76 0 0 0 355.328 874.666667h313.322667a53.76 53.76 0 0 0 51.136-36.48l98.794666-295.018667a53.056 53.056 0 0 0-4.416-43.242667zM661.525333 810.666667H362.474667L267.733333 527.765333 480 170.026667v139.306666a32 32 0 1 0 64 0V170.005333l212.266667 357.76L661.525333 810.666667zM512 448c-76.458667 0-138.666667 62.208-138.666667 138.666667S435.541333 725.333333 512 725.333333s138.666667-62.208 138.666667-138.666666S588.458667 448 512 448z m0 213.333333c-41.173333 0-74.666667-33.493333-74.666667-74.666666S470.826667 512 512 512s74.666667 33.493333 74.666667 74.666667S553.173333 661.333333 512 661.333333zM778.666667 917.333333h-533.333334a32 32 0 1 0 0 64h533.333334a32 32 0 1 0 0-64z" /></svg>