<?xml version="1.0" standalone="no"?><!DOCTYPE svg PUBLIC "-//W3C//DTD SVG 1.1//EN" "http://www.w3.org/Graphics/SVG/1.1/DTD/svg11.dtd"><svg class="icon" width="200px" height="200.00px" viewBox="0 0 1024 1024" version="1.1" xmlns="http://www.w3.org/2000/svg"><path fill="#333333" d="M821.333333 352h-21.333333V149.333333c0-41.173333-33.493333-74.666667-74.666667-74.666666H298.666667c-41.173333 0-74.666667 33.493333-74.666667 74.666666v202.666667h-21.333333A117.546667 117.546667 0 0 0 85.333333 469.333333v256c0 64.64 52.693333 117.333333 117.333334 117.333334h21.333333V874.666667c0 41.173333 33.493333 74.666667 74.666667 74.666666h426.666666c41.173333 0 74.666667-33.493333 74.666667-74.666666v-32h21.333333c64.64 0 117.333333-52.693333 117.333334-117.333334V469.333333c0-64.64-52.693333-117.333333-117.333334-117.333333zM288 149.333333c0-5.973333 4.693333-10.666667 10.666667-10.666666h426.666666c5.973333 0 10.666667 4.693333 10.666667 10.666666v202.666667h-448V149.333333z m448 725.333334c0 5.973333-4.693333 10.666667-10.666667 10.666666H298.666667c-5.973333 0-10.666667-4.693333-10.666667-10.666666v-128c0-5.973333 4.693333-10.666667 10.666667-10.666667h426.666666c5.973333 0 10.666667 4.693333 10.666667 10.666667v128z m138.666667-149.333334a53.333333 53.333333 0 0 1-53.333334 53.333334h-21.333333V746.666667c0-41.173333-33.493333-74.666667-74.666667-74.666667H298.666667c-41.173333 0-74.666667 33.493333-74.666667 74.666667v32h-21.333333A53.333333 53.333333 0 0 1 149.333333 725.333333V469.333333a53.333333 53.333333 0 0 1 53.333334-53.333333h618.666666A53.333333 53.333333 0 0 1 874.666667 469.333333v256zM746.666667 437.333333c-52.928 0-96 43.072-96 96s43.072 96 96 96 96-43.072 96-96-43.072-96-96-96z m0 128c-17.642667 0-32-14.357333-32-32s14.357333-32 32-32 32 14.357333 32 32-14.357333 32-32 32z" /></svg>