<?xml version="1.0" standalone="no"?><!DOCTYPE svg PUBLIC "-//W3C//DTD SVG 1.1//EN" "http://www.w3.org/Graphics/SVG/1.1/DTD/svg11.dtd"><svg class="icon" width="200px" height="200.00px" viewBox="0 0 1024 1024" version="1.1" xmlns="http://www.w3.org/2000/svg"><path fill="#333333" d="M586.666667 778.666667c19.2 0 37.333333-4.693333 53.333333-13.013334 16 8.32 34.133333 13.013333 53.333333 13.013334 64.64 0 117.333333-52.693333 117.333334-117.333334s-52.693333-117.333333-117.333334-117.333333c-19.2 0-37.333333 4.693333-53.333333 13.013333-16-8.32-34.133333-13.013333-53.333333-13.013333A117.546667 117.546667 0 0 0 469.333333 661.333333c0 64.64 52.693333 117.333333 117.333334 117.333334z m104.32-170.666667h2.346666a53.333333 53.333333 0 0 1 0 106.666667h-2.346666c8.32-16 13.013333-34.133333 13.013333-53.333334 0-19.2-4.693333-37.333333-13.013333-53.333333z m-104.32 0h2.346666c28.373333 1.28 50.986667 24.746667 50.986667 53.333333s-22.613333 52.053333-50.986667 53.333334h-2.346666a53.333333 53.333333 0 0 1 0-106.666667zM832 117.333333H192A117.461333 117.461333 0 0 0 74.666667 234.666667v554.666666c0 64.704 52.629333 117.333333 117.333333 117.333334h640c64.704 0 117.333333-52.629333 117.333333-117.333334V234.666667c0-64.704-52.629333-117.333333-117.333333-117.333334zM885.333333 789.333333c0 29.397333-23.936 53.333333-53.333333 53.333334H192A53.397333 53.397333 0 0 1 138.666667 789.333333V394.666667h746.666666V789.333333z m0-458.666666h-746.666666V234.666667c0-29.397333 23.936-53.333333 53.333333-53.333334h640c29.397333 0 53.333333 23.936 53.333333 53.333334v96z" /></svg>