<?xml version="1.0" standalone="no"?><!DOCTYPE svg PUBLIC "-//W3C//DTD SVG 1.1//EN" "http://www.w3.org/Graphics/SVG/1.1/DTD/svg11.dtd"><svg class="icon" width="200px" height="200.00px" viewBox="0 0 1024 1024" version="1.1" xmlns="http://www.w3.org/2000/svg"><path fill="#333333" d="M779.498667 267.242667L596.288 104.106667a31.957333 31.957333 0 0 0-42.56 0L478.506667 171.093333l-43.050667-38.336a31.957333 31.957333 0 0 0-42.56 0l-151.552 134.933334C183.552 274.944 138.666667 324.288 138.666667 384v426.666667c0 64.704 52.650667 117.333333 117.333333 117.333333h512c64.682667 0 117.333333-52.629333 117.333333-117.333333V384a117.504 117.504 0 0 0-105.834666-116.757333z m-204.501334-96.405334l107.605334 95.829334H585.813333l-59.2-52.736 48.384-43.093334z m-96.512 85.952l11.093334 9.877334h-22.186667l11.093333-9.877334z m-64.341333-57.301333l16.234667 14.442667-59.221334 52.736h-32.448l75.434667-67.178667zM821.333333 810.666667c0 29.397333-23.914667 53.333333-53.333333 53.333333H256A53.397333 53.397333 0 0 1 202.666667 810.666667V384c0-29.397333 23.914667-53.333333 53.333333-53.333333H768c29.418667 0 53.333333 23.936 53.333333 53.333333v426.666667zM682.666667 501.333333c-52.928 0-96 43.072-96 96s43.072 96 96 96 96-43.072 96-96-43.072-96-96-96z m0 128c-17.642667 0-32-14.357333-32-32s14.357333-32 32-32 32 14.357333 32 32-14.357333 32-32 32z" /></svg>