<?xml version="1.0" standalone="no"?><!DOCTYPE svg PUBLIC "-//W3C//DTD SVG 1.1//EN" "http://www.w3.org/Graphics/SVG/1.1/DTD/svg11.dtd"><svg class="icon" width="200px" height="200.00px" viewBox="0 0 1024 1024" version="1.1" xmlns="http://www.w3.org/2000/svg"><path fill="#333333" d="M746.666667 469.333333H522.666667v-138.666666c0-23.530667 19.136-42.666667 42.666666-42.666667s42.666667 19.136 42.666667 42.666667c0 58.816 47.850667 106.666667 106.666667 106.666666s106.666667-47.850667 106.666666-106.666666V128a32 32 0 0 0-64 0v202.666667c0 23.530667-19.136 42.666667-42.666666 42.666666s-42.666667-19.136-42.666667-42.666666c0-58.816-47.850667-106.666667-106.666667-106.666667s-106.666667 47.850667-106.666666 106.666667V469.333333H277.333333C153.813333 469.333333 53.333333 569.813333 53.333333 693.333333S153.813333 917.333333 277.333333 917.333333h469.333334c123.52 0 224-100.48 224-224S870.186667 469.333333 746.666667 469.333333z m0 384H277.333333c-88.234667 0-160-71.765333-160-160S189.098667 533.333333 277.333333 533.333333h469.333334c88.234667 0 160 71.765333 160 160S834.901333 853.333333 746.666667 853.333333zM330.666667 576c-64.682667 0-117.333333 52.650667-117.333334 117.333333s52.650667 117.333333 117.333334 117.333334 117.333333-52.650667 117.333333-117.333334-52.650667-117.333333-117.333333-117.333333z m0 170.666667c-29.418667 0-53.333333-23.914667-53.333334-53.333334s23.914667-53.333333 53.333334-53.333333 53.333333 23.914667 53.333333 53.333333-23.914667 53.333333-53.333333 53.333334zM768 650.666667m-32 0a32 32 0 1 0 64 0 32 32 0 1 0-64 0ZM704 736m-32 0a32 32 0 1 0 64 0 32 32 0 1 0-64 0Z" /></svg>