<?xml version="1.0" standalone="no"?><!DOCTYPE svg PUBLIC "-//W3C//DTD SVG 1.1//EN" "http://www.w3.org/Graphics/SVG/1.1/DTD/svg11.dtd"><svg class="icon" width="200px" height="200.00px" viewBox="0 0 1024 1024" version="1.1" xmlns="http://www.w3.org/2000/svg"><path fill="#333333" d="M640 357.333333H384a117.461333 117.461333 0 0 0-117.333333 117.333334v362.666666c0 64.682667 52.629333 117.333333 117.333333 117.333334h256c64.704 0 117.333333-52.650667 117.333333-117.333334v-362.666666c0-64.682667-52.629333-117.333333-117.333333-117.333334z m0 533.333334H384a53.397333 53.397333 0 0 1-53.333333-53.333334v-362.666666c0-29.418667 23.936-53.333333 53.333333-53.333334h256c29.397333 0 53.333333 23.914667 53.333333 53.333334v21.333333h-128a32 32 0 1 0 0 64h128v26.666667H490.666667a32 32 0 1 0 0 64h202.666666v26.666666H597.333333a32 32 0 1 0 0 64h96v96c0 29.418667-23.936 53.333333-53.333333 53.333334zM352 336h320c47.061333 0 85.333333-38.272 85.333333-85.333333s-38.272-85.333333-85.333333-85.333334H597.333333v-10.666666c0-47.061333-38.272-85.333333-85.333333-85.333334s-85.333333 38.272-85.333333 85.333334v10.666666h-74.666667c-47.061333 0-85.333333 38.272-85.333333 85.333334s38.272 85.333333 85.333333 85.333333z m0-106.666667h106.666667a32 32 0 0 0 32-32v-42.666666c0-11.562667 9.770667-21.333333 21.333333-21.333334s21.333333 9.770667 21.333333 21.333334v42.666666a32 32 0 0 0 32 32h106.666667c11.562667 0 21.333333 9.770667 21.333333 21.333334s-9.770667 21.333333-21.333333 21.333333h-320c-11.562667 0-21.333333-9.770667-21.333333-21.333333s9.770667-21.333333 21.333333-21.333334z" /></svg>