<?xml version="1.0" standalone="no"?><!DOCTYPE svg PUBLIC "-//W3C//DTD SVG 1.1//EN" "http://www.w3.org/Graphics/SVG/1.1/DTD/svg11.dtd"><svg class="icon" width="200px" height="200.00px" viewBox="0 0 1024 1024" version="1.1" xmlns="http://www.w3.org/2000/svg"><path fill="#333333" d="M805.546667 411.733333c-14.08-17.28-34.986667-27.093333-57.813334-27.733333 1.066667-10.453333 1.493333-21.12 1.493334-32 0-164.693333-105.173333-298.666667-234.666667-298.666667-129.28 0-234.666667 133.973333-234.666667 298.666667 0 10.88 0.426667 21.546667 1.493334 32h-3.2c-23.466667 0-45.226667 10.026667-59.733334 27.733333-13.226667 16-18.346667 36.693333-14.506666 56.533334 18.773333 94.506667 86.826667 173.013333 182.613333 211.626666L373.333333 896c0 41.173333 35.626667 74.666667 79.36 74.666667h118.613334c43.733333 0 79.36-33.493333 79.36-76.586667l-13.226667-214.186667c95.786667-38.613333 163.84-117.12 182.613333-211.626666 3.84-19.84-1.28-40.533333-14.506666-56.533334z m-461.653334-59.733333c0-129.493333 76.586667-234.666667 170.666667-234.666667 94.293333 0 170.666667 105.173333 170.666667 234.666667 0 10.88-0.64 21.546667-1.493334 32H345.386667c-0.853333-10.453333-1.493333-21.12-1.493334-32z m282.453334 262.613333c-0.213333 0.213333-0.426667 0.426667-0.64 0.426667-5.76 2.773333-11.733333 5.12-17.706667 7.466667a57.6 57.6 0 0 0-20.266667 13.226666l-0.213333 0.213334c-10.026667 10.666667-15.573333 24.746667-14.506667 39.893333L586.666667 896c0 5.12-6.4 10.666667-15.36 10.666667h-118.613334c-8.96 0-15.36-5.546667-15.36-8.746667l13.653334-222.08a53.76 53.76 0 0 0-19.84-44.8c-4.48-3.413333-9.6-6.4-15.146667-8.533333-0.853333-0.426667-1.706667-0.64-2.56-1.066667-0.213333 0-0.426667-0.213333-0.426667-0.213333a245.76 245.76 0 0 1-86.186666-55.893334h370.346666c-19.84 19.84-43.733333 36.906667-70.826666 49.28z m115.626666-113.28H282.026667c-6.826667-14.506667-12.16-29.653333-15.36-45.653333 0-0.426667-0.213333-1.493333 1.28-3.413333 1.706667-2.133333 5.333333-4.266667 10.24-4.266667h467.626666c4.906667 0 8.533333 2.133333 10.24 4.266667 1.493333 1.92 1.28 2.986667 1.28 3.413333-3.2 16-8.533333 31.146667-15.36 45.653333z" /></svg>