<?xml version="1.0" standalone="no"?><!DOCTYPE svg PUBLIC "-//W3C//DTD SVG 1.1//EN" "http://www.w3.org/Graphics/SVG/1.1/DTD/svg11.dtd"><svg class="icon" width="200px" height="200.00px" viewBox="0 0 1024 1024" version="1.1" xmlns="http://www.w3.org/2000/svg"><path fill="#333333" d="M704 224H320C161.194667 224 32 353.194667 32 512S161.194667 800 320 800h384c158.805333 0 288-129.194667 288-288S862.805333 224 704 224z m0 512H320C196.48 736 96 635.52 96 512S196.48 288 320 288h384c123.52 0 224 100.48 224 224S827.52 736 704 736zM704 330.666667c-99.989333 0-181.333333 81.344-181.333333 181.333333s81.344 181.333333 181.333333 181.333333 181.333333-81.344 181.333333-181.333333-81.344-181.333333-181.333333-181.333333z m0 298.666666c-64.704 0-117.333333-52.650667-117.333333-117.333333s52.629333-117.333333 117.333333-117.333333 117.333333 52.650667 117.333333 117.333333-52.629333 117.333333-117.333333 117.333333z" /></svg>