<?xml version="1.0" standalone="no"?><!DOCTYPE svg PUBLIC "-//W3C//DTD SVG 1.1//EN" "http://www.w3.org/Graphics/SVG/1.1/DTD/svg11.dtd"><svg class="icon" width="200px" height="200.00px" viewBox="0 0 1024 1024" version="1.1" xmlns="http://www.w3.org/2000/svg"><path fill="#333333" d="M826.538667 781.290667l22.592-22.592 0.064-0.042667 0.042666-0.064 65.322667-65.322667a109.354667 109.354667 0 0 0 32.298667-77.909333 109.333333 109.333333 0 0 0-32.298667-77.930667L532.394667 155.264c-50.368-50.368-117.333333-78.101333-188.565334-78.101333s-138.197333 27.733333-188.565333 78.101333-78.101333 117.333333-78.101333 188.565333 27.733333 138.197333 78.101333 188.565334l382.165333 382.144a109.376 109.376 0 0 0 77.930667 32.298666c29.44 0 57.109333-11.456 77.909333-32.298666l65.322667-65.322667 0.064-0.042667 0.042667-0.064 22.592-22.592 98.069333 98.069334c6.250667 6.250667 14.442667 9.365333 22.634667 9.365333s16.384-3.114667 22.634666-9.365333a32 32 0 0 0 0-45.248l-98.090666-98.048zM487.146667 200.512l382.144 382.165333c8.725333 8.725333 13.546667 20.330667 13.546666 32.682667 0 12.330667-4.821333 23.936-13.546666 32.661333l-42.730667 42.730667-541.013333-541.013333c18.986667-5.674667 38.634667-8.533333 58.282666-8.533334a202.368 202.368 0 0 1 143.317334 59.306667z m-262.016-20.650667l556.181333 556.181334-45.269333 45.269333L179.861333 225.130667c6.208-8.576 12.949333-16.874667 20.672-24.597334s16.021333-14.464 24.597334-20.672z m357.546666 689.429334L200.512 487.146667c-54.464-54.464-71.36-132.48-50.730667-201.6l540.992 541.013333-42.730666 42.730667c-17.472 17.472-47.914667 17.429333-65.365334 0z" /></svg>