<?xml version="1.0" standalone="no"?><!DOCTYPE svg PUBLIC "-//W3C//DTD SVG 1.1//EN" "http://www.w3.org/Graphics/SVG/1.1/DTD/svg11.dtd"><svg class="icon" width="200px" height="200.00px" viewBox="0 0 1024 1024" version="1.1" xmlns="http://www.w3.org/2000/svg"><path fill="#333333" d="M581.568 120.021333c-17.728-19.669333-43.093333-30.954667-69.568-30.954666s-51.84 11.285333-69.568 30.954666C375.530667 194.282667 181.333333 457.685333 181.333333 604.266667c0 182.336 148.330667 330.666667 330.666667 330.666666s330.666667-148.330667 330.666667-330.666666c0-146.581333-194.197333-409.984-261.098667-484.245334zM512 870.933333c-147.050667 0-266.666667-119.616-266.666667-266.666666 0-109.909333 161.6-349.269333 244.650667-441.408 5.674667-6.314667 13.525333-9.792 22.016-9.792s16.341333 3.477333 22.016 9.792C617.066667 255.018667 778.666667 494.357333 778.666667 604.266667c0 147.050667-119.616 266.666667-266.666667 266.666666zM632.981333 532.970667l-63.488-31.722667 16.533334-82.709333a32 32 0 0 0-54.016-28.906667l-170.666667 170.666667a32.042667 32.042667 0 0 0 10.752 52.330666l80.725333 32.298667-14.570666 58.218667a32 32 0 0 0 53.674666 30.4l149.333334-149.333334a32 32 0 0 0-8.277334-51.242666z m-112.362666 81.408a31.914667 31.914667 0 0 0-18.090667-18.474667l-61.610667-24.64 61.632-61.610667-0.597333 3.029334a32 32 0 0 0 17.066667 34.901333l45.632 22.805333-44.032 43.989334z" /></svg>