<?xml version="1.0" standalone="no"?><!DOCTYPE svg PUBLIC "-//W3C//DTD SVG 1.1//EN" "http://www.w3.org/Graphics/SVG/1.1/DTD/svg11.dtd"><svg class="icon" width="200px" height="200.00px" viewBox="0 0 1024 1024" version="1.1" xmlns="http://www.w3.org/2000/svg"><path fill="#333333" d="M858.602667 294.656l50.581333-50.56a32 32 0 1 0-45.248-45.248l-46.890667 46.890667c-66.133333-65.088-156.352-105.386667-255.808-105.386667-13.738667 0-27.818667 0.917333-42.922666 2.837333l-16.810667-16.981333A136.533333 136.533333 0 0 0 403.754667 85.333333h-1.834667a136.704 136.704 0 0 0-98.538667 43.477334c-31.594667 33.621333-32.618667 86.677333-3.733333 122.474666a368.256 368.256 0 0 0-72.789333 107.818667h-0.405334c-71.936 0-130.453333 58.965333-130.453333 131.434667v24.469333c0 74.581333 59.925333 135.253333 133.546667 135.253333h1.002666a383.36 383.36 0 0 0 109.141334 143.189334v71.957333c0 40.405333 32.576 73.258667 72.618666 73.258667h62.485334c39.189333 0 71.061333-32.170667 71.061333-71.701334v-10.88h8.597333c9.557333 0 19.114667-0.405333 28.906667-1.237333v7.765333c0 42.645333 31.893333 76.053333 72.618667 76.053334h82.453333c39.381333 0 71.402667-32.192 71.402667-71.765334v-84.714666a372.096 372.096 0 0 0 118.144-271.786667 369.621333 369.621333 0 0 0-69.376-215.744zM762.986667 738.346667a51.797333 51.797333 0 0 0-17.130667 38.378666v90.176a7.594667 7.594667 0 0 1-7.402667 7.765334H656c-5.077333 0-8.618667-4.949333-8.618667-12.053334v-21.333333a52.266667 52.266667 0 0 0-17.578666-39.104 50.688 50.688 0 0 0-39.68-12.373333c-12.416 1.536-24.085333 2.282667-35.605334 2.282666l-21.077333-0.021333h-0.042667c-13.845333 0-26.858667 5.461333-36.608 15.36a51.669333 51.669333 0 0 0-14.912 36.48v23.04c0 4.245333-3.157333 7.701333-7.061333 7.701333h-62.485333c-4.757333 0-8.618667-4.16-8.618667-9.258666v-77.589334a52.266667 52.266667 0 0 0-20.138667-41.237333 319.36 319.36 0 0 1-96.853333-127.808 52.330667 52.330667 0 0 0-48.213333-32.533333h-8.96c-38.357333 0-69.546667-31.957333-69.546667-71.253334v-24.469333c0-37.184 29.802667-67.434667 66.453333-67.434667h8.661334c20.8 0 39.509333-12.586667 47.594666-32a305.173333 305.173333 0 0 1 69.952-102.293333 50.752 50.752 0 0 0 15.637334-36.309333 52.48 52.48 0 0 0-15.146667-37.397334l-1.792-1.813333c-11.157333-11.285333-11.776-29.482667-1.344-40.576A73.152 73.152 0 0 1 402.773333 149.333333c19.776-0.426667 39.04 7.552 53.290667 21.909334l21.184 21.397333c11.392 11.52 27.712 16.981333 43.904 14.72a283.648 283.648 0 0 1 40.106667-3.029333c166.954667 0 302.762667 137.301333 302.762666 306.048a308.053333 308.053333 0 0 1-101.034666 227.968zM568.618667 631.317333c-74.218667 0-134.592-60.373333-134.592-134.570666s60.373333-134.570667 134.592-134.570667 134.570667 60.373333 134.570666 134.570667-60.352 134.570667-134.570666 134.570666z m0-205.12c-38.912 0-70.592 31.658667-70.592 70.570667s31.658667 70.570667 70.592 70.570667 70.570667-31.658667 70.570666-70.570667-31.637333-70.570667-70.570666-70.570667z" /></svg>