<?xml version="1.0" standalone="no"?><!DOCTYPE svg PUBLIC "-//W3C//DTD SVG 1.1//EN" "http://www.w3.org/Graphics/SVG/1.1/DTD/svg11.dtd"><svg class="icon" width="200px" height="200.00px" viewBox="0 0 1024 1024" version="1.1" xmlns="http://www.w3.org/2000/svg"><path fill="#333333" d="M730.666667 522.666667a32 32 0 0 0-32 32v277.333333c0 29.418667-23.936 53.333333-53.333334 53.333333h-426.666666a53.397333 53.397333 0 0 1-53.333334-53.333333V192c0-29.418667 23.936-53.333333 53.333334-53.333333h426.666666c29.397333 0 53.333333 23.914667 53.333334 53.333333v53.333333a32 32 0 1 0 64 0V192c0-64.682667-52.629333-117.333333-117.333334-117.333333h-426.666666A117.461333 117.461333 0 0 0 101.333333 192v640c0 64.682667 52.629333 117.333333 117.333334 117.333333h426.666666c64.704 0 117.333333-52.650667 117.333334-117.333333V554.666667a32 32 0 0 0-32-32zM485.333333 320h-170.666666a32 32 0 1 0 0 64h170.666666a32 32 0 1 0 0-64zM485.333333 490.666667h-170.666666a32 32 0 1 0 0 64h170.666666a32 32 0 1 0 0-64zM910.656 199.018667a31.978667 31.978667 0 0 0-44.970667 4.970666l-152.341333 190.442667-103.594667-69.056a32 32 0 0 0-35.498666 53.248l128 85.333333a31.957333 31.957333 0 0 0 42.730666-6.613333l170.666667-213.333333a32 32 0 0 0-4.992-44.992z" /></svg>