<?xml version="1.0" standalone="no"?><!DOCTYPE svg PUBLIC "-//W3C//DTD SVG 1.1//EN" "http://www.w3.org/Graphics/SVG/1.1/DTD/svg11.dtd"><svg class="icon" width="200px" height="200.00px" viewBox="0 0 1024 1024" version="1.1" xmlns="http://www.w3.org/2000/svg"><path fill="#333333" d="M785.344 134.784L549.845333 58.005333a94.570667 94.570667 0 0 0-58.858666 0L255.509333 134.784A138.645333 138.645333 0 0 0 160 267.136v307.541333c0 206.592 166.442667 374.656 371.029333 374.656 192.896 0 349.824-158.464 349.824-353.258666V267.136a138.645333 138.645333 0 0 0-95.509333-132.352z m31.509333 461.290667c0 159.488-128.213333 289.258667-285.824 289.258666-169.28 0-307.008-139.370667-307.008-310.656V267.136c0-32.746667 20.629333-61.482667 51.328-71.488l235.498667-76.778667a30.933333 30.933333 0 0 1 19.2 0l235.498667 76.778667a74.752 74.752 0 0 1 51.328 71.488v328.938667zM520.426667 359.872c-90.090667 0-163.370667 73.28-163.370667 163.370667s73.28 163.370667 163.370667 163.370666 163.370667-73.28 163.370666-163.370666-73.301333-163.370667-163.370666-163.370667z m0 262.72c-54.784 0-99.370667-44.565333-99.370667-99.370667s44.565333-99.370667 99.370667-99.370666 99.370667 44.565333 99.370666 99.370666-44.586667 99.370667-99.370666 99.370667z" /></svg>