<?xml version="1.0" standalone="no"?><!DOCTYPE svg PUBLIC "-//W3C//DTD SVG 1.1//EN" "http://www.w3.org/Graphics/SVG/1.1/DTD/svg11.dtd"><svg class="icon" width="200px" height="200.00px" viewBox="0 0 1024 1024" version="1.1" xmlns="http://www.w3.org/2000/svg"><path fill="#333333" d="M795.904 376.256c-21.909333-25.578667-54.528-40.256-89.429333-40.256h-388.906667c-34.922667 0-67.52 14.677333-89.429333 40.256-20.010667 23.381333-28.842667 53.866667-24.277334 83.157333l61.781334 440.448c6.741333 43.413333 46.784 76.138667 93.141333 76.138667h306.496c46.357333 0 86.4-32.746667 93.205333-76.608l61.653334-439.509333a104.234667 104.234667 0 0 0-24.234667-83.626667zM362.666667 912h-3.925334c-15.104 0-27.968-9.450667-29.824-21.504l-61.781333-440.448c-1.792-11.456 1.621333-22.869333 9.578667-32.149333 9.728-11.370667 24.597333-17.898667 40.810666-17.898667H362.666667v512z m117.333333 0H426.666667v-512h53.333333v512z m117.333333 0h-53.333333v-512H597.333333v512z m159.466667-461.482667l-61.653333 439.509334c-1.941333 12.522667-14.784 21.973333-29.888 21.973333H661.333333v-512h45.12c16.213333 0 31.082667 6.528 40.810667 17.898667 7.957333 9.28 11.392 20.714667 9.536 32.618666zM277.333333 282.666667m-32 0a32 32 0 1 0 64 0 32 32 0 1 0-64 0ZM448 282.666667m-32 0a32 32 0 1 0 64 0 32 32 0 1 0-64 0ZM341.333333 197.333333m-32 0a32 32 0 1 0 64 0 32 32 0 1 0-64 0ZM469.333333 176m-32 0a32 32 0 1 0 64 0 32 32 0 1 0-64 0ZM533.333333 90.666667m-32 0a32 32 0 1 0 64 0 32 32 0 1 0-64 0ZM576 197.333333m-32 0a32 32 0 1 0 64 0 32 32 0 1 0-64 0ZM618.666667 282.666667m-32 0a32 32 0 1 0 64 0 32 32 0 1 0-64 0ZM746.666667 261.333333m-32 0a32 32 0 1 0 64 0 32 32 0 1 0-64 0ZM661.333333 133.333333m-32 0a32 32 0 1 0 64 0 32 32 0 1 0-64 0Z" /></svg>