<?xml version="1.0" standalone="no"?><!DOCTYPE svg PUBLIC "-//W3C//DTD SVG 1.1//EN" "http://www.w3.org/Graphics/SVG/1.1/DTD/svg11.dtd"><svg class="icon" width="200px" height="200.00px" viewBox="0 0 1024 1024" version="1.1" xmlns="http://www.w3.org/2000/svg"><path fill="#333333" d="M757.333333 309.333333C757.333333 174.058667 647.274667 64 512 64S266.666667 174.058667 266.666667 309.333333c0 85.546667 44.096 160.917333 110.656 204.842667C201.514667 571.84 74.666667 730.56 74.666667 917.333333a32 32 0 0 0 64 0c0-199.978667 172.266667-362.666667 384-362.666666 2.517333 0 4.928-0.362667 7.274666-0.917334 126.890667-9.237333 227.392-115.2 227.392-244.416zM512 490.666667c-99.989333 0-181.333333-81.344-181.333333-181.333334S412.010667 128 512 128s181.333333 81.344 181.333333 181.333333S611.989333 490.666667 512 490.666667zM885.333333 597.333333a32 32 0 0 0-32 32v200.085334l-222.698666-222.72A32 32 0 0 0 576 629.333333v277.333334a32 32 0 0 0 64 0v-200.085334L862.698667 929.28A31.957333 31.957333 0 0 0 917.333333 906.666667v-277.333334a32 32 0 0 0-32-32z" /></svg>