<?xml version="1.0" standalone="no"?><!DOCTYPE svg PUBLIC "-//W3C//DTD SVG 1.1//EN" "http://www.w3.org/Graphics/SVG/1.1/DTD/svg11.dtd"><svg class="icon" width="200px" height="200.00px" viewBox="0 0 1024 1024" version="1.1" xmlns="http://www.w3.org/2000/svg"><path fill="#333333" d="M842.410667 186.858667a116.821333 116.821333 0 0 0-1.365334-13.482667 114.304 114.304 0 0 0-97.088-97.088 116.821333 116.821333 0 0 0-13.482666-1.365333c-0.874667-0.021333-1.706667-0.256-2.581334-0.256H296.106667c-0.874667 0-1.706667 0.234667-2.581334 0.256a116.821333 116.821333 0 0 0-13.482666 1.365333 114.304 114.304 0 0 0-97.088 97.088 121.749333 121.749333 0 0 0-1.365334 13.482667c-0.021333 0.874667-0.256 1.706667-0.256 2.581333V834.56a114.901333 114.901333 0 0 0 114.773334 114.773333h431.786666a114.901333 114.901333 0 0 0 114.773334-114.773333V189.44c0-0.874667-0.234667-1.706667-0.256-2.581333zM778.666667 834.56a50.816 50.816 0 0 1-50.773334 50.773333H296.106667a50.816 50.816 0 0 1-50.773334-50.773333V445.376c60.202667 82.24 157.162667 135.957333 266.666667 135.957333s206.464-53.717333 266.666667-135.957333V834.56z m0-583.893333c0 147.050667-119.616 266.666667-266.666667 266.666666s-266.666667-119.616-266.666667-266.666666V192c0-29.418667 23.914667-53.333333 53.333334-53.333333h426.666666c29.418667 0 53.333333 23.914667 53.333334 53.333333v58.666667zM512 197.333333c-64.682667 0-117.333333 52.650667-117.333333 117.333334s52.650667 117.333333 117.333333 117.333333 117.333333-52.650667 117.333333-117.333333-52.650667-117.333333-117.333333-117.333334z m0 170.666667c-29.418667 0-53.333333-23.914667-53.333333-53.333333s23.914667-53.333333 53.333333-53.333334 53.333333 23.914667 53.333333 53.333334-23.914667 53.333333-53.333333 53.333333z" /></svg>