<?xml version="1.0" standalone="no"?><!DOCTYPE svg PUBLIC "-//W3C//DTD SVG 1.1//EN" "http://www.w3.org/Graphics/SVG/1.1/DTD/svg11.dtd"><svg class="icon" width="200px" height="200.00px" viewBox="0 0 1024 1024" version="1.1" xmlns="http://www.w3.org/2000/svg"><path fill="#333333" d="M761.979 256H704V134c0-38.66-31.34-70-70-70H390c-38.66 0-70 31.34-70 70v122h-58c-38.66 0-70 31.34-70 70v313.923c0 176.731 143.269 320 320 320h0.001c176.719 0 319.979-143.259 319.979-319.979V326c-0.001-38.66-31.341-70-70.001-70zM370 134c0-11.028 8.972-20 20-20h244c11.028 0 20 8.972 20 20v122H370V134z m411.979 505.944c0 36.469-7.131 71.82-21.196 105.073-13.595 32.143-33.069 61.021-57.879 85.831-24.81 24.811-53.688 44.284-85.831 57.879-33.252 14.065-68.604 21.196-105.073 21.196-36.472 0-71.826-7.132-105.081-21.198-32.145-13.596-61.025-33.071-85.838-57.884s-44.288-53.693-57.884-85.838C249.132 711.749 242 676.395 242 639.923V326c0-11.028 8.972-20 20-20h499.979c11.028 0 20 8.972 20 20v313.944z"  /><path fill="#333333" d="M512 572c-68.925 0-125 56.075-125 125s56.075 125 125 125 125-56.075 125-125-56.075-125-125-125z m0 200c-41.355 0-75-33.645-75-75s33.645-75 75-75 75 33.645 75 75-33.645 75-75 75zM474 165h-40c-11.046 0-20 8.954-20 20s8.954 20 20 20h40c11.046 0 20-8.954 20-20s-8.954-20-20-20zM590 165h-40c-11.046 0-20 8.954-20 20s8.954 20 20 20h40c11.046 0 20-8.954 20-20s-8.954-20-20-20z"  /></svg>