<?xml version="1.0" standalone="no"?><!DOCTYPE svg PUBLIC "-//W3C//DTD SVG 1.1//EN" "http://www.w3.org/Graphics/SVG/1.1/DTD/svg11.dtd"><svg class="icon" width="200px" height="200.00px" viewBox="0 0 1024 1024" version="1.1" xmlns="http://www.w3.org/2000/svg"><path fill="#333333" d="M451.896 420.628c-3.905-3.905-9.024-5.858-14.142-5.858s-10.237 1.953-14.142 5.858c-7.81 7.81-7.81 20.474 0 28.284l148.492 148.493c3.905 3.905 9.024 5.858 14.142 5.858s10.237-1.953 14.142-5.858c7.81-7.81 7.81-20.474 0-28.284L451.896 420.628zM451.896 532.661a19.934 19.934 0 0 0-14.142-5.858 19.939 19.939 0 0 0-14.142 5.858c-7.81 7.81-7.81 20.474 0 28.284l42.427 42.427a19.934 19.934 0 0 0 14.142 5.858 19.939 19.939 0 0 0 14.142-5.858c7.81-7.81 7.811-20.474 0-28.284l-42.427-42.427z"  /><path fill="#333333" d="M842 412h-30V312c0-55.228-44.772-100-100-100h-12.626l-24.025-95.139C667.5 85.778 639.538 64 607.479 64H416.521c-32.059 0-60.02 21.778-67.869 52.861L324.626 212H312c-55.228 0-100 44.772-100 100v400c0 55.228 44.772 100 100 100h12.626l24.025 95.139c7.85 31.083 35.811 52.861 67.87 52.861H607.48c32.059 0 60.02-21.778 67.869-52.861L699.374 812H712c55.228 0 100-44.772 100-100V612h30c38.66 0 70-31.34 70-70v-60c0-38.66-31.34-70-70-70zM397.129 129.103A19.98 19.98 0 0 1 416.52 114h190.959a19.979 19.979 0 0 1 19.391 15.103L647.804 212H376.196l20.933-82.897z m229.742 765.794A19.98 19.98 0 0 1 607.479 910H416.521a19.979 19.979 0 0 1-19.391-15.103L376.196 812h271.608l-20.933 82.897zM762 712c0 27.57-22.43 50-50 50H312c-27.57 0-50-22.43-50-50V312c0-27.57 22.43-50 50-50h400c27.57 0 50 22.43 50 50v400z m100-170c0 11.028-8.972 20-20 20h-30V462h30c11.028 0 20 8.972 20 20v60z"  /></svg>