<?xml version="1.0" standalone="no"?><!DOCTYPE svg PUBLIC "-//W3C//DTD SVG 1.1//EN" "http://www.w3.org/Graphics/SVG/1.1/DTD/svg11.dtd"><svg class="icon" width="200px" height="200.00px" viewBox="0 0 1024 1024" version="1.1" xmlns="http://www.w3.org/2000/svg"><path fill="#333333" d="M890 94H134c-38.66 0-70 31.34-70 70v550c0 38.66 31.34 70 70 70h253v96H187c-13.807 0-25 11.193-25 25s11.193 25 25 25h650c13.807 0 25-11.193 25-25s-11.193-25-25-25H637v-96h253c38.66 0 70-31.34 70-70V164c0-38.66-31.34-70-70-70zM587 880H437v-96h150v96z m323-166c0 11.028-8.972 20-20 20H134c-11.028 0-20-8.972-20-20V604h796v110zM114 554V164c0-11.028 8.972-20 20-20h756c11.028 0 20 8.972 20 20v390H114z"  /><path fill="#333333" d="M512 669m-25 0a25 25 0 1 0 50 0 25 25 0 1 0-50 0Z"  /><path fill="#333333" d="M451.896 260.763c-3.905-3.905-9.024-5.858-14.142-5.858s-10.237 1.953-14.142 5.858c-7.81 7.81-7.81 20.474 0 28.284L572.104 437.54c3.905 3.905 9.024 5.858 14.142 5.858s10.237-1.953 14.142-5.858c7.81-7.81 7.81-20.474 0-28.284L451.896 260.763zM451.896 372.796a19.934 19.934 0 0 0-14.142-5.858 19.939 19.939 0 0 0-14.142 5.858c-7.81 7.81-7.81 20.474 0 28.284l42.427 42.427a19.939 19.939 0 0 0 14.142 5.858 19.939 19.939 0 0 0 14.142-5.858c7.81-7.81 7.811-20.474 0-28.284l-42.427-42.427z"  /></svg>