<?xml version="1.0" standalone="no"?><!DOCTYPE svg PUBLIC "-//W3C//DTD SVG 1.1//EN" "http://www.w3.org/Graphics/SVG/1.1/DTD/svg11.dtd"><svg class="icon" width="200px" height="200.00px" viewBox="0 0 1024 1024" version="1.1" xmlns="http://www.w3.org/2000/svg"><path fill="#333333" d="M890 256H537v-33c0-24.813 20.187-45 45-45 13.808 0 25-11.193 25-25s-11.192-25-25-25c-52.383 0-95 42.617-95 95v33H134c-38.66 0-70 31.34-70 70v500c0 38.66 31.34 70 70 70h756c38.66 0 70-31.34 70-70V326c0-38.66-31.34-70-70-70z m20 570c0 11.028-8.972 20-20 20H134c-11.028 0-20-8.972-20-20V326c0-11.028 8.972-20 20-20h756c11.028 0 20 8.972 20 20v500z"  /><path fill="#333333" d="M229 366h-30c-19.33 0-35 15.67-35 35v30c0 19.33 15.67 35 35 35h30c19.33 0 35-15.67 35-35v-30c0-19.33-15.67-35-35-35zM348 466h30c19.33 0 35-15.67 35-35v-30c0-19.33-15.67-35-35-35h-30c-19.33 0-35 15.67-35 35v30c0 19.33 15.67 35 35 35zM497 466h30c19.33 0 35-15.67 35-35v-30c0-19.33-15.67-35-35-35h-30c-19.33 0-35 15.67-35 35v30c0 19.33 15.67 35 35 35zM646 466h30c19.33 0 35-15.67 35-35v-30c0-19.33-15.67-35-35-35h-30c-19.33 0-35 15.67-35 35v30c0 19.33 15.67 35 35 35z"  /><path fill="#333333" d="M825 366h-30c-19.33 0-35 15.67-35 35v125H646c-19.33 0-35 15.67-35 35v30c0 19.33 15.67 35 35 35h179c19.33 0 35-15.67 35-35V401c0-19.33-15.67-35-35-35zM229 526h-30c-19.33 0-35 15.67-35 35v30c0 19.33 15.67 35 35 35h30c19.33 0 35-15.67 35-35v-30c0-19.33-15.67-35-35-35zM348 626h30c19.33 0 35-15.67 35-35v-30c0-19.33-15.67-35-35-35h-30c-19.33 0-35 15.67-35 35v30c0 19.33 15.67 35 35 35zM497 626h30c19.33 0 35-15.67 35-35v-30c0-19.33-15.67-35-35-35h-30c-19.33 0-35 15.67-35 35v30c0 19.33 15.67 35 35 35zM229 686h-30c-19.33 0-35 15.67-35 35v30c0 19.33 15.67 35 35 35h30c19.33 0 35-15.67 35-35v-30c0-19.33-15.67-35-35-35zM676 686H348c-19.33 0-35 15.67-35 35v30c0 19.33 15.67 35 35 35h328c19.33 0 35-15.67 35-35v-30c0-19.33-15.67-35-35-35zM825 686h-30c-19.33 0-35 15.67-35 35v30c0 19.33 15.67 35 35 35h30c19.33 0 35-15.67 35-35v-30c0-19.33-15.67-35-35-35z"  /></svg>