<?xml version="1.0" standalone="no"?><!DOCTYPE svg PUBLIC "-//W3C//DTD SVG 1.1//EN" "http://www.w3.org/Graphics/SVG/1.1/DTD/svg11.dtd"><svg class="icon" width="200px" height="200.00px" viewBox="0 0 1024 1024" version="1.1" xmlns="http://www.w3.org/2000/svg"><path fill="#333333" d="M189 381m-25 0a25 25 0 1 0 50 0 25 25 0 1 0-50 0Z"  /><path fill="#333333" d="M890 256h-58V134c0-38.66-31.34-70-70-70H262c-38.66 0-70 31.34-70 70v122h-58c-38.66 0-70 31.34-70 70v244c0 38.66 31.34 70 70 70h122v250c0 38.66 31.34 70 70 70h372c38.66 0 70-31.34 70-70V640h122c38.66 0 70-31.34 70-70V326c0-38.66-31.34-70-70-70zM242 134c0-11.028 8.972-20 20-20h500c11.028 0 20 8.972 20 20v122H242V134z m476 756c0 11.028-8.972 20-20 20H326c-11.028 0-20-8.972-20-20V518c0-1.378 0.14-2.725 0.407-4.026a19.84 19.84 0 0 1 0.674-2.408 19.89 19.89 0 0 1 1.946-4.095 20.117 20.117 0 0 1 2.837-3.607c0.045-0.045 0.096-0.084 0.142-0.129a20.174 20.174 0 0 1 3.405-2.672 19.76 19.76 0 0 1 3.796-1.851c0.74-0.268 1.496-0.498 2.273-0.678a19.925 19.925 0 0 1 4.519-0.534h372c1.556 0 3.064 0.196 4.519 0.534 0.777 0.18 1.533 0.41 2.273 0.678 0.728 0.264 1.437 0.567 2.123 0.91 0.574 0.288 1.132 0.601 1.673 0.941a20.045 20.045 0 0 1 3.405 2.672c0.046 0.045 0.097 0.084 0.142 0.129a20.117 20.117 0 0 1 2.837 3.607 19.974 19.974 0 0 1 1.946 4.095c0.268 0.785 0.505 1.583 0.674 2.408A19.87 19.87 0 0 1 718 518v372z m192-320c0 11.028-8.972 20-20 20H768v-72c0-38.66-31.34-70-70-70H326c-38.66 0-70 31.34-70 70v72H134c-11.028 0-20-8.972-20-20V326c0-11.028 8.972-20 20-20h756c11.028 0 20 8.972 20 20v244z"  /><path fill="#333333" d="M643.5 756h-263c-13.807 0-25 11.193-25 25s11.193 25 25 25h263c13.807 0 25-11.193 25-25s-11.193-25-25-25zM643.5 602h-263c-13.807 0-25 11.193-25 25s11.193 25 25 25h263c13.807 0 25-11.193 25-25s-11.193-25-25-25z"  /></svg>