<?xml version="1.0" standalone="no"?><!DOCTYPE svg PUBLIC "-//W3C//DTD SVG 1.1//EN" "http://www.w3.org/Graphics/SVG/1.1/DTD/svg11.dtd"><svg class="icon" width="200px" height="200.00px" viewBox="0 0 1024 1024" version="1.1" xmlns="http://www.w3.org/2000/svg"><path fill="#333333" d="M860 256.198h-37.635l-8.308-19.661-50.973-120.624A84.841 84.841 0 0 0 684.787 64H339.213c-34.237 0-64.97 20.377-78.296 51.914l-50.973 120.624-8.308 19.661H164c-55.229 0-100 44.771-100 100v503.635c0 55.229 44.771 100 100 100h696c55.229 0 100-44.771 100-100V356.198c0-55.228-44.771-100-100-100zM306.973 135.376A35 35 0 0 1 339.213 114h345.575a35 35 0 0 1 32.24 21.376L768 256H256l50.973-120.624zM164 306.198h696c27.57 0 50 22.43 50 50v117.818H692.798a228.158 228.158 0 0 0-21.7-25.099C628.603 406.42 572.1 383.016 512 383.016s-116.602 23.404-159.099 65.901A228.275 228.275 0 0 0 331.214 474H114V356.198c0-27.57 22.43-50 50-50z m173 301.818c0-96.495 78.505-175 175-175s175 78.505 175 175-78.505 175-175 175-175-78.505-175-175zM303.148 692H114V524h189.161C292.563 550.354 287 578.755 287 608.016c0 29.248 5.559 57.639 16.148 83.984z m417.698-167.984H910v168H720.846c10.594-26.349 16.154-54.746 16.154-84 0-29.255-5.561-57.651-16.154-84zM860 909.833H164c-27.57 0-50-22.43-50-50V742h217.19a228.212 228.212 0 0 0 21.711 25.114c42.497 42.497 99 65.901 159.099 65.901s116.603-23.404 159.099-65.901a228.056 228.056 0 0 0 21.699-25.099H910v117.818c0 27.57-22.43 50-50 50z"  /><path fill="#333333" d="M825.332 382.005m-25 0a25 25 0 1 0 50 0 25 25 0 1 0-50 0Z"  /></svg>