<?xml version="1.0" standalone="no"?><!DOCTYPE svg PUBLIC "-//W3C//DTD SVG 1.1//EN" "http://www.w3.org/Graphics/SVG/1.1/DTD/svg11.dtd"><svg class="icon" width="200px" height="200.00px" viewBox="0 0 1024 1024" version="1.1" xmlns="http://www.w3.org/2000/svg"><path fill="#333333" d="M572.104 414.405c3.905 3.905 9.024 5.858 14.142 5.858s10.237-1.953 14.142-5.858c7.81-7.81 7.81-20.474 0-28.284L451.896 237.628c-3.905-3.905-9.024-5.858-14.142-5.858s-10.237 1.953-14.142 5.858c-7.81 7.81-7.81 20.474 0 28.284l148.492 148.493zM466.038 420.372a19.939 19.939 0 0 0 14.142 5.858 19.939 19.939 0 0 0 14.142-5.858c7.81-7.81 7.811-20.474 0-28.284l-42.427-42.427a19.934 19.934 0 0 0-14.142-5.858 19.939 19.939 0 0 0-14.142 5.858c-7.81 7.81-7.81 20.474 0 28.284l42.427 42.427zM237 674h550c13.807 0 25-11.193 25-25s-11.193-25-25-25H237c-13.807 0-25 11.193-25 25s11.193 25 25 25zM217 764h590c13.807 0 25-11.193 25-25s-11.193-25-25-25H217c-13.807 0-25 11.193-25 25s11.193 25 25 25z"  /><path fill="#333333" d="M959.289 794a85.934 85.934 0 0 0-2.307-28.836L915.357 600.72c-4.573-18.065-14.674-33.113-27.915-43.163C892.895 547.592 896 536.16 896 524V134c0-38.66-31.34-70-70-70H198c-38.66 0-70 31.34-70 70v390c0 12.16 3.105 23.592 8.558 33.556-13.242 10.05-23.343 25.099-27.915 43.163L67.018 765.164A85.986 85.986 0 0 0 64.711 794H64v94.712C64 928.083 95.34 960 134 960h756c38.66 0 70-31.917 70-71.288V794h-0.711zM178 134c0-11.028 8.972-20 20-20h628c11.028 0 20 8.972 20 20v390c0 11.028-8.972 20-20 20H198c-11.028 0-20-8.972-20-20V134z m-62.511 643.434l41.625-164.445c2.785-11.003 10.74-18.989 18.914-18.989h671.944c8.174 0 16.129 7.986 18.914 18.989l41.625 164.445c2.63 10.39 0.589 21.232-5.459 29.002-2.686 3.45-7.201 7.564-13.455 7.564H134.403c-6.254 0-10.769-4.113-13.455-7.564-6.048-7.77-8.089-18.612-5.459-29.002zM910 888.712C910 900.45 901.028 910 890 910H134c-11.028 0-20-9.55-20-21.288v-27.35a70.302 70.302 0 0 0 20.432 3.007h755.193a70.3 70.3 0 0 0 20.375-2.99v27.333z"  /></svg>