<?xml version="1.0" standalone="no"?><!DOCTYPE svg PUBLIC "-//W3C//DTD SVG 1.1//EN" "http://www.w3.org/Graphics/SVG/1.1/DTD/svg11.dtd"><svg class="icon" width="200px" height="200.00px" viewBox="0 0 1024 1024" version="1.1" xmlns="http://www.w3.org/2000/svg"><path fill="#333333" d="M752 64H272c-46.869 0-85 38.131-85 85v726c0 46.869 38.131 85 85 85h480c46.869 0 85-38.131 85-85V149c0-46.869-38.131-85-85-85z m35 811c0 19.33-15.67 35-35 35H272c-19.33 0-35-15.67-35-35V149c0-19.33 15.67-35 35-35h480c19.33 0 35 15.67 35 35v726z"  /><path fill="#333333" d="M451.896 388.628c-3.905-3.905-9.024-5.858-14.142-5.858s-10.237 1.953-14.142 5.858c-7.81 7.81-7.81 20.474 0 28.284l148.492 148.493c3.905 3.905 9.024 5.858 14.142 5.858s10.237-1.953 14.142-5.858c7.81-7.81 7.81-20.474 0-28.284L451.896 388.628zM451.896 500.661a19.934 19.934 0 0 0-14.142-5.858 19.939 19.939 0 0 0-14.142 5.858c-7.81 7.81-7.81 20.474 0 28.284l42.427 42.427a19.934 19.934 0 0 0 14.142 5.858 19.939 19.939 0 0 0 14.142-5.858c7.81-7.81 7.811-20.474 0-28.284l-42.427-42.427z"  /><path fill="#333333" d="M667 180H357c-46.869 0-85 38.131-85 85v430c0 46.869 38.131 85 85 85h310c46.869 0 85-38.131 85-85V265c0-46.869-38.131-85-85-85z m35 515c0 19.33-15.67 35-35 35H357c-19.33 0-35-15.67-35-35V265c0-19.33 15.67-35 35-35h310c19.33 0 35 15.67 35 35v430z"  /><path fill="#333333" d="M512 845m-35 0a35 35 0 1 0 70 0 35 35 0 1 0-70 0Z"  /><path fill="#333333" d="M512 147m-20 0a20 20 0 1 0 40 0 20 20 0 1 0-40 0Z"  /></svg>