<?xml version="1.0" standalone="no"?><!DOCTYPE svg PUBLIC "-//W3C//DTD SVG 1.1//EN" "http://www.w3.org/Graphics/SVG/1.1/DTD/svg11.dtd"><svg class="icon" width="200px" height="200.00px" viewBox="0 0 1024 1024" version="1.1" xmlns="http://www.w3.org/2000/svg"><path fill="#333333" d="M890 507.5h-10v-55c0-38.66-31.34-70-70-70h-1.85c-51.042-112.64-164.437-191-296.15-191s-245.108 78.36-296.15 191H214c-38.66 0-70 31.34-70 70v55h-10c-38.66 0-70 31.34-70 70v60c0 38.66 31.34 70 70 70h10v55c0 38.66 31.34 70 70 70h135.568a99.998 99.998 0 0 0 61.564-21.198l58.429-45.647a69.887 69.887 0 0 1 43.097-14.838 69.89 69.89 0 0 1 42.268 14.203l62.29 47.189a99.995 99.995 0 0 0 60.386 20.291H810c38.66 0 70-31.34 70-70v-55h10c38.66 0 70-31.34 70-70v-60c0-38.66-31.34-70-70-70zM283.102 364.056a276.143 276.143 0 0 1 60.089-64.653c23.627-18.407 49.867-32.728 77.992-42.566C450.278 246.66 480.834 241.5 512 241.5s61.722 5.16 90.817 15.337c28.125 9.838 54.366 24.159 77.992 42.566a276.185 276.185 0 0 1 60.089 64.653 276.168 276.168 0 0 1 11.293 18.444H271.809a276.168 276.168 0 0 1 11.293-18.444zM134 657.5c-11.028 0-20-8.972-20-20v-60c0-11.028 8.972-20 20-20h10v100h-10z m696 105c0 11.028-8.972 20-20 20H677.602c-10.834 0-21.557-3.603-30.193-10.145l-62.29-47.189c-20.726-15.701-46.459-24.348-72.46-24.349-26.645-0.001-52.883 9.033-73.88 25.437l-58.429 45.647c-8.748 6.835-19.68 10.599-30.782 10.599H214c-11.028 0-20-8.972-20-20v-310c0-11.028 8.972-20 20-20h596c11.028 0 20 8.972 20 20v310z m80-125c0 11.028-8.972 20-20 20h-10v-100h10c11.028 0 20 8.972 20 20v60z"  /><path fill="#333333" d="M349 482.5c-69.036 0-125 55.964-125 125s55.964 125 125 125 125-55.964 125-125-55.964-125-125-125z m0 200c-41.355 0-75-33.645-75-75s33.645-75 75-75 75 33.645 75 75-33.645 75-75 75zM675 482.5c-69.036 0-125 55.964-125 125s55.964 125 125 125 125-55.964 125-125-55.964-125-125-125z m0 200c-41.355 0-75-33.645-75-75s33.645-75 75-75 75 33.645 75 75-33.645 75-75 75z"  /></svg>