<?xml version="1.0" standalone="no"?><!DOCTYPE svg PUBLIC "-//W3C//DTD SVG 1.1//EN" "http://www.w3.org/Graphics/SVG/1.1/DTD/svg11.dtd"><svg class="icon" width="200px" height="200.00px" viewBox="0 0 1024 1024" version="1.1" xmlns="http://www.w3.org/2000/svg"><path fill="#333333" d="M959.415 796.798l0.373-0.049-85.528-652.117-0.105-0.719a95.085 95.085 0 0 0-32.184-57.226A95.088 95.088 0 0 0 780.36 64H268.64a95.083 95.083 0 0 0-61.61 22.687 95.087 95.087 0 0 0-32.164 57.103L67.16 779.254c-0.755 3.626-1.379 7.3-1.867 11.016l-0.941 5.552 0.315 0.053A151.617 151.617 0 0 0 64 810c0 82.843 67.157 150 150 150h596c82.843 0 150-67.157 150-150 0-4.45-0.205-8.851-0.585-13.202zM224.177 152.061l0.034-0.208C227.739 129.919 246.424 114 268.64 114h511.72c22.107 0 40.718 15.765 44.376 37.532l70.139 534.785C870.738 669.721 841.506 660 810 660H214c-29.333 0-56.695 8.428-79.81 22.983l89.987-530.922zM810 910H214c-55.14 0-100-44.86-100-100 0-4.23 0.267-8.399 0.779-12.492l1.426-8.414C125.844 743.956 166.028 710 214 710h596c55.14 0 100 44.86 100 100s-44.86 100-100 100z"  /><path fill="#333333" d="M785 810m-25 0a25 25 0 1 0 50 0 25 25 0 1 0-50 0Z"  /><path fill="#333333" d="M387 579.5h250c69.036 0 125-55.964 125-125s-55.964-125-125-125c0-69.036-55.964-125-125-125s-125 55.964-125 125c-69.036 0-125 55.964-125 125s55.964 125 125 125z m0-200h50v-50c0-41.355 33.645-75 75-75s75 33.645 75 75v50h50c41.355 0 75 33.645 75 75s-33.645 75-75 75H387c-41.355 0-75-33.645-75-75s33.645-75 75-75z"  /></svg>