<?xml version="1.0" standalone="no"?><!DOCTYPE svg PUBLIC "-//W3C//DTD SVG 1.1//EN" "http://www.w3.org/Graphics/SVG/1.1/DTD/svg11.dtd"><svg class="icon" width="200px" height="200.00px" viewBox="0 0 1024 1024" version="1.1" xmlns="http://www.w3.org/2000/svg"><path fill="#333333" d="M892.766221 713.223535a31.085943 31.085943 0 0 1-22.070551 9.140172 31.070346 31.070346 0 0 1-22.054954-9.140172l-19.964881-19.980478c-78.814486 68.317326-178.358134 105.689087-283.67288 105.689088-115.905491 0-224.885664-45.139348-306.866456-127.104542C156.155708 589.878007 111.01636 480.913431 111.01636 364.992342c0-105.345941 37.402956-204.873991 105.704685-283.688477l-15.581965-15.597563A31.195126 31.195126 0 0 1 245.264585 21.596394L279.781993 56.129398c0.826671 0.670695 1.715732 1.232207 2.464415 2.012086l262.756547 262.725352 19.793308-19.793307a31.195126 31.195126 0 1 1 44.109908 44.125506L589.128461 364.976745l262.725353 262.725352c0.857866 0.842268 1.528561 1.824915 2.261646 2.760769l38.650761 38.635164a31.195126 31.195126 0 0 1 0 44.125505zM260.893344 125.476164A374.497489 374.497489 0 0 0 230.072559 167.667572l101.820892 101.820891a20.760356 20.760356 0 0 1 0 29.417004 20.744759 20.744759 0 0 1-29.417004 0L209.171825 205.600845a370.223757 370.223757 0 0 0-35.749615 159.391497 369.05394 369.05394 0 0 0 108.824198 262.709755 369.194318 369.194318 0 0 0 262.756547 108.824198c56.042044 0 110.196783-12.35327 159.3759-35.734017L383.474592 379.903613a20.791552 20.791552 0 1 1 29.417004-29.417004l329.420532 329.404934a370.660489 370.660489 0 0 0 42.191408-30.820784L260.893344 125.476164z m458.194013 148.800751a54.622666 54.622666 0 0 1-77.19234 0 54.591471 54.591471 0 1 1 77.19234 0zM367.112748 948.294409h58.709228v-83.8525a31.195126 31.195126 0 0 1 62.421447 0v83.8525h58.69363a31.195126 31.195126 0 1 1 0 62.405849H367.112748a31.195126 31.195126 0 1 1 0-62.405849z" /></svg>