<?xml version="1.0" standalone="no"?><!DOCTYPE svg PUBLIC "-//W3C//DTD SVG 1.1//EN" "http://www.w3.org/Graphics/SVG/1.1/DTD/svg11.dtd"><svg class="icon" width="200px" height="200.00px" viewBox="0 0 1024 1024" version="1.1" xmlns="http://www.w3.org/2000/svg"><path fill="#333333" d="M763.290701 1008.246154H252.930566a62.620684 62.620684 0 0 1-62.620683-62.636315V70.452177A62.620684 62.620684 0 0 1 252.930566 7.815862h510.360135a62.636315 62.636315 0 0 1 62.636315 62.636315v875.157662a62.636315 62.636315 0 0 1-62.636315 62.636315z m0-937.793977H252.930566v875.157662h510.360135V70.452177zM322.663684 200.898908h370.909531c11.536212 0 20.868351 9.347771 20.868351 20.883982v89.007033a20.868351 20.868351 0 1 1-41.752333 0v-68.12305H343.547667V642.463828a20.883982 20.883982 0 1 1-41.752333 0V221.78289c0-11.536212 9.332139-20.883982 20.86835-20.883982z m0 514.799544h350.025549V411.442589a20.883982 20.883982 0 1 1 41.752333 0V736.566803c0 11.536212-9.332139 20.883982-20.868351 20.883982H322.663684a20.868351 20.868351 0 1 1 0-41.752333z m185.439134 95.541093a45.003731 45.003731 0 1 1 0 90.007463 44.9881 44.9881 0 1 1 0-90.007463z m63.058372-654.625309h-126.101112a20.868351 20.868351 0 1 1 0-41.752333h126.101112a20.868351 20.868351 0 0 1 0 41.752333z" /></svg>