<?xml version="1.0" standalone="no"?><!DOCTYPE svg PUBLIC "-//W3C//DTD SVG 1.1//EN" "http://www.w3.org/Graphics/SVG/1.1/DTD/svg11.dtd"><svg class="icon" width="200px" height="200.00px" viewBox="0 0 1024 1024" version="1.1" xmlns="http://www.w3.org/2000/svg"><path fill="#333333" d="M949.473404 711.530472c-23.94302 58.147335-81.215361 99.192513-147.889912 99.192513-66.67455 0-123.946891-41.045178-147.874002-99.192513a63.938205 63.938205 0 0 1-43.686069-60.645045v-66.67455a63.938205 63.938205 0 0 1 63.922296-63.938206h4.804513l111.410612-101.435679c0.302271-0.254544 0.604541-0.445452 0.922721-0.684086 0.572723-0.461361 1.145447-0.922721 1.781806-1.320446 0.572723-0.381816 1.145447-0.715904 1.765897-1.034084 0.62045-0.349998 1.240901-0.636359 1.893169-0.906812 0.652268-0.238635 1.304537-0.47727 1.972714-0.668177 0.636359-0.174999 1.288628-0.349998 1.940896-0.493179 0.684086-0.127272 1.368173-0.206817 2.052259-0.286361a21.238493 21.238493 0 0 1 4.040882 0c0.699995 0.079545 1.368173 0.15909 2.052259 0.286361 0.652268 0.143181 1.304537 0.31818 1.956805 0.493179 0.668177 0.190908 1.304537 0.429543 1.956805 0.668177a18.93169 18.93169 0 0 1 3.659066 1.940896c0.62045 0.397725 1.209083 0.859085 1.781806 1.320446 0.302271 0.238635 0.62045 0.429543 0.922721 0.684086l111.474249 101.499315a63.890478 63.890478 0 0 1 62.824576 63.87457v66.67455a63.954114 63.954114 0 0 1-43.686069 60.645045z m-144.962659-248.132417l-62.458669 56.874616h124.933248l-62.474579-56.874616z m124.726432 120.812822H673.945717v64.097295c0.922721-0.127272 1.829533-0.270453 2.752254-0.270453h127.812774a21.302129 21.302129 0 1 1 0 42.620167h-90.108483a95.867535 95.867535 0 0 0 87.18123 56.158712 95.883444 95.883444 0 0 0 87.213048-56.158712h-12.663551a21.28622 21.28622 0 1 1 0-42.620167h50.240571c0.986357 0 1.924987 0.15909 2.863617 0.302271v-64.129113z m-124.726432-193.94642a31.945239 31.945239 0 0 1-31.961148-31.945239v-24.929377c-11.088562-15.877166-97.792522-51.386017-260.430062-51.386017-162.685266 0-249.373318 35.508851-260.461879 51.386017v24.929377a31.961148 31.961148 0 0 1-63.938205 0v-27.029363c0-81.533541 169.701128-108.515177 290.943492-112.619695v-30.020252c-37.052023-13.188547-63.715479-48.5224-63.715479-90.060756A95.803899 95.803899 0 0 1 510.624091 2.912525a95.803899 95.803899 0 0 1 95.708445 95.676627c0 41.538356-26.663457 76.872209-63.731388 90.060756v29.940707c121.401454 3.75452 293.870745 30.497522 293.870745 112.69924v27.029363c0 17.643063-14.318085 31.945239-31.961148 31.945239zM510.624091 66.834821a31.738422 31.738422 0 1 0 0 63.508662 31.77024 31.77024 0 1 0 0-63.508662zM206.253417 418.152906a23.656659 23.656659 0 0 1 3.531794-2.35453c0.652268-0.31818 1.288628-0.636359 1.956805-0.906812a38.65883 38.65883 0 0 1 1.909078-0.668177c0.668177-0.174999 1.320446-0.349998 2.004532-0.493179a21.238493 21.238493 0 0 1 6.077232-0.286361c0.684086 0.079545 1.352264 0.15909 2.020441 0.286361 0.668177 0.143181 1.320446 0.31818 1.988623 0.493179 0.652268 0.206817 1.288628 0.429543 1.909078 0.668177a21.381674 21.381674 0 0 1 5.47269 3.261342c0.302271 0.238635 0.62045 0.429543 0.922721 0.684086l111.394703 101.435679h1.893169c35.302035 0 63.922296 28.63617 63.922296 63.938206v66.67455c0 28.238446-18.295331 52.181466-43.686069 60.645045-23.927111 58.147335-81.199452 99.192513-147.874002 99.192513-66.690459 0-123.946891-41.045178-147.889912-99.192513A63.954114 63.954114 0 0 1 28.120527 650.885427v-66.67455a63.938205 63.938205 0 0 1 63.906387-63.938206h1.909078l111.410613-101.435679c0.286362-0.254544 0.62045-0.445452 0.906812-0.684086z m-114.226503 166.057971v64.097295c0.922721-0.127272 1.845442-0.270453 2.784072-0.270453h127.796866a21.302129 21.302129 0 1 1 0 42.620167H132.48346a95.883444 95.883444 0 0 0 87.213048 56.158712c38.770193 0 72.067696-23.068026 87.197139-56.158712h-12.695369a21.302129 21.302129 0 0 1 0-42.620167h50.256479c0.986357 0 1.940896 0.15909 2.879526 0.302271v-64.129113H92.026914z m190.128263-63.938206l-62.458669-56.874616-62.490488 56.874616h124.949157z m107.22655 333.309116h89.281216V344.796582a31.977057 31.977057 0 0 1 63.938205 0v508.785205h92.208469a63.938205 63.938205 0 0 1 63.922296 63.906387v39.677005A63.954114 63.954114 0 0 1 634.809617 1021.087475H389.381727a63.954114 63.954114 0 0 1-63.922296-63.922296v-39.677005c0-35.286126 28.63617-63.906387 63.922296-63.906387z m0 103.583392h245.42789v-39.677005H389.381727v39.677005z" /></svg>