<?xml version="1.0" standalone="no"?><!DOCTYPE svg PUBLIC "-//W3C//DTD SVG 1.1//EN" "http://www.w3.org/Graphics/SVG/1.1/DTD/svg11.dtd"><svg class="icon" width="200px" height="200.00px" viewBox="0 0 1024 1024" version="1.1" xmlns="http://www.w3.org/2000/svg"><path fill="#333333" d="M936.115679 108.317134l-136.31712 222.819667 136.871319 218.971944a63.495372 63.495372 0 0 1-53.82064 97.127334H680.234083v42.119124a63.52704 63.52704 0 0 1-63.495372 63.52704H248.354717a63.511206 63.511206 0 0 1-63.495372-63.52704V179.317943a63.495372 63.495372 0 0 1 63.495372-63.479537h202.599321V73.703447a63.495372 63.495372 0 0 1 63.495371-63.479537H882.896741a63.479537 63.479537 0 0 1 53.218938 98.093224z m-421.66627-34.613687v105.614496h-0.063337v31.082647a21.154568 21.154568 0 0 1-42.324969 0v-31.082647H248.354717v510.03726h330.587622l-97.52319-66.709726c-0.015834-0.015834-0.047503-0.047503-0.079172-0.047503l-0.063337-0.063337c-0.205845-0.126674-0.348354-0.316685-0.538364-0.443359a21.946281 21.946281 0 0 1-2.612653-2.185127c-0.459193-0.475028-0.807547-0.997558-1.235072-1.488421-0.443359-0.554199-0.934221-1.076729-1.345912-1.694265-0.364188-0.570033-0.649205-1.219238-0.965889-1.805105-0.332519-0.617536-0.680873-1.203404-0.950056-1.852609-0.253348-0.649205-0.411691-1.298409-0.617536-1.979282-0.190011-0.649205-0.427525-1.266741-0.554199-1.947613a21.53459 21.53459 0 0 1-0.300851-2.992675c0-0.380022-0.095006-0.712542-0.095005-1.060895v-0.126674V306.498697a21.154568 21.154568 0 1 1 42.324969 0v277.400353h102.352639v-0.142509h266.110527l-157.725036-252.239717 157.725036-257.813377H514.449409z m102.289302 590.237773v-37.701367H561.619662l55.119049 37.701367zM100.510257 82.49146l0 0z m0 39.395632c17.528523 0 31.747686 14.203329 31.747685 31.76352v828.242493a31.747686 31.747686 0 1 1-63.495371 0V153.650612c0-17.560191 14.187494-31.76352 31.747686-31.76352z" /></svg>