<?xml version="1.0" standalone="no"?><!DOCTYPE svg PUBLIC "-//W3C//DTD SVG 1.1//EN" "http://www.w3.org/Graphics/SVG/1.1/DTD/svg11.dtd"><svg class="icon" width="200px" height="179.96px" viewBox="0 0 1138 1024" version="1.1" xmlns="http://www.w3.org/2000/svg"><path fill="#333333" d="M836.137437 292.972538a23.063283 23.063283 0 0 1 21.514256-40.773819A288.411516 288.411516 0 0 1 1011.900306 507.736451a288.411516 288.411516 0 0 1-154.248613 255.554944 23.063283 23.063283 0 0 1-31.152643-9.638387 23.046071 23.046071 0 0 1 9.638387-31.118221 242.491487 242.491487 0 0 0 129.670726-214.798336 242.422641 242.422641 0 0 0-129.670726-214.763913z m17.968707 569.508184a23.080494 23.080494 0 0 1-29.121698-14.681328 23.063283 23.063283 0 0 1 14.69854-29.087275A326.741315 326.741315 0 0 0 1064.670474 507.736451a326.758526 326.758526 0 0 0-224.987488-310.958456 23.063283 23.063283 0 0 1 14.423158-43.768603A372.712978 372.712978 0 0 1 1110.779829 507.736451a372.678555 372.678555 0 0 1-256.673685 354.744271z m-112.975663 139.464016a34.680981 34.680981 0 0 1-33.648297 1.497392L164.479563 731.433084a34.560502 34.560502 0 0 1-19.10466-30.911684V314.951502c0-13.097879 7.400904-25.059806 19.10466-30.911683L707.482184 12.030772a34.594924 34.594924 0 0 1 50.067977 30.928895v929.553568a34.594924 34.594924 0 0 1-16.41968 29.431503zM688.394735 98.948368l-58.415509 29.242177v168.327543a23.046071 23.046071 0 1 1-46.074931 0V151.288251L214.530329 336.293645v342.885613L583.904295 864.184652V425.53478a23.046071 23.046071 0 1 1 46.074931 0v461.747577l58.415509 29.242178V98.948368zM43.827613 707.87067A34.560502 34.560502 0 0 1 9.2499 673.292957V342.197157a34.560502 34.560502 0 0 1 69.155426 0v331.0958c0 19.10466-15.490265 34.577713-34.577713 34.577713z" /></svg>