<?xml version="1.0" standalone="no"?><!DOCTYPE svg PUBLIC "-//W3C//DTD SVG 1.1//EN" "http://www.w3.org/Graphics/SVG/1.1/DTD/svg11.dtd"><svg class="icon" width="200px" height="200.00px" viewBox="0 0 1024 1024" version="1.1" xmlns="http://www.w3.org/2000/svg"><path fill="#333333" d="M866.958132 900.621739H640.657674c-14.271763 61.573358-69.436115 107.624415-135.261302 107.624415-65.840819 0-121.00517-46.051057-135.292565-107.624415H143.803348a31.419764 31.419764 0 0 1 0-62.792633h31.10713V570.151476c0-182.250262 148.251264-330.485894 330.485894-330.485894 182.203367 0 330.454631 148.235632 330.454631 330.485894v267.67763h31.107129a31.404132 31.404132 0 1 1 0 62.792633z m-361.56176 44.831782a76.235915 76.235915 0 0 0 69.404852-44.81615H435.975889a76.235915 76.235915 0 0 0 69.420483 44.81615z m267.661999-153.315942h-80.847273a20.930878 20.930878 0 0 1 0-41.861755h80.847273V570.151476c0-147.625995-120.082899-267.708894-267.661999-267.708893-147.610363 0-267.693262 120.082899-267.693262 267.708893v180.124348H567.751316a20.946509 20.946509 0 0 1 0 41.861755H237.70311v45.691527h535.355261v-45.691527zM504.864894 194.646219a93.540232 93.540232 0 0 1-93.415179-93.430811A93.524601 93.524601 0 0 1 504.864894 7.815862a93.508969 93.508969 0 0 1 93.399546 93.399546 93.524601 93.524601 0 0 1-93.399546 93.430811z m0-124.053357c-16.897893 0-30.638178 13.740285-30.638178 30.622546 0 16.897893 13.740285 30.638178 30.638178 30.638178a30.638178 30.638178 0 0 0 0-61.260724z" /></svg>