<?xml version="1.0" standalone="no"?><!DOCTYPE svg PUBLIC "-//W3C//DTD SVG 1.1//EN" "http://www.w3.org/Graphics/SVG/1.1/DTD/svg11.dtd"><svg class="icon" width="200px" height="200.00px" viewBox="0 0 1024 1024" version="1.1" xmlns="http://www.w3.org/2000/svg"><path fill="#333333" d="M958.641309 510.412153c0-241.337411-190.733642-438.88128-429.391103-449.900605V28.147207a21.045492 21.045492 0 0 0-42.059456 0v32.364341C248.53329 71.530873 57.768118 269.074743 57.768118 510.412153c0 241.290118 190.765171 438.849751 429.422632 449.900606v34.697474a21.013964 21.013964 0 1 0 42.059456 0v-34.697474c238.65746-11.050854 429.391103-208.610488 429.391103-449.900606z m-88.800943 138.553433c-18.302484-8.591606-49.405673-15.922058-100.986835-22.290881 6.258472-37.077901 9.663586-76.031768 9.663586-116.262552 0-39.694794-3.342056-78.664425-9.600528-116.262551 51.549633-6.384588 82.637057-13.730804 100.923777-22.290881a385.061571 385.061571 0 0 1 25.711759 138.553432 385.439917 385.439917 0 0 1-25.711759 138.553433zM571.782594 892.415428c-13.951506 2.348898-28.123714 3.972632-42.532388 4.745089V655.460525c74.36074 0.520226 138.348495 3.720402 189.551312 8.244788-26.452686 110.051373-80.524626 195.053092-147.018924 228.710115zM297.623674 663.705313c51.202816-4.524387 115.174807-7.724563 189.567076-8.244788v241.699992a378.030643 378.030643 0 0 1-42.548153-4.745089c-66.494297-33.657023-120.566237-118.658743-147.018923-228.710115z m-17.656143-153.29316c0-38.275997 3.263234-75.842595 9.379826-111.86428 57.54011 5.265314 125.705436 8.307846 197.843393 8.812307v206.072418c-72.201015 0.520226-140.397869 3.562758-197.985273 8.8596a677.396861 677.396861 0 0 1-9.237946-111.880045z m249.282675 103.020445V407.36018c72.137958-0.504461 140.287518-3.546993 197.827629-8.812307 6.116593 36.021686 9.379826 73.588284 9.379826 111.86428 0 38.827751-3.263234 76.347056-9.253711 111.880045-57.555875-5.296843-125.768493-8.339375-197.953744-8.8596zM344.459748 159.464774c-4.540151 5.627896-9.017245 11.397671-13.336694 17.482734a21.029728 21.029728 0 0 0 34.271835 24.35602c23.993438-33.767374 51.486575-58.50174 80.571919-73.178409a388.703151 388.703151 0 0 1 41.223942-4.492858v77.986555a21.029728 21.029728 0 0 0 42.059456 0V123.632261c13.951506 0.756692 27.713839 2.301604 41.223942 4.492858 29.085343 14.676669 56.594246 39.442563 80.587683 73.209938a20.998199 20.998199 0 0 0 29.32181 4.96579c9.458648-6.71564 11.697195-19.863161 4.96579-29.32181a351.120788 351.120788 0 0 0-13.352458-17.482735 389.94854 389.94854 0 0 1 180.739004 174.212537c-11.192734 6.17965-42.989556 13.210579-91.922297 19.059176a577.072131 577.072131 0 0 0-26.168927-83.89821 21.029728 21.029728 0 1 0-39.032688 15.638299 536.620646 536.620646 0 0 1 22.921457 72.595125c-51.155523 4.524387-115.048692 7.724563-189.283316 8.260553v-68.417556a21.045492 21.045492 0 1 0-42.059456 0v68.417556c-74.250389-0.53599-138.143558-3.736166-189.299081-8.260553 6.148121-25.270355 13.730804-49.657903 22.937222-72.595125a21.029728 21.029728 0 0 0-39.032688-15.638299 577.135189 577.135189 0 0 0-26.200456 83.89821c-48.916976-5.848598-80.713799-12.879526-91.906532-19.059176A389.696309 389.696309 0 0 1 344.459748 159.464774zM146.584826 371.858721c18.28672 8.560077 49.374144 15.906294 100.908012 22.290881a710.612481 710.612481 0 0 0-9.568999 116.262551c0 40.230784 3.373585 79.18465 9.632057 116.262552-51.565398 6.368823-82.668586 13.699276-100.955306 22.259352a384.825105 384.825105 0 0 1-25.743288-138.521904c0-48.838154 9.174889-95.516583 25.727524-138.553432z m17.104389 315.225218c11.224263-6.195415 43.147201-13.210579 92.237585-19.059177 18.349778 77.592445 49.815548 144.670025 89.999038 193.965348a389.838189 389.838189 0 0 1-182.236623-174.906171z m506.794374 174.906171c40.199255-49.263793 71.665025-116.372903 90.030567-193.965348 49.07462 5.848598 80.981794 12.863762 92.221821 19.059177a389.649016 389.649016 0 0 1-182.252388 174.906171z" /></svg>