<?xml version="1.0" standalone="no"?><!DOCTYPE svg PUBLIC "-//W3C//DTD SVG 1.1//EN" "http://www.w3.org/Graphics/SVG/1.1/DTD/svg11.dtd"><svg class="icon" width="200px" height="198.64px" viewBox="0 0 1031 1024" version="1.1" xmlns="http://www.w3.org/2000/svg"><path fill="#333333" d="M904.1134 656.995754c-71.805021 71.773528-167.261609 111.329276-268.796429 111.329276a377.795191 377.795191 0 0 1-191.905218-51.885427L153.184045 1006.683058a31.39895 31.39895 0 0 1-44.468723 0L17.30564 915.273376a31.509177 31.509177 0 0 1-9.211828-22.234362c0-8.330012 3.322557-16.329344 9.211828-22.234362l290.117481-290.133227a377.669217 377.669217 0 0 1-52.216108-192.4721c0-101.53482 39.524255-196.991407 111.329277-268.780682 71.789275-71.805021 167.245862-111.329276 268.780681-111.329276 101.53482 0 196.991407 39.524255 268.796429 111.329276a377.621977 377.621977 0 0 1 111.329276 268.780682 377.669217 377.669217 0 0 1-111.329276 268.796429zM84.008726 893.039014l46.940958 46.925212L391.305873 679.59229a375.40169 375.40169 0 0 1-24.769583-22.596536 396.83297 396.83297 0 0 1-22.187122-24.265689L84.008726 893.039014zM859.628929 163.887367a315.170505 315.170505 0 0 0-224.311958-92.889873 315.186251 315.186251 0 0 0-224.311958 92.889873 315.123264 315.123264 0 0 0-92.889873 224.311958c0 84.733074 32.973622 164.395707 92.889873 224.327705a315.201998 315.201998 0 0 0 224.311958 92.905619 315.186251 315.186251 0 0 0 224.311958-92.905619 315.201998 315.201998 0 0 0 92.90562-224.327705c0-84.733074-32.989368-164.395707-92.90562-224.311958z m24.092474 182.78787a20.990371 20.990371 0 0 1-25.478185-15.179833 229.508374 229.508374 0 0 0-60.309919-105.912407 228.421851 228.421851 0 0 0-162.616328-67.364447 228.547824 228.547824 0 0 0-162.632074 67.348701 229.42964 229.42964 0 0 0-56.562201 232.453009 20.958878 20.958878 0 1 1-39.965163 12.691853 271.205676 271.205676 0 0 1 66.876299-274.795927A270.182139 270.182139 0 0 1 635.316971 116.285047c72.62385 0 140.917354 28.2811 192.267393 79.631139a271.630837 271.630837 0 0 1 71.316873 125.280866 21.006118 21.006118 0 0 1-15.179834 25.478185z m-132.477114-53.428604c-5.36963 0-10.73926-2.047073-14.833406-6.141219a142.618 142.618 0 0 0-68.828892-38.185785 20.974625 20.974625 0 0 1 9.432282-40.862726 184.614489 184.614489 0 0 1 89.047675 49.397446 20.990371 20.990371 0 0 1-14.817659 35.792284z m32.469726 22.061147a20.974625 20.974625 0 0 1 26.611949 13.085521c4.566547 13.416201 7.57417 27.383538 8.975628 41.476848a20.958878 20.958878 0 0 1-41.744542 4.109892 142.791213 142.791213 0 0 0-6.944302-32.076059 20.958878 20.958878 0 0 1 13.101267-26.596202zM451.348098 526.266524c6.51914 8.644947 13.683896 16.927719 21.336799 24.549129a228.453344 228.453344 0 0 0 162.632074 67.395941c61.427936 0 119.186887-23.935007 162.616328-67.395941a229.42964 229.42964 0 0 0 61.175989-109.439671 20.974625 20.974625 0 0 1 40.799739 9.652737 271.315903 271.315903 0 0 1-72.324663 129.453745 270.024672 270.024672 0 0 1-192.267393 79.646886 270.008925 270.008925 0 0 1-192.283139-79.662632 273.914111 273.914111 0 0 1-25.178998-28.973956 20.943131 20.943131 0 1 1 33.493264-25.226238z" /></svg>