<?xml version="1.0" standalone="no"?><!DOCTYPE svg PUBLIC "-//W3C//DTD SVG 1.1//EN" "http://www.w3.org/Graphics/SVG/1.1/DTD/svg11.dtd"><svg class="icon" width="200px" height="197.87px" viewBox="0 0 1035 1024" version="1.1" xmlns="http://www.w3.org/2000/svg"><path fill="#333333" d="M1008.508596 877.011207l-128.034027 128.034027a31.479897 31.479897 0 0 1-22.343626 9.262506 31.432559 31.432559 0 0 1-22.343626-9.262506l-437.404883-437.404883a31.606132 31.606132 0 0 1-43.803606-0.852087l-34.209732-34.178174c-15.747838 2.856071-31.795485 4.323555-47.858911 4.323555a262.648062 262.648062 0 0 1-186.985854-77.429501 263.626385 263.626385 0 0 1-56.916284-289.362581 31.606132 31.606132 0 0 1 51.472392-10.146152l144.665511 144.633952 83.977951-83.97795-142.977116-142.961337a31.621911 31.621911 0 0 1 10.919343-51.80376A264.336457 264.336457 0 0 1 272.667979 7.929363c70.628581 0 137.044062 27.503489 186.970074 77.44528a262.995209 262.995209 0 0 1 74.100048 229.211519l36.513525 36.545084c12.055459 12.03968 12.323709 31.401 0.867866 43.787826l437.389104 437.404883a31.558794 31.558794 0 0 1 0 44.687252zM504.120173 417.278478a31.558794 31.558794 0 0 1-0.867867-43.787827l-26.130681-26.114902a31.558794 31.558794 0 0 1-8.441977-29.444354c15.747838-68.245892-4.323555-138.479987-53.728847-187.853721a199.861842 199.861842 0 0 0-142.282822-58.936047c-7.684566 0-15.290236 0.426044-22.817008 1.278131l125.903808 125.888028c12.260591 12.276371 12.355268 32.142632 0.189353 44.4979l-0.804749 0.820528-128.049806 128.049807a31.558794 31.558794 0 0 1-44.687253 0l-129.012349-128.99657a200.445679 200.445679 0 0 0 56.821608 172.137441 199.972297 199.972297 0 0 0 142.298602 58.920268 202.923045 202.923045 0 0 0 50.178482-6.311759 31.479897 31.479897 0 0 1 30.170207 8.268404l22.580317 22.580317 63.922337-63.922337a21.065495 21.065495 0 1 1 29.807281 29.791502l-42.478137 42.446577 431.440271 431.424492 26.761857-26.761857-341.387252-341.418812a21.049716 21.049716 0 1 1 29.791501-29.791501l341.387253 341.403032 26.793416-26.777637-437.357545-437.389103zM326.633516 409.199426a21.065495 21.065495 0 1 1-29.80728-29.791501l84.009509-83.97795a21.081274 21.081274 0 0 1 29.775722 29.791501L326.633516 409.199426z" /></svg>