<?xml version="1.0" standalone="no"?><!DOCTYPE svg PUBLIC "-//W3C//DTD SVG 1.1//EN" "http://www.w3.org/Graphics/SVG/1.1/DTD/svg11.dtd"><svg class="icon" width="200px" height="200.00px" viewBox="0 0 1024 1024" version="1.1" xmlns="http://www.w3.org/2000/svg"><path fill="#333333" d="M814.685961 1008.387151H198.678666a62.457468 62.457468 0 0 1-62.457467-62.457468V372.524791a62.473102 62.473102 0 0 1 62.457467-62.473101h616.007295a62.473102 62.473102 0 0 1 62.457468 62.473101v573.404892a62.457468 62.457468 0 0 1-62.457468 62.457468zM198.678666 945.929683h288.570698v-40.382388H198.678666v40.382388z m616.007295-40.382388h-26.358771a20.824367 20.824367 0 1 1 0-41.648734h26.358771v-491.37377h-285.787862v70.071182a20.840001 20.840001 0 0 1-41.648735 0v-70.071182H198.678666v491.37377h288.570698V528.004019a20.824367 20.824367 0 1 1 41.648735 0v335.894542h171.566521a20.824367 20.824367 0 1 1 0 41.648734H528.898099v40.382388h285.787862v-40.382388z m-81.483935-705.652131c-39.428719 33.175156-191.35905 62.160423-221.407424 67.632292a21.402822 21.402822 0 0 1-3.72087 0.343946c-0.218875 0-0.437749-0.062536-0.640991-0.078169-0.234509 0.015634-0.453383 0.07817-0.687892 0.078169a21.574795 21.574795 0 0 1-3.939745-0.343946c-30.048374-5.471868-181.978704-34.457136-221.39179-67.632292a108.061581 108.061581 0 0 1-38.381247-73.932757 108.108483 108.108483 0 0 1 25.139326-79.388991 108.874544 108.874544 0 0 1 153.306115-13.241921c28.047233 23.607203 63.723814 103.49648 85.830162 158.043189 22.090714-54.54671 57.767295-134.435986 85.798894-158.027555a108.890178 108.890178 0 0 1 153.321749 13.241921 107.967778 107.967778 0 0 1 25.123692 79.373357 108.030313 108.030313 0 0 1-38.349979 73.932757zM394.680987 65.209036a67.22581 67.22581 0 0 0-94.647687 8.176534 66.678623 66.678623 0 0 0-15.508838 49.012306 66.834962 66.834962 0 0 0 23.685373 45.651015c19.948868 16.759551 101.041956 37.834061 165.40676 51.294857-24.341997-61.097318-59.018008-137.359527-78.935608-154.134712z m319.885419 8.192168a67.147641 67.147641 0 0 0-94.647687-8.176534c-19.933234 16.743917-54.593611 93.02176-78.935608 154.119078 64.380439-13.47643 145.48916-34.55094 165.40676-51.294857a66.834962 66.834962 0 0 0 23.685373-45.651015 66.694257 66.694257 0 0 0-15.508838-48.996672z" /></svg>