<?xml version="1.0" standalone="no"?><!DOCTYPE svg PUBLIC "-//W3C//DTD SVG 1.1//EN" "http://www.w3.org/Graphics/SVG/1.1/DTD/svg11.dtd"><svg class="icon" width="200px" height="124.27px" viewBox="0 0 1648 1024" version="1.1" xmlns="http://www.w3.org/2000/svg"><path fill="#333333" d="M1618.20472 268.921954c-32.208362-67.86215-100.04499-108.365058-181.459153-108.365058-9.4175 0-19.090217 0.740129-28.8395 1.812039 0.178652-26.772244 0.178652-53.365835 0.127609-79.653166V54.284616A51.119927 51.119927 0 0 0 1356.888227 3.113645H56.252313A51.170971 51.170971 0 0 0 5.055821 54.284616v28.329066C4.749561 370.676897 4.392257 696.027288 329.410866 858.421745v108.160884c0 28.252501 22.91847 51.170971 51.196493 51.170971h651.951344a51.170971 51.170971 0 0 0 51.170971-51.170971v-108.160884c70.28671-35.143355 125.336976-77.892171 168.443095-126.255757 191.157392-60.154602 313.482809-148.280967 363.428739-262.056622 29.477542-67.198586 30.421844-142.385459 2.603212-201.187412zM1011.911663 779.125881a52.319446 52.319446 0 0 0-6.482507 3.445427h-67.989758a34.122488 34.122488 0 0 0 0 68.219454h43.973856v64.620897H431.727286v-64.620897h335.788759a34.096966 34.096966 0 1 0 0-68.219454H407.711384a52.319446 52.319446 0 0 0-6.482507-3.445427C165.66376 675.176074 118.75491 478.327348 109.567105 254.655334h818.250619a34.122488 34.122488 0 0 0 0-68.219453H107.729544a6549.935288 6549.935288 0 0 1-0.382825-81.005816h1198.421581c0.051043 27.231634-0.051043 54.233572-0.408347 81.005816h-188.630746a34.096966 34.096966 0 1 0 0 68.219453h186.844228c-9.238849 223.672013-56.147698 420.52074-291.661772 524.470547z m509.974232-350.131943c-19.192304 43.71864-64.391201 100.887205-168.67279 153.359782 41.217515-101.550769 51.094406-212.595604 53.774182-316.800628 10.387324-1.786518 20.34078-2.679777 29.75828-2.679776 58.980605 0 81.848031 34.888138 88.994102 49.894886 11.867582 24.985726 17.048483 68.627801-3.853774 116.225736z" /></svg>