<?xml version="1.0" standalone="no"?><!DOCTYPE svg PUBLIC "-//W3C//DTD SVG 1.1//EN" "http://www.w3.org/Graphics/SVG/1.1/DTD/svg11.dtd"><svg class="icon" width="200px" height="168.14px" viewBox="0 0 1218 1024" version="1.1" xmlns="http://www.w3.org/2000/svg"><path fill="#333333" d="M1181.432573 971.085778a74.099197 74.099197 0 0 1-64.515972 37.705098H83.294662a74.043803 74.043803 0 0 1-63.334225-112.450563L536.752941 43.488655a74.043803 74.043803 0 0 1 126.70538 0L1180.269291 896.340313a74.099197 74.099197 0 0 1 1.163282 74.745465zM600.105631 81.87695L83.294662 934.728609h1033.621939L600.105631 81.87695zM198.330295 849.495144l380.651618-628.17211a24.705887 24.705887 0 0 1 42.228972 0l100.780816 166.275422a24.687422 24.687422 0 0 1-42.247436 25.610662L600.105631 281.758288 240.559267 875.087341a24.650493 24.650493 0 0 1-33.901352 8.32762 24.687422 24.687422 0 0 1-8.32762-33.919817zM600.105631 644.129765a37.040366 37.040366 0 0 1-37.040366-37.040366v-125.468239a37.040366 37.040366 0 1 1 74.080732 0v125.468239a37.040366 37.040366 0 0 1-37.040366 37.040366z m-0.738591 136.233211a46.106577 46.106577 0 1 1 0-92.213155 46.106577 46.106577 0 0 1 0 92.213155z m-268.182591 57.240845h605.737392L736.597349 506.95485a24.687422 24.687422 0 1 1 42.228972-25.592197l223.054647 368.132491a24.687422 24.687422 0 0 1-21.123718 37.483521H331.184449a24.687422 24.687422 0 1 1 0-49.374844z" /></svg>