<?xml version="1.0" standalone="no"?><!DOCTYPE svg PUBLIC "-//W3C//DTD SVG 1.1//EN" "http://www.w3.org/Graphics/SVG/1.1/DTD/svg11.dtd"><svg class="icon" width="200px" height="200.00px" viewBox="0 0 1024 1024" version="1.1" xmlns="http://www.w3.org/2000/svg"><path fill="#333333" d="M880.564736 606.642537a45626.14648 45626.14648 0 0 0 0 67.107132c0 26.998734 0 35.369589-0.202646 102.164957a320.461884 320.461884 0 0 1-4.769984 53.405118c-15.167303 88.992942-82.835609 156.427425-172.514431 171.890903-6.391155 1.075585-12.813487 2.073228-19.235819 3.08646-3.741164 0.576763-7.46674 1.153526-11.176728 1.761465a61.214798 61.214798 0 0 1-9.976437 0.794998h-42.337508a63.911554 63.911554 0 0 1-8.978793-0.639116c-3.77234-0.545586-7.560269-1.044408-11.363786-1.558818a530.980306 530.980306 0 0 1-24.987859-3.647635c-70.988589-12.969369-126.373406-48.588369-164.673574-105.890533a24692.150862 24692.150862 0 0 1-109.491404-165.905041 120.091368 120.091368 0 0 1-17.16259-43.350739C190.88113 617.569854 130.414565 507.813452 130.414565 384.027684 130.414565 177.359542 298.564304 9.209803 505.232446 9.209803c206.668141 0 374.786704 168.149739 374.786704 374.817881a372.557594 372.557594 0 0 1-30.802251 148.383922c19.6567 18.175822 31.347838 44.441912 31.347837 74.230931zM505.232446 71.702832c-172.483254 0-312.324852 139.810421-312.324852 312.324852 0 91.907932 39.781045 174.447365 102.991131 231.593647 0.498822-0.888526 0.904115-1.792641 1.434113-2.681167a101.401136 101.401136 0 0 1 61.355091-45.283674 234.415109 234.415109 0 0 1-33.779594-32.750775 20.872578 20.872578 0 0 1 2.618815-29.35255 20.85699 20.85699 0 0 1 29.35255 2.618815 191.48525 191.48525 0 0 0 51.643653 43.148093V392.72589c0-4.20881 0-9.430851 0.483234-15.666124 3.928222-48.448075 47.045139-87.886181 96.101153-87.886181 4.582926 0 9.259381 0.374116 14.013778 1.122349 50.162776 7.887621 83.848841 47.310138 83.84884 98.034089 0.031176 20.420521 0.031176 45.891613 0.031177 72.703289h2.104405c10.225849 0 20.264639 2.525286 29.259021 7.279682a104.690243 104.690243 0 0 1 30.599605 19.298172c1.231467-0.327352 2.509698-0.467646 3.756752-0.763821a190.705841 190.705841 0 0 0 27.63785-73.248876 191.516427 191.516427 0 0 0-21.792281-123.053124 20.841402 20.841402 0 0 1 36.460762-20.17111 233.02776 233.02776 0 0 1 26.515501 149.584213c-3.741164 24.146097-11.176728 46.764552-21.46493 67.574777a116.911379 116.911379 0 0 1 6.484685 1.901758c13.094074 4.504985 24.738448 11.706726 34.465474 20.903755a92.017049 92.017049 0 0 1 35.073414-3.133225 310.766033 310.766033 0 0 0 25.439916-123.177829c0-172.514431-139.826009-312.324852-312.309263-312.324852z m285.263764 498.323062a32.984597 32.984597 0 0 0-7.186153-0.810586c-13.031722 0-25.658151 7.513505-31.160779 20.015228a47.590725 47.590725 0 0 0-3.585282 18.175822c-0.031176 10.98967-0.077941 14.793186-0.140294 14.793187v-12.673194l-0.015588 6.60939c0 2.930579-0.249411 5.939098-1.153526 8.651442a10.911729 10.911729 0 0 1-9.976437 7.061448 7.108212 7.108212 0 0 1-1.63676-0.155882c-5.253218-1.02882-8.932029-3.959399-9.633497-9.61791-0.218235-2.135581-0.218235-4.286751-0.218235-6.453508l0.015588-24.878741 0.062353 18.36288s0.031176-6.032627 0.046764-24.878741c0-16.710533-9.228205-30.72431-23.662863-35.681353a34.917532 34.917532 0 0 0-38.939283 11.628785c-5.268806 6.671743-7.279682 14.372306-7.544681 22.556102v11.815844c0 0.467646 0 0.950879-0.031176 1.402936v0.187058c-0.436469 7.607034-3.943811 11.815843-10.116732 12.36143-0.358528 0.031176-0.717056 0.031176-1.091172 0.031177a11.036434 11.036434 0 0 1-11.192316-9.992026c-0.202646-1.730288-0.140294-3.460577-0.140294-5.268806v-24.863154l0.015588 18.316116 0.062353-24.847565c0-19.173466-8.479972-31.004898-26.749324-37.318112-0.545586-0.187058-0.919703-0.639116-1.418524-1.013232h-14.060542c-4.317927 2.135581-8.994382 3.803517-12.922605 6.484685-10.677906 7.435564-14.902304 18.378469-14.902303 30.911368l-0.046765 25.174917 0.062353-17.786118s0.046765 6.048215 0.046764 25.159329c0 2.930579-0.062353 6.063804-1.215878 8.620266a10.179084 10.179084 0 0 1-9.820556 6.422332h-1.013232c-4.816749-0.374116-8.214973-2.774697-9.649086-7.279682a29.773431 29.773431 0 0 1-1.02882-8.651442c-0.077941-55.634228-0.031176-148.633333-0.077941-204.205209 0-19.82817-11.659962-33.311949-31.06725-36.367233a28.916081 28.916081 0 0 0-4.302339-0.34294c-16.398769 0-32.470187 13.967013-33.810771 30.428135-0.280587 3.554106-0.280587 7.061447-0.280587 10.615553V710.553371c-0.389705 0.187058-0.810586 0.296175-1.184702 0.483234-1.605583-2.104405-3.164401-4.239986-4.723219-6.359979-14.684069-19.99964-29.040787-40.279867-44.239266-59.920979-9.119088-11.815843-21.012872-18.11347-34.979885-18.11347-3.070872 0-6.313214 0.327352-9.649086 0.982056-22.976983 4.442632-36.725761 28.541965-29.960489 51.908652 1.589995 5.346747 3.77234 10.771435 6.843213 15.432302 36.242527 55.260112 72.485055 110.457871 109.210816 165.437395 29.648726 44.395148 71.892704 69.601241 123.926061 79.094445 11.285845 2.010876 22.758748 3.195578 34.091358 4.879102h42.337508c9.976438-1.621171 19.984052-3.102049 29.913725-4.785573 63.054204-10.864964 110.676105-57.941279 121.385187-120.777248 2.462933-14.216424 3.819105-28.775787 3.881458-43.132505 0.311764-101.02702 0.140294-68.089187 0.202646-169.069442 0-18.581115-10.677906-32.922244-27.575497-36.585467zM604.513589 217.951173a192.062013 192.062013 0 0 0-69.679182-25.0658c-105.500828-16.336417-204.470208 56.164226-220.75986 161.571526a192.358189 192.358189 0 0 0 2.369404 71.92388 20.841402 20.841402 0 0 1-40.638395 9.134676 234.446285 234.446285 0 0 1-2.930579-87.418535c19.82817-128.119283 140.278066-216.223698 268.319409-196.395528 30.2099 4.676455 58.720689 14.949068 84.721779 30.506076a20.810225 20.810225 0 1 1-21.402576 35.743705z" /></svg>