<?xml version="1.0" standalone="no"?><!DOCTYPE svg PUBLIC "-//W3C//DTD SVG 1.1//EN" "http://www.w3.org/Graphics/SVG/1.1/DTD/svg11.dtd"><svg class="icon" width="200px" height="200.00px" viewBox="0 0 1024 1024" version="1.1" xmlns="http://www.w3.org/2000/svg"><path fill="#333333" d="M829.828585 98.097934l-130.801907 222.337651-63.609585 108.073916v166.933175l63.609585 108.08991 131.713586 223.889105a63.897483 63.897483 0 0 1 0.319887 64.201376A64.36132 64.36132 0 0 1 775.303799 1023.819721H248.305507a64.36132 64.36132 0 0 1-55.756352-32.196654 63.817511 63.817511 0 0 1 0.319887-64.201376l131.72958-223.889105 63.577596-108.041927V428.54149l-63.59359-108.105905L192.869042 96.562475a63.865495 63.865495 0 0 1-0.319887-64.201376A64.345325 64.345325 0 0 1 248.305507 0.180439h527.046275a64.121404 64.121404 0 0 1 64.233365 64.009444c0 12.443615-3.582737 24.071517-9.756562 33.908051z m-174.594475-33.908051H248.305507l131.713586 223.87311 72.422479 123.108618v201.688927l-72.422479 123.044641-131.713586 223.905098h526.998292l-131.72958-223.905098-72.406485-123.07663v-201.688927l72.406485-123.076629 131.72958-223.87311h-120.069689z m-122.021001 306.931841v273.279699c0 1.231566-0.159944 2.431143-0.36787 3.566744a20.952617 20.952617 0 0 1-2.607082 13.867113L409.704632 866.739074h205.031749l-73.206203-130.210115a21.304493 21.304493 0 0 1 8.221103-29.045765 21.496425 21.496425 0 0 1 29.17372 8.17312l91.039918 161.990916a21.304493 21.304493 0 0 1-18.681417 31.764807H372.325804c-7.6613 0-14.762798-4.094557-18.585451-10.716224a21.272504 21.272504 0 0 1 0.095966-21.400459l136.607861-232.222167c0-0.239915-0.063977-0.431848-0.063977-0.671764V365.31577c0-0.399859 0.095966-0.799718 0.127955-1.199578 0.047983-0.799718 0.095966-1.583442 0.239915-2.38316 0.111961-0.671763 0.287899-1.311538 0.447842-1.951312a15.706465 15.706465 0 0 1 1.583442-4.078563c0.191932-0.383865 0.303893-0.799718 0.543809-1.183583l83.154697-141.310204h-129.266448l37.682721 63.8495c5.981892 10.156421 2.559098 23.223816-7.629312 29.221703a21.496425 21.496425 0 0 1-29.317668-7.597323l-56.652037-95.982177a21.320487 21.320487 0 0 1 18.47349-32.164665h204.072088c7.6613 0 14.762798 4.094557 18.569456 10.748212 3.822653 6.621667 3.790664 14.778792-0.095966 21.384464l-99.101078 168.45264z" /></svg>