<?xml version="1.0" standalone="no"?><!DOCTYPE svg PUBLIC "-//W3C//DTD SVG 1.1//EN" "http://www.w3.org/Graphics/SVG/1.1/DTD/svg11.dtd"><svg class="icon" width="200px" height="174.74px" viewBox="0 0 1172 1024" version="1.1" xmlns="http://www.w3.org/2000/svg"><path fill="#333333" d="M1055.99101 895.207803H843.600397c-59.764541 76.915796-153.064442 126.506483-257.780247 126.506483-104.734071 0-198.033972-49.590687-257.798513-126.506483H115.631024A114.451288 114.451288 0 0 1 1.307593 780.902638V249.158957a114.451288 114.451288 0 0 1 114.323431-114.32343h519.085726V74.486491A73.354033 73.354033 0 0 1 708.052518 1.132458h242.857378a73.354033 73.354033 0 0 1 73.354034 73.354033v60.349036h31.72708A114.451288 114.451288 0 0 1 1170.296175 249.158957v531.743681a114.433023 114.433023 0 0 1-114.305165 114.305165z m-470.17086 53.170715c139.566277 0 253.104293-113.538016 253.104293-253.122559 0-139.548012-113.538016-253.086028-253.104293-253.086028-139.584543 0-253.122559 113.538016-253.122559 253.086028 0 139.584543 113.538016 253.122559 253.122559 253.122559zM950.909896 74.486491H708.052518v60.349036h242.857378V74.486491z m146.032246 240.409808h-130.031715a24.457433 24.457433 0 1 1 0-48.8966h130.031715v-16.840742a41.005928 41.005928 0 0 0-40.951132-40.987662H115.631024a41.005928 41.005928 0 0 0-40.969397 40.987662v16.840742h754.837846a24.475698 24.475698 0 0 1 0 48.8966H74.661627v466.006339a41.005928 41.005928 0 0 0 40.969397 40.951131h169.265893a324.75964 324.75964 0 0 1-25.55336-126.59781c0-179.987711 146.452351-326.440061 326.476593-326.440062 180.005976 0 326.458327 146.452351 326.458327 326.440062 0 44.878202-9.096192 87.655878-25.55336 126.59781h169.265893a41.005928 41.005928 0 0 0 40.951132-40.951131V314.896299zM518.822492 695.255959a66.979393 66.979393 0 1 1 133.97705 0.054796 66.979393 66.979393 0 0 1-133.97705-0.054796z m66.997658-186.727661c25.169785 0 49.627218 4.913405 72.659946 14.648889a24.457433 24.457433 0 1 1-19.032595 45.042591 137.283097 137.283097 0 0 0-53.627351-10.813145c-76.020789 0-137.885856 61.846802-137.885857 137.849326 0 76.020789 61.865068 137.867591 137.885857 137.867591 76.020789 0 137.849325-61.846802 137.849325-137.867591 0-18.101058-3.470435-35.708948-10.265181-52.312239a24.457433 24.457433 0 0 1 45.261777-18.557694c9.224051 22.521296 13.900005 46.357703 13.900005 70.869933 0 102.998853-83.783603 186.782457-186.745926 186.782457-102.998853 0-186.764191-83.783603-186.764192-186.782457 0-102.962322 83.765338-186.72766 186.764192-186.727661z" /></svg>