<?xml version="1.0" standalone="no"?><!DOCTYPE svg PUBLIC "-//W3C//DTD SVG 1.1//EN" "http://www.w3.org/Graphics/SVG/1.1/DTD/svg11.dtd"><svg class="icon" width="200px" height="200.00px" viewBox="0 0 1024 1024" version="1.1" xmlns="http://www.w3.org/2000/svg"><path fill="#333333" d="M905.164018 784.444268H814.682402a31.366546 31.366546 0 0 1-13.105626-2.888207l-72.903927-33.866552v42.111917a31.10257 31.10257 0 0 1-31.10257 31.087042h-475.156588a31.10257 31.10257 0 0 1-31.10257-31.087042v-152.904148h-64.130611a31.087042 31.087042 0 0 1-31.087042-31.087042v-104.472337c0-17.17396 13.913082-31.087042 31.087042-31.087042h570.389769c17.17396 0 31.10257 13.913082 31.10257 31.087042v57.87283l72.919455-33.835497c4.09939-1.909943 8.571452-2.888207 13.090098-2.888207h90.481616c17.189488 0 31.10257 13.913082 31.10257 31.087042v199.767631a31.10257 31.10257 0 0 1-31.10257 31.10257zM666.467709 614.474856h-62.59334a20.729871 20.729871 0 1 1 0-41.459741h62.59334v-40.574646H158.28308v40.574646h351.010283a20.729871 20.729871 0 0 1 0 41.459741H253.500733v144.224h412.966976v-144.224z m207.593739-29.813747h-52.531201l-79.7673 37.034264v63.509492l47.438019 22.034222v-61.444269a20.745399 20.745399 0 0 1 41.475269 0v76.459838h43.385213v-137.593547z m-235.016175-153.168123c-75.74555 0-142.081136-40.434894-179.084344-100.714563-36.972151 60.279669-103.29221 100.714563-179.053288 100.714563C165.022229 431.492986 70.736255 337.207012 70.736255 221.306072 70.736255 105.42066 165.022229 11.134686 280.907641 11.134686c75.761078 0 142.081136 40.419366 179.053288 100.714563C496.964136 51.554052 563.299723 11.134686 639.045273 11.134686c115.90094 0 210.186914 94.285974 210.186914 210.171386 0 115.90094-94.285974 210.186914-210.186914 210.186914zM280.907641 73.324298c-81.599604 0-147.966246 66.38217-147.966246 147.981774 0 81.599604 66.366642 147.997302 147.966246 147.997302 81.584076 0 147.966246-66.397698 147.966246-147.997302 0-81.599604-66.38217-147.981774-147.966246-147.981774z m358.137632 0c-81.568548 0-147.981774 66.38217-147.981774 147.981774 0 81.599604 66.413226 147.997302 147.981774 147.997302 81.615132 0 147.997302-66.397698 147.997302-147.997302 0-81.599604-66.38217-147.981774-147.997302-147.981774z m0 214.565808a66.661674 66.661674 0 0 1-66.568506-66.584034 66.661674 66.661674 0 0 1 66.568506-66.584034 66.677202 66.677202 0 0 1 66.61509 66.584034 66.677202 66.677202 0 0 1-66.61509 66.584034z m0-91.708327a25.139821 25.139821 0 1 0 0.046584 50.264114 25.139821 25.139821 0 0 0-0.046584-50.264114z m-358.137632 91.708327a66.661674 66.661674 0 0 1-66.584034-66.584034 66.661674 66.661674 0 0 1 66.584034-66.584034 66.661674 66.661674 0 0 1 66.584034 66.584034 66.661674 66.661674 0 0 1-66.584034 66.584034z m0-91.708327a25.139821 25.139821 0 1 0 0.031056 50.279642 25.139821 25.139821 0 0 0-0.031056-50.279642z m63.090236 753.977231l95.869829-81.661715a31.087042 31.087042 0 0 1 40.326198-0.015528l95.900885 81.677243a31.10257 31.10257 0 0 1-40.326198 47.344851L460.023041 933.016106l-75.698966 64.487755a31.10257 31.10257 0 0 1-40.326198-47.344851z" /></svg>