<?xml version="1.0" standalone="no"?><!DOCTYPE svg PUBLIC "-//W3C//DTD SVG 1.1//EN" "http://www.w3.org/Graphics/SVG/1.1/DTD/svg11.dtd"><svg class="icon" width="200px" height="152.84px" viewBox="0 0 1340 1024" version="1.1" xmlns="http://www.w3.org/2000/svg"><path fill="#333333" d="M1206.840344 138.415825H947.00017v-6.637948A130.734175 130.734175 0 0 0 816.432988 1.168947H522.442869a130.755049 130.755049 0 0 0-130.567183 130.60893v6.637948H132.056387A130.734175 130.734175 0 0 0 1.489204 269.003882v622.067562a130.734175 130.734175 0 0 0 130.567183 130.588056h1074.783957A130.755049 130.755049 0 0 0 1337.4284 891.071444V269.003882a130.755049 130.755049 0 0 0-130.588056-130.588057z m-731.259717-6.637948a46.966612 46.966612 0 0 1 46.862242-46.90399h293.990119a46.924864 46.924864 0 0 1 46.862242 46.90399v6.637948H475.580627v-6.637948zM132.056387 222.120765h1074.783957a46.945738 46.945738 0 0 1 46.862242 46.883117v88.046742c-1.022828 2.922367-1.690798 6.011726-1.690798 9.268078 0 22.439604-7.243295 50.744815-63.49886 70.888274l-322.107464 81.554913c-4.592291-42.750054-43.752009-76.252904-91.282221-76.252904H563.752613c-47.718078 0-87.00304 33.815961-91.303094 76.816503L148.045909 437.206976c-48.093811-17.241965-60.326004-40.433035-62.851764-60.826982v-107.376112a46.945738 46.945738 0 0 1 46.862242-46.883117z m679.01197 305.07424v54.627389c0 15.634663-16.469625 28.827063-35.945114 28.827063H563.752613c-19.475489 0-35.92424-13.1924-35.924239-28.827063v-54.627389c0-15.655537 16.448751-28.889685 35.924239-28.889685h211.37063c19.475489 0 35.945114 13.234148 35.945114 28.889685z m395.771987 410.738681H132.056387a46.924864 46.924864 0 0 1-46.862242-46.862242v-10.478773a114.348046 114.348046 0 0 0 57.675 15.613789h784.15456a27.887731 27.887731 0 1 0 0-55.796335H142.869145A58.927443 58.927443 0 0 1 85.194145 794.2576V468.330184c12.962785 8.474864 28.096471 15.801656 45.484554 21.917753 0.793214 0.292237 1.607302 0.521851 2.442264 0.751466l338.911075 85.792345v5.030646c0 46.674376 41.142752 84.644273 91.720575 84.644273h211.37063c50.598697 0 91.741449-37.969897 91.74145-84.644273v-5.594245l336.614929-85.228746c0.814088-0.229615 1.628176-0.459229 2.400516-0.751466 18.473534-6.49183 34.37956-14.38222 47.822448-23.525054V794.2576a58.885695 58.885695 0 0 1-57.675 46.152525H1061.055979a27.887731 27.887731 0 1 0 0 55.796335h134.971607a114.285423 114.285423 0 0 0 57.675-15.613789v10.478773a46.924864 46.924864 0 0 1-46.862242 46.862242z" /></svg>