<?xml version="1.0" standalone="no"?><!DOCTYPE svg PUBLIC "-//W3C//DTD SVG 1.1//EN" "http://www.w3.org/Graphics/SVG/1.1/DTD/svg11.dtd"><svg class="icon" width="200px" height="200.00px" viewBox="0 0 1024 1024" version="1.1" xmlns="http://www.w3.org/2000/svg"><path fill="#333333" d="M838.279939 1009.368458H175.570862A62.987722 62.987722 0 0 1 112.567491 946.380736V133.643514a63.003371 63.003371 0 0 1 63.003371-63.003371H235.256618V28.841334a20.969825 20.969825 0 1 1 41.986598 0v41.798809h58.277336V28.841334a20.985474 20.985474 0 1 1 41.986598 0v41.798809h58.277335V28.841334a21.001124 21.001124 0 1 1 42.002247 0v41.798809h58.277336V28.841334a21.001124 21.001124 0 1 1 42.002247 0v41.798809h58.261686V28.841334a21.001124 21.001124 0 1 1 42.002247 0v41.798809h58.292985V28.841334a20.969825 20.969825 0 1 1 41.986598 0v41.798809h59.670108A63.01902 63.01902 0 0 1 901.283309 133.643514v812.737222a63.003371 63.003371 0 0 1-63.00337 62.987722z m0-721.299395h-94.160776a21.001124 21.001124 0 0 1 0-41.986598h94.160776V133.643514h-59.670108v43.395019a20.969825 20.969825 0 1 1-41.986598 0V133.643514h-58.292985v43.395019a21.001124 21.001124 0 1 1-42.002247 0V133.643514h-58.261686v43.395019a21.001124 21.001124 0 0 1-42.002247 0V133.643514h-58.277336v43.395019a21.001124 21.001124 0 1 1-42.002247 0V133.643514H377.50715v43.395019a20.969825 20.969825 0 1 1-41.986598 0V133.643514h-58.277336v43.395019a21.001124 21.001124 0 1 1-41.986598 0V133.643514H175.570862v112.438951h450.976437a20.969825 20.969825 0 1 1 0 41.986598H175.570862v658.311673h662.709077V288.069063zM279.903567 426.908086h80.358249a21.016773 21.016773 0 0 1 0 42.002247h-80.358249a21.001124 21.001124 0 1 1 0-42.002247z m0 110.295021h80.358249a21.001124 21.001124 0 0 1 0 42.002247h-80.358249a21.001124 21.001124 0 0 1 0-42.002247z m0 115.396636h80.358249a21.001124 21.001124 0 0 1 0 42.002247h-80.358249a21.001124 21.001124 0 0 1 0-42.002247z m0 122.157057h80.358249a20.985474 20.985474 0 1 1 0 41.986598h-80.358249a21.001124 21.001124 0 1 1 0-41.986598zM478.303153 426.908086h255.64408a21.016773 21.016773 0 0 1 0 42.002247H478.303153a21.001124 21.001124 0 1 1 0-42.002247z m0 110.295021h255.64408a21.001124 21.001124 0 0 1 0 42.002247H478.303153a21.001124 21.001124 0 0 1 0-42.002247z m0 115.396636h255.64408a21.001124 21.001124 0 0 1 0 42.002247H478.303153a21.001124 21.001124 0 0 1 0-42.002247z m0 122.157057h255.64408a20.985474 20.985474 0 1 1 0 41.986598H478.303153a21.001124 21.001124 0 1 1 0-41.986598z" /></svg>