<?xml version="1.0" standalone="no"?><!DOCTYPE svg PUBLIC "-//W3C//DTD SVG 1.1//EN" "http://www.w3.org/Graphics/SVG/1.1/DTD/svg11.dtd"><svg class="icon" width="200px" height="145.97px" viewBox="0 0 1403 1024" version="1.1" xmlns="http://www.w3.org/2000/svg"><path fill="#333333" d="M1307.289148 1017.115234H91.797142A87.09383 87.09383 0 0 1 4.703311 930.043117V90.502888A87.072117 87.072117 0 0 1 91.797142 3.430772h1215.492006A87.072117 87.072117 0 0 1 1394.382979 90.502888v839.540229a87.09383 87.09383 0 0 1-87.093831 87.072117z m0-926.612346H91.797142v144.439831h1215.492006V90.502888z m0 231.511947H91.797142v608.028282h1215.492006V322.014835zM218.344846 634.649333h804.559387c16.024744 0 28.987849 13.006533 28.987849 29.031277 0 16.046457-12.963106 29.031277-28.987849 29.031277H247.35441v114.626859a29.009563 29.009563 0 1 1-58.04084 0v-143.658136c0-16.024744 13.006533-29.031277 29.031276-29.031277z m148.652297 143.658136h784.734738v-114.626859a29.031277 29.031277 0 1 1 58.040839 0v143.658136c0 16.024744-13.006533 29.009563-29.031276 29.009563H366.997143a29.009563 29.009563 0 1 1 0-58.04084z m759.242801-307.900902a54.501499 54.501499 0 1 1 109.06814 0.021714 54.501499 54.501499 0 0 1-109.06814-0.021714z m-103.335711 29.031277H222.622454a29.052991 29.052991 0 0 1 0-58.04084h800.281779a29.009563 29.009563 0 1 1 0 58.04084z" /></svg>