<?xml version="1.0" standalone="no"?><!DOCTYPE svg PUBLIC "-//W3C//DTD SVG 1.1//EN" "http://www.w3.org/Graphics/SVG/1.1/DTD/svg11.dtd"><svg class="icon" width="200px" height="175.04px" viewBox="0 0 1170 1024" version="1.1" xmlns="http://www.w3.org/2000/svg"><path fill="#333333" d="M1133.333171 754.761737H36.714248a36.556401 36.556401 0 1 1 0-73.185915h25.443255V176.878147c0-20.197412 16.395546-36.592958 36.592958-36.592957h122.080102V110.601392a24.401398 24.401398 0 0 1 48.802795 0v29.683798h630.762425V110.601392a24.38312 24.38312 0 1 1 48.802795 0v29.683798h122.080102c20.21569 0 36.592958 16.395546 36.592958 36.592957v504.697675h25.461533a36.592958 36.592958 0 0 1 0 73.185915z m-98.647449-438.51231h-82.434684a24.401398 24.401398 0 0 1 0-48.802796h82.434684v-53.975526H135.343419v53.975526h682.70907a24.401398 24.401398 0 0 1 0 48.802796H135.343419v365.326395h899.342303V316.249427zM963.674913 49.259751h-77.718909a24.401398 24.401398 0 1 1 0-48.784518h77.718909a24.401398 24.401398 0 1 1 0 48.784518z m-679.583498 0h-77.718909a24.401398 24.401398 0 0 1 0-48.784518h77.718909a24.401398 24.401398 0 1 1 0 48.784518zM479.814387 949.918085h68.616365v-97.057245a36.592958 36.592958 0 1 1 73.185915 0v97.057245h68.634643a36.611236 36.611236 0 0 1 0 73.185915H479.814387a36.592958 36.592958 0 1 1 0-73.185915z" /></svg>