<?xml version="1.0" standalone="no"?><!DOCTYPE svg PUBLIC "-//W3C//DTD SVG 1.1//EN" "http://www.w3.org/Graphics/SVG/1.1/DTD/svg11.dtd"><svg class="icon" width="200px" height="200.00px" viewBox="0 0 1024 1024" version="1.1" xmlns="http://www.w3.org/2000/svg"><path fill="#333333" d="M740.28911 270.495362H275.370028c-17.13358 0-31.039095-13.952073-31.039095-31.163251 0-17.195659 13.905514-31.147732 31.039095-31.147731h46.418966a31.008056 31.008056 0 0 1-1.474357-9.032377c0-17.195659 13.874475-31.163251 31.039095-31.163251h137.17728L471.211197 97.110979 281.143299 56.465284a20.796194 20.796194 0 0 1-15.938575-24.660561A20.672037 20.672037 0 0 1 289.756648 15.835109l202.778407 43.361615c7.759774 1.660592 13.889995 7.635617 15.76786 15.364352l22.829254 93.427676h133.204276c17.13358 0 31.039095 13.967593 31.039095 31.163251 0 3.165988-0.605262 6.16126-1.474357 9.032377h46.387927c17.1491 0 31.039095 13.952073 31.039095 31.147731a31.101173 31.101173 0 0 1-31.039095 31.163251zM262.845753 325.139689a30.961497 30.961497 0 0 1 22.611981-9.823874h445.379972a31.132212 31.132212 0 0 1 30.977016 33.072156l-38.333282 630.96272A31.085653 31.085653 0 0 1 692.504423 1008.620558H323.791016a31.101173 31.101173 0 0 1-30.992537-29.269867L254.480717 348.387971a31.19429 31.19429 0 0 1 8.365036-23.248282z m85.357511 542.48578H512.493193c11.422387 0 20.703076 9.296209 20.703076 20.780674 0 11.468946-9.280689 20.780674-20.703076 20.780674H350.73295l2.250334 37.107238h310.328871l2.250334-37.107238h-50.097099c-11.422387 0-20.687557-9.311728-20.687557-20.780674 0-11.484465 9.26517-20.780674 20.687557-20.780674h52.611266l29.766492-489.983151H318.436772l29.766492 489.983151z" /></svg>