<?xml version="1.0" standalone="no"?><!DOCTYPE svg PUBLIC "-//W3C//DTD SVG 1.1//EN" "http://www.w3.org/Graphics/SVG/1.1/DTD/svg11.dtd"><svg class="icon" width="200px" height="200.00px" viewBox="0 0 1024 1024" version="1.1" xmlns="http://www.w3.org/2000/svg"><path fill="#333333" d="M924.357878 550.385073a0.437081 0.437081 0 0 0-0.20293 0h-0.234151a31.142018 31.142018 0 0 1-31.095188-33.093272 73.47643 73.47643 0 0 0-73.382769-72.695927 73.445209 73.445209 0 0 0-73.335939 74.647182 31.157628 31.157628 0 0 1-31.157628 31.142017h-0.12488a31.157628 31.157628 0 0 1-31.157628-31.142017c0-0.468301 0.03122-1.077092 0.06244-1.685884a73.445209 73.445209 0 0 0-73.367159-72.961298 73.46082 73.46082 0 0 0-73.398379 73.382769 31.157628 31.157628 0 1 1-62.315256 0 73.46082 73.46082 0 0 0-73.382769-73.382769 73.46082 73.46082 0 0 0-73.367159 73.382769 31.157628 31.157628 0 1 1-62.315256 0 73.46082 73.46082 0 0 0-73.382769-73.382769c-37.745062 0-69.823682 29.440524-73.039349 67.045095-1.436123 16.780786-15.937845 29.674674-32.734241 28.457092A31.126408 31.126408 0 0 1 56.986344 508.237982c2.825416-117.684046 50.79505-227.906495 135.026794-310.311864a446.322089 446.322089 0 0 1 282.900644-126.815915v-27.47366a31.157628 31.157628 0 0 1 62.315255 0v27.48927c231.996324 16.031505 416.147894 208.815423 418.067928 444.339615a31.157628 31.157628 0 0 1-30.939087 34.919645zM140.702956 392.583241a134.058971 134.058971 0 0 1 51.497502-10.318233 135.182894 135.182894 0 0 1 95.158767 39.103135c13.72122-115.483031 51.294571-212.187191 102.417432-270.912138-115.670351 37.04261-208.831033 127.596417-249.073701 242.127236zM522.758536 132.613736a397.353413 397.353413 0 0 0-16.749567-0.374641c-5.728882 0-11.442155 0.1561-17.092987 0.405861-73.273499 14.876362-134.870693 123.756349-156.974501 268.851614a134.964353 134.964353 0 0 1 153.368584 10.052862V232.830154a20.761345 20.761345 0 1 1 41.5383 0v178.250977a135.073623 135.073623 0 0 1 153.290533-9.35041c-22.416009-144.314763-84.481503-254.381112-157.380362-269.116985z m100.278858 17.764219c51.029201 58.553237 88.196692 154.960807 101.824251 270.381397a135.214114 135.214114 0 0 1 94.581195-38.494344c18.54472 0 36.230889 3.762018 52.356054 10.505553A388.814724 388.814724 0 0 0 623.037394 150.377955z m-117.231355 449.116285c17.217867 0 31.157628 13.95537 31.157628 31.142018v282.245023a36.386989 36.386989 0 0 0 36.340159 36.340158 36.371379 36.371379 0 0 0 36.340159-36.340158 31.173238 31.173238 0 1 1 62.315255 0A98.764684 98.764684 0 0 1 573.303826 1011.521085a98.764684 98.764684 0 0 1-98.655415-98.639804V630.636258c0-17.186647 13.95537-31.142018 31.157628-31.142018z" /></svg>