<?xml version="1.0" standalone="no"?><!DOCTYPE svg PUBLIC "-//W3C//DTD SVG 1.1//EN" "http://www.w3.org/Graphics/SVG/1.1/DTD/svg11.dtd"><svg class="icon" width="200px" height="163.58px" viewBox="0 0 1252 1024" version="1.1" xmlns="http://www.w3.org/2000/svg"><path fill="#333333" d="M1154.049775 779.590964H85.75786A76.239805 76.239805 0 0 1 9.537129 703.351159V84.086329A76.239805 76.239805 0 0 1 85.75786 7.846523h1068.291915A76.25888 76.25888 0 0 1 1230.28958 84.086329v619.26483a76.25888 76.25888 0 0 1-76.239805 76.239805z m0-131.211814H973.931565a25.40691 25.40691 0 0 1 0-50.813821h180.11821V84.086329H85.75786v513.479h733.424258a25.387836 25.387836 0 1 1 0 50.813821H85.75786v54.972009h1068.291915v-54.972009zM429.78116 937.182476h154.215368V867.904774a38.12944 38.12944 0 0 1 76.239806 0v69.277702H814.470776a38.110366 38.110366 0 0 1 0 76.239805H429.78116a38.110366 38.110366 0 1 1 0-76.239805z" /></svg>