<?xml version="1.0" standalone="no"?><!DOCTYPE svg PUBLIC "-//W3C//DTD SVG 1.1//EN" "http://www.w3.org/Graphics/SVG/1.1/DTD/svg11.dtd"><svg class="icon" width="200px" height="198.45px" viewBox="0 0 1032 1024" version="1.1" xmlns="http://www.w3.org/2000/svg"><path fill="#333333" d="M1006.655623 1006.710035a31.485059 31.485059 0 0 1-22.318324 9.229737 31.485059 31.485059 0 0 1-22.318323-9.229737L694.923611 739.63042a31.563811 31.563811 0 0 1 44.636647-44.620897l267.095365 267.063865a31.548061 31.548061 0 0 1 0 44.636647zM488.593308 830.510256a62.875616 62.875616 0 0 1-44.636647 18.490975 62.954368 62.954368 0 0 1-44.636648-18.490975l-36.367684-36.367685a63.111872 63.111872 0 0 1 0-89.289045l0.614265-0.598515L108.835297 402.319751a63.001619 63.001619 0 0 1-51.77158-18.081465l-30.681789-30.666038a63.190624 63.190624 0 0 1-0.01575-89.289045l237.815362-237.831113a63.159123 63.159123 0 0 1 89.289045 0l30.681788 30.681789a63.159123 63.159123 0 0 1 18.097216 51.787331L704.200599 363.636757l0.598516-0.598516a63.111872 63.111872 0 0 1 89.289045 0l36.367684 36.383435a63.127623 63.127623 0 0 1 0 89.273295L488.593308 830.510256z m260.842454-422.835368l-41.61257 41.61257-0.236256-0.204755-46.416443 46.416443a20.99529 20.99529 0 0 1-29.752514 0 21.042541 21.042541 0 0 1 0-29.768265l43.880627-43.864878L350.856018 148.171219l-28.728739 28.744488a20.979539 20.979539 0 0 1-29.768265 0 21.074042 21.074042 0 0 1 0-29.768265l45.392667-45.376916c0.299258-0.299258 0.645767-0.519763 0.976525-0.78752l-29.894268-29.894268L71.018575 308.935601 100.802591 338.703866l126.869511-126.82226a20.99529 20.99529 0 0 1 29.752514 0 21.01104 21.01104 0 0 1 0 29.736764l-109.33931 109.339311 273.694785 324.411088 134.697462-134.681712a21.01104 21.01104 0 0 1 29.768265 0 21.01104 21.01104 0 0 1 0 29.736764l-137.233278 137.217527 0.189005 0.252007-41.612569 41.612569 36.367685 36.367685 341.862536-341.815285-36.383435-36.383436z" /></svg>