<?xml version="1.0" standalone="no"?><!DOCTYPE svg PUBLIC "-//W3C//DTD SVG 1.1//EN" "http://www.w3.org/Graphics/SVG/1.1/DTD/svg11.dtd"><svg class="icon" width="200px" height="199.42px" viewBox="0 0 1027 1024" version="1.1" xmlns="http://www.w3.org/2000/svg"><path fill="#333333" d="M991.474079 162.538809h-826.179102a32.076878 32.076878 0 0 1-5.968533-0.606428c-0.606429-0.127669-1.18094-0.319173-1.787369-0.462801a34.327047 34.327047 0 0 1-3.76624-1.18094 32.603514 32.603514 0 0 1-9.862443-6.175996c-0.526635-0.478759-1.053271-0.925601-1.547989-1.420319a32.443927 32.443927 0 0 1-2.569342-3.143854c-0.35109-0.462801-0.718139-0.877726-1.053271-1.356485a32.731183 32.731183 0 0 1-2.553383-4.723759l-0.23938-0.430883a32.65139 32.65139 0 0 1-1.707575-5.346147l-16.118232-71.383023H33.84361a31.853457 31.853457 0 0 1 0-63.738832h109.763567c1.005395 0 1.962913 0.207462 2.968309 0.303214 0.989436 0.095752 1.994831 0.127669 2.952349 0.319173 1.276692 0.223421 2.441673 0.638346 3.65453 1.021354 0.750056 0.23938 1.53203 0.398966 2.266128 0.686221 1.18094 0.478759 2.266128 1.101147 3.367274 1.707575 0.70218 0.383008 1.436278 0.70218 2.106541 1.149023 0.957519 0.622387 1.819286 1.372444 2.697011 2.090583 0.718139 0.59047 1.468195 1.101147 2.138459 1.755451 0.734098 0.718139 1.356485 1.53203 2.042707 2.298045 0.654304 0.781974 1.372444 1.53203 1.946954 2.409755 0.606429 0.845808 1.053271 1.787368 1.563948 2.697011 0.510677 0.877726 1.037312 1.723534 1.452237 2.665094 0.478759 1.101147 0.797932 2.282086 1.149022 3.463026 0.23938 0.766015 0.606429 1.484154 0.766015 2.282087l16.118233 71.398982h800.677185a31.885375 31.885375 0 0 1 0 63.722873z m-804.012542 42.08295h776.627506a31.757705 31.757705 0 0 1 24.879529 11.968984c6.048327 7.54844 8.330413 17.458759 6.191954 26.890319l-109.907195 487.073833a31.885375 31.885375 0 0 1-31.103401 24.831653H297.416607a31.917292 31.917292 0 0 1-31.103401-24.831653l-38.284791-169.688282a20.953702 20.953702 0 0 1-2.345921-9.511353c0-0.207462 0.047876-0.398966 0.047876-0.622388L156.390053 243.481062a31.901333 31.901333 0 0 1 31.071484-38.859303z m403.642032 181.242342H778.378279a21.224999 21.224999 0 1 1 0 42.481915H591.103569v101.768286h144.633208a21.240958 21.240958 0 1 1 0 42.465957h-144.633208v119.099375h237.592321l95.528455-423.335002H591.103569v117.519469zM464.15254 691.679634h84.469113v-119.099375h-99.007439l14.538326 119.099375z m-19.740845-161.565332h104.209958v-101.768286h-116.641743l12.431785 101.768286z m104.209958-144.250201v-117.519469H412.446527l14.346823 117.519469h121.828303zM322.886606 691.679634h98.464846l-14.554285-119.099375h-110.784921l26.87436 119.099375z m-36.465506-161.565332h115.205465l-12.431785-101.768286h-125.738171l22.964491 101.768286z m-32.571596-144.250201h130.142758l-14.346823-117.519469H227.326234l26.52327 117.519469z m161.996215 420.270941a106.444169 106.444169 0 0 1 106.300541 106.3165 106.444169 106.444169 0 0 1-106.300541 106.316499c-58.632065 0-106.348417-47.684434-106.348417-106.316499 0-58.616107 47.716351-106.316499 106.348417-106.3165z m0 148.926085a42.641502 42.641502 0 0 0 42.577667-42.609585 42.625543 42.625543 0 0 0-42.577667-42.593626 42.625543 42.625543 0 0 0-42.609585 42.593626 42.641502 42.641502 0 0 0 42.609585 42.609585z m319.891058-148.926085a106.444169 106.444169 0 0 1 106.332458 106.3165 106.444169 106.444169 0 0 1-106.332458 106.316499 106.444169 106.444169 0 0 1-106.332458-106.316499 106.460127 106.460127 0 0 1 106.332458-106.3165z m0 148.926085a42.641502 42.641502 0 0 0 42.609585-42.609585 42.625543 42.625543 0 0 0-42.609585-42.593626 42.641502 42.641502 0 0 0-42.593626 42.593626 42.641502 42.641502 0 0 0 42.593626 42.609585z" /></svg>