<?xml version="1.0" standalone="no"?><!DOCTYPE svg PUBLIC "-//W3C//DTD SVG 1.1//EN" "http://www.w3.org/Graphics/SVG/1.1/DTD/svg11.dtd"><svg class="icon" width="200px" height="200.00px" viewBox="0 0 1024 1024" version="1.1" xmlns="http://www.w3.org/2000/svg"><path fill="#333333" d="M721.766019 927.29427l22.134635 31.857617a31.263609 31.263609 0 0 1-51.334845 35.671778l-27.840244-40.064315A431.359643 431.359643 0 0 1 506.40665 984.81931c-55.852437 0-109.219417-10.73905-158.318915-30.05996l-27.840244 40.064315a31.263609 31.263609 0 1 1-51.334846-35.671778l22.134636-31.857617C160.849982 852.417926 72.936714 711.997427 72.936714 551.349373 72.936714 353.982211 205.588206 187.112699 386.370024 134.902472V70.327488A62.495954 62.495954 0 0 1 448.88161 7.815902h115.065712a62.495954 62.495954 0 0 1 62.511586 62.511586v64.590616c180.781818 52.194595 313.402047 219.064107 313.402046 416.431269 0 160.648054-87.897636 301.068553-218.094935 375.944897zM563.947322 70.327488H448.88161v51.475532A433.720045 433.720045 0 0 1 506.40665 117.863805c19.524124 0 38.704348 1.422494 57.540672 3.939215V70.327488zM506.40665 180.375391c-204.870429 0-370.942719 166.087922-370.942719 370.973982 0 204.854797 166.07229 370.942719 370.942719 370.942719s370.942719-166.087922 370.942719-370.942719c0-204.88606-166.07229-370.973982-370.942719-370.973982z m0 694.302225c-178.280729 0-323.328242-145.047513-323.328243-323.328243 0-178.280729 145.047513-323.328242 323.328243-323.328242a20.837195 20.837195 0 1 1 0 41.674391c-155.301977 0-281.653852 126.336243-281.653852 281.653851 0 155.301977 126.351875 281.63822 281.653852 281.63822s281.669484-126.336243 281.669484-281.63822c0-34.968346-6.346513-69.092575-18.836325-101.434778a20.852827 20.852827 0 0 1 38.89193-15.006533 321.858853 321.858853 0 0 1 21.618785 116.441311c0 178.280729-145.063145 323.328242-323.343874 323.328243z m92.071328-344.165438h126.054871a20.837195 20.837195 0 0 1 0 41.674391H598.477978a20.837195 20.837195 0 1 1 0-41.674391z m145.141304-146.032317c-6.143299 0-12.208439-2.719934-16.335236-7.909693a280.543994 280.543994 0 0 0-140.17039-95.150793 20.837195 20.837195 0 0 1 11.942699-39.93926 322.030803 322.030803 0 0 1 160.898162 109.203785 20.852827 20.852827 0 0 1-16.335235 33.795961zM506.40665 587.568264a36.218891 36.218891 0 1 1 0-72.453413 36.218891 36.218891 0 0 1 0 72.453413z m0-105.264571a20.837195 20.837195 0 0 1-20.837195-20.837195v-126.070503a20.852827 20.852827 0 0 1 41.67439 0v126.070503c0 11.505008-9.332187 20.837195-20.837195 20.837195z" /></svg>