<?xml version="1.0" standalone="no"?><!DOCTYPE svg PUBLIC "-//W3C//DTD SVG 1.1//EN" "http://www.w3.org/Graphics/SVG/1.1/DTD/svg11.dtd"><svg class="icon" width="200px" height="200.00px" viewBox="0 0 1024 1024" version="1.1" xmlns="http://www.w3.org/2000/svg"><path fill="#333333" d="M507.699226 1008.120123C275.987896 1008.120123 87.477248 819.609475 87.477248 587.898144c0-161.377369 89.996212-305.921475 234.884173-377.208853a31.118871 31.118871 0 1 1 27.477135 55.860795C226.410267 327.28737 149.746249 450.418693 149.746249 587.898144c0 197.388357 160.564621 357.968607 357.952977 357.968608 197.357098 0 357.921718-160.58025 357.921719-357.968608 0-137.854566-76.976614-261.142186-200.905056-321.754432a31.15013 31.15013 0 0 1 27.367726-55.938944c145.435004 71.14671 235.80633 215.862744 235.806331 377.693376 0 231.711331-188.495018 420.221979-420.19072 420.221979z m164.300136-696.931415c97.123387 57.767628 157.469926 163.799983 157.469926 276.709436 0 177.444771-144.35655 321.801321-321.770062 321.801321a320.941684 320.941684 0 0 1-170.802119-49.014956 20.787593 20.787593 0 0 1 22.069234-35.166981 279.460276 279.460276 0 0 0 148.732885 42.6849c154.53153 0 280.273024-125.741494 280.273024-280.304284 0-98.342509-52.578544-190.714446-137.198115-241.042303a20.756334 20.756334 0 0 1 21.225227-35.667133zM507.683597 679.488593a91.668597 91.668597 0 0 1-91.574819-91.590449c0-2.641431 0.250076-5.173454 0.593931-7.705476V38.949385c0-17.192746 13.910495-31.134501 31.118871-31.1345h119.724033a31.103241 31.103241 0 0 1 31.118871 31.1345v541.212024c0.390744 2.922767 0.593931 5.298492 0.593931 7.736735A91.684227 91.684227 0 0 1 507.683597 679.488593z m28.883813-94.403807a27.930398 27.930398 0 0 1-0.156297-3.032175V70.083886h-57.455032V582.052611c0 0.969046-0.046889 1.922462-0.140668 2.891507a80.337014 80.337014 0 0 1-0.390745 3.39166l-0.046889 0.156298-0.01563-0.04689A29.383966 29.383966 0 0 0 507.683597 617.235221c15.926735 0 28.915073-12.753892 29.305817-28.602478a63.488123 63.488123 0 0 1-0.422004-3.547957z m-175.834905-235.85322c-83.478598 51.48446-133.337562 140.699184-133.337562 238.666578 0 67.676901 24.460589 133.024967 68.849134 183.978015a20.771963 20.771963 0 0 1-15.645399 34.385493c-5.783015 0-11.566029-2.422614-15.645399-7.127175a321.473096 321.473096 0 0 1-79.055374-211.236333c0-112.45619 57.204956-214.893699 153.031072-274.005486a20.740704 20.740704 0 0 1 28.555589 6.75206 20.787593 20.787593 0 0 1-6.752061 28.586848z" /></svg>