<?xml version="1.0" standalone="no"?><!DOCTYPE svg PUBLIC "-//W3C//DTD SVG 1.1//EN" "http://www.w3.org/Graphics/SVG/1.1/DTD/svg11.dtd"><svg class="icon" width="200px" height="200.00px" viewBox="0 0 1024 1024" version="1.1" xmlns="http://www.w3.org/2000/svg"><path fill="#333333" d="M1015.047563 954.810716a63.740833 63.740833 0 0 1-60.237007 60.237007l-164.183841 8.815562a63.724833 63.724833 0 0 1-48.525589-18.591076l-258.675146-258.707145c-33.438338 9.407533-67.932624 14.175296-103.098877 14.175296a377.693232 377.693232 0 0 1-268.882639-111.402464 377.789227 377.789227 0 0 1-111.434462-268.946636c0-101.610951 39.598032-197.094206 111.434462-268.946636A377.853224 377.853224 0 0 1 380.423098 0.026161c101.594952 0 197.094206 39.566034 268.930637 111.386465a379.501142 379.501142 0 0 1 97.243168 371.997515l99.051078 99.067077a63.756832 63.756832 0 0 1 18.655073 45.08576v15.759216l15.983205 0.047998a63.740833 63.740833 0 0 1 63.580841 63.756832v15.599225h15.663222c16.751168 0 32.79837 6.591672 44.749776 18.351088l0.671967 0.703965a63.676836 63.676836 0 0 1 18.943058 48.829573l-8.84756 164.199841z m-55.517241-168.311636l-79.404055 0.015999v-79.388055l-79.564046-0.20799v-79.356056l-127.113684-127.145682c46.813674-114.554308 23.806817-250.94753-69.180562-343.902911a315.568319 315.568319 0 0 0-223.844877-92.715393A315.632316 315.632316 0 0 0 156.530224 156.530384c-123.641856 123.625857-123.673854 324.063897-0.031999 447.721752a315.568319 315.568319 0 0 0 223.828878 92.715393c40.877969 0 81.691941-7.83961 120.090033-23.566829L787.186886 960.202448l164.21584-8.815562 8.815561-164.19984-0.687965-0.687966z m-102.874888 91.371459c-5.43973 0-10.879459-2.063897-15.023254-6.22369L548.894727 578.909395a259.059127 259.059127 0 0 1-169.063599 62.172911c-69.772533 0-135.401272-27.198648-184.74282-76.540197a259.891086 259.891086 0 0 1-71.772434-135.209281 21.230945 21.230945 0 0 1 41.741926-8.015602 217.637185 217.637185 0 0 0 60.093014 113.178376 217.269204 217.269204 0 0 0 154.680314 64.076816c58.445096 0 113.370366-22.750869 154.680313-64.076816 85.275763-85.291762 85.275763-224.052866 0-309.344628a217.589188 217.589188 0 0 0-113.178376-60.093014 21.246944 21.246944 0 1 1 8.031601-41.741926 260.035078 260.035078 0 0 1 135.209282 71.788433c96.779191 96.79519 101.402961 251.123521 14.28729 353.646427l292.785451 292.849448c8.319587 8.303587 8.319587 21.758919 0 30.046507-4.111796 4.159793-9.551525 6.223691-14.991255 6.22369zM286.81175 402.614156a115.066282 115.066282 0 0 1-81.89993-33.918315c-45.165756-45.149756-45.133757-118.618106 0.031998-163.751863a115.034284 115.034284 0 0 1 81.89993-33.950313c30.926463 0 59.997019 12.047401 81.867932 33.918315a114.874292 114.874292 0 0 1 33.902316 81.883931 114.986286 114.986286 0 0 1-33.902316 81.883931 115.034284 115.034284 0 0 1-81.89993 33.934314z m51.837424-167.63967a72.780383 72.780383 0 0 0-51.805426-21.486932 73.356355 73.356355 0 0 0-51.869422 125.145781 72.748385 72.748385 0 0 0 51.837424 21.470933 72.84438 72.84438 0 0 0 51.837424-21.502932 72.748385 72.748385 0 0 0 21.470933-51.805425 72.780383 72.780383 0 0 0-21.470933-51.821425z" /></svg>