<?xml version="1.0" standalone="no"?><!DOCTYPE svg PUBLIC "-//W3C//DTD SVG 1.1//EN" "http://www.w3.org/Graphics/SVG/1.1/DTD/svg11.dtd"><svg class="icon" width="200px" height="200.00px" viewBox="0 0 1024 1024" version="1.1" xmlns="http://www.w3.org/2000/svg"><path fill="#333333" d="M916.134182 1015.136525H99.417818a62.892066 62.892066 0 0 1-62.907788-62.892066V71.786987A62.923512 62.923512 0 0 1 99.417818 8.863475h736.466088a62.939235 62.939235 0 0 1 62.923512 62.923512v119.023234h17.326764a62.939235 62.939235 0 0 1 62.907788 62.923512V952.244459c0 34.732143-28.175645 62.892066-62.907788 62.892066zM835.883906 71.786987H99.417818v38.88302h504.300028a20.958781 20.958781 0 1 1 0 41.933284H99.417818v38.20693h736.466088v-119.023234z m80.250276 414.270036h-312.416336v233.895592h312.416336V486.057023z m0 275.813154h-312.416336a41.933285 41.933285 0 0 1-41.933285-41.917562V486.057023a41.949008 41.949008 0 0 1 41.933285-41.949008h312.416336V253.733733H99.417818V952.244459h816.716364V761.870177zM717.678269 554.84522a48.143876 48.143876 0 1 1-0.031446 96.319198 48.143876 48.143876 0 0 1 0.031446-96.319198z m-16.587782-444.175213h58.85125a20.974504 20.974504 0 0 1 0 41.933284h-58.85125a20.974504 20.974504 0 0 1 0-41.933284z" /></svg>