<?xml version="1.0" standalone="no"?><!DOCTYPE svg PUBLIC "-//W3C//DTD SVG 1.1//EN" "http://www.w3.org/Graphics/SVG/1.1/DTD/svg11.dtd"><svg class="icon" width="200px" height="200.00px" viewBox="0 0 1024 1024" version="1.1" xmlns="http://www.w3.org/2000/svg"><path fill="#333333" d="M637.82304 754.964661l-74.087167 115.747318a63.410366 63.410366 0 0 1-106.81561 0l-74.071303-115.747318C229.788362 701.21577 124.939949 554.818258 124.939949 390.541466 124.939949 177.576555 297.815295 4.336327 510.336 4.336327c212.504841 0 385.396051 173.240229 385.396051 386.205139 0 164.276792-104.864278 310.674304-257.909011 364.423195zM510.336 67.921202c-177.809202 0-321.938091 144.44618-321.938091 322.620264 0 148.110877 99.660725 272.85336 235.460757 310.706033l86.477334 135.133724 86.461469-135.133724c135.784168-37.852673 235.476622-162.595156 235.476622-310.706033 0-178.174085-144.144754-322.620264-321.938091-322.620264z m0 593.093951c-41.104893 0-80.575744-9.026895-117.349631-26.842717a21.194958 21.194958 0 0 1 18.418673-38.154098 224.97433 224.97433 0 0 0 98.930958 22.606898c125.503979 0 227.639564-102.325959 227.639564-228.08377 0-14.658789-1.396075-29.22239-4.124767-43.294193a21.147365 21.147365 0 1 1 41.549099-8.05916c3.220491 16.721172 4.870398 33.997602 4.870398 51.353353 0 149.126204-121.093651 270.473687-269.934294 270.473687zM734.596428 280.378449a21.099771 21.099771 0 0 1-29.032017-7.250072 228.08377 228.08377 0 0 0-51.115386-59.158682 21.258416 21.258416 0 0 1-2.982524-29.825241 21.099771 21.099771 0 0 1 29.761783-2.998389 270.473687 270.473687 0 0 1 60.586487 70.13691c6.028506 10.042222 2.79215 23.051104-7.218343 29.095474z m-144.700012-103.626847a226.370405 226.370405 0 0 0-79.560416-14.325635c-125.503979 0-227.6237 102.325959-227.6237 228.115499a227.020849 227.020849 0 0 0 64.631932 159.168426 21.258416 21.258416 0 0 1-15.166452 35.996528c-5.504978 0-10.994091-2.125842-15.150588-6.409254a269.28385 269.28385 0 0 1-76.625486-188.7557c0-149.157933 121.093651-270.505416 269.934294-270.505415 32.458746 0 64.20359 5.727081 94.346121 17.006733a21.179094 21.179094 0 0 1-14.785705 39.708818zM376.741131 956.078798h267.158009c17.530261 0 31.72898 14.230447 31.728979 31.792438a31.760709 31.760709 0 0 1-31.728979 31.792437h-267.158009c-17.514397 0-31.72898-14.230447-31.728979-31.792437s14.214583-31.792438 31.728979-31.792438z" /></svg>