<?xml version="1.0" standalone="no"?><!DOCTYPE svg PUBLIC "-//W3C//DTD SVG 1.1//EN" "http://www.w3.org/Graphics/SVG/1.1/DTD/svg11.dtd"><svg class="icon" width="200px" height="177.16px" viewBox="0 0 1156 1024" version="1.1" xmlns="http://www.w3.org/2000/svg"><path fill="#333333" d="M1095.157144 707.703879a34.717022 34.717022 0 0 1-34.751914-34.734468v-102.70307C1060.40523 300.747108 841.129727 81.48905 571.627939 81.48905c-269.519234 0-488.794737 219.258057-488.794736 488.777291v102.70307a34.717022 34.717022 0 1 1-69.468936 0v-110.414087c0-0.907178 0.191903-1.727128 0.261686-2.599415C19.156253 256.905964 267.269564 12.002669 571.627939 12.002669c304.358376 0 552.454241 244.903295 558.001987 547.95324 0.069783 0.872287 0.261686 1.692237 0.261686 2.599415v110.414087c0 19.190314-15.5616 34.734468-34.734468 34.734468z m-1047.058409 50.243731c12.787727 0 23.150497 10.362769 23.150497 23.150496v35.659093a23.150497 23.150497 0 1 1-46.31844 0v-35.659093c0-12.787727 10.380215-23.150497 23.167943-23.150496z m155.720673-106.506241a69.486381 69.486381 0 0 1 67.741807-53.994565h55.983379a69.468936 69.468936 0 0 1 69.468936 69.468936v263.448116a69.468936 69.468936 0 0 1-69.468936 69.468936H271.561215a69.486381 69.486381 0 0 1-67.741807-53.959673c-56.681208-22.243318-89.828114-74.5282-89.828114-147.242044 0-72.678952 33.146906-124.98128 89.828114-147.189706z m67.741807 16.887476c0.296578 1.500334 0.471035 3.035559 0.471035 4.605675v257.429336h55.512344V666.91574H271.561215v1.413105z m-45.847404 211.599377V717.368819c-22.993485 10.292986-42.236136 32.797991-42.236136 81.262256 0 48.499157 19.242651 70.986715 42.236136 81.297147z m588.183117-282.481418h56.000824a69.503827 69.503827 0 0 1 67.741808 53.994565c56.663763 22.208427 89.793223 74.510755 89.793222 147.189706 0 72.696398-33.12946 124.998725-89.793222 147.242044a69.503827 69.503827 0 0 1-67.741808 53.959673h-56.000824a69.468936 69.468936 0 0 1-69.486382-69.468936V666.91574a69.468936 69.468936 0 0 1 69.486382-69.468936z m101.848228 282.481418c22.941148-10.310432 42.201244-32.797991 42.201245-81.297147 0-48.464265-19.260097-70.969269-42.201245-81.262256v162.559403z m-101.848228 50.435634h55.512343V672.93452c0-1.605008 0.174457-3.157679 0.488481-4.675458v-1.343322h-56.000824v263.448116z m281.260216-172.416246c12.770282 0 23.150497 10.362769 23.150497 23.150496v35.659093a23.167942 23.167942 0 1 1-46.318439 0v-35.659093c0-12.787727 10.362769-23.150497 23.167942-23.150496z" /></svg>