<?xml version="1.0" standalone="no"?><!DOCTYPE svg PUBLIC "-//W3C//DTD SVG 1.1//EN" "http://www.w3.org/Graphics/SVG/1.1/DTD/svg11.dtd"><svg class="icon" width="200px" height="200.00px" viewBox="0 0 1024 1024" version="1.1" xmlns="http://www.w3.org/2000/svg"><path fill="#333333" d="M845.549913 323.623529l-197.944488 131.837938c91.89889 49.787033 154.457039 147.094499 154.457039 258.736253 0 162.147846-131.900465 294.048312-294.017048 294.048312-162.132215 0-294.048312-131.900465-294.048311-294.048312 0-111.641754 62.573781-208.980484 154.488302-258.736253L170.509656 323.623529A62.245515 62.245515 0 0 1 142.778982 271.835636V70.030112A62.214251 62.214251 0 0 1 204.993233 7.815861h606.073103a62.214251 62.214251 0 0 1 62.214251 62.214251v201.805524a62.245515 62.245515 0 0 1-27.730674 51.787893zM276.226988 714.19772c0 128.055062 103.778999 231.818429 231.818428 231.818429 128.008167 0 231.787165-103.763367 231.787165-231.818429 0-128.008167-103.778999-231.818429-231.787165-231.818429-128.03943 0-231.818429 103.810262-231.818428 231.818429zM811.066336 70.030112h-118.566607v55.508243a20.758926 20.758926 0 1 1-41.486589 0V70.030112H363.748996v55.508243a20.743294 20.743294 0 1 1-41.470957 0V70.030112H204.993233v201.805524l117.284806 78.111711v-117.613072a20.743294 20.743294 0 0 1 41.470957 0v145.234324l76.09522 50.678041a293.829468 293.829468 0 0 1 68.2012-8.0816c23.478846 0 46.285527 2.860605 68.169937 8.0816l74.797787-49.818296v-146.094069a20.743294 20.743294 0 0 1 41.486589 0v118.457185l118.566607-78.955824V70.030112zM545.248913 551.315183l34.483578 69.951953 77.205072 11.207944a41.470957 41.470957 0 0 1 23.009894 70.73354l-55.852141 54.492181 13.177541 76.892437a41.486589 41.486589 0 0 1-60.197759 43.706294l-69.029682-36.296858-69.060945 36.296858a41.611642 41.611642 0 0 1-43.67503-3.141976 41.424062 41.424062 0 0 1-16.507097-40.564318l13.177541-76.892437-55.867773-54.460918a41.470957 41.470957 0 0 1 23.009894-70.764803l77.189441-11.207944 34.530472-69.951953a41.50222 41.50222 0 0 1 74.406994 0z m-81.378742 107.874509l-98.808111 14.349921 71.483862 69.670582-16.850995 98.370423 88.350489-46.441844 88.334858 46.441844-16.866627-98.370423 71.46823-69.670582-98.792479-14.349921-44.143982-89.522868-44.175245 89.522868z" /></svg>