<?xml version="1.0" standalone="no"?><!DOCTYPE svg PUBLIC "-//W3C//DTD SVG 1.1//EN" "http://www.w3.org/Graphics/SVG/1.1/DTD/svg11.dtd"><svg class="icon" width="200px" height="153.41px" viewBox="0 0 1335 1024" version="1.1" xmlns="http://www.w3.org/2000/svg"><path fill="#333333" d="M1087.43877 541.865148L828.286614 282.712991c-40.652654-40.669678-94.907264-63.055875-152.753879-63.055875-27.816766 0-54.748298 5.294378-79.773173 15.185162l-155.988386-155.988387C355.520763-5.396521 218.445735-5.396521 134.246394 78.853891l-10.214235 10.197211C83.362481 129.686733 60.976284 183.958366 60.976284 241.822005c0 57.846616 22.386198 112.101225 63.055875 152.753879l259.135133 259.169181a214.549999 214.549999 0 0 0 152.753879 63.038851c27.833789 0 54.748298-5.294378 79.790196-15.202186l155.988387 156.005411c40.669678 40.669678 94.924287 63.038851 152.770903 63.038851 57.846616 0 112.101225-22.369174 152.753879-63.038851l10.214234-10.197211a214.498927 214.498927 0 0 0 63.055876-152.753879c0-57.863639-22.386198-112.118249-63.055876-152.770903z m-656.009219 63.617658L172.277394 346.313626a146.676409 146.676409 0 0 1-43.052999-104.491621c0-39.648254 15.287305-76.74295 43.052999-104.508644l10.214235-10.214235c57.608283-57.608283 151.374957-57.625307 209.034312 0l144.020708 144.020709c-4.358073 3.728196-8.682099 7.507462-12.767793 11.576132l-10.231259 10.214235c-38.728973 38.711949-62.068499 92.4218-64.026227 147.340335-1.0044 27.748671 3.455816 54.612108 12.665651 79.53484L236.746238 295.378642a69.831318 69.831318 0 0 1-0.051071-98.618435l5.20926-5.192236a69.831318 69.831318 0 0 1 98.635459 0l90.089549 90.072526a22.709648 22.709648 0 0 0 32.140792 0 22.692625 22.692625 0 0 0 0-32.157816l-90.072526-90.072526a115.335733 115.335733 0 0 0-162.934066-0.051071l-5.20926 5.175212c-44.908585 44.959656-44.908585 118.076552 0.017024 163.002162l243.286046 243.286045a115.795373 115.795373 0 0 0 98.533316 32.379124 114.263238 114.263238 0 0 0 64.434797-32.379124l5.158189-5.175212c43.580734-43.580734 44.755371-113.582289 3.79629-158.797301 1.719396-2.179037 3.523911-4.272955 5.498663-6.281755l5.158189-5.175212a68.758823 68.758823 0 0 1 18.062171-12.648627c1.361898 2.179037 2.911057 4.272955 4.800691 6.162588a141.211794 141.211794 0 0 1 41.742172 102.704129c-0.544759 38.780044-16.325752 75.60236-44.397873 103.674482l-10.197211 10.197211a146.778552 146.778552 0 0 1-104.525668 43.052999 146.693433 146.693433 0 0 1-104.49162-43.052999z m607.763984 193.661889l-10.231258 10.197211c-57.625307 57.608283-151.357934 57.608283-209.000264 0l-144.037733-144.037733c4.375097-3.711172 8.699123-7.490439 12.784817-11.559108l10.197211-10.214235c40.686701-40.686701 63.566587-94.294409 64.383726-150.949364a209.817403 209.817403 0 0 0-13.21041-76.164143l225.308992 225.326016a69.79727 69.79727 0 0 1 0.034048 98.584388l-5.226284 5.192236a69.20144 69.20144 0 0 1-49.300705 20.326327 69.235487 69.235487 0 0 1-49.31773-20.326327l-95.162619-95.145596a22.726672 22.726672 0 1 0-32.157816 32.157816l95.145596 95.162619a114.399428 114.399428 0 0 0 81.492569 33.655903 114.450499 114.450499 0 0 0 81.441497-33.621856l5.20926-5.209259a115.352757 115.352757 0 0 0 0-162.968114L761.230163 363.235208a115.420851 115.420851 0 0 0-162.985137 0l-5.141165 5.175212a114.348357 114.348357 0 0 0-33.655903 81.475545 114.229191 114.229191 0 0 0 29.672352 77.100448c-1.719396 2.179037-3.285579 4.460216-5.294379 6.486039l-5.175212 5.158188a68.724775 68.724775 0 0 1-17.398246 12.665651 34.285781 34.285781 0 0 0-5.07307-6.656276c-26.82939-26.863437-40.856939-63.055875-39.478017-101.972109a153.043282 153.043282 0 0 1 44.091446-101.512469l10.231259-10.197211a146.744504 146.744504 0 0 1 104.508644-43.070023 146.744504 146.744504 0 0 1 104.508644 43.070023l259.152156 259.152157c57.625307 57.625307 57.625307 151.391981 0 209.034312z" /></svg>