<?xml version="1.0" standalone="no"?><!DOCTYPE svg PUBLIC "-//W3C//DTD SVG 1.1//EN" "http://www.w3.org/Graphics/SVG/1.1/DTD/svg11.dtd"><svg class="icon" width="200px" height="198.45px" viewBox="0 0 1032 1024" version="1.1" xmlns="http://www.w3.org/2000/svg"><path fill="#333333" d="M508.046639 1008.246154C232.20925 1008.246154 7.815862 783.852766 7.815862 508.031008S232.20925 7.815862 508.046639 7.815862C783.852766 7.815862 1008.246154 232.20925 1008.246154 508.031008s-224.393388 500.215146-500.199515 500.215146z m0-937.903399C266.6772 70.342755 70.342755 266.6772 70.342755 508.031008c0 241.338176 196.334445 437.688253 437.703884 437.688253 241.338176 0 437.672621-196.350077 437.672622-437.688253 0-241.353808-196.334445-437.688253-437.672622-437.688253z m0 835.515611c-40.767534 0-80.972327-6.127636-119.457629-18.226589a20.837087 20.837087 0 1 1 12.505379-39.751473 356.450187 356.450187 0 0 0 106.95225 16.303888c196.38134 0 356.153184-159.771844 356.153184-356.153184 0-46.973329-8.988241-92.617961-26.745878-135.683359a20.852719 20.852719 0 0 1 38.54783-15.881831 395.685812 395.685812 0 0 1 29.887855 151.56519c0 219.359973-178.467385 397.827358-397.842991 397.827358zM815.81964 311.118189c-6.53406 0-12.958699-3.063818-17.022947-8.80066a357.2943 357.2943 0 0 0-74.750901-77.502084 20.837087 20.837087 0 0 1 25.292129-33.123622 398.530786 398.530786 0 0 1 83.473402 86.53722 20.837087 20.837087 0 0 1-16.991683 32.889146z m-88.663135 255.953838a41.705438 41.705438 0 0 1-41.689806 41.689806h-76.704866v76.673603a41.705438 41.705438 0 0 1-41.689806 41.689806h-118.066406a41.705438 41.705438 0 0 1-41.689807-41.689806v-76.673603h-76.689234a41.705438 41.705438 0 0 1-41.689806-41.689806v-118.082038a41.705438 41.705438 0 0 1 41.689806-41.689806h76.689234v-76.673603a41.689806 41.689806 0 0 1 41.689807-41.689806h118.066406a41.689806 41.689806 0 0 1 41.689806 41.689806v76.673603h76.704866a41.705438 41.705438 0 0 1 41.689806 41.689806v118.082038z m-41.689806-118.082038h-118.394672v-118.363409h-118.066406v118.363409h-118.379041v118.082038h118.379041v118.363409h118.066406v-118.363409h118.394672v-118.082038z m-36.234335-268.052792a353.66774 353.66774 0 0 0-141.185725-29.075005C311.634036 151.862192 151.877824 311.634036 151.877824 508.031008c0 123.521878 62.573788 236.445447 167.368861 302.083053a20.868351 20.868351 0 0 1-22.13452 35.327695C180.061821 772.128973 110.203649 645.980966 110.203649 508.031008c0-219.375605 178.451753-397.84299 397.84299-397.84299 54.804822 0 107.858891 10.926575 157.73972 32.482721a20.837087 20.837087 0 1 1-16.553995 38.266458z" /></svg>