<?xml version="1.0" standalone="no"?><!DOCTYPE svg PUBLIC "-//W3C//DTD SVG 1.1//EN" "http://www.w3.org/Graphics/SVG/1.1/DTD/svg11.dtd"><svg class="icon" width="200px" height="200.00px" viewBox="0 0 1024 1024" version="1.1" xmlns="http://www.w3.org/2000/svg"><path fill="#333333" d="M842.113564 288.672981L551.664386 654.70436a61.866631 61.866631 0 0 1-96.857534 0L164.326818 288.672981a61.804919 61.804919 0 0 1 48.428767-100.251714h110.27997L260.567229 57.683652a30.933316 30.933316 0 0 1 55.818821-26.628879l75.181071 157.366494h402.117676a61.820347 61.820347 0 0 1 48.428767 100.251714z m-421.017083-38.431367l38.323369 80.256912h216.841772L503.235619 548.559117 330.147904 330.498526h60.755809l-38.338798-80.256912H212.755585l290.480034 366.015951 290.449178-366.015951h-372.588316z m58.025037 121.465334l42.010683 87.986384 69.812096-87.986384h-111.822779zM405.097554 939.044015h67.220177V760.016486a30.90246 30.90246 0 1 1 61.80492 0v179.027529h67.251034a30.90246 30.90246 0 1 1 0 61.804919H405.097554a30.90246 30.90246 0 1 1 0-61.804919z" /></svg>