<?xml version="1.0" standalone="no"?><!DOCTYPE svg PUBLIC "-//W3C//DTD SVG 1.1//EN" "http://www.w3.org/Graphics/SVG/1.1/DTD/svg11.dtd"><svg class="icon" width="200px" height="200.00px" viewBox="0 0 1024 1024" version="1.1" xmlns="http://www.w3.org/2000/svg"><path fill="#333333" d="M814.973853 698.614658C806.520054 865.192567 669.553288 995.457223 502.47272 995.457223 335.392153 995.457223 198.425387 865.223031 189.971588 698.675586a150.401452 150.401452 0 0 1-1.721224-21.888483V517.566283c0-51.880428 25.589876-97.789884 64.644902-126.136765V273.609462c0-5.453081 0.44173-11.210803 1.340422-17.547343C261.105351 123.893454 369.847094 20.604793 502.47272 20.604793c91.240095 0 174.986011 49.839331 218.54973 130.097103a30.250889 30.250889 0 1 1-53.14469 28.849539A188.116055 188.116055 0 0 0 502.47272 81.076107 187.735253 187.735253 0 0 0 314.569914 260.372794c-0.060928 1.035781-0.152321 2.086793-0.304641 3.107342a65.193256 65.193256 0 0 0-0.88346 10.129326v91.133471a154.95584 154.95584 0 0 1 30.753548-3.107343h316.629023c10.540592 0 20.807007 1.096709 30.76878 3.107343v-66.579375a30.235657 30.235657 0 0 1 60.486547 0v93.250728c39.055025 28.362113 64.644902 74.27157 64.644901 126.151997v159.22082c0 6.808735-0.563587 13.967807-1.690759 21.827555z m-58.795788-107.264232c-4.843798-39.283507-32.688021-73.251021-71.133763-84.94925a20.152028 20.152028 0 1 1 11.728693-38.552367 140.74432 140.74432 0 0 1 58.125577 34.805278c-7.189537-45.543887-46.610132-80.53195-94.134188-80.53195H344.135361c-47.447896 0-86.807563 34.881439-94.088492 80.349165a141.155586 141.155586 0 0 1 99.267395-40.745785h237.193782a20.16726 20.16726 0 1 1 0 40.319288H349.314264c-51.728107 0-94.454061 38.963633-100.577353 89.07714v85.665158c0 4.219283 0.380802 8.804136 1.24903 14.379073 0.152321 1.051013 0.258945 2.117258 0.319873 3.16827 1.340422 29.489286 7.707427 57.577222 18.217555 83.47174a252.898045 252.898045 0 0 0 233.949351 155.8393 252.943742 252.943742 0 0 0 234.01028-155.976389 253.156991 253.156991 0 0 0 18.156626-83.410811c0.030464-1.066245 0.137089-2.13249 0.28941-3.198734 0.868228-5.498777 1.24903-10.037934 1.249029-14.272449V591.350426zM502.47272 852.54995a59.298445 59.298445 0 0 1-59.328909-59.283214 59.313678 59.313678 0 0 1 39.16165-55.749373v-71.347013a20.136796 20.136796 0 1 1 40.304055 0v71.362245a59.267981 59.267981 0 0 1-20.136796 115.017355z" /></svg>