<?xml version="1.0" standalone="no"?><!DOCTYPE svg PUBLIC "-//W3C//DTD SVG 1.1//EN" "http://www.w3.org/Graphics/SVG/1.1/DTD/svg11.dtd"><svg class="icon" width="200px" height="200.00px" viewBox="0 0 1024 1024" version="1.1" xmlns="http://www.w3.org/2000/svg"><path fill="#333333" d="M882 195c16.569 0 30 13.431 30 30v574c0 16.569-13.431 30-30 30H142c-16.569 0-30-13.431-30-30V225c0-16.569 13.431-30 30-30h740z m-10 201H152v393h720V396zM505 603c11.046 0 20 8.954 20 20s-8.954 20-20 20H243c-11.046 0-20-8.954-20-20s8.954-20 20-20h262z m0-104c11.046 0 20 8.954 20 20s-8.954 20-20 20H243c-11.046 0-20-8.954-20-20s8.954-20 20-20h262z m160 0c11.046 0 20 8.954 20 20s-8.954 20-20 20h-60c-11.046 0-20-8.954-20-20s8.954-20 20-20h60z m207-264H152v121h720V235z"  /></svg>