<?xml version="1.0" standalone="no"?><!DOCTYPE svg PUBLIC "-//W3C//DTD SVG 1.1//EN" "http://www.w3.org/Graphics/SVG/1.1/DTD/svg11.dtd"><svg class="icon" width="200px" height="200.00px" viewBox="0 0 1024 1024" version="1.1" xmlns="http://www.w3.org/2000/svg"><path fill="#333333" d="M661.138 638.154c142.825 30.292 244.863 102.797 250.607 188.234 0.166 1.514 0.255 3.053 0.255 4.612v40c0 22.091-17.909 40-40 40H152c-22.091 0-40-17.909-40-40v-40c0-1.56 0.09-3.098 0.263-4.611 5.68-84.583 105.744-156.492 246.327-187.314l4.272-0.921L512 885l149.138-246.846z m-317.434 45.642l-2.888 0.767C229.102 714.598 157.42 771.294 152.308 827.37l-0.135 1.7-0.063 0.942-0.11 0.957V871h304.808L343.704 683.796z m336.591 0L567.191 871H872v-40.041l-0.007-0.106-0.102-0.94-0.056-0.842c-3.807-56.628-75.808-114.17-188.65-144.508l-2.89-0.767zM514 324c104.127 0 193.144 22.09 229.048 53.296 0.737 0.044 1.48 0.13 2.22 0.26 17.404 3.07 27.315 29.367 22.137 58.737-5.047 28.62-22.56 49.597-39.556 47.81C701.597 567.669 614.902 629 512 629c-100.489 0-185.523-58.49-213.907-139.056-17.351 2.9-35.554-18.378-40.716-47.65-5.064-28.722 4.301-54.504 20.993-58.5C308.8 349.202 402.781 324 514 324z m0 40c-61.978 0-119.648 8.33-161.023 22.457a251.49 251.49 0 0 0-4.282 1.505l-1.665 0.61a222.845 222.845 0 0 0-4.828 1.85l-1.554 0.623-1.525 0.627c-0.503 0.21-1.002 0.42-1.496 0.63l-1.467 0.632c-0.484 0.21-0.963 0.422-1.438 0.634l-1.408 0.637a150.909 150.909 0 0 0-5.593 2.694v32.837h-0.036l0.554 9.383C333.113 521.802 412.957 589 512 589c96.99 0 175.741-64.502 183.388-145.015l0.21-2.445 1.059-13.804h-0.147l0.002-32.683c-0.6-0.283-1.209-0.566-1.826-0.848l-1.408-0.637c-0.475-0.212-0.954-0.423-1.438-0.634l-1.467-0.633c-0.494-0.21-0.993-0.42-1.496-0.629l-1.525-0.627-1.554-0.623a222.845 222.845 0 0 0-4.828-1.85l-1.665-0.61a251.49 251.49 0 0 0-4.282-1.505C633.648 372.329 575.978 364 514 364z m-2.42-251c96.756 0 187.245 18.662 264.428 51.09v183.218C706.714 307.396 613.978 283 512.08 283c-101.976 0-194.777 24.433-264.087 64.4l0.005-183.663C324.993 131.526 415.175 113 511.579 113z m0 40c-78.372 0-153.834 12.95-221.288 37.205l-2.299 0.831v92.812l2.242-0.887c65.07-25.567 140.247-39.584 218.664-39.954l3.18-0.007c79.503 0 155.778 14.027 221.694 39.902l2.234 0.884v-92.442l-0.375-0.136c-67.384-24.62-142.888-37.907-221.376-38.203L511.58 153zM524 165a8 8 0 0 1 8 8v7h7a8 8 0 0 1 8 8v24a8 8 0 0 1-8 8h-7v7a8 8 0 0 1-8 8h-24a8 8 0 0 1-8-8v-7h-7a8 8 0 0 1-8-8v-24a8 8 0 0 1 8-8h7v-7a8 8 0 0 1 8-8h24z"  /></svg>