<?xml version="1.0" standalone="no"?><!DOCTYPE svg PUBLIC "-//W3C//DTD SVG 1.1//EN" "http://www.w3.org/Graphics/SVG/1.1/DTD/svg11.dtd"><svg class="icon" width="200px" height="200.00px" viewBox="0 0 1024 1024" version="1.1" xmlns="http://www.w3.org/2000/svg"><path fill="#333333" d="M747.482 113c11.045 0 19.998 8.954 19.998 20s-8.953 20-19.998 20h-61.997v252.028L906.088 869.12c7.113 14.964 0.749 32.861-14.214 39.974a29.997 29.997 0 0 1-12.88 2.906H143.999C127.431 912 114 898.569 114 882c0-4.456 0.993-8.856 2.905-12.88l220.602-464.092V153H275.51c-11.045 0-19.998-8.954-19.998-20s8.953-20 19.998-20h471.97z m-102.057 40h-267.85v261.052L160 872h703L645.426 414.052V153zM803 845l-193.752-0.012-380.583 0.01C217.253 845 208 835.74 208 824.321a20.69 20.69 0 0 1 3.075-10.854l18.068-29.32a29.75 29.75 0 0 0 2.243-4.427c16.924-41.528 46.359-51.634 88.306-30.319 64.024 32.533 153.557-1 191.572-32.533C549.278 685.337 742.604 530.543 803 845zM650.49 691.13c-20.017 1.102-42.764 9.225-66.591 22.935-16.926 9.739-31.066 20.056-46.273 32.611l-1.235 1.023c-25.31 21.017-63.413 39.31-102.39 48.48-47.041 11.068-92.905 8.809-131.598-10.455l-1.17-0.59c-6.952-3.536-12.732-5.542-17.195-6.243-2.374-0.373-3.88-0.336-4.848-0.105l-0.262 0.07a3.76 3.76 0 0 0-0.12 0.04c-0.718 0.247-1.59 0.842-2.95 2.36-2.41 2.686-4.992 6.982-7.473 12.948l-0.248 0.602a69.86 69.86 0 0 1-4.758 9.571L263 805l173.318-0.007L752 805l-0.128-0.452a418.296 418.296 0 0 0-2.517-8.401l-0.735-2.338-0.743-2.31c-0.497-1.531-1-3.044-1.506-4.538l-0.764-2.227a317.481 317.481 0 0 0-5.95-15.834l-0.823-1.995c-9.081-21.802-19.367-38.694-30.585-50.983l-0.7-0.76c-16.95-18.218-35.227-25.233-57.059-24.031zM549 457c20.435 0 37 16.565 37 37s-16.565 37-37 37-37-16.565-37-37 16.565-37 37-37z"  /></svg>