<?xml version="1.0" standalone="no"?><!DOCTYPE svg PUBLIC "-//W3C//DTD SVG 1.1//EN" "http://www.w3.org/Graphics/SVG/1.1/DTD/svg11.dtd"><svg class="icon" width="200px" height="200.00px" viewBox="0 0 1024 1024" version="1.1" xmlns="http://www.w3.org/2000/svg"><path fill="#333333" d="M845.047 179.953c91.383 91.382 91.383 239.543 0 330.926L509.88 846.047c-90.47 90.47-236.586 91.374-328.168 2.714l-2.758-2.714c-91.383-91.382-91.383-239.543 0-330.926L514.12 179.953c91.383-91.383 239.544-91.383 330.926 0zM638.572 660.785L364.215 386.428 207.237 543.406a197.045 197.045 0 0 0-8.68 9.257l0.82-0.927c-0.583 0.654-1.16 1.312-1.732 1.972l0.912-1.045c-0.7 0.795-1.39 1.595-2.075 2.4l1.163-1.355c-0.689 0.795-1.37 1.593-2.042 2.396l0.88-1.042c-0.673 0.791-1.338 1.586-1.996 2.385l1.116-1.343a194.82 194.82 0 0 0-2.392 2.91l1.276-1.567c-0.65 0.79-1.293 1.583-1.929 2.38l0.653-0.814a194.39 194.39 0 0 0-1.82 2.294l1.167-1.48c-0.663 0.833-1.32 1.67-1.968 2.511l0.8-1.031a194.06 194.06 0 0 0-1.643 2.134l0.843-1.103c-0.641 0.833-1.275 1.67-1.901 2.51l1.058-1.407c-0.605 0.796-1.203 1.597-1.795 2.401l0.737-0.994c-0.616 0.825-1.224 1.655-1.824 2.488l1.087-1.494c-0.656 0.892-1.303 1.789-1.942 2.69l0.855-1.196c-0.6 0.832-1.19 1.666-1.775 2.505l0.92-1.31c-0.573 0.81-1.14 1.621-1.7 2.437l0.78-1.127c-0.6 0.86-1.192 1.726-1.777 2.594l0.998-1.467c-0.584 0.85-1.16 1.703-1.728 2.56l0.73-1.093c-0.562 0.835-1.116 1.674-1.664 2.515l0.934-1.421a192.88 192.88 0 0 0-1.808 2.777l0.874-1.356c-0.559 0.86-1.11 1.723-1.654 2.59l0.78-1.234a192.73 192.73 0 0 0-1.598 2.546l0.818-1.313a192.67 192.67 0 0 0-1.62 2.625l0.802-1.312c-0.553 0.897-1.098 1.797-1.635 2.7l0.834-1.388c-0.52 0.856-1.03 1.715-1.535 2.578l0.701-1.19c-0.531 0.895-1.055 1.792-1.57 2.693l0.87-1.503c-0.522 0.89-1.035 1.784-1.54 2.68l0.67-1.177c-0.466 0.812-0.925 1.628-1.378 2.446l0.708-1.268c-0.506 0.899-1.005 1.8-1.496 2.706l0.788-1.438c-0.507 0.915-1.005 1.833-1.496 2.754l0.708-1.316c-0.471 0.868-0.935 1.739-1.391 2.612l0.683-1.296c-0.483 0.909-0.959 1.82-1.427 2.734l0.744-1.438c-0.479 0.916-0.95 1.835-1.413 2.757l0.669-1.32c-0.45 0.878-0.891 1.758-1.326 2.64l0.657-1.32c-0.45 0.895-0.893 1.794-1.328 2.694l0.67-1.374c-0.448 0.911-0.89 1.825-1.323 2.741l0.653-1.367c-0.44 0.913-0.873 1.828-1.299 2.745l0.646-1.378c-0.418 0.883-0.83 1.769-1.233 2.657l0.587-1.279c-0.431 0.93-0.855 1.864-1.27 2.8l0.683-1.52c-0.416 0.914-0.825 1.83-1.226 2.75l0.542-1.23c-0.4 0.9-0.792 1.801-1.178 2.705l0.636-1.475c-0.42 0.964-0.832 1.93-1.236 2.9l0.6-1.425c-0.394 0.925-0.78 1.852-1.16 2.781l0.56-1.357c-0.376 0.903-0.745 1.809-1.107 2.716l0.548-1.359a192.84 192.84 0 0 0-1.124 2.82l0.576-1.461c-0.376 0.942-0.744 1.886-1.105 2.833l0.529-1.373c-0.36 0.922-0.711 1.846-1.056 2.772l0.527-1.4c-0.363 0.953-0.718 1.908-1.065 2.866l0.538-1.466c-0.349 0.939-0.69 1.88-1.024 2.822l0.486-1.356c-0.334 0.92-0.66 1.843-0.98 2.767l0.494-1.411c-0.338 0.954-0.669 1.91-0.992 2.868l0.498-1.457c-0.324 0.937-0.641 1.876-0.95 2.817l0.452-1.36c-0.314 0.934-0.621 1.87-0.921 2.807l0.469-1.447c-0.323 0.983-0.638 1.967-0.944 2.953l0.475-1.506c-0.304 0.949-0.6 1.9-0.888 2.852l0.413-1.346c-0.284 0.914-0.562 1.83-0.832 2.746l0.419-1.4c-0.296 0.976-0.584 1.953-0.864 2.933l0.445-1.533c-0.28 0.954-0.554 1.909-0.82 2.866l0.375-1.333c-0.27 0.942-0.531 1.887-0.786 2.832l0.41-1.5a193.78 193.78 0 0 0-0.779 2.889l0.369-1.389c-0.261 0.97-0.515 1.94-0.76 2.913l0.391-1.524c-0.252 0.966-0.497 1.933-0.735 2.902l0.343-1.378c-0.242 0.957-0.476 1.915-0.703 2.874l0.36-1.496c-0.237 0.97-0.467 1.94-0.69 2.912l0.33-1.416c-0.23 0.972-0.452 1.945-0.667 2.919l0.337-1.503c-0.217 0.95-0.427 1.9-0.63 2.852l0.293-1.349c-0.215 0.976-0.423 1.954-0.623 2.932l0.33-1.583c-0.21 0.984-0.411 1.97-0.605 2.956l0.275-1.373c-0.195 0.954-0.382 1.909-0.563 2.865l0.288-1.492c-0.196 0.996-0.385 1.994-0.565 2.993l0.277-1.501c-0.183 0.971-0.36 1.944-0.528 2.918l0.25-1.417c-0.172 0.96-0.339 1.92-0.497 2.882l0.247-1.465c-0.17 0.987-0.333 1.975-0.489 2.964l0.242-1.499c-0.163 0.983-0.317 1.967-0.464 2.951l0.222-1.452c-0.151 0.964-0.295 1.93-0.432 2.895l0.21-1.443c-0.149 0.994-0.29 1.99-0.423 2.985l0.213-1.542c-0.14 0.983-0.272 1.966-0.396 2.95l0.183-1.408c-0.13 0.969-0.251 1.938-0.366 2.908l0.183-1.5c-0.123 0.978-0.239 1.955-0.347 2.934l0.164-1.434a194.92 194.92 0 0 0-0.33 2.99l0.166-1.556c-0.11 0.992-0.212 1.984-0.307 2.977l0.14-1.42c-0.098 0.955-0.189 1.911-0.273 2.867l0.133-1.447c-0.095 0.994-0.182 1.988-0.261 2.983l0.128-1.536a195.062 195.062 0 0 0-0.24 3.01l0.112-1.474a195.1 195.1 0 0 0-0.208 2.873l0.096-1.398c-0.073 1.005-0.138 2.01-0.195 3.016l0.099-1.618c-0.065 0.994-0.122 1.987-0.171 2.981l0.072-1.363a195.16 195.16 0 0 0-0.144 2.93l0.072-1.567c-0.049 0.976-0.09 1.953-0.124 2.93l0.052-1.363a195.2 195.2 0 0 0-0.1 2.955l0.048-1.592c-0.034 0.994-0.06 1.988-0.08 2.983l0.032-1.39c-0.026 0.993-0.045 1.988-0.056 2.982l0.024-1.592c-0.02 0.998-0.03 1.997-0.035 2.996l0.01-1.404c-0.01 0.98-0.014 1.962-0.01 2.943v-1.539c-0.004 0.969 0 1.937 0.01 2.906l-0.01-1.367c0.004 0.995 0.016 1.99 0.035 2.985l-0.025-1.618c0.011 1.005 0.03 2.01 0.057 3.016l-0.032-1.398c0.019 0.975 0.045 1.949 0.078 2.923l-0.046-1.525c0.026 0.99 0.06 1.98 0.1 2.969l-0.054-1.444c0.034 0.997 0.076 1.995 0.125 2.993l-0.07-1.55c0.04 0.965 0.087 1.929 0.142 2.892l-0.072-1.342c0.05 0.988 0.106 1.975 0.17 2.963l-0.098-1.62c0.057 1.011 0.122 2.022 0.195 3.033l-0.097-1.413c0.063 0.969 0.133 1.938 0.21 2.906l-0.113-1.493c0.071 0.991 0.15 1.982 0.237 2.972l-0.124-1.479c0.08 0.993 0.166 1.985 0.261 2.977l-0.137-1.498c0.085 0.967 0.177 1.934 0.276 2.9l-0.139-1.402c0.094 0.981 0.195 1.962 0.303 2.943l-0.164-1.541c0.104 1.013 0.216 2.025 0.335 3.037l-0.17-1.496c0.106 0.97 0.221 1.94 0.343 2.91l-0.173-1.414c0.115 0.97 0.237 1.938 0.367 2.906l-0.194-1.492c0.126 0.997 0.259 1.993 0.4 2.989l-0.206-1.497c0.13 0.97 0.267 1.94 0.412 2.91l-0.206-1.413c0.14 0.982 0.286 1.963 0.44 2.944l-0.234-1.53c0.146 0.982 0.3 1.964 0.462 2.945l-0.228-1.415c0.152 0.965 0.311 1.93 0.477 2.893l-0.249-1.478c0.163 0.99 0.334 1.979 0.513 2.967l-0.264-1.49c0.17 0.981 0.347 1.96 0.531 2.94l-0.267-1.45c0.178 0.989 0.365 1.977 0.56 2.963l-0.293-1.514c0.18 0.95 0.366 1.897 0.559 2.844l-0.267-1.33c0.195 0.992 0.399 1.983 0.61 2.972l-0.343-1.642c0.202 0.988 0.411 1.975 0.628 2.96l-0.286-1.318c0.201 0.942 0.41 1.884 0.624 2.824l-0.338-1.505c0.213 0.967 0.434 1.932 0.662 2.896l-0.324-1.391c0.22 0.961 0.447 1.921 0.682 2.88l-0.358-1.489c0.234 0.992 0.477 1.982 0.727 2.97l-0.369-1.48c0.228 0.931 0.464 1.862 0.706 2.792l-0.337-1.312c0.242 0.955 0.491 1.909 0.748 2.86l-0.411-1.548c0.259 0.992 0.525 1.982 0.8 2.971l-0.39-1.422c0.257 0.953 0.521 1.904 0.793 2.853l-0.403-1.431c0.263 0.948 0.534 1.895 0.812 2.84l-0.41-1.409c0.279 0.97 0.564 1.94 0.857 2.907l-0.447-1.498c0.274 0.933 0.556 1.864 0.844 2.794l-0.397-1.296c0.288 0.95 0.583 1.899 0.886 2.846l-0.489-1.55c0.31 0.997 0.628 1.993 0.955 2.986l-0.466-1.436c0.297 0.927 0.6 1.852 0.911 2.776l-0.445-1.34c0.315 0.96 0.638 1.919 0.97 2.875l-0.525-1.535c0.323 0.957 0.652 1.912 0.99 2.865l-0.466-1.33c0.32 0.923 0.646 1.844 0.98 2.764l-0.514-1.434c0.334 0.942 0.675 1.882 1.024 2.82l-0.51-1.386a193 193 0 0 0 1.069 2.871l-0.56-1.484c0.346 0.928 0.698 1.853 1.058 2.777l-0.498-1.293c0.365 0.958 0.737 1.913 1.118 2.866l-0.62-1.573c0.363 0.932 0.733 1.862 1.11 2.79l-0.49-1.217c0.365 0.914 0.738 1.826 1.118 2.736l-0.627-1.52c0.383 0.94 0.773 1.876 1.17 2.81l-0.543-1.29c0.388 0.931 0.785 1.86 1.189 2.786l-0.645-1.496c0.39 0.916 0.787 1.83 1.192 2.74l-0.547-1.244c0.39 0.894 0.786 1.785 1.19 2.674l-0.643-1.43c0.418 0.94 0.844 1.878 1.277 2.812l-0.634-1.382c0.405 0.891 0.817 1.78 1.236 2.667l-0.602-1.285c0.421 0.908 0.85 1.814 1.286 2.716l-0.684-1.431c0.437 0.925 0.882 1.848 1.335 2.767l-0.651-1.336c0.439 0.91 0.886 1.817 1.34 2.721l-0.689-1.385c0.43 0.872 0.866 1.742 1.31 2.609l-0.62-1.224c0.458 0.913 0.924 1.823 1.398 2.73l-0.779-1.506c0.471 0.92 0.95 1.838 1.436 2.752l-0.657-1.246c0.461 0.882 0.93 1.762 1.405 2.639l-0.748-1.393c0.488 0.916 0.983 1.83 1.486 2.74l-0.738-1.347c0.486 0.896 0.98 1.789 1.482 2.679l-0.744-1.332c0.463 0.836 0.931 1.669 1.406 2.5l-0.662-1.168c0.507 0.9 1.022 1.797 1.544 2.691l-0.882-1.524c0.519 0.906 1.045 1.808 1.58 2.707l-0.698-1.183c0.5 0.854 1.006 1.705 1.52 2.552l-0.822-1.369c0.544 0.916 1.096 1.828 1.657 2.737l-0.836-1.368c0.537 0.887 1.082 1.77 1.635 2.651l-0.799-1.283c0.52 0.842 1.047 1.682 1.58 2.518l-0.781-1.235c0.539 0.858 1.084 1.712 1.638 2.563l-0.856-1.328c0.603 0.944 1.215 1.885 1.836 2.82l-0.98-1.492c0.552 0.85 1.112 1.697 1.68 2.54l-0.7-1.047c0.578 0.871 1.164 1.739 1.757 2.603l-1.057-1.556c0.576 0.857 1.16 1.71 1.752 2.56l-0.695-1.004c0.572 0.832 1.152 1.661 1.738 2.487l-1.043-1.483c0.59 0.847 1.188 1.69 1.793 2.53l-0.75-1.047c0.576 0.81 1.158 1.617 1.748 2.42l-0.998-1.372c0.607 0.842 1.222 1.681 1.844 2.516l-0.846-1.144c0.587 0.8 1.18 1.596 1.782 2.389l-0.936-1.245c0.62 0.832 1.247 1.66 1.882 2.484l-0.946-1.24c0.603 0.797 1.213 1.59 1.83 2.378l-0.884-1.138c0.636 0.825 1.28 1.646 1.93 2.463l-1.046-1.325c0.633 0.809 1.273 1.614 1.921 2.415l-0.875-1.09a194.63 194.63 0 0 0 1.966 2.427l-1.09-1.337c0.904 1.12 1.823 2.23 2.756 3.334l-1.666-1.997c0.65 0.79 1.307 1.576 1.972 2.357l-0.306-0.36c0.564 0.667 1.134 1.332 1.709 1.993l-1.403-1.633c0.69 0.814 1.39 1.623 2.097 2.428l-0.694-0.795c0.573 0.66 1.151 1.316 1.735 1.97l-1.04-1.175c0.692 0.789 1.393 1.573 2.101 2.354l-1.061-1.18c0.76 0.853 1.53 1.7 2.309 2.541l-1.248-1.361c0.708 0.78 1.424 1.555 2.146 2.327l2.193 2.301 2.25 2.287c75.004 75.004 196.144 75.754 272.07 2.25l2.287-2.25 156.978-156.978z m-87.005 14.14c7.729 7.729 7.81 20.21 0.241 28.038l-0.241 0.246-88.392 88.391c-53.83 53.83-137.411 62.786-201.086 22.874-9.36-5.866-12.19-18.209-6.324-27.568 5.804-9.26 17.95-12.13 27.271-6.506l0.297 0.182c47.48 29.76 109.724 23.44 150.334-16.06l1.224-1.206 88.391-88.391c7.81-7.811 20.474-7.811 28.285 0z m265.196-466.688c-75.004-75.004-196.144-75.754-272.07-2.25l-2.287 2.25-149.907 149.907L666.856 632.5l149.907-149.907c75.762-75.761 75.762-198.595 0-274.357z"  /></svg>