<?xml version="1.0" standalone="no"?><!DOCTYPE svg PUBLIC "-//W3C//DTD SVG 1.1//EN" "http://www.w3.org/Graphics/SVG/1.1/DTD/svg11.dtd"><svg class="icon" width="200px" height="200.00px" viewBox="0 0 1024 1024" version="1.1" xmlns="http://www.w3.org/2000/svg"><path fill="#333333" d="M900 160c33.137 0 60 26.863 60 60v584c0 33.137-26.863 60-60 60H124c-33.137 0-60-26.863-60-60V220c0-33.137 26.863-60 60-60h776z m0.344 40H124c-10.93 0-19.813 8.769-20 19.656V804c0 10.93 8.769 19.813 19.656 20H900c10.93 0 19.813-8.769 20-19.656V220c0-10.93-8.769-19.813-19.656-20z m-538.89 364c98.816 0 179.825 53.73 187.42 122h-0.427c-0.264 8.882-7.547 16-16.492 16h-341c-8.752 0-15.913-6.814-16.466-15.427l-0.018-0.324-0.237 0.063-0.234 0.072c7.254-67.767 86.84-121.304 184.49-122.368l2.965-0.016z m0 40c-62.476 0-114.378 25.048-136.5 57.648l-0.236 0.352h273.474l-0.343-0.514c-21.906-32.108-72.712-56.845-134.001-57.474l-2.393-0.012zM827 600c11.046 0 20 8.954 20 20s-8.954 20-20 20H639c-11.046 0-20-8.954-20-20s8.954-20 20-20h188z m-88-100c11.046 0 20 8.954 20 20s-8.954 20-20 20H639c-11.046 0-20-8.954-20-20s8.954-20 20-20h100zM361 337c55.228 0 100 44.772 100 100 0 54.676-43.88 99.104-98.346 99.987L361 537c-55.228 0-100-44.772-100-100 0-54.676 43.88-99.104 98.346-99.987L361 337z m0 40c-33.137 0-60 26.863-60 60s26.863 60 60 60 60-26.863 60-60-26.863-60-60-60z m466 23c11.046 0 20 8.954 20 20s-8.954 20-20 20H639c-11.046 0-20-8.954-20-20s8.954-20 20-20h188z"  /></svg>