<?xml version="1.0" standalone="no"?><!DOCTYPE svg PUBLIC "-//W3C//DTD SVG 1.1//EN" "http://www.w3.org/Graphics/SVG/1.1/DTD/svg11.dtd"><svg class="icon" width="200px" height="200.00px" viewBox="0 0 1024 1024" version="1.1" xmlns="http://www.w3.org/2000/svg"><path fill="#333333" d="M158.1 651.415c115.411-18.93 197.564 4.92 243.068 73.53l0.88 1.33 1.02 2.247 0.715 1.595 0.71 1.605 0.706 1.62 0.704 1.64 0.705 1.661 0.708 1.69 1.07 2.596 0.36 0.883 0.728 1.8 0.737 1.844 1.131 2.86 1.166 2.987 6.919 17.971 1.016 2.599 0.89 2.224 0.486 1.195 0.719 1.737 0.705 1.674 0.463 1.081 0.686 1.57 0.45 1.014 0.445 0.986 0.441 0.96 0.436 0.933 0.645 1.352 0.425 0.869 0.42 0.844 0.417 0.818 0.413 0.795 0.408 0.77 0.405 0.745 0.402 0.722 0.398 0.698 0.394 0.675 0.392 0.652 0.195 0.318 0.387 0.618 0.384 0.595 0.381 0.574 0.38 0.552 0.188 0.268 0.376 0.52 0.373 0.498 0.37 0.478 0.186 0.232 0.368 0.447c0.123 0.146 0.245 0.288 0.367 0.428l0.365 0.407 0.181 0.197 0.363 0.378c0.423 0.43 0.843 0.822 1.26 1.176l0.359 0.295 0.357 0.277 0.179 0.132 0.357 0.25c0.178 0.122 0.356 0.237 0.534 0.345l0.832 0.51c15.505 9.572 29.672 21.983 40.162 37.422 10.53 15.497 16.368 32.777 16.498 51.399l-0.004 0.015a380.581 380.581 0 0 1-40.141-2.963l0.005-0.017c-0.66-9.086-3.79-17.475-9.102-25.446l-0.341-0.508c-7.056-10.384-17.376-19.344-28.714-26.248l-0.598-0.37c-8.337-5.231-15.045-12.701-20.92-22.39a112.107 112.107 0 0 1-1.62-2.76l-0.635-1.135c-0.106-0.19-0.21-0.382-0.316-0.574l-0.629-1.165c-0.313-0.588-0.624-1.184-0.935-1.79l-0.621-1.224-0.62-1.25-0.309-0.635-0.618-1.292a179.05 179.05 0 0 1-0.62-1.323l-0.622-1.355c-0.208-0.457-0.416-0.92-0.625-1.388l-0.628-1.424-0.316-0.726-0.636-1.48-0.643-1.518-0.65-1.56-0.657-1.602-0.667-1.647-0.845-2.115-1.965-5.044-5.068-13.171-2.39-6.162-1-2.52-0.973-2.418-0.636-1.56-0.628-1.524-0.621-1.49-0.617-1.461-0.613-1.435-0.612-1.413-0.612-1.394-0.558-1.254-0.266-0.395c-35.08-51.23-99.602-70.283-196.646-55.363l1.721-0.254a313.673 313.673 0 0 1-15.052-38.106z m604.278-432.232l-0.754-0.382-2.499-1.256-3.314 4.38-4.325 5.731-3.188 4.236-5.205 6.942-5.072 6.794-3.961 5.33-3.876 5.235-4.724 6.41-4.591 6.264-2.69 3.687-2.642 3.634-2.594 3.58-3.383 4.692-3.298 4.597-2.417 3.385-2.37 3.332-1.552 2.192-3.04 4.313-2.224 3.172-2.176 3.119-2.128 3.065-2.08 3.013-2.03 2.958-1.983 2.906-2.57 3.79-1.251 1.86-1.838 2.746-1.199 1.8-1.757 2.657-1.788 2.723-1.772 2.721-1.15 1.78-1.676 2.614-1.086 1.708-1.582 2.508-1.523 2.443-0.985 1.593-0.958 1.563-0.933 1.536-0.907 1.506-0.882 1.477-0.857 1.448-0.83 1.42-0.805 1.39-1.16 2.03-0.56 0.993 4.229-0.234 25.825-1.54 4.06-0.227 4.57-0.243 4.34-0.215 4.21-0.191 3.663-0.151 3.342-0.124 2.187-0.074 2.153-0.065 2.121-0.058 2.09-0.05 2.057-0.043 2.026-0.034 1.996-0.026 1.965-0.018 1.936-0.01h1.907l1.877 0.007 0.928 0.007 1.836 0.02 1.807 0.029 1.78 0.037 1.754 0.047 1.727 0.055 1.701 0.064 1.676 0.074 1.65 0.083c0.274 0.014 0.546 0.03 0.817 0.045l1.614 0.097 0.798 0.052 1.579 0.11c0.784 0.059 1.558 0.12 2.325 0.185l0.787 0.069 1.555 0.144 1.53 0.154 1.505 0.164c0.248 0.028 0.496 0.056 0.743 0.086l1.468 0.18c1.213 0.154 2.4 0.32 3.562 0.499l1.383 0.22c12.794 2.112 22.452 5.827 29.531 12.403 14.897 13.838 24.31 31.962 25.717 51.69 1.557 21.805-6.712 43.707-24.41 63.526l-3.187 3.568-4.455 1.74-0.652 0.25-0.66 0.242-0.67 0.236-0.68 0.23-0.69 0.224-0.705 0.218-0.717 0.212-0.73 0.207-0.747 0.202-0.38 0.1-0.77 0.195-0.79 0.19-0.806 0.187-0.827 0.183-0.847 0.18-0.431 0.087-1.328 0.26-1.38 0.255-1.435 0.248-0.99 0.163-1.535 0.241-1.059 0.16-1.088 0.157-1.119 0.157-1.15 0.156-1.785 0.234-1.862 0.234-2.605 0.314-2.754 0.317-2.909 0.322-20.192 2.154-7.108 0.791-2.445 0.29-2.502 0.306-1.232 0.154-2.429 0.313-2.382 0.317-2.34 0.322-2.298 0.328-2.26 0.334-2.226 0.342-2.192 0.349-2.163 0.357c-1.79 0.3-3.552 0.61-5.292 0.932l-2.078 0.39c-2.019 0.386-4 0.786-5.942 1.2l-1.93 0.419c-29.4 6.498-49.868 16.382-60.97 30.503-14.305 18.194-14.678 46.286 4.549 89.308l-0.27-0.606 0.084 0.146c0.036 0.064 0.073 0.128 0.112 0.193l0.117 0.197 0.252 0.406 0.134 0.21 0.286 0.43 0.309 0.447 0.331 0.464 0.356 0.481 0.186 0.247 0.391 0.507 0.415 0.525 0.439 0.542 0.463 0.56 0.488 0.578 0.513 0.597 0.537 0.615 0.854 0.958 0.911 1 0.64 0.692 0.665 0.71 1.048 1.103 1.108 1.148 1.168 1.194 1.229 1.24 1.29 1.286 1.355 1.335 11.587 11.116 9.269 8.957 4.501 4.389 3.188 3.14 1.216 1.21 1.068 1.075 1.124 1.143c28.987 29.614 47.008 56.079 54.365 86.553 4.078 16.888 4.353 33.912 0.643 51.021l0.003 0.03c-20.013 13.742-40.336 25.431-60.81 35.188l-0.001-0.022c21.24-27.735 27.118-52.662 21.283-76.83-3.743-15.5-12.052-30.624-25.228-46.968l-1.14-1.404-1.166-1.41c-0.196-0.236-0.393-0.472-0.592-0.708l-1.2-1.42a271.129 271.129 0 0 0-4.394-5.024l-1.309-1.452a328.632 328.632 0 0 0-4.773-5.145l-1.419-1.488-1.443-1.498-1.467-1.506-0.743-0.757-0.685-0.693-1.919-1.911-3.74-3.674-2.71-2.64-6.203-6.004-14.835-14.25-2.249-2.206-1.695-1.692-1.09-1.101-1.06-1.08-1.027-1.059-0.997-1.04a220.59 220.59 0 0 1-0.488-0.513l-0.952-1.012-0.924-0.996c-0.151-0.165-0.302-0.328-0.45-0.492l-0.882-0.972-0.853-0.957a137.2 137.2 0 0 1-0.826-0.943l-0.8-0.93-0.39-0.462-0.76-0.913-0.37-0.452-0.723-0.898c-0.237-0.297-0.47-0.593-0.699-0.888l-0.674-0.88c-2.43-3.214-4.391-6.28-6.003-9.402l-0.259-0.5-0.23-0.515c-24.752-55.385-24.172-98.936 0.525-130.35 19.426-24.708 50.527-38.612 92.777-46.689a403.755 403.755 0 0 1 17.255-2.895l2.588-0.373c0.434-0.061 0.87-0.123 1.309-0.183l2.65-0.362 2.696-0.354 1.366-0.175 2.77-0.346 2.824-0.34 3.811-0.444 3.97-0.445 2.823-0.307 17.871-1.889 3.538-0.394 2.924-0.343 1.643-0.202 2.557-0.329 1.428-0.193 1.349-0.191 1.272-0.189 1.196-0.186 1.121-0.183 1.381-0.242 0.952-0.179 0.771-0.154 0.383-0.494c7.797-10.177 11.002-19.866 10.486-28.886l-0.03-0.458c-0.627-8.79-4.924-17.346-12.19-24.422l-0.531-0.51-0.128-0.065-0.368-0.175c-0.797-0.357-1.911-0.746-3.315-1.13a54.221 54.221 0 0 0-4.59-1.015l-1.043-0.181c-0.178-0.03-0.357-0.06-0.538-0.088l-1.105-0.17a99.194 99.194 0 0 0-1.145-0.161l-1.186-0.154-0.608-0.073-1.245-0.141-1.283-0.133c-0.217-0.022-0.436-0.043-0.656-0.063l-1.342-0.12-1.292-0.105-1.318-0.097-1.345-0.09-1.372-0.08-1.4-0.074-1.426-0.066-1.453-0.058c-0.245-0.01-0.49-0.018-0.738-0.026l-1.496-0.047-1.523-0.04-1.553-0.031-1.58-0.025-2.427-0.022-1.654-0.006-2.536 0.004-1.728 0.012-2.65 0.03-1.804 0.03-1.835 0.036-1.866 0.044-1.897 0.05-2.905 0.087-1.977 0.067-3.025 0.113-3.399 0.14-4.066 0.185-4.206 0.209-5.217 0.279-6.565 0.375-22.387 1.34-3.691 0.206-4.037 0.211-2.483 0.12-2.907 0.125-1.653 0.064-3.074 0.102-1.916 0.05-1.23 0.026-1.777 0.027-1.141 0.01-1.108 0.002-1.074-0.005-1.043-0.012-1.012-0.02-0.982-0.029-0.955-0.037-0.927-0.045-0.9-0.054-0.876-0.063-0.851-0.073-0.829-0.082-0.806-0.092-0.786-0.102a46.41 46.41 0 0 1-0.385-0.055l-0.757-0.118-0.371-0.062-0.73-0.134c-0.24-0.047-0.478-0.095-0.713-0.145l-0.698-0.157c-0.23-0.054-0.457-0.11-0.683-0.168l-0.67-0.18-0.658-0.192-14.186-4.31V384.5c0-7.847 3.268-17.798 9.997-30.955l0.762-1.475c0.647-1.24 1.323-2.508 2.03-3.805l0.862-1.57 0.89-1.598c0.302-0.537 0.609-1.08 0.92-1.626l0.949-1.655 0.978-1.684 1.006-1.713 1.036-1.742 0.528-0.883 1.08-1.787 1.108-1.818 1.138-1.85 1.167-1.879 1.196-1.911 1.226-1.943 1.256-1.975 1.285-2.008 1.983-3.073 1.359-2.09 1.389-2.123 1.349-2.052 1.968-2.973 2.024-3.035 1.381-2.058 2.119-3.138 1.444-2.126 1.469-2.155 2.25-3.282 2.308-3.345 2.364-3.407 3.24-4.64 2.496-3.551 1.695-2.403 2.59-3.655 2.648-3.718 2.704-3.78 2.76-3.841 1.872-2.596 3.819-5.274 2.93-4.029 3.996-5.468 3.063-4.174 4.172-5.662 3.195-4.32 4.348-5.855 4.45-5.967 2.263-3.025 3.44-4.59 4.677-6.216 4.778-6.327 2.048-2.701c13.201 8.206 25.14 16.706 35.574 25.209z m-389.822-66.097c9.322 5.893 20.305 8.815 33.358 8.912l1.682 0.006c24.618 0.175 50.73 6.735 72.533 18.619 25.461 13.877 43.984 34.247 51.538 59.588l0.809 2.715 0.023 2.832c0.245 29.475-12.05 54.338-33.162 71.74-17.801 14.673-40.964 23.002-61.99 23.002l-0.255 0.004c-3.95 0.108-9.263 2.697-14.663 7.256l-0.704 0.606a56.91 56.91 0 0 0-2.816 2.64l-0.7 0.715c-3.494 3.62-6.882 8.021-9.809 13.06-10.667 18.364-13.161 40.524-5.126 62.41l0.38 1.053c12.404 34.9 10.265 85.364-5.02 119.36-9.379 20.857-23.454 35.343-42.204 39.476-20.668 4.555-41.952-4.606-62.706-25.478l-0.884-0.907c-6.641-6.853-12.952-14.187-19.855-22.91l-1.604-2.037c-0.539-0.688-1.081-1.385-1.628-2.09l-0.728-0.945-2.738-3.592-9.93-13.138-5.646-7.457-1.227-1.592-1.32-1.689a343.66 343.66 0 0 0-0.653-0.828l-1.292-1.623-1.276-1.58-1.259-1.538-1.243-1.495C224.313 476.56 211.008 468.5 192.5 468.5c-24.887 0-43.327 6.317-56.535 18.926l0.001-21.608a689.172 689.172 0 0 1 7.352-29.14c14.21-5.325 30.233-8.05 47.914-8.174l1.268-0.004c20.05 0 37.555 6.052 53.415 17.586 5.017 3.65 9.722 7.679 14.44 12.347l1.133 1.133c3.779 3.818 7.584 8.058 11.582 12.852l1.206 1.455 1.218 1.49 1.232 1.524 1.247 1.56 0.629 0.793 1.27 1.615 0.642 0.822 1.296 1.671 0.64 0.833 17.02 22.496 1.555 2.033 1.758 2.26 1.39 1.769 0.688 0.866 1.357 1.7a339.34 339.34 0 0 0 3.315 4.06l1.299 1.555c3.878 4.61 7.588 8.727 11.373 12.596l-0.07-0.072 0.456 0.457c6.352 6.308 12.04 10.438 16.874 12.603l0.38 0.167c3.464 1.49 5.975 1.787 7.975 1.346 3.35-0.738 7.232-4.1 10.973-10.328l0.487-0.828a63.824 63.824 0 0 0 2.871-5.66c11.178-24.859 12.775-65.166 3.575-90.223l-0.364-1.003c-11.827-33.104-7.857-67.212 8.45-95.285 15.202-26.17 39.801-44.19 63.535-44.19l0.59-0.004c11.616-0.167 25.493-5.238 35.959-13.864 11.304-9.318 17.9-21.819 18.553-37.422l0.008-0.219-0.23-0.616c-4.861-12.776-15.44-23.871-30.606-32.281l-0.635-0.35c-16.149-8.8-36.09-13.744-54.401-13.744l-1.022-0.004c-28.938-0.23-53.374-10.231-72.16-29.596 12.164-6.894 24.835-13.17 38.01-18.83z"  /><path fill="#333333" d="M512 112c220.914 0 400 179.086 400 400S732.914 912 512 912 112 732.914 112 512s179.086-400 400-400z m0 40c-198.823 0-360 161.177-360 360s161.177 360 360 360 360-161.177 360-360-161.177-360-360-360z"  /><path fill="#333333" d="M532 328v164h164v40H532v164h-40V532H328v-40h164V328h40z"  /></svg>