<?xml version="1.0" standalone="no"?><!DOCTYPE svg PUBLIC "-//W3C//DTD SVG 1.1//EN" "http://www.w3.org/Graphics/SVG/1.1/DTD/svg11.dtd"><svg class="icon" width="200px" height="200.00px" viewBox="0 0 1024 1024" version="1.1" xmlns="http://www.w3.org/2000/svg"><path fill="#333333" d="M512 375c129.603 0 246.937 84 352 252-105.063 168-222.397 252-352 252-129.602 0-246.936-84-352-252 105.064-168 222.398-252 352-252z m0 40c-108.07 0-209.042 68.42-303.264 210.21l-1.182 1.79 1.182 1.79c93.23 140.298 193.07 208.761 299.854 210.187L512 839c108.07 0 209.044-68.42 303.265-210.21l1.182-1.79-1.182-1.79c-93.23-140.298-193.07-208.761-299.854-210.187l-3.41-0.023z m0 77c74.559 0 135 60.442 135 135 0 74.558-60.441 135-135 135-74.558 0-135-60.442-135-135 0-74.558 60.442-135 135-135z m0 40c-52.466 0-95 42.533-95 95s42.534 95 95 95c52.468 0 95-42.533 95-95s-42.532-95-95-95z m0-386c11.046 0 20 8.954 20 20v89.504c49.098 2.366 96.899 13.064 143.377 32.034L724 203.321c5.522-9.566 17.754-12.844 27.32-7.321 9.566 5.523 12.843 17.755 7.32 27.32l-46.744 80.964c69.927 35.64 136.75 90.543 200.375 164.495 7.204 8.373 6.256 21-2.117 28.205-8.374 7.204-21.001 6.256-28.205-2.117C766.874 361.113 643.457 295 511.02 295c-119.452 0-231.47 53.746-336.742 162.377l-1.27 1.318-1.287 1.348-1.304 1.38-1.32 1.411-1.338 1.443-1.355 1.473-1.37 1.505-1.389 1.536-1.405 1.567-1.421 1.598-1.438 1.629-0.726 0.826-1.463 1.676-1.48 1.707-1.497 1.737-1.513 1.77-1.53 1.8-2.325 2.757-1.572 1.878-1.588 1.908-1.604 1.94-1.62 1.97c-7.006 8.54-19.608 9.784-28.148 2.778s-9.784-19.608-2.778-28.148l1.71-2.079 1.695-2.048 1.678-2.017 1.663-1.987 1.648-1.955 1.631-1.926 1.616-1.894 1.6-1.864 1.585-1.832 1.57-1.803 1.553-1.771 1.538-1.741 1.522-1.71 0.756-0.844 1.499-1.664c0.248-0.275 0.496-0.549 0.744-0.821l1.476-1.619 1.46-1.587 1.445-1.558 1.43-1.526 1.414-1.497 1.4-1.465 1.383-1.435c53.381-55.085 108.94-97.217 166.605-126.274L266 223.32c-5.523-9.566-2.246-21.798 7.32-27.321 9.566-5.523 21.798-2.245 27.32 7.32l48.134 83.368C395.215 268 442.968 257.555 492 255.414V166c0-11.046 8.955-20 20-20z"  /></svg>