<?xml version="1.0" standalone="no"?><!DOCTYPE svg PUBLIC "-//W3C//DTD SVG 1.1//EN" "http://www.w3.org/Graphics/SVG/1.1/DTD/svg11.dtd"><svg class="icon" width="200px" height="200.00px" viewBox="0 0 1024 1024" version="1.1" xmlns="http://www.w3.org/2000/svg"><path fill="#333333" d="M841.802 236.565c92.078 92.079 95.18 239.44 9.304 335.243-0.34 0.475-0.722 0.933-1.15 1.36l-1.05 1.062a248.24 248.24 0 0 1-7.104 7.403L519.36 904.074a9.96 9.96 0 0 1-6.297 2.9l-0.328 0.019a9.975 9.975 0 0 1-7.848-2.898l-322.44-322.44c-2.602-2.602-5.131-5.247-7.59-7.933l-0.565-0.574a10.079 10.079 0 0 1-0.99-1.15c-86.04-95.795-82.99-243.278 9.144-335.412 90.31-90.31 233.801-95.028 329.668-14.153 95.86-80.897 239.368-76.186 329.687 14.132z m-301.461 14.42l-2.429 2.018-25.793 21.766-25.797-21.762c-80.584-67.983-200.528-63.2-275.59 11.863-75.97 75.97-79.78 197.574-9.813 277.975l2.143 2.424 1.076 1.198 0.227 0.25a207.94 207.94 0 0 0 5.067 5.342l1.3 1.31 301.382 301.383 301.403-301.403a208.454 208.454 0 0 0 4.79-4.951l1.17-1.26 0.49-0.533 0.133-0.135 1.22-1.361c71.329-79.574 68.938-201.115-5.524-277.945l-2.279-2.315c-74.318-74.318-192.633-79.743-273.176-13.865zM524 406a8 8 0 0 1 8 8v68h68a8 8 0 0 1 8 8v24a8 8 0 0 1-8 8h-68v68a8 8 0 0 1-8 8h-24a8 8 0 0 1-8-8v-68h-68a8 8 0 0 1-8-8v-24a8 8 0 0 1 8-8h68v-68a8 8 0 0 1 8-8h24z m251.484-103.23c30.8 30.8 41.81 71.64 33.936 115.24-6.97 38.6-28.554 77.409-59.278 108.132-7.81 7.81-20.474 7.81-28.284 0-7.81-7.81-7.81-20.474 0-28.284 25.188-25.189 42.745-56.756 48.199-86.957 5.585-30.926-1.633-58.22-22.23-79.213l-0.628-0.635c-7.81-7.81-7.81-20.473 0-28.284 7.81-7.81 20.474-7.81 28.285 0z"  /></svg>