<?xml version="1.0" standalone="no"?><!DOCTYPE svg PUBLIC "-//W3C//DTD SVG 1.1//EN" "http://www.w3.org/Graphics/SVG/1.1/DTD/svg11.dtd"><svg class="icon" width="200px" height="200.00px" viewBox="0 0 1024 1024" version="1.1" xmlns="http://www.w3.org/2000/svg"><path fill="#333333" d="M521.91 145.263L951.3 365.726c7.663 3.934 11.698 12.137 10.7 20.22V694c0 11.046-8.954 20-20 20s-20-8.954-20-20l-0.001-277.63-125 64.319 0.001 239.19a20.006 20.006 0 0 1-10.685 17.704L512 882 237.685 737.583A20.006 20.006 0 0 1 227 719.879l-0.001-239.279-153.133-78.623c-9.821-5.042-13.683-17.099-8.626-26.928a20.047 20.047 0 0 1 8.653-8.653l429.728-221.119a20.003 20.003 0 0 1 18.289-0.014zM267 501.138v206.74L512 837l245-129.123V501.271l-21.774 11.204L512 630.124 277.21 506.38 267 501.138z m245.871-315.501L126.791 384.08l126.084 64.805a20.06 20.06 0 0 1 3.44 1.421l27.94 14.71 228.616 117.508 155.035-79.688 99.78-52.53a19.96 19.96 0 0 1 6.53-2.113l124.735-64.113-386.08-198.443z"  /></svg>