<?xml version="1.0" standalone="no"?><!DOCTYPE svg PUBLIC "-//W3C//DTD SVG 1.1//EN" "http://www.w3.org/Graphics/SVG/1.1/DTD/svg11.dtd"><svg class="icon" width="200px" height="200.00px" viewBox="0 0 1024 1024" version="1.1" xmlns="http://www.w3.org/2000/svg"><path fill="#333333" d="M862 608.721c10.93 0 19.813 8.769 20 19.656V802c0 43.741-35.104 79.283-78.677 79.99L802 882H606.004c-11.045 0-20-8.954-20-20 0-10.93 8.77-19.813 19.656-19.997l0.344-0.003H802c21.87 0 39.641-17.552 39.995-39.339L842 802V628.721c0-11.045 8.954-20 20-20z m-700-1.255c10.93 0 19.813 8.769 19.997 19.656l0.003 0.344V802c0 21.87 17.552 39.641 39.339 39.995L222 842h174.412c11.046 0 20 8.954 20 20 0 10.93-8.769 19.813-19.656 19.997l-0.344 0.003H222c-43.741 0-79.283-35.104-79.99-78.677L142 802V627.466c0-11.045 8.954-20 20-20zM892 492c11.046 0 20 8.954 20 20s-8.954 20-20 20H132c-11.046 0-20-8.954-20-20s8.954-20 20-20h760z m-90-350c43.741 0 79.283 35.104 79.99 78.677L882 222v178.472c0 11.045-8.954 20-20 20-10.93 0-19.813-8.769-19.997-19.656l-0.003-0.344V222c0-21.87-17.552-39.641-39.339-39.995L802 182H594.25c-11.046 0-20-8.954-20-20 0-10.93 8.769-19.813 19.656-19.997l0.344-0.003H802z m-407.127 0c11.046 0 20 8.954 20 20 0 10.93-8.768 19.813-19.655 19.997l-0.345 0.003H222c-21.87 0-39.641 17.552-39.995 39.339L182 222v178.136c0 11.046-8.954 20-20 20-10.93 0-19.813-8.768-19.997-19.655l-0.003-0.345V222c0-43.741 35.104-79.283 78.677-79.99L222 142h172.873z"  /></svg>