<?xml version="1.0" standalone="no"?><!DOCTYPE svg PUBLIC "-//W3C//DTD SVG 1.1//EN" "http://www.w3.org/Graphics/SVG/1.1/DTD/svg11.dtd"><svg class="icon" width="200px" height="200.00px" viewBox="0 0 1024 1024" version="1.1" xmlns="http://www.w3.org/2000/svg"><path fill="#333333" d="M628 112c33.137 0 60 26.863 60 60v730a10 10 0 0 1-5.617 8.991 8 8 0 0 0 7.613-7.742L690 903v-31h182V352H690v-40h192c16.569 0 30 13.431 30 30v560c0 5.523-4.477 10-10 10H122c-5.523 0-10-4.477-10-10V172c0-33.137 26.863-60 60-60h456z m0.344 40H172c-10.93 0-19.813 8.769-20 19.656V872h496V172c0-10.93-8.769-19.813-19.656-20zM456.797 661l2.92 8.651 1.515 4.508 1.544 4.62 1.568 4.725 1.586 4.825 1.065 3.27 1.07 3.309 1.072 3.347 0.536 1.687 1.073 3.4 1.072 3.433 1.069 3.464c12.27 40.012 23.653 85.848 23.303 124.669l-0.023 1.7-4.054-0.065-8.582-0.075-12.416-0.055-23.644-0.037-23.123 0.004-69.852 0.119-40.744 0.109c-44.687-50.634-35.938-88.67 26.248-114.107l0.987-2.323 1.033-2.478 0.642-1.562 1.334-3.289 1.4-3.512 1.716-4.379 1.807-4.682 1.346-3.53 1.392-3.684 2.026-5.419 2.116-5.721 1.567-4.272 2.936-8.08 2.04-5.665 1.041-2.905c12.534 9.723 26.586 14.584 42.155 14.584l0.936-0.005c15.004-0.187 31.407-4.854 49.208-14.001l1.115-0.578z m-25.048 51.68l-0.659 0.143c-15.035 3.165-29.647 3.656-43.628 1.357l-0.972-0.166-1.488 3.87-1.367 3.511-1.319 3.348-0.958 2.403-1.236 3.062-0.896 2.19-0.87 2.1-0.565 1.348-0.826 1.947-6.666 15.531-15.155 6.2-0.722 0.297-1.417 0.595-1.384 0.596c-1.14 0.498-2.243 0.996-3.311 1.495l-1.265 0.599-0.62 0.3-1.214 0.599-0.595 0.3-1.163 0.599a96.245 96.245 0 0 0-4.316 2.392l-0.995 0.596c-3.259 1.984-5.955 3.948-8.09 5.858-1.777 1.59-2.966 2.967-3.681 4.095l-0.199 0.328c-0.233 0.403-0.34 0.679-0.392 0.9-0.066 0.288-0.088 0.706-0.006 1.437 0.154 1.377 0.633 3.19 1.553 5.46 1.232 3.04 3.076 6.458 5.553 10.211l0.248 0.372 62.328-0.138 35.911-0.04 21.52 0.004-0.126-0.781a394.936 394.936 0 0 0-3.568-18.825l-0.263-1.226a495.833 495.833 0 0 0-1.782-7.91l-0.632-2.674c-0.32-1.342-0.649-2.69-0.984-4.048l-0.68-2.724-0.349-1.37-0.71-2.758-0.362-1.388-0.74-2.792a659.6 659.6 0 0 0-0.377-1.406l-0.77-2.83c-0.26-0.947-0.522-1.899-0.789-2.855l-0.81-2.882-0.83-2.91-0.85-2.938-0.87-2.967-0.444-1.495-0.902-3.012-0.922-3.044a984.96 984.96 0 0 0-0.469-1.534l-0.953-3.092-0.975-3.126-0.981-3.112zM407 525c37.555 0 68 30.445 68 68 0 37.18-29.839 67.39-66.875 67.99L407 661c-37.555 0-68-30.445-68-68 0-37.18 29.839-67.39 66.875-67.99L407 525z m0 40c-15.464 0-28 12.536-28 28s12.536 28 28 28 28-12.536 28-28-12.536-28-28-28z m3-331c5.523 0 10 4.477 10 10v70h70c5.523 0 10 4.477 10 10v20c0 5.523-4.477 10-10 10h-70v70c0 5.523-4.477 10-10 10h-20c-5.523 0-10-4.477-10-10v-70h-70c-5.523 0-10-4.477-10-10v-20c0-5.523 4.477-10 10-10h70v-70c0-5.523 4.477-10 10-10h20z"  /></svg>