<?xml version="1.0" standalone="no"?><!DOCTYPE svg PUBLIC "-//W3C//DTD SVG 1.1//EN" "http://www.w3.org/Graphics/SVG/1.1/DTD/svg11.dtd"><svg class="icon" width="200px" height="200.00px" viewBox="0 0 1024 1024" version="1.1" xmlns="http://www.w3.org/2000/svg"><path fill="#333333" d="M852 112c33.137 0 60 26.863 60 60v680c0 33.137-26.863 60-60 60H224c-33.137 0-60-26.863-60-60V705h96c16.403 0 29.731-13.164 29.996-29.504L290 675v-60c0-16.403-13.164-29.731-29.504-29.996L260 585h-96V440h96c16.403 0 29.731-13.164 29.996-29.504L290 410v-60c0-16.403-13.164-29.731-29.504-29.996L260 320h-96V172c0-33.137 26.863-60 60-60h628z m0.344 40H224c-10.93 0-19.813 8.769-20 19.656V280l56.324 0.001 0.658 0.006 0.163 0.002c37.804 0.613 68.24 31.14 68.846 68.846L330 350v60.162l-0.01 0.983c-0.612 37.804-31.14 68.24-68.845 68.846L260 480h-56v65l56.324 0.001 0.658 0.006 0.163 0.002c37.804 0.613 68.24 31.14 68.846 68.846L330 615v60.162l-0.01 0.983c-0.612 37.804-31.14 68.24-68.845 68.846L260 745h-56v107c0 10.93 8.769 19.813 19.656 20H852c10.93 0 19.813-8.769 20-19.656V172c0-10.93-8.769-19.813-19.656-20zM694 698c11.046 0 20 8.954 20 20s-8.954 20-20 20H422c-11.046 0-20-8.954-20-20s8.954-20 20-20h272z m-474-73c11.046 0 20 8.954 20 20s-8.954 20-20 20h-88c-11.046 0-20-8.954-20-20s8.954-20 20-20h88z m474-67c11.046 0 20 8.954 20 20s-8.954 20-20 20H422c-11.046 0-20-8.954-20-20s8.954-20 20-20h272z m-39.833-277.255c24.993 24.994 24.993 65.516 0 90.51L565.07 460.35c-3.905 3.906-10.237 3.906-14.142 0l-89.096-89.095c-24.993-24.994-24.993-65.516 0-90.51 24.994-24.993 65.517-24.993 90.51 0l5.657 5.657 5.657-5.657c24.993-24.993 65.516-24.993 90.51 0z m-164.05 28.284c-9.278 9.28-9.37 24.266-0.278 33.659l0.279 0.283L558 410.853l67.882-67.882c9.28-9.28 9.372-24.266 0.279-33.659l-0.279-0.283c-9.279-9.278-24.265-9.371-33.658-0.278l-0.283 0.278L558 342.971l-33.941-33.942c-9.373-9.372-24.569-9.372-33.941 0zM220 360c11.046 0 20 8.954 20 20s-8.954 20-20 20h-88c-11.046 0-20-8.954-20-20s8.954-20 20-20h88z"  /></svg>