<?xml version="1.0" standalone="no"?><!DOCTYPE svg PUBLIC "-//W3C//DTD SVG 1.1//EN" "http://www.w3.org/Graphics/SVG/1.1/DTD/svg11.dtd"><svg class="icon" width="200px" height="200.00px" viewBox="0 0 1024 1024" version="1.1" xmlns="http://www.w3.org/2000/svg"><path fill="#333333" d="M349.544 540.732C389.322 586.248 447.804 615 513 615c64.745 0 122.868-28.355 162.627-73.325l222.784 179.278c10.503 8.452 15.012 21.592 12.94 34.005 0.429 3.62 0.649 7.306 0.649 11.042v53c0 51.362-41.638 93-93 93H205c-51.362 0-93-41.638-93-93v-53c0-3.737 0.22-7.423 0.649-11.044a36.198 36.198 0 0 1-0.49-5.956 36 36 0 0 1 13.43-28.047l223.955-180.22z m-2.598 53.434L152.483 750.653l0.558 3.345-0.67 5.658a53.827 53.827 0 0 0-0.363 5.428L152 766v53c0 28.978 23.257 52.525 52.124 52.993L205 872h614c28.978 0 52.525-23.257 53-52.124V766a54.21 54.21 0 0 0-0.274-5.452l-0.098-0.898-0.668-5.656 0.557-3.341-193.441-155.665-0.602 0.508c-44.974 37.507-101.885 58.976-162.237 59.494L513 655c-61.61 0-119.744-21.837-165.404-60.283l-0.65-0.551zM720 112c5.523 0 10 4.477 10 10v223c0 119.846-97.154 217-217 217s-217-97.154-217-217V122c0-5.523 4.477-10 10-10h414z m-30.904 251.002H336.904c8.924 88.347 82.818 157.51 173.169 158.974L513 522c91.677 0 167.076-69.699 176.096-158.998zM690 152H336v171h354V152z m-166 28a8 8 0 0 1 8 8v35.999l36 0.001a8 8 0 0 1 8 8v24a8 8 0 0 1-8 8l-36-0.001V300a8 8 0 0 1-8 8h-24a8 8 0 0 1-8-8v-36.001L456 264a8 8 0 0 1-8-8v-24a8 8 0 0 1 8-8l36-0.001V188a8 8 0 0 1 8-8h24z"  /></svg>