<?xml version="1.0" standalone="no"?><!DOCTYPE svg PUBLIC "-//W3C//DTD SVG 1.1//EN" "http://www.w3.org/Graphics/SVG/1.1/DTD/svg11.dtd"><svg class="icon" width="200px" height="200.00px" viewBox="0 0 1024 1024" version="1.1" xmlns="http://www.w3.org/2000/svg"><path fill="#333333" d="M628 112c33.137 0 60 26.863 60 60v730a10 10 0 0 1-5.617 8.991 8 8 0 0 0 7.613-7.742L690 903v-31h182V352H690v-40h192c16.569 0 30 13.431 30 30v560c0 5.523-4.477 10-10 10H122c-5.523 0-10-4.477-10-10V172c0-33.137 26.863-60 60-60h456z m0.344 40H172c-10.93 0-19.813 8.769-20 19.656V872h496V172c0-10.93-8.769-19.813-19.656-20zM410 251c5.523 0 10 4.477 10 10v90h90c5.523 0 10 4.477 10 10v20c0 5.523-4.477 10-10 10h-90v90c0 5.523-4.477 10-10 10h-20c-5.523 0-10-4.477-10-10v-90h-90c-5.523 0-10-4.477-10-10v-20c0-5.523 4.477-10 10-10h90v-90c0-5.523 4.477-10 10-10h20z"  /></svg>