<?xml version="1.0" standalone="no"?><!DOCTYPE svg PUBLIC "-//W3C//DTD SVG 1.1//EN" "http://www.w3.org/Graphics/SVG/1.1/DTD/svg11.dtd"><svg class="icon" width="200px" height="200.00px" viewBox="0 0 1024 1024" version="1.1" xmlns="http://www.w3.org/2000/svg"><path fill="#333333" d="M572 349c41.421 0 75 33.579 75 75s-33.579 75-75 75-75-33.579-75-75 33.579-75 75-75z m0 40c-19.33 0-35 15.67-35 35s15.67 35 35 35 35-15.67 35-35-15.67-35-35-35z m-60-206c109.91 0 201.413 78.807 221.087 182.998L940 366c11.046 0 20 8.954 20 20s-8.954 20-20 20H696.981l-0.139-16.369-3.06-16.211c-16.202-85.802-90.967-149.143-179.107-150.4L512 223c-88.405 0-163.893 62.483-181.272 147.827l-0.51 2.593-3.066 16.237L327.01 406h-40.001v-0.002L84 406c-11.046 0-20-8.954-20-20s8.954-20 20-20l206.913-0.002C310.587 261.808 402.09 183 512 183zM84 801h856c11.046 0 20 8.954 20 20s-8.954 20-20 20H84c-11.046 0-20-8.954-20-20s8.954-20 20-20z m353.698-186.483c22.335-16.494 50.3-22.241 80.277-19.366 11.844 1.136 23.79 3.675 34.65 7.112l1.62 0.522c9.674 3.172 18.42 7.051 25.37 11.268l0.576 0.352c10.579 6.54 26.06 11.92 42.673 13.55 21.38 2.098 43.09-1.96 64.367-13.583l0.425-0.235 0.28-0.172c24.777-15.178 52.449-20.93 82.256-17.203l0.913 0.117c10.951 1.438 18.663 11.482 17.225 22.434-1.424 10.837-11.275 18.502-22.093 17.267l-0.342-0.042c-21.125-2.775-39.845 1.026-56.937 11.458l-1.076 0.666-0.431 0.239c-28.845 16.021-58.973 21.76-88.493 18.863-22.477-2.205-43.5-9.429-59.105-18.91l-0.695-0.425c-2.526-1.562-5.61-3.11-9.1-4.577l-1.178-0.486c-4.77-1.93-10.228-3.699-16.01-5.141l-1.453-0.354c-5.591-1.33-11.452-2.345-17.261-2.903-21.053-2.02-39.437 1.804-53.005 11.956l-0.488 0.37-0.868 0.664-0.935 0.567c-28.297 17.135-56.875 24.237-85.152 22.72-22.052-1.184-42.32-7.366-62.105-17.26-4.283-2.142-8.355-4.36-12.649-6.848l-2.021-1.182-8.585-5.124c-2.74-1.602-6.278-2.881-10.602-3.794l-0.906-0.184a63.444 63.444 0 0 0-1.879-0.336l-0.972-0.152a72.138 72.138 0 0 0-0.495-0.072l-1.007-0.136c-0.339-0.044-0.682-0.085-1.028-0.125l-1.051-0.114c-0.355-0.036-0.712-0.07-1.074-0.103l-1.095-0.092-1.118-0.08c-0.376-0.026-0.756-0.05-1.14-0.07l-1.162-0.059c-0.977-0.043-1.978-0.075-3.001-0.095l-1.24-0.017-1.26-0.006-1.284 0.006-0.65 0.007-1.316 0.024-0.667 0.016-1.349 0.042-1.371 0.054-1.393 0.066-1.415 0.078-1.437 0.09-1.458 0.104-1.48 0.116-1.503 0.128-1.524 0.141-0.77 0.076-1.556 0.16-0.786 0.085c-10.98 1.205-20.858-6.719-22.063-17.699-1.205-10.98 6.719-20.857 17.698-22.062l1.892-0.202 0.94-0.094 1.865-0.18 1.849-0.163c0.613-0.052 1.223-0.101 1.83-0.148l1.814-0.134 0.9-0.06 1.787-0.111 1.77-0.095c24.364-1.21 43.748 1.996 58.37 10.354l0.81 0.472 8.719 5.203 0.332 0.196c4.069 2.382 7.777 4.42 11.622 6.343 15.233 7.618 30.371 12.235 46.358 13.093 19.778 1.061 39.87-3.784 60.704-16.047l0.743-0.442 0.399-0.296z"  /></svg>