<?xml version="1.0" standalone="no"?><!DOCTYPE svg PUBLIC "-//W3C//DTD SVG 1.1//EN" "http://www.w3.org/Graphics/SVG/1.1/DTD/svg11.dtd"><svg class="icon" width="200px" height="200.00px" viewBox="0 0 1024 1024" version="1.1" xmlns="http://www.w3.org/2000/svg"><path fill="#333333" d="M532.257 112.406l381.837 381.837c7.81 7.81 7.81 20.474 0 28.285-7.81 7.81-20.474 7.81-28.284 0l-25.456-25.457L511.75 845.675c-91.383 91.383-239.544 91.383-330.926 0-91.383-91.382-91.383-239.543 0-330.926l348.603-348.603-25.456-25.456c-7.81-7.81-7.81-20.474 0-28.284 7.81-7.81 20.474-7.81 28.285 0zM653.857 647H155.135c-10.209 59.06 7.032 121.94 51.724 168.104l2.25 2.287c75.004 75.004 196.144 75.754 272.07 2.25l2.287-2.25L653.856 647z m-96.145-452.57L209.11 543.034c-18.884 18.883-33.06 40.69-42.53 63.965L693 607c0.275 0 0.547 0.014 0.815 0.041L832.07 468.788 557.712 194.43zM431.847 522.528c15.621 15.62 15.621 40.947 0 56.568-15.62 15.621-40.947 15.621-56.568 0-15.621-15.62-15.621-40.947 0-56.568 15.62-15.621 40.947-15.621 56.568 0z m-42.426 14.142c-7.81 7.81-7.81 20.474 0 28.284 7.81 7.81 20.474 7.81 28.284 0 7.81-7.81 7.81-20.474 0-28.284-7.81-7.81-20.473-7.81-28.284 0z m193.747-162.635c29.68 29.68 29.68 77.8 0 107.48-29.68 29.68-77.8 29.68-107.48 0-29.68-29.68-29.68-77.8 0-107.48 29.68-29.68 77.8-29.68 107.48 0z m-79.196 28.284c-14.059 14.06-14.059 36.853 0 50.912 14.06 14.06 36.853 14.06 50.912 0 14.059-14.059 14.059-36.853 0-50.912-14.059-14.058-36.853-14.058-50.912 0z"  /></svg>