<?xml version="1.0" standalone="no"?><!DOCTYPE svg PUBLIC "-//W3C//DTD SVG 1.1//EN" "http://www.w3.org/Graphics/SVG/1.1/DTD/svg11.dtd"><svg class="icon" width="200px" height="200.00px" viewBox="0 0 1024 1024" version="1.1" xmlns="http://www.w3.org/2000/svg"><path fill="#333333" d="M873 398c21.54 0 39 17.46 39 39v39h-0.314c0.209 5.308 0.314 10.641 0.314 16 0 158.797-92.534 295.982-226.623 360.575A48.098 48.098 0 0 1 687 865c0 26.51-21.49 48-48 48H385c-26.51 0-48-21.49-48-48 0-4.299 0.565-8.466 1.625-12.43C204.535 787.982 112 650.797 112 492c0-5.359 0.105-10.692 0.314-16H112v-39c0-21.54 17.46-39 39-39h722z m-2.841 40H153.84l-1.557 39.573c-0.157 3.996-0.249 8.002-0.275 12.017L152 492c0 138.326 78.702 262.452 200.286 322.726l3.697 1.806 29.84 14.373-8.555 31.996A8.07 8.07 0 0 0 377 865a8.006 8.006 0 0 0 7.75 8H639a8 8 0 0 0 8-8c0-0.622-0.064-1.21-0.187-1.77l-0.08-0.333-8.546-31.99 29.83-14.37C791.702 756.959 872 631.724 872 492c0-4.018-0.066-8.028-0.197-12.028l-0.086-2.4L870.159 438z m-74.934 78.468c10.826 2.367 17.679 13.037 15.305 23.833-16.107 73.272-54.199 131.555-113.803 173.975-9.021 6.42-21.554 4.332-27.992-4.664-6.438-8.997-4.345-21.494 4.677-27.915 51.438-36.608 83.919-86.305 97.913-149.966 2.374-10.796 13.074-17.63 23.9-15.263zM762.433 126.5l8.66 5c50.22 28.995 67.472 93.135 38.532 143.26L739.05 397h-45.622l81.89-141.835c17.73-30.709 7.435-69.923-22.939-88.12l-0.926-0.545-8.66-5c-30.778-17.77-70.017-7.563-88.175 22.741l-0.544 0.924L531.769 397h-46.753L619.1 164.76c28.94-50.125 93.112-67.255 143.333-38.26z"  /></svg>