<?xml version="1.0" standalone="no"?><!DOCTYPE svg PUBLIC "-//W3C//DTD SVG 1.1//EN" "http://www.w3.org/Graphics/SVG/1.1/DTD/svg11.dtd"><svg class="icon" width="200px" height="200.00px" viewBox="0 0 1024 1024" version="1.1" xmlns="http://www.w3.org/2000/svg"><path fill="#333333" d="M498.5 114C711.956 114 885 287.044 885 500.5c0 98.51-36.855 188.412-97.528 256.67l119.1 119.1c7.81 7.81 7.81 20.474 0 28.284l-0.018 0.018c-7.81 7.81-20.473 7.81-28.284 0L759.377 785.678C690.625 848.606 599.046 887 498.5 887 285.044 887 112 713.956 112 500.5S285.044 114 498.5 114z m0 40C307.136 154 152 309.136 152 500.5S307.136 847 498.5 847 845 691.864 845 500.5 689.864 154 498.5 154z m81.514 104.641c66.35 17.13 113.934 58.427 141.375 122.567 4.336 10.135-0.383 21.858-10.542 26.185-10.158 4.326-21.908-0.383-26.244-10.518-22.378-52.304-59.595-84.933-112.986-99.174l-1.623-0.426c-10.693-2.76-17.118-13.647-14.351-24.315 2.766-10.669 13.678-17.08 24.37-14.319z"  /></svg>