<?xml version="1.0" standalone="no"?><!DOCTYPE svg PUBLIC "-//W3C//DTD SVG 1.1//EN" "http://www.w3.org/Graphics/SVG/1.1/DTD/svg11.dtd"><svg class="icon" width="200px" height="200.00px" viewBox="0 0 1024 1024" version="1.1" xmlns="http://www.w3.org/2000/svg"><path fill="#333333" d="M892 597.643c10.93 0 19.813 8.769 20 19.656V862c0 27.338-21.94 49.552-49.173 49.993L862 912H619.728c-11.046 0-20-8.954-20-20 0-10.93 8.769-19.813 19.656-19.997l0.344-0.003H862c5.43 0 9.848-4.327 9.996-9.72L872 862V617.643c0-11.046 8.954-20 20-20z m-760 0.465c10.93 0 19.813 8.768 19.997 19.655l0.003 0.345V862c0 5.43 4.327 9.848 9.72 9.996l0.28 0.004h243.34c11.046 0 20 8.954 20 20 0 10.93-8.768 19.813-19.655 20H162c-27.338 0-49.552-21.94-49.993-49.173L112 862V618.108c0-11.046 8.954-20 20-20z m598.61-262.966c63.186 62.856 63.186 164.765 0 227.621l-211.4 210.298a10.027 10.027 0 0 1-6.56 2.91 10.05 10.05 0 0 1-7.86-2.897l-211.4-210.297c-63.186-62.856-63.186-164.765 0-227.621 59.885-59.573 155.034-62.685 218.603-9.336 63.566-53.363 158.727-50.256 218.618 9.322z m-191.448 20.115l-1.45 1.199-25.715 21.587-25.717-21.583c-48.125-40.387-119.851-37.541-164.68 7.054-46.992 46.746-47.462 122.16-1.41 169.48l1.41 1.425 190.393 189.399L702.4 534.405c46.992-46.746 47.462-122.16 1.41-169.48l-1.41-1.425c-44.385-44.153-115.136-47.38-163.238-8.243zM524 416a8 8 0 0 1 8 8v68h68a8 8 0 0 1 8 8v24a8 8 0 0 1-8 8h-68v68a8 8 0 0 1-8 8h-24a8 8 0 0 1-8-8v-68h-68a8 8 0 0 1-8-8v-24a8 8 0 0 1 8-8h68v-68a8 8 0 0 1 8-8h24z m338-304c27.338 0 49.552 21.94 49.993 49.173L912 162v246.438c0 11.046-8.954 20-20 20-10.93 0-19.813-8.768-19.997-19.655l-0.003-0.345V162c0-5.43-4.327-9.848-9.72-9.996L862 152H618.155c-11.046 0-20-8.954-20-20 0-10.93 8.769-19.813 19.655-20H862z m-455.673 0c11.045 0 20 8.954 20 20 0 10.93-8.769 19.813-19.656 19.997l-0.344 0.003H162c-5.43 0-9.848 4.327-9.996 9.72L152 162v244.878c0 11.046-8.954 20-20 20-10.93 0-19.813-8.769-20-19.655V162c0-27.338 21.94-49.552 49.173-49.993L162 112h244.327z"  /></svg>