<?xml version="1.0" standalone="no"?><!DOCTYPE svg PUBLIC "-//W3C//DTD SVG 1.1//EN" "http://www.w3.org/Graphics/SVG/1.1/DTD/svg11.dtd"><svg class="icon" width="200px" height="200.00px" viewBox="0 0 1024 1024" version="1.1" xmlns="http://www.w3.org/2000/svg"><path fill="#333333" d="M254 182c11.046 0 20 8.954 20 20s-8.954 20-20 20h-92c-5.43 0-9.848 4.327-9.996 9.72L152 232v139h720V232c0-5.43-4.327-9.848-9.72-9.996L862 222h-91c-11.046 0-20-8.954-20-20s8.954-20 20-20h98c4.134 0 7.976 1.255 11.164 3.404 18.392 7.173 31.493 24.92 31.836 45.77V862c0 27.338-21.94 49.552-49.173 50H162c-27.338 0-49.552-21.94-50-49.173V232c0-22.122 14.366-40.888 34.278-47.482A19.964 19.964 0 0 1 156 182h98z m618 229H152v451c0 5.43 4.327 9.848 9.72 9.996l0.28 0.004h700c5.43 0 9.848-4.327 9.996-9.72L872 862V411zM369 690c11.046 0 20 8.954 20 20s-8.954 20-20 20H255c-11.046 0-20-8.954-20-20s8.954-20 20-20h114z m200 0c11.046 0 20 8.954 20 20s-8.954 20-20 20H455c-11.046 0-20-8.954-20-20s8.954-20 20-20h114z m200 0c11.046 0 20 8.954 20 20s-8.954 20-20 20H655c-11.046 0-20-8.954-20-20s8.954-20 20-20h114zM369 546c11.046 0 20 8.954 20 20s-8.954 20-20 20H255c-11.046 0-20-8.954-20-20s8.954-20 20-20h114z m200 0c11.046 0 20 8.954 20 20s-8.954 20-20 20H455c-11.046 0-20-8.954-20-20s8.954-20 20-20h114z m200 0c11.046 0 20 8.954 20 20s-8.954 20-20 20H655c-11.046 0-20-8.954-20-20s8.954-20 20-20h114zM329 112c11.046 0 20 8.954 20 20v160c0 11.046-8.954 20-20 20s-20-8.954-20-20V132c0-11.046 8.954-20 20-20z m367 0c11.046 0 20 8.954 20 20v160c0 11.046-8.954 20-20 20s-20-8.954-20-20V132c0-11.046 8.954-20 20-20z m-75 70c11.046 0 20 8.954 20 20s-8.954 20-20 20H404c-11.046 0-20-8.954-20-20s8.954-20 20-20h217z"  /></svg>