<?xml version="1.0" standalone="no"?><!DOCTYPE svg PUBLIC "-//W3C//DTD SVG 1.1//EN" "http://www.w3.org/Graphics/SVG/1.1/DTD/svg11.dtd"><svg class="icon" width="200px" height="200.00px" viewBox="0 0 1024 1024" version="1.1" xmlns="http://www.w3.org/2000/svg"><path fill="#333333" d="M841.56 212.473c92.045 92.088 95.145 239.465 9.3 335.277-0.34 0.476-0.721 0.933-1.15 1.361l-1.05 1.062a248.217 248.217 0 0 1-7.1 7.404L519.233 880.05a9.955 9.955 0 0 1-6.295 2.9l-0.328 0.02a9.969 9.969 0 0 1-7.845-2.899L182.44 557.598a248.144 248.144 0 0 1-7.587-7.933l-0.565-0.574a10.078 10.078 0 0 1-0.989-1.15c-86.009-95.805-82.96-243.304 9.14-335.447 90.279-90.32 233.719-95.037 329.55-14.154 95.828-80.905 239.284-76.194 329.57 14.133z m-28.288 28.314c-74.29-74.358-192.556-79.786-273.067-13.873l-2.428 2.02-25.783 21.778-25.786-21.774c-80.552-68.019-200.448-63.232-275.48 11.87-75.939 76.008-79.748 197.677-9.809 278.121l2.142 2.425 1.088 1.213 0.215 0.235a207.97 207.97 0 0 0 5.065 5.345l1.299 1.312L511.988 831l301.284-301.562a208.476 208.476 0 0 0 4.788-4.954l1.168-1.26 0.491-0.533 0.119-0.121 1.234-1.376c71.299-79.616 68.91-201.221-5.523-278.092l-2.277-2.315z m-244.038 84.267c5.177-19.116 31.89-19.817 38.21-1.301l0.186 0.567 57.876 185.317h102.338c10.931 0 19.814 8.77 20 19.656v0.345c0 10.93-8.768 19.813-19.655 19.997l-0.345 0.003H650.8a20 20 0 0 1-18.973-13.671l-0.118-0.367-41.803-133.851-58.603 216.42c-5.062 18.696-30.978 19.927-37.92 2.086l-0.205-0.547-60.4-167.97-41.543 86.554a20 20 0 0 1-17.64 11.342l-0.391 0.004H259.348c-11.045 0-20-8.955-20-20 0-10.93 8.77-19.813 19.656-19.997l0.344-0.003 101.271-0.001 56.778-118.291c7.603-15.84 30.384-14.836 36.666 1.39l0.185 0.496 55.06 153.123 59.926-221.3z"  /></svg>