<?xml version="1.0" standalone="no"?><!DOCTYPE svg PUBLIC "-//W3C//DTD SVG 1.1//EN" "http://www.w3.org/Graphics/SVG/1.1/DTD/svg11.dtd"><svg class="icon" width="200px" height="200.00px" viewBox="0 0 1024 1024" version="1.1" xmlns="http://www.w3.org/2000/svg"><path fill="#333333" d="M714 112c109.352 0 198 88.648 198 198 0 51.636-19.766 98.656-52.145 133.905L764.585 854.4a74 74 0 0 1-55.356 55.355c-39.413 9.147-78.779-15.051-88.527-54.165l-0.286-1.19-66.084-284.752c-28.168-79.113-56.226-79.816-84.174-2.109L403.584 854.4a74 74 0 0 1-55.355 55.355c-39.413 9.147-78.779-15.051-88.527-54.165l-0.286-1.19-95.271-410.494C131.766 408.655 112 361.636 112 310c0-109.352 88.648-198 198-198 37.039 0 71.702 10.17 101.35 27.87 71.455 27.051 139.226 26.657 203.312-1.18a196.437 196.437 0 0 1 24.31-11.98c0.24-0.125 0.48-0.257 0.718-0.39l-0.016 0.103C662.624 117.123 687.714 112 714 112z m0 40c-20.257 0-39.923 3.794-58.283 11.086l-1.265 0.507-0.314 0.13a156.45 156.45 0 0 0-18.113 8.823l-1.247 0.718-2.028 1.18-2.152 0.935c-12.723 5.526-25.583 10.114-38.57 13.767l-1.975 0.547-0.985 0.4 0.022-0.14-1.1 0.298c-60.465 16.073-123.64 11.962-188.374-12.062l-2.428-0.91-3.306-1.252-3.036-1.812C366.606 159.744 338.919 152 310 152c-87.261 0-158 70.739-158 158 0 39.758 14.691 77.118 40.808 105.974l0.795 0.872 7.125 7.757 97.626 420.642 0.189 0.783 0.11 0.425c4.657 17.482 22.268 28.272 39.99 24.458l0.543-0.121a34 34 0 0 0 25.329-24.994l0.105-0.44 67.104-289.147 0.795-2.208 0.803-2.215 0.403-1.096 0.807-2.166 0.81-2.135c0.812-2.12 1.628-4.19 2.448-6.215l0.823-2.008 0.826-1.977c6.069-14.382 12.43-26.24 19.352-35.757 6.053-8.322 12.74-15.173 20.493-20.4 10.086-6.8 21.616-10.541 33.88-10.234 12.075 0.302 23.233 4.477 32.961 11.51 7.452 5.389 13.915 12.314 19.802 20.67 7.596 10.784 14.56 24.472 21.233 41.31l0.815 2.078 0.407 1.05 0.811 2.126c0.405 1.07 0.81 2.152 1.213 3.247l0.805 2.204 0.803 2.237 0.766 2.15 66.574 286.865 0.189 0.783 0.11 0.425c4.657 17.482 22.268 28.272 39.99 24.458l0.543-0.121a34 34 0 0 0 25.329-24.994l0.105-0.44 97.652-420.753 7.125-7.757C857.01 387.873 872 350.16 872 310c0-87.261-70.739-158-158-158z m89.552 203.519c0 11.045-8.954 20-20 20s-20-8.955-20-20c0-38.883-9.046-64.675-25.881-78.82-16.882-14.185-44.144-18.816-82.92-12.408-10.898 1.8-21.193-5.574-22.994-16.472-1.8-10.898 5.574-21.192 16.472-22.993 100.18-16.555 155.323 29.777 155.323 130.693z"  /></svg>