<?xml version="1.0" standalone="no"?><!DOCTYPE svg PUBLIC "-//W3C//DTD SVG 1.1//EN" "http://www.w3.org/Graphics/SVG/1.1/DTD/svg11.dtd"><svg class="icon" width="200px" height="200.00px" viewBox="0 0 1024 1024" version="1.1" xmlns="http://www.w3.org/2000/svg"><path fill="#333333" d="M247 160v72a8 8 0 0 0 7.75 7.996l0.25 0.004h514a8 8 0 0 0 7.996-7.75L777 232v-72h75c33.137 0 60 26.863 60 60v632c0 33.137-26.863 60-60 60H172c-33.137 0-60-26.863-60-60V220c0-33.137 26.863-60 60-60h75z m-40 40h-35c-10.93 0-19.813 8.769-20 19.656V852c0 10.93 8.769 19.813 19.656 20H852c10.93 0 19.813-8.769 20-19.656V220c0-10.93-8.769-19.813-19.656-20H817v32.306l-0.013 0.86-0.01 0.306c-0.784 25.643-21.598 46.115-47.2 46.522L769 280H254.694l-0.86-0.013-0.306-0.01c-25.643-0.784-46.115-21.598-46.522-47.2L207 232v-32z m145 388c11.046 0 20 8.954 20 20v184c0 11.046-8.954 20-20 20s-20-8.954-20-20V608c0-11.046 8.954-20 20-20z m160-176c11.046 0 20 8.954 20 20v360c0 11.046-8.954 20-20 20s-20-8.954-20-20V432c0-11.046 8.954-20 20-20z m160 100c11.046 0 20 8.954 20 20v260c0 11.046-8.954 20-20 20s-20-8.954-20-20V532c0-11.046 8.954-20 20-20z m28-400c30.376 0 55 24.624 55 55s-24.624 55-55 55H324c-30.376 0-55-24.624-55-55s24.624-55 55-55h376z m0 40H324c-8.284 0-15 6.716-15 15 0 8.18 6.547 14.83 14.686 14.997L324 182h376c8.284 0 15-6.716 15-15 0-8.18-6.547-14.83-14.686-14.997L700 152z"  /></svg>