<?xml version="1.0" standalone="no"?><!DOCTYPE svg PUBLIC "-//W3C//DTD SVG 1.1//EN" "http://www.w3.org/Graphics/SVG/1.1/DTD/svg11.dtd"><svg class="icon" width="200px" height="200.00px" viewBox="0 0 1024 1024" version="1.1" xmlns="http://www.w3.org/2000/svg"><path fill="#333333" d="M900 160c33.137 0 60.001 26.863 60.001 60v204.339A91.946 91.946 0 0 0 932 420c-50.81 0-92 41.19-92 92s41.19 92 92 92c9.764 0 19.172-1.52 28.001-4.339V804c0 33.137-26.864 60-60.001 60H124c-33.137 0-60-26.863-60-60V599.661A91.946 91.946 0 0 0 92 604c50.81 0 92-41.19 92-92s-41.19-92-92-92a91.946 91.946 0 0 0-28 4.339V220c0-33.137 26.863-60 60-60h776z m0.344 40H124c-10.93 0-19.813 8.769-20.001 19.656v160.886l0.964 0.086c66.107 6.444 117.924 61.652 119.02 129.19L224 512c0 68.527-52.22 124.858-119.037 131.372l-0.964 0.085V804c0 10.93 8.77 19.813 19.657 20H900c10.93 0 19.813-8.769 20.001-19.656V643.457l-0.964-0.085c-66.107-6.444-117.924-61.652-119.02-129.19L800 512c0-68.527 52.22-124.858 119.037-131.372l0.964-0.086V220c0-10.93-8.77-19.813-19.657-20zM293.627 351.343l64.063 64.063 64.062-64.063a8 8 0 0 1 11.112-0.195l0.202 0.195 16.97 16.97a8 8 0 0 1 0.196 11.112l-0.195 0.202L393.663 436H445a8 8 0 0 1 8 8v24a8 8 0 0 1-8 8h-67.001v60H445a8 8 0 0 1 8 8v24a8 8 0 0 1-8 8h-67v92a8 8 0 0 1-8 8h-24a8 8 0 0 1-8-8v-92h-67a8 8 0 0 1-8-8v-24a8 8 0 0 1 8-8h66.999v-60H271a8 8 0 0 1-8-8v-24a8 8 0 0 1 8-8h50.716l-56.373-56.373a8 8 0 0 1 0-11.313l16.97-16.97a8 8 0 0 1 11.314 0zM751 592c11.046 0 20 8.954 20 20s-8.954 20-20 20H563c-11.046 0-20-8.954-20-20s8.954-20 20-20h188z m-88-100c11.046 0 20 8.954 20 20s-8.954 20-20 20H563c-11.046 0-20-8.954-20-20s8.954-20 20-20h100z m88-100c11.046 0 20 8.954 20 20s-8.954 20-20 20H563c-11.046 0-20-8.954-20-20s8.954-20 20-20h188z"  /></svg>