<?xml version="1.0" standalone="no"?><!DOCTYPE svg PUBLIC "-//W3C//DTD SVG 1.1//EN" "http://www.w3.org/Graphics/SVG/1.1/DTD/svg11.dtd"><svg class="icon" width="200px" height="200.00px" viewBox="0 0 1024 1024" version="1.1" xmlns="http://www.w3.org/2000/svg"><path fill="#333333" d="M858.763636 0H306.269091a122.181818 122.181818 0 0 0-42.356364 7.912727L256 0 223.883636 32.116364l-5.12 5.12-82.618181 82.618181a107.752727 107.752727 0 0 0-16.29091 16.29091L93.090909 162.909091l8.843636 2.56A116.363636 116.363636 0 0 0 93.090909 209.454545v698.181819a116.363636 116.363636 0 0 0 116.363636 116.363636h488.727273a116.363636 116.363636 0 0 0 56.32-15.127273l16.989091 14.196364 84.014546-100.770909A116.363636 116.363636 0 0 0 930.909091 814.545455V0zM744.727273 907.636364a46.545455 46.545455 0 0 1-46.545455 46.545454H209.454545a46.545455 46.545455 0 0 1-46.545454-46.545454V209.454545a46.545455 46.545455 0 0 1 46.545454-46.545454h209.454546v359.098182L531.083636 418.909091 651.636364 514.792727V162.909091h93.090909zM488.727273 362.356364V162.909091h93.090909v206.661818L527.825455 325.818182zM861.090909 814.545455a44.683636 44.683636 0 0 1-15.825454 33.28l-10.938182-10.007273-18.152728 21.876363H814.545455V93.090909H263.214545a51.898182 51.898182 0 0 1 43.054546-23.272727H861.090909z" /></svg>