<?xml version="1.0" standalone="no"?><!DOCTYPE svg PUBLIC "-//W3C//DTD SVG 1.1//EN" "http://www.w3.org/Graphics/SVG/1.1/DTD/svg11.dtd"><svg class="icon" width="200px" height="200.00px" viewBox="0 0 1024 1024" version="1.1" xmlns="http://www.w3.org/2000/svg"><path fill="#333333" d="M811.705806 0H212.292342a174.828927 174.828927 0 0 0-174.828927 174.828927v774.242392a74.926683 74.926683 0 0 0 74.926683 74.926683h149.853366a74.926683 74.926683 0 0 0 71.180349-49.951122l32.717985-99.902244h291.714552l32.717985 99.902244A74.926683 74.926683 0 0 0 761.754684 1023.998002h149.853366a74.926683 74.926683 0 0 0 74.926684-74.926683V174.828927a174.828927 174.828927 0 0 0-174.828928-174.828927z m99.902244 949.071319h-149.853366l-49.951122-149.853366H312.194586l-49.951122 149.853366H112.390098V474.535659h799.217952z m0-549.462343H112.390098V174.828927a99.902244 99.902244 0 0 1 99.902244-99.902244h599.413464a99.902244 99.902244 0 0 1 99.902244 99.902244z"  /><path fill="#333333" d="M299.706805 749.266831A112.390025 112.390025 0 1 0 187.316781 636.876806a112.63978 112.63978 0 0 0 112.390024 112.390025z m0-149.853366A37.463342 37.463342 0 1 1 262.243464 636.876806a37.463342 37.463342 0 0 1 37.463341-37.463341zM724.291343 749.266831a112.390025 112.390025 0 1 0-112.390025-112.390025 112.63978 112.63978 0 0 0 112.390025 112.390025z m0-149.853366a37.463342 37.463342 0 1 1-37.463342 37.463341 37.463342 37.463342 0 0 1 37.463342-37.463341z"  /></svg>