<?xml version="1.0" standalone="no"?><!DOCTYPE svg PUBLIC "-//W3C//DTD SVG 1.1//EN" "http://www.w3.org/Graphics/SVG/1.1/DTD/svg11.dtd"><svg class="icon" width="200px" height="177.32px" viewBox="0 0 1155 1024" version="1.1" xmlns="http://www.w3.org/2000/svg"><path fill="#333333" d="M1076.376204 315.036938h-236.277704V78.759234a78.759234 78.759234 0 0 0-78.759234-78.759234H78.759234a78.759234 78.759234 0 0 0-78.759234 78.759234v420.049251a78.759234 78.759234 0 0 0 78.759234 78.759234h14.964255l-9.451108 23.36524A78.759234 78.759234 0 0 0 157.518469 708.83311a78.759234 78.759234 0 0 0 38.329494-9.97617L315.036938 632.699183V813.845422a78.759234 78.759234 0 0 0 78.759234 78.759235h347.065693l218.42561 121.289221a78.759234 78.759234 0 0 0 90.83565-9.713639 78.759234 78.759234 0 0 0 21.264994-88.210343l-9.97617-23.365239H1076.376204a78.759234 78.759234 0 0 0 78.759234-78.759235V393.796172a78.759234 78.759234 0 0 0-78.759234-78.759234z m-761.339266 78.759234v148.854953L157.518469 630.073875l52.506156-131.26539H78.759234V78.759234h682.580032v236.277704H393.796172a78.759234 78.759234 0 0 0-78.759234 78.759234z m761.339266 420.04925h-131.265391l52.506156 131.265391-236.277703-131.265391H393.796172V393.796172h682.580032z"  /><path fill="#333333" d="M498.808485 551.314641h472.555406a39.379617 39.379617 0 0 0 0-78.759235H498.808485a39.379617 39.379617 0 0 0 0 78.759235zM498.808485 708.83311h472.555406a39.379617 39.379617 0 0 0 0-78.759235H498.808485a39.379617 39.379617 0 0 0 0 78.759235z"  /></svg>