<?xml version="1.0" standalone="no"?><!DOCTYPE svg PUBLIC "-//W3C//DTD SVG 1.1//EN" "http://www.w3.org/Graphics/SVG/1.1/DTD/svg11.dtd"><svg class="icon" width="200px" height="188.93px" viewBox="0 0 1084 1024" version="1.1" xmlns="http://www.w3.org/2000/svg"><path fill="#333333" d="M1076.284717 712.222118l-82.883765-103.604706a72.282353 72.282353 0 0 0-65.776941-42.405647H605.967541a185.765647 185.765647 0 0 0 44.574117-120.470589c0-50.838588-29.153882-92.280471-54.693647-129.14447l-10.119529-14.456471 429.357176-55.41647a36.141176 36.141176 0 0 0-9.155764-72.282353L554.165188 233.231059a26.503529 26.503529 0 0 1 0-4.336941 127.457882 127.457882 0 0 1 13.492706-53.729883L960.873894 72.282353a36.141176 36.141176 0 1 0-18.31153-69.872941L626.447541 84.811294a34.936471 34.936471 0 0 0-9.155765-24.094118 36.141176 36.141176 0 0 0-51.079529-2.409411 323.584 323.584 0 0 0-45.778824 55.41647l-51.079529 13.492706a32.768 32.768 0 0 0-5.782589-14.45647 35.659294 35.659294 0 0 0-50.115764-9.155765 181.187765 181.187765 0 0 0-46.742589 50.838588l-88.907294 24.094118L281.901658 144.564706a74.450824 74.450824 0 0 0-56.380235 18.070588 86.256941 86.256941 0 0 0-24.094118 34.213647l-79.028705 20.961883A36.141176 36.141176 0 0 0 132.518129 289.129412a39.755294 39.755294 0 0 0 9.155765 0l52.766117-13.974588a45.537882 45.537882 0 0 1 0 5.541647l-30.117647 3.855058a36.141176 36.141176 0 0 0 4.577883 72.282353h4.577882l54.693647-7.228235c6.505412 8.673882 13.492706 16.865882 19.998118 24.094118 21.443765 24.094118 39.755294 46.742588 39.755294 72.282353S282.1426 481.882353 279.733188 481.882353a5.059765 5.059765 0 0 1 2.16847 0l-9.637647 72.282353h7.469177a74.209882 74.209882 0 0 0 48.188235-18.31153A114.447059 114.447059 0 0 0 361.412247 445.741176c0-52.766118-30.117647-88.184471-56.621177-120.470588A126.253176 126.253176 0 0 1 265.035776 255.156706l72.282353-19.275294v17.106823c0 52.766118 30.117647 88.425412 56.862118 120.470589 21.202824 24.094118 39.514353 46.742588 39.514353 72.282352 0 48.188235-22.166588 61.199059-25.539765 62.885648a35.900235 35.900235 0 0 0-20.48 45.778823 35.177412 35.177412 0 0 0 7.469176 11.806118H156.612247A72.282353 72.282353 0 0 0 96.376952 597.534118a72.282353 72.282353 0 0 0-5.059764 9.637647L7.951541 712.222118a36.141176 36.141176 0 0 0 2.650353 48.188235l48.188235 48.188235a36.141176 36.141176 0 0 0 51.079529 0 35.900235 35.900235 0 0 0 0-51.079529l-24.094117-25.298824 20.720941-25.780706L209.619305 977.739294a72.282353 72.282353 0 0 0 67.46353 46.260706h530.070588a72.282353 72.282353 0 0 0 67.463529-46.260706l104.32753-271.299765 20.720941 25.780706-25.298823 25.298824a35.900235 35.900235 0 0 0 0 51.079529 36.141176 36.141176 0 0 0 51.079529 0l48.188235-48.188235a36.141176 36.141176 0 0 0 2.650353-48.188235zM409.600482 252.988235a111.314824 111.314824 0 0 1 6.505412-37.586823l68.909176-18.31153A173.477647 173.477647 0 0 0 481.882835 228.894118c0 50.838588 29.153882 92.521412 54.693647 129.14447 21.443765 30.599529 41.682824 59.753412 41.682823 87.702588a117.579294 117.579294 0 0 1-44.815058 90.834824 35.900235 35.900235 0 0 0-15.420236 29.635765h-66.017882a139.745882 139.745882 0 0 0 53.970823-120.470589c0-52.766118-30.117647-88.184471-56.621176-120.470588-21.443765-24.335059-39.755294-46.019765-39.755294-72.282353z m425.743059 385.505883l-160.707765 120.470588H408.154835l-185.283765-120.470588z m-28.190118 313.223529h-530.070588L178.778835 696.079059l199.017412 129.385412a36.382118 36.382118 0 0 0 19.757176 5.782588h289.129412a37.104941 37.104941 0 0 0 21.684706-7.228235l207.209411-155.888942z" /></svg>