<?xml version="1.0" standalone="no"?><!DOCTYPE svg PUBLIC "-//W3C//DTD SVG 1.1//EN" "http://www.w3.org/Graphics/SVG/1.1/DTD/svg11.dtd"><svg class="icon" width="200px" height="190.51px" viewBox="0 0 1075 1024" version="1.1" xmlns="http://www.w3.org/2000/svg"><path fill="#333333" d="M857.728417 0.007545a215.577359 215.577359 0 0 0-208.301623 161.683019H80.84151a80.84151 80.84151 0 0 0-59.014302 136.083208l377.260378 404.207548 5.119962 4.311547V943.15849h-53.89434a40.420755 40.420755 0 0 0 0 80.84151h215.577359a40.420755 40.420755 0 0 0 0-80.84151h-80.841509v-220.697321a80.84151 80.84151 0 0 0 32.067132-20.479849l265.968566-284.831585A215.577359 215.577359 0 1 0 857.728417 0.007545zM465.108152 639.194414a39.881811 39.881811 0 0 0-19.401962-5.928377L80.84151 242.532074h754.520756zM857.728417 350.320753h-11.856755l48.504906-52.008037A80.84151 80.84151 0 0 0 835.362266 161.690564h-100.782416a134.735849 134.735849 0 1 1 123.148567 188.630189z" /></svg>