<?xml version="1.0" standalone="no"?><!DOCTYPE svg PUBLIC "-//W3C//DTD SVG 1.1//EN" "http://www.w3.org/Graphics/SVG/1.1/DTD/svg11.dtd"><svg class="icon" width="200px" height="196.17px" viewBox="0 0 1044 1024" version="1.1" xmlns="http://www.w3.org/2000/svg"><path fill="#333333" d="M1017.171393 4.482733c-86.562787-21.816637-199.633961 35.891887-345.547385 175.471448a164.211249 164.211249 0 0 0-189.312112 13.371488A164.211249 164.211249 0 0 0 164.211249 249.861256a166.791711 166.791711 0 0 0 7.272212 46.917499H164.211249a164.211249 164.211249 0 0 0-84.216912 304.963748 164.211249 164.211249 0 0 0 84.216912 304.963748 175.236861 175.236861 0 0 0 29.558025-2.81505 164.211249 164.211249 0 0 0 314.347247 6.333862A164.211249 164.211249 0 0 0 750.679994 765.953752a158.581149 158.581149 0 0 0-2.345875-26.2738 164.211249 164.211249 0 0 0-2.815049-328.422497 159.284911 159.284911 0 0 0-23.45875 2.111287 164.211249 164.211249 0 0 0 0-184.854949q25.804625-23.45875 51.374662-46.917499c1.407525 56.770175 39.879875 157.642799 51.843837 187.669998a70.376249 70.376249 0 0 0 130.899824 0C968.846368 339.239093 1008.726243 234.613068 1008.726243 179.485006A145.209661 145.209661 0 0 0 968.61178 70.40182a93.834999 93.834999 0 0 1 31.669313 1.642112A35.422712 35.422712 0 0 0 1042.976017 46.94307a35.188125 35.188125 0 0 0-25.804624-42.460337zM328.422498 156.026256a93.834999 93.834999 0 0 1 93.834999 93.835 108.379424 108.379424 0 0 1-1.407525 15.248187 164.211249 164.211249 0 0 0-176.644386 25.100862 89.847012 89.847012 0 0 1-9.618088-40.349049 93.834999 93.834999 0 0 1 93.835-93.835z m-258.046249 304.963748a93.834999 93.834999 0 0 1 93.835-93.834999 91.254537 91.254537 0 0 1 29.08885 4.926337A164.211249 164.211249 0 0 0 187.669999 414.072504a161.396199 161.396199 0 0 0 19.236174 76.475525 164.211249 164.211249 0 0 0-51.374662 63.338624A93.834999 93.834999 0 0 1 70.376249 460.990004z m119.874212 371.117422a95.946287 95.946287 0 0 1-26.039212 4.222575 93.834999 93.834999 0 0 1-21.112875-185.089536c8.210562 46.9175 51.843837 90.550774 91.489124 114.713287-14.779012 20.174525-40.114462 40.583637-44.337037 66.153674zM211.128748 622.386203a93.834999 93.834999 0 1 1 151.543524 73.660474h-10.32185a162.099961 162.099961 0 0 0-72.252949 16.8903A93.834999 93.834999 0 0 1 211.128748 622.386203z m140.752499 331.237548a93.834999 93.834999 0 0 1-92.192886-77.88305c-1.642112-62.86945 21.816637-62.86945 62.634862-90.081599a162.569136 162.569136 0 0 0 54.424299-15.95195 93.834999 93.834999 0 0 1 50.201725 34.015187 159.284911 159.284911 0 0 0 18.767 44.337037 90.785362 90.785362 0 0 1-93.835 105.564375z m90.316187-516.092497l-1.172937 1.642113a33.7806 33.7806 0 0 0-6.803038 18.297825 93.834999 93.834999 0 0 1-30.965549 35.188124A164.211249 164.211249 0 0 0 304.963748 458.174954a157.408211 157.408211 0 0 0-33.311425 3.518813 93.834999 93.834999 0 0 1 155.766099-103.687675 162.099961 162.099961 0 0 0 18.297825 44.337038 93.834999 93.834999 0 0 1 1.172937 11.729374 91.019949 91.019949 0 0 1-4.69175 24.162513z m23.45875 216.993436c0-3.7534 1.172937-7.5068 1.8767-11.494787l4.457163 4.926337zM586.468746 859.788751A93.834999 93.834999 0 0 1 511.400746 821.081814a162.099961 162.099961 0 0 0-17.594062-44.337037 90.785362 90.785362 0 0 1-1.172938-11.494788 93.834999 93.834999 0 0 1 42.929513-78.586812 164.211249 164.211249 0 0 0 50.905487 8.210563 158.581149 158.581149 0 0 0 42.460337-5.864688 164.211249 164.211249 0 0 0 38.47235 29.558025 93.834999 93.834999 0 0 1 12.902312 46.9175 93.834999 93.834999 0 0 1-93.834999 94.304174zM637.374233 609.953066a161.865374 161.865374 0 0 0-101.810974 0A93.834999 93.834999 0 0 1 563.009996 440.815479c21.58205 8.44515 81.167274 33.546012 93.834999 27.915913a93.834999 93.834999 0 0 1-18.532412 140.752499z m19.470762-227.315286a164.211249 164.211249 0 0 0-138.875799 0L511.400746 375.365567a162.099961 162.099961 0 0 0-17.594062-44.337037 90.785362 90.785362 0 0 1-1.172938-11.494787 93.834999 93.834999 0 1 1 164.211249 62.400274z m87.26655 99.230511h2.345875a93.834999 93.834999 0 1 1-30.496375 182.509074 125.269724 125.269724 0 0 0-13.840663-15.482775 164.211249 164.211249 0 0 0 41.991163-166.791711zM891.432493 343.696255s-46.9175-117.293749-46.917499-164.211249c0-70.376249 46.9175-70.376249 46.917499-70.376249s46.9175 0 46.9175 70.376249c0 46.9175-46.9175 164.211249-46.9175 164.211249z" /></svg>