<?xml version="1.0" standalone="no"?><!DOCTYPE svg PUBLIC "-//W3C//DTD SVG 1.1//EN" "http://www.w3.org/Graphics/SVG/1.1/DTD/svg11.dtd"><svg class="icon" width="200px" height="181.72px" viewBox="0 0 1127 1024" version="1.1" xmlns="http://www.w3.org/2000/svg"><path fill="#333333" d="M1097.373348 341.849c-59.317478-118.634957-177.952435-266.928652-306.374775-336.626689a42.708584 42.708584 0 0 0-40.92906 0L72.367323 372.990676A88.976217 88.976217 0 0 0 0 460.483956v474.539827a88.976217 88.976217 0 0 0 88.976217 88.976217h949.079653a88.976217 88.976217 0 0 0 88.976217-88.976217v-474.539827a368.954715 368.954715 0 0 0-29.658739-118.634956z m-326.246131-246.167535a523.180158 523.180158 0 0 1 231.93134 275.826274h-741.468478z m148.293696 364.802491a109.737335 109.737335 0 0 1-118.634956 118.634957c-73.553673 0-148.293696-45.081283-148.293696-118.634957z m118.634957 474.539827H88.976217V465.229355l9.19421-4.745399H563.516044c0 122.490593 114.482733 207.611174 237.269913 207.611174 177.952435 0 207.611174-207.611174 207.611174-207.611174a247.057297 247.057297 0 0 1 29.658739 0z"  /><path fill="#333333" d="M355.90487 549.460174a148.293696 148.293696 0 1 0 148.293695 148.293696 148.293696 148.293696 0 0 0-148.293695-148.293696z m0 207.611174a59.317478 59.317478 0 1 1 59.317478-59.317478 59.317478 59.317478 0 0 1-59.317478 59.317478z"  /><path fill="#333333" d="M741.468478 252.872783m-44.488108 0a44.488109 44.488109 0 1 0 88.976217 0 44.488109 44.488109 0 1 0-88.976217 0Z"  /></svg>