<?xml version="1.0" standalone="no"?><!DOCTYPE svg PUBLIC "-//W3C//DTD SVG 1.1//EN" "http://www.w3.org/Graphics/SVG/1.1/DTD/svg11.dtd"><svg class="icon" width="200px" height="200.00px" viewBox="0 0 1024 1024" version="1.1" xmlns="http://www.w3.org/2000/svg"><path fill="#333333" d="M952.850929 415.513892a65.413433 65.413433 0 0 0-9.882605-9.882605q27.530114-64.236933 10.117905-104.708553a74.825438 74.825438 0 0 0-16.235708-23.530012 146.827274 146.827274 0 0 0-37.883319-125.650263 90.825846 90.825846 0 0 0-95.296548-21.412311 115.767659 115.767659 0 0 0-50.354226-76.472539 134.356368 134.356368 0 0 0-144.474273-2.588301A124.709063 124.709063 0 0 0 497.545199 0.444482a126.356164 126.356164 0 0 0-109.649856 48.236524c-33.412617-17.647509-86.590444-28.941915-162.357082 1.411801a135.532869 135.532869 0 0 0-83.766842 81.178541 148.003775 148.003775 0 0 0-1.176501 83.296242 92.237647 92.237647 0 0 0-17.647509 7.529604 129.415066 129.415066 0 0 0-59.76623 87.531644C46.474871 376.924672 60.592878 417.396293 76.828586 440.691005a67.295834 67.295834 0 0 0 0 34.824417l117.650059 494.13025a70.590036 70.590036 0 0 0 67.766435 54.354328h517.660262a70.590036 70.590036 0 0 0 68.472334-54.354328l117.65006-494.13025a70.590036 70.590036 0 0 0-13.176807-60.00153z m-821.197415-88.943445a68.472335 68.472335 0 0 1 24.941812-42.354021 30.824316 30.824316 0 0 1 16.706309-4.000102 40.942221 40.942221 0 0 1 7.764904 0 35.059718 35.059718 0 0 0 38.589219-11.294406A36.000918 36.000918 0 0 0 222.71466 228.685597a105.649753 105.649753 0 0 1-13.176807-75.766638 67.531134 67.531134 0 0 1 42.118721-37.412719c86.355144-34.353817 119.29716 6.353103 122.356062 10.353205a35.295018 35.295018 0 0 0 39.53042 14.353308 35.765618 35.765618 0 0 0 25.177113-33.883217c0-3.529502 1.647101-35.295018 58.82503-35.295018 51.530726 0 58.119129 25.177113 58.82503 35.295018a35.059718 35.059718 0 0 0 21.17701 32.236116 35.530318 35.530318 0 0 0 38.11862-6.353103c2.117701-2.117701 55.060228-50.118925 96.708349-20.706411a50.589526 50.589526 0 0 1 13.647406 70.590036 35.295018 35.295018 0 0 0 55.060228 43.295222s47.060024-44.001122 68.001735-23.530012c30.589015 30.824316 15.059208 81.178541 14.823907 81.649141a35.765618 35.765618 0 0 0 23.530012 45.177623c0 2.117701 5.647203 17.647509-14.588607 60.00153h-141.180072a70.590036 70.590036 0 0 0-67.060534 48.236525 149.180276 149.180276 0 0 1-144.709573 92.943547 149.415576 149.415576 0 0 1-145.180173-94.120048 70.590036 70.590036 0 0 0-66.589934-47.060024h-164.710083a79.76674 79.76674 0 0 0-15.059208 1.647101 120.708961 120.708961 0 0 1 3.294202-63.766332zM779.905342 953.409964h-517.660262l-117.65006-494.13025h164.710084a220.946812 220.946812 0 0 0 211.770107 141.180072 220.946812 220.946812 0 0 0 211.770107-141.180072h164.710083z"  /><path fill="#333333" d="M356.365127 376.924672a31.294916 31.294916 0 0 0 11.059106-1.8824A35.059718 35.059718 0 0 0 389.777744 329.864649a38.118619 38.118619 0 0 1 0-21.647611 27.294814 27.294814 0 0 1 14.353308-2.588302 68.237035 68.237035 0 0 1 62.354531 27.530114 35.530318 35.530318 0 0 0 39.53042 18.58871 36.236218 36.236218 0 0 0 27.530114-34.118518A55.530828 55.530828 0 0 1 591.665246 259.274613a55.530828 55.530828 0 0 1 58.82503 58.82503 35.295018 35.295018 0 0 0 70.590036 0 125.885564 125.885564 0 0 0-129.415066-129.415066A120.708961 120.708961 0 0 0 479.19179 253.62741a155.768679 155.768679 0 0 0-75.766639-17.882809 82.590342 82.590342 0 0 0-70.590036 31.765516 101.884952 101.884952 0 0 0-10.117905 85.884544 35.530318 35.530318 0 0 0 33.647917 23.530011z"  /></svg>