<?xml version="1.0" standalone="no"?><!DOCTYPE svg PUBLIC "-//W3C//DTD SVG 1.1//EN" "http://www.w3.org/Graphics/SVG/1.1/DTD/svg11.dtd"><svg class="icon" width="200px" height="200.00px" viewBox="0 0 1024 1024" version="1.1" xmlns="http://www.w3.org/2000/svg"><path fill="#333333" d="M763.082161 151.06221a279.191191 279.191191 0 0 0-490.678517-10.004351A279.191191 279.191191 0 0 0 0.192233 414.432567a268.488862 268.488862 0 0 0 190.547987 267.092906l33.735603 209.393393a69.797798 69.797798 0 0 0 25.825185 43.739953A459.734827 459.734827 0 0 0 499.711805 1024a458.338871 458.338871 0 0 0 252.900687-78.638852 69.797798 69.797798 0 0 0 27.68646-42.576657l42.343997-207.997437A268.488862 268.488862 0 0 0 1023.893265 435.371906 279.191191 279.191191 0 0 0 763.082161 151.06221z m-51.185051 737.530062A387.145118 387.145118 0 0 1 501.107761 954.202202a387.377777 387.377777 0 0 1-207.764778-73.985665l-6.281802-39.319426c44.90325 29.780394 132.615816 78.638852 223.120294 78.638852 73.520347 0 153.089836-32.572306 207.764777-60.258766z m51.883029-255.925258L736.326339 768.074742c-33.037624 20.241361-139.595595 80.732786-226.144864 80.732786-102.370103 0-209.393393-84.687995-210.78935-85.385973a34.898899 34.898899 0 0 0-26.057844-7.445098l-21.404658-133.546453A201.017657 201.017657 0 0 1 69.99003 415.828523a209.393393 209.393393 0 0 1 245.920908-201.715636 209.393393 209.393393 0 0 1 400.406699 8.143077 214.744558 214.744558 0 0 1 32.572306-2.093934A209.393393 209.393393 0 0 1 954.095468 433.97595a200.319679 200.319679 0 0 1-190.315329 199.621702z"  /><path fill="#333333" d="M300.788081 266.228576v-1.395956c-139.595595 0-174.494494 111.443817-174.494494 171.702583 0 19.310724 15.588175 29.082416 34.66624 29.082415s34.66624-10.004351 34.898899-29.082415a96.088301 96.088301 0 0 1 104.696696-99.345532A35.364217 35.364217 0 0 0 335.68698 302.756091a33.270284 33.270284 0 0 0-34.898899-36.527515z"  /></svg>