<?xml version="1.0" standalone="no"?><!DOCTYPE svg PUBLIC "-//W3C//DTD SVG 1.1//EN" "http://www.w3.org/Graphics/SVG/1.1/DTD/svg11.dtd"><svg class="icon" width="200px" height="200.00px" viewBox="0 0 1024 1024" version="1.1" xmlns="http://www.w3.org/2000/svg"><path fill="#333333" d="M512 302.545455a209.454545 209.454545 0 1 0 209.454545 209.454545 209.454545 209.454545 0 0 0-209.454545-209.454545z m0 349.090909a139.636364 139.636364 0 1 1 139.636364-139.636364 139.636364 139.636364 0 0 1-139.636364 139.636364z"  /><path fill="#333333" d="M512 0a512 512 0 1 0 512 512A512 512 0 0 0 512 0z m0 954.181818A442.181818 442.181818 0 0 1 69.818182 512a411.461818 411.461818 0 0 1 3.258182-51.2c34.443636 31.185455 63.069091 67.490909 56.785454 86.807273-21.178182 63.301818 20.014545 172.683636 78.429091 209.454545a74.007273 74.007273 0 0 0 80.058182 2.094546v2.327272c10.705455 39.098182 30.952727 111.709091 106.589091 111.709091 69.818182 0 103.563636-33.512727 117.992727-64.465454 73.076364 10.705455 249.018182 20.945455 392.378182-96.349091A442.181818 442.181818 0 0 1 512 954.181818z m-14.196364-219.927273A34.909091 34.909091 0 0 0 453.818182 768c0 3.490909-1.629091 34.909091-58.181818 34.909091-17.687273 0-26.298182-13.032727-39.330909-60.509091-7.912727-28.625455-16.058182-58.414545-46.545455-66.327273a57.483636 57.483636 0 0 0-56.087273 20.712728 10.472727 10.472727 0 0 1-3.723636 2.792727c-1.861818 0-10.938182-3.258182-23.272727-20.247273-24.203636-32.349091-39.098182-84.712727-30.72-109.847273 24.901818-74.24-60.741818-151.272727-106.821819-186.181818A442.181818 442.181818 0 0 1 954.181818 512c0 13.265455 0 26.298182-1.861818 39.098182-153.6 258.56-441.949091 186.414545-454.516364 183.156363z"  /><path fill="#333333" d="M407.272727 174.545455m-34.909091 0a34.909091 34.909091 0 1 0 69.818182 0 34.909091 34.909091 0 1 0-69.818182 0Z"  /><path fill="#333333" d="M826.181818 360.727273m-34.909091 0a34.909091 34.909091 0 1 0 69.818182 0 34.909091 34.909091 0 1 0-69.818182 0Z"  /><path fill="#333333" d="M640 244.363636m-34.909091 0a34.909091 34.909091 0 1 0 69.818182 0 34.909091 34.909091 0 1 0-69.818182 0Z"  /><path fill="#333333" d="M814.545455 558.545455m-34.909091 0a34.909091 34.909091 0 1 0 69.818181 0 34.909091 34.909091 0 1 0-69.818181 0Z"  /><path fill="#333333" d="M267.636364 337.454545m-34.909091 0a34.909091 34.909091 0 1 0 69.818182 0 34.909091 34.909091 0 1 0-69.818182 0Z"  /></svg>