<?xml version="1.0" standalone="no"?><!DOCTYPE svg PUBLIC "-//W3C//DTD SVG 1.1//EN" "http://www.w3.org/Graphics/SVG/1.1/DTD/svg11.dtd"><svg class="icon" width="200px" height="200.00px" viewBox="0 0 1024 1024" version="1.1" xmlns="http://www.w3.org/2000/svg"><path fill="#333333" d="M1012.093023 500.093023a35.72093 35.72093 0 0 0-71.44186 0c0 32.863256-11.668837 309.581395-416.744186 309.581396C95.255814 809.674419 83.348837 550.578605 83.348837 547.72093c0-25.71907 7.620465-261.953488 273.860465-261.953488 283.386047 0 285.767442 180.509767 285.767442 214.325581 0 78.824186-110.020465 142.883721-190.511628 142.883721s-166.697674-71.44186-166.697674-119.069767 67.393488-95.255814 119.069767-95.255814a80.967442 80.967442 0 0 1 71.441861 47.627907c-2.143256 9.287442 0 35.72093-23.813954 35.72093a58.582326 58.582326 0 0 1-14.526511-1.428837A35.72093 35.72093 0 0 0 369.116279 523.906977c0 20.48 17.384186 47.627907 83.348837 47.627907a91.207442 91.207442 0 0 0 95.255814-95.255814c0-43.103256-53.105116-119.069767-142.883721-119.069768-85.968372 0-190.511628 71.44186-190.511628 166.697675 0 91.92186 121.927442 190.511628 238.139535 190.511628 111.925581 0 261.953488-84.063256 261.953489-214.325582 0-28.100465 1.666977-285.767442-357.209303-285.767442C15.955349 214.325581 11.906977 534.623256 11.906977 547.72093c0 95.255814 91.92186 333.395349 512 333.395349C909.216744 881.116279 1012.093023 646.072558 1012.093023 500.093023zM750.139535 214.325581a107.162791 107.162791 0 1 0-107.162791-107.16279A107.40093 107.40093 0 0 0 750.139535 214.325581z m0-142.883721a35.72093 35.72093 0 1 1-35.72093 35.720931A35.72093 35.72093 0 0 1 750.139535 71.44186z"  /><path fill="#333333" d="M893.023256 297.674419m-35.72093 0a35.72093 35.72093 0 1 0 71.44186 0 35.72093 35.72093 0 1 0-71.44186 0Z"  /><path fill="#333333" d="M369.116279 35.72093m-35.72093 0a35.72093 35.72093 0 1 0 71.44186 0 35.72093 35.72093 0 1 0-71.44186 0Z"  /><path fill="#333333" d="M202.418605 130.976744m-35.720931 0a35.72093 35.72093 0 1 0 71.441861 0 35.72093 35.72093 0 1 0-71.441861 0Z"  /><path fill="#333333" d="M916.837209 869.209302m-35.72093 0a35.72093 35.72093 0 1 0 71.441861 0 35.72093 35.72093 0 1 0-71.441861 0Z"  /><path fill="#333333" d="M59.534884 250.046512m-35.720931 0a35.72093 35.72093 0 1 0 71.441861 0 35.72093 35.72093 0 1 0-71.441861 0Z"  /><path fill="#333333" d="M512 178.604651m-35.72093 0a35.72093 35.72093 0 1 0 71.44186 0 35.72093 35.72093 0 1 0-71.44186 0Z"  /><path fill="#333333" d="M142.883721 869.209302m-35.72093 0a35.72093 35.72093 0 1 0 71.44186 0 35.72093 35.72093 0 1 0-71.44186 0Z"  /><path fill="#333333" d="M392.930233 964.465116m-35.720931 0a35.72093 35.72093 0 1 0 71.441861 0 35.72093 35.72093 0 1 0-71.441861 0Z"  /><path fill="#333333" d="M678.697674 988.27907m-35.72093 0a35.72093 35.72093 0 1 0 71.441861 0 35.72093 35.72093 0 1 0-71.441861 0Z"  /><path fill="#333333" d="M821.581395 559.627907m-35.72093 0a35.72093 35.72093 0 1 0 71.441861 0 35.72093 35.72093 0 1 0-71.441861 0Z"  /></svg>