<?xml version="1.0" standalone="no"?><!DOCTYPE svg PUBLIC "-//W3C//DTD SVG 1.1//EN" "http://www.w3.org/Graphics/SVG/1.1/DTD/svg11.dtd"><svg class="icon" width="200px" height="200.00px" viewBox="0 0 1024 1024" version="1.1" xmlns="http://www.w3.org/2000/svg"><path fill="#333333" d="M512 0a512 512 0 1 0 512 512A512 512 0 0 0 512 0z m0 954.181818a442.181818 442.181818 0 1 1 442.181818-442.181818 442.181818 442.181818 0 0 1-442.181818 442.181818z"  /><path fill="#333333" d="M706.094545 256L418.909091 414.254545l-1.629091 1.163637-3.025455 2.094545-3.258181 2.792728-2.327273 2.792727-2.56 3.723636v1.396364L246.923636 721.454545a34.909091 34.909091 0 0 0 30.952728 51.432728 32.814545 32.814545 0 0 0 16.756363-4.421818L581.818182 609.745455l1.629091-1.163637 3.025454-2.094545 3.258182-2.792728 2.327273-2.792727 2.56-3.723636v-1.396364L753.803636 302.545455a34.909091 34.909091 0 0 0-47.709091-46.545455zM364.450909 651.636364L442.181818 503.389091l65.861818 67.490909zM558.545455 520.610909l-65.861819-67.490909L636.276364 372.363636zM861.090909 488.727273h-69.818182a23.272727 23.272727 0 0 0 0 46.545454h69.818182a23.272727 23.272727 0 0 0 0-46.545454zM256 512a23.272727 23.272727 0 0 0-23.272727-23.272727H162.909091a23.272727 23.272727 0 0 0 0 46.545454h69.818182a23.272727 23.272727 0 0 0 23.272727-23.272727zM512 768a23.272727 23.272727 0 0 0-23.272727 23.272727v69.818182a23.272727 23.272727 0 0 0 46.545454 0v-69.818182a23.272727 23.272727 0 0 0-23.272727-23.272727zM512 256a23.272727 23.272727 0 0 0 23.272727-23.272727V162.909091a23.272727 23.272727 0 0 0-46.545454 0v69.818182a23.272727 23.272727 0 0 0 23.272727 23.272727z"  /></svg>