<?xml version="1.0" standalone="no"?><!DOCTYPE svg PUBLIC "-//W3C//DTD SVG 1.1//EN" "http://www.w3.org/Graphics/SVG/1.1/DTD/svg11.dtd"><svg class="icon" width="200px" height="200.00px" viewBox="0 0 1024 1024" version="1.1" xmlns="http://www.w3.org/2000/svg"><path fill="#333333" d="M483.229833 68.99798S511.999309 84.601764 511.999309 109.714103c0 9.264746-13.165692 22.430439-25.843766 35.108513A124.34265 124.34265 0 0 0 438.856574 231.618662a124.098841 124.098841 0 0 0 68.99798 105.813157 34.864704 34.864704 0 0 0 16.091402 3.900945 36.571368 36.571368 0 0 0 16.822829-69.241789S511.999309 256.731001 511.999309 231.618662c0-9.264746 13.165692-22.430439 25.843767-35.108513A124.34265 124.34265 0 0 0 585.142044 109.714103 124.098841 124.098841 0 0 0 516.144064 3.900946a36.571368 36.571368 0 0 0-32.914231 65.097034zM629.515304 68.99798S658.28478 84.601764 658.28478 109.714103c0 9.264746-13.165692 22.430439-25.843767 35.108513A124.34265 124.34265 0 0 0 585.142044 231.618662a124.098841 124.098841 0 0 0 68.997981 105.813157 34.864704 34.864704 0 0 0 16.091401 3.900945 36.571368 36.571368 0 0 0 16.82283-69.241789S658.28478 256.731001 658.28478 231.618662c0-9.264746 13.165692-22.430439 25.843766-35.108513A124.34265 124.34265 0 0 0 731.427515 109.714103 124.098841 124.098841 0 0 0 662.429535 3.900946a36.571368 36.571368 0 0 0-32.914231 65.097034zM292.571103 231.618662a124.098841 124.098841 0 0 0 68.997981 105.813157 34.864704 34.864704 0 0 0 16.091401 3.900945 36.571368 36.571368 0 0 0 16.82283-69.241789S365.713839 256.731001 365.713839 231.618662c0-9.264746 13.165692-22.430439 25.843766-35.108513A124.34265 124.34265 0 0 0 438.856574 109.714103 124.098841 124.098841 0 0 0 369.858594 3.900946a36.571368 36.571368 0 0 0-32.914231 65.097034S365.713839 84.601764 365.713839 109.714103c0 9.264746-13.165692 22.430439-25.843767 35.108513A124.34265 124.34265 0 0 0 292.571103 231.618662zM907.945316 557.103833A483.717289 483.717289 0 0 0 926.474809 451.046867a73.142735 73.142735 0 0 0-73.142735-73.142735H170.666545a73.142735 73.142735 0 0 0-73.142735 73.142735 316.951853 316.951853 0 0 0 189.927302 290.13285l-136.045488 227.473907a36.815177 36.815177 0 0 0 12.678075 50.224678 37.546604 37.546604 0 0 0 18.773302 5.119991 36.571368 36.571368 0 0 0 31.451376-17.798065l146.28547-243.809118a312.319479 312.319479 0 0 0 53.881815 5.60761h48.761824v219.428206a36.571368 36.571368 0 0 0 73.142735 0v-219.428206h73.142735a320.608989 320.608989 0 0 0 55.588479-5.119991l144.578807 243.809117a36.571368 36.571368 0 0 0 31.451376 17.310447 37.546604 37.546604 0 0 0 18.773302-5.119991 36.815177 36.815177 0 0 0 12.678074-50.224678l-135.31406-227.717716a319.146135 319.146135 0 0 0 170.666382-183.832075zM170.666545 499.808691v-48.761824h682.665529v48.761824z m509.317246 184.563502a36.083749 36.083749 0 0 0-12.190456 3.169518 243.809117 243.809117 0 0 1-58.270379 7.314274h-195.047294a257.462428 257.462428 0 0 1-219.428205-121.904559h633.903705a263.070038 263.070038 0 0 1-148.967371 111.420767z" /></svg>