<?xml version="1.0" standalone="no"?><!DOCTYPE svg PUBLIC "-//W3C//DTD SVG 1.1//EN" "http://www.w3.org/Graphics/SVG/1.1/DTD/svg11.dtd"><svg class="icon" width="200px" height="154.57px" viewBox="0 0 1325 1024" version="1.1" xmlns="http://www.w3.org/2000/svg"><path fill="#333333" d="M662.588235 271.058824a301.176471 301.176471 0 1 0 301.176471 301.17647A301.176471 301.176471 0 0 0 662.588235 271.058824z m0 512a210.823529 210.823529 0 1 1 210.82353-210.82353 210.823529 210.823529 0 0 1-210.82353 210.82353z"  /><path fill="#333333" d="M1234.823529 180.705882h-222.569411L918.588235 40.357647A90.352941 90.352941 0 0 0 843.294118 0H481.882353a90.352941 90.352941 0 0 0-75.294118 40.357647L312.922353 180.705882H301.176471V150.588235a90.352941 90.352941 0 0 0-90.352942-90.352941H180.705882a90.352941 90.352941 0 0 0-90.352941 90.352941v30.117647a90.352941 90.352941 0 0 0-90.352941 90.352942v662.588235a90.352941 90.352941 0 0 0 90.352941 90.352941h1144.470588a90.352941 90.352941 0 0 0 90.352942-90.352941V271.058824a90.352941 90.352941 0 0 0-90.352942-90.352942zM180.705882 150.588235h30.117647v30.117647H180.705882z m1054.117647 783.058824H90.352941V271.058824h271.058824l120.470588-180.705883h361.411765l120.470588 180.705883h271.058823z"  /><path fill="#333333" d="M1069.176471 406.588235m-45.176471 0a45.176471 45.176471 0 1 0 90.352941 0 45.176471 45.176471 0 1 0-90.352941 0Z"  /></svg>