<?xml version="1.0" standalone="no"?><!DOCTYPE svg PUBLIC "-//W3C//DTD SVG 1.1//EN" "http://www.w3.org/Graphics/SVG/1.1/DTD/svg11.dtd"><svg class="icon" width="200px" height="188.41px" viewBox="0 0 1087 1024" version="1.1" xmlns="http://www.w3.org/2000/svg"><path fill="#333333" d="M925.139753 0h-3.034074a74.334815 74.334815 0 0 0-28.318025 5.562469l-86.72395 28.823704A834.37037 834.37037 0 0 1 543.099259 75.851852a834.37037 834.37037 0 0 1-263.711605-40.454321L192.410864 5.30963A79.138765 79.138765 0 0 0 164.345679 0h-2.528395C68.013827 1.264198 0 64.726914 0 151.703704c0 66.49679 59.164444 141.590123 132.99358 170.413827l7.079506 2.781234 91.275062 30.340741a986.074074 986.074074 0 0 0 151.703704 37.673087A37.925926 37.925926 0 0 0 353.975309 425.528889c-1.517037 14.917531-14.159012 147.405432 52.337777 221.993086a141.842963 141.842963 0 0 0 86.471112 45.763951V986.074074a37.925926 37.925926 0 0 0 75.851851 0V691.26321a143.36 143.36 0 0 0 86.976791-46.01679c66.243951-74.081975 53.601975-205.05284 50.567901-219.717531a38.178765 38.178765 0 0 0-21.997037-30.340741 981.522963 981.522963 0 0 0 169.908148-39.948642l91.275062-30.340741 7.079506-2.781234C1027.286914 293.293827 1087.209877 218.200494 1087.209877 151.703704c0-86.97679-68.519506-150.186667-162.070124-151.703704zM598.723951 594.678519a63.968395 63.968395 0 0 1-30.340741 18.962962V455.111111a37.925926 37.925926 0 0 0-75.851852 0v160.553087a64.474074 64.474074 0 0 1-29.835062-18.710124C425.276049 556.246914 425.781728 465.224691 429.82716 433.872593a37.925926 37.925926 0 0 0-20.22716-37.420247 1028.551111 1028.551111 0 0 0 134.004938 9.102222 999.474568 999.474568 0 0 0 103.158519-5.562469 38.178765 38.178765 0 0 0-14.664692 34.133333c3.034074 28.318025 3.792593 119.087407-33.374814 160.553087zM922.358519 252.839506l-91.275062 30.59358A911.739259 911.739259 0 0 1 543.099259 328.691358a910.222222 910.222222 0 0 1-287.731358-45.258272L163.84 252.839506C111.755062 234.382222 75.851852 181.033086 75.851852 151.703704c0-48.798025 39.442963-75.851852 87.988148-75.851852l91.275062 30.340741A910.222222 910.222222 0 0 0 543.099259 151.703704a908.452346 908.452346 0 0 0 287.984198-45.258272L922.358519 75.851852C971.156543 75.851852 1011.358025 102.905679 1011.358025 151.703704c0 29.329383-36.661728 82.678519-88.999506 101.135802z" /></svg>