<?xml version="1.0" standalone="no"?><!DOCTYPE svg PUBLIC "-//W3C//DTD SVG 1.1//EN" "http://www.w3.org/Graphics/SVG/1.1/DTD/svg11.dtd"><svg class="icon" width="200px" height="188.24px" viewBox="0 0 1088 1024" version="1.1" xmlns="http://www.w3.org/2000/svg"><path fill="#333333" d="M1056.863256 545.815814a25.48093 25.48093 0 0 0-3.810233-3.333954l-86.444651-62.392558a71.44186 71.44186 0 0 0 6.191628-27.624186v-142.883721a71.44186 71.44186 0 0 0-71.44186-71.44186h-47.627907a71.44186 71.44186 0 0 0-71.441861 71.44186v37.387907l-119.069767-85.968372V142.883721c0-80.014884-52.390698-142.883721-119.069768-142.883721s-119.069767 62.868837-119.069767 142.883721v119.069767l-119.069768 85.968372V309.581395a71.44186 71.44186 0 0 0-71.44186-71.44186h-47.627907a71.44186 71.44186 0 0 0-71.441861 71.44186v142.883721a71.44186 71.44186 0 0 0 5.715349 27.862326l-86.206511 62.154418a25.48093 25.48093 0 0 0-3.810233 3.333954 93.112558 93.112558 0 0 0-17.384186 116.450233 79.062326 79.062326 0 0 0 69.774884 33.101395 147.884651 147.884651 0 0 0 43.817674-6.906047l297.674419-105.495814v89.778605l-138.12093 103.590698a71.44186 71.44186 0 0 0 42.865116 128.595349h111.925581c18.813023 73.823256 47.627907 119.069767 102.4 119.069767s83.348837-45.246512 102.161861-119.069767h112.163721A71.44186 71.44186 0 0 0 809.674419 783.002791l-142.883721-142.883721-2.857675-2.381396v-54.772093l298.150698 105.972093a142.883721 142.883721 0 0 0 42.150698 6.667907 79.062326 79.062326 0 0 0 70.013023-33.339534 92.874419 92.874419 0 0 0-17.384186-116.450233zM186.939535 309.581395h47.627907v88.826047l-47.627907 34.530232zM105.019535 620.591628a75.252093 75.252093 0 0 1-30.95814 3.095814c-6.429767-10.00186 1.905116-20.956279 5.23907-25.004651l345.778605-249.570233v158.124651zM329.823256 833.488372l95.255814-71.44186v47.627907a77.395349 77.395349 0 0 0 0 10.478139c0 4.524651 1.428837 8.811163 1.905116 13.335814z m261.953488-23.813953s-21.194419 142.883721-47.627907 142.883721-47.627907-142.883721-47.627907-142.883721V142.883721c0-39.531163 21.194419-71.44186 47.627907-71.441861s47.627907 31.910698 47.627907 71.441861z m166.697675 23.813953h-98.113489c0-4.524651 1.428837-8.811163 1.905117-13.335814a77.871628 77.871628 0 0 0 0-10.478139v-71.441861z m95.255814-523.906977h47.627907v123.356279l-47.627907-34.530232z m161.458604 312.915349a58.820465 58.820465 0 0 1-30.48186-1.190697l-321.488372-114.068838v-158.124651l345.302325 249.332093c4.048372 4.524651 11.906977 15.24093 6.667907 24.052093z" /></svg>