<?xml version="1.0" standalone="no"?><!DOCTYPE svg PUBLIC "-//W3C//DTD SVG 1.1//EN" "http://www.w3.org/Graphics/SVG/1.1/DTD/svg11.dtd"><svg class="icon" width="200px" height="200.00px" viewBox="0 0 1024 1024" version="1.1" xmlns="http://www.w3.org/2000/svg"><path fill="#333333" d="M875.14577 59.743435A73.142091 73.142091 0 0 0 802.003679 0.010728H460.673921a48.761394 48.761394 0 0 0-21.69882 5.363753A71.435442 71.435442 0 0 0 411.912528 0.010728H216.866952a73.142091 73.142091 0 0 0-73.142091 73.14209v146.284182a73.142091 73.142091 0 0 0 48.761394 68.753566A26.818767 26.818767 0 0 0 192.486255 292.579091v658.278818a73.142091 73.142091 0 0 0 73.142091 73.142091h97.522788a73.142091 73.142091 0 0 0 73.142091-73.142091V323.298769l198.946487 151.891742a71.435442 71.435442 0 0 0 44.860482 13.896998 73.142091 73.142091 0 0 0 48.761394-19.260751 520.040266 520.040266 0 0 0 116.052118-170.664879A438.852545 438.852545 0 0 0 875.14577 59.743435zM363.151134 950.857909H265.628346V292.579091h97.522788z m48.761394-731.420909H216.866952V73.152818h195.045576z m170.664878 119.953029l-107.275066-84.113404A71.679249 71.679249 0 0 0 485.054618 219.437V73.152818h207.235925c0 43.885255-5.60756 124.585361-20.479786 154.329812A416.666111 416.666111 0 0 1 582.577406 339.390029zM777.622982 268.198394a448.604824 448.604824 0 0 1-97.522788 146.284182l-38.033887-29.500643a480.787344 480.787344 0 0 0 95.084718-124.829169C764.701213 205.296196 765.432634 86.562202 765.432634 73.152818H802.003679a368.879945 368.879945 0 0 1-24.380697 195.045576z" /></svg>