<?xml version="1.0" standalone="no"?><!DOCTYPE svg PUBLIC "-//W3C//DTD SVG 1.1//EN" "http://www.w3.org/Graphics/SVG/1.1/DTD/svg11.dtd"><svg class="icon" width="200px" height="200.00px" viewBox="0 0 1024 1024" version="1.1" xmlns="http://www.w3.org/2000/svg"><path fill="#333333" d="M1011.385997 537.600243a127.999936 127.999936 0 0 0-236.543882-67.071966l-169.471915-43.007979a126.463937 126.463937 0 0 0-188.671906-98.81595L256.186374 183.04042A127.999936 127.999936 0 1 0 140.986432 256.000384a125.951937 125.951937 0 0 0 62.463969-16.895992L363.962321 384.00032a127.999936 127.999936 0 0 0-13.311994 55.551972 127.999936 127.999936 0 0 0 76.799962 117.503941l-8.703996 111.615945a127.999936 127.999936 0 1 0 134.143933 197.119901L652.986176 896.000064a127.999936 127.999936 0 1 0 197.631901-108.287946L886.202059 665.600179A127.999936 127.999936 0 0 0 1011.385997 537.600243zM140.986432 179.200422a51.199974 51.199974 0 1 1 51.199974-51.199974 51.199974 51.199974 0 0 1-51.199974 51.199974z m286.463857 260.86387a51.199974 51.199974 0 1 1 51.199974 51.199974 51.199974 51.199974 0 0 1-51.199974-51.199974zM448.186278 844.80009a51.199974 51.199974 0 1 1 51.199975-51.199975 51.199974 51.199974 0 0 1-51.199975 51.199975z m227.327887-20.99199L576.186214 793.600115a127.999936 127.999936 0 0 0-80.383959-118.015941l8.447995-109.567945a127.999936 127.999936 0 0 0 85.503958-62.719969L755.386125 545.024239a127.999936 127.999936 0 0 0 56.319972 99.071951L776.378114 768.000128a127.999936 127.999936 0 0 0-100.863949 55.807972zM780.986112 947.200038a51.199974 51.199974 0 1 1 51.199974-51.199974 51.199974 51.199974 0 0 1-51.199974 51.199974z m51.199974-409.599795a51.199974 51.199974 0 1 1 51.199975 51.199975 51.199974 51.199974 0 0 1-51.199975-51.199975z" /></svg>