<?xml version="1.0" standalone="no"?><!DOCTYPE svg PUBLIC "-//W3C//DTD SVG 1.1//EN" "http://www.w3.org/Graphics/SVG/1.1/DTD/svg11.dtd"><svg class="icon" width="200px" height="186.52px" viewBox="0 0 1098 1024" version="1.1" xmlns="http://www.w3.org/2000/svg"><path fill="#333333" d="M420.844269 574.439024h32.468293c38.712195 49.95122 113.389268 112.390244 196.058537 112.390244A218.536585 218.536585 0 1 0 649.371099 249.756098H224.785733c-124.878049 0-224.780488 89.662439-224.780488 212.292682a229.525854 229.525854 0 0 0 224.780488 231.024391c87.914146 0 159.094634-68.682927 196.058536-118.634147zM224.785733 615.149268a149.853659 149.853659 0 0 1-149.853659-149.853658A142.11122 142.11122 0 0 1 224.785733 324.682927h424.585366a142.11122 142.11122 0 0 1 149.853658 140.612683 149.853659 149.853659 0 0 1-149.853658 149.853658A164.839024 164.839024 0 0 1 501.765245 499.512195h-129.373659A164.839024 164.839024 0 0 1 224.785733 615.149268z"  /><path fill="#333333" d="M1079.451099 124.878049C975.552562 9.990244 959.568172 0 924.102806 0a74.926829 74.926829 0 0 0-74.926829 74.926829v99.902439a74.926829 74.926829 0 0 0 74.926829 74.92683v424.585365c0 1.24878 0 274.731707-224.780488 274.731708-164.339512 0-201.802927-101.900488-210.044878-149.853659H524.49305a37.463415 37.463415 0 0 0 0-74.926829h-149.853659a37.463415 37.463415 0 0 0 0 74.926829h39.211708c10.739512 88.663415 78.922927 224.780488 285.471219 224.780488 299.707317 0 299.707317-344.913171 299.707317-349.658537V249.756098h24.97561a74.926829 74.926829 0 0 0 55.445854-124.878049zM924.102806 174.829268V74.926829c9.240976 0 99.902439 99.902439 99.902439 99.902439z"  /><path fill="#333333" d="M649.371099 586.926829a37.463415 37.463415 0 0 0 0-74.926829 71.929756 71.929756 0 0 1-64.437074-49.95122 37.463415 37.463415 0 0 0-70.930731 24.97561 145.358049 145.358049 0 0 0 135.367805 99.902439zM224.785733 512a71.929756 71.929756 0 0 1-64.437073-49.95122 37.463415 37.463415 0 0 0-70.930732 24.97561 145.358049 145.358049 0 0 0 135.367805 99.902439 37.463415 37.463415 0 0 0 0-74.926829z"  /></svg>