<?xml version="1.0" standalone="no"?><!DOCTYPE svg PUBLIC "-//W3C//DTD SVG 1.1//EN" "http://www.w3.org/Graphics/SVG/1.1/DTD/svg11.dtd"><svg class="icon" width="200px" height="200.00px" viewBox="0 0 1024 1024" version="1.1" xmlns="http://www.w3.org/2000/svg"><path fill="#333333" d="M769.365333 402.545778a359.537778 359.537778 0 0 0-122.197333-80.554667A111.729778 111.729778 0 0 0 536.803556 227.555556H534.755556V136.533333s0-68.266667 45.511111-68.266666c31.857778 0 35.953778 22.755556 45.511111 59.392 8.192 32.995556 21.617778 99.896889 91.022222 99.896889 75.093333 0 102.4-72.590222 102.4-113.777778a34.133333 34.133333 0 0 0-68.266667 0c0 10.24-3.413333 45.511111-34.133333 45.511111-13.425778 0-16.156444-11.377778-25.258667-48.014222S667.192889 0 580.266667 0c-45.511111 0-113.777778 45.511111-113.777778 138.353778v91.022222a111.729778 111.729778 0 0 0-89.656889 92.387556 364.088889 364.088889 0 0 0-122.197333 595.512888 364.088889 364.088889 0 0 0 514.730666 0 364.088889 364.088889 0 0 0 0-514.730666z m-48.241777 466.488889A295.822222 295.822222 0 1 1 443.733333 372.280889v-32.995556A43.235556 43.235556 0 0 1 487.196444 295.822222h48.696889A44.145778 44.145778 0 0 1 580.266667 339.285333v32.995556a295.822222 295.822222 0 0 1 140.856889 496.753778z"  /><path fill="#333333" d="M512 807.822222a152.234667 152.234667 0 0 1-153.6-146.545778 34.133333 34.133333 0 0 0-68.266667 0A221.184 221.184 0 0 0 512 876.088889a34.133333 34.133333 0 0 0 0-68.266667z"  /></svg>