<?xml version="1.0" standalone="no"?><!DOCTYPE svg PUBLIC "-//W3C//DTD SVG 1.1//EN" "http://www.w3.org/Graphics/SVG/1.1/DTD/svg11.dtd"><svg class="icon" width="200px" height="200.00px" viewBox="0 0 1024 1024" version="1.1" xmlns="http://www.w3.org/2000/svg"><path fill="#333333" d="M989.093079 337.433609m-34.906925 0a34.906925 34.906925 0 1 0 69.81385 0 34.906925 34.906925 0 1 0-69.81385 0Z"  /><path fill="#333333" d="M819.21271 88.430877a69.81385 69.81385 0 0 0-97.73939 0l-72.606404 71.675553a69.81385 69.81385 0 0 0-12.101068 81.914917l-108.909606 108.909607a61.203475 61.203475 0 0 0-9.075801 11.402928 231.316557 231.316557 0 0 0-290.891042 129.388336 267.619759 267.619759 0 1 0 304.388387 304.388387A232.712834 232.712834 0 0 0 674.930753 581.782085a230.385706 230.385706 0 0 0-19.315165-93.085134 40.25932 40.25932 0 0 0 5.817821-4.886969l108.909606-108.909607a69.81385 69.81385 0 0 0 32.579797 8.377663 69.81385 69.81385 0 0 0 49.33512-20.47873l71.675553-71.675553a69.81385 69.81385 0 0 0 0-98.670241zM465.489202 742.819366v13.497344a197.805909 197.805909 0 1 1-197.805908-197.805909h13.497344a162.898984 162.898984 0 0 1 237.367091-121.243386A165.924251 165.924251 0 0 1 581.845619 497.540039a162.898984 162.898984 0 0 1-116.356417 245.279327z m152.892332-313.231475A225.498736 225.498736 0 0 0 581.845619 395.611818l102.160935-102.160934 34.906925 34.906925z m186.170268-116.356416L698.202036 209.441551l71.675553-71.675553 104.720776 104.720775z"  /><path fill="#333333" d="M442.217919 465.425668a116.356417 116.356417 0 1 0 82.380343 34.208786A116.356417 116.356417 0 0 0 442.217919 465.425668z m32.81251 149.401639a46.542567 46.542567 0 1 1 0-65.857732 46.542567 46.542567 0 0 1 0 65.625019zM210.901362 650.199658a34.906925 34.906925 0 1 0-49.335121 49.335121l162.898984 162.898984a34.906925 34.906925 0 0 0 49.335121 0 34.674212 34.674212 0 0 0 0-49.335121z"  /><path fill="#333333" d="M896.007945 407.247459m-34.906925 0a34.906925 34.906925 0 1 0 69.81385 0 34.906925 34.906925 0 1 0-69.81385 0Z"  /><path fill="#333333" d="M593.481261 127.992059m-34.906925 0a34.906925 34.906925 0 1 0 69.81385 0 34.906925 34.906925 0 1 0-69.81385 0Z"  /><path fill="#333333" d="M663.295111 34.906925m-34.906925 0a34.906925 34.906925 0 1 0 69.81385 0 34.906925 34.906925 0 1 0-69.81385 0Z"  /></svg>