<?xml version="1.0" standalone="no"?><!DOCTYPE svg PUBLIC "-//W3C//DTD SVG 1.1//EN" "http://www.w3.org/Graphics/SVG/1.1/DTD/svg11.dtd"><svg class="icon" width="200px" height="200.00px" viewBox="0 0 1024 1024" version="1.1" xmlns="http://www.w3.org/2000/svg"><path fill="#333333" d="M512 472.446352A142.832618 142.832618 0 1 0 369.167382 329.613734a143.052361 143.052361 0 0 0 142.832618 142.832618z m0-219.742489A76.909871 76.909871 0 1 1 435.090129 329.613734a76.909871 76.909871 0 0 1 76.909871-76.909871zM468.051502 538.369099v87.896995a32.961373 32.961373 0 0 0 65.922747 0v-87.896995a32.961373 32.961373 0 0 0-65.922747 0zM501.012876 153.819742a32.961373 32.961373 0 0 0 32.961373-32.961373v-87.896996a32.961373 32.961373 0 0 0-65.922747 0v87.896996A32.961373 32.961373 0 0 0 501.012876 153.819742zM204.360515 362.575107h87.896996a32.961373 32.961373 0 0 0 0-65.922746h-87.896996a32.961373 32.961373 0 0 0 0 65.922746zM676.806867 329.613734a32.961373 32.961373 0 0 0 32.961373 32.961373h87.896996a32.961373 32.961373 0 0 0 0-65.922746h-87.896996A32.961373 32.961373 0 0 0 676.806867 329.613734zM330.053219 205.239485a32.302146 32.302146 0 0 0 23.292704 9.66867 31.862661 31.862661 0 0 0 23.292704-9.66867 32.741631 32.741631 0 0 0 0-46.585408l-62.187125-62.187124a32.961373 32.961373 0 1 0-46.585408 46.585408zM625.387124 453.987983a32.741631 32.741631 0 0 0 0 46.585408l62.187125 62.187124a32.741631 32.741631 0 0 0 23.292704 9.66867 33.620601 33.620601 0 0 0 23.292704-9.66867 33.181116 33.181116 0 0 0 0-46.585408l-62.187125-62.187124a32.741631 32.741631 0 0 0-46.585408 0zM648.679828 214.908155a32.302146 32.302146 0 0 0 23.292704-9.66867l62.187125-62.187124a32.961373 32.961373 0 0 0-46.585408-46.585408l-62.187125 62.187124a32.741631 32.741631 0 0 0 0 46.585408 31.862661 31.862661 0 0 0 23.292704 9.66867zM330.053219 453.987983l-62.187125 62.187124a33.181116 33.181116 0 0 0 0 46.585408 33.620601 33.620601 0 0 0 23.292704 9.66867 32.741631 32.741631 0 0 0 23.292704-9.66867l62.187125-62.187124a32.961373 32.961373 0 1 0-46.585408-46.585408z"  /><path fill="#333333" d="M94.48927 716.360515c16.700429 0 21.974249 7.471245 39.773391 37.356223s39.993133 72.515021 99.323605 72.515022 83.502146-43.948498 99.543348-72.515022 21.974249-37.356223 39.77339-37.356223 23.072961 7.471245 39.773391 37.356223 39.993133 72.515021 99.323605 72.515022 83.502146-43.948498 99.323605-72.515022 23.072961-37.356223 39.773391-37.356223 23.292704 7.471245 39.77339 37.356223 40.212876 72.515021 99.543348 72.515022 83.282403-43.948498 99.323605-72.515022 23.072961-37.356223 39.773391-37.356223a32.961373 32.961373 0 0 0 0-65.922747c-57.792275 0-81.744206 43.948498-97.345923 71.416309s-21.974249 38.454936-41.751073 38.454936-26.149356-9.888412-41.751073-38.454936-39.773391-71.416309-97.565665-71.416309-81.524464 43.948498-97.345923 71.416309-21.974249 38.454936-41.751073 38.454936-25.929614-9.888412-41.751073-38.454936-39.553648-71.416309-97.345923-71.416309-81.744206 42.849785-97.565665 71.416309-21.974249 38.454936-41.751073 38.454936-25.929614-9.888412-41.751073-38.454936-39.553648-71.416309-97.345923-71.416309a32.961373 32.961373 0 0 0 0 65.922747zM929.51073 848.206009c-57.792275 0-81.744206 43.948498-97.345923 71.416309s-21.974249 38.454936-41.751073 38.454935-26.149356-9.888412-41.751073-38.454935-39.773391-71.416309-97.565665-71.416309-81.524464 43.948498-97.345923 71.416309-21.974249 38.454936-41.751073 38.454935-25.929614-9.888412-41.751073-38.454935-39.553648-71.416309-97.345923-71.416309-81.744206 42.849785-97.565665 71.416309-21.974249 38.454936-41.751073 38.454935-25.929614-9.888412-41.751073-38.454935-39.553648-71.416309-97.345923-71.416309a32.961373 32.961373 0 0 0 0 65.922746c16.700429 0 21.974249 7.471245 39.773391 37.356224s39.993133 72.515021 99.323605 72.515021 83.502146-43.948498 99.543348-72.515021 21.974249-37.356223 39.77339-37.356224 23.072961 7.471245 39.773391 37.356224 39.993133 72.515021 99.323605 72.515021 83.502146-43.948498 99.323605-72.515021 23.072961-37.356223 39.773391-37.356224 23.292704 7.471245 39.77339 37.356224 40.212876 72.515021 99.543348 72.515021 83.282403-43.948498 99.323605-72.515021 23.072961-37.356223 39.773391-37.356224a32.961373 32.961373 0 0 0 0-65.922746z"  /></svg>