<?xml version="1.0" standalone="no"?><!DOCTYPE svg PUBLIC "-//W3C//DTD SVG 1.1//EN" "http://www.w3.org/Graphics/SVG/1.1/DTD/svg11.dtd"><svg class="icon" width="200px" height="177.01px" viewBox="0 0 1157 1024" version="1.1" xmlns="http://www.w3.org/2000/svg"><path fill="#333333" d="M634.983087 433.108682l-14.09132-13.825446L667.685584 372.223545l9.305588 9.305589a79.762188 79.762188 0 0 0 112.996434 0l101.829727-101.563853a79.762188 79.762188 0 0 0 0-112.996434l-9.571463-9.305588 89.865399-89.865399A39.881094 39.881094 0 0 0 915.745989 11.698454l-89.865399 89.865399-35.892984-36.158859a79.762188 79.762188 0 0 0-112.996434 0l-101.563853 101.829727a79.762188 79.762188 0 0 0 0 112.996434L611.586178 316.124139l-46.793817 46.793817-40.412842-40.678716a79.762188 79.762188 0 0 0-112.996433 0l-110.869442 110.869442a79.762188 79.762188 0 0 0 0 112.996433l40.678716 40.412842-168.298217 168.032343V704.565996a39.881094 39.881094 0 0 0-79.762188 0v106.349584a40.412842 40.412842 0 0 0 4.785731 18.611177L11.774523 915.669921a39.61522 39.61522 0 0 0 0 56.365279 39.881094 39.881094 0 0 0 56.36528 0l161.11962-161.11962h103.159096a39.881094 39.881094 0 0 0 0-79.762188h-23.396908l88.270155-88.270155 13.825446 14.09132a79.762188 79.762188 0 0 0 112.996433 0l110.869442-110.869442a79.762188 79.762188 0 0 0 0-112.996433z m98.639239-311.072534l101.563853 101.563853-101.563853 101.829727-101.829727-101.829727z m-265.873961 478.573129l-111.135315-111.135315 111.135315-110.869442 110.869442 110.869442zM1046.02423 588.379075a235.298455 235.298455 0 0 1-22.333413-98.905113 79.762188 79.762188 0 0 0-79.762188-77.369323 79.762188 79.762188 0 0 0-44.135077 13.293698 257.631868 257.631868 0 0 0-94.385257 149.155292 87.738407 87.738407 0 0 0-20.206421-2.65874 79.762188 79.762188 0 0 0-42.805707 12.496077c-9.305589 5.849227-90.131273 61.151011-90.131273 200.203092 0 167.766469 166.968847 229.715102 255.239002 239.286565h8.507967a233.969085 233.969085 0 0 0 241.413556-230.512724 263.746969 263.746969 0 0 0-111.401189-204.988824zM915.214241 943.85256s-183.984781-19.142925-183.984781-159.524376c0-99.170987 53.174792-132.93698 53.174793-132.93698s42.539834 79.762188 79.762188 79.762188c0 0 0-186.111772 79.762188-239.286565 0 0 3.722235 122.302022 53.174792 159.524377a186.111772 186.111772 0 0 1 79.762188 141.710821 153.941023 153.941023 0 0 1-161.651368 150.750535z" /></svg>