<?xml version="1.0" standalone="no"?><!DOCTYPE svg PUBLIC "-//W3C//DTD SVG 1.1//EN" "http://www.w3.org/Graphics/SVG/1.1/DTD/svg11.dtd"><svg class="icon" width="200px" height="200.00px" viewBox="0 0 1024 1024" version="1.1" xmlns="http://www.w3.org/2000/svg"><path fill="#333333" d="M512 0A365.714286 365.714286 0 0 0 146.285714 365.714286v292.571428a365.714286 365.714286 0 0 0 731.428572 0V365.714286A365.714286 365.714286 0 0 0 512 0z m-26.331429 950.857143A292.571429 292.571429 0 0 1 219.428571 658.285714V365.714286a292.571429 292.571429 0 0 1 226.011429-284.769524c-44.860952 71.92381-109.958095 201.386667-82.651429 314.026667a221.866667 221.866667 0 0 0 134.095239 150.430476 148.967619 148.967619 0 0 1 93.135238 100.937143C619.27619 765.318095 503.222857 926.47619 485.668571 950.857143zM804.571429 658.285714a292.571429 292.571429 0 0 1-226.011429 284.769524c44.860952-73.142857 109.958095-201.386667 82.651429-314.026667a221.866667 221.866667 0 0 0-134.095239-150.430476 148.967619 148.967619 0 0 1-93.135238-100.937143C404.72381 258.681905 520.777143 97.52381 538.331429 74.361905A292.571429 292.571429 0 0 1 804.571429 365.714286z" /></svg>