<?xml version="1.0" standalone="no"?><!DOCTYPE svg PUBLIC "-//W3C//DTD SVG 1.1//EN" "http://www.w3.org/Graphics/SVG/1.1/DTD/svg11.dtd"><svg class="icon" width="200px" height="200.00px" viewBox="0 0 1024 1024" version="1.1" xmlns="http://www.w3.org/2000/svg"><path fill="#333333" d="M768 0H256a162.909091 162.909091 0 0 0-162.909091 162.909091v698.181818a162.909091 162.909091 0 0 0 162.909091 162.909091h512a162.909091 162.909091 0 0 0 162.909091-162.909091V162.909091a162.909091 162.909091 0 0 0-162.909091-162.909091z m93.090909 861.090909a93.090909 93.090909 0 0 1-93.090909 93.090909H256a93.090909 93.090909 0 0 1-93.090909-93.090909V162.909091a93.090909 93.090909 0 0 1 93.090909-93.090909h512a93.090909 93.090909 0 0 1 93.090909 93.090909z"  /><path fill="#333333" d="M512 186.181818a256 256 0 1 0 256 256A256 256 0 0 0 512 186.181818z m0 442.181818a186.181818 186.181818 0 1 1 186.181818-186.181818 186.181818 186.181818 0 0 1-186.181818 186.181818z"  /></svg>