<?xml version="1.0" standalone="no"?><!DOCTYPE svg PUBLIC "-//W3C//DTD SVG 1.1//EN" "http://www.w3.org/Graphics/SVG/1.1/DTD/svg11.dtd"><svg class="icon" width="200px" height="197.68px" viewBox="0 0 1036 1024" version="1.1" xmlns="http://www.w3.org/2000/svg"><path fill="#333333" d="M734.48589 505.786249m-36.122256 0a36.122257 36.122257 0 1 0 72.244513 0 36.122257 36.122257 0 1 0-72.244513 0Z"  /><path fill="#333333" d="M734.48589 650.275277m-36.122256 0a36.122257 36.122257 0 1 0 72.244513 0 36.122257 36.122257 0 1 0-72.244513 0Z"  /><path fill="#333333" d="M806.730404 578.030763m-36.122257 0a36.122257 36.122257 0 1 0 72.244514 0 36.122257 36.122257 0 1 0-72.244514 0Z"  /><path fill="#333333" d="M662.241377 578.030763m-36.122257 0a36.122257 36.122257 0 1 0 72.244514 0 36.122257 36.122257 0 1 0-72.244514 0Z"  /><path fill="#333333" d="M958.684698 510.361735a112.460627 112.460627 0 0 0-5.057116-15.412163l-13.004012-49.367084h-11.559122c0-24.081505 0-7.946897-1.685706-8.910157a234.072225 234.072225 0 0 0-192.652037-111.497366 269.231221 269.231221 0 0 0-108.607585 22.154984 72.244514 72.244514 0 0 0-59.962947-69.113918C567.841879 256.783492 602.037615 216.808194 722.445138 216.808194c77.060815 0 131.2442-21.191724 161.586896-63.334357A153.158369 153.158369 0 0 0 901.129902 24.156157a35.640627 35.640627 0 0 0-45.514043-22.154984 36.122257 36.122257 0 0 0-24.081505 45.754859 82.358746 82.358746 0 0 1-7.224451 63.575172C805.526329 138.784119 758.567395 144.56368 722.445138 144.56368c-226.125328 0-228.774294 127.150344-228.774294 132.448276a2.167335 2.167335 0 0 0 0 1.204075 72.244514 72.244514 0 0 0-60.203761 69.113918 269.231221 269.231221 0 0 0-108.607586-22.154984 228.292664 228.292664 0 0 0-224.198808 183.982695L3.130596 834.257972l-3.130596 10.114232v10.595862a170.978683 170.978683 0 0 0 168.570532 168.570532 166.884827 166.884827 0 0 0 85.970972-24.081504l6.261191 2.88978 36.122257-39.012037 168.570532-181.574545h125.705454l146.897178 188.798996A154.60326 154.60326 0 0 0 866.934166 1023.538598a168.570532 168.570532 0 0 0 168.570532-168.570532c0-10.836677 0-13.967273-76.82-344.606331zM505.711597 393.325623V349.256469h48.163009v43.105894a20.950909 20.950909 0 0 1 2.648965 2.167335 222.031472 222.031472 0 0 0-22.877429 26.971285h-7.706081a214.084576 214.084576 0 0 0-24.081505-27.69373z m361.222569 558.690907a85.007711 85.007711 0 0 1-72.244514-24.081505l-168.570532-216.733541h-192.652037L243.945642 915.171828A96.326018 96.326018 0 0 1 168.570532 951.294085a99.697429 99.697429 0 0 1-96.326018-96.326019l98.974984-328.471723a156.288965 156.288965 0 0 1 153.880814-129.076864c69.595548 0 136.301316 33.473291 156.52978 96.326018h96.326019c20.228464-62.852727 86.934232-96.326018 156.529779-96.326018a162.550156 162.550156 0 0 1 132.448276 78.26489 92.472978 92.472978 0 0 1 16.857053 42.142633v-4.093856a126.427899 126.427899 0 0 1 4.093856 14.448903S963.260184 850.87421 963.260184 856.412956a96.326018 96.326018 0 0 1-96.326018 95.603574z"  /><path fill="#333333" d="M385.304074 541.908506h-48.16301v-48.163009a36.122257 36.122257 0 0 0-72.244513 0v48.163009H216.733541a36.122257 36.122257 0 0 0 0 72.244514h48.16301v48.163009a36.122257 36.122257 0 0 0 72.244513 0v-48.163009h48.16301a36.122257 36.122257 0 0 0 0-72.244514z"  /></svg>