<?xml version="1.0" standalone="no"?><!DOCTYPE svg PUBLIC "-//W3C//DTD SVG 1.1//EN" "http://www.w3.org/Graphics/SVG/1.1/DTD/svg11.dtd"><svg class="icon" width="200px" height="185.84px" viewBox="0 0 1102 1024" version="1.1" xmlns="http://www.w3.org/2000/svg"><path fill="#333333" d="M858.604557 674.025316a291.127089 291.127089 0 0 1-67.402532-44.848607c-10.36962-9.332658-21.776203-21.776203-33.960506-34.738228-45.107848-48.477975-107.32557-115.102785-199.87443-115.102785-104.992405 0-161.506835 57.810633-202.985317 99.807595A321.198987 321.198987 0 0 1 306.940759 622.177215c-71.291139 47.441013-138.43443 92.28962-138.43443 168.506329 0 113.288101 100.326076 233.316456 195.208101 233.316456a225.798481 225.798481 0 0 0 100.844557-29.812658 155.544304 155.544304 0 0 1 66.884051-22.035443 233.316456 233.316456 0 0 1 79.327595 22.553924A314.199494 314.199494 0 0 0 725.873418 1024a233.316456 233.316456 0 0 0 219.317468-233.316456c1.036962-69.476456-53.922025-98.770633-86.586329-116.658228zM725.873418 946.227848c-58.588354 0-122.88-51.848101-195.467342-51.848101s-119.509873 51.848101-167.728608 51.848101-117.435949-82.956962-117.435949-155.544304c0-27.997975 25.924051-51.848101 103.696203-103.696202 71.031899-47.441013 100.585316-129.620253 207.392405-129.620253 77.772152 0 129.620253 82.179241 181.468354 129.620253 70.513418 64.032405 129.620253 62.476962 129.620253 103.696202a155.544304 155.544304 0 0 1-141.545316 155.544304zM394.30481 452.374684h10.36962c79.586835-6.999494 135.064304-91.771139 126.250127-193.134178-8.036456-89.956456-60.921519-157.099747-129.620253-167.469367v-51.848101a38.886076 38.886076 0 0 0-77.772152 0v65.847089a145.174684 145.174684 0 0 0-56.51443 60.921519 220.872911 220.872911 0 0 0-20.48 116.917468c9.073418 97.733671 71.031899 168.76557 147.767088 168.76557z m-14.517468-285.164557h3.629367c34.219747 0 65.069367 42.515443 69.994937 97.73367s-19.961519 105.770127-55.477469 108.881013h-3.629367c-34.219747 0-65.069367-42.774684-69.735696-97.992911s19.702278-104.992405 55.218228-108.103291zM1088.810127 400.785823a140.767595 140.767595 0 0 0-24.368608-37.849114 203.503797 203.503797 0 0 0 24.368608-90.734177 38.886076 38.886076 0 0 0-77.772152 0 115.880506 115.880506 0 0 1-15.03595 54.440506 90.474937 90.474937 0 0 0-16.850633-1.555443c-64.810127 0-121.583797 55.736709-135.064303 132.212658a178.357468 178.357468 0 0 0 11.406582 101.622279 122.102278 122.102278 0 0 0 89.956456 74.142784 99.548354 99.548354 0 0 0 19.702278 1.814684c64.550886 0 121.324557-55.736709 134.805063-132.471899a176.283544 176.283544 0 0 0-11.147341-101.622278z m-65.847089 88.141772c-6.999494 39.145316-32.405063 68.180253-58.329114 68.180253h-6.221772c-28.257215-4.92557-45.107848-43.293165-37.589874-85.549367a77.772152 77.772152 0 0 1 51.848102-67.143291 39.663797 39.663797 0 0 0 25.92405 10.888101h6.999494a85.549367 85.549367 0 0 1 17.109873 73.624304zM259.240506 558.922532a178.357468 178.357468 0 0 0 10.628861-101.622279c-13.480506-77.772152-70.254177-132.212658-135.064304-132.212658a122.88 122.88 0 0 0-19.443038 1.555443 113.547342 113.547342 0 0 0-18.924557 5.444051A107.066329 107.066329 0 0 1 77.772152 271.943291a38.886076 38.886076 0 0 0-77.772152 0 191.319494 191.319494 0 0 0 36.812152 109.140253 155.544304 155.544304 0 0 0-10.628861 19.443038 176.283544 176.283544 0 0 0-10.628861 101.881519c13.480506 77.772152 70.254177 132.471899 134.805064 132.471899a99.548354 99.548354 0 0 0 19.702278-1.814684A122.102278 122.102278 0 0 0 259.240506 558.922532z m-108.881012-1.814684c-25.924051 0-51.848101-29.034937-58.329114-68.180253s9.332658-80.623797 37.589873-85.549367a24.109367 24.109367 0 0 1 5.962532 0c25.924051 0 51.848101 28.775696 58.588354 68.180253S184.838481 551.663797 155.544304 556.589367zM711.355949 451.856203h10.369621c77.772152 0 139.730633-71.031899 148.285569-168.76557 6.999494-79.586835-25.924051-148.804051-79.327595-178.357468V38.886076a38.886076 38.886076 0 0 0-77.772152 0v51.848101c-67.921013 10.888101-120.806076 77.772152-129.620253 166.950886-7.777215 102.4 47.959494 187.171646 128.06481 194.17114z m-49.514936-186.393925c4.92557-55.218228 36.03443-97.733671 70.772658-97.73367h3.629367c36.03443 3.370127 61.180759 51.848101 56.25519 109.140253s-36.03443 97.733671-70.772658 97.733671h-3.629367c-36.03443-3.370127-61.180759-52.107342-56.25519-109.140254z" /></svg>