<?xml version="1.0" standalone="no"?><!DOCTYPE svg PUBLIC "-//W3C//DTD SVG 1.1//EN" "http://www.w3.org/Graphics/SVG/1.1/DTD/svg11.dtd"><svg class="icon" width="200px" height="180.76px" viewBox="0 0 1133 1024" version="1.1" xmlns="http://www.w3.org/2000/svg"><path fill="#333333" d="M566.688659 369.588676a123.193187 123.193187 0 1 0 95.351526 45.088707A123.193187 123.193187 0 0 0 566.688659 369.588676z m31.291069 161.383075A49.277275 49.277275 0 0 1 566.688659 542.059138a49.277275 49.277275 0 0 1-31.29107-87.467163A49.277275 49.277275 0 0 1 566.688659 443.504588a49.277275 49.277275 0 0 1 31.291069 87.467163z"  /><path fill="#333333" d="M1133.377317 512c0-95.10514-81.55389-166.064416-200.312121-211.399508 0-3.203023 1.231932-6.898818 1.724704-10.101842C960.906856 113.593234 892.65783 45.836982 850.032988 21.198344A161.875847 161.875847 0 0 0 768.232712 0.009116c-61.596593 0-131.323937 32.030229-201.544053 88.699095C496.468542 32.039345 426.741199 0.009116 365.144605 0.009116a161.875847 161.875847 0 0 0-81.800276 21.189228c-42.624843 24.638637-110.873868 92.39489-84.756912 269.300306 0 3.203023 0 6.898818 1.724704 10.101842C81.55389 344.950039 0 416.89486 0 512s81.800276 166.064416 200.804894 211.399508c-19.957296 125.65705 0 231.849577 82.539435 279.402148a161.875847 161.875847 0 0 0 81.800276 21.189228c61.596593 0 131.323937-32.030229 201.544054-88.699095 70.220116 56.668866 139.94746 88.699094 201.544053 88.699095a161.875847 161.875847 0 0 0 81.800276-21.189228c82.293049-47.55257 102.496731-153.745097 82.539435-279.402148 119.004618-45.335093 200.804894-116.047982 200.804894-211.399508zM566.688659 188.001919q24.638637 24.638637 49.277274 53.958616h-98.554549q24.638637-29.319978 49.277275-53.958616z m258.952078 232.34235c-7.884364-14.783182-15.768728-29.319978-24.638637-43.856774l-25.87057-42.871229c24.638637 4.681341 49.277275 10.101841 71.452049 16.507887-5.174114 22.667546-12.565705 46.074252-20.942842 70.220116z m21.435614 253.531578c-22.42116 6.406046-46.320638 11.826546-71.452048 16.507887l25.870569-42.871229c8.377137-14.536796 16.261501-29.073592 24.638638-43.856774 7.884364 24.145865 15.275955 47.55257 20.942841 70.220116zM788.436395 512a1171.370096 1171.370096 0 0 1-110.627482 191.934985c-35.726024 3.203023-72.68398 5.174114-110.873868 5.174114s-75.147844-1.971091-110.873868-5.174114q-31.044683-44.103161-59.871889-93.380436c-18.971751-33.015774-35.972411-66.031548-50.755593-98.554549a1171.370096 1171.370096 0 0 1 110.627482-191.934985c35.726024-3.203023 72.68398-5.174114 110.873868-5.174114s75.147844 1.971091 110.873868 5.174114q31.044683 43.856774 59.871889 93.380436c18.725364 33.015774 35.726024 66.031548 50.755593 98.554549zM307.73658 603.655731c7.884364 14.783182 15.768728 29.319978 24.638638 43.856774s17.247046 28.827206 24.638637 42.871229c-24.638637-4.681341-49.277275-10.101841-71.452048-16.507887 6.406046-22.667546 13.797637-46.074252 22.174773-70.220116z m-21.435614-253.531578c22.42116-6.406046 46.320638-11.826546 71.452048-16.507887l-24.638637 42.871229c-8.13075 14.536796-16.261501 29.073592-24.638638 43.856774a635.676843 635.676843 0 0 1-22.174773-70.220116zM216.327236 650.469142C128.3673 615.97505 73.915912 566.697775 73.915912 512s54.205002-102.743118 141.918551-138.222755a1010.184131 1010.184131 0 0 0 49.277275 138.469141 1024.228154 1024.228154 0 0 0-48.784502 138.222756zM320.302285 85.258801A88.452708 88.452708 0 0 1 365.144605 73.925028c41.639297 0 92.39489 24.638637 145.614347 65.046003a992.444312 992.444312 0 0 0-95.844299 111.120254A1019.300426 1019.300426 0 0 0 271.025011 277.686559c-12.565705-93.873208 2.463864-165.325256 49.277274-192.427758z m44.84232 864.816171A88.452708 88.452708 0 0 1 320.302285 938.741199c-46.813411-27.102501-61.84298-98.554549-49.277274-192.427758a1019.300426 1019.300426 0 0 0 143.396869 27.595274 992.444312 992.444312 0 0 0 95.844299 111.120254c-52.726684 41.392911-103.482277 65.046003-145.121574 65.046003zM566.688659 835.998081q-24.638637-24.638637-49.277275-53.958616h98.554549q-24.638637 29.319978-49.277274 53.958616z m246.386373 102.743118a88.452708 88.452708 0 0 1-44.84232 11.333773c-41.639297 0-92.39489-24.638637-145.614347-65.046003a992.444312 992.444312 0 0 0 95.8443-111.120254A1019.300426 1019.300426 0 0 0 862.352307 746.313441c12.565705 93.873208-2.463864 165.325256-49.277275 192.427758z m49.277275-661.05464a1019.300426 1019.300426 0 0 0-143.39687-27.595274 992.444312 992.444312 0 0 0-95.844299-111.120254C675.837822 98.563666 726.593415 73.925028 768.232712 73.925028a88.452708 88.452708 0 0 1 44.84232 11.333773c46.813411 27.102501 61.84298 98.554549 49.277275 192.427758z m54.697774 372.782583a1024.228154 1024.228154 0 0 0-47.798956-138.222756 1010.184131 1010.184131 0 0 0 49.277275-138.469141C1005.256403 409.256882 1059.461405 458.041384 1059.461405 512S1005.010017 615.97505 917.050081 650.469142z"  /></svg>