<?xml version="1.0" standalone="no"?><!DOCTYPE svg PUBLIC "-//W3C//DTD SVG 1.1//EN" "http://www.w3.org/Graphics/SVG/1.1/DTD/svg11.dtd"><svg class="icon" width="200px" height="200.00px" viewBox="0 0 1024 1024" version="1.1" xmlns="http://www.w3.org/2000/svg"><path fill="#333333" d="M512 73.142857a75.580952 75.580952 0 0 1 48.761905 24.380953 120.441905 120.441905 0 0 1 24.380952 73.142857v195.047619l292.571429 219.428571v73.142857l-316.952381-121.904762v268.190477l121.904762 97.523809v48.761905l-170.666667-48.761905-170.666667 48.761905v-48.761905l121.904762-97.523809V536.380952L146.285714 658.285714v-73.142857l292.571429-219.428571V170.666667a120.441905 120.441905 0 0 1 24.380952-73.142857 75.580952 75.580952 0 0 1 48.761905-24.380953m0-73.142857a148.72381 148.72381 0 0 0-100.449524 45.83619A188.220952 188.220952 0 0 0 365.714286 170.666667v158.47619L102.4 526.628571A73.142857 73.142857 0 0 0 73.142857 585.142857v73.142857a73.142857 73.142857 0 0 0 73.142857 73.142857 76.312381 76.312381 0 0 0 26.331429-4.87619L390.095238 642.925714v126.537143l-94.354286 75.580953A73.142857 73.142857 0 0 0 268.190476 902.095238v48.761905a73.142857 73.142857 0 0 0 29.013334 58.514286A74.849524 74.849524 0 0 0 341.333333 1024a69.729524 69.729524 0 0 0 19.992381-2.925714L512 978.16381l150.674286 42.910476A69.729524 69.729524 0 0 0 682.666667 1024a74.849524 74.849524 0 0 0 44.129523-14.628571A73.142857 73.142857 0 0 0 755.809524 950.857143v-48.761905a73.142857 73.142857 0 0 0-27.550476-57.051428L633.904762 769.462857v-126.537143l217.478095 83.626667A76.312381 76.312381 0 0 0 877.714286 731.428571a73.142857 73.142857 0 0 0 73.142857-73.142857v-73.142857a73.142857 73.142857 0 0 0-29.257143-58.514286L658.285714 329.142857V170.666667a188.220952 188.220952 0 0 0-45.83619-124.830477A148.72381 148.72381 0 0 0 512 0z" /></svg>