<?xml version="1.0" standalone="no"?><!DOCTYPE svg PUBLIC "-//W3C//DTD SVG 1.1//EN" "http://www.w3.org/Graphics/SVG/1.1/DTD/svg11.dtd"><svg class="icon" width="200px" height="200.00px" viewBox="0 0 1024 1024" version="1.1" xmlns="http://www.w3.org/2000/svg"><path fill="#333333" d="M812.408196 810.335624l-71.964123-120.534335h14.704744a66.839742 66.839742 0 0 0 57.482178-32.083076 69.513332 69.513332 0 0 0 1.336795-66.839742l-79.093695-145.710638h20.274722a64.83455 64.83455 0 0 0 52.803396-105.383993L564.655552 25.859851a66.839742 66.839742 0 0 0-105.606793 0L215.529298 340.229438a63.497755 63.497755 0 0 0-7.129572 68.622135A65.057349 65.057349 0 0 0 268.332695 444.722235h20.274721L209.736521 590.878471A66.839742 66.839742 0 0 0 268.332695 689.801289h14.704743L211.073316 810.335624a66.839742 66.839742 0 0 0 0 66.839742A66.839742 66.839742 0 0 0 268.332695 912.60043h204.975209a44.559828 44.559828 0 0 0-6.015577 22.279914v44.559828a44.559828 44.559828 0 0 0 89.119656 0v-44.559828a44.559828 44.559828 0 0 0-6.238376-22.279914h204.97521a66.839742 66.839742 0 0 0 58.150575-34.088269 66.839742 66.839742 0 0 0-0.891196-68.176537zM268.332695 845.760688l133.679484-222.799141H268.332695l133.679484-245.079054H268.332695L511.852155 63.958504l243.296662 313.923989h-133.679485l133.679485 245.079054h-133.679485l133.679485 222.799141z" /></svg>