<?xml version="1.0" standalone="no"?><!DOCTYPE svg PUBLIC "-//W3C//DTD SVG 1.1//EN" "http://www.w3.org/Graphics/SVG/1.1/DTD/svg11.dtd"><svg class="icon" width="200px" height="200.00px" viewBox="0 0 1024 1024" version="1.1" xmlns="http://www.w3.org/2000/svg"><path fill="#333333" d="M549.461672 199.807491a224.779775 224.779775 0 1 0 224.779776 224.779775 224.779775 224.779775 0 0 0-224.779776-224.779775z m0 374.632959a149.853183 149.853183 0 1 1 149.853184-149.853184 149.853183 149.853183 0 0 1-149.853184 149.853184z"  /><path fill="#333333" d="M1023.996753 387.123971A378.878799 378.878799 0 0 0 524.486142 19.983671a470.289241 470.289241 0 0 0-137.365418-19.980424C170.083363 0.003247 0 164.591993 0 374.636205c0 177.326267 110.391845 335.421375 263.491847 387.620235C315.440951 914.357421 472.786794 1024 649.363795 1024c210.044212 0 374.632958-170.083363 374.632958-387.120724a476.533123 476.533123 0 0 0-19.730669-136.116641A313.692664 313.692664 0 0 0 1023.996753 387.123971z m-74.926592 249.755305C949.070161 809.210437 821.694956 949.073408 649.363795 949.073408c-152.850247 0-297.95808-102.899186-324.681898-248.256774C179.574065 674.342572 74.926592 527.486452 74.926592 374.636205 74.926592 202.305044 214.789563 74.929839 387.120724 74.929839A372.884671 372.884671 0 0 1 524.486142 99.905369a302.70343 302.70343 0 0 1 123.379121-24.97553C820.196424 74.929839 949.070161 214.79281 949.070161 387.123971a253.002125 253.002125 0 0 1-24.97553 112.389887 372.884671 372.884671 0 0 1 24.97553 137.365418z"  /></svg>