<?xml version="1.0" standalone="no"?><!DOCTYPE svg PUBLIC "-//W3C//DTD SVG 1.1//EN" "http://www.w3.org/Graphics/SVG/1.1/DTD/svg11.dtd"><svg class="icon" width="200px" height="200.00px" viewBox="0 0 1024 1024" version="1.1" xmlns="http://www.w3.org/2000/svg"><path fill="#333333" d="M660.542919 649.216a33.905778 33.905778 0 0 0-39.822222 27.079111c0 1.592889-31.630222 154.282667-125.838222 154.282667a34.133333 34.133333 0 0 0 0 68.266666c151.779556 0 191.374222-201.386667 192.967111-209.806222a34.133333 34.133333 0 0 0-27.306667-39.822222z"  /><path fill="#333333" d="M1005.972252 299.235556L927.23803 0H585.904697c-10.695111 0-21.390222 0-27.761778 8.647111a34.588444 34.588444 0 0 0-4.551111 30.492445l45.511111 139.264a34.360889 34.360889 0 0 0 13.198222 17.749333l72.817778 49.379555-42.780444 68.266667A325.859556 325.859556 0 0 0 486.235364 273.066667h-27.989334a324.266667 324.266667 0 0 0-111.729778 20.024889c-63.715556-166.570667-72.817778-175.672889-77.824-180.679112C224.77403 68.266667 162.423808 97.393778 130.793586 122.652444l-113.777778 102.4 45.511111 50.744889 112.412445-101.262222c8.874667-7.054222 33.450667-20.935111 43.690666-15.246222 9.329778 17.749333 36.181333 85.788444 65.991111 163.84A327.452444 327.452444 0 0 0 130.793586 600.291556v96.256A327.907556 327.907556 0 0 0 458.24603 1024h27.989334A327.68 327.68 0 0 0 813.460252 696.547556v-96.256a326.087111 326.087111 0 0 0-113.777777-248.718223l43.008-68.266666 75.548444 51.427555A33.905778 33.905778 0 0 0 836.215808 341.333333h136.533333a34.133333 34.133333 0 0 0 26.851556-12.970666 33.450667 33.450667 0 0 0 6.371555-29.127111zM649.165141 112.184889l-16.384-50.517333 121.742223-2.048z m85.788445 422.115555a217.543111 217.543111 0 0 1 10.24 65.991112v96.256A258.958222 258.958222 0 0 1 486.235364 955.733333h-27.989334A259.185778 259.185778 0 0 1 199.060252 696.547556v-96.256a217.088 217.088 0 0 1 10.695112-67.128889A299.690667 299.690667 0 0 0 458.24603 682.666667h27.989334a295.822222 295.822222 0 0 0 248.718222-148.366223zM699.682475 453.063111a60.757333 60.757333 0 0 0-8.192 17.294222 227.555556 227.555556 0 0 1-204.8 144.042667h-28.444445c-85.333333 0-167.708444-61.667556-204.8-144.952889A47.331556 47.331556 0 0 0 244.571364 455.111111a260.096 260.096 0 0 1 64.170666-65.991111l40.504889 106.951111 63.943111-23.893333c-15.928889-43.690667-30.037333-81.692444-42.780444-115.143111a255.772444 255.772444 0 0 1 87.836444-15.701334h27.989334a257.592889 257.592889 0 0 1 119.466666 29.127111l-71.224889 111.957334a33.905778 33.905778 0 0 0 10.467556 47.104 33.678222 33.678222 0 0 0 18.204444 5.233778 34.133333 34.133333 0 0 0 28.899556-15.701334L661.453141 409.6A253.724444 253.724444 0 0 1 699.682475 453.063111zM813.460252 250.311111l-121.969777-82.830222L881.726919 45.511111z m64.625778 22.755556L904.482475 136.533333l25.031111 136.533334z"  /></svg>