<?xml version="1.0" standalone="no"?><!DOCTYPE svg PUBLIC "-//W3C//DTD SVG 1.1//EN" "http://www.w3.org/Graphics/SVG/1.1/DTD/svg11.dtd"><svg class="icon" width="200px" height="200.00px" viewBox="0 0 1024 1024" version="1.1" xmlns="http://www.w3.org/2000/svg"><path fill="#333333" d="M994.443636 674.909091A69.818182 69.818182 0 0 0 942.545455 651.636364a69.818182 69.818182 0 0 0-27.461819 5.585454A420.305455 420.305455 0 0 1 756.363636 698.181818a406.109091 406.109091 0 0 1-395.636363-395.636363c0-52.363636 38.865455-119.621818 69.818182-173.614546 4.887273-8.610909 9.541818-16.756364 13.963636-24.901818A69.818182 69.818182 0 0 0 384 0a69.818182 69.818182 0 0 0-27.461818 5.585455C159.883636 90.298182 11.636364 307.898182 11.636364 512c0 282.298182 240.174545 512 535.272727 512a525.265455 525.265455 0 0 0 456.378182-268.334545 69.818182 69.818182 0 0 0-8.843637-80.756364zM546.909091 954.181818C296.727273 954.181818 81.454545 762.181818 81.454545 512 81.454545 325.818182 222.952727 139.636364 384 69.818182c-37.003636 65.629091-93.090909 151.970909-93.090909 232.727273a474.530909 474.530909 0 0 0 465.454545 465.454545 493.381818 493.381818 0 0 0 186.181819-46.545455 455.912727 455.912727 0 0 1-395.636364 232.727273z"  /><path fill="#333333" d="M651.170909 284.858182l-14.429091 83.781818A35.141818 35.141818 0 0 0 686.545455 405.410909l75.170909-39.563636 75.170909 39.563636a36.538182 36.538182 0 0 0 16.290909 3.956364 35.141818 35.141818 0 0 0 34.443636-40.727273l-14.429091-83.781818 60.741818-59.345455a34.443636 34.443636 0 0 0 8.843637-35.607272 34.909091 34.909091 0 0 0-28.16-23.272728l-84.014546-12.101818-36.770909-76.8a34.676364 34.676364 0 0 0-62.370909 0l-37.701818 76.101818-84.014545 12.101818a34.909091 34.909091 0 0 0-19.316364 59.578182z m69.818182-64.698182a34.443636 34.443636 0 0 0 26.298182-19.083636l14.429091-29.090909 14.429091 29.090909a34.443636 34.443636 0 0 0 26.763636 19.083636l32.116364 4.887273-23.272728 23.272727A35.374545 35.374545 0 0 0 802.909091 279.272727l5.585454 32.116364L779.636364 295.563636a35.141818 35.141818 0 0 0-32.581819 0l-28.858181 15.127273 4.887272-31.418182a35.374545 35.374545 0 0 0-10.007272-30.952727l-23.272728-23.272727z"  /></svg>