<?xml version="1.0" standalone="no"?><!DOCTYPE svg PUBLIC "-//W3C//DTD SVG 1.1//EN" "http://www.w3.org/Graphics/SVG/1.1/DTD/svg11.dtd"><svg class="icon" width="200px" height="175.79px" viewBox="0 0 1165 1024" version="1.1" xmlns="http://www.w3.org/2000/svg"><path fill="#333333" d="M1157.874962 913.251307l-209.950129-472.387791A78.731298 78.731298 0 0 0 876.016914 394.149613a78.731298 78.731298 0 0 0-71.907919 46.713903l-19.682825 44.351965L635.624016 52.980653a78.731298 78.731298 0 0 0-148.802154 0l-100.776062 292.355555-13.121883-37.003711a78.731298 78.731298 0 0 0-148.277279 0L4.723878 919.024935A78.731298 78.731298 0 0 0 78.731298 1024h1007.235745a78.731298 78.731298 0 0 0 71.907919-110.748693zM187.905366 919.024935A78.731298 78.731298 0 0 0 183.706363 945.268702H78.731298l219.922761-610.167563 46.451466 128.856891z m406.2535-6.298503A80.043487 80.043487 0 0 0 587.860362 945.268702H262.437661L561.354158 79.224419l176.358108 511.491002zM666.066785 945.268702l209.950129-472.387791 209.950129 472.387791zM954.748212 315.418314a131.218831 131.218831 0 1 0-131.21883-131.218831 131.218831 131.218831 0 0 0 131.21883 131.218831z m0-183.706363a52.487532 52.487532 0 1 1-52.487532 52.487532 52.487532 52.487532 0 0 1 52.487532-52.487532z" /></svg>