<?xml version="1.0" standalone="no"?><!DOCTYPE svg PUBLIC "-//W3C//DTD SVG 1.1//EN" "http://www.w3.org/Graphics/SVG/1.1/DTD/svg11.dtd"><svg class="icon" width="200px" height="200.00px" viewBox="0 0 1024 1024" version="1.1" xmlns="http://www.w3.org/2000/svg"><path fill="#333333" d="M534.146972 498.66407l45.008361-45.008362a108.115324 108.115324 0 1 0-50.485569-50.485569l-45.008362 45.008361-200.989721-200.98972L237.901459 202.418558l-49.771151 39.054874A374.355262 374.355262 0 0 0 41.674528 537.718945 379.356191 379.356191 0 0 0 238.139599 869.2091l-60.487428 100.733A35.720922 35.720922 0 0 0 208.372164 1023.999762a35.244643 35.244643 0 0 0 30.481853-17.384182L303.627955 897.785838a381.023167 381.023167 0 0 0 119.06974 19.051158 375.30782 375.30782 0 0 0 77.157192-8.334882l58.820451 98.113466A35.959061 35.959061 0 0 0 589.395331 1023.999762a36.67348 36.67348 0 0 0 18.33674-5.000929 35.959061 35.959061 0 0 0 12.383253-49.056733l-50.48557-84.063236a381.023167 381.023167 0 0 0 147.408338-115.497648L756.092966 720.610065l-44.770222-44.770222z m90.969281-177.175773A35.720922 35.720922 0 1 1 589.395331 357.209219a35.720922 35.720922 0 0 1 35.720922-35.720922z m-202.418558 523.906855A307.914347 307.914347 0 0 1 113.116372 537.718945 301.484581 301.484581 0 0 1 232.186112 297.674349l428.651063 428.651063a297.912489 297.912489 0 0 1-238.13948 119.06974zM684.651123 0a35.720922 35.720922 0 0 0 0 71.441844c99.066023 0 226.470645 133.119969 227.423203 233.13855A40.721851 40.721851 0 0 0 946.60455 345.302245a40.721851 40.721851 0 0 0 35.482783-41.436269C980.896635 164.316241 821.819463 0 684.651123 0z"  /><path fill="#333333" d="M687.270657 142.883688a35.720922 35.720922 0 0 0 0 71.441844 80.729284 80.729284 0 0 1 80.729283 80.729283 35.720922 35.720922 0 0 0 71.441844 0A152.409267 152.409267 0 0 0 687.270657 142.883688z"  /></svg>