<?xml version="1.0" standalone="no"?><!DOCTYPE svg PUBLIC "-//W3C//DTD SVG 1.1//EN" "http://www.w3.org/Graphics/SVG/1.1/DTD/svg11.dtd"><svg class="icon" width="200px" height="181.88px" viewBox="0 0 1126 1024" version="1.1" xmlns="http://www.w3.org/2000/svg"><path fill="#333333" d="M435.728129 588.641067a34.847551 34.847551 0 0 0-38.614854 31.551161c-5.650954 56.03863 23.545643 94.182571 55.803173 125.969188a169.528627 169.528627 0 0 0 72.991492 43.088527V824.097494a35.318464 35.318464 0 0 0 70.636928 0v-29.66751a173.060474 173.060474 0 0 0 100.068982-49.44585 168.115889 168.115889 0 0 0-4.00276-240.401011 158.933088 158.933088 0 0 0-96.066222-47.091286v-171.883191a69.224189 69.224189 0 0 1 59.33502 79.113359 35.318464 35.318464 0 0 0 35.318464 35.318464 35.318464 35.318464 0 0 0 35.318464-35.318464 144.805702 144.805702 0 0 0-40.263049-109.487238 146.92481 146.92481 0 0 0-89.708899-41.204875V188.365141a35.318464 35.318464 0 0 0-70.636928 0v25.900207a116.080018 116.080018 0 0 0-72.049666 31.551162 167.880432 167.880432 0 0 0-47.091286 119.376408 169.528627 169.528627 0 0 0 47.091286 118.905495 148.808462 148.808462 0 0 0 70.636928 37.908485v191.190619a97.478961 97.478961 0 0 1-23.545643-16.717407c-28.725684-28.725684-37.673028-47.091285-35.318464-68.988733A35.318464 35.318464 0 0 0 435.728129 588.641067z m160.816739-58.864107a88.767073 88.767073 0 0 1 47.091286 24.722925 97.478961 97.478961 0 0 1 4.002759 141.273856 104.071741 104.071741 0 0 1-50.152219 28.019315z m-92.298919-95.830765a98.891699 98.891699 0 0 1-26.135663-69.459646 96.301679 96.301679 0 0 1 25.66475-68.988733 43.794895 43.794895 0 0 1 22.132904-9.88917V447.367211a70.636928 70.636928 0 0 1-21.661991-13.421016z"  /><path fill="#333333" d="M1110.310791 335.289952a34.847551 34.847551 0 0 0-48.73948 10.124626l-42.617613 64.750517A530.012417 530.012417 0 0 0 128.222035 154.930329 35.318464 35.318464 0 0 0 178.138798 204.847091a458.904576 458.904576 0 0 1 773.709818 229.805473l-76.287882-52.035871a35.318464 35.318464 0 0 0-40.027593 58.393194l141.273856 96.537135a17.659232 17.659232 0 0 0 3.060934 1.412739 26.842033 26.842033 0 0 0 7.063693 3.060933 30.844792 30.844792 0 0 0 9.1828 0 29.196597 29.196597 0 0 0 7.770063 0h2.825477a34.141182 34.141182 0 0 0 5.180041-2.119107l2.825477-1.883652 4.238216-3.060933a30.844792 30.844792 0 0 0 2.590021-2.825478s2.119108-2.119108 3.060933-3.531846l94.182571-143.62842a34.847551 34.847551 0 0 0-8.476432-49.681306zM948.31677 809.499195a468.087376 468.087376 0 0 1-328.226259 143.863877 469.500115 469.500115 0 0 1-321.162566-143.863877 460.552771 460.552771 0 0 1-124.320994-230.040929l76.287883 52.271327a36.966659 36.966659 0 0 0 20.013796 6.121867 35.318464 35.318464 0 0 0 20.013796-64.515061l-141.273856-96.537135a33.434813 33.434813 0 0 0-8.240975-4.238215 32.728443 32.728443 0 0 0-9.653713 0h-4.944585a42.382157 42.382157 0 0 0-9.182801 1.883651H117.861953a36.024833 36.024833 0 0 0-8.711888 4.944585h-1.412739a47.091285 47.091285 0 0 0-6.59278 7.063693l-94.18257 143.392964a35.318464 35.318464 0 1 0 58.864106 38.85031l42.617614-64.750517a527.893309 527.893309 0 0 0 141.273856 255.234766 531.660612 531.660612 0 0 0 371.079328 164.819499 547.200736 547.200736 0 0 0 378.143022-164.819499 35.318464 35.318464 0 0 0-49.916763-49.916762z"  /></svg>