<?xml version="1.0" standalone="no"?><!DOCTYPE svg PUBLIC "-//W3C//DTD SVG 1.1//EN" "http://www.w3.org/Graphics/SVG/1.1/DTD/svg11.dtd"><svg class="icon" width="200px" height="200.00px" viewBox="0 0 1024 1024" version="1.1" xmlns="http://www.w3.org/2000/svg"><path fill="#333333" d="M962.467436 832.511091L881.374268 752.326531a89.724933 89.724933 0 0 0-106.988465-15.446318l-90.860692-86.317658c9.313221-20.443656 18.172138-40.433008 26.349601-60.42236a1350.417036 1350.417036 0 0 0 96.993788-345.043478c14.992014-129.703638-11.130435-209.433895-77.231588-236.692103A106.30701 106.30701 0 0 0 688.976752 0c-111.5315 0-232.830524 173.089618-318.012422 349.132209L290.779769 272.582076a90.860692 90.860692 0 0 0-22.715173-90.860692L189.470098 100.173913a68.145519 68.145519 0 0 0-96.539486 0L60.902218 132.429459a68.145519 68.145519 0 0 0 0 96.312333l80.184561 80.184561a89.27063 89.27063 0 0 0 106.988465 15.67347l93.813665 90.860692-8.177463 18.853593a1350.417036 1350.417036 0 0 0-96.766637 345.27063C222.63425 908.606921 247.848092 988.337178 313.494942 1015.595386a113.575865 113.575865 0 0 0 42.477374 8.404614c103.126886 0 214.431233-147.875776 297.341615-309.153505l77.685892 74.732919A90.860692 90.860692 0 0 0 726.911091 817.746229a90.860692 90.860692 0 0 0 26.576753 64.28394l80.411712 80.18456a68.145519 68.145519 0 0 0 96.312334 0l32.255546-32.028394a68.145519 68.145519 0 0 0 0-97.675244zM185.381366 217.157054A33.618456 33.618456 0 0 0 177.203904 249.866903L109.058385 181.721384l32.028394-33.391304 60.195209 60.195208a35.43567 35.43567 0 0 0-15.900622 8.631766z m171.045253 738.697427a43.613132 43.613132 0 0 1-16.354924-3.180124c-68.145519-28.621118-45.430346-246.005324 54.516415-487.240462l18.172138 17.717835a371.393079 371.393079 0 0 0-22.715173 99.492458c-5.678793 79.048802 32.937001 107.215617 56.33363 116.983141a82.456078 82.456078 0 0 0 32.255545 6.360249c41.568767 0 75.414374-28.84827 101.309672-63.148181l22.715173 22.715173C517.9315 837.735581 417.984738 955.854481 356.426619 955.854481zM529.289086 595.137533c-18.39929 26.349601-37.252884 42.704525-51.563443 42.704526A18.39929 18.39929 0 0 1 472.501154 636.024845c-18.39929-7.723159-19.080745-49.746229-4.315883-101.309672zM495.216327 466.569654c24.759539-49.291925 54.970719-82.910382 75.414374-82.910382a19.762201 19.762201 0 0 1 6.360248 1.135759c22.715173 9.540373 18.626442 73.824312-10.221827 143.332742 0 1.817214-1.590062 3.407276-2.271518 5.22449z m154.463176 97.448092c-4.997338 12.493345-10.221828 24.305235-15.446318 36.344277l-17.717835-17.03638c5.451642-10.903283 9.767524-21.125111 13.174801-29.075421 48.383319-116.528838 38.161491-204.436557-26.576753-232.37622a83.591837 83.591837 0 0 0-32.482697-6.360249c-56.787933 0-99.71961 54.289264-126.523514 101.991127l-19.307897-18.626442C513.161313 204.436557 622.648447 68.145519 688.976752 68.145519a40.433008 40.433008 0 0 1 16.354925 3.180124c69.508429 28.84827 44.067436 249.4126-56.787933 492.692103zM881.374268 912.922804L810.502928 840.461402a32.937001 32.937001 0 0 0 22.715173-41.341615l80.411713 80.411713z" /></svg>