<?xml version="1.0" standalone="no"?><!DOCTYPE svg PUBLIC "-//W3C//DTD SVG 1.1//EN" "http://www.w3.org/Graphics/SVG/1.1/DTD/svg11.dtd"><svg class="icon" width="200px" height="200.00px" viewBox="0 0 1024 1024" version="1.1" xmlns="http://www.w3.org/2000/svg"><path fill="#333333" d="M770.970724 204.945503H429.617717L397.337334 29.571481a36.375656 36.375656 0 0 0-17.103785-24.089838A35.65296 35.65296 0 0 0 349.157658 2.109065l-144.539029 48.179677a36.134757 36.134757 0 1 0 24.089838 68.41514l104.549898-34.930265 24.089838 120.44919H288.933062A72.269514 72.269514 0 0 0 217.86804 289.259936l120.449191 674.515469a72.269514 72.269514 0 0 0 72.269514 59.5019h240.898382a72.269514 72.269514 0 0 0 69.86053-59.5019l120.449191-671.38379a68.41514 68.41514 0 0 0 1.686289-15.899293 72.269514 72.269514 0 0 0-72.510413-71.546819z m-481.796763 72.269514h80.460059l36.134757 192.718705H323.381531z m361.347572 674.515469H409.382253l-72.269514-409.527249h82.146348L469.606848 813.936611A35.893859 35.893859 0 0 0 505.741606 843.326214h6.745154A35.893859 35.893859 0 0 0 541.876363 800.446302L493.696687 542.203237h230.780649z m86.000722-481.796764H479.242784l-36.134757-192.718705h327.621798z" /></svg>