<?xml version="1.0" standalone="no"?><!DOCTYPE svg PUBLIC "-//W3C//DTD SVG 1.1//EN" "http://www.w3.org/Graphics/SVG/1.1/DTD/svg11.dtd"><svg class="icon" width="200px" height="200.00px" viewBox="0 0 1024 1024" version="1.1" xmlns="http://www.w3.org/2000/svg"><path fill="#333333" d="M934.36028 218.355809a97.363387 97.363387 0 0 0 11.602891-45.654853c0-57.762217-40.610117-132.424296-157.647971-132.424296a394.75052 394.75052 0 0 0-129.901929 35.060909l9.33276-13.116311A37.835513 37.835513 0 1 0 606.200263 18.332063l-91.814178 128.388507L442.750847 21.611141a37.835513 37.835513 0 1 0-65.581556 37.331039l17.152099 30.016174A389.958021 389.958021 0 0 0 233.394341 40.27666a176.565728 176.565728 0 0 0-108.209567 44.898143 107.20062 107.20062 0 0 0-50.447351 87.526153 97.363387 97.363387 0 0 0 11.602891 45.654853A75.671026 75.671026 0 0 0 31.604938 290.999994v127.631797a75.671026 75.671026 0 0 0 75.671026 75.671026v454.026157a75.671026 75.671026 0 0 0 75.671027 75.671026h655.815559a75.671026 75.671026 0 0 0 75.671026-75.671026v-454.026157a75.671026 75.671026 0 0 0 75.671027-75.671026v-127.631797a75.671026 75.671026 0 0 0-55.744323-72.644185z m-64.068136-45.654853a34.051962 34.051962 0 0 1-16.899862 25.223675 92.318652 92.318652 0 0 1-52.213008 18.161047h-220.454923A285.532005 285.532005 0 0 1 788.3152 115.947686c65.329319 0 81.976945 37.835513 81.976944 56.75327zM107.275964 292.513414h353.131456v126.118377H107.275964z m126.118377-176.565728a285.532005 285.532005 0 0 1 207.590849 100.894702H220.530267c-47.42051 0-69.112871-27.241569-69.112871-42.880248S168.065022 115.947686 233.394341 115.947686z m-50.44735 378.355131h277.460429v454.026157H182.946991z m655.815559 454.026157H536.078446v-454.026157h302.684104z m75.671026-529.697183H536.078446v-126.118377h378.35513z" /></svg>