<?xml version="1.0" standalone="no"?><!DOCTYPE svg PUBLIC "-//W3C//DTD SVG 1.1//EN" "http://www.w3.org/Graphics/SVG/1.1/DTD/svg11.dtd"><svg class="icon" width="200px" height="169.54px" viewBox="0 0 1208 1024" version="1.1" xmlns="http://www.w3.org/2000/svg"><path fill="#333333" d="M1076.947075 575.803044V498.871802A476.028474 476.028474 0 0 0 814.383107 78.769453a78.76919 78.76919 0 0 0-78.769191-78.76919H473.049948a78.76919 78.76919 0 0 0-78.76919 72.992783A468.151555 468.151555 0 0 0 131.71679 498.871802v76.931242A236.307571 236.307571 0 0 0 236.742377 1023.999737h105.025587a78.76919 78.76919 0 0 0 78.769191-78.76919V630.153786a78.76919 78.76919 0 0 0-78.769191-78.769191H210.48598v-52.512793a389.382364 389.382364 0 0 1 189.046057-339.757775A78.76919 78.76919 0 0 0 473.049948 210.051437h262.563968a78.76919 78.76919 0 0 0 70.629708-44.635875A396.209028 396.209028 0 0 1 998.177884 498.871802v54.088177c-8.664611 0-90.584569-1.575384-105.025587-1.575384h-26.256397a78.76919 78.76919 0 0 0-78.76919 78.769191v315.076761a78.76919 78.76919 0 0 0 78.76919 78.76919h105.025587a236.307571 236.307571 0 0 0 105.025588-448.196693zM315.511568 630.153786h26.256396v315.076761h-26.256396z m-78.769191 0v315.076761a157.538381 157.538381 0 0 1 0-315.076761zM735.613916 131.282247H473.049948V78.769453h262.563968z m157.538381 813.9483h-26.256397V630.153786h26.256397z m78.76919 0V630.153786a157.538381 157.538381 0 0 1 0 315.076761z" /></svg>