<?xml version="1.0" standalone="no"?><!DOCTYPE svg PUBLIC "-//W3C//DTD SVG 1.1//EN" "http://www.w3.org/Graphics/SVG/1.1/DTD/svg11.dtd"><svg class="icon" width="200px" height="161.39px" viewBox="0 0 1269 1024" version="1.1" xmlns="http://www.w3.org/2000/svg"><path fill="#333333" d="M1269.183675 461.521127a86.535211 86.535211 0 0 0-86.535211-86.535212V86.535211a86.535211 86.535211 0 0 0-86.535211-86.535211H173.070999a86.535211 86.535211 0 0 0-86.535211 86.535211v288.450704a86.535211 86.535211 0 0 0-86.535211 86.535212v259.605634a83.939155 83.939155 0 0 0 1.730704 17.307042A50.767324 50.767324 0 0 0 0.000577 749.971831v230.760563a43.267606 43.267606 0 0 0 86.535211 0v-57.69014h1096.112676v57.69014a43.267606 43.267606 0 0 0 86.535211 0v-230.760563a50.767324 50.767324 0 0 0-1.730704-11.538028A83.939155 83.939155 0 0 0 1269.183675 721.126761zM173.070999 86.535211h923.042254v288.450704h-57.690141V259.605634a86.535211 86.535211 0 0 0-86.535211-86.535211h-230.760564a86.535211 86.535211 0 0 0-86.535211 86.535211v115.380281h-28.84507V259.605634a86.535211 86.535211 0 0 0-86.535211-86.535211h-230.760564a86.535211 86.535211 0 0 0-86.535211 86.535211v115.380281H173.070999z m778.816902 288.450704h-230.760564V259.605634h230.760564z m-432.676056 0h-230.760564V259.605634h230.760564zM86.535788 461.521127h1096.112676v259.605634H86.535788z m0 374.985915v-28.84507h1096.112676v28.84507z" /></svg>