<?xml version="1.0" standalone="no"?><!DOCTYPE svg PUBLIC "-//W3C//DTD SVG 1.1//EN" "http://www.w3.org/Graphics/SVG/1.1/DTD/svg11.dtd"><svg class="icon" width="200px" height="200.00px" viewBox="0 0 1024 1024" version="1.1" xmlns="http://www.w3.org/2000/svg"><path fill="#333333" d="M996.258908 27.648912c-47.381348-47.381348-131.720147-33.40385-253.016396 38.378891A473.813477 473.813477 0 0 0 104.068132 687.434178C1.250607 842.371185-24.33532 946.61015 26.599628 997.545098a99.027017 99.027017 0 0 0 72.967276 26.296648c58.752871 0 131.48324-31.271689 191.183738-63.727912 18.715632-10.18699 38.141985-21.558513 57.568337-33.640757a473.813477 473.813477 0 0 0 613.114639-639.648194C1022.792463 172.162022 1043.640256 75.267166 996.258908 27.648912zM256.872978 897.807362c-108.503286 58.752871-168.203784 61.358845-180.049121 49.276601S70.427375 876.959569 143.39465 758.506199a477.840891 477.840891 0 0 0 131.720147 129.114173z m86.47096-52.35639A402.741455 402.741455 0 0 1 704.626714 126.202115a41.221772 41.221772 0 0 0 2.369067 4.501228 35.062197 35.062197 0 0 0 35.772917 15.872751A407.005776 407.005776 0 0 1 880.174607 284.692723a1722.311988 1722.311988 0 0 1-265.335547 334.749221 1824.181885 1824.181885 0 0 1-271.495122 226.009028z m191.183737 47.381348a411.743911 411.743911 0 0 1-112.767607-15.872751A1951.400804 1951.400804 0 0 0 664.589475 669.666172a1902.124202 1902.124202 0 0 0 251.121142-306.320412 398.240227 398.240227 0 0 1 21.0847 127.455825 402.741455 402.741455 0 0 1-402.267642 402.741455zM918.079685 213.620701a481.394492 481.394492 0 0 0-104.949685-105.423498c83.154265-43.353933 122.954597-40.274146 132.90468-30.56097S959.775271 123.833047 918.079685 213.620701z" /></svg>