<?xml version="1.0" standalone="no"?><!DOCTYPE svg PUBLIC "-//W3C//DTD SVG 1.1//EN" "http://www.w3.org/Graphics/SVG/1.1/DTD/svg11.dtd"><svg class="icon" width="200px" height="178.40px" viewBox="0 0 1148 1024" version="1.1" xmlns="http://www.w3.org/2000/svg"><path fill="#333333" d="M1126.810963 246.737119l-224.760533-224.760534A74.920178 74.920178 0 0 0 849.106837 0H299.6922a74.920178 74.920178 0 0 0-52.943592 21.976585l-224.760534 224.760534a74.920178 74.920178 0 0 0-6.493082 98.644901l499.467852 649.308208a74.920178 74.920178 0 0 0 118.873349 0l499.467852-649.308208a74.920178 74.920178 0 0 0-6.493082-98.644901zM849.106837 74.920178l4.495211 4.49521-85.159269 153.336631L642.327147 74.920178z m-142.847805 199.787141H442.540006L574.399519 109.882927zM299.6922 74.920178h206.779691l-126.115633 157.831841-85.159269-153.336631zM240.005792 134.606586L317.922777 274.707319H99.905059zM113.390691 349.627496h229.755212l153.086897 497.719715zM574.399519 846.598009L421.562356 349.627496h305.674325z m78.166719 0L805.653134 349.627496h229.755212zM830.876261 274.707319l77.916985-140.100733L1048.893978 274.707319z" /></svg>