<?xml version="1.0" standalone="no"?><!DOCTYPE svg PUBLIC "-//W3C//DTD SVG 1.1//EN" "http://www.w3.org/Graphics/SVG/1.1/DTD/svg11.dtd"><svg class="icon" width="200px" height="200.00px" viewBox="0 0 1024 1024" version="1.1" xmlns="http://www.w3.org/2000/svg"><path fill="#333333" d="M907.178082 482.191781a65.753425 65.753425 0 0 0-28.931507-41.643836l-350.684931-223.123287c27.616438-29.150685 56.986301-68.164384 56.986301-107.835617a112.657534 112.657534 0 0 0-109.589041-109.589041 111.123288 111.123288 0 0 0-109.589041 109.589041c0 43.835616 34.849315 85.69863 63.780822 113.972603l5.260274 3.945205a35.726027 35.726027 0 0 0-3.726027 4.383562L134.794521 687.561644a65.753425 65.753425 0 0 0-6.136987 12.493151C102.575342 768.657534 98.849315 920.547945 271.561644 1001.863014a227.726027 227.726027 0 0 0 97.972603 21.917808c73.643836 0 149.260274-33.972603 224.657534-101.260274 16.657534-14.90411 31.561644-29.589041 43.835616-43.835616a207.123288 207.123288 0 0 0 107.616439 35.506849 132.821918 132.821918 0 0 0 106.520548-53.041096c68.383562-87.671233 18.410959-190.684932-5.698631-239.780822l-1.753424-3.726027c11.616438-21.917808 34.191781-58.739726 53.041096-87.671233a65.753425 65.753425 0 0 0 9.424657-47.780822zM474.958904 65.753425a47.123288 47.123288 0 0 1 43.835617 43.835616c0 24.328767-43.835616 65.753425-43.835617 65.753425s-43.835616-42.30137-43.835616-65.753425a45.369863 45.369863 0 0 1 43.835616-43.835616z m299.39726 549.69863c-4.383562 21.917808 86.136986 128.876712 26.082192 206.246575a65.753425 65.753425 0 0 1-54.575342 27.616438c-56.328767 0-117.479452-60.273973-117.479452-60.273972s-121.205479 169.205479-258.849315 169.205479A163.506849 163.506849 0 0 1 299.616438 942.465753c-163.506849-77.150685-109.589041-219.178082-109.589041-219.178082l295.890411-455.671233L842.958904 494.90411s-64.438356 99.068493-68.60274 120.547945z" /></svg>