<?xml version="1.0" standalone="no"?><!DOCTYPE svg PUBLIC "-//W3C//DTD SVG 1.1//EN" "http://www.w3.org/Graphics/SVG/1.1/DTD/svg11.dtd"><svg class="icon" width="200px" height="183.02px" viewBox="0 0 1119 1024" version="1.1" xmlns="http://www.w3.org/2000/svg"><path fill="#333333" d="M799.428325 117.981231a319.77133 319.77133 0 0 0-201.722414 60.756553 175.607755 175.607755 0 0 1 58.358268-109.521681A39.971416 39.971416 0 1 0 599.571244 12.723168a250.487542 250.487542 0 0 0-82.341117 170.54471A319.77133 319.77133 0 0 0 319.77133 117.981231c-182.269658 0-319.77133 194.794035-319.77133 453.009385 0 253.951731 146.295384 453.009384 333.095136 453.009384a675.516935 675.516935 0 0 0 159.885665-34.90837c22.383993-6.395427 51.962841-15.189138 65.553122-17.853899 13.590282 2.664761 43.16913 11.458473 65.553123 17.853899a675.516935 675.516935 0 0 0 159.885665 34.90837c186.533276 0 333.095136-199.057653 333.095136-453.009384 2.131809-258.215349-135.369863-453.009384-317.639522-453.009385z m-13.323805 826.075936c-51.163413 0-196.126416-53.295222-226.504692-53.295221s-175.341279 53.295222-226.504692 53.295221c-139.899957 0-253.152303-167.08052-253.152303-373.066551s99.928541-373.066552 239.828497-373.066552c146.56186 0 186.533276 106.590443 239.828498 106.590443s66.619027-106.590443 239.828497-106.590443c139.899957 0 239.828498 167.08052 239.828498 373.066552s-113.252346 373.066552-253.152303 373.066551z"  /><path fill="#333333" d="M772.780715 291.190702a39.971416 39.971416 0 0 0 0 79.942832c3.730666 0 93.266638 1.598857 93.266638 146.56186a39.971416 39.971416 0 0 0 79.942832 0c0-179.071945-113.252346-226.504692-173.20947-226.504692z"  /></svg>