<?xml version="1.0" standalone="no"?><!DOCTYPE svg PUBLIC "-//W3C//DTD SVG 1.1//EN" "http://www.w3.org/Graphics/SVG/1.1/DTD/svg11.dtd"><svg class="icon" width="200px" height="181.88px" viewBox="0 0 1126 1024" version="1.1" xmlns="http://www.w3.org/2000/svg"><path fill="#333333" d="M1049.564315 460.819148H719.847525L1005.533812 175.132861a38.654686 38.654686 0 0 0 0-54.270154 38.142703 38.142703 0 0 0-54.270155 0L611.307216 460.819148h-85.501093L665.57737 51.233074a38.654686 38.654686 0 0 0-25.599129-49.150329 38.142703 38.142703 0 0 0-48.638347 24.063182L444.656882 460.819148H76.797389a76.797389 76.797389 0 0 0-65.277781 117.244014l254.455349 409.586074A76.797389 76.797389 0 0 0 331.252737 1024H819.172148a76.797389 76.797389 0 0 0 66.813728-39.166668l230.392167-407.282153A76.797389 76.797389 0 0 0 1126.361704 537.616537a76.797389 76.797389 0 0 0-76.797389-76.797389z m-230.392167 486.383463H331.252737L76.797389 537.616537h972.766926z" /></svg>