<?xml version="1.0" standalone="no"?><!DOCTYPE svg PUBLIC "-//W3C//DTD SVG 1.1//EN" "http://www.w3.org/Graphics/SVG/1.1/DTD/svg11.dtd"><svg class="icon" width="200px" height="200.00px" viewBox="0 0 1024 1024" version="1.1" xmlns="http://www.w3.org/2000/svg"><path fill="#333333" d="M250.005758 762.091341m-35.714817 0a35.714817 35.714817 0 1 0 71.429634 0 35.714817 35.714817 0 1 0-71.429634 0Z"  /><path fill="#333333" d="M416.674905 333.513534m-35.714817 0a35.714817 35.714817 0 1 0 71.429634 0 35.714817 35.714817 0 1 0-71.429634 0Z"  /><path fill="#333333" d="M800.49014 235.416837C595.48709 30.413786 410.722435 2.080031 402.865176 0.175241A71.429634 71.429634 0 0 0 392.865027 0.175241a71.429634 71.429634 0 0 0-67.381955 47.619756l-309.528416 880.965491a71.429634 71.429634 0 0 0 17.143112 74.286819A71.429634 71.429634 0 0 0 83.336611 1024a71.429634 71.429634 0 0 0 23.809878-4.285778l857.155613-309.528416A71.429634 71.429634 0 0 0 1011.921858 643.04195c0-8.095359-2.380988-198.574384-211.431718-407.625113zM83.336611 952.570366L336.673714 231.369157a634.533252 634.533252 0 0 1 269.051623 151.192726c116.430304 116.430304 174.526407 295.956785 180.716975 316.195182z m770.487656-278.099377c-11.190643-35.476718-72.858227-217.622286-197.621988-342.386047a700.724713 700.724713 0 0 0-295.718687-168.335839L392.865027 71.604875s166.669147 23.809878 357.148172 214.288903 190.479025 357.148172 190.479025 357.148172z"  /><path fill="#333333" d="M464.294661 404.943169a166.669147 166.669147 0 1 0 166.669147 166.669147 166.669147 166.669147 0 0 0-166.669147-166.669147z m0 261.908659a95.239512 95.239512 0 1 1 95.239513-95.239512 95.239512 95.239512 0 0 1-95.239513 95.239512z"  /></svg>