<?xml version="1.0" standalone="no"?><!DOCTYPE svg PUBLIC "-//W3C//DTD SVG 1.1//EN" "http://www.w3.org/Graphics/SVG/1.1/DTD/svg11.dtd"><svg class="icon" width="200px" height="200.00px" viewBox="0 0 1024 1024" version="1.1" xmlns="http://www.w3.org/2000/svg"><path fill="#333333" d="M970.678613 770.297336c-61.204894 0-86.571181 46.543646-103.094175 75.633424s-23.271823 40.72569-44.216464 40.72569-27.693469-10.47232-44.216463-40.72569-41.191126-75.633424-102.396021-75.633424-86.338463 46.543646-103.094175 75.633424S549.225901 886.65645 528.513979 886.65645s-27.460751-10.47232-44.216463-40.72569a342.328514 342.328514 0 0 0-18.152022-29.787933A721.426508 721.426508 0 0 0 481.970333 712.117779a97.974374 97.974374 0 0 0 48.405392 11.635911c62.833922 0 88.432927-46.543646 105.188639-76.797015s24.435414-39.562099 42.121999-39.562099 24.668132 7.91242 42.122 39.562099 42.587436 76.797015 105.421357 76.797015 88.200209-46.543646 105.188639-76.797015 24.435414-39.562099 42.122-39.562099a34.907734 34.907734 0 0 0 0-69.815468c-61.204894 0-86.571181 46.543646-103.094175 75.633424s-23.271823 40.72569-44.216464 40.72569-27.693469-10.47232-44.216463-40.72569S737.960385 537.579108 676.75549 537.579108s-86.338463 46.543646-103.094175 75.633424S549.225901 653.938222 528.513979 653.938222s-27.460751-10.47232-44.216463-40.72569l-1.39631-2.559901v-53.525192c0-17.221149-0.930873-31.184243-0.930873-45.147336C481.970333 181.054782 303.242734 23.271823 295.795751 16.755712a69.815469 69.815469 0 0 0-90.76011 0C197.123222 23.271823 16.533876 181.054782 16.533876 511.980103v45.147336c0 132.64939-3.723492 314.402327 89.131082 408.653209A198.974085 198.974085 0 0 0 249.252105 1023.960205a198.741367 198.741367 0 0 0 144.51802-58.179557 232.718228 232.718228 0 0 0 43.28559-62.601203A104.257766 104.257766 0 0 0 528.513979 956.471919c62.833922 0 88.432927-46.543646 105.188639-76.797015s24.435414-39.562099 42.122-39.562099 24.668132 7.91242 42.121999 39.562099 42.587436 76.797015 105.421357 76.797015 88.200209-46.543646 105.18864-76.797015 24.435414-39.562099 42.121999-39.562099a34.907734 34.907734 0 0 0 0-69.815469zM249.252105 69.815469s105.188639 90.527391 146.612484 283.218084L188.512647 144.983456A394.224679 394.224679 0 0 1 249.252105 69.815469zM152.906758 208.050096L388.883042 443.560943A165.46266 165.46266 0 0 1 412.154865 511.980103v44.216463L127.075035 269.720427a648.352984 648.352984 0 0 1 25.831723-61.670331zM249.252105 954.144737c-186.174583 0-162.90276-290.897786-162.90276-442.164634a749.119977 749.119977 0 0 1 17.919303-165.462661L412.154865 653.007349s1.396309 0 1.861746 1.396309C410.525837 797.525369 386.788578 954.144737 249.252105 954.144737z" /></svg>