<?xml version="1.0" standalone="no"?><!DOCTYPE svg PUBLIC "-//W3C//DTD SVG 1.1//EN" "http://www.w3.org/Graphics/SVG/1.1/DTD/svg11.dtd"><svg class="icon" width="200px" height="197.30px" viewBox="0 0 1038 1024" version="1.1" xmlns="http://www.w3.org/2000/svg"><path fill="#333333" d="M739.636907 0a299.235556 299.235556 0 0 0-267.093334 165.546667c-1.422222 0-3.413333 1.991111-4.835555 3.413333l-455.111111 455.111111a42.382222 42.382222 0 0 0 0 60.302222 42.666667 42.666667 0 0 0 60.302222 0l369.777778-369.777777A298.666667 298.666667 0 0 0 717.45024 597.333333L354.783573 936.106667a42.666667 42.666667 0 0 0 28.444445 73.671111 41.813333 41.813333 0 0 0 28.444444-11.662222l455.111111-426.666667a40.675556 40.675556 0 0 0 3.982223-5.688889A298.382222 298.382222 0 0 0 739.636907 0z m0 512a213.333333 213.333333 0 1 1 213.333333-213.333333A213.333333 213.333333 0 0 1 739.636907 512z"  /><path fill="#333333" d="M556.454684 595.626667a42.382222 42.382222 0 0 0-60.302222 0l-355.555555 355.555555a42.382222 42.382222 0 0 0 0 60.302222 42.666667 42.666667 0 0 0 60.302222 0l355.555555-355.555555a42.382222 42.382222 0 0 0 0-60.302222zM442.676907 481.848889a42.382222 42.382222 0 0 0-60.302223 0L26.819129 837.404444a42.382222 42.382222 0 0 0 0 60.302223 42.666667 42.666667 0 0 0 60.302222 0l355.555556-355.555556a42.382222 42.382222 0 0 0 0-60.302222z"  /></svg>