<?xml version="1.0" standalone="no"?><!DOCTYPE svg PUBLIC "-//W3C//DTD SVG 1.1//EN" "http://www.w3.org/Graphics/SVG/1.1/DTD/svg11.dtd"><svg class="icon" width="200px" height="200.00px" viewBox="0 0 1024 1024" version="1.1" xmlns="http://www.w3.org/2000/svg"><path fill="#333333" d="M787.589719 393.79486a78.758972 78.758972 0 0 0-41.217195-69.307896c-178.782866-96.611006-186.921293-105.011963-284.582419-283.532299A78.758972 78.758972 0 0 0 393.79486 0a78.758972 78.758972 0 0 0-69.045366 41.479725c-96.085946 177.995277-105.011963 186.133704-282.482179 283.007239a78.758972 78.758972 0 0 0 0 138.615791c178.520336 96.873535 186.396234 105.011963 283.269769 283.269769a78.758972 78.758972 0 0 0 138.61579 0c96.873535-178.520336 105.011963-186.396234 283.269769-283.269769A78.758972 78.758972 0 0 0 787.589719 393.79486zM393.79486 708.830747c-105.011963-191.909362-123.389056-210.023925-315.035888-315.035887 191.121772-105.011963 210.023925-123.389056 315.035888-315.035888 105.011963 191.909362 123.651586 210.023925 315.035887 315.035888-191.646832 105.011963-210.023925 123.389056-315.035887 315.035887zM982.64944 744.534814C918.854672 708.830747 918.854672 708.830747 883.150605 645.03598a78.758972 78.758972 0 0 0-138.615791 0C708.830747 708.830747 708.830747 708.830747 645.03598 744.534814a78.758972 78.758972 0 0 0 0 138.615791C708.830747 918.854672 708.830747 918.854672 744.534814 982.64944a78.758972 78.758972 0 0 0 138.615791 0C918.854672 918.854672 918.854672 918.854672 982.64944 883.150605a78.758972 78.758972 0 0 0 0-138.615791zM813.84271 945.107663c-43.317435-78.758972-52.505981-87.947519-131.264953-131.264953 78.758972-43.317435 87.947519-52.505981 131.264953-131.264953 43.317435 78.758972 52.505981 87.947519 131.264953 131.264953-78.758972 43.317435-87.947519 52.505981-131.264953 131.264953z" /></svg>