<?xml version="1.0" standalone="no"?><!DOCTYPE svg PUBLIC "-//W3C//DTD SVG 1.1//EN" "http://www.w3.org/Graphics/SVG/1.1/DTD/svg11.dtd"><svg class="icon" width="200px" height="200.00px" viewBox="0 0 1024 1024" version="1.1" xmlns="http://www.w3.org/2000/svg"><path fill="#333333" d="M773.953488 0a119.069767 119.069767 0 0 0-119.069767 119.069767v166.697675h-95.255814a70.013023 70.013023 0 0 0-35.72093 10.00186A70.013023 70.013023 0 0 0 488.186047 285.767442h-95.255814a71.44186 71.44186 0 0 0-23.813954 4.286511V119.069767A119.069767 119.069767 0 0 0 130.976744 119.069767v476.27907c0 47.627907 0 166.697674 23.813954 214.325582a409.83814 409.83814 0 0 0 354.351628 214.325581C719.181395 1024 893.023256 857.302326 893.023256 714.418605V119.069767a119.069767 119.069767 0 0 0-119.069768-119.069767z m-214.325581 357.209302h95.255814v238.139535a47.627907 47.627907 0 0 1-95.255814 0z m-166.697674 0h95.255814v176.699535a112.87814 112.87814 0 0 0-15.240931-18.574884A116.688372 116.688372 0 0 0 392.930233 480.803721zM202.418605 119.069767a47.627907 47.627907 0 0 1 95.255814 0v403.170233l-95.255814 95.255814z m26.433488 655.36a281.957209 281.957209 0 0 1-19.289302-56.439069 44.532093 44.532093 0 0 1 10.954418-17.622326l134.548838-134.548837a47.627907 47.627907 0 0 1 33.815813-14.050233 47.627907 47.627907 0 0 1 33.577675 81.443721l-134.548837 134.548837a47.627907 47.627907 0 0 1-33.815814 14.050233 47.627907 47.627907 0 0 1-25.242791-7.382326zM821.581395 714.418605c0 119.069767-163.84 238.139535-309.581395 238.139535-93.350698 0-181.462326-30.72-238.139535-95.255814a146.693953 146.693953 0 0 0 64.535814-39.054884L442.463256 714.418605a119.069767 119.069767 0 0 0 81.443721-34.053954A119.069767 119.069767 0 0 0 607.255814 714.418605c95.255814 0 119.069767-116.688372 119.069767-116.688372V119.069767a47.627907 47.627907 0 0 1 95.255814 0z" /></svg>