<?xml version="1.0" standalone="no"?><!DOCTYPE svg PUBLIC "-//W3C//DTD SVG 1.1//EN" "http://www.w3.org/Graphics/SVG/1.1/DTD/svg11.dtd"><svg class="icon" width="200px" height="190.16px" viewBox="0 0 1077 1024" version="1.1" xmlns="http://www.w3.org/2000/svg"><path fill="#333333" d="M813.504605 92.808076a263.657945 263.657945 0 0 0-249.276603 348.987244L388.296246 755.068896a119.84452 119.84452 0 0 0 20.373569 143.813425l-3.355647 4.314402a77.179871 77.179871 0 0 1-62.798529 7.190672c-162.269481-27.803929-180.725537 67.35262-181.444604 71.906712a36.193045 36.193045 0 0 0 29.242063 41.226515h6.231916a36.193045 36.193045 0 0 0 35.473978-29.96113s16.298855-27.084862 98.272506-12.703519c55.128479 9.347873 97.313751 0 125.357369-26.845173a91.800903 91.800903 0 0 0 11.025696-13.182897 119.84452 119.84452 0 0 0 143.813424-30.440508l1.438134-1.677824 230.580858-290.263428a263.657945 263.657945 0 0 0-29.002374-525.638067zM555.119819 864.367099a47.937808 47.937808 0 0 1-36.672423 17.017922c-9.827251 0-64.476352-30.440508-70.708268-51.293455a47.937808 47.937808 0 0 1 3.355647-39.069314l153.640675-273.485195a263.657945 263.657945 0 0 0 150.04534 95.875616z m258.384786-316.149845a191.751233 191.751233 0 0 1-191.751233-191.751233 189.354342 189.354342 0 0 1 21.092636-86.767433c14.381342 50.814077 49.615631 141.656223 125.597057 181.684293a316.389534 316.389534 0 0 0 147.40876 37.63118 259.82292 259.82292 0 0 0 38.829625-2.876269 191.751233 191.751233 0 0 1-141.176845 62.079462z m155.318498-138.540266a217.158271 217.158271 0 0 1-167.782328-22.051392c-61.360394-32.358021-90.602457-130.630527-95.875617-165.864816a34.035844 34.035844 0 0 0-8.149427-17.257611 191.751233 191.751233 0 0 1 308.240107 151.962852 196.065635 196.065635 0 0 1-7.909739 54.88879 37.870868 37.870868 0 0 0-28.522996-1.677823z"  /><path fill="#333333" d="M592.031931 615.330185l-47.937808 71.906713a35.953356 35.953356 0 0 0 9.827251 49.85532 35.953356 35.953356 0 0 0 49.85532-10.06694l47.937808-71.906712a35.953356 35.953356 0 1 0-59.682571-39.788381zM236.812772 500.998513a32.118331 32.118331 0 0 0 1.438135-9.587562V234.703988l191.751232-130.630527v176.411134a113.612605 113.612605 0 0 0-38.589935-6.711293 131.828973 131.828973 0 0 0-49.615632 9.827251A129.671771 129.671771 0 0 0 279.717111 335.613074a102.826599 102.826599 0 0 0-8.628806 92.999348 107.38069 107.38069 0 0 0 101.867843 64.95573 132.54804 132.54804 0 0 0 49.615631-9.82725A128.952704 128.952704 0 0 0 484.651241 431.488691c16.538544-27.084862 17.257611-100.190019 17.257611-107.860069v-287.626849a35.953356 35.953356 0 0 0-18.935435-31.878642 36.193045 36.193045 0 0 0-37.151801 2.157201l-263.657945 179.766781A35.953356 35.953356 0 0 0 166.344194 215.768554v184.560562a113.612605 113.612605 0 0 0-38.589935-6.711294 131.828973 131.828973 0 0 0-49.615632 9.827251 112.893538 112.893538 0 0 0-70.708267 143.813425 107.38069 107.38069 0 0 0 101.867843 64.95573 132.54804 132.54804 0 0 0 49.615631-9.827251 119.84452 119.84452 0 0 0 77.898938-101.388464z m158.913835-84.130854a60.161949 60.161949 0 0 1-23.968905 4.554092 36.193045 36.193045 0 0 1-35.234289-19.89419 43.144027 43.144027 0 0 1 30.919887-51.293455 60.161949 60.161949 0 0 1 22.770459-4.554092 36.432734 36.432734 0 0 1 35.234289 19.894191 43.144027 43.144027 0 0 1-29.721441 51.293454z m-263.657945 119.844521a60.161949 60.161949 0 0 1-23.968905 4.554092 36.193045 36.193045 0 0 1-35.234289-19.894191 43.144027 43.144027 0 0 1 30.919887-51.293455 60.161949 60.161949 0 0 1 23.968904-4.554091 36.432734 36.432734 0 0 1 35.234289 19.89419 43.144027 43.144027 0 0 1-30.919886 51.293455z"  /></svg>