<?xml version="1.0" standalone="no"?><!DOCTYPE svg PUBLIC "-//W3C//DTD SVG 1.1//EN" "http://www.w3.org/Graphics/SVG/1.1/DTD/svg11.dtd"><svg class="icon" width="200px" height="181.40px" viewBox="0 0 1129 1024" version="1.1" xmlns="http://www.w3.org/2000/svg"><path fill="#333333" d="M1071.454668 374.085202l-75.179613-19.961483a72.587213 72.587213 0 0 0-18.146804-2.333161 77.772014 77.772014 0 0 0-50.292569-42.774607l-100.325898-25.924005h-4.666321a74.920374 74.920374 0 0 0-9.851121-33.182726 77.772014 77.772014 0 0 0-47.440929-36.293607L314.732971 92.550511h-4.66632A77.772014 77.772014 0 0 0 252.7746 22.555699L177.594987 2.594215a74.142653 74.142653 0 0 0-19.961484-2.5924 77.772014 77.772014 0 0 0-39.145247 10.628842 77.772014 77.772014 0 0 0-36.034367 47.181688L2.607955 358.5308a77.772014 77.772014 0 0 0 55.21813 95.141097l75.179613 19.961483a86.067696 86.067696 0 0 0 19.961484 2.592401A77.772014 77.772014 0 0 0 192.112429 466.633899a81.660615 81.660615 0 0 0 25.924005-23.850084 19.702244 19.702244 0 0 0 4.147841 1.55544L440.723634 501.890546l-117.435741 473.890805a38.626767 38.626767 0 0 0 28.257165 47.181689 38.108287 38.108287 0 0 0 9.332642 0 39.145247 39.145247 0 0 0 37.849047-29.553366l117.954221-472.594605 123.398262 32.664246 97.733498 439.152639a38.886007 38.886007 0 0 0 37.849047 30.331086 32.145766 32.145766 0 0 0 8.554921 0 38.886007 38.886007 0 0 0 29.294126-46.403969L720.962125 559.960316a77.772014 77.772014 0 0 0 36.034366-28.516405 24.368564 24.368564 0 0 0 3.888601 1.55544l100.325898 25.924005a77.772014 77.772014 0 0 0 19.961484 2.5924 79.327454 79.327454 0 0 0 45.107768-14.517442 81.660615 81.660615 0 0 0 16.850603 6.740241l74.920374 19.961484a77.772014 77.772014 0 0 0 19.961483 2.5924 79.586694 79.586694 0 0 0 39.145247-10.369602A77.772014 77.772014 0 0 0 1113.192316 518.481909l13.480482-50.03333a77.772014 77.772014 0 0 0-55.21813-94.363377zM749.73777 285.165866l-51.848009 207.392038c-8.295682-5.444041-456.521723-124.435223-456.521723-124.435223L277.402405 233.317857l17.369083-65.069252zM77.787569 378.492283L157.633503 77.773829 233.331597 97.735312 202.222791 212.837893l-36.034366 135.323305-13.221243 50.292569z m803.644145 106.029179l-100.325898-25.924004 25.924004-100.325898 100.325899 25.924004z m155.544028 14.776683l-74.920373-19.961484 13.221242-50.033329 75.179614 19.961484z" /></svg>