<?xml version="1.0" standalone="no"?><!DOCTYPE svg PUBLIC "-//W3C//DTD SVG 1.1//EN" "http://www.w3.org/Graphics/SVG/1.1/DTD/svg11.dtd"><svg class="icon" width="200px" height="174.74px" viewBox="0 0 1172 1024" version="1.1" xmlns="http://www.w3.org/2000/svg"><path fill="#333333" d="M414.78481 751.797468a173.431899 173.431899 0 0 1-174.987342-166.950886 38.886076 38.886076 0 0 0-77.772152 0A251.981772 251.981772 0 0 0 414.78481 829.56962a38.886076 38.886076 0 0 0 0-77.772152z"  /><path fill="#333333" d="M1069.107848 408.044557a147.248608 147.248608 0 0 0-83.993924 19.183797v-103.696202a77.772152 77.772152 0 0 0-77.772152-77.772152h-233.316456c0-9.851139 13.998987-23.850127 27.479494-37.330633A132.212658 132.212658 0 0 0 751.797468 116.658228 131.953418 131.953418 0 0 0 678.432405 4.147848a38.626835 38.626835 0 0 0-51.848101 17.109874 39.404557 39.404557 0 0 0 16.850633 51.848101S674.025316 89.956456 674.025316 116.658228c0 9.851139-13.998987 23.850127-27.479493 37.330633A132.212658 132.212658 0 0 0 596.253165 246.278481h-77.772152c0-9.851139 13.998987-23.850127 27.479493-37.330633A132.212658 132.212658 0 0 0 596.253165 116.658228 131.953418 131.953418 0 0 0 522.888101 4.147848a38.626835 38.626835 0 0 0-51.848101 17.109874 39.404557 39.404557 0 0 0 16.850633 51.848101S518.481013 89.956456 518.481013 116.658228c0 9.851139-13.998987 23.850127-27.479494 37.330633A132.212658 132.212658 0 0 0 440.708861 246.278481h-77.772152c0-9.851139 13.998987-23.850127 27.479494-37.330633A132.212658 132.212658 0 0 0 440.708861 116.658228 131.953418 131.953418 0 0 0 367.343797 4.147848a38.626835 38.626835 0 0 0-51.848101 17.109874 39.404557 39.404557 0 0 0 16.850633 51.848101S362.936709 89.956456 362.936709 116.658228c0 9.851139-13.998987 23.850127-27.479494 37.330633A132.212658 132.212658 0 0 0 285.164557 246.278481H77.772152a77.772152 77.772152 0 0 0-77.772152 77.772152v181.468354a492.556962 492.556962 0 0 0 274.017215 440.708861H181.468354a38.886076 38.886076 0 0 0 0 77.772152h622.177216a38.886076 38.886076 0 0 0 0-77.772152h-92.548861a494.630886 494.630886 0 0 0 155.544304-120.287595c4.92557 2.073924 273.498734-149.841013 299.163544-237.982785a153.211139 153.211139 0 0 0-17.887595-129.620253 106.288608 106.288608 0 0 0-78.809114-50.292658zM907.341772 505.518987a414.78481 414.78481 0 0 1-829.56962 0v-181.468354h237.464304a147.248608 147.248608 0 0 0 43.293164 34.738228 37.071392 37.071392 0 0 0 17.109874 4.147848A38.108354 38.108354 0 0 0 414.78481 324.050633h56.514431a147.248608 147.248608 0 0 0 43.293164 34.738228 37.071392 37.071392 0 0 0 17.109873 4.147848A38.108354 38.108354 0 0 0 570.329114 324.050633h56.51443a147.248608 147.248608 0 0 0 43.293165 34.738228 37.071392 37.071392 0 0 0 17.109873 4.147848A38.108354 38.108354 0 0 0 725.873418 324.050633h181.468354z m181.468355 51.848102c-15.035949 51.848101-70.772658 81.660759-155.544304 129.620253 29.553418-60.403038 48.737215-94.104304 51.848101-165.136203 0 0 51.848101-39.145316 75.957468-36.552911a29.034937 29.034937 0 0 1 22.035443 15.813671A56.51443 56.51443 0 0 1 1088.810127 557.367089z"  /></svg>