<?xml version="1.0" standalone="no"?><!DOCTYPE svg PUBLIC "-//W3C//DTD SVG 1.1//EN" "http://www.w3.org/Graphics/SVG/1.1/DTD/svg11.dtd"><svg class="icon" width="200px" height="200.00px" viewBox="0 0 1024 1024" version="1.1" xmlns="http://www.w3.org/2000/svg"><path fill="#333333" d="M989.866667 500.622222H887.466667a359.537778 359.537778 0 0 0-88.974223-221.866666l91.022223-93.752889a35.953778 35.953778 0 0 0 0-49.607111 34.133333 34.133333 0 0 0-48.241778 0l-97.166222 91.022222C689.265778 180.679111 637.155556 144.725333 546.133333 136.533333V34.133333a34.133333 34.133333 0 0 0-68.266666 0V136.533333a397.539556 397.539556 0 0 0-208.213334 91.022223l-91.022222-93.070223a32.312889 32.312889 0 0 0-46.876444 0A33.905778 33.905778 0 0 0 133.347556 182.044444L227.555556 281.031111A356.807111 356.807111 0 0 0 136.533333 500.622222H34.133333a34.133333 34.133333 0 0 0 0 68.266667H136.533333a369.550222 369.550222 0 0 0 85.788445 190.236444l-98.531556 95.573334a32.312889 32.312889 0 0 0 0 46.876444A32.768 32.768 0 0 0 147.911111 910.222222a34.588444 34.588444 0 0 0 24.120889-10.24l92.387556-98.304A392.078222 392.078222 0 0 0 477.866667 891.335111v98.531556a34.133333 34.133333 0 0 0 68.266666 0v-100.124445a336.327111 336.327111 0 0 0 204.8-85.560889l88.974223 86.016a37.546667 37.546667 0 0 0 25.486222 10.012445 36.408889 36.408889 0 0 0 25.031111-10.012445 34.133333 34.133333 0 0 0 0-48.241777l-86.016-80.554667A369.777778 369.777778 0 0 0 887.466667 568.888889h102.4a34.133333 34.133333 0 0 0 0-68.266667zM546.133333 819.2h-45.511111a282.396444 282.396444 0 0 1-206.620444-84.878222A307.655111 307.655111 0 0 1 295.822222 299.918222 335.644444 335.644444 0 0 1 523.377778 204.8a288.312889 288.312889 0 0 1 207.530666 95.118222A318.577778 318.577778 0 0 1 819.2 523.377778c0 136.533333-113.777778 295.822222-273.066667 295.822222z"  /><path fill="#333333" d="M512 250.311111A261.688889 261.688889 0 1 0 773.688889 512 261.916444 261.916444 0 0 0 512 250.311111z m-159.288889 162.702222L441.002667 500.622222h-121.059556a147.911111 147.911111 0 0 1 33.450667-87.608889zM324.266667 568.888889h93.980444l-64.853333 64.853333A200.931556 200.931556 0 0 1 324.266667 568.888889zM477.866667 704.056889a245.76 245.76 0 0 1-87.608889-33.450667L477.866667 582.997333z m0-263.054222l-87.608889-87.608889A245.76 245.76 0 0 1 477.866667 319.943111z m68.266666-116.736a93.980444 93.980444 0 0 1 64.853334 29.127111L546.133333 418.247111z m0 375.466666v-93.980444l64.853334 64.853333A93.980444 93.980444 0 0 1 546.133333 699.733333z m124.472889-65.991111L605.752889 568.888889h93.980444a200.931556 200.931556 0 0 1-29.127111 64.853333zM582.997333 500.622222l87.608889-87.608889A147.911111 147.911111 0 0 1 704.056889 500.622222z"  /></svg>