<?xml version="1.0" standalone="no"?><!DOCTYPE svg PUBLIC "-//W3C//DTD SVG 1.1//EN" "http://www.w3.org/Graphics/SVG/1.1/DTD/svg11.dtd"><svg class="icon" width="200px" height="200.00px" viewBox="0 0 1024 1024" version="1.1" xmlns="http://www.w3.org/2000/svg"><path fill="#333333" d="M809.674419 0H214.325581a71.44186 71.44186 0 0 0-71.44186 71.44186v881.11628a71.44186 71.44186 0 0 0 71.44186 71.44186h595.348838a71.44186 71.44186 0 0 0 71.44186-71.44186V71.44186a71.44186 71.44186 0 0 0-71.44186-71.44186z m-95.255814 476.27907v-166.697675h95.255814v166.697675z m-71.441861 0h-95.255814v-166.697675h95.255814z m-166.697674 0h-95.255814v-166.697675h95.255814z m-166.697675 0H214.325581v-166.697675h95.255814z m-95.255814 71.44186h95.255814v166.697675H214.325581z m166.697675 0h95.255814v166.697675h-95.255814z m166.697674 166.697675v-166.697675h95.255814v166.697675z m166.697675-166.697675h95.255814v166.697675h-95.255814zM381.023256 785.860465h95.255814v166.697675h-95.255814z m166.697674 0h95.255814v166.697675h-95.255814zM809.674419 71.44186v166.697675h-95.255814V71.44186z m-166.697675 0v166.697675h-95.255814V71.44186z m-166.697674 0v166.697675h-95.255814V71.44186zM309.581395 71.44186v166.697675H214.325581V71.44186zM214.325581 785.860465h95.255814v166.697675H214.325581z m500.093024 166.697675v-166.697675h95.255814v166.697675z" /></svg>