<?xml version="1.0" standalone="no"?><!DOCTYPE svg PUBLIC "-//W3C//DTD SVG 1.1//EN" "http://www.w3.org/Graphics/SVG/1.1/DTD/svg11.dtd"><svg class="icon" width="200px" height="200.00px" viewBox="0 0 1024 1024" version="1.1" xmlns="http://www.w3.org/2000/svg"><path fill="#333333" d="M698.939231 170.26949C682.507629 69.298492 608.922633 0 512 0a217.89732 217.89732 0 0 0-209.56245 169.793212C199.561439 188.129926 130.977364 272.431184 130.977364 387.214253a232.185669 232.185669 0 0 0 95.255659 187.415509 68.107796 68.107796 0 0 0 5.477201 25.480889l166.697403 381.022636A71.441744 71.441744 0 0 0 464.372171 1023.998333h95.255658a71.441744 71.441744 0 0 0 65.964544-44.293881l48.818525-119.069574 117.164461-261.953062a67.393379 67.393379 0 0 0 5.715339-26.195306 232.185669 232.185669 0 0 0 95.255659-187.415509 223.136381 223.136381 0 0 0-193.607126-214.801511zM559.627829 952.556589h-95.255658l-20.718106-47.62783h135.501175z m49.056665-119.069574h-196.464797l-31.196228-71.441744h259.80981z m64.05943-142.883488H349.827241l-33.339481-76.204527a229.327999 229.327999 0 0 0 47.62783 4.762783h296.959516a242.663791 242.663791 0 0 0 45.960856-4.524644z m-11.668818-142.883488H362.924894A160.505785 160.505785 0 0 1 202.419109 387.214253C202.419109 298.626491 256.714834 238.139147 345.302597 238.139147c0 0 23.813915-15.479045 23.813915-23.813915a146.931854 146.931854 0 0 1 142.883488-142.883488c75.966388 0 119.069574 66.9171 119.069574 142.883488a33.339481 33.339481 0 0 0 23.813914 23.813915c88.587763 0 166.697403 60.487343 166.697403 149.075106A160.505785 160.505785 0 0 1 661.075106 547.720039z" /></svg>