<?xml version="1.0" standalone="no"?><!DOCTYPE svg PUBLIC "-//W3C//DTD SVG 1.1//EN" "http://www.w3.org/Graphics/SVG/1.1/DTD/svg11.dtd"><svg class="icon" width="200px" height="200.00px" viewBox="0 0 1024 1024" version="1.1" xmlns="http://www.w3.org/2000/svg"><path fill="#333333" d="M795.184762 21.699048a54.857143 54.857143 0 0 0-5.12-2.925715 56.807619 56.807619 0 0 0-4.144762-6.339047 36.815238 36.815238 0 0 0-51.687619 0l-56.32 56.32A390.095238 390.095238 0 0 0 147.626667 626.590476L68.144762 707.047619 91.306667 731.428571a499.078095 499.078095 0 0 0 161.401904 114.834286A512 512 0 0 0 383.878095 884.540952V950.857143h-73.142857a36.571429 36.571429 0 0 0 0 73.142857h243.809524a36.571429 36.571429 0 0 0 0-73.142857h-97.52381v-60.952381A500.053333 500.053333 0 0 0 795.184762 21.699048zM140.068571 390.095238A316.952381 316.952381 0 0 1 642.072381 133.12a35.59619 35.59619 0 0 0 8.533333 14.628571 34.864762 34.864762 0 0 0 21.211429 9.752381A316.952381 316.952381 0 1 1 140.068571 390.095238z m707.047619 173.592381A427.154286 427.154286 0 0 1 170.788571 707.047619l26.575239-26.819048a390.095238 390.095238 0 0 0 536.380952-564.419047l25.843809-25.84381A426.179048 426.179048 0 0 1 847.11619 563.687619z" /></svg>