<?xml version="1.0" standalone="no"?><!DOCTYPE svg PUBLIC "-//W3C//DTD SVG 1.1//EN" "http://www.w3.org/Graphics/SVG/1.1/DTD/svg11.dtd"><svg class="icon" width="200px" height="189.45px" viewBox="0 0 1081 1024" version="1.1" xmlns="http://www.w3.org/2000/svg"><path fill="#333333" d="M388.873712 388.873712h-97.218428a72.913821 72.913821 0 0 0-72.913821 72.913821v97.218428a72.913821 72.913821 0 0 0 72.913821 72.913821h97.218428a72.913821 72.913821 0 0 0 72.913821-72.913821v-97.218428a72.913821 72.913821 0 0 0-72.913821-72.913821z m0 170.132249h-97.218428v-97.218428h97.218428z"  /><path fill="#333333" d="M1045.0981 802.05203h-24.304607V510.396747a510.396747 510.396747 0 0 0-1020.793493 0v291.655283a72.913821 72.913821 0 0 0 72.913821 72.913821h121.523035a52.984043 52.984043 0 0 0 0 6.076152 143.397181 143.397181 0 0 0 145.827642 142.911089 142.181951 142.181951 0 0 0 145.827642-141.452813V874.965851h559.00596a36.45691 36.45691 0 0 0 0-72.913821z m-704.833602 148.987241a69.26813 69.26813 0 0 1-72.913821-68.538992V874.965851h145.827642a50.796629 50.796629 0 0 1 0 6.076152 70.48336 70.48336 0 0 1-72.913821 69.997268zM729.138209 802.05203h-121.523034V522.54905a60.761517 60.761517 0 0 1 121.523034 0z m218.741463 0h-145.827642V522.54905a133.675338 133.675338 0 0 0-267.350676 0V802.05203H72.913821V510.396747a437.482926 437.482926 0 0 1 874.965851 0z"  /></svg>