<?xml version="1.0" standalone="no"?><!DOCTYPE svg PUBLIC "-//W3C//DTD SVG 1.1//EN" "http://www.w3.org/Graphics/SVG/1.1/DTD/svg11.dtd"><svg class="icon" width="200px" height="200.00px" viewBox="0 0 1024 1024" version="1.1" xmlns="http://www.w3.org/2000/svg"><path fill="#333333" d="M676.343637 0a187.660774 187.660774 0 0 0-179.870217 153.290669h-93.715821L371.824505 72.177221A34.370105 34.370105 0 0 0 328.289038 51.784292l-137.48042 45.826807a34.599239 34.599239 0 0 0-21.767734 43.535466A33.911837 33.911837 0 0 0 213.722021 162.914299l105.63079-35.286642L331.955183 160.393824A68.74021 68.74021 0 0 0 293.918933 222.030879v389.527859a206.220631 206.220631 0 0 0 160.393824 200.950548 41.014992 41.014992 0 0 0 0 5.270083v137.480421h-68.74021a34.370105 34.370105 0 0 0 0 68.74021h206.220631a34.370105 34.370105 0 0 0 0-68.74021h-68.74021v-137.480421a2.978742 2.978742 0 0 0 0-1.374804 206.220631 206.220631 0 0 0 183.307227-204.845827V363.177445A185.598568 185.598568 0 0 0 856.672122 183.307228a181.015887 181.015887 0 0 0-180.328485-183.307228zM362.659143 241.278138l36.432312 95.319759H362.659143z m274.960842 370.2806a137.480421 137.480421 0 0 1-274.960842 0v-206.220631h62.553592l65.761468 172.537928a34.599239 34.599239 0 0 0 32.078765 22.913403 31.849631 31.849631 0 0 0 12.144103-2.29134 34.370105 34.370105 0 0 0 19.934661-44.452003l-56.366972-148.020586h138.855225z m0-274.960841h-164.976505l-43.764601-114.567018h208.741106z m68.74021-43.535467v-71.031551a68.74021 68.74021 0 0 0-68.74021-68.74021h-68.740211a114.567017 114.567017 0 0 1 108.380399-81.571716 113.192213 113.192213 0 0 1 114.567017 112.963079 116.629224 116.629224 0 0 1-85.466995 108.380398z" /></svg>