<?xml version="1.0" standalone="no"?><!DOCTYPE svg PUBLIC "-//W3C//DTD SVG 1.1//EN" "http://www.w3.org/Graphics/SVG/1.1/DTD/svg11.dtd"><svg class="icon" width="200px" height="200.00px" viewBox="0 0 1024 1024" version="1.1" xmlns="http://www.w3.org/2000/svg"><path fill="#333333" d="M916.579366 948.148148H726.949736c0-227.555556-116.559012-413.645432-214.155061-530.962963l-4.298272-5.05679a132.235062 132.235062 0 0 1 78.885926-45.511111c86.218272-14.917531 178.504691 53.601975 180.021728 54.613333a37.925926 37.925926 0 0 0 45.763951-60.681481c-4.803951-3.539753-119.593086-88.999506-238.174815-68.772346a204.8 204.8 0 0 0-96.331852 43.994074c39.442963-46.26963 109.985185-106.445432 202.271605-84.954074A37.925926 37.925926 0 0 0 697.620354 176.987654c-108.215309-25.283951-192.158025 25.283951-246.771358 77.621729 7.838025-60.428642 32.869136-139.820247 106.445432-185.331358a38.431605 38.431605 0 0 0 12.389135-51.32642 38.431605 38.431605 0 0 0-52.337777-12.389136c-126.419753 78.633086-145.382716 223.510123-146.141235 296.327901a379.259259 379.259259 0 0 0-290.512592 113.777778 37.673086 37.673086 0 0 0 0 53.601975 37.925926 37.925926 0 0 0 53.601975 0 306.441481 306.441481 0 0 1 215.419259-92.286419C275.125539 408.841481 195.986773 474.832593 195.986773 594.17284a37.925926 37.925926 0 0 0 75.851852 0c0-84.954074 58.911605-126.419753 107.203951-147.152593C311.534428 556.246914 347.690477 720.339753 347.690477 728.936296A37.925926 37.925926 0 0 0 385.616403 758.518519a29.582222 29.582222 0 0 0 8.090864 0A37.673086 37.673086 0 0 0 423.542329 712.501728c-10.872099-50.567901-22.502716-179.26321 34.639012-242.725926C546.169489 576.726914 651.097884 745.623704 651.097884 948.148148H107.492946a37.925926 37.925926 0 0 0 0 75.851852h809.08642a37.925926 37.925926 0 0 0 0-75.851852z" /></svg>