<?xml version="1.0" standalone="no"?><!DOCTYPE svg PUBLIC "-//W3C//DTD SVG 1.1//EN" "http://www.w3.org/Graphics/SVG/1.1/DTD/svg11.dtd"><svg class="icon" width="200px" height="200.00px" viewBox="0 0 1024 1024" version="1.1" xmlns="http://www.w3.org/2000/svg"><path fill="#333333" d="M814.309472 93.416402h-160.758316A139.58754 139.58754 0 0 0 511.869803 0.358042a139.58754 139.58754 0 0 0-141.681353 93.05836H209.430133a69.79377 69.79377 0 0 0-69.793769 69.79377v721.202288a69.79377 69.79377 0 0 0 69.793769 69.79377h604.879339a69.79377 69.79377 0 0 0 69.79377-69.79377V163.210172a69.79377 69.79377 0 0 0-69.79377-69.79377zM511.869803 70.151812a80.030189 80.030189 0 0 1 59.092058 23.26459h-118.184117A80.030189 80.030189 0 0 1 511.869803 70.151812z m302.439669 814.260648H209.430133V163.210172h604.879339z"  /><path fill="#333333" d="M349.017673 989.103115m-34.896885 0a34.896885 34.896885 0 1 0 69.79377 0 34.896885 34.896885 0 1 0-69.79377 0Z"  /><path fill="#333333" d="M674.721933 989.103115m-34.896885 0a34.896885 34.896885 0 1 0 69.79377 0 34.896885 34.896885 0 1 0-69.79377 0Z"  /><path fill="#333333" d="M279.223903 233.003942h46.52918v581.614748H279.223903zM418.811443 233.003942h46.52918v581.614748h-46.52918zM558.398983 233.003942h46.52918v581.614748h-46.52918zM697.986523 233.003942h46.529179v581.614748h-46.529179z"  /></svg>