<?xml version="1.0" standalone="no"?><!DOCTYPE svg PUBLIC "-//W3C//DTD SVG 1.1//EN" "http://www.w3.org/Graphics/SVG/1.1/DTD/svg11.dtd"><svg class="icon" width="200px" height="200.00px" viewBox="0 0 1024 1024" version="1.1" xmlns="http://www.w3.org/2000/svg"><path fill="#333333" d="M512 0A250.311111 250.311111 0 0 0 261.688889 250.311111v409.6a68.266667 68.266667 0 0 0 68.266667 68.266667h91.022222v212.764444A83.285333 83.285333 0 0 0 504.035556 1024h15.928888A83.285333 83.285333 0 0 0 603.022222 940.942222V728.177778h91.022222a68.266667 68.266667 0 0 0 68.266667-68.266667V250.311111A250.311111 250.311111 0 0 0 512 0z m22.755556 940.942222a14.791111 14.791111 0 0 1-14.791112 14.791111h-15.928888a14.791111 14.791111 0 0 1-14.791112-14.791111V728.177778h45.511112zM694.044444 659.911111H329.955556V250.311111a182.044444 182.044444 0 0 1 364.088888 0z"  /><path fill="#333333" d="M505.400889 103.082667C456.476444 113.777778 364.088889 165.660444 364.088889 295.822222a34.133333 34.133333 0 0 0 68.266667 0c0-103.765333 77.596444-123.790222 86.698666-125.838222a34.133333 34.133333 0 0 0-13.653333-66.901333z"  /></svg>