<?xml version="1.0" standalone="no"?><!DOCTYPE svg PUBLIC "-//W3C//DTD SVG 1.1//EN" "http://www.w3.org/Graphics/SVG/1.1/DTD/svg11.dtd"><svg class="icon" width="200px" height="184.50px" viewBox="0 0 1110 1024" version="1.1" xmlns="http://www.w3.org/2000/svg"><path fill="#333333" d="M1067.138347 0c-133.248085 0-201.891039 63.163053-230.732616 115.366308a257.843698 257.843698 0 0 0-144.207885-43.262366c-85.082652 0-167.569562 70.373448-247.46073 138.43957a862.939982 862.939982 0 0 1-80.756415 63.739885A374.9405 374.9405 0 1 0 749.881 659.89528a862.939982 862.939982 0 0 1 63.739885-80.756415c68.066122-79.891168 138.439569-162.378078 138.43957-247.46073a259.574192 259.574192 0 0 0-49.030681-151.418279 39.51296 39.51296 0 0 0 4.326236-10.959799C909.374921 162.378078 935.909172 86.524731 1067.138347 86.524731a43.262365 43.262365 0 0 0 0-86.524731zM663.35627 648.935481a288.415769 288.415769 0 1 1-288.41577-288.415769c60.855727 0 221.791727-201.891039 317.257346-201.891039a173.049462 173.049462 0 0 1 173.049462 173.049462c0 95.46562-201.891039 256.401619-201.891038 317.257346z" /></svg>