<?xml version="1.0" standalone="no"?><!DOCTYPE svg PUBLIC "-//W3C//DTD SVG 1.1//EN" "http://www.w3.org/Graphics/SVG/1.1/DTD/svg11.dtd"><svg class="icon" width="200px" height="200.00px" viewBox="0 0 1024 1024" version="1.1" xmlns="http://www.w3.org/2000/svg"><path fill="#333333" d="M992.479397 656.03413l-472.344574-498.585939a80.560991 80.560991 0 0 0-22.567574-16.53206 39.624461 39.624461 0 0 0-6.560341-9.709305C283.962536-76.624786 137.010891 8.397237 67.996101 78.724096c-115.462007 115.462007-33.326534 258.477447 26.241365 318.045346a39.099634 39.099634 0 0 0 27.815847 11.546201 40.149289 40.149289 0 0 0 27.815847-11.546201 39.624461 39.624461 0 0 0 0-55.631694c-4.723446-4.723446-115.462007-117.561316-26.241365-206.781958C153.805365 103.128565 242.238766 14.695165 404.93523 157.448191a78.724096 78.724096 0 0 0-18.368956 71.638927 256.378138 256.378138 0 0 1-20.205851 156.136123 720.063061 720.063061 0 0 1-110.213734 104.965461 78.724096 78.724096 0 0 0-6.297927 117.036489l393.620478 393.620478a78.724096 78.724096 0 0 0 111.525802 0l236.172287-236.172287a78.724096 78.724096 0 0 0 1.312068-108.639252zM699.363348 944.689147l-393.620479-393.620478s109.95132-88.958228 131.206827-131.206826a333.002924 333.002924 0 0 0 26.241365-209.930921l472.344573 498.585939z" /></svg>