<?xml version="1.0" standalone="no"?><!DOCTYPE svg PUBLIC "-//W3C//DTD SVG 1.1//EN" "http://www.w3.org/Graphics/SVG/1.1/DTD/svg11.dtd"><svg class="icon" width="200px" height="200.00px" viewBox="0 0 1024 1024" version="1.1" xmlns="http://www.w3.org/2000/svg"><path fill="#333333" d="M926.202247 655.820225h-69.033708v-322.157304a69.033708 69.033708 0 0 0 69.033708-69.033708v-138.067415a69.033708 69.033708 0 0 0-69.033708-69.033708h-161.078651v-23.011236a34.516854 34.516854 0 0 0-69.033708 0v23.011236H396.94382v-23.011236a34.516854 34.516854 0 0 0-69.033708 0v23.011236H166.831461a69.033708 69.033708 0 0 0-69.033708 69.033708v138.067415a69.033708 69.033708 0 0 0 69.033708 69.033708v322.157304H97.797753a69.033708 69.033708 0 0 0-69.033708 69.033708v184.089887a69.033708 69.033708 0 0 0 69.033708 69.033708h73.17573a69.033708 69.033708 0 0 0 64.891686 46.022472h552.269662a69.033708 69.033708 0 0 0 64.891686-46.022472H926.202247a69.033708 69.033708 0 0 0 69.033708-69.033708v-184.089887a69.033708 69.033708 0 0 0-69.033708-69.033708z m-759.370786 115.056179v138.067416H97.797753v-184.089887h69.033708z m230.112359-644.314606h230.11236v138.067415H396.94382z m-230.112359 138.067415v-138.067415h161.078651v138.067415H166.831461z m161.078651 690.337079H235.865169v-184.089888h92.044943z m0-253.123595H235.865169v-368.179776h92.044943v69.033708a69.033708 69.033708 0 0 0-69.033708 69.033708v69.033708a69.033708 69.033708 0 0 0 69.033708 69.033708z m0-230.11236h69.033708v69.033708h-69.033708z m299.146068 483.235955H396.94382v-184.089888h230.11236z m0-253.123595H396.94382v-92.044944a69.033708 69.033708 0 0 0 69.033708-69.033708v-69.033708a69.033708 69.033708 0 0 0-69.033708-69.033708v-69.033708h230.11236v69.033708a69.033708 69.033708 0 0 0-69.033708 69.033708v69.033708a69.033708 69.033708 0 0 0 69.033708 69.033708z m0-230.11236h69.033708v69.033708h-69.033708z m161.078651 437.213483v46.022472h-92.044943v-184.089888h92.044943z m0-207.101123h-92.044943v-92.044944a69.033708 69.033708 0 0 0 69.033708-69.033708v-69.033708a69.033708 69.033708 0 0 0-69.033708-69.033708v-69.033708h92.044943z m0-437.213484h-92.044943v-138.067415h161.078651v138.067415z m138.067416 644.314607h-69.033708v-184.089887h69.033708z" /></svg>