<?xml version="1.0" standalone="no"?><!DOCTYPE svg PUBLIC "-//W3C//DTD SVG 1.1//EN" "http://www.w3.org/Graphics/SVG/1.1/DTD/svg11.dtd"><svg class="icon" width="200px" height="200.00px" viewBox="0 0 1024 1024" version="1.1" xmlns="http://www.w3.org/2000/svg"><path fill="#333333" d="M970.3036 378.13719A74.92608 74.92608 0 0 0 911.611504 349.66528V74.93632a74.92608 74.92608 0 0 0-74.92608-74.92608h-49.95072a74.92608 74.92608 0 0 0-74.92608 74.92608v98.153165L673.34657 99.91168a67.932979 67.932979 0 0 0-42.208358-34.71575 64.186675 64.186675 0 0 0-17.98226-2.74729 71.42953 71.42953 0 0 0-36.713779 10.239898l-42.707865 24.97536-1.748276 2.247782A74.92608 74.92608 0 0 0 462.055024 49.96096h-36.713779A74.92608 74.92608 0 0 0 384.381655 18.242253L337.178224 3.50679a67.932979 67.932979 0 0 0-22.727577-3.49655A76.674355 76.674355 0 0 0 279.734896 8.501862a74.92608 74.92608 0 0 0-36.713779 44.206388L150.362532 349.66528H112.399984a74.92608 74.92608 0 0 0-72.928051 92.159078l124.8768 524.48256A74.92608 74.92608 0 0 0 237.276784 1024h549.45792a74.92608 74.92608 0 0 0 72.928052-57.693082l124.8768-524.48256a74.92608 74.92608 0 0 0-14.235956-63.687168zM786.734704 74.93632h49.95072v274.72896h-49.95072z m-181.321113 62.4384L711.808624 326.188442v27.972403a73.177805 73.177805 0 0 0-29.221171 18.981273l-117.384192-210.792038zM686.833264 424.59136l-49.95072 49.95072v-99.90144z m-149.85216-171.830477l49.95072 86.414746v144.857088a165.586637 165.586637 0 0 1-49.95072 13.736448z m-124.8768-71.429529L429.587056 124.88704H462.055024v368.136806a154.847232 154.847232 0 0 1-49.95072-23.726592zM314.450647 74.93632l34.216243 10.739405A72.17879 72.17879 0 0 0 337.178224 124.88704v45.205402L281.233418 349.66528H229.034916zM362.153584 299.71456v149.85216l-24.97536-49.95072z m424.58112 649.35936H237.276784L112.399984 424.59136h174.82752a234.51863 234.51863 0 0 0 224.77824 149.85216 234.51863 234.51863 0 0 0 224.77824-149.85216h174.82752z" /></svg>