<?xml version="1.0" standalone="no"?><!DOCTYPE svg PUBLIC "-//W3C//DTD SVG 1.1//EN" "http://www.w3.org/Graphics/SVG/1.1/DTD/svg11.dtd"><svg class="icon" width="200px" height="183.35px" viewBox="0 0 1117 1024" version="1.1" xmlns="http://www.w3.org/2000/svg"><path fill="#333333" d="M403.891664 188.482777a40.389166 40.389166 0 0 0 40.389167-40.389167v-107.704444a40.389166 40.389166 0 0 0-80.778333 0v107.704444A40.389166 40.389166 0 0 0 403.891664 188.482777zM188.482777 403.891664a40.389166 40.389166 0 0 0-40.389167-40.389166h-107.704444a40.389166 40.389166 0 0 0 0 80.778333h107.704444A40.389166 40.389166 0 0 0 188.482777 403.891664zM194.406521 251.489876a39.581383 39.581383 0 0 0 28.541678 11.847489 39.042861 39.042861 0 0 0 28.541677-11.847489 40.119905 40.119905 0 0 0 0-57.083355L175.288982 118.205627a40.389166 40.389166 0 1 0-57.083355 57.083355zM584.83513 263.337365a39.581383 39.581383 0 0 0 28.541678-11.847489l76.200894-76.200894a40.389166 40.389166 0 0 0-57.083355-57.083355l-76.200894 76.200894a40.119905 40.119905 0 0 0 0 57.083355 39.042861 39.042861 0 0 0 28.541677 11.847489zM251.489876 556.293453a40.119905 40.119905 0 0 0-57.083355 0l-76.200894 76.200894a40.658428 40.658428 0 0 0 0 57.083355 41.19695 41.19695 0 0 0 28.541678 11.847489 40.119905 40.119905 0 0 0 28.541677-11.847489l76.200894-76.200894a40.119905 40.119905 0 0 0 0-57.083355zM524.520642 783.549829c7.27005-2.42335 3.231133-2.154089 0-2.961872a14.001578 14.001578 0 0 0 0 2.961872zM523.982119 780.857218v-8.077833c-7.539311 5.115961-3.769656 8.077833 0 8.077833zM765.509335 678.537996l-1.884828 1.884828 3.769656 6.193006v-1.884828c0-1.884828-1.346306-4.038917-1.884828-6.193006z"  /><path fill="#333333" d="M1107.740205 580.257691a217.293715 217.293715 0 0 0-127.091244-138.669471 267.376282 267.376282 0 0 0-255.798054-185.790166 270.607415 270.607415 0 0 0-78.624244 11.847489 203.561399 203.561399 0 0 0-78.624244 46.851433 174.75046 174.75046 0 1 0-267.107021 218.909282 207.869577 207.869577 0 0 0-26.926111 183.097555 217.293715 217.293715 0 0 0 194.406522 154.017354 269.26111 269.26111 0 0 0 493.286352-16.424927h1.884828a218.640021 218.640021 0 0 0 145.131738-273.300026zM323.113332 403.891664a94.241388 94.241388 0 0 1 186.597949-18.040494 470.129897 470.129897 0 0 0-23.156456 43.351039l-69.738627 21.271627a224.025243 224.025243 0 0 0-57.891139 26.926111A94.241388 94.241388 0 0 1 323.113332 403.891664z m616.069418 378.581121a152.401788 152.401788 0 0 1-39.850644 11.847488h-2.154089a204.369182 204.369182 0 0 1-131.399421 148.093611 183.097555 183.097555 0 0 1-55.198528 5.115961 190.098343 190.098343 0 0 1-180.135682-134.630555 196.56061 196.56061 0 0 1-5.923744-26.926111h-1.884828a141.631344 141.631344 0 0 1-40.658428 5.923744 137.592427 137.592427 0 0 1-131.937943-99.088088 129.514594 129.514594 0 0 1 90.202471-165.05706l106.088877-32.580594s43.6203-126.014199 123.052328-150.2477a188.482777 188.482777 0 0 1 235.334209 124.937155 202.215093 202.215093 0 0 1 7.539311 37.158033 141.900605 141.900605 0 0 1 26.926111 275.454116z"  /></svg>