<?xml version="1.0" standalone="no"?><!DOCTYPE svg PUBLIC "-//W3C//DTD SVG 1.1//EN" "http://www.w3.org/Graphics/SVG/1.1/DTD/svg11.dtd"><svg class="icon" width="200px" height="200.00px" viewBox="0 0 1024 1024" version="1.1" xmlns="http://www.w3.org/2000/svg"><path fill="#333333" d="M926.221758 7.747456a40.607357 40.607357 0 0 0-35.798591-5.87738l-507.591964 160.292199a40.340203 40.340203 0 0 0-26.715367 38.202974v542.321941a183.000261 183.000261 0 0 0-160.292199-5.87738 191.014871 191.014871 0 0 0-95.641012 82.817636 133.576833 133.576833 0 0 0 81.749021 197.426559 177.657188 177.657188 0 0 0 49.156275 6.945995 199.029481 199.029481 0 0 0 76.673102-15.762066 217.997391 217.997391 0 0 0 127.165144-193.419254V229.752152l427.445865-133.576832v477.937907a142.12575 142.12575 0 0 0-28.585442-11.487607 197.693712 197.693712 0 0 0-220.668928 91.366553 137.04983 137.04983 0 0 0-9.083224 120.753457 147.468823 147.468823 0 0 0 140.522828 84.687712 193.953561 193.953561 0 0 0 76.138795-15.494913c41.408818-17.097835 121.822071-80.1461 121.822071-133.576832V40.07305a40.340203 40.340203 0 0 0-16.296374-32.325594zM277.038351 935.037829a111.403079 111.403079 0 0 1-72.665797 5.877381A59.04096 59.04096 0 0 1 165.100965 908.322463a58.506653 58.506653 0 0 1 5.343074-49.957736 111.670232 111.670232 0 0 1 55.567962-47.553352A123.692147 123.692147 0 0 1 271.695278 801.460997a68.391338 68.391338 0 0 1 66.254109 35.264283c13.891991 33.394208-14.159144 78.276024-60.911036 98.312549z m568.503-213.722932a112.471693 112.471693 0 0 1-55.567962 47.286199c-46.751891 19.502218-98.045395 7.480303-111.937386-26.715367a58.506653 58.506653 0 0 1 5.343073-49.957735 113.006001 113.006001 0 0 1 55.567963-47.553353 121.822071 121.822071 0 0 1 45.95043-9.350378 96.442473 96.442473 0 0 1 26.715367 3.740151 59.04096 59.04096 0 0 1 39.271589 31.524133 59.04096 59.04096 0 0 1-5.343074 51.02635z" /></svg>