<?xml version="1.0" standalone="no"?><!DOCTYPE svg PUBLIC "-//W3C//DTD SVG 1.1//EN" "http://www.w3.org/Graphics/SVG/1.1/DTD/svg11.dtd"><svg class="icon" width="200px" height="163.32px" viewBox="0 0 1254 1024" version="1.1" xmlns="http://www.w3.org/2000/svg"><path fill="#333333" d="M925.892101 520.056361c71.070609 0 149.191874-38.919619 219.69843-109.426176 119.57912-119.57912 142.423244-257.771971 56.405245-343.507943A175.138286 175.138286 0 0 0 1075.366001 15.229416c-71.070609 0-148.909847 38.637593-218.570326 108.298071-102.093494 102.093494-133.398405 217.160194-87.710156 302.614141l-127.475854 127.475854L482.828899 394.836717l68.8144-68.814399a42.021908 42.021908 0 0 0 0-59.78956l-253.823604-253.823604a42.303934 42.303934 0 0 0-59.78956 59.78956l223.928824 223.928824L423.039339 335.047157 185.009204 97.017022a42.303934 42.303934 0 0 0-59.78956 59.78956L363.249779 394.836717l-38.919619 38.919619-252.131446-252.131446A42.303934 42.303934 0 0 0 12.409154 241.41445l282.026226 282.026226a42.303934 42.303934 0 0 0 59.78956 0L423.039339 454.626277l158.780766 158.780765-338.431472 338.431472a42.021908 42.021908 0 0 0 0 59.78956 42.303934 42.303934 0 0 0 59.78956 0l338.431472-338.431472L972.990481 1004.577418a41.457855 41.457855 0 0 0 29.894779 12.409154 40.893803 40.893803 0 0 0 29.89478-12.409154 42.021908 42.021908 0 0 0 0-59.78956L701.399225 613.407042l123.809513-123.809513a175.984365 175.984365 0 0 0 100.683363 30.458832zM916.585235 183.317047c51.046747-51.046747 109.426176-84.607868 158.780766-84.607868a91.376497 91.376497 0 0 1 66.840215 28.202623c56.405245 56.405245 20.587915 146.653638-56.405245 223.928823-51.328773 51.328773-110.272254 84.607868-159.90887 84.607868a89.68434 89.68434 0 0 1-65.712111-26.510465c-54.995114-54.995114-20.587915-148.627821 56.405245-225.620981z" /></svg>