<?xml version="1.0" standalone="no"?><!DOCTYPE svg PUBLIC "-//W3C//DTD SVG 1.1//EN" "http://www.w3.org/Graphics/SVG/1.1/DTD/svg11.dtd"><svg class="icon" width="200px" height="200.00px" viewBox="0 0 1024 1024" version="1.1" xmlns="http://www.w3.org/2000/svg"><path fill="#333333" d="M788.128917 287.63851v-46.022161a69.033242 69.033242 0 0 0-69.033242-69.033243h-161.077566l26.002521-65.58158 101.478867-40.499502a34.516621 34.516621 0 0 0-25.312189-63.970805l-115.055404 46.022162a33.826289 33.826289 0 0 0-19.099198 19.099197L483.922429 172.583106H304.89622a69.033242 69.033242 0 0 0-69.033243 69.033243v46.022161a69.033242 69.033242 0 0 0-69.033242 69.033243v92.044323a69.033242 69.033242 0 0 0 69.033242 69.033243 57.06748 57.06748 0 0 0 0 11.50554l69.033243 437.210536a69.033242 69.033242 0 0 0 69.033242 57.527702h276.13297a69.033242 69.033242 0 0 0 69.033243-57.527702l69.033242-437.210536a57.06748 57.06748 0 0 0 0-10.815208 69.033242 69.033242 0 0 0 69.033243-69.033243v-92.044323a69.033242 69.033242 0 0 0-69.033243-69.723575z m-483.232697-46.022161h414.199455v46.022161H304.89622z m345.166212 713.343505H373.929462l-69.033242-437.210535h414.199455z m138.066485-506.243778H235.862977v-92.044323h552.26594z" /></svg>