<?xml version="1.0" standalone="no"?><!DOCTYPE svg PUBLIC "-//W3C//DTD SVG 1.1//EN" "http://www.w3.org/Graphics/SVG/1.1/DTD/svg11.dtd"><svg class="icon" width="200px" height="191.22px" viewBox="0 0 1071 1024" version="1.1" xmlns="http://www.w3.org/2000/svg"><path fill="#333333" d="M1068.553495 203.047076a194.769377 194.769377 0 0 1-70.360437 121.73086v601.837375l-267.807894-48.692344h-48.692344l-292.154066 73.038517h-48.692344l-267.807894-97.384689v-754.731336l267.807894 73.038516h47.231574l293.614836-97.384688h26.780789A191.847836 191.847836 0 0 1 768.608654 10.225392h-1.704232A73.038516 73.038516 0 0 0 730.385164 0l-48.692344 1.46077a73.038516 73.038516 0 0 0-20.694247 3.651926l-284.850214 93.732763h-24.346172L92.271992 28.485021A74.742748 74.742748 0 0 0 73.038516 25.806942a73.038516 73.038516 0 0 0-73.038516 73.038517v754.731336a73.038516 73.038516 0 0 0 48.692344 68.656205l267.807894 97.384689a73.038516 73.038516 0 0 0 24.346172 4.382311h48.692344a73.038516 73.038516 0 0 0 17.772706-2.191155l283.389443-70.847361h33.110795l261.234427 48.692344a79.611983 79.611983 0 0 0 13.146933 0 73.038516 73.038516 0 0 0 73.038516-73.038517V222.280552a73.038516 73.038516 0 0 0-2.678079-19.233476z"  /><path fill="#333333" d="M745.236329 236.401331a146.077033 146.077033 0 0 0 60.621969 63.300048l-63.056586 227.636709a36.275796 36.275796 0 0 0 24.346172 44.796957 33.841179 33.841179 0 0 0 9.738469 1.460771 37.006182 37.006182 0 0 0 35.301949-26.78079l63.300048-228.854018a148.268188 148.268188 0 0 0 64.517356-14.851165 146.077033 146.077033 0 0 0 73.038517-83.994294 146.077033 146.077033 0 0 0-202.803614-178.21398 146.077033 146.077033 0 0 0-65.00428 195.499762z m99.088921-130.008559A71.577746 71.577746 0 0 1 876.462197 98.845459a73.038516 73.038516 0 0 1 32.136947 138.773181 73.038516 73.038516 0 0 1-29.70233 7.06039 36.519258 36.519258 0 0 0-39.197337-9.738469 71.577746 71.577746 0 0 1-28.728483-30.676177 73.038516 73.038516 0 0 1 33.354256-97.871612z"  /></svg>