<?xml version="1.0" standalone="no"?><!DOCTYPE svg PUBLIC "-//W3C//DTD SVG 1.1//EN" "http://www.w3.org/Graphics/SVG/1.1/DTD/svg11.dtd"><svg class="icon" width="200px" height="200.00px" viewBox="0 0 1024 1024" version="1.1" xmlns="http://www.w3.org/2000/svg"><path fill="#333333" d="M500.744278 752.58256a33.697727 33.697727 0 0 0-33.697726 33.697727v44.930302a33.697727 33.697727 0 0 0 67.395453 0v-44.930302a33.697727 33.697727 0 0 0-33.697727-33.697727z"  /><path fill="#333333" d="M898.377452 293.844176a237.231995 237.231995 0 0 0-150.067209-107.608074 179.721208 179.721208 0 0 0 23.81306-22.465151 134.790906 134.790906 0 0 0 30.777257-108.955982L791.892636 0H736.628364c-110.07924 0-179.721208 36.393545-224.65151 73.685695C468.169809 36.393545 397.629235 0 287.325343 0H232.061072l-10.783273 54.141014a134.790906 134.790906 0 0 0 30.777257 108.955983 179.721208 179.721208 0 0 0 23.81306 22.465151A240.377116 240.377116 0 0 0 115.242286 527.93105l181.518421 363.03684a240.601768 240.601768 0 0 0 430.432294 0l181.51842-363.03684A239.029207 239.029207 0 0 0 898.377452 293.844176zM736.628364 67.395453s17.747469 89.860604-152.763027 108.50668l-8.536757-21.117242a172.083057 172.083057 0 0 0-18.421424-31.22656 271.154373 271.154373 0 0 1 179.721208-56.162878z m-449.303021 0a271.154373 271.154373 0 0 1 179.721209 56.162878 163.096997 163.096997 0 0 0-17.972121 31.22656l-8.536758 21.117242C269.353222 157.256057 287.325343 67.395453 287.325343 67.395453z m561.628776 430.432294l-181.967723 363.036841a173.206315 173.206315 0 0 1-309.794433 0L175.448891 497.827747A173.206315 173.206315 0 0 1 330.458433 247.116661h363.036841a173.206315 173.206315 0 0 1 155.009542 250.711086z"  /><path fill="#333333" d="M276.092768 348.209841A33.697727 33.697727 0 0 0 242.395041 381.907568v44.930302a33.697727 33.697727 0 0 0 67.395453 0v-44.930302a33.697727 33.697727 0 0 0-33.697726-33.697727zM500.744278 348.209841a33.697727 33.697727 0 0 0-33.697726 33.697727v44.930302a33.697727 33.697727 0 0 0 67.395453 0v-44.930302a33.697727 33.697727 0 0 0-33.697727-33.697727zM725.395789 348.209841a33.697727 33.697727 0 0 0-33.697727 33.697727v44.930302a33.697727 33.697727 0 0 0 67.395453 0v-44.930302a33.697727 33.697727 0 0 0-33.697726-33.697727zM388.418523 550.396201a33.697727 33.697727 0 0 0-33.697727 33.697726v44.930302a33.697727 33.697727 0 0 0 67.395453 0v-44.930302a33.697727 33.697727 0 0 0-33.697726-33.697726zM613.070033 550.396201a33.697727 33.697727 0 0 0-33.697726 33.697726v44.930302a33.697727 33.697727 0 0 0 67.395453 0v-44.930302a33.697727 33.697727 0 0 0-33.697727-33.697726z"  /></svg>