<?xml version="1.0" standalone="no"?><!DOCTYPE svg PUBLIC "-//W3C//DTD SVG 1.1//EN" "http://www.w3.org/Graphics/SVG/1.1/DTD/svg11.dtd"><svg class="icon" width="200px" height="200.00px" viewBox="0 0 1024 1024" version="1.1" xmlns="http://www.w3.org/2000/svg"><path fill="#333333" d="M1001.351529 970.270118L553.441882 166.008471l62.403765-112.278589A36.141176 36.141176 0 0 0 552.719059 18.552471l-40.719059 72.282353-40.719059-72.282353a36.141176 36.141176 0 0 0-63.126588 35.177411l62.403765 112.278589L22.648471 970.270118A36.141176 36.141176 0 0 0 54.211765 1024h915.57647a36.141176 36.141176 0 0 0 31.563294-53.729882zM584.282353 951.717647h-144.564706v-174.923294a66.017882 66.017882 0 0 1 66.017882-66.017882h12.528942a66.017882 66.017882 0 0 1 66.017882 66.017882z m72.282353 0v-174.923294a138.300235 138.300235 0 0 0-138.300235-138.300235h-12.528942a138.300235 138.300235 0 0 0-138.300235 138.300235v174.923294H115.651765L512 240.941176 909.552941 951.717647z" /></svg>