<?xml version="1.0" standalone="no"?><!DOCTYPE svg PUBLIC "-//W3C//DTD SVG 1.1//EN" "http://www.w3.org/Graphics/SVG/1.1/DTD/svg11.dtd"><svg class="icon" width="200px" height="200.00px" viewBox="0 0 1024 1024" version="1.1" xmlns="http://www.w3.org/2000/svg"><path fill="#333333" d="M829.765091 411.954023H523.742102v-47.08046h235.402299a70.62069 70.62069 0 0 0 50.14069-20.48l70.620689-70.620689a70.62069 70.62069 0 0 0 0-99.575173l-70.620689-70.62069A70.62069 70.62069 0 0 0 759.144401 82.390805H523.742102v-47.08046a35.310345 35.310345 0 0 0-70.62069 0v47.08046H194.178884a70.62069 70.62069 0 0 0-70.62069 70.620689v141.24138a70.62069 70.62069 0 0 0 70.62069 70.620689h258.942528v47.08046H264.799573a70.62069 70.62069 0 0 0-50.140689 20.244598l-70.62069 70.620689a70.62069 70.62069 0 0 0 0 99.33977l70.62069 70.62069A70.62069 70.62069 0 0 0 264.799573 694.436782h188.321839v258.942528h-94.160919a35.310345 35.310345 0 0 0 0 70.62069h258.942529a35.310345 35.310345 0 0 0 0-70.62069h-94.16092v-258.942528h306.022989a70.62069 70.62069 0 0 0 70.620689-70.62069v-141.241379a70.62069 70.62069 0 0 0-70.620689-70.62069zM194.178884 153.011494h564.965517l70.62069 70.62069-70.62069 70.62069H194.178884z m635.586207 470.804598H264.799573l-70.620689-70.62069 70.620689-70.620689h564.965518z" /></svg>