<?xml version="1.0" standalone="no"?><!DOCTYPE svg PUBLIC "-//W3C//DTD SVG 1.1//EN" "http://www.w3.org/Graphics/SVG/1.1/DTD/svg11.dtd"><svg class="icon" width="200px" height="170.52px" viewBox="0 0 1201 1024" version="1.1" xmlns="http://www.w3.org/2000/svg"><path fill="#333333" d="M337.912491 310.629186m-37.545832 0a37.545832 37.545832 0 1 0 75.091664 0 37.545832 37.545832 0 1 0-75.091664 0Z"  /><path fill="#333333" d="M588.21804 310.629186m-37.545833 0a37.545832 37.545832 0 1 0 75.091665 0 37.545832 37.545832 0 1 0-75.091665 0Z"  /><path fill="#333333" d="M738.401369 185.476412m-37.545832 0a37.545832 37.545832 0 1 0 75.091664 0 37.545832 37.545832 0 1 0-75.091664 0Z"  /><path fill="#333333" d="M888.584698 310.629186m-37.545832 0a37.545832 37.545832 0 1 0 75.091664 0 37.545832 37.545832 0 1 0-75.091664 0Z"  /><path fill="#333333" d="M463.065265 185.476412m-37.545832 0a37.545832 37.545832 0 1 0 75.091665 0 37.545832 37.545832 0 1 0-75.091665 0Z"  /><path fill="#333333" d="M1201.466634 523.388902a75.091665 75.091665 0 0 0-35.042777-63.327303C1137.889025 304.872158 1026.25275 0 600.733317 0 179.719384 0 66.581276 301.868492 36.294305 459.310682A75.091665 75.091665 0 0 0 0 523.388902v75.091665a75.091665 75.091665 0 0 0 10.512833 37.545832 73.589831 73.589831 0 0 0-10.512833 37.545833v75.091664a75.091665 75.091665 0 0 0 35.293082 63.327304 265.824493 265.824493 0 0 0 128.156441 175.213884A303.870936 303.870936 0 0 0 300.366659 1024h575.702762c159.945246 0 242.796382-109.133219 278.840381-206.001467A75.091665 75.091665 0 0 0 1201.466634 748.663896v-75.091664a73.589831 73.589831 0 0 0-10.512833-37.545833 75.091665 75.091665 0 0 0 10.512833-37.545832z m-600.733317-450.549987c352.680518 0 456.807626 235.787827 487.595209 375.458323h-976.19164c31.788805-139.670496 135.915913-375.458323 488.596431-375.458323z m425.519433 450.549987l-150.183329 150.18333-250.305549-150.18333z m-926.13053 25.030555v-25.030555h450.549987a75.091665 75.091665 0 0 0 36.294305 64.328527l17.771694 10.763138H100.12222z m425.519432 125.152775l-200.244439 151.685162-150.183329-151.685162z m-425.519432 0a89.359081 89.359081 0 0 0 25.030554 50.061109l25.030555 25.030555H100.12222v-75.091664z m775.947201 275.336103H300.366659s-134.914691 0-183.223662-125.152774h101.624053l54.816915 54.816915a75.091665 75.091665 0 0 0 98.620386 6.507944L450.549988 823.755561h625.763872a216.764605 216.764605 0 0 1-200.244439 125.152774z m225.274994-225.274994s0 9.761916-4.755806 25.030555H550.672207l20.27475-15.518944A75.091665 75.091665 0 0 0 600.733317 673.572232h128.907358l107.631386 64.328526a75.091665 75.091665 0 0 0 38.547054 10.763138 75.091665 75.091665 0 0 0 53.315082-22.777805l53.064776-53.064776H1101.344415z m0-175.213884v50.06111h-50.06111l25.030555-25.030555a97.118553 97.118553 0 0 0 25.030555-50.06111v25.030555z"  /></svg>