<?xml version="1.0" standalone="no"?><!DOCTYPE svg PUBLIC "-//W3C//DTD SVG 1.1//EN" "http://www.w3.org/Graphics/SVG/1.1/DTD/svg11.dtd"><svg class="icon" width="200px" height="200.00px" viewBox="0 0 1024 1024" version="1.1" xmlns="http://www.w3.org/2000/svg"><path fill="#333333" d="M819.066719 952.806489h-23.73117v-7.119351L736.007623 359.527231h83.059096a35.596756 35.596756 0 0 0 0-71.193511h-89.941135l-5.220858-54.581692A71.193511 71.193511 0 0 0 712.276453 201.714948a201.477636 201.477636 0 0 0-403.429896 0 71.193511 71.193511 0 0 0-11.865585 32.03708L291.997426 288.33372H202.05629a35.596756 35.596756 0 0 0 0 71.193511H285.115387L226.262084 945.687138v7.119351h-23.73117a35.596756 35.596756 0 0 0 0 71.193511h617.010429a35.596756 35.596756 0 0 0 0-71.193511zM329.729987 624.367092l351.221321-103.467903 15.899884 159.236153a30.375898 30.375898 0 0 0-6.407416 0l-377.325608 112.248436zM652.948527 240.871379l4.746234 47.462341h-123.402086v-47.462341z m-189.849363 47.462341H363.428249l4.746234-47.462341h94.924681z m47.462341-213.580533a130.99606 130.99606 0 0 1 125.537891 94.924681H385.023614a130.99606 130.99606 0 0 1 125.537891-94.924681zM664.814112 359.527231l9.017845 89.466512-336.270684 98.721668L356.308898 359.527231zM305.524193 868.560834h1.42387l397.02248-116.757358 20.171495 201.003013h-427.161066z" /></svg>