<?xml version="1.0" standalone="no"?><!DOCTYPE svg PUBLIC "-//W3C//DTD SVG 1.1//EN" "http://www.w3.org/Graphics/SVG/1.1/DTD/svg11.dtd"><svg class="icon" width="200px" height="200.00px" viewBox="0 0 1024 1024" version="1.1" xmlns="http://www.w3.org/2000/svg"><path fill="#333333" d="M124.786938 637.858119H339.578359a72.401603 72.401603 0 0 0 72.401602-72.401602V207.309922a72.401603 72.401603 0 0 0-53.094508-69.746877 74.573651 74.573651 0 0 0-19.307094-2.654725 72.401603 72.401603 0 0 0-62.02404 35.235446l-214.791421 358.146595a72.401603 72.401603 0 0 0 62.02404 109.567758zM339.578359 205.379213v360.077304H124.786938z"  /><path fill="#333333" d="M991.192782 726.912091a72.401603 72.401603 0 0 0-65.161442-40.786237H532.649299v-48.267735h313.740278a72.401603 72.401603 0 0 0 63.472072-37.648833 72.401603 72.401603 0 0 0-2.413387-73.608296l-313.740278-493.054914A72.401603 72.401603 0 0 0 532.649299 0a72.401603 72.401603 0 0 0-20.272449 2.896064 72.401603 72.401603 0 0 0-38.855526 27.753948A36.683479 36.683479 0 0 0 460.247696 58.645298v627.480556H98.239683a72.401603 72.401603 0 0 0-57.921282 115.842565l144.803205 193.07094a72.401603 72.401603 0 0 0 57.921283 28.960641h530.945086a72.401603 72.401603 0 0 0 56.955927-27.753948l151.319349-193.07094a72.401603 72.401603 0 0 0 8.929531-76.263021zM532.649299 82.779166v-5.309451l313.740278 487.986802H532.649299z m241.338676 868.819231H243.042889l-144.803206-193.07094h823.930238z"  /></svg>