<?xml version="1.0" standalone="no"?><!DOCTYPE svg PUBLIC "-//W3C//DTD SVG 1.1//EN" "http://www.w3.org/Graphics/SVG/1.1/DTD/svg11.dtd"><svg class="icon" width="200px" height="200.00px" viewBox="0 0 1024 1024" version="1.1" xmlns="http://www.w3.org/2000/svg"><path fill="#333333" d="M512 0a512 512 0 1 0 512 512A512 512 0 0 0 512 0z m442.181818 488.727273h-162.909091c-6.981818-152.901818-71.912727-309.294545-180.596363-407.505455A442.181818 442.181818 0 0 1 954.181818 488.727273zM465.454545 93.090909v395.636364h-162.90909c6.749091-145.92 64.232727-314.181818 162.90909-395.636364z m0 465.454546v372.363636c-91.927273-80.989091-149.643636-242.036364-162.90909-372.363636z m69.818182 372.363636V558.545455h186.181818c-15.592727 132.421818-84.014545 291.141818-186.181818 372.363636z m0-442.181818V93.090909c109.847273 81.221818 178.501818 247.854545 186.181818 395.636364zM399.127273 84.945455C297.192727 181.527273 239.010909 333.963636 232.727273 488.727273H70.981818a442.181818 442.181818 0 0 1 328.145455-403.781818zM72.378182 558.545455H232.727273c12.8 142.429091 64.465455 277.410909 162.909091 372.363636A420.072727 420.072727 0 0 1 72.378182 558.545455zM605.090909 944.174545A615.796364 615.796364 0 0 0 791.272727 558.545455h162.909091a445.207273 445.207273 0 0 1-349.090909 385.62909z" /></svg>