<?xml version="1.0" standalone="no"?><!DOCTYPE svg PUBLIC "-//W3C//DTD SVG 1.1//EN" "http://www.w3.org/Graphics/SVG/1.1/DTD/svg11.dtd"><svg class="icon" width="200px" height="200.00px" viewBox="0 0 1024 1024" version="1.1" xmlns="http://www.w3.org/2000/svg"><path fill="#333333" d="M279.958305 440.87922a116.020847 116.020847 0 0 0 108.827555-73.325175 71.2368 71.2368 0 0 1 9.977793-16.707002 46.408339 46.408339 0 0 1 18.563335-11.602085 132.72785 132.72785 0 0 0 55.922049-40.143213 97.457512 97.457512 0 0 0 19.027419-63.579425 97.921595 97.921595 0 0 0-23.20417-75.877634A101.402221 101.402221 0 0 0 395.979153 129.943349a194.45094 194.45094 0 0 0-110.915931 46.408339C255.361885 198.163608 187.141627 256.638115 187.141627 324.858373s40.143213 116.020847 92.816678 116.020847z m46.408339-208.837525a137.600725 137.600725 0 0 1 69.612509-32.485837 32.021754 32.021754 0 0 1 23.204169 9.281667 77.037843 77.037843 0 0 1 0 46.408339c-19.259461 23.204169-39.215046 16.010877-69.612508 46.408339s-23.204169 69.612508-69.612509 69.612509c-11.834126 0-23.204169-23.204169-23.204169-46.408339 0-29.701337 36.89463-68.4523 69.612508-92.816678z"  /><path fill="#333333" d="M938.492635 230.649445c9.049626-11.370043 15.314752-19.259461 17.635169-23.20417a98.849762 98.849762 0 0 0-1.856333-139.225017c-40.375255-40.375255-98.849762-18.795377-139.225017 21.115795l-7.193293 5.104917a510.491729 510.491729 0 0 0-748.334466 649.716746A460.370723 460.370723 0 0 0 2.900521 951.370949a71.2368 71.2368 0 0 0 50.353048 69.612509 69.612508 69.612508 0 0 0 19.491502 2.552459 63.579424 63.579424 0 0 0 56.154091-31.325629A79.35826 79.35826 0 0 1 187.141627 974.575119a295.157036 295.157036 0 0 0 86.783594-12.530252A504.690687 504.690687 0 0 0 512 1020.983458 510.491729 510.491729 0 0 0 938.492635 230.649445z m-81.446635-86.319511l4.408793-3.712667a144.329934 144.329934 0 0 1 25.292544-18.563335c5.569001-3.016542 15.546794-7.425334 18.331294-4.640834a29.469295 29.469295 0 0 1 0 44.319963l-2.088375 2.320417c-2.552459 3.248584-255.245864 324.858373-334.604124 401.200091a428.116927 428.116927 0 0 1-162.429187 92.816678l-37.822796-37.822796a962.276909 962.276909 0 0 1 97.457512-160.340812c69.612508-85.391344 388.205756-313.256288 391.454339-315.576705zM512 69.612508a436.70247 436.70247 0 0 1 235.290279 69.612509c-100.938137 74.253342-281.002493 210.925901-334.836166 278.450034a1060.662588 1060.662588 0 0 0-116.020848 189.810106 159.180603 159.180603 0 0 0-35.966462-4.17675 206.517109 206.517109 0 0 0-146.882393 68.4523c-3.248584 3.248584-6.265126 6.729209-9.281668 9.977793A434.150011 434.150011 0 0 1 71.12078 510.491729 440.87922 440.87922 0 0 1 512 69.612508zM187.141627 904.96261c-81.910718 0-114.860639 46.408339-114.860639 46.408339S71.12078 812.145932 163.937458 719.329254a139.225017 139.225017 0 0 1 97.689553-48.03263A100.474054 100.474054 0 0 1 326.366644 696.125085c61.491049 61.491049 53.36959 109.059597 23.20417 139.225017a219.743485 219.743485 0 0 1-162.429187 69.612508z m324.858373 46.408339a436.70247 436.70247 0 0 1-157.324269-29.469295 361.985044 361.985044 0 0 0 44.087922-37.358713 139.225017 139.225017 0 0 0 29.933378-162.429186 493.552685 493.552685 0 0 0 187.257648-107.667347c58.010424-55.922048 194.682982-224.616361 276.593701-326.946748A440.87922 440.87922 0 0 1 512 951.370949z"  /><path fill="#333333" d="M570.010424 823.748017m-58.010424 0a58.010424 58.010424 0 1 0 116.020847 0 58.010424 58.010424 0 1 0-116.020847 0Z"  /><path fill="#333333" d="M755.64378 707.72717m-58.010424 0a58.010424 58.010424 0 1 0 116.020847 0 58.010424 58.010424 0 1 0-116.020847 0Z"  /><path fill="#333333" d="M848.460458 522.093814m-58.010424 0a58.010424 58.010424 0 1 0 116.020847 0 58.010424 58.010424 0 1 0-116.020847 0Z"  /></svg>