<?xml version="1.0" standalone="no"?><!DOCTYPE svg PUBLIC "-//W3C//DTD SVG 1.1//EN" "http://www.w3.org/Graphics/SVG/1.1/DTD/svg11.dtd"><svg class="icon" width="200px" height="199.22px" viewBox="0 0 1028 1024" version="1.1" xmlns="http://www.w3.org/2000/svg"><path fill="#333333" d="M596.875729 307.749126A121.285148 121.285148 0 0 0 521.191886 334.250408a119.375146 119.375146 0 0 0-16.71252 167.125204A119.375146 119.375146 0 1 0 596.875729 307.749126z m30.082536 156.381441a47.750058 47.750058 0 0 1-30.082536 10.743763 47.750058 47.750058 0 0 1-30.321287-84.517603 47.750058 47.750058 0 0 1 30.321287-10.982514 47.750058 47.750058 0 0 1 30.082536 84.756354z"  /><path fill="#333333" d="M1028.536256 69.715085A71.625087 71.625087 0 0 0 960.731173 0h-28.411285c-103.617626 0-361.229191 16.951271-517.610632 173.332712a801.245978 801.245978 0 0 0-75.206342 87.382606L334.250408 262.625321 47.750058 359.319189A71.625087 71.625087 0 0 0 21.010026 477.500583l152.322686 152.800186a149.696433 149.696433 0 0 0-56.82257 32.70879A194.581488 194.581488 0 0 0 71.625087 813.422243a115.555141 115.555141 0 0 1-12.653765 28.650035 71.625087 71.625087 0 0 0 46.078806 109.108883 112.212637 112.212637 0 0 0 21.965027 2.148753 125.582653 125.582653 0 0 0 60.881324-16.712521 71.625087 71.625087 0 0 0 21.726277 10.982514 160.201446 160.201446 0 0 0 41.06505 5.252506A154.471439 154.471439 0 0 0 360.990441 907.251107a143.250175 143.250175 0 0 0 34.141291-55.628817L546.260667 1002.751224a71.625087 71.625087 0 0 0 50.615062 21.010026 64.701329 64.701329 0 0 0 16.47377-1.910003 71.625087 71.625087 0 0 0 51.331312-47.750058l93.828865-280.770343a665.635813 665.635813 0 0 0 90.725111-75.683842C1037.847517 429.750525 1029.013756 84.517603 1028.536256 69.715085zM71.625087 427.124271L277.905339 358.125437a801.962229 801.962229 0 0 0-77.832595 198.640243z m238.750292 429.750525a82.368851 82.368851 0 0 1-59.448823 23.875029 79.742597 79.742597 0 0 1-20.532525-2.387503s-2.387503-55.867568-15.518769-68.998834c0 0-43.213803 71.625087-87.621357 71.625087a29.605036 29.605036 0 0 1-7.878759 0 143.250175 143.250175 0 0 0 23.875029-74.490091 127.015155 127.015155 0 0 1 23.875029-92.635113 129.402658 129.402658 0 0 1 78.071345-23.875029 89.77011 89.77011 0 0 1 65.17883 23.875029s49.898811 93.351364 0 143.011425z m286.50035 95.500117l-137.997669-137.758919a724.368384 724.368384 0 0 0 205.564001-64.940079z m201.743996-384.38797a636.269527 636.269527 0 0 1-382.000466 179.301469l-25.785032-25.785031a310.375379 310.375379 0 0 0-17.190021-41.542551 73.057589 73.057589 0 0 0-12.653765-16.951271 150.173933 150.173933 0 0 0-67.327583-38.677547l-28.888785-28.888785a743.468408 743.468408 0 0 1 200.550245-371.495454A487.050595 487.050595 0 0 1 668.500816 109.347633a262.625321 262.625321 0 0 0 66.611331 183.598975A249.494055 249.494055 0 0 0 914.891117 358.125437h1.910002a507.58312 507.58312 0 0 1-118.181394 209.861506zM935.423642 286.50035c-62.791327 4.536256-116.510142-10.743763-148.741432-42.975053s-47.750058-87.621357-45.601305-151.128934a973.384938 973.384938 0 0 1 191.000233-19.577524 71.625087 71.625087 0 0 0 23.875029-2.626253 938.288645 938.288645 0 0 1-20.532525 216.307764z"  /></svg>