<?xml version="1.0" standalone="no"?><!DOCTYPE svg PUBLIC "-//W3C//DTD SVG 1.1//EN" "http://www.w3.org/Graphics/SVG/1.1/DTD/svg11.dtd"><svg class="icon" width="200px" height="200.00px" viewBox="0 0 1024 1024" version="1.1" xmlns="http://www.w3.org/2000/svg"><path fill="#333333" d="M906.197538 819.37832L573.408683 40.567697a66.86983 66.86983 0 0 0-122.817589 0L117.802239 819.37832A66.86983 66.86983 0 0 0 179.322483 912.550283h294.227253a44.579887 44.579887 0 0 0-6.018285 22.289943v44.579887a44.579887 44.579887 0 0 0 89.159774 0v-44.579887a44.579887 44.579887 0 0 0-6.241184-22.289943h294.227253a66.86983 66.86983 0 0 0 61.520244-93.171963zM179.322483 845.680453L512.111338 66.86983l332.565956 778.810623z" /></svg>