<?xml version="1.0" standalone="no"?><!DOCTYPE svg PUBLIC "-//W3C//DTD SVG 1.1//EN" "http://www.w3.org/Graphics/SVG/1.1/DTD/svg11.dtd"><svg class="icon" width="200px" height="200.00px" viewBox="0 0 1024 1024" version="1.1" xmlns="http://www.w3.org/2000/svg"><path fill="#333333" d="M512 0c282.76736 0 512 229.23264 512 512s-229.23264 512-512 512S0 794.76736 0 512 229.23264 0 512 0z m0 51.2C257.50528 51.2 51.2 257.50528 51.2 512s206.30528 460.8 460.8 460.8 460.8-206.30528 460.8-460.8S766.49472 51.2 512 51.2z"  /><path fill="#333333" d="M716.8 819.2l2.22208 0.0512a51.2 51.2 0 0 1 0 102.2976L716.8 921.6a51.2 51.2 0 0 1-2.22208-102.3488L716.8 819.2z m-153.6 0l2.22208 0.0512a51.2 51.2 0 0 1 0 102.2976L563.2 921.6a51.2 51.2 0 0 1-2.22208-102.3488L563.2 819.2z m-307.2 0a51.2 51.2 0 0 1 2.22208 102.3488L256 921.6a51.2 51.2 0 0 1-2.22208-102.3488L256 819.2z m153.6 0a51.2 51.2 0 0 1 2.22208 102.3488L409.6 921.6a51.2 51.2 0 0 1-2.22208-102.3488L409.6 819.2zM307.2 665.6l2.22208 0.0512a51.2 51.2 0 0 1 0 102.2976L307.2 768a51.2 51.2 0 0 1-2.22208-102.3488L307.2 665.6z m153.6 0l2.22208 0.0512a51.2 51.2 0 0 1 0 102.2976L460.8 768a51.2 51.2 0 0 1-2.22208-102.3488L460.8 665.6z m-307.2 0l2.22208 0.0512a51.2 51.2 0 0 1 0 102.2976L153.6 768a51.2 51.2 0 0 1-2.22208-102.3488L153.6 665.6z m460.8 0l2.22208 0.0512a51.2 51.2 0 0 1 0 102.2976L614.4 768a51.2 51.2 0 0 1-2.22208-102.3488L614.4 665.6z m153.6 0l2.22208 0.0512a51.2 51.2 0 0 1 0 102.2976L768 768a51.2 51.2 0 0 1-2.22208-102.3488L768 665.6z m153.6 0l2.22208 0.0512a51.2 51.2 0 0 1 0 102.2976L921.6 768a51.2 51.2 0 0 1-2.22208-102.3488L921.6 665.6zM409.6 512a51.2 51.2 0 0 1 2.22208 102.3488L409.6 614.4a51.2 51.2 0 0 1-2.22208-102.3488L409.6 512z m-153.6 0a51.2 51.2 0 0 1 2.22208 102.3488L256 614.4a51.2 51.2 0 0 1-2.22208-102.3488L256 512z m-153.6 0l2.22208 0.0512a51.2 51.2 0 0 1 0 102.2976L102.4 614.4a51.2 51.2 0 0 1-2.22208-102.3488L102.4 512z m460.8 0l2.22208 0.0512a51.2 51.2 0 0 1 0 102.2976L563.2 614.4a51.2 51.2 0 0 1-2.22208-102.3488L563.2 512z m153.6 0l2.22208 0.0512a51.2 51.2 0 0 1 0 102.2976L716.8 614.4a51.2 51.2 0 0 1-2.22208-102.3488L716.8 512z m153.6 0l2.22208 0.0512a51.2 51.2 0 0 1 0 102.2976L870.4 614.4a51.2 51.2 0 0 1-2.22208-102.3488L870.4 512zM460.8 358.4a51.2 51.2 0 0 1 2.22208 102.3488L460.8 460.8a51.2 51.2 0 0 1-2.22208-102.3488L460.8 358.4z m-153.6 0a51.2 51.2 0 0 1 2.22208 102.3488L307.2 460.8a51.2 51.2 0 0 1-2.22208-102.3488L307.2 358.4z m-153.6 0a51.2 51.2 0 0 1 2.22208 102.3488L153.6 460.8a51.2 51.2 0 0 1-2.22208-102.3488L153.6 358.4z m460.8 0a51.2 51.2 0 0 1 2.22208 102.3488L614.4 460.8a51.2 51.2 0 0 1-2.22208-102.3488L614.4 358.4z m153.6 0a51.2 51.2 0 0 1 2.22208 102.3488L768 460.8a51.2 51.2 0 0 1-2.22208-102.3488L768 358.4z m153.6 0a51.2 51.2 0 0 1 2.22208 102.3488L921.6 460.8a51.2 51.2 0 0 1-2.22208-102.3488L921.6 358.4zM409.6 204.8a51.2 51.2 0 0 1 2.22208 102.3488L409.6 307.2a51.2 51.2 0 0 1-2.22208-102.3488L409.6 204.8z m-153.6 0a51.2 51.2 0 0 1 2.22208 102.3488L256 307.2a51.2 51.2 0 0 1-2.22208-102.3488L256 204.8z m307.2 0a51.2 51.2 0 0 1 2.22208 102.3488L563.2 307.2a51.2 51.2 0 0 1-2.22208-102.3488L563.2 204.8z m153.6 0a51.2 51.2 0 0 1 2.22208 102.3488L716.8 307.2a51.2 51.2 0 0 1-2.22208-102.3488L716.8 204.8z m153.6 0a51.2 51.2 0 0 1 2.22208 102.3488L870.4 307.2a51.2 51.2 0 0 1-2.22208-102.3488L870.4 204.8zM460.8 51.2a51.2 51.2 0 0 1 2.22208 102.3488L460.8 153.6a51.2 51.2 0 0 1-2.22208-102.3488L460.8 51.2zM307.2 51.2a51.2 51.2 0 0 1 2.22208 102.3488L307.2 153.6a51.2 51.2 0 0 1-2.22208-102.3488L307.2 51.2z m307.2 0a51.2 51.2 0 0 1 2.22208 102.3488L614.4 153.6a51.2 51.2 0 0 1-2.22208-102.3488L614.4 51.2z"  /></svg>