<?xml version="1.0" standalone="no"?><!DOCTYPE svg PUBLIC "-//W3C//DTD SVG 1.1//EN" "http://www.w3.org/Graphics/SVG/1.1/DTD/svg11.dtd"><svg class="icon" width="200px" height="200.00px" viewBox="0 0 1024 1024" version="1.1" xmlns="http://www.w3.org/2000/svg"><path fill="#333333" d="M256 474.09152c141.38368 0 256 114.61632 256 256s-114.61632 256-256 256-256-114.61632-256-256 114.61632-256 256-256z m0 51.2c-113.11104 0-204.8 91.68896-204.8 204.8 0 113.1008 91.68896 204.8 204.8 204.8s204.8-91.6992 204.8-204.8c0-113.11104-91.68896-204.8-204.8-204.8zM819.2 573.44c113.11104 0 204.8 91.68896 204.8 204.8s-91.68896 204.8-204.8 204.8-204.8-91.68896-204.8-204.8 91.68896-204.8 204.8-204.8z m0 51.2c-84.82816 0-153.6 68.77184-153.6 153.6 0 84.82816 68.77184 153.6 153.6 153.6 84.82816 0 153.6-68.77184 153.6-153.6 0-84.82816-68.77184-153.6-153.6-153.6z"  /><path fill="#333333" d="M281.67168 59.4944c1.35168-17.57184 19.51744-28.39552 35.44064-21.6576l1.536 0.70656 204.8 102.4a25.6 25.6 0 0 1-21.2992 46.52032l-1.59744-0.7168-170.74176-85.38112-48.2816 630.6816a25.6 25.6 0 0 1-25.8048 23.64416l-1.67936-0.08192a25.6 25.6 0 0 1-23.6544-25.79456l0.08192-1.67936 51.2-668.65152zM819.2 343.04a25.6 25.6 0 0 1 25.5488 23.92064L844.8 368.64v409.6a25.6 25.6 0 0 1-51.1488 1.67936L793.6 778.24V368.64a25.6 25.6 0 0 1 25.6-25.6z"  /><path fill="#333333" d="M282.12224 363.47904a25.6 25.6 0 0 1 28.57984-20.20352l1.65888 0.28672 512 105.45152a25.6 25.6 0 0 1-8.66304 50.432l-1.65888-0.28672-512-105.44128a25.6 25.6 0 0 1-19.9168-30.23872zM691.9168 312.91392a25.6 25.6 0 0 1 29.26592-19.17952l1.64864 0.33792 204.8 49.68448a25.6 25.6 0 0 1-10.41408 50.10432l-1.64864-0.33792-204.8-49.69472a25.6 25.6 0 0 1-18.8416-30.91456z"  /></svg>