<?xml version="1.0" standalone="no"?><!DOCTYPE svg PUBLIC "-//W3C//DTD SVG 1.1//EN" "http://www.w3.org/Graphics/SVG/1.1/DTD/svg11.dtd"><svg class="icon" width="200px" height="200.00px" viewBox="0 0 1024 1024" version="1.1" xmlns="http://www.w3.org/2000/svg"><path fill="#333333" d="M512 10.138614c279.967683 0 506.930693 226.96301 506.930693 506.930693s-226.96301 506.930693-506.930693 506.930693S5.069307 797.03699 5.069307 517.069307 232.032317 10.138614 512 10.138614z m0 50.693069C260.02503 60.831683 55.762376 265.094337 55.762376 517.069307s204.262653 456.237624 456.237624 456.237624 456.237624-204.262653 456.237624-456.237624S763.97497 60.831683 512 60.831683z"  /><path fill="#333333" d="M750.845465 222.836594a81.108911 81.108911 0 1 1-76.151128 143.228198 81.108911 81.108911 0 0 1 76.151128-143.228198zM531.810851 94.887287a81.108911 81.108911 0 1 1-76.161267 143.228198A81.108911 81.108911 0 0 1 531.810851 94.897426zM501.202376 411.607446c49.435881 26.289426 68.202455 87.678733 41.91303 137.114613-26.279287 49.44602-87.668594 68.212594-137.114614 41.923169-49.435881-26.289426-68.202455-87.678733-41.91303-137.114614 26.279287-49.44602 87.668594-68.212594 137.114614-41.923168z"  /></svg>