<?xml version="1.0" standalone="no"?><!DOCTYPE svg PUBLIC "-//W3C//DTD SVG 1.1//EN" "http://www.w3.org/Graphics/SVG/1.1/DTD/svg11.dtd"><svg class="icon" width="200px" height="200.00px" viewBox="0 0 1024 1024" version="1.1" xmlns="http://www.w3.org/2000/svg"><path fill="#333333" d="M512 0c193.111415 0 349.658537 156.547122 349.658537 349.658537S705.111415 699.317073 512 699.317073 162.341463 542.769951 162.341463 349.658537 318.888585 0 512 0z m0 49.95122C346.471649 49.95122 212.292683 184.130185 212.292683 349.658537c0 165.528351 134.178966 299.707317 299.707317 299.707317 165.528351 0 299.707317-134.178966 299.707317-299.707317C811.707317 184.130185 677.528351 49.95122 512 49.95122z"  /><path fill="#333333" d="M636.878049 679.336585a24.97561 24.97561 0 1 1 0 49.95122h-249.756098a24.97561 24.97561 0 1 1 0-49.95122h249.756098z"  /><path fill="#333333" d="M620.823727 704.312195H403.765698l40.16078 319.687805h130.043005l46.854244-319.687805z m-57.813542 49.95122l-32.218536 219.785365h-42.798205l-27.613034-219.785365h102.629775z"  /></svg>