<?xml version="1.0" standalone="no"?><!DOCTYPE svg PUBLIC "-//W3C//DTD SVG 1.1//EN" "http://www.w3.org/Graphics/SVG/1.1/DTD/svg11.dtd"><svg class="icon" width="200px" height="200.00px" viewBox="0 0 1024 1024" version="1.1" xmlns="http://www.w3.org/2000/svg"><path fill="#333333" d="M512 10.138614c279.967683 0 506.930693 226.96301 506.930693 506.930693s-226.96301 506.930693-506.930693 506.930693S5.069307 797.03699 5.069307 517.069307 232.032317 10.138614 512 10.138614z m0 50.693069C260.02503 60.831683 55.762376 265.094337 55.762376 517.069307s204.262653 456.237624 456.237624 456.237624 456.237624-204.262653 456.237624-456.237624S763.97497 60.831683 512 60.831683z"  /><path fill="#333333" d="M516.602931 253.505901l225.949148 135.75604-4.60293 263.573544-230.55208 127.797228-225.949148-135.75604 4.60293-263.573544 230.55208-127.797228z m-1.024 58.520079l-179.35208 99.429386-3.589069 205.02305 175.783287 105.624079 179.35208-99.429386 3.57893-205.02305-175.773148-105.624079z"  /><path fill="#333333" d="M906.209584 291.627089a25.346535 25.346535 0 0 1 24.200871 44.508515l-1.53093 0.831366-202.772277 101.386139a25.346535 25.346535 0 0 1-24.200872-44.508515l1.530931-0.831366 202.772277-101.386139zM693.501465 604.666931a25.346535 25.346535 0 0 1 33.558812-8.374495l1.500515 0.892198 202.772277 131.416713a25.346535 25.346535 0 0 1-26.086653 43.433821l-1.490376-0.892198-202.772278-131.416713a25.346535 25.346535 0 0 1-7.482297-35.059326zM511.797228 724.525624a25.346535 25.346535 0 0 1 25.478336 23.491168l0.070971 1.662733 1.764118 228.037703a25.346535 25.346535 0 0 1-50.622099 2.058138l-0.07097-1.662732-1.764119-228.037703a25.346535 25.346535 0 0 1 25.143763-25.549307zM513.764119 23.379644a25.346535 25.346535 0 0 1 25.295841 23.683802l0.050693 1.662732v232.123565a25.346535 25.346535 0 0 1-50.642376 1.662732l-0.050693-1.662732V48.726178a25.346535 25.346535 0 0 1 25.346535-25.346534zM83.785505 302.962059a25.346535 25.346535 0 0 1 32.423287-12.06495l1.581624 0.72998 202.772277 101.386139a25.346535 25.346535 0 0 1-21.088317 46.059722l-1.581624-0.709702-202.772277-101.386139a25.346535 25.346535 0 0 1-11.33497-34.01505zM297.892752 595.785505a25.346535 25.346535 0 0 1 24.200872 44.508515l-1.530931 0.831366-202.772277 101.386139a25.346535 25.346535 0 0 1-24.200871-44.508515l1.53093-0.831366 202.772277-101.386139z"  /></svg>