<?xml version="1.0" standalone="no"?><!DOCTYPE svg PUBLIC "-//W3C//DTD SVG 1.1//EN" "http://www.w3.org/Graphics/SVG/1.1/DTD/svg11.dtd"><svg class="icon" width="200px" height="200.00px" viewBox="0 0 1024 1024" version="1.1" xmlns="http://www.w3.org/2000/svg"><path fill="#333333" d="M507.030091 20.078431c277.222902 0 501.960784 224.737882 501.960785 501.960785s-224.737882 501.960784-501.960785 501.960784S5.069307 799.262118 5.069307 522.039216 229.807189 20.078431 507.030091 20.078431z m0 50.196079C257.525464 70.27451 55.265385 272.534588 55.265385 522.039216s202.260078 451.764706 451.764706 451.764706 451.764706-202.260078 451.764706-451.764706S756.534719 70.27451 507.030091 70.27451z"  /><path fill="#333333" d="M507.030091 20.078431c160.537098 0 303.475451 75.364392 395.354353 192.64251C792.495189 272.12298 717.853621 388.367059 717.853621 522.039216c0 133.672157 74.641569 249.916235 184.530823 309.308235C810.515581 948.635608 667.567189 1024 507.030091 1024c-128.210824 0-245.197804-48.067765-333.914353-127.166745C331.534562 848.554667 446.794797 701.269333 446.794797 527.058824c0-177.242353-119.306039-326.625882-281.991529-372.213961C254.453464 71.238275 374.763425 20.078431 507.030091 20.078431z m0 50.196079c-85.965804 0-168.086588 24.074039-238.672313 68.096l-3.945412 2.489725 4.136157 2.208628c136.101647 73.868549 226.253804 216.947451 228.402196 378.076862L496.990876 527.058824c0 160.587294-87.441569 304.148078-221.424942 380.084705l-2.56 1.41553 4.336942 2.610196a449.646431 449.646431 0 0 0 223.673725 62.59451L507.030091 973.803922a450.329098 450.329098 0 0 0 314.809726-127.728942l4.357019-4.306823-0.471843-0.351373a401.197176 401.197176 0 0 1-158.037333-314.408157L667.657542 522.039216a401.197176 401.197176 0 0 1 153.830902-316.104785l4.708392-3.644235-0.220862-0.220863A450.339137 450.339137 0 0 0 512.732366 70.314667L507.030091 70.27451z"  /></svg>