<?xml version="1.0" standalone="no"?><!DOCTYPE svg PUBLIC "-//W3C//DTD SVG 1.1//EN" "http://www.w3.org/Graphics/SVG/1.1/DTD/svg11.dtd"><svg class="icon" width="200px" height="200.00px" viewBox="0 0 1024 1024" version="1.1" xmlns="http://www.w3.org/2000/svg"><path fill="#333333" d="M512 10.138614c279.967683 0 506.930693 226.96301 506.930693 506.930693s-226.96301 506.930693-506.930693 506.930693S5.069307 797.03699 5.069307 517.069307 232.032317 10.138614 512 10.138614z m0 50.693069C260.02503 60.831683 55.762376 265.094337 55.762376 517.069307s204.262653 456.237624 456.237624 456.237624 456.237624-204.262653 456.237624-456.237624S763.97497 60.831683 512 60.831683z"  /><path fill="#333333" d="M500.644752 494.399366c139.071366-69.611723 298.501069-69.611723 476.697347-0.983445a25.346535 25.346535 0 1 1-18.20895 47.306772c-165.624396-63.771881-310.34297-63.771881-435.78804-0.983445a25.346535 25.346535 0 1 1-22.690218-45.339882z"  /><path fill="#333333" d="M539.120792 518.316356c-9.246416 155.232317-88.956198 293.310099-237.486891 413.320872A25.346535 25.346535 0 0 1 269.768238 892.19802c138.047366-111.524752 210.416792-236.868436 218.750732-376.892832a25.346535 25.346535 0 0 1 50.601822 3.011168z"  /><path fill="#333333" d="M491.621386 534.761188c-129.814812-85.630733-209.534733-223.698376-239.200317-412.337426a25.346535 25.346535 0 0 1 50.074614-7.877703c27.57703 175.316911 99.936317 300.660594 217.037307 377.896555a25.346535 25.346535 0 0 1-27.911604 42.318574zM415.713584 740.149228C238.115485 607.404356 133.839842 446.230812 104.133703 257.409267a25.346535 25.346535 0 1 1 50.084752-7.877703c27.546614 175.144554 124.410931 324.871604 291.84 450.012515a25.346535 25.346535 0 1 1-30.344871 40.605149zM26.015683 473.01703A25.346535 25.346535 0 0 1 59.006733 487.05901c51.56499 128.050693 149.331644 237.304396 294.090772 327.882772a25.346535 25.346535 0 0 1-26.887604 42.987723C172.792396 761.916832 67.776634 644.562376 11.963564 505.987802a25.346535 25.346535 0 0 1 14.041981-32.980911z"  /><path fill="#333333" d="M379.305822 346.77101c203.755723-87.435406 395.476911-97.148198 573.845544-28.459089a25.346535 25.346535 0 1 1-18.20895 47.306772c-165.45204-63.71105-343.557069-54.687683-535.643248 27.739248a25.346535 25.346535 0 1 1-19.993346-46.586931zM805.492594 142.853069a25.346535 25.346535 0 0 1-28.651723 21.534416c-136.678653-19.364752-280.180594 10.665822-431.012752 90.740594a25.346535 25.346535 0 1 1-23.764911-44.772119c159.835248-84.860198 313.972594-117.121267 461.884832-96.154613a25.346535 25.346535 0 0 1 21.544554 28.651722zM728.317465 492.432475c-26.157624 220.170139-113.603168 391.066614-262.28594 511.19905a25.346535 25.346535 0 1 1-31.855525-39.42907C572.081426 852.779089 653.332277 694.018535 677.979248 486.450693a25.346535 25.346535 0 1 1 50.338217 5.981782zM691.828594 963.472475a25.346535 25.346535 0 0 1-4.329188-35.586534c85.113663-108.685941 130.84895-247.970218 136.911842-418.623367a25.346535 25.346535 0 0 1 50.662653 1.794535c-6.427881 180.852594-55.559604 330.468119-147.668911 448.086178a25.346535 25.346535 0 0 1-35.586535 4.329188z"  /></svg>