<?xml version="1.0" standalone="no"?><!DOCTYPE svg PUBLIC "-//W3C//DTD SVG 1.1//EN" "http://www.w3.org/Graphics/SVG/1.1/DTD/svg11.dtd"><svg class="icon" width="200px" height="200.00px" viewBox="0 0 1024 1024" version="1.1" xmlns="http://www.w3.org/2000/svg"><path fill="#333333" d="M512 0c282.76736 0 512 229.23264 512 512s-229.23264 512-512 512S0 794.76736 0 512 229.23264 0 512 0z m0 51.2C257.50528 51.2 51.2 257.50528 51.2 512s206.30528 460.8 460.8 460.8 460.8-206.30528 460.8-460.8S766.49472 51.2 512 51.2z"  /><path fill="#333333" d="M549.60128 29.60384c2.48832 57.31328 0.02048 110.1312-7.38304 158.4128l57.06752 12.22656a25.6 25.6 0 0 1-9.07264 50.37056l-1.65888-0.3072-56.2176-12.04224c-17.13152 70.61504-46.35648 130.05824-87.51104 178.176l31.9488 29.85984a25.6 25.6 0 0 1-33.56672 38.61504l-1.3824-1.19808-32.93184-30.78144c-52.91008 46.6944-120.50432 79.32928-202.5984 97.69984l7.9872 31.9488a25.6 25.6 0 0 1-49.21344 14.04928l-0.4608-1.62816-8.77568-35.13344c-38.88128 5.632-80.5888 8.448-125.11232 8.448a25.6 25.6 0 1 1 0-51.2c40.17152 0 77.7216-2.3552 112.64-7.09632l-9.472-37.888a25.6 25.6 0 0 1 49.2032-14.04928l0.4608 1.62816 10.36288 41.39008c71.95648-15.872 131.01056-43.5712 177.37728-83.3024l-32.6144-30.45376a25.6 25.6 0 0 1 33.57696-38.61504l1.3824 1.19808 33.73056 31.5392c35.08224-41.59488 60.0576-92.83584 75.04896-153.88672l-37.2224-7.9872a25.6 25.6 0 0 1 9.07264-50.37056l1.65888 0.3072 36.2496 7.7824c6.5024-44.12416 8.57088-92.60032 6.27712-145.47968a25.6 25.6 0 0 1 51.1488-2.23232zM464.16896 999.5264c-2.49856-57.31328-0.02048-110.1312 7.3728-158.42304l-57.05728-12.22656a25.6 25.6 0 0 1 9.0624-50.36032l1.65888 0.29696 56.2176 12.05248c17.14176-70.61504 46.36672-130.06848 87.52128-178.18624l-31.9488-29.85984a25.6 25.6 0 0 1 33.56672-38.6048l1.3824 1.19808 32.93184 30.7712c52.89984-46.6944 120.50432-79.32928 202.5984-97.6896l-7.9872-31.95904a25.6 25.6 0 0 1 49.21344-14.03904l0.4608 1.61792 8.77568 35.14368C896.80896 463.62624 938.52672 460.8 983.04 460.8a25.6 25.6 0 1 1 0 51.2c-40.17152 0-77.7216 2.3552-112.65024 7.09632l9.48224 37.888a25.6 25.6 0 0 1-49.21344 14.03904l-0.4608-1.61792-10.35264-41.39008c-71.95648 15.872-131.0208 43.5712-177.37728 83.29216l32.60416 30.464a25.6 25.6 0 0 1-33.56672 38.6048l-1.3824-1.19808-33.73056-31.52896c-35.09248 41.58464-60.06784 92.83584-75.0592 153.87648l37.2224 7.99744a25.6 25.6 0 0 1-9.0624 50.36032l-1.65888-0.29696-36.25984-7.7824c-6.49216 44.11392-8.57088 92.59008-6.26688 145.47968a25.6 25.6 0 0 1-51.1488 2.22208z"  /></svg>