<?xml version="1.0" standalone="no"?><!DOCTYPE svg PUBLIC "-//W3C//DTD SVG 1.1//EN" "http://www.w3.org/Graphics/SVG/1.1/DTD/svg11.dtd"><svg class="icon" width="200px" height="200.00px" viewBox="0 0 1024 1024" version="1.1" xmlns="http://www.w3.org/2000/svg"><path fill="#333333" d="M263.323781 261.827196C508.411402 16.739575 816.931785-72.103029 952.440738 63.385514c135.488543 135.498748 46.645939 444.029336-198.441682 689.127162C508.911435 997.579887 200.391052 1086.422491 64.892304 950.933948-70.606444 815.445405 18.236161 506.914817 263.323781 261.806787z m36.073812 36.073812C71.586624 525.722182-8.847261 805.046759 100.966116 914.860136c109.803173 109.813378 389.137954 29.379492 616.959128-198.431477 227.810969-227.821174 308.244855-507.145751 198.431478-616.959128C806.543344-10.343847 527.218767 70.090039 299.397593 297.901008z"  /><path fill="#333333" d="M667.095356 301.217554l-36.084017 36.073812 57.728304 57.728303 36.073812-36.084016-57.718099-57.718099z m-64.943067 64.943066l-36.084016 36.073812 57.728304 57.728304 36.073811-36.084017-57.718099-57.718099z m-64.943066 64.932861l-36.084016 36.084017 57.728303 57.728304 36.084017-36.084017-57.728304-57.728304z m-64.943066 64.943066L436.18214 532.130769l57.728304 57.728304 36.084017-36.084017-57.728304-57.728304z m-64.943066 64.943067l-36.084017 36.084016 57.728304 57.728304 36.084017-36.084017-57.728304-57.728303z m-64.943066 64.943066l-36.084017 36.084016 57.728304 57.728304 36.084017-36.084017-57.728304-57.728303zM616.847138 73.99846c85.362783 175.338115 190.624839 278.528606 315.469822 311.785905l4.57173 1.193957-12.449802 49.472656C782.776468 400.795561 666.125904 288.82898 574.170849 102.847305l-3.204293-6.520839 45.880582-22.328006zM369.912456 967.098281C291.203174 792.076514 189.482168 689.202371 64.973942 656.016505l-4.561526-1.183752 12.460007-49.482861c141.917539 35.74726 255.394424 147.999574 340.63475 334.307801l2.959379 6.531044-46.533686 20.919749z"  /></svg>