<?xml version="1.0" standalone="no"?><!DOCTYPE svg PUBLIC "-//W3C//DTD SVG 1.1//EN" "http://www.w3.org/Graphics/SVG/1.1/DTD/svg11.dtd"><svg class="icon" width="200px" height="200.00px" viewBox="0 0 1024 1024" version="1.1" xmlns="http://www.w3.org/2000/svg"><path fill="#333333" d="M148.41856 114.0736c151.9616-151.9616 398.336-151.9616 550.2976 0l101.376 101.376c151.9616 151.9616 151.9616 398.336 0 550.2976l-28.96896 28.95872c-151.9616 151.9616-398.336 151.9616-550.2976 0l-101.376-101.376c-151.9616-151.9616-151.9616-398.336 0-550.2976l28.9792-28.95872z m36.20864 36.20864L155.648 179.24096C25.01632 309.88288 23.7056 520.89856 151.7568 653.14816l3.91168 3.98336 101.376 101.376c130.64192 130.64192 341.64736 131.95264 473.9072 3.91168l3.98336-3.91168 28.95872-28.96896c130.65216-130.64192 131.95264-341.6576 3.92192-473.9072l-3.92192-3.98336-101.376-101.376C531.8656 19.64032 320.8704 18.3296 188.61056 146.37056l-3.97312 3.92192z"  /><path fill="#333333" d="M727.68512 722.29888a81.92 81.92 0 0 1 115.84512 0l123.09504 123.0848a81.92 81.92 0 0 1-115.84512 115.85536l-123.09504-123.0848a81.92 81.92 0 0 1 0-115.85536z m36.1984 36.20864a30.72 30.72 0 0 0-1.2288 42.12736l1.2288 1.31072L886.9888 925.04064a30.72 30.72 0 0 0 44.68736-42.12736l-1.23904-1.32096-123.09504-123.0848a30.72 30.72 0 0 0-43.44832 0zM409.088 287.8464a92.16 92.16 0 1 1 130.33472 130.33472A92.16 92.16 0 0 1 409.088 287.85664zM858.0096 353.024l36.20864 36.1984-504.6272 504.6272-36.1984-36.20864z"  /></svg>