<?xml version="1.0" standalone="no"?><!DOCTYPE svg PUBLIC "-//W3C//DTD SVG 1.1//EN" "http://www.w3.org/Graphics/SVG/1.1/DTD/svg11.dtd"><svg class="icon" width="200px" height="200.00px" viewBox="0 0 1024 1024" version="1.1" xmlns="http://www.w3.org/2000/svg"><path fill="#333333" d="M512 0c282.76736 0 512 229.23264 512 512s-229.23264 512-512 512S0 794.76736 0 512 229.23264 0 512 0z m0 51.2C257.50528 51.2 51.2 257.50528 51.2 512s206.30528 460.8 460.8 460.8 460.8-206.30528 460.8-460.8S766.49472 51.2 512 51.2z"  /><path fill="#333333" d="M512 153.6c197.9392 0 358.4 160.4608 358.4 358.4S709.9392 870.4 512 870.4 153.6 709.9392 153.6 512s160.4608-358.4 358.4-358.4z m0 51.2c-169.66656 0-307.2 137.53344-307.2 307.2 0 169.66656 137.53344 307.2 307.2 307.2 169.66656 0 307.2-137.53344 307.2-307.2 0-169.66656-137.53344-307.2-307.2-307.2z"  /><path fill="#333333" d="M512 307.2c113.11104 0 204.8 91.68896 204.8 204.8s-91.68896 204.8-204.8 204.8-204.8-91.68896-204.8-204.8 91.68896-204.8 204.8-204.8z m0 51.2c-84.82816 0-153.6 68.77184-153.6 153.6 0 84.82816 68.77184 153.6 153.6 153.6 84.82816 0 153.6-68.77184 153.6-153.6 0-84.82816-68.77184-153.6-153.6-153.6z"  /><path fill="#333333" d="M512 460.8a51.2 51.2 0 1 1 0 102.4 51.2 51.2 0 0 1 0-102.4z"  /></svg>