<?xml version="1.0" standalone="no"?><!DOCTYPE svg PUBLIC "-//W3C//DTD SVG 1.1//EN" "http://www.w3.org/Graphics/SVG/1.1/DTD/svg11.dtd"><svg class="icon" width="200px" height="200.00px" viewBox="0 0 1024 1024" version="1.1" xmlns="http://www.w3.org/2000/svg"><path fill="#333333" d="M512 0c282.76736 0 512 229.23264 512 512s-229.23264 512-512 512S0 794.76736 0 512 229.23264 0 512 0z m0 51.2C257.50528 51.2 51.2 257.50528 51.2 512s206.30528 460.8 460.8 460.8 460.8-206.30528 460.8-460.8S766.49472 51.2 512 51.2z"  /><path fill="#333333" d="M516.1984 245.80096l249.9584 188.35456-101.888 295.936-312.9344-5.46816-91.51488-299.3152 256.37888-179.5072z m-1.09568 63.27296L319.65184 445.92128l69.75488 228.1472 238.56128 4.17792 77.6704-225.5872-190.53568-143.58528z"  /><path fill="#333333" d="M488.18176 36.90496l51.2 0.38912-1.78176 237.07648-51.2-0.38912zM991.3344 384.12288l5.05856 50.95424-257.9456 25.6-5.04832-50.95424zM661.9136 705.37216l102.17472 204.8-45.81376 22.85568-102.17472-204.8zM346.2144 702.02368l41.80992 29.55264-144.81408 204.8-41.80992-29.55264zM53.87264 384.14336l243.51744 25.6-5.35552 50.91328-243.5072-25.6z"  /></svg>