<?xml version="1.0" standalone="no"?><!DOCTYPE svg PUBLIC "-//W3C//DTD SVG 1.1//EN" "http://www.w3.org/Graphics/SVG/1.1/DTD/svg11.dtd"><svg class="icon" width="200px" height="200.00px" viewBox="0 0 1024 1024" version="1.1" xmlns="http://www.w3.org/2000/svg"><path fill="#333333" d="M512 0c282.76736 0 512 229.23264 512 512s-229.23264 512-512 512S0 794.76736 0 512 229.23264 0 512 0z m0 51.2C257.50528 51.2 51.2 257.50528 51.2 512s206.30528 460.8 460.8 460.8 460.8-206.30528 460.8-460.8S766.49472 51.2 512 51.2z"  /><path fill="#333333" d="M465.92 92.16C644.06528 92.16 788.48 236.57472 788.48 414.72S644.06528 737.28 465.92 737.28 143.36 592.86528 143.36 414.72 287.77472 92.16 465.92 92.16z m0 51.2C316.04736 143.36 194.56 264.84736 194.56 414.72S316.04736 686.08 465.92 686.08 737.28 564.59264 737.28 414.72 615.79264 143.36 465.92 143.36z"  /><path fill="#333333" d="M532.48 235.52c56.55552 0 102.4 45.84448 102.4 102.4s-45.84448 102.4-102.4 102.4-102.4-45.84448-102.4-102.4 45.84448-102.4 102.4-102.4z m0 51.2a51.2 51.2 0 1 0 0 102.4 51.2 51.2 0 0 0 0-102.4z"  /><path fill="#333333" d="M404.48 348.16C469.51424 348.16 522.24 400.88576 522.24 465.92S469.51424 583.68 404.48 583.68 286.72 530.95424 286.72 465.92 339.44576 348.16 404.48 348.16z m0 51.2a66.56 66.56 0 1 0 0 133.12 66.56 66.56 0 0 0 0-133.12z"  /></svg>