<?xml version="1.0" standalone="no"?><!DOCTYPE svg PUBLIC "-//W3C//DTD SVG 1.1//EN" "http://www.w3.org/Graphics/SVG/1.1/DTD/svg11.dtd"><svg class="icon" width="200px" height="200.00px" viewBox="0 0 1024 1024" version="1.1" xmlns="http://www.w3.org/2000/svg"><path fill="#333333" d="M236.05248 491.52c144.20992 0 261.12 119.1936 261.12 266.24 0 127.66208-88.1152 234.33216-205.7216 260.23936A269.03552 269.03552 0 0 0 323.09248 890.88c0-147.0464-116.91008-266.24-261.12-266.24-19.01568 0-37.55008 2.06848-55.3984 6.00064C50.81088 547.76832 136.99072 491.52 236.05248 491.52z m0 51.2c-40.5504 0-79.07328 11.8784-111.84128 33.01376l-4.6592 3.09248 2.97984 0.57344c142.01856 28.34432 249.30304 154.48064 251.71968 306.23744l0.04096 5.24288c0 7.43424-0.256 14.82752-0.74752 22.1696l-0.64512 7.80288 1.98656-1.75104c42.94656-38.8608 69.9904-95.29344 71.05536-157.52192l0.03072-3.81952c0-118.9888-94.208-215.04-209.92-215.04z"  /><path fill="#333333" d="M960.16384 48.128a25.6 25.6 0 0 1 36.78208 35.55328l-1.26976 1.32096-552.96 532.48a25.6 25.6 0 0 1-36.78208-35.56352l1.26976-1.32096 552.96-532.48zM308.29568 729.31328a35.84 35.84 0 0 1 0 50.688L141.75232 946.5344a35.84 35.84 0 0 1-50.688 0l-21.7088-21.71904a35.84 35.84 0 0 1 0-50.688l166.53312-166.53312a35.84 35.84 0 0 1 50.688 0l21.7088 21.7088z"  /></svg>