<?xml version="1.0" standalone="no"?><!DOCTYPE svg PUBLIC "-//W3C//DTD SVG 1.1//EN" "http://www.w3.org/Graphics/SVG/1.1/DTD/svg11.dtd"><svg class="icon" width="200px" height="200.00px" viewBox="0 0 1024 1024" version="1.1" xmlns="http://www.w3.org/2000/svg"><path fill="#333333" d="M42.825505 35.637228C666.836911-33.690614 983.445545 282.91802 983.445545 973.306931a25.346535 25.346535 0 1 1-50.69307 0c0-661.412752-291.708198-953.131089-884.330455-887.280792a25.346535 25.346535 0 0 1-5.596515-50.388911z"  /><path fill="#333333" d="M106.455446 65.90099a5.069307 5.069307 0 0 1 4.988198 4.156832L111.524752 70.970297v836.435644H947.960396a5.069307 5.069307 0 0 1 4.988198 4.156831l0.081109 0.912476a5.069307 5.069307 0 0 1-4.156832 4.988198L947.960396 917.544554H101.386139V70.970297a5.069307 5.069307 0 0 1 5.069307-5.069307z"  /><path fill="#333333" d="M899.66004 86.502653a25.346535 25.346535 0 0 1 37.00594 34.592951l-1.236911 1.31802-811.089109 808.017109a25.346535 25.346535 0 0 1-37.00594-34.592951l1.236911-1.31802 811.089109-808.017109z"  /><path fill="#333333" d="M917.544554 79.111604a25.346535 25.346535 0 0 1 25.295842 23.683802l0.050693 1.662733V202.772277a25.346535 25.346535 0 0 1-50.642376 1.662733L892.19802 202.772277v-72.967604H816.158416a25.346535 25.346535 0 0 1-25.295842-23.673663l-0.050693-1.672871a25.346535 25.346535 0 0 1 23.683802-25.285703L816.158416 79.111604h101.386138z"  /></svg>