<?xml version="1.0" standalone="no"?><!DOCTYPE svg PUBLIC "-//W3C//DTD SVG 1.1//EN" "http://www.w3.org/Graphics/SVG/1.1/DTD/svg11.dtd"><svg class="icon" width="200px" height="200.00px" viewBox="0 0 1024 1024" version="1.1" xmlns="http://www.w3.org/2000/svg"><path fill="#333333" d="M199.68 256a76.8 76.8 0 0 1 76.8 76.8v358.4a76.8 76.8 0 1 1-153.6 0v-358.4a76.8 76.8 0 0 1 76.8-76.8z m0 51.2a25.6 25.6 0 0 0-25.5488 23.92064L174.08 332.8v358.4a25.6 25.6 0 0 0 51.1488 1.67936L225.28 691.2v-358.4a25.6 25.6 0 0 0-25.6-25.6zM61.44 358.4a61.44 61.44 0 0 1 61.44 61.44v184.32a61.44 61.44 0 0 1-122.88 0V419.84a61.44 61.44 0 0 1 61.44-61.44z m0 51.2a10.24 10.24 0 0 0-10.16832 9.04192L51.2 419.84v184.32a10.24 10.24 0 0 0 20.40832 1.19808L71.68 604.16V419.84a10.24 10.24 0 0 0-10.24-10.24zM824.32 256a76.8 76.8 0 0 1 76.8 76.8v358.4a76.8 76.8 0 1 1-153.6 0v-358.4a76.8 76.8 0 0 1 76.8-76.8z m0 51.2a25.6 25.6 0 0 0-25.5488 23.92064L798.72 332.8v358.4a25.6 25.6 0 0 0 51.1488 1.67936L849.92 691.2v-358.4a25.6 25.6 0 0 0-25.6-25.6zM962.56 358.4a61.44 61.44 0 0 1 61.44 61.44v184.32a61.44 61.44 0 0 1-122.88 0V419.84a61.44 61.44 0 0 1 61.44-61.44z m0 51.2a10.24 10.24 0 0 0-10.16832 9.04192L952.32 419.84v184.32a10.24 10.24 0 0 0 20.40832 1.19808L972.8 604.16V419.84a10.24 10.24 0 0 0-10.24-10.24z"  /><path fill="#333333" d="M768 479.42656v51.2H256v-51.2z"  /></svg>