<?xml version="1.0" standalone="no"?><!DOCTYPE svg PUBLIC "-//W3C//DTD SVG 1.1//EN" "http://www.w3.org/Graphics/SVG/1.1/DTD/svg11.dtd"><svg class="icon" width="200px" height="200.00px" viewBox="0 0 1024 1024" version="1.1" xmlns="http://www.w3.org/2000/svg"><path fill="#333333" d="M204.8 307.2c113.11104 0 204.8 91.68896 204.8 204.8s-91.68896 204.8-204.8 204.8S0 625.11104 0 512s91.68896-204.8 204.8-204.8z m0 51.2c-84.82816 0-153.6 68.77184-153.6 153.6 0 84.82816 68.77184 153.6 153.6 153.6 84.82816 0 153.6-68.77184 153.6-153.6 0-84.82816-68.77184-153.6-153.6-153.6zM819.2 307.2c113.11104 0 204.8 91.68896 204.8 204.8s-91.68896 204.8-204.8 204.8-204.8-91.68896-204.8-204.8 91.68896-204.8 204.8-204.8z m0 51.2c-84.82816 0-153.6 68.77184-153.6 153.6 0 84.82816 68.77184 153.6 153.6 153.6 84.82816 0 153.6-68.77184 153.6-153.6 0-84.82816-68.77184-153.6-153.6-153.6z"  /><path fill="#333333" d="M655.36 460.8v102.4H389.12V460.8z"  /></svg>