<?xml version="1.0" standalone="no"?><!DOCTYPE svg PUBLIC "-//W3C//DTD SVG 1.1//EN" "http://www.w3.org/Graphics/SVG/1.1/DTD/svg11.dtd"><svg class="icon" width="200px" height="200.00px" viewBox="0 0 1024 1024" version="1.1" xmlns="http://www.w3.org/2000/svg"><path fill="#333333" d="M1024 512c0 282.76736-229.23264 512-512 512-139.55072 0-266.05568-55.82848-358.41024-146.37056C248.39168 784.71168 307.2 655.21664 307.2 512c0-143.22688-58.80832-272.71168-153.6-365.63968C245.94432 55.83872 372.44928 0 512 0c282.76736 0 512 229.23264 512 512z m-51.2 0C972.8 257.50528 766.49472 51.2 512 51.2c-103.96672 0-202.3936 34.53952-282.14272 96.43008l-3.11296 2.4576 1.80224 2.14016a561.12128 561.12128 0 0 1 129.81248 353.20832L358.4 512c0 133.62176-46.7968 259.8912-129.87392 359.77216l-1.792 2.11968 3.10272 2.4576a458.63936 458.63936 0 0 0 276.04992 96.4096L512 972.8c254.49472 0 460.8-206.30528 460.8-460.8z"  /><path fill="#333333" d="M875.6224 872.448C782.848 966.0416 654.20288 1024 512 1024 229.23264 1024 0 794.76736 0 512S229.23264 0 512 0c136.93952 0 261.3248 53.76 353.18784 141.32224C773.44768 233.84064 716.8 361.18528 716.8 501.76c0 144.20992 59.62752 274.50368 155.56608 367.55456l3.26656 3.1232z m-76.34944-0.11264l3.1744-2.58048-0.67584-0.75776C714.79296 768 665.6 638.74048 665.6 501.76c0-130.58048 44.6976-254.18752 124.3648-353.04448l2.16064-2.64192-3.072-2.33472c-77.312-58.29632-171.47904-91.20768-270.9504-92.49792L512 51.2C257.50528 51.2 51.2 257.50528 51.2 512s206.30528 460.8 460.8 460.8c106.24 0 206.67392-36.07552 287.27296-100.46464z"  /><path fill="#333333" d="M47.16544 539.38176a25.6 25.6 0 0 1-1.78176-51.13856l1.67936-0.06144 921.14944-1.78176a25.6 25.6 0 0 1 1.78176 51.13856l-1.67936 0.06144-921.14944 1.78176z"  /><path fill="#333333" d="M512.12288 1008.64a25.6 25.6 0 0 1-25.66144-23.79776l-0.06144-1.67936-4.31104-928.4096a25.6 25.6 0 0 1 51.13856-1.92512l0.06144 1.6896 4.31104 928.39936a25.6 25.6 0 0 1-25.47712 25.72288z"  /></svg>