<?xml version="1.0" standalone="no"?><!DOCTYPE svg PUBLIC "-//W3C//DTD SVG 1.1//EN" "http://www.w3.org/Graphics/SVG/1.1/DTD/svg11.dtd"><svg class="icon" width="200px" height="200.00px" viewBox="0 0 1024 1024" version="1.1" xmlns="http://www.w3.org/2000/svg"><path fill="#333333" d="M1011.667456 364.8l-85.76-25.6c-12.8-3.84-28.16 0-40.96 10.24l-70.4 53.76C759.507456 346.88 691.667456 303.36 614.867456 281.6c-34.56-10.24-70.4-14.08-106.24-14.08-64 0-126.72 15.36-184.32 44.8-56.32 29.44-106.24 70.4-147.2 119.04-7.68 8.96-14.08 17.92-20.48 26.88C87.507456 380.16 64.467456 303.36 91.347456 235.52 123.347456 153.6 221.907456 97.28 337.107456 97.28H627.667456c21.76 0 39.68-17.92 39.68-39.68S650.707456 16.64 627.667456 16.64H337.107456c-148.48 0-276.48 76.8-321.28 189.44-39.68 102.4-3.84 217.6 97.28 320-11.52 23.04-21.76 47.36-29.44 71.68-25.6 80.64-32 166.4-15.36 249.6 8.96 37.12 19.2 74.24 30.72 111.36 8.96 29.44 35.84 48.64 66.56 48.64h684.8c60.16 0 70.4-57.6 81.92-103.68 12.8-52.48 21.76-107.52 21.76-161.28 0-12.8 0-24.32-1.28-37.12-3.84-61.44-21.76-122.88-49.92-177.92-1.28-2.56-2.56-5.12-3.84-8.96-2.56-6.4-6.4-11.52-10.24-17.92l121.6-92.16c17.92-14.08 19.2-38.4 1.28-43.52zM849.107456 898.56c-3.84 16.64-19.2 28.16-37.12 28.16h-614.4c-15.36 0-28.16-10.24-32-24.32l-16.64-66.56h715.52l-15.36 62.72zM142.547456 739.84C142.547456 529.92 314.067456 345.6 507.347456 345.6c194.56 0 364.8 184.32 364.8 395.52h-729.6z"  /></svg>