<?xml version="1.0" standalone="no"?><!DOCTYPE svg PUBLIC "-//W3C//DTD SVG 1.1//EN" "http://www.w3.org/Graphics/SVG/1.1/DTD/svg11.dtd"><svg class="icon" width="200px" height="200.00px" viewBox="0 0 1024 1024" version="1.1" xmlns="http://www.w3.org/2000/svg"><path fill="#333333" d="M183.04 840.96c7.68 7.68 16.64 10.24 25.6 10.24s19.2-3.84 25.6-10.24l227.84-227.84c14.08-14.08 14.08-38.4 0-52.48-14.08-14.08-38.4-14.08-52.48 0L183.04 788.48c-15.36 14.08-15.36 38.4 0 52.48zM908.8 0c-64 0-115.2 51.2-115.2 115.2 0 16.64 3.84 33.28 10.24 47.36-1.28 1.28-1.28 1.28-2.56 1.28L560.64 404.48l-119.04-119.04c-14.08-14.08-38.4-14.08-52.48 0-14.08 14.08-14.08 38.4 0 52.48l295.68 295.68c7.68 7.68 16.64 10.24 25.6 10.24s19.2-3.84 25.6-10.24c14.08-14.08 14.08-38.4 0-52.48l-124.16-124.16 240.64-240.64c17.92 8.96 35.84 14.08 56.32 14.08 64 0 115.2-51.2 115.2-115.2-1.28-64-52.48-115.2-115.2-115.2z m0 156.16c-23.04 0-40.96-17.92-40.96-40.96 0-23.04 17.92-40.96 40.96-40.96 23.04 0 40.96 17.92 40.96 40.96 0 21.76-19.2 40.96-40.96 40.96z"  /><path fill="#333333" d="M573.44 631.04L294.4 912.64c-49.92 49.92-131.84 49.92-181.76 0-49.92-49.92-49.92-131.84 0-181.76l280.32-281.6c14.08-14.08 14.08-38.4 0-52.48-14.08-14.08-38.4-14.08-52.48 0L60.16 678.4c-79.36 79.36-79.36 207.36 0 286.72 39.68 39.68 90.88 58.88 143.36 58.88 51.2 0 103.68-19.2 143.36-58.88l280.32-281.6c14.08-14.08 14.08-38.4 0-52.48-15.36-15.36-38.4-15.36-53.76 0z"  /></svg>