<?xml version="1.0" standalone="no"?><!DOCTYPE svg PUBLIC "-//W3C//DTD SVG 1.1//EN" "http://www.w3.org/Graphics/SVG/1.1/DTD/svg11.dtd"><svg class="icon" width="200px" height="200.00px" viewBox="0 0 1024 1024" version="1.1" xmlns="http://www.w3.org/2000/svg"><path fill="#333333" d="M983.730337 695.450687L651.345818 357.952559c-3.835206-3.835206-7.670412-6.39201-11.505618-7.670412V207.101124c0-21.732834-17.897628-39.630462-39.630462-39.630462h-47.300874V38.35206c0-21.732834-17.897628-38.35206-38.35206-38.35206-21.732834 0-38.35206 17.897628-38.35206 38.35206v129.118602h-47.300874c-21.732834 0-39.630462 17.897628-39.630462 39.630462v149.573033l-1.278402 1.278402-345.168539 338.77653c-7.670412 7.670412-11.505618 17.897628-11.505618 28.124844v100.993757c0 21.732834 17.897628 38.35206 38.35206 38.35206h227.555555c29.403246 92.044944 115.05618 159.80025 217.32834 159.80025s189.203496-67.755306 217.32834-159.80025h223.720349c21.732834 0 38.35206-17.897628 38.35206-38.35206v-100.993757c0-11.505618-3.835206-21.732834-10.227216-29.403246zM464.699126 245.453184H563.13608v97.158551h-97.158552v-97.158551z m48.579276 699.285892c-58.806492 0-108.66417-33.238452-134.23221-83.09613h268.46442c-24.289638 49.857678-75.425718 83.09613-134.23221 83.09613z m403.975031-159.80025H106.746567v-46.022471l325.992509-319.6005H602.766542l313.208489 319.6005v46.022471z"  /></svg>