<?xml version="1.0" standalone="no"?><!DOCTYPE svg PUBLIC "-//W3C//DTD SVG 1.1//EN" "http://www.w3.org/Graphics/SVG/1.1/DTD/svg11.dtd"><svg class="icon" width="200px" height="200.00px" viewBox="0 0 1024 1024" version="1.1" xmlns="http://www.w3.org/2000/svg"><path fill="#333333" d="M327.68 270.08c21.76 0 38.4-16.64 38.4-38.4v-62.72c0-21.76-16.64-38.4-38.4-38.4s-38.4 16.64-38.4 38.4v62.72c0 20.48 17.92 38.4 38.4 38.4zM327.68 463.36c-21.76 0-38.4 16.64-38.4 38.4v158.72c0 21.76 16.64 38.4 38.4 38.4s38.4-16.64 38.4-38.4V501.76c0-21.76-16.64-38.4-38.4-38.4z"  /><path fill="#333333" d="M742.4 0H281.6c-70.4 0-128 57.6-128 128v768c0 70.4 57.6 128 128 128h460.8c70.4 0 128-57.6 128-128V128c0-70.4-57.6-128-128-128zM281.6 76.8h460.8c28.16 0 51.2 23.04 51.2 51.2v188.16H230.4V128c0-28.16 23.04-51.2 51.2-51.2z m460.8 870.4H281.6c-28.16 0-51.2-23.04-51.2-51.2V392.96h563.2V896c0 28.16-23.04 51.2-51.2 51.2z"  /></svg>