<?xml version="1.0" standalone="no"?><!DOCTYPE svg PUBLIC "-//W3C//DTD SVG 1.1//EN" "http://www.w3.org/Graphics/SVG/1.1/DTD/svg11.dtd"><svg class="icon" width="200px" height="199.80px" viewBox="0 0 1025 1024" version="1.1" xmlns="http://www.w3.org/2000/svg"><path fill="#333333" d="M870.4 129.28L153.6 128h-1.28C67.84 128 0 179.2 0 243.2v536.32c0 64 67.84 115.2 153.6 115.2l716.8 1.28c84.48 0 153.6-51.2 153.6-115.2l1.28-537.6c-1.28-62.72-69.12-113.92-154.88-113.92zM945.92 780.8c0 14.08-29.44 38.4-76.8 38.4l-716.8-1.28c-33.28 0-56.32-12.8-67.84-23.04-2.56-3.84-7.68-8.96-7.68-15.36l1.28-537.6c0-14.08 29.44-38.4 76.8-38.4l716.8 1.28c33.28 0 56.32 12.8 67.84 23.04 2.56 2.56 7.68 8.96 7.68 14.08L945.92 780.8z"  /><path fill="#333333" d="M622.08 330.24l-368.64-1.28c-44.8 0-81.92 37.12-81.92 81.92v207.36c0 46.08 37.12 81.92 81.92 81.92l368.64 1.28c44.8 0 81.92-37.12 81.92-81.92V412.16c0-44.8-35.84-81.92-81.92-81.92z m5.12 289.28c0 2.56-2.56 5.12-5.12 5.12l-368.64-1.28s-2.56 0-3.84-1.28c-1.28-1.28-1.28-3.84-1.28-3.84V410.88c0-2.56 2.56-5.12 5.12-5.12l368.64 1.28c2.56 0 5.12 2.56 5.12 5.12v207.36zM824.32 381.44c-28.16 0-51.2 23.04-51.2 51.2s23.04 51.2 51.2 51.2 51.2-23.04 51.2-51.2-21.76-51.2-51.2-51.2zM824.32 564.48c-28.16 0-51.2 23.04-51.2 51.2s23.04 51.2 51.2 51.2 51.2-23.04 51.2-51.2-23.04-51.2-51.2-51.2z"  /></svg>