<?xml version="1.0" standalone="no"?><!DOCTYPE svg PUBLIC "-//W3C//DTD SVG 1.1//EN" "http://www.w3.org/Graphics/SVG/1.1/DTD/svg11.dtd"><svg class="icon" width="200px" height="200.00px" viewBox="0 0 1024 1024" version="1.1" xmlns="http://www.w3.org/2000/svg"><path fill="#333333" d="M926.72 170.24H759.04V79.36h156.16c21.76 0 39.68-17.92 39.68-39.68S938.24 0 916.48 0H524.8c-21.76 0-39.68 17.92-39.68 39.68s17.92 39.68 39.68 39.68h156.16V170.24H395.52C209.92 170.24 61.44 320 61.44 504.32v279.04c-33.28 3.84-60.16 33.28-60.16 67.84v104.96c0 38.4 30.72 67.84 67.84 67.84H460.8c38.4 0 67.84-30.72 67.84-67.84v-104.96c0-35.84-28.16-65.28-62.72-67.84v-96c0-16.64 12.8-29.44 29.44-29.44h401.92c70.4 0 126.72-56.32 126.72-126.72V266.24c-1.28-52.48-43.52-96-97.28-96z m17.92 344.32c0 35.84-29.44 64-64 64H477.44c-49.92 0-90.88 40.96-90.88 90.88V811.52c0 26.88 21.76 48.64 48.64 48.64h14.08V908.8c0 20.48-16.64 37.12-37.12 37.12H102.4c-12.8 0-23.04-10.24-23.04-23.04V862.72h19.2c23.04 0 40.96-19.2 40.96-42.24V504.32c0-140.8 113.92-254.72 254.72-254.72h497.92c28.16 0 51.2 23.04 51.2 51.2v213.76z"  /></svg>