<?xml version="1.0" standalone="no"?><!DOCTYPE svg PUBLIC "-//W3C//DTD SVG 1.1//EN" "http://www.w3.org/Graphics/SVG/1.1/DTD/svg11.dtd"><svg class="icon" width="200px" height="200.00px" viewBox="0 0 1024 1024" version="1.1" xmlns="http://www.w3.org/2000/svg"><path fill="#333333" d="M913.92 101.12H110.08C49.92 101.12 0 154.88 0 221.44v500.48c0 66.56 49.92 120.32 110.08 120.32h33.28v43.52c0 21.76 16.64 38.4 38.4 38.4s38.4-16.64 38.4-38.4v-43.52H801.28v43.52c0 21.76 16.64 38.4 38.4 38.4s38.4-16.64 38.4-38.4v-43.52h35.84c61.44 0 110.08-53.76 110.08-120.32V221.44c0-66.56-49.92-120.32-110.08-120.32z m33.28 120.32v101.12H724.48v-140.8-3.84h189.44c17.92 0 33.28 19.2 33.28 43.52zM110.08 764.16c-17.92 0-33.28-19.2-33.28-43.52v-499.2c0-23.04 15.36-43.52 33.28-43.52h537.6v586.24h-537.6z m803.84 0H724.48V398.08H947.2v322.56c0 24.32-15.36 43.52-33.28 43.52z"  /><path fill="#333333" d="M839.68 523.52c-21.76 0-38.4 16.64-38.4 38.4v58.88c0 21.76 16.64 38.4 38.4 38.4s38.4-16.64 38.4-38.4v-58.88c0-20.48-17.92-38.4-38.4-38.4z"  /></svg>