<?xml version="1.0" standalone="no"?><!DOCTYPE svg PUBLIC "-//W3C//DTD SVG 1.1//EN" "http://www.w3.org/Graphics/SVG/1.1/DTD/svg11.dtd"><svg class="icon" width="200px" height="200.00px" viewBox="0 0 1024 1024" version="1.1" xmlns="http://www.w3.org/2000/svg"><path fill="#333333" d="M1024.6304 861.44l-64-404.48c-6.4-47.36-48.64-83.2-96-83.2l-10.24-175.36v-5.12c-8.96-44.8-47.36-76.8-93.44-76.8h-499.2c-47.36 0-87.04 34.56-93.44 80.64v2.56l-11.52 172.8c-44.8 3.84-80.64 37.12-88.32 81.92L0.6304 861.44c-3.84 20.48 10.24 40.96 32 44.8H39.0304c17.92 0 34.56-12.8 38.4-32l19.2-113.92h834.56l17.92 113.92c3.84 20.48 23.04 35.84 43.52 32 20.48-3.84 34.56-23.04 32-44.8zM261.7504 194.56h499.2c7.68 0 15.36 5.12 16.64 12.8l10.24 167.68H666.2304c-12.8-72.96-75.52-128-152.32-128s-139.52 55.04-152.32 128h-128l10.24-166.4c1.28-7.68 8.96-14.08 17.92-14.08z m325.12 180.48H438.3904c11.52-30.72 39.68-52.48 74.24-52.48 34.56-1.28 64 20.48 74.24 52.48zM108.1504 683.52l35.84-215.04c1.28-10.24 10.24-16.64 20.48-16.64h700.16c10.24 0 19.2 7.68 20.48 17.92l33.28 213.76H108.1504z"  /></svg>