<?xml version="1.0" standalone="no"?><!DOCTYPE svg PUBLIC "-//W3C//DTD SVG 1.1//EN" "http://www.w3.org/Graphics/SVG/1.1/DTD/svg11.dtd"><svg class="icon" width="200px" height="199.80px" viewBox="0 0 1025 1024" version="1.1" xmlns="http://www.w3.org/2000/svg"><path fill="#333333" d="M1013.76 344.32L832 97.28c-7.68-8.96-19.2-14.08-30.72-14.08H221.44c-11.52 0-23.04 5.12-30.72 14.08L10.24 344.32c-6.4 7.68-10.24 17.92-10.24 26.88v128c0 23.04 17.92 40.96 40.96 40.96h110.08v360.96c0 21.76 17.92 39.68 39.68 39.68s39.68-17.92 39.68-39.68V540.16h567.04v360.96c0 21.76 17.92 39.68 39.68 39.68s39.68-17.92 39.68-39.68V540.16h107.52c23.04 0 40.96-17.92 40.96-40.96V371.2c-1.28-8.96-5.12-19.2-11.52-26.88zM241.92 162.56h541.44l121.6 165.12H120.32l121.6-165.12zM79.36 460.8v-53.76h866.56V460.8H79.36z"  /></svg>