<?xml version="1.0" standalone="no"?><!DOCTYPE svg PUBLIC "-//W3C//DTD SVG 1.1//EN" "http://www.w3.org/Graphics/SVG/1.1/DTD/svg11.dtd"><svg class="icon" width="200px" height="200.00px" viewBox="0 0 1024 1024" version="1.1" xmlns="http://www.w3.org/2000/svg"><path fill="#333333" d="M897.28 0H126.72C79.36 0 40.96 38.4 40.96 85.76v852.48c0 47.36 38.4 85.76 85.76 85.76h770.56c47.36 0 85.76-38.4 85.76-85.76V85.76c0-47.36-38.4-85.76-85.76-85.76zM117.76 938.24V683.52h273.92c21.76 0 38.4-16.64 38.4-38.4s-16.64-38.4-38.4-38.4H117.76V85.76c0-5.12 3.84-8.96 8.96-8.96H473.6v870.4H126.72c-5.12 0-8.96-3.84-8.96-8.96z m788.48 0c0 5.12-3.84 8.96-8.96 8.96H550.4V76.8h346.88c5.12 0 8.96 3.84 8.96 8.96v852.48z"  /><path fill="#333333" d="M276.48 769.28h-42.24c-21.76 0-38.4 16.64-38.4 38.4s16.64 38.4 38.4 38.4h42.24c21.76 0 38.4-16.64 38.4-38.4s-16.64-38.4-38.4-38.4zM724.48 133.12c-21.76 0-38.4 16.64-38.4 38.4v115.2c0 21.76 16.64 38.4 38.4 38.4s38.4-16.64 38.4-38.4v-115.2c0-21.76-17.92-38.4-38.4-38.4z"  /></svg>