<?xml version="1.0" standalone="no"?><!DOCTYPE svg PUBLIC "-//W3C//DTD SVG 1.1//EN" "http://www.w3.org/Graphics/SVG/1.1/DTD/svg11.dtd"><svg class="icon" width="200px" height="200.00px" viewBox="0 0 1024 1024" version="1.1" xmlns="http://www.w3.org/2000/svg"><path fill="#333333" d="M988.16 837.12h-33.28c11.52-26.88 17.92-62.72 17.92-113.92 0-231.68-153.6-423.68-375.04-465.92 3.84-11.52 6.4-23.04 6.4-35.84v-8.96c0-55.04-43.52-98.56-98.56-98.56-55.04 0-98.56 43.52-98.56 98.56v8.96c0 12.8 2.56 24.32 6.4 35.84C193.28 299.52 39.68 492.8 39.68 724.48c0 51.2 6.4 85.76 16.64 113.92H35.84c-20.48 0-35.84 16.64-35.84 35.84 0 20.48 16.64 35.84 35.84 35.84h952.32c20.48 0 35.84-16.64 35.84-35.84 0-20.48-16.64-37.12-35.84-37.12zM478.72 212.48c0-14.08 11.52-26.88 26.88-26.88 14.08 0 26.88 11.52 26.88 26.88v8.96c0 14.08-11.52 26.88-26.88 26.88-14.08 0-26.88-11.52-26.88-26.88v-8.96z m26.88 107.52c212.48 0 373.76 161.28 392.96 367.36H113.92c17.92-204.8 179.2-367.36 391.68-367.36zM140.8 837.12c-12.8-14.08-24.32-32-28.16-78.08h785.92c-3.84 46.08-15.36 65.28-28.16 78.08H140.8z"  /></svg>