<?xml version="1.0" standalone="no"?><!DOCTYPE svg PUBLIC "-//W3C//DTD SVG 1.1//EN" "http://www.w3.org/Graphics/SVG/1.1/DTD/svg11.dtd"><svg class="icon" width="200px" height="200.00px" viewBox="0 0 1024 1024" version="1.1" xmlns="http://www.w3.org/2000/svg"><path fill="#333333" d="M849.92 0H174.08C113.92 0 65.28 48.64 65.28 108.8v744.96c0 94.72 76.8 170.24 170.24 170.24h552.96c94.72 0 170.24-76.8 170.24-170.24V108.8c0-60.16-48.64-108.8-108.8-108.8z m32 853.76c0 51.2-42.24 93.44-93.44 93.44H235.52c-51.2 0-93.44-42.24-93.44-93.44V108.8c0-17.92 14.08-32 32-32h675.84c17.92 0 32 14.08 32 32v744.96z"  /><path fill="#333333" d="M512 350.72c-135.68 0-244.48 110.08-244.48 244.48S376.32 839.68 512 839.68c135.68 0 244.48-110.08 244.48-244.48S647.68 350.72 512 350.72z m0 412.16c-92.16 0-167.68-75.52-167.68-167.68 0-92.16 75.52-167.68 167.68-167.68 92.16 0 167.68 75.52 167.68 167.68 0 93.44-75.52 167.68-167.68 167.68z"  /><path fill="#333333" d="M537.6 217.6m-38.4 0a38.4 38.4 0 1 0 76.8 0 38.4 38.4 0 1 0-76.8 0Z"  /><path fill="#333333" d="M414.72 217.6c0-21.76-16.64-38.4-38.4-38.4h-121.6c-21.76 0-38.4 16.64-38.4 38.4s16.64 38.4 38.4 38.4h121.6c21.76 0 38.4-16.64 38.4-38.4z"  /></svg>