<?xml version="1.0" standalone="no"?><!DOCTYPE svg PUBLIC "-//W3C//DTD SVG 1.1//EN" "http://www.w3.org/Graphics/SVG/1.1/DTD/svg11.dtd"><svg class="icon" width="200px" height="200.00px" viewBox="0 0 1024 1024" version="1.1" xmlns="http://www.w3.org/2000/svg"><path fill="#333333" d="M198.4 1018.88c-51.2 0-101.12-19.2-140.8-57.6-76.8-76.8-76.8-203.52 0-280.32 2.56-2.56 3.84-3.84 6.4-5.12l316.16-200.96c17.92-11.52 42.24-6.4 53.76 11.52 11.52 17.92 6.4 42.24-11.52 53.76L110.08 738.56c-44.8 47.36-43.52 121.6 2.56 167.68 46.08 46.08 121.6 47.36 168.96 2.56l199.68-299.52c11.52-17.92 35.84-23.04 53.76-10.24 17.92 11.52 23.04 35.84 10.24 53.76L343.04 954.88c-1.28 2.56-2.56 3.84-5.12 6.4-38.4 38.4-88.32 57.6-139.52 57.6zM569.6 595.2c-10.24 0-19.2-3.84-26.88-11.52L445.44 486.4c-15.36-15.36-15.36-39.68 0-55.04 15.36-15.36 39.68-15.36 55.04 0l97.28 97.28c15.36 15.36 15.36 39.68 0 55.04-7.68 7.68-17.92 11.52-28.16 11.52z"  /><path fill="#333333" d="M190.72 791.04c-26.88 0-47.36 21.76-47.36 47.36 0 26.88 21.76 47.36 47.36 47.36 26.88 0 47.36-21.76 47.36-47.36 0-26.88-21.76-47.36-47.36-47.36zM736 538.88c-61.44 0-121.6-26.88-167.68-72.96-88.32-89.6-96-226.56-16.64-305.92L686.08 21.76c11.52-12.8 28.16-17.92 46.08-16.64 16.64 1.28 32 10.24 40.96 24.32L803.84 76.8c14.08 21.76 11.52 51.2-6.4 70.4L729.6 217.6c-17.92 19.2-14.08 53.76 8.96 76.8 12.8 12.8 29.44 20.48 44.8 20.48 7.68 0 20.48-2.56 29.44-11.52l67.84-70.4c19.2-19.2 48.64-23.04 70.4-7.68l48.64 33.28c14.08 8.96 21.76 24.32 24.32 39.68 1.28 16.64-3.84 33.28-15.36 44.8l-135.68 140.8c-35.84 35.84-84.48 55.04-136.96 55.04z m-12.8-444.16l-116.48 119.04c-49.92 49.92-42.24 138.24 16.64 197.12 30.72 32 71.68 49.92 112.64 49.92 32 0 60.16-11.52 81.92-32l117.76-120.32-11.52-7.68-56.32 57.6c-21.76 21.76-52.48 34.56-84.48 34.56-37.12 0-72.96-15.36-101.12-43.52-52.48-53.76-57.6-136.96-8.96-185.6L729.6 104.96l-6.4-10.24z m232.96 229.12z m-48.64-33.28z"  /></svg>