<?xml version="1.0" standalone="no"?><!DOCTYPE svg PUBLIC "-//W3C//DTD SVG 1.1//EN" "http://www.w3.org/Graphics/SVG/1.1/DTD/svg11.dtd"><svg class="icon" width="200px" height="200.00px" viewBox="0 0 1024 1024" version="1.1" xmlns="http://www.w3.org/2000/svg"><path fill="#333333" d="M815.36 0H208.64C129.28 0 65.28 64 65.28 143.36v737.28c0 79.36 64 143.36 143.36 143.36h606.72c79.36 0 143.36-64 143.36-143.36V143.36C958.72 64 894.72 0 815.36 0z m66.56 880.64c0 37.12-29.44 66.56-66.56 66.56H208.64c-37.12 0-66.56-29.44-66.56-66.56V143.36c0-37.12 29.44-66.56 66.56-66.56h606.72c37.12 0 66.56 29.44 66.56 66.56v737.28z"  /><path fill="#333333" d="M512 298.24c-156.16 0-282.88 126.72-282.88 282.88S355.84 864 512 864s282.88-126.72 282.88-282.88S668.16 298.24 512 298.24zM307.2 606.72c-1.28-8.96-1.28-16.64-1.28-25.6 0-113.92 92.16-206.08 206.08-206.08 88.32 0 163.84 56.32 193.28 134.4-1.28 1.28-3.84 2.56-5.12 3.84-33.28 32-135.68 76.8-189.44 87.04-40.96 7.68-160 10.24-195.84 6.4H307.2z m204.8 180.48c-75.52 0-142.08-40.96-177.92-102.4 11.52 0 24.32 1.28 38.4 1.28 55.04 0 121.6-3.84 152.32-10.24 46.08-8.96 134.4-42.24 192-79.36-7.68 106.24-96 190.72-204.8 190.72z"  /><path fill="#333333" d="M258.56 189.44m-51.2 0a51.2 51.2 0 1 0 102.4 0 51.2 51.2 0 1 0-102.4 0Z"  /><path fill="#333333" d="M410.88 189.44m-51.2 0a51.2 51.2 0 1 0 102.4 0 51.2 51.2 0 1 0-102.4 0Z"  /></svg>