<?xml version="1.0" standalone="no"?><!DOCTYPE svg PUBLIC "-//W3C//DTD SVG 1.1//EN" "http://www.w3.org/Graphics/SVG/1.1/DTD/svg11.dtd"><svg class="icon" width="200px" height="200.00px" viewBox="0 0 1024 1024" version="1.1" xmlns="http://www.w3.org/2000/svg"><path fill="#333333" d="M512 0C263.68 0 62.72 300.8 62.72 549.12c0 153.6 76.8 229.12 194.56 264.96l-74.24 154.88c-8.96 19.2-1.28 42.24 17.92 51.2 5.12 2.56 11.52 3.84 16.64 3.84 14.08 0 28.16-7.68 34.56-21.76l81.92-171.52c55.04 8.96 115.2 11.52 177.92 11.52 57.6 0 113.92-2.56 163.84-8.96l81.92 168.96c6.4 14.08 20.48 21.76 34.56 21.76 5.12 0 11.52-1.28 16.64-3.84 19.2-8.96 26.88-32 17.92-51.2l-72.96-151.04c125.44-33.28 207.36-110.08 207.36-268.8C961.28 300.8 760.32 0 512 0z m282.88 720.64c-58.88 30.72-148.48 44.8-282.88 44.8-134.4 0-224-14.08-282.88-44.8-42.24-21.76-90.88-61.44-90.88-171.52 0-106.24 43.52-226.56 116.48-321.28C328.96 131.84 422.4 76.8 512 76.8c89.6 0 183.04 55.04 257.28 151.04 72.96 94.72 116.48 215.04 116.48 321.28-1.28 110.08-48.64 149.76-90.88 171.52z"  /><path fill="#333333" d="M512 451.84c-128 0-186.88 40.96-232.96 79.36-16.64 14.08-17.92 37.12-5.12 53.76 7.68 8.96 17.92 14.08 29.44 14.08 8.96 0 17.92-2.56 24.32-8.96 38.4-32 81.92-61.44 184.32-61.44 103.68 0 151.04 30.72 183.04 60.16 15.36 14.08 39.68 14.08 53.76-1.28 14.08-15.36 14.08-39.68-1.28-53.76-40.96-38.4-103.68-81.92-235.52-81.92z"  /></svg>